<svg width="126" height="167" viewBox="0 0 126 167" fill="none" xmlns="http://www.w3.org/2000/svg">
  <path d="M39.2941 48.3666V60H37.8854V49.8435H37.8172L34.977 51.7293V50.2979L37.8854 48.3666H39.2941ZM46.4344 60.1591C45.5785 60.1591 44.8496 59.9262 44.2474 59.4604C43.6453 58.9908 43.1852 58.311 42.8671 57.4211C42.549 56.5274 42.3899 55.4481 42.3899 54.1833C42.3899 52.926 42.549 51.8524 42.8671 50.9625C43.189 50.0688 43.651 49.3871 44.2531 48.9176C44.859 48.4442 45.5861 48.2075 46.4344 48.2075C47.2827 48.2075 48.0079 48.4442 48.61 48.9176C49.2159 49.3871 49.6779 50.0688 49.996 50.9625C50.3179 51.8524 50.4788 52.926 50.4788 54.1833C50.4788 55.4481 50.3198 56.5274 50.0017 57.4211C49.6836 58.311 49.2235 58.9908 48.6213 59.4604C48.0192 59.9262 47.2902 60.1591 46.4344 60.1591ZM46.4344 58.9094C47.2827 58.9094 47.9416 58.5004 48.4112 57.6824C48.8807 56.8644 49.1155 55.698 49.1155 54.1833C49.1155 53.176 49.0076 52.3182 48.7917 51.6101C48.5797 50.9019 48.2729 50.3623 47.8715 49.9911C47.4739 49.62 46.9948 49.4345 46.4344 49.4345C45.5937 49.4345 44.9367 49.8491 44.4633 50.6785C43.9899 51.504 43.7532 52.6723 43.7532 54.1833C43.7532 55.1906 43.8593 56.0464 44.0713 56.7508C44.2834 57.4552 44.5883 57.991 44.9859 58.3584C45.3873 58.7257 45.8701 58.9094 46.4344 58.9094ZM60.9307 60.1591C60.0749 60.1591 59.3459 59.9262 58.7438 59.4604C58.1417 58.9908 57.6816 58.311 57.3635 57.4211C57.0454 56.5274 56.8863 55.4481 56.8863 54.1833C56.8863 52.926 57.0454 51.8524 57.3635 50.9625C57.6854 50.0688 58.1474 49.3871 58.7495 48.9176C59.3554 48.4442 60.0825 48.2075 60.9307 48.2075C61.779 48.2075 62.5042 48.4442 63.1063 48.9176C63.7122 49.3871 64.1743 50.0688 64.4924 50.9625C64.8142 51.8524 64.9752 52.926 64.9752 54.1833C64.9752 55.4481 64.8161 56.5274 64.498 57.4211C64.1799 58.311 63.7198 58.9908 63.1177 59.4604C62.5156 59.9262 61.7866 60.1591 60.9307 60.1591ZM60.9307 58.9094C61.779 58.9094 62.4379 58.5004 62.9075 57.6824C63.3771 56.8644 63.6119 55.698 63.6119 54.1833C63.6119 53.176 63.504 52.3182 63.2881 51.6101C63.076 50.9019 62.7693 50.3623 62.3679 49.9911C61.9703 49.62 61.4912 49.4345 60.9307 49.4345C60.0901 49.4345 59.433 49.8491 58.9597 50.6785C58.4863 51.504 58.2496 52.6723 58.2496 54.1833C58.2496 55.1906 58.3556 56.0464 58.5677 56.7508C58.7798 57.4552 59.0846 57.991 59.4822 58.3584C59.8837 58.7257 60.3665 58.9094 60.9307 58.9094ZM70.9282 60.1591C70.0724 60.1591 69.3434 59.9262 68.7413 59.4604C68.1392 58.9908 67.6791 58.311 67.361 57.4211C67.0429 56.5274 66.8838 55.4481 66.8838 54.1833C66.8838 52.926 67.0429 51.8524 67.361 50.9625C67.6828 50.0688 68.1449 49.3871 68.747 48.9176C69.3529 48.4442 70.08 48.2075 70.9282 48.2075C71.7765 48.2075 72.5017 48.4442 73.1038 48.9176C73.7097 49.3871 74.1717 50.0688 74.4899 50.9625C74.8117 51.8524 74.9727 52.926 74.9727 54.1833C74.9727 55.4481 74.8136 56.5274 74.4955 57.4211C74.1774 58.311 73.7173 58.9908 73.1152 59.4604C72.5131 59.9262 71.7841 60.1591 70.9282 60.1591ZM70.9282 58.9094C71.7765 58.9094 72.4354 58.5004 72.905 57.6824C73.3746 56.8644 73.6094 55.698 73.6094 54.1833C73.6094 53.176 73.5015 52.3182 73.2856 51.6101C73.0735 50.9019 72.7668 50.3623 72.3654 49.9911C71.9678 49.62 71.4887 49.4345 70.9282 49.4345C70.0875 49.4345 69.4305 49.8491 68.9571 50.6785C68.4838 51.504 68.2471 52.6723 68.2471 54.1833C68.2471 55.1906 68.3531 56.0464 68.5652 56.7508C68.7773 57.4552 69.0821 57.991 69.4797 58.3584C69.8812 58.7257 70.364 58.9094 70.9282 58.9094ZM80.9257 60.1591C80.0699 60.1591 79.3409 59.9262 78.7388 59.4604C78.1367 58.9908 77.6766 58.311 77.3584 57.4211C77.0403 56.5274 76.8813 55.4481 76.8813 54.1833C76.8813 52.926 77.0403 51.8524 77.3584 50.9625C77.6803 50.0688 78.1423 49.3871 78.7445 48.9176C79.3504 48.4442 80.0775 48.2075 80.9257 48.2075C81.774 48.2075 82.4992 48.4442 83.1013 48.9176C83.7072 49.3871 84.1692 50.0688 84.4873 50.9625C84.8092 51.8524 84.9702 52.926 84.9702 54.1833C84.9702 55.4481 84.8111 56.5274 84.493 57.4211C84.1749 58.311 83.7148 58.9908 83.1127 59.4604C82.5106 59.9262 81.7816 60.1591 80.9257 60.1591ZM80.9257 58.9094C81.774 58.9094 82.4329 58.5004 82.9025 57.6824C83.3721 56.8644 83.6069 55.698 83.6069 54.1833C83.6069 53.176 83.499 52.3182 83.2831 51.6101C83.071 50.9019 82.7643 50.3623 82.3629 49.9911C81.9652 49.62 81.4862 49.4345 80.9257 49.4345C80.085 49.4345 79.428 49.8491 78.9546 50.6785C78.4813 51.504 78.2446 52.6723 78.2446 54.1833C78.2446 55.1906 78.3506 56.0464 78.5627 56.7508C78.7748 57.4552 79.0796 57.991 79.4772 58.3584C79.8787 58.7257 80.3615 58.9094 80.9257 58.9094Z" fill="black"/>
  <path d="M38.9987 161.879C38.1429 161.879 37.4139 161.646 36.8118 161.18C36.2097 160.71 35.7496 160.031 35.4315 159.141C35.1134 158.247 34.9543 157.168 34.9543 155.903C34.9543 154.645 35.1134 153.572 35.4315 152.682C35.7533 151.788 36.2154 151.107 36.8175 150.637C37.4234 150.164 38.1505 149.927 38.9987 149.927C39.847 149.927 40.5722 150.164 41.1743 150.637C41.7802 151.107 42.2423 151.788 42.5604 152.682C42.8822 153.572 43.0432 154.645 43.0432 155.903C43.0432 157.168 42.8841 158.247 42.566 159.141C42.2479 160.031 41.7878 160.71 41.1857 161.18C40.5836 161.646 39.8546 161.879 38.9987 161.879ZM38.9987 160.629C39.847 160.629 40.5059 160.22 40.9755 159.402C41.4451 158.584 41.6799 157.418 41.6799 155.903C41.6799 154.895 41.572 154.038 41.3561 153.33C41.144 152.621 40.8373 152.082 40.4359 151.711C40.0383 151.34 39.5592 151.154 38.9987 151.154C38.158 151.154 37.501 151.569 37.0277 152.398C36.5543 153.224 36.3176 154.392 36.3176 155.903C36.3176 156.91 36.4236 157.766 36.6357 158.47C36.8478 159.175 37.1526 159.711 37.5502 160.078C37.9517 160.445 38.4345 160.629 38.9987 160.629Z" fill="black"/>
  <path d="M106.94 25.8973L105.745 26.2355C105.67 26.0363 105.559 25.8429 105.412 25.655C105.27 25.4634 105.074 25.3056 104.826 25.1816C104.578 25.0576 104.261 24.9956 103.874 24.9956C103.344 24.9956 102.903 25.1177 102.55 25.3619C102.2 25.6024 102.025 25.9086 102.025 26.2806C102.025 26.6112 102.146 26.8723 102.386 27.0639C102.627 27.2555 103.002 27.4152 103.513 27.5429L104.798 27.8585C105.572 28.0464 106.149 28.3338 106.528 28.7208C106.908 29.104 107.098 29.5981 107.098 30.203C107.098 30.6989 106.955 31.1423 106.669 31.533C106.387 31.9237 105.993 32.2318 105.486 32.4573C104.979 32.6827 104.389 32.7954 103.716 32.7954C102.833 32.7954 102.102 32.6038 101.524 32.2206C100.945 31.8373 100.579 31.2775 100.425 30.5411L101.687 30.2255C101.808 30.6914 102.035 31.0408 102.369 31.2738C102.707 31.5067 103.149 31.6232 103.694 31.6232C104.314 31.6232 104.806 31.4917 105.17 31.2287C105.538 30.9619 105.722 30.6426 105.722 30.2706C105.722 29.97 105.617 29.7183 105.407 29.5154C105.196 29.3088 104.873 29.1548 104.437 29.0533L102.995 28.7152C102.202 28.5273 101.62 28.2361 101.248 27.8416C100.88 27.4434 100.695 26.9456 100.695 26.3482C100.695 25.8598 100.833 25.4277 101.107 25.052C101.385 24.6763 101.762 24.3813 102.24 24.1672C102.72 23.953 103.265 23.8459 103.874 23.8459C104.731 23.8459 105.403 24.0338 105.891 24.4095C106.384 24.7852 106.733 25.2812 106.94 25.8973Z" fill="black"/>
  <path d="M94.9034 32.615V23.9587H96.1883V25.2661H96.2785C96.4362 24.8378 96.7218 24.4903 97.1351 24.2235C97.5484 23.9568 98.0142 23.8234 98.5327 23.8234C98.6304 23.8234 98.7525 23.8253 98.899 23.829C99.0456 23.8328 99.1564 23.8384 99.2315 23.8459V25.1985C99.1865 25.1872 99.0831 25.1703 98.9216 25.1478C98.7638 25.1215 98.5966 25.1083 98.42 25.1083C97.9992 25.1083 97.6235 25.1966 97.2929 25.3732C96.966 25.546 96.7068 25.7865 96.5152 26.0946C96.3273 26.3989 96.2334 26.7464 96.2334 27.1372V32.615H94.9034Z" fill="black"/>
  <path d="M89.2959 32.7954C88.4618 32.7954 87.7423 32.6113 87.1374 32.2431C86.5363 31.8711 86.0722 31.3527 85.7454 30.6877C85.4223 30.0189 85.2607 29.2412 85.2607 28.3545C85.2607 27.4678 85.4223 26.6863 85.7454 26.01C86.0722 25.33 86.5269 24.8003 87.1092 24.4208C87.6953 24.0376 88.3791 23.8459 89.1606 23.8459C89.6115 23.8459 90.0567 23.9211 90.4963 24.0714C90.9358 24.2217 91.336 24.4659 91.6966 24.804C92.0573 25.1384 92.3448 25.5817 92.5589 26.134C92.7731 26.6863 92.8801 27.3664 92.8801 28.1741V28.7377H86.2075V27.588H91.5276C91.5276 27.0996 91.4299 26.6638 91.2345 26.2806C91.0429 25.8973 90.7686 25.5949 90.4117 25.3732C90.0586 25.1515 89.6415 25.0407 89.1606 25.0407C88.6308 25.0407 88.1725 25.1722 87.7855 25.4352C87.4023 25.6944 87.1073 26.0326 86.9007 26.4496C86.694 26.8667 86.5907 27.3138 86.5907 27.7909V28.5574C86.5907 29.2111 86.7034 29.7653 86.9289 30.2199C87.1581 30.6708 87.4755 31.0145 87.8813 31.2512C88.2871 31.4842 88.7586 31.6006 89.2959 31.6006C89.6453 31.6006 89.9609 31.5518 90.2426 31.4541C90.5282 31.3527 90.7743 31.2024 90.9809 31.0033C91.1876 30.8004 91.3472 30.5486 91.46 30.2481L92.7449 30.6088C92.6096 31.0446 92.3823 31.4278 92.063 31.7584C91.7436 32.0853 91.3491 32.3408 90.8795 32.5249C90.4098 32.7052 89.882 32.7954 89.2959 32.7954Z" fill="black"/>
  <path d="M83.7588 23.9587V25.0858H79.2728V23.9587H83.7588ZM80.5803 21.8847H81.9103V30.1354C81.9103 30.5111 81.9648 30.7929 82.0737 30.9807C82.1864 31.1648 82.3292 31.2888 82.502 31.3527C82.6786 31.4128 82.8646 31.4428 83.06 31.4428C83.2065 31.4428 83.3267 31.4353 83.4207 31.4203C83.5146 31.4015 83.5897 31.3865 83.6461 31.3752L83.9166 32.57C83.8264 32.6038 83.7006 32.6376 83.539 32.6714C83.3774 32.709 83.1727 32.7278 82.9247 32.7278C82.549 32.7278 82.1808 32.647 81.8201 32.4854C81.4632 32.3239 81.1664 32.0778 80.9297 31.7472C80.6967 31.4165 80.5803 30.9995 80.5803 30.496V21.8847Z" fill="black"/>
  <path d="M74.3867 32.7954C73.5526 32.7954 72.8331 32.6113 72.2282 32.2431C71.6271 31.8711 71.1631 31.3527 70.8362 30.6877C70.5131 30.0189 70.3515 29.2412 70.3515 28.3545C70.3515 27.4678 70.5131 26.6863 70.8362 26.01C71.1631 25.33 71.6177 24.8003 72.2 24.4208C72.7861 24.0376 73.4699 23.8459 74.2514 23.8459C74.7023 23.8459 75.1475 23.9211 75.5871 24.0714C76.0267 24.2217 76.4268 24.4659 76.7875 24.804C77.1482 25.1384 77.4356 25.5817 77.6497 26.134C77.8639 26.6863 77.971 27.3664 77.971 28.1741V28.7377H71.2983V27.588H76.6184C76.6184 27.0996 76.5207 26.6638 76.3253 26.2806C76.1337 25.8973 75.8595 25.5949 75.5025 25.3732C75.1494 25.1515 74.7323 25.0407 74.2514 25.0407C73.7217 25.0407 73.2633 25.1722 72.8763 25.4352C72.4931 25.6944 72.1981 26.0326 71.9915 26.4496C71.7849 26.8667 71.6815 27.3138 71.6815 27.7909V28.5574C71.6815 29.2111 71.7943 29.7653 72.0197 30.2199C72.2489 30.6708 72.5664 31.0145 72.9721 31.2512C73.3779 31.4842 73.8494 31.6006 74.3867 31.6006C74.7361 31.6006 75.0517 31.5518 75.3335 31.4541C75.619 31.3527 75.8651 31.2024 76.0717 31.0033C76.2784 30.8004 76.4381 30.5486 76.5508 30.2481L77.8357 30.6088C77.7005 31.0446 77.4731 31.4278 77.1538 31.7584C76.8344 32.0853 76.4399 32.3408 75.9703 32.5249C75.5007 32.7052 74.9728 32.7954 74.3867 32.7954Z" fill="black"/>
  <path d="M56.964 32.6151V23.9587H58.2489V25.3112H58.3616C58.542 24.8491 58.8332 24.4903 59.2352 24.2348C59.6372 23.9756 60.12 23.8459 60.6835 23.8459C61.2546 23.8459 61.7299 23.9756 62.1094 24.2348C62.4926 24.4903 62.7913 24.8491 63.0054 25.3112H63.0956C63.3173 24.8641 63.6498 24.5091 64.0931 24.2461C64.5365 23.9793 65.0681 23.8459 65.688 23.8459C66.462 23.8459 67.0951 24.0883 67.5872 24.5729C68.0794 25.0539 68.3255 25.8034 68.3255 26.8216V32.6151H66.9955V26.8216C66.9955 26.1829 66.8208 25.7264 66.4714 25.4521C66.122 25.1778 65.7106 25.0407 65.2372 25.0407C64.6285 25.0407 64.157 25.2248 63.8226 25.593C63.4882 25.9574 63.321 26.4196 63.321 26.9794V32.6151H61.9685V26.6863C61.9685 26.1941 61.8088 25.7978 61.4894 25.4972C61.1701 25.1929 60.7587 25.0407 60.2552 25.0407C59.9096 25.0407 59.5865 25.1328 59.2859 25.3169C58.9891 25.501 58.7486 25.7564 58.5645 26.0833C58.3842 26.4064 58.294 26.7803 58.294 27.2048V32.6151H56.964Z" fill="black"/>
  <path d="M46.893 32.7954C46.0589 32.7954 45.3395 32.6113 44.7346 32.2431C44.1334 31.8711 43.6694 31.3527 43.3425 30.6877C43.0194 30.0189 42.8579 29.2412 42.8579 28.3545C42.8579 27.4678 43.0194 26.6863 43.3425 26.01C43.6694 25.33 44.124 24.8003 44.7064 24.4208C45.2925 24.0376 45.9763 23.8459 46.7578 23.8459C47.2086 23.8459 47.6538 23.9211 48.0934 24.0714C48.533 24.2217 48.9331 24.4659 49.2938 24.804C49.6545 25.1384 49.9419 25.5817 50.1561 26.134C50.3702 26.6863 50.4773 27.3664 50.4773 28.1741V28.7377H43.8047V27.588H49.1247C49.1247 27.0996 49.0271 26.6638 48.8317 26.2806C48.6401 25.8973 48.3658 25.5949 48.0089 25.3732C47.6557 25.1515 47.2387 25.0407 46.7578 25.0407C46.228 25.0407 45.7696 25.1722 45.3827 25.4352C44.9994 25.6944 44.7045 26.0326 44.4979 26.4496C44.2912 26.8667 44.1879 27.3138 44.1879 27.7909V28.5574C44.1879 29.2111 44.3006 29.7653 44.526 30.2199C44.7552 30.6708 45.0727 31.0145 45.4785 31.2512C45.8842 31.4842 46.3558 31.6006 46.893 31.6006C47.2424 31.6006 47.558 31.5518 47.8398 31.4541C48.1254 31.3527 48.3714 31.2024 48.5781 31.0033C48.7847 30.8004 48.9444 30.5486 49.0571 30.2481L50.3421 30.6088C50.2068 31.0446 49.9795 31.4278 49.6601 31.7584C49.3408 32.0853 48.9463 32.3408 48.4766 32.5249C48.007 32.7052 47.4791 32.7954 46.893 32.7954Z" fill="black"/>
  <path d="M37.6223 32.615V23.9587H38.9073V25.2661H38.9975C39.1553 24.8378 39.4408 24.4903 39.8541 24.2235C40.2674 23.9568 40.7332 23.8234 41.2517 23.8234C41.3494 23.8234 41.4715 23.8253 41.618 23.829C41.7646 23.8328 41.8754 23.8384 41.9505 23.8459V25.1985C41.9055 25.1872 41.8021 25.1703 41.6406 25.1478C41.4828 25.1215 41.3156 25.1083 41.139 25.1083C40.7182 25.1083 40.3425 25.1966 40.0119 25.3732C39.685 25.546 39.4258 25.7865 39.2341 26.0946C39.0463 26.3989 38.9524 26.7464 38.9524 27.1372V32.615H37.6223Z" fill="black"/>
  <path d="M31.2273 32.8179C30.6787 32.8179 30.1809 32.7146 29.7338 32.508C29.2867 32.2976 28.9317 31.9951 28.6687 31.6006C28.4057 31.2024 28.2742 30.7215 28.2742 30.1579C28.2742 29.662 28.3719 29.26 28.5672 28.9519C28.7626 28.64 29.0237 28.3958 29.3506 28.2192C29.6775 28.0426 30.0381 27.9111 30.4326 27.8247C30.8309 27.7346 31.231 27.6632 31.633 27.6106C32.159 27.543 32.5855 27.4922 32.9123 27.4584C33.243 27.4208 33.4834 27.3589 33.6337 27.2724C33.7877 27.186 33.8648 27.0357 33.8648 26.8216V26.7765C33.8648 26.2204 33.7126 25.7884 33.4083 25.4803C33.1077 25.1722 32.6512 25.0182 32.0388 25.0182C31.4038 25.0182 30.906 25.1572 30.5453 25.4352C30.1847 25.7132 29.9311 26.01 29.7845 26.3256L28.5221 25.8748C28.7476 25.3488 29.0481 24.9393 29.4238 24.6462C29.8033 24.3494 30.2166 24.1428 30.6637 24.0263C31.1146 23.9061 31.5579 23.8459 31.9937 23.8459C32.2717 23.8459 32.5911 23.8798 32.9518 23.9474C33.3162 24.0113 33.6675 24.1446 34.0057 24.3475C34.3475 24.5504 34.6312 24.8566 34.8566 25.2661C35.0821 25.6757 35.1948 26.2242 35.1948 26.9118V32.6151H33.8648V31.4428H33.7971C33.707 31.6307 33.5567 31.8317 33.3463 32.0459C33.1359 32.26 32.856 32.4422 32.5066 32.5925C32.1572 32.7428 31.7307 32.8179 31.2273 32.8179ZM31.4301 31.6232C31.9561 31.6232 32.3995 31.5199 32.7602 31.3132C33.1246 31.1066 33.3989 30.8398 33.583 30.5129C33.7708 30.1861 33.8648 29.8423 33.8648 29.4816V28.2643C33.8084 28.3319 33.6844 28.3939 33.4928 28.4503C33.3049 28.5029 33.087 28.5499 32.8391 28.5912C32.5949 28.6288 32.3563 28.6626 32.1233 28.6926C31.8942 28.7189 31.7082 28.7415 31.5654 28.7603C31.2197 28.8053 30.8966 28.8786 30.5961 28.98C30.2993 29.0777 30.0588 29.2261 29.8747 29.4253C29.6944 29.6206 29.6042 29.8874 29.6042 30.2255C29.6042 30.6877 29.7751 31.0371 30.117 31.2738C30.4627 31.5067 30.9004 31.6232 31.4301 31.6232Z" fill="black"/>
  <path d="M24.9139 29.0758V23.9586H26.2439V32.615H24.9139V31.1498H24.8237C24.6208 31.5894 24.3052 31.9632 23.8769 32.2713C23.4486 32.5756 22.9076 32.7278 22.2539 32.7278C21.7128 32.7278 21.2319 32.6094 20.8111 32.3727C20.3903 32.1323 20.0597 31.7716 19.8192 31.2907C19.5788 30.806 19.4586 30.1955 19.4586 29.4591V23.9586H20.7886V29.3689C20.7886 30.0001 20.9652 30.5035 21.3183 30.8793C21.6753 31.255 22.1299 31.4428 22.6822 31.4428C23.0128 31.4428 23.3491 31.3583 23.6909 31.1892C24.0366 31.0201 24.3259 30.7609 24.5588 30.4115C24.7955 30.0621 24.9139 29.6169 24.9139 29.0758Z" fill="black"/>
  <path d="M15.6939 35.8612V31.285H15.5812C15.4835 31.4428 15.3445 31.642 15.1642 31.8824C14.9838 32.1191 14.7265 32.3314 14.3921 32.5193C14.0577 32.7034 13.6125 32.7954 13.0564 32.7954C12.3351 32.7954 11.6983 32.6132 11.146 32.2487C10.5937 31.8805 10.1616 31.3621 9.84975 30.6933C9.53791 30.0208 9.38199 29.2261 9.38199 28.3094C9.38199 27.4002 9.53791 26.6112 9.84975 25.9424C10.1616 25.2737 10.5955 24.757 11.1516 24.3926C11.7076 24.0282 12.3501 23.8459 13.079 23.8459C13.6426 23.8459 14.0878 23.9399 14.4146 24.1277C14.7453 24.3118 14.997 24.5222 15.1698 24.7589C15.3464 24.9919 15.4835 25.1835 15.5812 25.3338H15.739V23.9587H17.024V35.8612H15.6939ZM13.2368 31.6006C13.7703 31.6006 14.2212 31.4616 14.5894 31.1836C14.9576 30.9018 15.2375 30.513 15.4291 30.017C15.6207 29.5173 15.7165 28.9406 15.7165 28.2869C15.7165 27.6406 15.6226 27.0752 15.4347 26.5905C15.2468 26.1021 14.9688 25.7226 14.6006 25.4521C14.2324 25.1778 13.7778 25.0407 13.2368 25.0407C12.6732 25.0407 12.2036 25.1854 11.8279 25.4747C11.4559 25.7602 11.176 26.1491 10.9882 26.6412C10.8041 27.1297 10.712 27.6782 10.712 28.2869C10.712 28.903 10.8059 29.4628 10.9938 29.9663C11.1854 30.466 11.4672 30.8642 11.8391 31.1611C12.2149 31.4541 12.6807 31.6006 13.2368 31.6006Z" fill="black"/>
  <path d="M7.62788 25.8973L6.43311 26.2355C6.35797 26.0363 6.24714 25.8429 6.10061 25.655C5.95784 25.4634 5.76247 25.3056 5.5145 25.1816C5.26653 25.0576 4.94905 24.9956 4.56207 24.9956C4.03232 24.9956 3.59086 25.1177 3.23769 25.3619C2.88827 25.6024 2.71357 25.9086 2.71357 26.2806C2.71357 26.6112 2.8338 26.8723 3.07425 27.0639C3.31471 27.2555 3.69042 27.4152 4.20139 27.5429L5.48632 27.8585C6.26029 28.0464 6.837 28.3338 7.21647 28.7208C7.59594 29.104 7.78568 29.5981 7.78568 30.203C7.78568 30.6989 7.64291 31.1423 7.35737 31.533C7.07558 31.9237 6.68108 32.2318 6.17387 32.4573C5.66666 32.6827 5.0768 32.7954 4.40427 32.7954C3.52135 32.7954 2.79059 32.6038 2.21199 32.2206C1.6334 31.8373 1.26708 31.2775 1.11304 30.5411L2.37543 30.2255C2.49566 30.6914 2.72296 31.0408 3.05735 31.2738C3.39549 31.5067 3.83695 31.6232 4.38173 31.6232C5.00165 31.6232 5.49384 31.4917 5.85828 31.2287C6.22647 30.9619 6.41057 30.6426 6.41057 30.2706C6.41057 29.97 6.30537 29.7183 6.09497 29.5154C5.88457 29.3088 5.56146 29.1548 5.12564 29.0533L3.6829 28.7152C2.89015 28.5273 2.3078 28.2361 1.93585 27.8416C1.56765 27.4434 1.38355 26.9456 1.38355 26.3482C1.38355 25.8598 1.52068 25.4277 1.79495 25.052C2.07298 24.6763 2.45057 24.3813 2.92772 24.1672C3.40864 23.953 3.95342 23.8459 4.56207 23.8459C5.41869 23.8459 6.09122 24.0338 6.57964 24.4095C7.07182 24.7852 7.42124 25.2812 7.62788 25.8973Z" fill="black"/>
  <path d="M125.374 11.8253L125.279 12.522C125.215 13.0334 125.106 13.566 124.953 14.12C124.803 14.6782 124.648 15.196 124.486 15.6733C124.328 16.1505 124.198 16.5298 124.096 16.8111H122.741C122.796 16.5468 122.873 16.1889 122.971 15.7372C123.069 15.2897 123.165 14.789 123.259 14.2351C123.352 13.6811 123.423 13.1164 123.47 12.5412L123.534 11.8253H125.374Z" fill="black"/>
  <path d="M120.595 6.19386L118.863 6.50068C118.79 6.27909 118.675 6.06815 118.517 5.86787C118.364 5.66759 118.155 5.50352 117.891 5.37568C117.627 5.24784 117.297 5.18392 116.9 5.18392C116.359 5.18392 115.907 5.30537 115.545 5.54827C115.183 5.7869 115.002 6.09585 115.002 6.47511C115.002 6.80324 115.123 7.06744 115.366 7.26773C115.609 7.46801 116.001 7.63207 116.542 7.75992L118.102 8.11787C119.005 8.32668 119.679 8.64841 120.122 9.08307C120.565 9.51773 120.787 10.0824 120.787 10.777C120.787 11.365 120.616 11.8892 120.275 12.3494C119.939 12.8054 119.468 13.1633 118.863 13.4233C118.262 13.6832 117.565 13.8132 116.772 13.8132C115.673 13.8132 114.776 13.5788 114.081 13.1101C113.387 12.637 112.961 11.9659 112.803 11.0966L114.65 10.8153C114.765 11.2968 115.002 11.6612 115.36 11.9084C115.718 12.1513 116.184 12.2727 116.76 12.2727C117.386 12.2727 117.887 12.1427 118.262 11.8828C118.637 11.6186 118.824 11.2968 118.824 10.9176C118.824 10.6108 118.709 10.353 118.479 10.1441C118.253 9.93534 117.906 9.77767 117.437 9.67114L115.775 9.30679C114.859 9.09798 114.181 8.7656 113.743 8.30963C113.308 7.85367 113.091 7.27625 113.091 6.57739C113.091 5.99784 113.252 5.49074 113.576 5.05608C113.9 4.62142 114.348 4.28264 114.919 4.03974C115.49 3.79259 116.144 3.66901 116.881 3.66901C117.942 3.66901 118.777 3.89912 119.387 4.35935C119.996 4.81531 120.399 5.42682 120.595 6.19386Z" fill="black"/>
  <path d="M105.847 13.8324C105.225 13.8324 104.662 13.7173 104.159 13.4872C103.656 13.2528 103.258 12.914 102.964 12.4709C102.674 12.0277 102.529 11.4843 102.529 10.8409C102.529 10.2869 102.636 9.83094 102.849 9.47298C103.062 9.11503 103.35 8.83165 103.712 8.62284C104.074 8.41403 104.479 8.25636 104.926 8.14983C105.374 8.0433 105.83 7.96233 106.294 7.90693C106.882 7.83875 107.36 7.78335 107.726 7.74074C108.093 7.69386 108.359 7.61929 108.525 7.51702C108.691 7.41475 108.774 7.24855 108.774 7.01844V6.97369C108.774 6.41546 108.617 5.98293 108.301 5.67611C107.99 5.36929 107.526 5.21588 106.908 5.21588C106.264 5.21588 105.757 5.35864 105.387 5.64415C105.02 5.9254 104.767 6.23861 104.626 6.58378L102.83 6.17469C103.043 5.5781 103.354 5.09656 103.763 4.73009C104.176 4.35935 104.651 4.09088 105.188 3.92469C105.725 3.75423 106.29 3.66901 106.882 3.66901C107.274 3.66901 107.69 3.71588 108.129 3.80963C108.572 3.89912 108.985 4.06531 109.369 4.30821C109.757 4.55111 110.074 4.89841 110.321 5.35011C110.568 5.79756 110.692 6.37923 110.692 7.09514V13.615H108.825V12.2727H108.749C108.625 12.5199 108.44 12.7628 108.193 13.0014C107.945 13.24 107.628 13.4382 107.24 13.5959C106.852 13.7535 106.388 13.8324 105.847 13.8324ZM106.262 12.2983C106.791 12.2983 107.242 12.1939 107.617 11.9851C107.997 11.7762 108.284 11.5035 108.48 11.1669C108.681 10.826 108.781 10.4616 108.781 10.0738V8.80821C108.713 8.87639 108.58 8.94031 108.384 8.99997C108.193 9.05537 107.973 9.10438 107.726 9.14699C107.479 9.18534 107.238 9.22156 107.004 9.25565C106.769 9.28548 106.573 9.31105 106.416 9.33236C106.045 9.37923 105.706 9.45807 105.399 9.56886C105.097 9.67966 104.854 9.83946 104.671 10.0483C104.492 10.2528 104.402 10.5255 104.402 10.8664C104.402 11.3395 104.577 11.6974 104.926 11.9403C105.276 12.179 105.721 12.2983 106.262 12.2983Z" fill="black"/>
  <path d="M96.6566 13.8132C95.6893 13.8132 94.8562 13.6065 94.1573 13.1932C93.4627 12.7755 92.9258 12.1896 92.5465 11.4353C92.1715 10.6768 91.984 9.78832 91.984 8.76986C91.984 7.76418 92.1715 6.87781 92.5465 6.11077C92.9258 5.34372 93.4542 4.745 94.1318 4.3146C94.8136 3.88421 95.6105 3.66901 96.5224 3.66901C97.0764 3.66901 97.6133 3.76063 98.1332 3.94386C98.6531 4.1271 99.1197 4.41474 99.533 4.80679C99.9464 5.19884 100.272 5.70807 100.511 6.33449C100.75 6.95665 100.869 7.71304 100.869 8.60367V9.28122H93.0643V7.8494H98.9961C98.9961 7.34656 98.8938 6.90125 98.6893 6.51347C98.4847 6.12142 98.1971 5.81247 97.8264 5.58662C97.4599 5.36077 97.0295 5.24784 96.5352 5.24784C95.9982 5.24784 95.5295 5.37994 95.1289 5.64415C94.7326 5.90409 94.4258 6.245 94.2085 6.66688C93.9954 7.08449 93.8889 7.53832 93.8889 8.02838V9.14699C93.8889 9.80324 94.0039 10.3615 94.234 10.8217C94.4684 11.2819 94.7944 11.6335 95.212 11.8764C95.6296 12.115 96.1176 12.2343 96.6758 12.2343C97.038 12.2343 97.3683 12.1832 97.6666 12.0809C97.9649 11.9744 98.2227 11.8167 98.44 11.6079C98.6573 11.3991 98.8235 11.1413 98.9386 10.8345L100.748 11.1605C100.603 11.6932 100.343 12.1598 99.9677 12.5603C99.597 12.9566 99.1303 13.2656 98.5678 13.4872C98.0096 13.7045 97.3725 13.8132 96.6566 13.8132Z" fill="black"/>
  <path d="M85.8684 13.615V3.79686H87.7157V5.35652H87.818C87.997 4.82811 88.3123 4.41263 88.764 4.11007C89.22 3.80325 89.7356 3.64984 90.3109 3.64984C90.4302 3.64984 90.5709 3.6541 90.7328 3.66263C90.899 3.67115 91.029 3.6818 91.1227 3.69459V5.52271C91.046 5.5014 90.9096 5.47797 90.7136 5.4524C90.5176 5.42257 90.3216 5.40765 90.1255 5.40765C89.6738 5.40765 89.2711 5.50353 88.9174 5.6953C88.568 5.8828 88.291 6.14487 88.0865 6.48152C87.8819 6.8139 87.7797 7.19317 87.7797 7.6193V13.615H85.8684Z" fill="black"/>
  <path d="M78.4776 13.8324C77.8555 13.8324 77.293 13.7173 76.7901 13.4872C76.2873 13.2528 75.8888 12.914 75.5948 12.4709C75.305 12.0277 75.1602 11.4843 75.1602 10.8409C75.1602 10.2869 75.2667 9.83094 75.4798 9.47298C75.6928 9.11503 75.9805 8.83165 76.3427 8.62284C76.7049 8.41403 77.1097 8.25636 77.5572 8.14983C78.0046 8.0433 78.4606 7.96233 78.9251 7.90693C79.5131 7.83875 79.9904 7.78335 80.3569 7.74074C80.7234 7.69386 80.9897 7.61929 81.1559 7.51702C81.3221 7.41475 81.4052 7.24855 81.4052 7.01844V6.97369C81.4052 6.41546 81.2475 5.98293 80.9322 5.67611C80.6211 5.36929 80.1566 5.21588 79.5387 5.21588C78.8952 5.21588 78.3881 5.35864 78.0174 5.64415C77.6509 5.9254 77.3974 6.23861 77.2567 6.58378L75.4606 6.17469C75.6736 5.5781 75.9847 5.09656 76.3938 4.73009C76.8072 4.35935 77.2823 4.09088 77.8192 3.92469C78.3562 3.75423 78.9208 3.66901 79.5131 3.66901C79.9052 3.66901 80.3207 3.71588 80.7596 3.80963C81.2028 3.89912 81.6161 4.06531 81.9996 4.30821C82.3874 4.55111 82.7049 4.89841 82.9521 5.35011C83.1992 5.79756 83.3228 6.37923 83.3228 7.09514V13.615H81.4563V12.2727H81.3796C81.256 12.5199 81.0707 12.7628 80.8235 13.0014C80.5763 13.24 80.2589 13.4382 79.8711 13.5959C79.4833 13.7535 79.0188 13.8324 78.4776 13.8324ZM78.8931 12.2983C79.4215 12.2983 79.8732 12.1939 80.2482 11.9851C80.6275 11.7762 80.9151 11.5035 81.1111 11.1669C81.3114 10.826 81.4116 10.4616 81.4116 10.0738V8.80821C81.3434 8.87639 81.2113 8.94031 81.0153 8.99997C80.8235 9.05537 80.604 9.10438 80.3569 9.14699C80.1097 9.18534 79.869 9.22156 79.6346 9.25565C79.4002 9.28548 79.2042 9.31105 79.0465 9.33236C78.6758 9.37923 78.337 9.45807 78.0302 9.56886C77.7276 9.67966 77.4847 9.83946 77.3015 10.0483C77.1225 10.2528 77.033 10.5255 77.033 10.8664C77.033 11.3395 77.2077 11.6974 77.5572 11.9403C77.9066 12.179 78.3519 12.2983 78.8931 12.2983Z" fill="black"/>
  <path d="M59.7473 17.2968V3.79685H61.6138V5.38847H61.7736C61.8844 5.18392 62.0442 4.94742 62.253 4.67895C62.4618 4.41048 62.7516 4.17611 63.1223 3.97582C63.4931 3.77128 63.9831 3.66901 64.5925 3.66901C65.3851 3.66901 66.0925 3.86929 66.7147 4.26986C67.3368 4.67043 67.8248 5.24784 68.1785 6.0021C68.5364 6.75636 68.7154 7.66404 68.7154 8.72511C68.7154 9.78619 68.5385 10.696 68.1848 11.4545C67.8312 12.2088 67.3454 12.7905 66.7275 13.1995C66.1096 13.6044 65.4043 13.8068 64.6117 13.8068C64.0151 13.8068 63.5272 13.7066 63.1479 13.5064C62.7729 13.3061 62.4789 13.0717 62.2658 12.8032C62.0527 12.5348 61.8887 12.2961 61.7736 12.0873H61.6586V17.2968H59.7473ZM61.6202 8.70594C61.6202 9.39628 61.7204 10.0014 61.9206 10.5213C62.1209 11.0412 62.4107 11.4481 62.79 11.7422C63.1692 12.0319 63.6337 12.1768 64.1834 12.1768C64.7544 12.1768 65.2317 12.0255 65.6152 11.723C65.9988 11.4162 66.2885 11.0007 66.4846 10.4765C66.6848 9.95239 66.785 9.36219 66.785 8.70594C66.785 8.05821 66.687 7.47653 66.491 6.96091C66.2992 6.44528 66.0094 6.03832 65.6216 5.74003C65.2381 5.44173 64.7587 5.29259 64.1834 5.29259C63.6294 5.29259 63.1607 5.43534 62.7772 5.72085C62.3979 6.00636 62.1103 6.4048 61.9142 6.91617C61.7182 7.42753 61.6202 8.02412 61.6202 8.70594Z" fill="black"/>
  <path d="M55.2617 9.54332V3.79688H57.1793V13.6151H55.3001V11.9148H55.1978C54.972 12.4389 54.6097 12.8757 54.1112 13.2251C53.6168 13.5703 53.0011 13.7429 52.2639 13.7429C51.6332 13.7429 51.0749 13.6044 50.5891 13.3274C50.1076 13.0462 49.7283 12.6307 49.4514 12.081C49.1786 11.5313 49.0423 10.8516 49.0423 10.0419V3.79688H50.9535V9.81179C50.9535 10.4808 51.1389 11.0135 51.5096 11.4098C51.8803 11.8061 52.3619 12.0043 52.9542 12.0043C53.3122 12.0043 53.668 11.9148 54.0217 11.7358C54.3796 11.5568 54.6758 11.2862 54.9102 10.924C55.1488 10.5618 55.266 10.1016 55.2617 9.54332Z" fill="black"/>
  <path d="M36.6865 13.8068C35.8938 13.8068 35.1865 13.6044 34.5643 13.1996C33.9464 12.7905 33.4606 12.2088 33.1069 11.4546C32.7575 10.696 32.5828 9.78624 32.5828 8.72516C32.5828 7.66408 32.7596 6.75641 33.1133 6.00215C33.4713 5.24789 33.9613 4.67048 34.5835 4.26991C35.2056 3.86934 35.9109 3.66906 36.6992 3.66906C37.3086 3.66906 37.7987 3.77133 38.1694 3.97587C38.5444 4.17616 38.8342 4.41053 39.0387 4.679C39.2475 4.94747 39.4095 5.18397 39.5245 5.38852H39.6396V0.52417H41.5508V13.6151H39.6843V12.0874H39.5245C39.4095 12.2962 39.2433 12.5348 39.0259 12.8033C38.8129 13.0718 38.5188 13.3061 38.1438 13.5064C37.7688 13.7067 37.283 13.8068 36.6865 13.8068ZM37.1083 12.1769C37.658 12.1769 38.1225 12.032 38.5018 11.7422C38.8853 11.4482 39.1751 11.0412 39.3711 10.5213C39.5714 10.0014 39.6715 9.39633 39.6715 8.70599C39.6715 8.02417 39.5735 7.42758 39.3775 6.91622C39.1815 6.40485 38.8938 6.00641 38.5146 5.7209C38.1353 5.43539 37.6666 5.29264 37.1083 5.29264C36.533 5.29264 36.0536 5.44178 35.6701 5.74008C35.2866 6.03837 34.9968 6.44533 34.8008 6.96096C34.609 7.47658 34.5132 8.05826 34.5132 8.70599C34.5132 9.36224 34.6112 9.95244 34.8072 10.4766C35.0032 11.0007 35.293 11.4162 35.6765 11.723C36.0643 12.0256 36.5416 12.1769 37.1083 12.1769Z" fill="black"/>
  <path d="M30.4398 0.52417V13.6151H28.5286V0.52417H30.4398Z" fill="black"/>
  <path d="M24.0462 13.6151V3.79688H25.9574V13.6151H24.0462ZM25.0114 2.28196C24.679 2.28196 24.3935 2.17116 24.1548 1.94957C23.9205 1.72372 23.8033 1.45526 23.8033 1.14418C23.8033 0.828835 23.9205 0.560369 24.1548 0.338778C24.3935 0.112926 24.679 0 25.0114 0C25.3438 0 25.6271 0.112926 25.8615 0.338778C26.1002 0.560369 26.2195 0.828835 26.2195 1.14418C26.2195 1.45526 26.1002 1.72372 25.8615 1.94957C25.6271 2.17116 25.3438 2.28196 25.0114 2.28196Z" fill="black"/>
  <path d="M19.5606 9.54332V3.79688H21.4782V13.6151H19.5989V11.9148H19.4966C19.2708 12.4389 18.9086 12.8757 18.41 13.2251C17.9157 13.5703 17.2999 13.7429 16.5627 13.7429C15.932 13.7429 15.3738 13.6044 14.888 13.3274C14.4064 13.0462 14.0272 12.6307 13.7502 12.081C13.4775 11.5313 13.3411 10.8516 13.3411 10.0419V3.79688H15.2523V9.81179C15.2523 10.4808 15.4377 11.0135 15.8084 11.4098C16.1792 11.8061 16.6607 12.0043 17.253 12.0043C17.611 12.0043 17.9668 11.9148 18.3205 11.7358C18.6785 11.5568 18.9746 11.2862 19.209 10.924C19.4476 10.5618 19.5648 10.1016 19.5606 9.54332Z" fill="black"/>
  <path d="M1.71716 13.6151V0.52417H6.5112C7.44017 0.52417 8.20935 0.677579 8.81873 0.984397C9.4281 1.28695 9.88407 1.69818 10.1866 2.21806C10.4892 2.73369 10.6405 3.31536 10.6405 3.96309C10.6405 4.50855 10.5403 4.96877 10.34 5.34377C10.1397 5.71451 9.87128 6.01281 9.53463 6.23866C9.20225 6.46025 8.83577 6.62218 8.4352 6.72445V6.85229C8.86986 6.8736 9.29387 7.01423 9.70722 7.27417C10.1248 7.52985 10.47 7.8942 10.7427 8.36721C11.0155 8.84022 11.1518 9.4155 11.1518 10.0931C11.1518 10.7621 10.9942 11.3629 10.6788 11.8956C10.3677 12.424 9.8862 12.8438 9.23421 13.1549C8.58222 13.4617 7.74912 13.6151 6.73492 13.6151H1.71716ZM3.69231 11.9212H6.54316C7.48918 11.9212 8.16674 11.7379 8.57583 11.3715C8.98492 11.005 9.18946 10.5469 9.18946 9.99718C9.18946 9.58383 9.08506 9.20457 8.87625 8.8594C8.66745 8.51423 8.36915 8.23937 7.98137 8.03482C7.59785 7.83028 7.14188 7.72801 6.61347 7.72801H3.69231V11.9212ZM3.69231 6.18752H6.33861C6.78179 6.18752 7.18023 6.10229 7.53393 5.93184C7.89188 5.76139 8.17526 5.52275 8.38407 5.21593C8.59713 4.90485 8.70367 4.53837 8.70367 4.1165C8.70367 3.57531 8.51404 3.12147 8.13478 2.75499C7.75552 2.38852 7.17384 2.20528 6.38975 2.20528H3.69231V6.18752Z" fill="black"/>
  <path d="M26.3934 45.8882H0.159973V166.498H26.3934V45.8882Z" fill="url(#paint0_linear_0_1)"/>
  <path fill-rule="evenodd" clip-rule="evenodd" d="M0 45.7283H26.5533V166.658H0V45.7283ZM0.31992 46.0482V166.338H26.2334V46.0482H0.31992Z" fill="black"/>
  <defs>
    <linearGradient id="paint0_linear_0_1" x1="-428.213" y1="166.847" x2="-428.213" y2="45.9298" gradientUnits="userSpaceOnUse">
      <stop stop-color="#FEF0D9" stop-opacity="0"/>
      <stop offset="0.0039063" stop-color="#FEEFD8"/>
      <stop offset="0.0078125" stop-color="#FEEFD7"/>
      <stop offset="0.0117188" stop-color="#FEEED5"/>
      <stop offset="0.015625" stop-color="#FEEED4"/>
      <stop offset="0.0195313" stop-color="#FEEDD3"/>
      <stop offset="0.0234375" stop-color="#FEEDD2"/>
      <stop offset="0.0273438" stop-color="#FEECD0"/>
      <stop offset="0.03125" stop-color="#FEECCF"/>
      <stop offset="0.0351563" stop-color="#FEEBCE"/>
      <stop offset="0.0390625" stop-color="#FEEACD"/>
      <stop offset="0.0429688" stop-color="#FEEACB"/>
      <stop offset="0.046875" stop-color="#FEE9CA"/>
      <stop offset="0.0507813" stop-color="#FEE9C9"/>
      <stop offset="0.0546875" stop-color="#FEE8C8"/>
      <stop offset="0.0585938" stop-color="#FEE8C6"/>
      <stop offset="0.0625" stop-color="#FEE7C5"/>
      <stop offset="0.0664063" stop-color="#FEE6C4"/>
      <stop offset="0.0703125" stop-color="#FEE6C3"/>
      <stop offset="0.0742188" stop-color="#FEE5C2"/>
      <stop offset="0.078125" stop-color="#FEE5C0"/>
      <stop offset="0.0820313" stop-color="#FEE4BF"/>
      <stop offset="0.0859375" stop-color="#FEE4BE"/>
      <stop offset="0.0898438" stop-color="#FEE3BD"/>
      <stop offset="0.09375" stop-color="#FEE3BB"/>
      <stop offset="0.0976563" stop-color="#FEE2BA"/>
      <stop offset="0.101563" stop-color="#FEE1B9"/>
      <stop offset="0.105469" stop-color="#FEE1B8"/>
      <stop offset="0.109375" stop-color="#FEE0B6"/>
      <stop offset="0.113281" stop-color="#FEE0B5"/>
      <stop offset="0.117188" stop-color="#FEDFB4"/>
      <stop offset="0.121094" stop-color="#FEDFB3"/>
      <stop offset="0.125" stop-color="#FEDEB2"/>
      <stop offset="0.128906" stop-color="#FDDDB0"/>
      <stop offset="0.132813" stop-color="#FDDDAF"/>
      <stop offset="0.136719" stop-color="#FDDCAE"/>
      <stop offset="0.140625" stop-color="#FDDCAD"/>
      <stop offset="0.144531" stop-color="#FDDBAB"/>
      <stop offset="0.148438" stop-color="#FDDBAA"/>
      <stop offset="0.152344" stop-color="#FDDAA9"/>
      <stop offset="0.15625" stop-color="#FDDAA8"/>
      <stop offset="0.160156" stop-color="#FDD9A6"/>
      <stop offset="0.164063" stop-color="#FDD8A5"/>
      <stop offset="0.167969" stop-color="#FDD8A4"/>
      <stop offset="0.171875" stop-color="#FDD7A3"/>
      <stop offset="0.175781" stop-color="#FDD7A1"/>
      <stop offset="0.179688" stop-color="#FDD6A0"/>
      <stop offset="0.183594" stop-color="#FDD69F"/>
      <stop offset="0.1875" stop-color="#FDD59E"/>
      <stop offset="0.191406" stop-color="#FDD49D"/>
      <stop offset="0.195313" stop-color="#FDD49B"/>
      <stop offset="0.199219" stop-color="#FDD39A"/>
      <stop offset="0.203125" stop-color="#FDD399"/>
      <stop offset="0.207031" stop-color="#FDD298"/>
      <stop offset="0.210938" stop-color="#FDD296"/>
      <stop offset="0.214844" stop-color="#FDD195"/>
      <stop offset="0.21875" stop-color="#FDD194"/>
      <stop offset="0.222656" stop-color="#FDD093"/>
      <stop offset="0.226563" stop-color="#FDCF91"/>
      <stop offset="0.230469" stop-color="#FDCF90"/>
      <stop offset="0.234375" stop-color="#FDCE8F"/>
      <stop offset="0.238281" stop-color="#FDCE8E"/>
      <stop offset="0.242188" stop-color="#FDCD8C"/>
      <stop offset="0.246094" stop-color="#FDCD8B"/>
      <stop offset="0.25" stop-color="#FDCC8A"/>
      <stop offset="0.253906" stop-color="#FDCB89"/>
      <stop offset="0.257813" stop-color="#FDCA88"/>
      <stop offset="0.261719" stop-color="#FDC988"/>
      <stop offset="0.265625" stop-color="#FDC887"/>
      <stop offset="0.269531" stop-color="#FDC786"/>
      <stop offset="0.273438" stop-color="#FDC685"/>
      <stop offset="0.277344" stop-color="#FDC585"/>
      <stop offset="0.28125" stop-color="#FDC484"/>
      <stop offset="0.285156" stop-color="#FDC383"/>
      <stop offset="0.289063" stop-color="#FDC282"/>
      <stop offset="0.292969" stop-color="#FDC182"/>
      <stop offset="0.296875" stop-color="#FDC081"/>
      <stop offset="0.300781" stop-color="#FDBF80"/>
      <stop offset="0.304688" stop-color="#FDBE7F"/>
      <stop offset="0.308594" stop-color="#FDBD7F"/>
      <stop offset="0.3125" stop-color="#FDBC7E"/>
      <stop offset="0.316406" stop-color="#FDBB7D"/>
      <stop offset="0.320313" stop-color="#FDBA7C"/>
      <stop offset="0.324219" stop-color="#FDB97B"/>
      <stop offset="0.328125" stop-color="#FDB87B"/>
      <stop offset="0.332031" stop-color="#FDB77A"/>
      <stop offset="0.335938" stop-color="#FDB679"/>
      <stop offset="0.339844" stop-color="#FDB578"/>
      <stop offset="0.34375" stop-color="#FDB478"/>
      <stop offset="0.347656" stop-color="#FDB377"/>
      <stop offset="0.351563" stop-color="#FDB276"/>
      <stop offset="0.355469" stop-color="#FDB175"/>
      <stop offset="0.359375" stop-color="#FDB075"/>
      <stop offset="0.363281" stop-color="#FDAF74"/>
      <stop offset="0.367188" stop-color="#FDAE73"/>
      <stop offset="0.371094" stop-color="#FDAD72"/>
      <stop offset="0.375" stop-color="#FDAD72"/>
      <stop offset="0.378906" stop-color="#FCAC71"/>
      <stop offset="0.382813" stop-color="#FCAB70"/>
      <stop offset="0.386719" stop-color="#FCAA6F"/>
      <stop offset="0.390625" stop-color="#FCA96E"/>
      <stop offset="0.394531" stop-color="#FCA86E"/>
      <stop offset="0.398438" stop-color="#FCA76D"/>
      <stop offset="0.402344" stop-color="#FCA66C"/>
      <stop offset="0.40625" stop-color="#FCA56B"/>
      <stop offset="0.410156" stop-color="#FCA46B"/>
      <stop offset="0.414063" stop-color="#FCA36A"/>
      <stop offset="0.417969" stop-color="#FCA269"/>
      <stop offset="0.421875" stop-color="#FCA168"/>
      <stop offset="0.425781" stop-color="#FCA068"/>
      <stop offset="0.429688" stop-color="#FC9F67"/>
      <stop offset="0.433594" stop-color="#FC9E66"/>
      <stop offset="0.4375" stop-color="#FC9D65"/>
      <stop offset="0.441406" stop-color="#FC9C64"/>
      <stop offset="0.445313" stop-color="#FC9B64"/>
      <stop offset="0.449219" stop-color="#FC9A63"/>
      <stop offset="0.453125" stop-color="#FC9962"/>
      <stop offset="0.457031" stop-color="#FC9861"/>
      <stop offset="0.460938" stop-color="#FC9761"/>
      <stop offset="0.464844" stop-color="#FC9660"/>
      <stop offset="0.46875" stop-color="#FC955F"/>
      <stop offset="0.472656" stop-color="#FC945E"/>
      <stop offset="0.476563" stop-color="#FC935E"/>
      <stop offset="0.480469" stop-color="#FC925D"/>
      <stop offset="0.484375" stop-color="#FC915C"/>
      <stop offset="0.488281" stop-color="#FC905B"/>
      <stop offset="0.492188" stop-color="#FC8F5B"/>
      <stop offset="0.496094" stop-color="#FC8E5A"/>
      <stop offset="0.5" stop-color="#FC8D59"/>
      <stop offset="0.503906" stop-color="#FC8C58"/>
      <stop offset="0.507813" stop-color="#FB8B58"/>
      <stop offset="0.511719" stop-color="#FB8A57"/>
      <stop offset="0.515625" stop-color="#FA8957"/>
      <stop offset="0.519531" stop-color="#FA8856"/>
      <stop offset="0.523438" stop-color="#FA8755"/>
      <stop offset="0.527344" stop-color="#F98655"/>
      <stop offset="0.53125" stop-color="#F98554"/>
      <stop offset="0.535156" stop-color="#F88454"/>
      <stop offset="0.539063" stop-color="#F88353"/>
      <stop offset="0.542969" stop-color="#F88152"/>
      <stop offset="0.546875" stop-color="#F78052"/>
      <stop offset="0.550781" stop-color="#F77F51"/>
      <stop offset="0.554688" stop-color="#F77E51"/>
      <stop offset="0.558594" stop-color="#F67D50"/>
      <stop offset="0.5625" stop-color="#F67C50"/>
      <stop offset="0.566406" stop-color="#F57B4F"/>
      <stop offset="0.570313" stop-color="#F57A4E"/>
      <stop offset="0.574219" stop-color="#F5794E"/>
      <stop offset="0.578125" stop-color="#F4784D"/>
      <stop offset="0.582031" stop-color="#F4774D"/>
      <stop offset="0.585938" stop-color="#F3764C"/>
      <stop offset="0.589844" stop-color="#F3754B"/>
      <stop offset="0.59375" stop-color="#F3744B"/>
      <stop offset="0.597656" stop-color="#F2734A"/>
      <stop offset="0.601563" stop-color="#F2724A"/>
      <stop offset="0.605469" stop-color="#F17149"/>
      <stop offset="0.609375" stop-color="#F17048"/>
      <stop offset="0.613281" stop-color="#F16F48"/>
      <stop offset="0.617188" stop-color="#F06E47"/>
      <stop offset="0.621094" stop-color="#F06D47"/>
      <stop offset="0.625" stop-color="#F06C46"/>
      <stop offset="0.628906" stop-color="#EF6A45"/>
      <stop offset="0.632813" stop-color="#EF6945"/>
      <stop offset="0.636719" stop-color="#EE6844"/>
      <stop offset="0.640625" stop-color="#EE6744"/>
      <stop offset="0.644531" stop-color="#EE6643"/>
      <stop offset="0.648438" stop-color="#ED6542"/>
      <stop offset="0.652344" stop-color="#ED6442"/>
      <stop offset="0.65625" stop-color="#EC6341"/>
      <stop offset="0.660156" stop-color="#EC6241"/>
      <stop offset="0.664063" stop-color="#EC6140"/>
      <stop offset="0.667969" stop-color="#EB603F"/>
      <stop offset="0.671875" stop-color="#EB5F3F"/>
      <stop offset="0.675781" stop-color="#EA5E3E"/>
      <stop offset="0.679688" stop-color="#EA5D3E"/>
      <stop offset="0.683594" stop-color="#EA5C3D"/>
      <stop offset="0.6875" stop-color="#E95B3D"/>
      <stop offset="0.691406" stop-color="#E95A3C"/>
      <stop offset="0.695313" stop-color="#E8593B"/>
      <stop offset="0.699219" stop-color="#E8583B"/>
      <stop offset="0.703125" stop-color="#E8573A"/>
      <stop offset="0.707031" stop-color="#E7563A"/>
      <stop offset="0.710938" stop-color="#E75439"/>
      <stop offset="0.714844" stop-color="#E75338"/>
      <stop offset="0.71875" stop-color="#E65238"/>
      <stop offset="0.722656" stop-color="#E65137"/>
      <stop offset="0.726563" stop-color="#E55037"/>
      <stop offset="0.730469" stop-color="#E54F36"/>
      <stop offset="0.734375" stop-color="#E54E35"/>
      <stop offset="0.738281" stop-color="#E44D35"/>
      <stop offset="0.742188" stop-color="#E44C34"/>
      <stop offset="0.746094" stop-color="#E34B34"/>
      <stop offset="0.75" stop-color="#E34A33"/>
      <stop offset="0.753906" stop-color="#E24932"/>
      <stop offset="0.757813" stop-color="#E14831"/>
      <stop offset="0.761719" stop-color="#E14731"/>
      <stop offset="0.765625" stop-color="#E04530"/>
      <stop offset="0.769531" stop-color="#DF442F"/>
      <stop offset="0.773438" stop-color="#DE432E"/>
      <stop offset="0.777344" stop-color="#DE422D"/>
      <stop offset="0.78125" stop-color="#DD412D"/>
      <stop offset="0.785156" stop-color="#DC402C"/>
      <stop offset="0.789063" stop-color="#DB3E2B"/>
      <stop offset="0.792969" stop-color="#DB3D2A"/>
      <stop offset="0.796875" stop-color="#DA3C29"/>
      <stop offset="0.800781" stop-color="#D93B29"/>
      <stop offset="0.804688" stop-color="#D83A28"/>
      <stop offset="0.808594" stop-color="#D83927"/>
      <stop offset="0.8125" stop-color="#D73826"/>
      <stop offset="0.816406" stop-color="#D63625"/>
      <stop offset="0.820313" stop-color="#D53525"/>
      <stop offset="0.824219" stop-color="#D53424"/>
      <stop offset="0.828125" stop-color="#D43323"/>
      <stop offset="0.832031" stop-color="#D33222"/>
      <stop offset="0.835938" stop-color="#D23121"/>
      <stop offset="0.839844" stop-color="#D22F21"/>
      <stop offset="0.84375" stop-color="#D12E20"/>
      <stop offset="0.847656" stop-color="#D02D1F"/>
      <stop offset="0.851563" stop-color="#CF2C1E"/>
      <stop offset="0.855469" stop-color="#CF2B1D"/>
      <stop offset="0.859375" stop-color="#CE2A1D"/>
      <stop offset="0.863281" stop-color="#CD281C"/>
      <stop offset="0.867188" stop-color="#CC271B"/>
      <stop offset="0.871094" stop-color="#CC261A"/>
      <stop offset="0.875" stop-color="#CB251A"/>
      <stop offset="0.878906" stop-color="#CA2419"/>
      <stop offset="0.882813" stop-color="#C92318"/>
      <stop offset="0.886719" stop-color="#C92217"/>
      <stop offset="0.890625" stop-color="#C82016"/>
      <stop offset="0.894531" stop-color="#C71F16"/>
      <stop offset="0.898438" stop-color="#C61E15"/>
      <stop offset="0.902344" stop-color="#C61D14"/>
      <stop offset="0.90625" stop-color="#C51C13"/>
      <stop offset="0.910156" stop-color="#C41B12"/>
      <stop offset="0.914063" stop-color="#C31912"/>
      <stop offset="0.917969" stop-color="#C31811"/>
      <stop offset="0.921875" stop-color="#C21710"/>
      <stop offset="0.925781" stop-color="#C1160F"/>
      <stop offset="0.929688" stop-color="#C0150E"/>
      <stop offset="0.933594" stop-color="#C0140E"/>
      <stop offset="0.9375" stop-color="#BF130D"/>
      <stop offset="0.941406" stop-color="#BE110C"/>
      <stop offset="0.945313" stop-color="#BD100B"/>
      <stop offset="0.949219" stop-color="#BD0F0A"/>
      <stop offset="0.953125" stop-color="#BC0E0A"/>
      <stop offset="0.957031" stop-color="#BB0D09"/>
      <stop offset="0.960938" stop-color="#BA0C08"/>
      <stop offset="0.964844" stop-color="#BA0A07"/>
      <stop offset="0.96875" stop-color="#B90906"/>
      <stop offset="0.972656" stop-color="#B80806"/>
      <stop offset="0.976563" stop-color="#B70705"/>
      <stop offset="0.980469" stop-color="#B70604"/>
      <stop offset="0.984375" stop-color="#B60503"/>
      <stop offset="0.988281" stop-color="#B50302"/>
      <stop offset="1" stop-color="#B30000"/>
    </linearGradient>
  </defs>
</svg>