<svg width="157" height="166" viewBox="0 0 157 166" fill="none" xmlns="http://www.w3.org/2000/svg">
  <path d="M40.2941 47.3666V59H38.8854V48.8435H38.8172L35.977 50.7293V49.2979L38.8854 47.3666H40.2941ZM43.6399 59V57.9775L47.4798 53.774C47.9305 53.2817 48.3016 52.8538 48.5932 52.4903C48.8848 52.1229 49.1006 51.7783 49.2407 51.4564C49.3847 51.1308 49.4566 50.7899 49.4566 50.434C49.4566 50.025 49.3581 49.6709 49.1612 49.3717C48.9681 49.0726 48.703 48.8416 48.366 48.6787C48.0289 48.5159 47.6502 48.4345 47.2299 48.4345C46.783 48.4345 46.393 48.5272 46.0597 48.7128C45.7303 48.8946 45.4746 49.1502 45.2929 49.4797C45.1149 49.8091 45.0259 50.1954 45.0259 50.6385H43.6853C43.6853 49.9568 43.8425 49.3585 44.1568 48.8435C44.4711 48.3284 44.899 47.927 45.4406 47.6392C45.9859 47.3514 46.5975 47.2075 47.2753 47.2075C47.957 47.2075 48.561 47.3514 49.0874 47.6392C49.6138 47.927 50.0265 48.3152 50.3257 48.8037C50.6249 49.2922 50.7745 49.8356 50.7745 50.434C50.7745 50.8619 50.6968 51.2803 50.5416 51.6893C50.3901 52.0945 50.125 52.5471 49.7463 53.0469C49.3714 53.543 48.8507 54.1489 48.1842 54.8647L45.5712 57.6594V57.7503H50.9789V59H43.6399ZM57.1195 59.1591C56.2636 59.1591 55.5346 58.9262 54.9325 58.4604C54.3304 57.9908 53.8703 57.311 53.5522 56.4211C53.2341 55.5274 53.075 54.4481 53.075 53.1833C53.075 51.926 53.2341 50.8524 53.5522 49.9625C53.8741 49.0688 54.3361 48.3871 54.9382 47.9176C55.5441 47.4442 56.2712 47.2075 57.1195 47.2075C57.9677 47.2075 58.6929 47.4442 59.295 47.9176C59.901 48.3871 60.363 49.0688 60.6811 49.9625C61.003 50.8524 61.1639 51.926 61.1639 53.1833C61.1639 54.4481 61.0048 55.5274 60.6867 56.4211C60.3686 57.311 59.9085 57.9908 59.3064 58.4604C58.7043 58.9262 57.9753 59.1591 57.1195 59.1591ZM57.1195 57.9094C57.9677 57.9094 58.6267 57.5004 59.0962 56.6824C59.5658 55.8644 59.8006 54.698 59.8006 53.1833C59.8006 52.176 59.6927 51.3182 59.4768 50.6101C59.2648 49.9019 58.958 49.3623 58.5566 48.9911C58.159 48.62 57.6799 48.4345 57.1195 48.4345C56.2788 48.4345 55.6217 48.8491 55.1484 49.6785C54.675 50.504 54.4383 51.6723 54.4383 53.1833C54.4383 54.1906 54.5443 55.0464 54.7564 55.7508C54.9685 56.4552 55.2733 56.991 55.671 57.3584C56.0724 57.7257 56.5552 57.9094 57.1195 57.9094ZM67.1169 59.1591C66.2611 59.1591 65.5321 58.9262 64.93 58.4604C64.3279 57.9908 63.8678 57.311 63.5497 56.4211C63.2316 55.5274 63.0725 54.4481 63.0725 53.1833C63.0725 51.926 63.2316 50.8524 63.5497 49.9625C63.8716 49.0688 64.3336 48.3871 64.9357 47.9176C65.5416 47.4442 66.2687 47.2075 67.1169 47.2075C67.9652 47.2075 68.6904 47.4442 69.2925 47.9176C69.8984 48.3871 70.3605 49.0688 70.6786 49.9625C71.0004 50.8524 71.1614 51.926 71.1614 53.1833C71.1614 54.4481 71.0023 55.5274 70.6842 56.4211C70.3661 57.311 69.906 57.9908 69.3039 58.4604C68.7018 58.9262 67.9728 59.1591 67.1169 59.1591ZM67.1169 57.9094C67.9652 57.9094 68.6241 57.5004 69.0937 56.6824C69.5633 55.8644 69.7981 54.698 69.7981 53.1833C69.7981 52.176 69.6902 51.3182 69.4743 50.6101C69.2622 49.9019 68.9555 49.3623 68.5541 48.9911C68.1565 48.62 67.6774 48.4345 67.1169 48.4345C66.2763 48.4345 65.6192 48.8491 65.1459 49.6785C64.6725 50.504 64.4358 51.6723 64.4358 53.1833C64.4358 54.1906 64.5418 55.0464 64.7539 55.7508C64.966 56.4552 65.2708 56.991 65.6684 57.3584C66.0699 57.7257 66.5527 57.9094 67.1169 57.9094Z" fill="black"/>
  <path d="M40.2941 149.086V160.719H38.8854V150.563H38.8172L35.977 152.449V151.017L38.8854 149.086H40.2941ZM47.4344 160.879C46.5785 160.879 45.8496 160.646 45.2474 160.18C44.6453 159.71 44.1852 159.031 43.8671 158.141C43.549 157.247 43.3899 156.168 43.3899 154.903C43.3899 153.645 43.549 152.572 43.8671 151.682C44.189 150.788 44.651 150.107 45.2531 149.637C45.859 149.164 46.5861 148.927 47.4344 148.927C48.2827 148.927 49.0079 149.164 49.61 149.637C50.2159 150.107 50.6779 150.788 50.996 151.682C51.3179 152.572 51.4788 153.645 51.4788 154.903C51.4788 156.168 51.3198 157.247 51.0017 158.141C50.6836 159.031 50.2235 159.71 49.6213 160.18C49.0192 160.646 48.2902 160.879 47.4344 160.879ZM47.4344 159.629C48.2827 159.629 48.9416 159.22 49.4112 158.402C49.8807 157.584 50.1155 156.418 50.1155 154.903C50.1155 153.895 50.0076 153.038 49.7917 152.33C49.5797 151.621 49.2729 151.082 48.8715 150.711C48.4739 150.34 47.9948 150.154 47.4344 150.154C46.5937 150.154 45.9367 150.569 45.4633 151.398C44.9899 152.224 44.7532 153.392 44.7532 154.903C44.7532 155.91 44.8593 156.766 45.0713 157.47C45.2834 158.175 45.5883 158.711 45.9859 159.078C46.3873 159.445 46.8701 159.629 47.4344 159.629ZM53.3647 158.334V157.175L58.4771 149.086H59.3178V150.881H58.7497L54.8871 156.993V157.084H61.7717V158.334H53.3647ZM58.8406 160.719V157.982V157.442V149.086H60.1812V160.719H58.8406ZM64.264 160.719L69.4672 150.427V150.336H63.4687V149.086H70.9214V150.404L65.7409 160.719H64.264Z" fill="black"/>
  <path d="M44.468 32.6151V31.6006L48.2777 27.4302C48.7248 26.9418 49.093 26.5173 49.3823 26.1566C49.6716 25.7921 49.8857 25.4502 50.0248 25.1309C50.1675 24.8078 50.2389 24.4696 50.2389 24.1165C50.2389 23.7107 50.1412 23.3594 49.9459 23.0626C49.7542 22.7658 49.4913 22.5366 49.1569 22.375C48.8225 22.2135 48.4468 22.1327 48.0297 22.1327C47.5864 22.1327 47.1994 22.2248 46.8688 22.4089C46.5419 22.5892 46.2883 22.8428 46.108 23.1697C45.9314 23.4965 45.8431 23.8798 45.8431 24.3194H44.5131C44.5131 23.6431 44.669 23.0494 44.9808 22.5385C45.2927 22.0275 45.7172 21.6293 46.2545 21.3437C46.7955 21.0582 47.4023 20.9154 48.0748 20.9154C48.7511 20.9154 49.3504 21.0582 49.8726 21.3437C50.3948 21.6293 50.8044 22.0144 51.1012 22.499C51.398 22.9837 51.5464 23.5228 51.5464 24.1165C51.5464 24.541 51.4694 24.9562 51.3153 25.362C51.165 25.764 50.902 26.2129 50.5263 26.7089C50.1544 27.2011 49.6378 27.8022 48.9765 28.5123L46.3841 31.285V31.3752H51.7493V32.6151H44.468Z" fill="black"/>
  <path d="M30.6972 32.6151V23.9587H31.9822V25.3112H32.0949C32.2752 24.8491 32.5664 24.4903 32.9684 24.2348C33.3704 23.9756 33.8532 23.8459 34.4168 23.8459C34.9878 23.8459 35.4631 23.9756 35.8426 24.2348C36.2258 24.4903 36.5245 24.8491 36.7387 25.3112H36.8288C37.0505 24.8641 37.383 24.5091 37.8263 24.2461C38.2697 23.9793 38.8013 23.8459 39.4212 23.8459C40.1952 23.8459 40.8283 24.0883 41.3205 24.5729C41.8126 25.0539 42.0587 25.8034 42.0587 26.8216V32.6151H40.7287V26.8216C40.7287 26.1829 40.554 25.7264 40.2046 25.4521C39.8552 25.1778 39.4438 25.0407 38.9704 25.0407C38.3617 25.0407 37.8902 25.2248 37.5558 25.593C37.2215 25.9574 37.0543 26.4196 37.0543 26.9794V32.6151H35.7017V26.6863C35.7017 26.1941 35.542 25.7978 35.2227 25.4972C34.9033 25.1929 34.4919 25.0407 33.9885 25.0407C33.6428 25.0407 33.3197 25.1328 33.0191 25.3169C32.7223 25.501 32.4818 25.7564 32.2978 26.0833C32.1174 26.4064 32.0272 26.7803 32.0272 27.2048V32.6151H30.6972Z" fill="black"/>
  <path d="M29.1206 20.5322L25.4011 34.3508H24.1838L27.9033 20.5322H29.1206Z" fill="black"/>
  <path d="M18.8637 36.0415C18.2212 36.0415 17.6689 35.9589 17.2068 35.7936C16.7447 35.632 16.3596 35.4179 16.0515 35.1511C15.7472 34.8881 15.5048 34.6063 15.3245 34.3058L16.384 33.5618C16.5042 33.7196 16.6564 33.9 16.8405 34.1029C17.0246 34.3095 17.2763 34.488 17.5957 34.6383C17.9188 34.7923 18.3415 34.8693 18.8637 34.8693C19.5625 34.8693 20.1392 34.7003 20.5939 34.3621C21.0485 34.024 21.2758 33.4942 21.2758 32.7729V31.0145H21.1631C21.0654 31.1723 20.9264 31.3677 20.746 31.6006C20.5694 31.8298 20.314 32.0346 19.9796 32.2149C19.6489 32.3915 19.2018 32.4798 18.6383 32.4798C17.9395 32.4798 17.312 32.3145 16.756 31.9839C16.2037 31.6532 15.766 31.1723 15.4429 30.5411C15.1235 29.9099 14.9638 29.1435 14.9638 28.2418C14.9638 27.3551 15.1197 26.583 15.4316 25.9255C15.7434 25.2643 16.1774 24.7533 16.7334 24.3926C17.2895 24.0282 17.9319 23.8459 18.6608 23.8459C19.2244 23.8459 19.6715 23.9399 20.0021 24.1277C20.3365 24.3118 20.592 24.5222 20.7686 24.7589C20.9489 24.9919 21.0879 25.1835 21.1856 25.3338H21.3209V23.9587H22.6058V32.863C22.6058 33.6069 22.4367 34.2118 22.0986 34.6777C21.7642 35.1474 21.3133 35.4911 20.746 35.709C20.1825 35.9307 19.555 36.0415 18.8637 36.0415ZM18.8186 31.285C19.3521 31.285 19.803 31.1629 20.1712 30.9187C20.5394 30.6745 20.8193 30.3232 21.0109 29.8648C21.2025 29.4065 21.2983 28.8579 21.2983 28.2192C21.2983 27.5955 21.2044 27.0451 21.0165 26.568C20.8287 26.0908 20.5507 25.717 20.1825 25.4465C19.8143 25.176 19.3596 25.0407 18.8186 25.0407C18.2551 25.0407 17.7854 25.1835 17.4097 25.469C17.0377 25.7546 16.7578 26.1378 16.57 26.6187C16.3859 27.0996 16.2938 27.6331 16.2938 28.2192C16.2938 28.8204 16.3878 29.352 16.5756 29.8141C16.7672 30.2725 17.049 30.6332 17.421 30.8962C17.7967 31.1554 18.2626 31.285 18.8186 31.285Z" fill="black"/>
  <path d="M1.57628 32.6151V23.9587H2.86121V25.3112H2.97393C3.15427 24.8491 3.44544 24.4903 3.84746 24.2348C4.24947 23.9756 4.73226 23.8459 5.29582 23.8459C5.86691 23.8459 6.34218 23.9756 6.72165 24.2348C7.10488 24.4903 7.40357 24.8491 7.61772 25.3112H7.70789C7.92956 24.8641 8.26207 24.5091 8.70541 24.2461C9.14875 23.9793 9.68038 23.8459 10.3003 23.8459C11.0743 23.8459 11.7073 24.0883 12.1995 24.5729C12.6917 25.0539 12.9378 25.8034 12.9378 26.8216V32.6151H11.6078V26.8216C11.6078 26.1829 11.4331 25.7264 11.0837 25.4521C10.7342 25.1778 10.3228 25.0407 9.84945 25.0407C9.2408 25.0407 8.76928 25.2248 8.4349 25.593C8.10051 25.9574 7.93332 26.4196 7.93332 26.9794V32.6151H6.58076V26.6863C6.58076 26.1941 6.42108 25.7978 6.10173 25.4972C5.78237 25.1929 5.37097 25.0407 4.86751 25.0407C4.52186 25.0407 4.19875 25.1328 3.89818 25.3169C3.60136 25.501 3.36091 25.7564 3.17681 26.0833C2.99647 26.4064 2.9063 26.7803 2.9063 27.2048V32.6151H1.57628Z" fill="black"/>
  <path d="M156.357 11.8253L156.261 12.522C156.197 13.0334 156.088 13.566 155.935 14.12C155.786 14.6782 155.63 15.196 155.468 15.6733C155.311 16.1505 155.181 16.5298 155.078 16.8111H153.723C153.779 16.5468 153.855 16.1889 153.953 15.7372C154.051 15.2897 154.147 14.789 154.241 14.2351C154.335 13.6811 154.405 13.1164 154.452 12.5412L154.516 11.8253H156.357Z" fill="black"/>
  <path d="M147.537 13.8132C146.57 13.8132 145.737 13.6065 145.038 13.1932C144.343 12.7755 143.807 12.1896 143.427 11.4353C143.052 10.6768 142.865 9.78832 142.865 8.76986C142.865 7.76418 143.052 6.87781 143.427 6.11077C143.807 5.34372 144.335 4.745 145.013 4.3146C145.694 3.88421 146.491 3.66901 147.403 3.66901C147.957 3.66901 148.494 3.76063 149.014 3.94386C149.534 4.1271 150 4.41474 150.414 4.80679C150.827 5.19884 151.153 5.70807 151.392 6.33449C151.63 6.95665 151.75 7.71304 151.75 8.60367V9.28122H143.945V7.8494H149.877C149.877 7.34656 149.775 6.90125 149.57 6.51347C149.366 6.12142 149.078 5.81247 148.707 5.58662C148.341 5.36077 147.91 5.24784 147.416 5.24784C146.879 5.24784 146.41 5.37994 146.01 5.64415C145.613 5.90409 145.307 6.245 145.089 6.66688C144.876 7.08449 144.77 7.53832 144.77 8.02838V9.14699C144.77 9.80324 144.885 10.3615 145.115 10.8217C145.349 11.2819 145.675 11.6335 146.093 11.8764C146.51 12.115 146.998 12.2343 147.557 12.2343C147.919 12.2343 148.249 12.1832 148.547 12.0809C148.846 11.9744 149.103 11.8167 149.321 11.6079C149.538 11.3991 149.704 11.1413 149.819 10.8345L151.628 11.1605C151.483 11.6932 151.223 12.1598 150.848 12.5603C150.478 12.9566 150.011 13.2656 149.449 13.4872C148.89 13.7045 148.253 13.8132 147.537 13.8132Z" fill="black"/>
  <path d="M135.714 13.8068C134.921 13.8068 134.214 13.6044 133.592 13.1996C132.974 12.7905 132.488 12.2088 132.134 11.4546C131.785 10.696 131.61 9.78624 131.61 8.72516C131.61 7.66408 131.787 6.75641 132.141 6.00215C132.499 5.24789 132.989 4.67048 133.611 4.26991C134.233 3.86934 134.938 3.66906 135.727 3.66906C136.336 3.66906 136.826 3.77133 137.197 3.97587C137.572 4.17616 137.861 4.41053 138.066 4.679C138.275 4.94747 138.437 5.18397 138.552 5.38852H138.667V0.52417H140.578V13.6151H138.712V12.0874H138.552C138.437 12.2962 138.271 12.5348 138.053 12.8033C137.84 13.0718 137.546 13.3061 137.171 13.5064C136.796 13.7067 136.31 13.8068 135.714 13.8068ZM136.136 12.1769C136.685 12.1769 137.15 12.032 137.529 11.7422C137.913 11.4482 138.202 11.0412 138.398 10.5213C138.599 10.0014 138.699 9.39633 138.699 8.70599C138.699 8.02417 138.601 7.42758 138.405 6.91622C138.209 6.40485 137.921 6.00641 137.542 5.7209C137.163 5.43539 136.694 5.29264 136.136 5.29264C135.56 5.29264 135.081 5.44178 134.697 5.74008C134.314 6.03837 134.024 6.44533 133.828 6.96096C133.636 7.47658 133.54 8.05826 133.54 8.70599C133.54 9.36224 133.638 9.95244 133.834 10.4766C134.03 11.0007 134.32 11.4162 134.704 11.723C135.092 12.0256 135.569 12.1769 136.136 12.1769Z" fill="black"/>
  <path d="M127.556 13.6151V3.79688H129.467V13.6151H127.556ZM128.521 2.28196C128.189 2.28196 127.903 2.17116 127.665 1.94957C127.43 1.72372 127.313 1.45526 127.313 1.14418C127.313 0.828835 127.43 0.560369 127.665 0.338778C127.903 0.112926 128.189 0 128.521 0C128.853 0 129.137 0.112926 129.371 0.338778C129.61 0.560369 129.729 0.828835 129.729 1.14418C129.729 1.45526 129.61 1.72372 129.371 1.94957C129.137 2.17116 128.853 2.28196 128.521 2.28196Z" fill="black"/>
  <path d="M119.15 3.79688L121.317 7.61932L123.503 3.79688H125.594L122.532 8.70597L125.619 13.6151H123.529L121.317 9.94602L119.112 13.6151H117.015L120.071 8.70597L117.054 3.79688H119.15Z" fill="black"/>
  <path d="M111.318 13.8132C110.398 13.8132 109.595 13.6022 108.909 13.1804C108.223 12.7585 107.69 12.1683 107.311 11.4098C106.931 10.6513 106.742 9.76489 106.742 8.75068C106.742 7.73222 106.931 6.84159 107.311 6.07881C107.69 5.31602 108.223 4.72369 108.909 4.30182C109.595 3.87994 110.398 3.66901 111.318 3.66901C112.239 3.66901 113.042 3.87994 113.728 4.30182C114.414 4.72369 114.947 5.31602 115.326 6.07881C115.706 6.84159 115.895 7.73222 115.895 8.75068C115.895 9.76489 115.706 10.6513 115.326 11.4098C114.947 12.1683 114.414 12.7585 113.728 13.1804C113.042 13.6022 112.239 13.8132 111.318 13.8132ZM111.325 12.2088C111.921 12.2088 112.416 12.0511 112.808 11.7358C113.2 11.4204 113.49 11.0007 113.677 10.4765C113.869 9.95239 113.965 9.37497 113.965 8.74429C113.965 8.11787 113.869 7.54259 113.677 7.01844C113.49 6.49003 113.2 6.06602 112.808 5.74642C112.416 5.42682 111.921 5.26702 111.325 5.26702C110.724 5.26702 110.225 5.42682 109.829 5.74642C109.437 6.06602 109.145 6.49003 108.953 7.01844C108.766 7.54259 108.672 8.11787 108.672 8.74429C108.672 9.37497 108.766 9.95239 108.953 10.4765C109.145 11.0007 109.437 11.4204 109.829 11.7358C110.225 12.0511 110.724 12.2088 111.325 12.2088Z" fill="black"/>
  <path d="M98.3362 7.78548V13.615H96.425V3.79685H98.2595V5.39486H98.381C98.6068 4.87497 98.9605 4.45736 99.4421 4.14202C99.9279 3.82668 100.539 3.66901 101.277 3.66901C101.946 3.66901 102.532 3.80963 103.034 4.09088C103.537 4.36787 103.927 4.78122 104.204 5.33094C104.481 5.88065 104.62 6.56034 104.62 7.37V13.615H102.708V7.60011C102.708 6.88847 102.523 6.33236 102.152 5.93179C101.782 5.52696 101.272 5.32455 100.625 5.32455C100.181 5.32455 99.7872 5.42043 99.4421 5.61219C99.1012 5.80395 98.8306 6.0852 98.6303 6.45594C98.4343 6.82242 98.3362 7.2656 98.3362 7.78548Z" fill="black"/>
  <path d="M89.715 13.8132C88.7945 13.8132 87.9913 13.6022 87.3052 13.1804C86.6191 12.7585 86.0864 12.1683 85.7072 11.4098C85.3279 10.6513 85.1383 9.76489 85.1383 8.75068C85.1383 7.73222 85.3279 6.84159 85.7072 6.07881C86.0864 5.31602 86.6191 4.72369 87.3052 4.30182C87.9913 3.87994 88.7945 3.66901 89.715 3.66901C90.6354 3.66901 91.4387 3.87994 92.1248 4.30182C92.8109 4.72369 93.3435 5.31602 93.7228 6.07881C94.1021 6.84159 94.2917 7.73222 94.2917 8.75068C94.2917 9.76489 94.1021 10.6513 93.7228 11.4098C93.3435 12.1683 92.8109 12.7585 92.1248 13.1804C91.4387 13.6022 90.6354 13.8132 89.715 13.8132ZM89.7214 12.2088C90.318 12.2088 90.8123 12.0511 91.2043 11.7358C91.5964 11.4204 91.8861 11.0007 92.0736 10.4765C92.2654 9.95239 92.3613 9.37497 92.3613 8.74429C92.3613 8.11787 92.2654 7.54259 92.0736 7.01844C91.8861 6.49003 91.5964 6.06602 91.2043 5.74642C90.8123 5.42682 90.318 5.26702 89.7214 5.26702C89.1205 5.26702 88.6219 5.42682 88.2256 5.74642C87.8336 6.06602 87.5417 6.49003 87.3499 7.01844C87.1624 7.54259 87.0687 8.11787 87.0687 8.74429C87.0687 9.37497 87.1624 9.95239 87.3499 10.4765C87.5417 11.0007 87.8336 11.4204 88.2256 11.7358C88.6219 12.0511 89.1205 12.2088 89.7214 12.2088Z" fill="black"/>
  <path d="M69.6711 13.615V3.79685H71.5056V5.39486H71.6271C71.8316 4.85367 72.1661 4.43179 72.6306 4.12923C73.0951 3.82242 73.6512 3.66901 74.299 3.66901C74.9552 3.66901 75.5049 3.82242 75.9481 4.12923C76.3955 4.43605 76.7258 4.85793 76.9389 5.39486H77.0411C77.2755 4.87071 77.6484 4.4531 78.1598 4.14202C78.6711 3.82668 79.2805 3.66901 79.9879 3.66901C80.8785 3.66901 81.6051 3.94813 82.1676 4.50636C82.7343 5.0646 83.0177 5.90622 83.0177 7.03122V13.615H81.1065V7.2102C81.1065 6.54543 80.9254 6.06389 80.5632 5.7656C80.2009 5.4673 79.7684 5.31815 79.2656 5.31815C78.6434 5.31815 78.1598 5.50992 77.8146 5.89344C77.4694 6.2727 77.2968 6.76063 77.2968 7.35722V13.615H75.392V7.08875C75.392 6.55608 75.2258 6.12781 74.8934 5.80395C74.561 5.48009 74.1285 5.31815 73.5958 5.31815C73.2336 5.31815 72.8991 5.41403 72.5923 5.6058C72.2897 5.7933 72.0447 6.05537 71.8572 6.39202C71.674 6.72867 71.5823 7.11858 71.5823 7.56176V13.615H69.6711Z" fill="black"/>
  <path d="M56.0608 7.78548V13.615H54.1496V3.79685H55.9841V5.39486H56.1056C56.3314 4.87497 56.6851 4.45736 57.1667 4.14202C57.6525 3.82668 58.264 3.66901 59.0012 3.66901C59.6702 3.66901 60.2562 3.80963 60.759 4.09088C61.2618 4.36787 61.6518 4.78122 61.9287 5.33094C62.2057 5.88065 62.3442 6.56034 62.3442 7.37V13.615H60.433V7.60011C60.433 6.88847 60.2476 6.33236 59.8769 5.93179C59.5062 5.52696 58.9969 5.32455 58.3492 5.32455C57.906 5.32455 57.5118 5.42043 57.1667 5.61219C56.8258 5.80395 56.5552 6.0852 56.3549 6.45594C56.1589 6.82242 56.0608 7.2656 56.0608 7.78548Z" fill="black"/>
  <path d="M47.4396 13.8132C46.5191 13.8132 45.7159 13.6022 45.0298 13.1804C44.3437 12.7585 43.811 12.1683 43.4318 11.4098C43.0525 10.6513 42.8629 9.76489 42.8629 8.75068C42.8629 7.73222 43.0525 6.84159 43.4318 6.07881C43.811 5.31602 44.3437 4.72369 45.0298 4.30182C45.7159 3.87994 46.5191 3.66901 47.4396 3.66901C48.36 3.66901 49.1633 3.87994 49.8494 4.30182C50.5355 4.72369 51.0681 5.31602 51.4474 6.07881C51.8267 6.84159 52.0163 7.73222 52.0163 8.75068C52.0163 9.76489 51.8267 10.6513 51.4474 11.4098C51.0681 12.1683 50.5355 12.7585 49.8494 13.1804C49.1633 13.6022 48.36 13.8132 47.4396 13.8132ZM47.446 12.2088C48.0426 12.2088 48.5369 12.0511 48.9289 11.7358C49.321 11.4204 49.6108 11.0007 49.7983 10.4765C49.99 9.95239 50.0859 9.37497 50.0859 8.74429C50.0859 8.11787 49.99 7.54259 49.7983 7.01844C49.6108 6.49003 49.321 6.06602 48.9289 5.74642C48.5369 5.42682 48.0426 5.26702 47.446 5.26702C46.8451 5.26702 46.3465 5.42682 45.9502 5.74642C45.5582 6.06602 45.2663 6.49003 45.0745 7.01844C44.887 7.54259 44.7933 8.11787 44.7933 8.74429C44.7933 9.37497 44.887 9.95239 45.0745 10.4765C45.2663 11.0007 45.5582 11.4204 45.9502 11.7358C46.3465 12.0511 46.8451 12.2088 47.446 12.2088Z" fill="black"/>
  <path d="M32.1898 13.6151V0.52417H34.101V5.38852H34.216C34.3268 5.18397 34.4866 4.94747 34.6954 4.679C34.9042 4.41053 35.194 4.17616 35.5648 3.97587C35.9355 3.77133 36.4256 3.66906 37.0349 3.66906C37.8275 3.66906 38.5349 3.86934 39.1571 4.26991C39.7792 4.67048 40.2672 5.24789 40.6209 6.00215C40.9788 6.75641 41.1578 7.66408 41.1578 8.72516C41.1578 9.78624 40.981 10.696 40.6273 11.4546C40.2736 12.2088 39.7878 12.7905 39.1699 13.1996C38.552 13.6044 37.8467 13.8068 37.0541 13.8068C36.4575 13.8068 35.9696 13.7067 35.5903 13.5064C35.2153 13.3061 34.9213 13.0718 34.7082 12.8033C34.4952 12.5348 34.3311 12.2962 34.216 12.0874H34.0562V13.6151H32.1898ZM34.0626 8.70599C34.0626 9.39633 34.1628 10.0014 34.3631 10.5213C34.5633 11.0412 34.8531 11.4482 35.2324 11.7422C35.6116 12.032 36.0761 12.1769 36.6258 12.1769C37.1969 12.1769 37.6741 12.0256 38.0577 11.723C38.4412 11.4162 38.731 11.0007 38.927 10.4766C39.1273 9.95244 39.2274 9.36224 39.2274 8.70599C39.2274 8.05826 39.1294 7.47658 38.9334 6.96096C38.7416 6.44533 38.4518 6.03837 38.064 5.74008C37.6805 5.44178 37.2011 5.29264 36.6258 5.29264C36.0719 5.29264 35.6031 5.43539 35.2196 5.7209C34.8403 6.00641 34.5527 6.40485 34.3567 6.91622C34.1606 7.42758 34.0626 8.02417 34.0626 8.70599Z" fill="black"/>
  <path d="M25.1281 13.615V3.79686H26.9754V5.35652H27.0777C27.2567 4.82811 27.572 4.41263 28.0237 4.11007C28.4797 3.80325 28.9953 3.64984 29.5706 3.64984C29.6899 3.64984 29.8306 3.6541 29.9925 3.66263C30.1587 3.67115 30.2887 3.6818 30.3824 3.69459V5.52271C30.3057 5.5014 30.1693 5.47797 29.9733 5.4524C29.7773 5.42257 29.5813 5.40765 29.3852 5.40765C28.9335 5.40765 28.5308 5.50353 28.1771 5.6953C27.8277 5.8828 27.5507 6.14487 27.3462 6.48152C27.1416 6.8139 27.0394 7.19317 27.0394 7.6193V13.615H25.1281Z" fill="black"/>
  <path d="M17.7373 13.8324C17.1152 13.8324 16.5527 13.7173 16.0498 13.4872C15.547 13.2528 15.1486 12.914 14.8545 12.4709C14.5648 12.0277 14.4199 11.4843 14.4199 10.8409C14.4199 10.2869 14.5264 9.83094 14.7395 9.47298C14.9525 9.11503 15.2402 8.83165 15.6024 8.62284C15.9646 8.41403 16.3695 8.25636 16.8169 8.14983C17.2643 8.0433 17.7203 7.96233 18.1848 7.90693C18.7729 7.83875 19.2501 7.78335 19.6166 7.74074C19.9831 7.69386 20.2494 7.61929 20.4156 7.51702C20.5818 7.41475 20.6649 7.24855 20.6649 7.01844V6.97369C20.6649 6.41546 20.5072 5.98293 20.1919 5.67611C19.8808 5.36929 19.4163 5.21588 18.7984 5.21588C18.155 5.21588 17.6479 5.35864 17.2771 5.64415C16.9106 5.9254 16.6571 6.23861 16.5165 6.58378L14.7203 6.17469C14.9334 5.5781 15.2445 5.09656 15.6535 4.73009C16.0669 4.35935 16.542 4.09088 17.079 3.92469C17.6159 3.75423 18.1805 3.66901 18.7729 3.66901C19.1649 3.66901 19.5804 3.71588 20.0193 3.80963C20.4625 3.89912 20.8758 4.06531 21.2594 4.30821C21.6471 4.55111 21.9646 4.89841 22.2118 5.35011C22.4589 5.79756 22.5825 6.37923 22.5825 7.09514V13.615H20.716V12.2727H20.6393C20.5158 12.5199 20.3304 12.7628 20.0832 13.0014C19.8361 13.24 19.5186 13.4382 19.1308 13.5959C18.743 13.7535 18.2785 13.8324 17.7373 13.8324ZM18.1528 12.2983C18.6812 12.2983 19.1329 12.1939 19.5079 11.9851C19.8872 11.7762 20.1748 11.5035 20.3709 11.1669C20.5712 10.826 20.6713 10.4616 20.6713 10.0738V8.80821C20.6031 8.87639 20.471 8.94031 20.275 8.99997C20.0832 9.05537 19.8638 9.10438 19.6166 9.14699C19.3695 9.18534 19.1287 9.22156 18.8943 9.25565C18.6599 9.28548 18.4639 9.31105 18.3062 9.33236C17.9355 9.37923 17.5967 9.45807 17.2899 9.56886C16.9873 9.67966 16.7445 9.83946 16.5612 10.0483C16.3822 10.2528 16.2927 10.5255 16.2927 10.8664C16.2927 11.3395 16.4675 11.6974 16.8169 11.9403C17.1663 12.179 17.6116 12.2983 18.1528 12.2983Z" fill="black"/>
  <path d="M12.67 4.78123H10.6757C10.599 4.3551 10.4563 3.9801 10.2475 3.65623C10.0387 3.33237 9.78298 3.05751 9.48042 2.83166C9.17786 2.60581 8.83908 2.43535 8.46408 2.3203C8.09335 2.20524 7.69917 2.14771 7.28156 2.14771C6.52729 2.14771 5.85187 2.33734 5.25528 2.7166C4.66295 3.09586 4.1942 3.65197 3.84903 4.38493C3.50812 5.11788 3.33766 6.01277 3.33766 7.06959C3.33766 8.13493 3.50812 9.03407 3.84903 9.76703C4.1942 10.5 4.66508 11.054 5.26167 11.429C5.85826 11.804 6.52943 11.9915 7.27516 11.9915C7.68852 11.9915 8.08056 11.9361 8.4513 11.8253C8.8263 11.7102 9.16508 11.5419 9.46763 11.3203C9.77019 11.0987 10.0259 10.8281 10.2347 10.5085C10.4477 10.1846 10.5948 9.8139 10.6757 9.39629L12.67 9.40268C12.5635 10.0461 12.3568 10.6385 12.05 11.1797C11.7475 11.7166 11.3575 12.1811 10.8803 12.5731C10.4073 12.9609 9.86607 13.2613 9.2567 13.4744C8.64732 13.6875 7.98255 13.794 7.26238 13.794C6.12886 13.794 5.11891 13.5256 4.23255 12.9886C3.34619 12.4474 2.64732 11.674 2.13596 10.6683C1.62886 9.66263 1.37531 8.46305 1.37531 7.06959C1.37531 5.67186 1.63099 4.47228 2.14235 3.47086C2.65371 2.46518 3.35258 1.69388 4.23894 1.15694C5.12531 0.615751 6.13312 0.345154 7.26238 0.345154C7.95698 0.345154 8.60471 0.445296 9.20556 0.645581C9.81067 0.841603 10.354 1.13138 10.8355 1.5149C11.3171 1.89416 11.7155 2.35865 12.0308 2.90836C12.3462 3.45382 12.5593 4.07811 12.67 4.78123Z" fill="black"/>
  <path d="M26.3934 44.8882H0.159958V165.498H26.3934V44.8882Z" fill="url(#paint0_linear_0_1)"/>
  <path fill-rule="evenodd" clip-rule="evenodd" d="M0 44.7282H26.5533V165.658H0V44.7282ZM0.31992 45.0481V165.338H26.2334V45.0481H0.31992Z" fill="black"/>
  <defs>
    <linearGradient id="paint0_linear_0_1" x1="-7.1982" y1="165.847" x2="-7.1982" y2="44.9298" gradientUnits="userSpaceOnUse">
      <stop stop-color="#F6EFF7"/>
      <stop offset="4.05525e-10" stop-color="#F6EFF7"/>
      <stop offset="0.25" stop-color="#BDC9E1"/>
      <stop offset="0.5" stop-color="#67A9CF"/>
      <stop offset="0.75" stop-color="#1C9099"/>
      <stop offset="1" stop-color="#016C59"/>
    </linearGradient>
  </defs>
</svg>