<svg width="80" height="167" viewBox="0 0 80 167" fill="none" xmlns="http://www.w3.org/2000/svg">
  <path d="M41.0669 59.1591C40.5898 59.1515 40.1126 59.0606 39.6355 58.8864C39.1583 58.7122 38.7228 58.4187 38.329 58.0059C37.9351 57.5894 37.6189 57.027 37.3803 56.3189C37.1418 55.6069 37.0225 54.7132 37.0225 53.6377C37.0225 52.6077 37.119 51.695 37.3122 50.8998C37.5053 50.1007 37.7855 49.4285 38.1529 48.8832C38.5202 48.3341 38.9633 47.9176 39.4821 47.6335C40.0047 47.3495 40.5935 47.2075 41.2487 47.2075C41.9 47.2075 42.4794 47.3382 42.9869 47.5994C43.4981 47.857 43.9147 48.2167 44.2366 48.6787C44.5585 49.1407 44.7667 49.6728 44.8614 50.2749H43.4754C43.3466 49.7523 43.0967 49.3187 42.7256 48.9741C42.3545 48.6295 41.8622 48.4572 41.2487 48.4572C40.3474 48.4572 39.6373 48.8491 39.1185 49.633C38.6035 50.4169 38.3441 51.517 38.3403 52.9333H38.4312C38.6433 52.6114 38.8951 52.3369 39.1867 52.1097C39.4821 51.8787 39.8078 51.7007 40.1637 51.5757C40.5197 51.4508 40.8965 51.3883 41.2941 51.3883C41.9606 51.3883 42.5703 51.5549 43.1232 51.8881C43.6761 52.2176 44.1192 52.6739 44.4524 53.2571C44.7857 53.8365 44.9523 54.5011 44.9523 55.2509C44.9523 55.9705 44.7914 56.6294 44.4695 57.2277C44.1476 57.8223 43.695 58.2956 43.1119 58.6478C42.5325 58.9962 41.8508 59.1666 41.0669 59.1591ZM41.0669 57.9094C41.5441 57.9094 41.972 57.7901 42.3507 57.5515C42.7332 57.3129 43.0342 56.9929 43.2539 56.5915C43.4773 56.1901 43.589 55.7432 43.589 55.2509C43.589 54.77 43.4811 54.3326 43.2652 53.9388C43.0532 53.5411 42.7597 53.2249 42.3848 52.9901C42.0136 52.7554 41.5895 52.638 41.1124 52.638C40.7526 52.638 40.4175 52.7099 40.1069 52.8538C39.7964 52.9939 39.5237 53.1871 39.2889 53.4332C39.0579 53.6794 38.8762 53.9615 38.7436 54.2796C38.6111 54.5939 38.5448 54.9253 38.5448 55.2737C38.5448 55.7357 38.6527 56.1674 38.8686 56.5688C39.0882 56.9702 39.3874 57.294 39.7661 57.5401C40.1486 57.7863 40.5822 57.9094 41.0669 57.9094ZM51.685 59V57.9775L55.5249 53.774C55.9756 53.2817 56.3467 52.8538 56.6383 52.4903C56.9299 52.1229 57.1457 51.7783 57.2859 51.4564C57.4298 51.1308 57.5017 50.7899 57.5017 50.434C57.5017 50.025 57.4033 49.6709 57.2063 49.3717C57.0132 49.0726 56.7481 48.8416 56.4111 48.6787C56.074 48.5159 55.6953 48.4345 55.275 48.4345C54.8281 48.4345 54.4381 48.5272 54.1048 48.7128C53.7754 48.8946 53.5198 49.1502 53.338 49.4797C53.16 49.8091 53.071 50.1954 53.071 50.6385H51.7304C51.7304 49.9568 51.8876 49.3585 52.2019 48.8435C52.5162 48.3284 52.9441 47.927 53.4857 47.6392C54.031 47.3514 54.6426 47.2075 55.3204 47.2075C56.0021 47.2075 56.6061 47.3514 57.1325 47.6392C57.6589 47.927 58.0716 48.3152 58.3708 48.8037C58.67 49.2922 58.8196 49.8356 58.8196 50.434C58.8196 50.8619 58.7419 51.2803 58.5867 51.6893C58.4352 52.0945 58.1701 52.5471 57.7914 53.0469C57.4165 53.543 56.8958 54.1489 56.2293 54.8647L53.6163 57.6594V57.7503H59.0241V59H51.685ZM65.2327 59.1591C64.7556 59.1515 64.2784 59.0606 63.8013 58.8864C63.3241 58.7122 62.8886 58.4187 62.4948 58.0059C62.1009 57.5894 61.7847 57.027 61.5462 56.3189C61.3076 55.6069 61.1883 54.7132 61.1883 53.6377C61.1883 52.6077 61.2849 51.695 61.478 50.8998C61.6711 50.1007 61.9514 49.4285 62.3187 48.8832C62.686 48.3341 63.1291 47.9176 63.6479 47.6335C64.1705 47.3495 64.7594 47.2075 65.4145 47.2075C66.0659 47.2075 66.6453 47.3382 67.1527 47.5994C67.6639 47.857 68.0805 48.2167 68.4024 48.6787C68.7243 49.1407 68.9326 49.6728 69.0272 50.2749H67.6412C67.5125 49.7523 67.2625 49.3187 66.8914 48.9741C66.5203 48.6295 66.028 48.4572 65.4145 48.4572C64.5132 48.4572 63.8032 48.8491 63.2844 49.633C62.7693 50.4169 62.5099 51.517 62.5061 52.9333H62.597C62.8091 52.6114 63.0609 52.3369 63.3525 52.1097C63.6479 51.8787 63.9736 51.7007 64.3295 51.5757C64.6855 51.4508 65.0623 51.3883 65.4599 51.3883C66.1264 51.3883 66.7361 51.5549 67.289 51.8881C67.8419 52.2176 68.285 52.6739 68.6182 53.2571C68.9515 53.8365 69.1181 54.5011 69.1181 55.2509C69.1181 55.9705 68.9572 56.6294 68.6353 57.2277C68.3134 57.8223 67.8609 58.2956 67.2777 58.6478C66.6983 58.9962 66.0166 59.1666 65.2327 59.1591ZM65.2327 57.9094C65.7099 57.9094 66.1378 57.7901 66.5165 57.5515C66.899 57.3129 67.2 56.9929 67.4197 56.5915C67.6431 56.1901 67.7548 55.7432 67.7548 55.2509C67.7548 54.77 67.6469 54.3326 67.431 53.9388C67.219 53.5411 66.9255 53.2249 66.5506 52.9901C66.1795 52.7554 65.7553 52.638 65.2782 52.638C64.9184 52.638 64.5833 52.7099 64.2727 52.8538C63.9622 52.9939 63.6896 53.1871 63.4548 53.4332C63.2238 53.6794 63.042 53.9615 62.9094 54.2796C62.7769 54.5939 62.7106 54.9253 62.7106 55.2737C62.7106 55.7357 62.8186 56.1674 63.0344 56.5688C63.2541 56.9702 63.5532 57.294 63.9319 57.5401C64.3144 57.7863 64.748 57.9094 65.2327 57.9094ZM71.0793 56.6142V55.4554L76.1916 47.3666H77.0323V49.1616H76.4643L72.6016 55.2737V55.3645H79.4863V56.6142H71.0793ZM76.5552 59V56.262V55.7224V47.3666H77.8957V59H76.5552Z" fill="black"/>
  <path d="M41.0669 160.879C40.5898 160.871 40.1126 160.78 39.6355 160.606C39.1583 160.432 38.7228 160.138 38.329 159.725C37.9351 159.309 37.6189 158.746 37.3803 158.038C37.1418 157.326 37.0225 156.433 37.0225 155.357C37.0225 154.327 37.119 153.414 37.3122 152.619C37.5053 151.82 37.7855 151.148 38.1529 150.603C38.5202 150.054 38.9633 149.637 39.4821 149.353C40.0047 149.069 40.5935 148.927 41.2487 148.927C41.9 148.927 42.4794 149.058 42.9869 149.319C43.4981 149.576 43.9147 149.936 44.2366 150.398C44.5585 150.86 44.7667 151.392 44.8614 151.994H43.4754C43.3466 151.472 43.0967 151.038 42.7256 150.694C42.3545 150.349 41.8622 150.177 41.2487 150.177C40.3474 150.177 39.6373 150.569 39.1185 151.353C38.6035 152.136 38.3441 153.237 38.3403 154.653H38.4312C38.6433 154.331 38.8951 154.056 39.1867 153.829C39.4821 153.598 39.8078 153.42 40.1637 153.295C40.5197 153.17 40.8965 153.108 41.2941 153.108C41.9606 153.108 42.5703 153.274 43.1232 153.608C43.6761 153.937 44.1192 154.393 44.4524 154.977C44.7857 155.556 44.9523 156.221 44.9523 156.97C44.9523 157.69 44.7914 158.349 44.4695 158.947C44.1476 159.542 43.695 160.015 43.1119 160.367C42.5325 160.716 41.8508 160.886 41.0669 160.879ZM41.0669 159.629C41.5441 159.629 41.972 159.51 42.3507 159.271C42.7332 159.032 43.0342 158.712 43.2539 158.311C43.4773 157.91 43.589 157.463 43.589 156.97C43.589 156.489 43.4811 156.052 43.2652 155.658C43.0532 155.261 42.7597 154.944 42.3848 154.71C42.0136 154.475 41.5895 154.357 41.1124 154.357C40.7526 154.357 40.4175 154.429 40.1069 154.573C39.7964 154.713 39.5237 154.907 39.2889 155.153C39.0579 155.399 38.8762 155.681 38.7436 155.999C38.6111 156.313 38.5448 156.645 38.5448 156.993C38.5448 157.455 38.6527 157.887 38.8686 158.288C39.0882 158.69 39.3874 159.013 39.7661 159.26C40.1486 159.506 40.5822 159.629 41.0669 159.629ZM51.685 160.719V159.697L55.5249 155.494C55.9756 155.001 56.3467 154.573 56.6383 154.21C56.9299 153.842 57.1457 153.498 57.2859 153.176C57.4298 152.85 57.5017 152.509 57.5017 152.153C57.5017 151.744 57.4033 151.39 57.2063 151.091C57.0132 150.792 56.7481 150.561 56.4111 150.398C56.074 150.235 55.6953 150.154 55.275 150.154C54.8281 150.154 54.4381 150.247 54.1048 150.432C53.7754 150.614 53.5198 150.87 53.338 151.199C53.16 151.529 53.071 151.915 53.071 152.358H51.7304C51.7304 151.676 51.8876 151.078 52.2019 150.563C52.5162 150.048 52.9441 149.647 53.4857 149.359C54.031 149.071 54.6426 148.927 55.3204 148.927C56.0021 148.927 56.6061 149.071 57.1325 149.359C57.6589 149.647 58.0716 150.035 58.3708 150.523C58.67 151.012 58.8196 151.555 58.8196 152.153C58.8196 152.581 58.7419 153 58.5867 153.409C58.4352 153.814 58.1701 154.267 57.7914 154.766C57.4165 155.263 56.8958 155.868 56.2293 156.584L53.6163 159.379V159.47H59.0241V160.719H51.685ZM65.1646 160.879C64.3087 160.879 63.5797 160.646 62.9776 160.18C62.3755 159.71 61.9154 159.031 61.5973 158.141C61.2792 157.247 61.1201 156.168 61.1201 154.903C61.1201 153.645 61.2792 152.572 61.5973 151.682C61.9192 150.788 62.3812 150.107 62.9833 149.637C63.5892 149.164 64.3163 148.927 65.1646 148.927C66.0128 148.927 66.738 149.164 67.3402 149.637C67.9461 150.107 68.4081 150.788 68.7262 151.682C69.0481 152.572 69.209 153.645 69.209 154.903C69.209 156.168 69.05 157.247 68.7319 158.141C68.4137 159.031 67.9536 159.71 67.3515 160.18C66.7494 160.646 66.0204 160.879 65.1646 160.879ZM65.1646 159.629C66.0128 159.629 66.6718 159.22 67.1413 158.402C67.6109 157.584 67.8457 156.418 67.8457 154.903C67.8457 153.895 67.7378 153.038 67.5219 152.33C67.3099 151.621 67.0031 151.082 66.6017 150.711C66.2041 150.34 65.725 150.154 65.1646 150.154C64.3239 150.154 63.6668 150.569 63.1935 151.398C62.7201 152.224 62.4834 153.392 62.4834 154.903C62.4834 155.91 62.5895 156.766 62.8015 157.47C63.0136 158.175 63.3184 158.711 63.7161 159.078C64.1175 159.445 64.6003 159.629 65.1646 159.629ZM75.2984 160.879C74.5486 160.879 73.8802 160.75 73.2932 160.492C72.71 160.235 72.2461 159.877 71.9015 159.419C71.5607 158.957 71.3751 158.421 71.3448 157.811H72.7763C72.8066 158.186 72.9353 158.51 73.1626 158.782C73.3898 159.051 73.687 159.26 74.0544 159.407C74.4217 159.555 74.8288 159.629 75.2757 159.629C75.7755 159.629 76.2186 159.542 76.6049 159.368C76.9911 159.193 77.2941 158.951 77.5137 158.64C77.7334 158.33 77.8432 157.97 77.8432 157.561C77.8432 157.133 77.7372 156.756 77.5251 156.431C77.313 156.101 77.0025 155.844 76.5935 155.658C76.1845 155.473 75.6847 155.38 75.0939 155.38H74.1623V154.13H75.0939C75.5559 154.13 75.9611 154.047 76.3095 153.88C76.6617 153.714 76.9362 153.479 77.1332 153.176C77.3339 152.873 77.4342 152.517 77.4342 152.108C77.4342 151.714 77.3471 151.371 77.1729 151.08C76.9987 150.788 76.7526 150.561 76.4345 150.398C76.1202 150.235 75.749 150.154 75.3211 150.154C74.9197 150.154 74.541 150.228 74.185 150.375C73.8328 150.519 73.545 150.73 73.3216 151.006C73.0982 151.279 72.977 151.608 72.9581 151.994H71.5948C71.6175 151.385 71.8012 150.851 72.1458 150.393C72.4904 149.931 72.941 149.571 73.4977 149.313C74.0582 149.056 74.6735 148.927 75.3438 148.927C76.0633 148.927 76.6806 149.073 77.1956 149.364C77.7107 149.652 78.1064 150.033 78.3828 150.506C78.6593 150.979 78.7975 151.491 78.7975 152.04C78.7975 152.695 78.6252 153.254 78.2806 153.716C77.9398 154.178 77.4759 154.498 76.8889 154.676V154.766C77.6236 154.888 78.1973 155.2 78.6101 155.704C79.0228 156.204 79.2292 156.823 79.2292 157.561C79.2292 158.194 79.0569 158.762 78.7123 159.265C78.3715 159.765 77.9057 160.159 77.3149 160.447C76.7242 160.735 76.052 160.879 75.2984 160.879Z" fill="black"/>
  <path d="M13.8151 7.45455C13.8151 8.85227 13.5594 10.054 13.048 11.0597C12.5367 12.0611 11.8357 12.8324 10.945 13.3736C10.0587 13.9105 9.05086 14.179 7.9216 14.179C6.78807 14.179 5.776 13.9105 4.88537 13.3736C3.99901 12.8324 3.30015 12.0589 2.78878 11.0533C2.27742 10.0476 2.02174 8.84801 2.02174 7.45455C2.02174 6.05682 2.27742 4.85724 2.78878 3.85582C3.30015 2.85014 3.99901 2.07883 4.88537 1.5419C5.776 1.00071 6.78807 0.730113 7.9216 0.730113C9.05086 0.730113 10.0587 1.00071 10.945 1.5419C11.8357 2.07883 12.5367 2.85014 13.048 3.85582C13.5594 4.85724 13.8151 6.05682 13.8151 7.45455ZM11.8591 7.45455C11.8591 6.3892 11.6865 5.49219 11.3413 4.76349C11.0004 4.03054 10.5317 3.47656 9.93509 3.10156C9.34276 2.7223 8.6716 2.53267 7.9216 2.53267C7.16733 2.53267 6.49404 2.7223 5.90171 3.10156C5.30938 3.47656 4.84063 4.03054 4.49546 4.76349C4.15455 5.49219 3.98409 6.3892 3.98409 7.45455C3.98409 8.51989 4.15455 9.41903 4.49546 10.152C4.84063 10.8807 5.30938 11.4347 5.90171 11.8139C6.49404 12.1889 7.16733 12.3764 7.9216 12.3764C8.6716 12.3764 9.34276 12.1889 9.93509 11.8139C10.5317 11.4347 11.0004 10.8807 11.3413 10.152C11.6865 9.41903 11.8591 8.51989 11.8591 7.45455ZM15.9196 14V12.6896L21.2378 5.93324V5.84375H16.0922V4.18182H23.6221V5.57528L18.5084 12.2486V12.3381H23.801V14H15.9196ZM29.9102 14.1982C28.9898 14.1982 28.1865 13.9872 27.5004 13.5653C26.8144 13.1435 26.2817 12.5533 25.9024 11.7947C25.5232 11.0362 25.3335 10.1499 25.3335 9.13565C25.3335 8.11719 25.5232 7.22656 25.9024 6.46378C26.2817 5.70099 26.8144 5.10866 27.5004 4.68679C28.1865 4.26491 28.9898 4.05398 29.9102 4.05398C30.8307 4.05398 31.634 4.26491 32.32 4.68679C33.0061 5.10866 33.5388 5.70099 33.918 6.46378C34.2973 7.22656 34.4869 8.11719 34.4869 9.13565C34.4869 10.1499 34.2973 11.0362 33.918 11.7947C33.5388 12.5533 33.0061 13.1435 32.32 13.5653C31.634 13.9872 30.8307 14.1982 29.9102 14.1982ZM29.9166 12.5938C30.5132 12.5938 31.0075 12.4361 31.3996 12.1207C31.7916 11.8054 32.0814 11.3857 32.2689 10.8615C32.4607 10.3374 32.5565 9.75994 32.5565 9.12926C32.5565 8.50284 32.4607 7.92756 32.2689 7.40341C32.0814 6.875 31.7916 6.45099 31.3996 6.13139C31.0075 5.81179 30.5132 5.65199 29.9166 5.65199C29.3158 5.65199 28.8172 5.81179 28.4209 6.13139C28.0288 6.45099 27.7369 6.875 27.5452 7.40341C27.3577 7.92756 27.2639 8.50284 27.2639 9.12926C27.2639 9.75994 27.3577 10.3374 27.5452 10.8615C27.7369 11.3857 28.0288 11.8054 28.4209 12.1207C28.8172 12.4361 29.3158 12.5938 29.9166 12.5938ZM38.5315 8.17045V14H36.6203V4.18182H38.4548V5.77983H38.5762C38.8021 5.25994 39.1558 4.84233 39.6373 4.52699C40.1231 4.21165 40.7346 4.05398 41.4718 4.05398C42.1409 4.05398 42.7268 4.1946 43.2297 4.47585C43.7325 4.75284 44.1224 5.16619 44.3994 5.71591C44.6764 6.26562 44.8149 6.94531 44.8149 7.75497V14H42.9037V7.98509C42.9037 7.27344 42.7183 6.71733 42.3476 6.31676C41.9768 5.91193 41.4676 5.70952 40.8199 5.70952C40.3767 5.70952 39.9825 5.8054 39.6373 5.99716C39.2964 6.18892 39.0258 6.47017 38.8255 6.84091C38.6295 7.20739 38.5315 7.65057 38.5315 8.17045ZM51.6096 14.1982C50.6423 14.1982 49.8092 13.9915 49.1103 13.5781C48.4157 13.1605 47.8788 12.5746 47.4995 11.8203C47.1245 11.0618 46.937 10.1733 46.937 9.15483C46.937 8.14915 47.1245 7.26278 47.4995 6.49574C47.8788 5.72869 48.4072 5.12997 49.0848 4.69957C49.7666 4.26918 50.5635 4.05398 51.4754 4.05398C52.0294 4.05398 52.5663 4.1456 53.0862 4.32884C53.6061 4.51207 54.0727 4.79972 54.486 5.19176C54.8994 5.58381 55.2254 6.09304 55.464 6.71946C55.7027 7.34162 55.822 8.09801 55.822 8.98864V9.66619H48.0173V8.23438H53.9491C53.9491 7.73153 53.8468 7.28622 53.6423 6.89844C53.4378 6.50639 53.1501 6.19744 52.7794 5.97159C52.4129 5.74574 51.9825 5.63281 51.4882 5.63281C50.9512 5.63281 50.4825 5.76491 50.0819 6.02912C49.6856 6.28906 49.3788 6.62997 49.1615 7.05185C48.9484 7.46946 48.8419 7.9233 48.8419 8.41335V9.53196C48.8419 10.1882 48.9569 10.7464 49.187 11.2067C49.4214 11.6669 49.7474 12.0185 50.165 12.2614C50.5826 12.5 51.0706 12.6193 51.6288 12.6193C51.991 12.6193 52.3213 12.5682 52.6196 12.4659C52.9179 12.3594 53.1757 12.2017 53.393 11.9929C53.6103 11.7841 53.7765 11.5263 53.8916 11.2195L55.7005 11.5455C55.5557 12.0781 55.2957 12.5447 54.9207 12.9453C54.55 13.3416 54.0833 13.6506 53.5208 13.8722C52.9626 14.0895 52.3255 14.1982 51.6096 14.1982ZM60.4291 12.2102L60.3332 12.907C60.2693 13.4183 60.1606 13.951 60.0072 14.505C59.858 15.0632 59.7025 15.581 59.5406 16.0582C59.3829 16.5355 59.2529 16.9148 59.1506 17.196H57.7955C57.8509 16.9318 57.9276 16.5739 58.0256 16.1222C58.1237 15.6747 58.2195 15.174 58.3133 14.62C58.407 14.0661 58.4773 13.5014 58.5242 12.9261L58.5881 12.2102H60.4291ZM2.22271 33V24.3436H3.50764V25.6962H3.62035C3.8007 25.234 4.09187 24.8752 4.49388 24.6198C4.8959 24.3605 5.37869 24.2309 5.94225 24.2309C6.51333 24.2309 6.98861 24.3605 7.36808 24.6198C7.7513 24.8752 8.05 25.234 8.26415 25.6962H8.35432C8.57599 25.2491 8.9085 24.894 9.35184 24.631C9.79518 24.3643 10.3268 24.2309 10.9467 24.2309C11.7207 24.2309 12.3538 24.4732 12.846 24.9579C13.3381 25.4388 13.5842 26.1883 13.5842 27.2065V33H12.2542V27.2065C12.2542 26.5678 12.0795 26.1113 11.7301 25.8371C11.3807 25.5628 10.9693 25.4257 10.4959 25.4257C9.88723 25.4257 9.41571 25.6098 9.08132 25.9779C8.74694 26.3424 8.57975 26.8045 8.57975 27.3643V33H7.22719V27.0713C7.22719 26.5791 7.06751 26.1827 6.74815 25.8821C6.4288 25.5778 6.0174 25.4257 5.51394 25.4257C5.16829 25.4257 4.84517 25.5177 4.54461 25.7018C4.24779 25.8859 4.00734 26.1414 3.82324 26.4683C3.6429 26.7914 3.55273 27.1652 3.55273 27.5898V33H2.22271ZM19.5101 36.4265C18.8677 36.4265 18.3154 36.3438 17.8533 36.1785C17.3911 36.017 17.006 35.8028 16.6979 35.5361C16.3936 35.2731 16.1513 34.9913 15.9709 34.6907L17.0304 33.9468C17.1507 34.1046 17.3028 34.2849 17.4869 34.4878C17.671 34.6945 17.9228 34.8729 18.2421 35.0232C18.5652 35.1772 18.9879 35.2543 19.5101 35.2543C20.209 35.2543 20.7857 35.0852 21.2403 34.7471C21.6949 34.4089 21.9222 33.8792 21.9222 33.1578V31.3995H21.8095C21.7118 31.5573 21.5728 31.7526 21.3925 31.9856C21.2159 32.2148 20.9604 32.4195 20.626 32.5999C20.2954 32.7765 19.8483 32.8647 19.2847 32.8647C18.5859 32.8647 17.9585 32.6994 17.4024 32.3688C16.8501 32.0382 16.4124 31.5573 16.0893 30.9261C15.7699 30.2949 15.6103 29.5284 15.6103 28.6267C15.6103 27.74 15.7662 26.9679 16.078 26.3105C16.3899 25.6492 16.8238 25.1382 17.3799 24.7776C17.9359 24.4131 18.5784 24.2309 19.3073 24.2309C19.8708 24.2309 20.3179 24.3248 20.6485 24.5127C20.9829 24.6968 21.2384 24.9072 21.415 25.1439C21.5953 25.3768 21.7344 25.5684 21.832 25.7187H21.9673V24.3436H23.2522V33.248C23.2522 33.9919 23.0832 34.5968 22.745 35.0627C22.4106 35.5323 21.9598 35.8761 21.3925 36.094C20.8289 36.3157 20.2014 36.4265 19.5101 36.4265ZM19.4651 31.67C19.9986 31.67 20.4494 31.5479 20.8176 31.3037C21.1858 31.0594 21.4657 30.7082 21.6573 30.2498C21.8489 29.7914 21.9448 29.2429 21.9448 28.6042C21.9448 27.9805 21.8508 27.4301 21.663 26.9529C21.4751 26.4758 21.1971 26.1019 20.8289 25.8314C20.4607 25.5609 20.0061 25.4257 19.4651 25.4257C18.9015 25.4257 18.4318 25.5684 18.0561 25.854C17.6842 26.1395 17.4043 26.5227 17.2164 27.0036C17.0323 27.4846 16.9403 28.0181 16.9403 28.6042C16.9403 29.2053 17.0342 29.7369 17.2221 30.1991C17.4137 30.6574 17.6955 31.0181 18.0674 31.2811C18.4431 31.5404 18.909 31.67 19.4651 31.67ZM29.7671 20.9171L26.0475 34.7358H24.8302L28.5498 20.9171H29.7671ZM31.3436 33V24.3436H32.6286V25.6962H32.7413C32.9216 25.234 33.2128 24.8752 33.6148 24.6198C34.0168 24.3605 34.4996 24.2309 35.0632 24.2309C35.6343 24.2309 36.1095 24.3605 36.489 24.6198C36.8722 24.8752 37.1709 25.234 37.3851 25.6962H37.4753C37.6969 25.2491 38.0294 24.894 38.4728 24.631C38.9161 24.3643 39.4477 24.2309 40.0677 24.2309C40.8416 24.2309 41.4747 24.4732 41.9669 24.9579C42.4591 25.4388 42.7052 26.1883 42.7052 27.2065V33H41.3751V27.2065C41.3751 26.5678 41.2004 26.1113 40.851 25.8371C40.5016 25.5628 40.0902 25.4257 39.6168 25.4257C39.0082 25.4257 38.5366 25.6098 38.2023 25.9779C37.8679 26.3424 37.7007 26.8045 37.7007 27.3643V33H36.3481V27.0713C36.3481 26.5791 36.1884 26.1827 35.8691 25.8821C35.5497 25.5778 35.1383 25.4257 34.6349 25.4257C34.2892 25.4257 33.9661 25.5177 33.6655 25.7018C33.3687 25.8859 33.1283 26.1414 32.9442 26.4683C32.7638 26.7914 32.6737 27.1652 32.6737 27.5898V33H31.3436ZM45.1144 33V31.9856L48.9241 27.8152C49.3712 27.3268 49.7394 26.9022 50.0287 26.5415C50.318 26.1771 50.5322 25.8352 50.6712 25.5158C50.814 25.1927 50.8853 24.8546 50.8853 24.5014C50.8853 24.0956 50.7877 23.7443 50.5923 23.4475C50.4007 23.1507 50.1377 22.9215 49.8033 22.76C49.4689 22.5984 49.0932 22.5176 48.6762 22.5176C48.2328 22.5176 47.8458 22.6097 47.5152 22.7938C47.1883 22.9741 46.9347 23.2277 46.7544 23.5546C46.5778 23.8815 46.4895 24.2647 46.4895 24.7043H45.1595C45.1595 24.028 45.3154 23.4344 45.6273 22.9234C45.9391 22.4124 46.3637 22.0142 46.9009 21.7286C47.442 21.4431 48.0487 21.3003 48.7212 21.3003C49.3975 21.3003 49.9968 21.4431 50.519 21.7286C51.0413 22.0142 51.4508 22.3993 51.7476 22.884C52.0444 23.3686 52.1928 23.9078 52.1928 24.5014C52.1928 24.926 52.1158 25.3411 51.9618 25.7469C51.8115 26.1489 51.5485 26.5979 51.1728 27.0938C50.8008 27.586 50.2842 28.1871 49.623 28.8972L47.0305 31.67V31.7602H52.3957V33H45.1144Z" fill="black"/>
  <path d="M27.2334 45.2863H1V165.896H27.2334V45.2863Z" fill="url(#paint0_linear_0_1)" stroke="black" stroke-width="0.31992" stroke-miterlimit="2" stroke-linecap="square"/>
  <defs>
    <linearGradient id="paint0_linear_0_1" x1="-230.622" y1="166.231" x2="-230.622" y2="45.3163" gradientUnits="userSpaceOnUse">
      <stop stop-color="#EDF8FB"/>
      <stop offset="0.25" stop-color="#B2E2E2"/>
      <stop offset="0.5" stop-color="#66C2A4"/>
      <stop offset="0.75" stop-color="#2CA25F"/>
      <stop offset="1" stop-color="#006D2C"/>
    </linearGradient>
  </defs>
</svg>