<svg width="119" height="191" viewBox="0 0 119 191" fill="none" xmlns="http://www.w3.org/2000/svg">
  <path d="M27.2334 70H1V190.61H27.2334V70Z" fill="url(#paint0_linear_0_1)" stroke="black" stroke-width="0.31992" stroke-miterlimit="2" stroke-linecap="square"/>
  <path d="M39.2042 83V81.9775L43.0442 77.774C43.4948 77.2817 43.866 76.8538 44.1575 76.4903C44.4491 76.1229 44.665 75.7783 44.8051 75.4564C44.949 75.1308 45.021 74.7899 45.021 74.434C45.021 74.025 44.9225 73.6709 44.7256 73.3717C44.5325 73.0726 44.2674 72.8416 43.9303 72.6787C43.5933 72.5159 43.2146 72.4345 42.7943 72.4345C42.3474 72.4345 41.9573 72.5272 41.6241 72.7128C41.2946 72.8946 41.039 73.1502 40.8572 73.4797C40.6793 73.8091 40.5903 74.1954 40.5903 74.6385H39.2497C39.2497 73.9568 39.4068 73.3585 39.7212 72.8435C40.0355 72.3284 40.4634 71.927 41.0049 71.6392C41.5502 71.3514 42.1618 71.2075 42.8397 71.2075C43.5213 71.2075 44.1254 71.3514 44.6517 71.6392C45.1781 71.927 45.5909 72.3152 45.8901 72.8037C46.1892 73.2922 46.3388 73.8356 46.3388 74.434C46.3388 74.8619 46.2612 75.2803 46.1059 75.6893C45.9544 76.0945 45.6894 76.5471 45.3107 77.0469C44.9358 77.543 44.4151 78.1489 43.7486 78.8647L41.1356 81.6594V81.7503H46.5433V83H39.2042ZM49.2529 83L54.4561 72.7071V72.6162H48.4576V71.3666H55.9103V72.6844L50.7298 83H49.2529ZM61.5069 83.1591C60.8404 83.1591 60.2402 83.0265 59.7062 82.7614C59.1722 82.4963 58.7443 82.1328 58.4224 81.6708C58.1005 81.2088 57.9245 80.6824 57.8942 80.0916H59.2575C59.3105 80.618 59.549 81.0535 59.9732 81.3981C60.4011 81.739 60.9123 81.9094 61.5069 81.9094C61.984 81.9094 62.4082 81.7976 62.7793 81.5742C63.1542 81.3508 63.4477 81.0441 63.6598 80.654C63.8756 80.2602 63.9835 79.8152 63.9835 79.3191C63.9835 78.8117 63.8718 78.3591 63.6484 77.9615C63.4288 77.5601 63.1258 77.2439 62.7395 77.0129C62.3533 76.7819 61.9121 76.6645 61.416 76.6607C61.06 76.6569 60.6946 76.7118 60.3197 76.8254C59.9448 76.9352 59.6361 77.0772 59.3938 77.2514L58.0759 77.0924L58.7803 71.3666H64.8242V72.6162H59.9618L59.5528 76.0472H59.621C59.8596 75.8579 60.1587 75.7007 60.5185 75.5757C60.8783 75.4508 61.2532 75.3883 61.6432 75.3883C62.3552 75.3883 62.9895 75.5587 63.5462 75.8995C64.1066 76.2365 64.5459 76.6985 64.864 77.2855C65.1859 77.8725 65.3468 78.5428 65.3468 79.2964C65.3468 80.0386 65.1802 80.7013 64.847 81.2845C64.5175 81.8639 64.0631 82.3221 63.4837 82.6592C62.9043 82.9924 62.2453 83.1591 61.5069 83.1591Z" fill="black"/>
  <path d="M39.2042 184.719V183.697L43.0442 179.494C43.4948 179.001 43.866 178.573 44.1575 178.21C44.4491 177.842 44.665 177.498 44.8051 177.176C44.949 176.85 45.021 176.509 45.021 176.153C45.021 175.744 44.9225 175.39 44.7256 175.091C44.5325 174.792 44.2674 174.561 43.9303 174.398C43.5933 174.235 43.2146 174.154 42.7943 174.154C42.3474 174.154 41.9573 174.247 41.6241 174.432C41.2946 174.614 41.039 174.87 40.8572 175.199C40.6793 175.529 40.5903 175.915 40.5903 176.358H39.2497C39.2497 175.676 39.4068 175.078 39.7212 174.563C40.0355 174.048 40.4634 173.647 41.0049 173.359C41.5502 173.071 42.1618 172.927 42.8397 172.927C43.5213 172.927 44.1254 173.071 44.6517 173.359C45.1781 173.647 45.5909 174.035 45.8901 174.523C46.1892 175.012 46.3388 175.555 46.3388 176.153C46.3388 176.581 46.2612 177 46.1059 177.409C45.9544 177.814 45.6894 178.267 45.3107 178.766C44.9358 179.263 44.4151 179.868 43.7486 180.584L41.1356 183.379V183.47H46.5433V184.719H39.2042ZM52.9792 173.086V184.719H51.5705V174.563H51.5023L48.6621 176.449V175.017L51.5705 173.086H52.9792ZM56.6885 184.719L61.8917 174.427V174.336H55.8932V173.086H63.3459V174.404L58.1654 184.719H56.6885Z" fill="black"/>
  <path fill-rule="evenodd" clip-rule="evenodd" d="M1 69.7413H27.5533V190.671H1V69.7413ZM1.31992 70.0613V190.351H27.2334V70.0613H1.31992Z" fill="black"/>
  <path d="M118.345 33.8253L118.249 34.522C118.186 35.0334 118.077 35.5661 117.923 36.1201C117.774 36.6783 117.619 37.1961 117.457 37.6733C117.299 38.1506 117.169 38.5299 117.067 38.8111H115.712C115.767 38.5469 115.844 38.189 115.942 37.7372C116.04 37.2898 116.136 36.7891 116.23 36.2351C116.323 35.6811 116.394 35.1165 116.441 34.5412L116.504 33.8253H118.345Z" fill="black"/>
  <path d="M100.31 35.615V25.7968H101.768V27.3309H101.895C102.1 26.8068 102.43 26.3998 102.886 26.1101C103.342 25.816 103.89 25.669 104.529 25.669C105.177 25.669 105.716 25.816 106.146 26.1101C106.581 26.3998 106.92 26.8068 107.162 27.3309H107.265C107.516 26.8238 107.893 26.4211 108.396 26.1228C108.899 25.8203 109.502 25.669 110.205 25.669C111.083 25.669 111.801 25.9439 112.359 26.4936C112.917 27.039 113.197 27.8892 113.197 29.044V35.615H111.688V29.044C111.688 28.3196 111.49 27.8018 111.094 27.4907C110.697 27.1797 110.231 27.0241 109.694 27.0241C109.003 27.0241 108.469 27.2329 108.089 27.6505C107.71 28.0639 107.52 28.588 107.52 29.223V35.615H105.986V28.8906C105.986 28.3324 105.805 27.8828 105.443 27.5419C105.081 27.1967 104.614 27.0241 104.043 27.0241C103.651 27.0241 103.285 27.1285 102.944 27.3373C102.607 27.5461 102.334 27.8359 102.126 28.2066C101.921 28.5731 101.819 28.9971 101.819 29.4787V35.615H100.31Z" fill="black"/>
  <path d="M89.1129 39.2969V25.7969H90.6214V31.6009C90.6214 32.1335 90.7322 32.6023 90.9538 33.0071C91.1797 33.4077 91.495 33.7209 91.8998 33.9467C92.3089 34.1726 92.7862 34.2855 93.3317 34.2855C93.8771 34.2855 94.3523 34.1726 94.7571 33.9467C95.1662 33.7166 95.4815 33.4013 95.7031 33.0007C95.929 32.5959 96.0419 32.1293 96.0419 31.6009V25.7969H97.5504V35.6151H96.0419V34.1577H95.9652C95.701 34.6733 95.3324 35.0675 94.8594 35.3402C94.3863 35.6087 93.8771 35.7429 93.3317 35.7429C92.7862 35.7429 92.277 35.6087 91.804 35.3402C91.3352 35.0675 90.9666 34.6733 90.6981 34.1577H90.6214V39.2969H89.1129Z" fill="black"/>
  <path d="M77.1662 35.8324C76.1562 35.8281 75.2933 35.5618 74.5774 35.0334C73.8615 34.505 73.3139 33.7358 72.9346 32.7258C72.5554 31.7159 72.3657 30.4993 72.3657 29.076C72.3657 27.6569 72.5554 26.4446 72.9346 25.4389C73.3181 24.4332 73.8679 23.6662 74.5838 23.1378C75.3039 22.6094 76.1647 22.3452 77.1662 22.3452C78.1676 22.3452 79.0262 22.6115 79.7421 23.1442C80.4581 23.6726 81.0056 24.4396 81.3849 25.4453C81.7684 26.4467 81.9602 27.6569 81.9602 29.076C81.9602 30.5035 81.7705 31.7223 81.3913 32.7322C81.012 33.7379 80.4644 34.5071 79.7485 35.0398C79.0326 35.5682 78.1718 35.8324 77.1662 35.8324ZM77.1662 34.1257C78.0525 34.1257 78.745 33.6932 79.2436 32.8281C79.7464 31.9631 79.9978 30.7123 79.9978 29.076C79.9978 27.9893 79.8828 27.071 79.6527 26.321C79.4268 25.5667 79.1008 24.9957 78.6747 24.6079C78.2528 24.2159 77.75 24.0199 77.1662 24.0199C76.2841 24.0199 75.5916 24.4545 75.0887 25.3238C74.5859 26.1932 74.3323 27.4439 74.3281 29.076C74.3281 30.1669 74.441 31.0895 74.6669 31.8437C74.897 32.5937 75.223 33.1626 75.6448 33.5504C76.0667 33.9339 76.5738 34.1257 77.1662 34.1257Z" fill="black"/>
  <path d="M69.0675 22.5242V35.6151H67.0859V24.5057H67.0092L63.8771 26.5512V24.6591L67.1435 22.5242H69.0675Z" fill="black"/>
  <path d="M52.4545 35.615V25.7969H54.3018V27.3565H54.4041C54.5831 26.8281 54.8984 26.4126 55.3501 26.1101C55.8061 25.8032 56.3217 25.6498 56.897 25.6498C57.0163 25.6498 57.1569 25.6541 57.3189 25.6626C57.4851 25.6711 57.615 25.6818 57.7088 25.6946V27.5227C57.6321 27.5014 57.4957 27.478 57.2997 27.4524C57.1037 27.4226 56.9077 27.4077 56.7116 27.4077C56.2599 27.4077 55.8572 27.5035 55.5035 27.6953C55.1541 27.8828 54.8771 28.1449 54.6726 28.4815C54.468 28.8139 54.3657 29.1932 54.3657 29.6193V35.615H52.4545Z" fill="black"/>
  <path d="M46.1216 35.8132C45.1543 35.8132 44.3212 35.6065 43.6223 35.1932C42.9277 34.7755 42.3908 34.1896 42.0115 33.4353C41.6365 32.6768 41.449 31.7883 41.449 30.7699C41.449 29.7642 41.6365 28.8778 42.0115 28.1108C42.3908 27.3437 42.9192 26.745 43.5968 26.3146C44.2786 25.8842 45.0755 25.669 45.9874 25.669C46.5414 25.669 47.0783 25.7606 47.5982 25.9439C48.1181 26.1271 48.5847 26.4147 48.998 26.8068C49.4114 27.1988 49.7374 27.7081 49.976 28.3345C50.2147 28.9566 50.334 29.713 50.334 30.6037V31.2812H42.5293V29.8494H48.4611C48.4611 29.3466 48.3588 28.9012 48.1543 28.5135C47.9497 28.1214 47.6621 27.8125 47.2914 27.5866C46.9249 27.3608 46.4945 27.2478 46.0002 27.2478C45.4632 27.2478 44.9945 27.3799 44.5939 27.6441C44.1976 27.9041 43.8908 28.245 43.6735 28.6669C43.4604 29.0845 43.3539 29.5383 43.3539 30.0284V31.147C43.3539 31.8032 43.4689 32.3615 43.699 32.8217C43.9334 33.2819 44.2594 33.6335 44.677 33.8764C45.0946 34.115 45.5826 34.2343 46.1408 34.2343C46.503 34.2343 46.8333 34.1832 47.1316 34.0809C47.4299 33.9744 47.6877 33.8167 47.905 33.6079C48.1223 33.3991 48.2885 33.1413 48.4036 32.8345L50.2125 33.1605C50.0676 33.6932 49.8077 34.1598 49.4327 34.5603C49.062 34.9566 48.5953 35.2656 48.0328 35.4872C47.4746 35.7045 46.8375 35.8132 46.1216 35.8132Z" fill="black"/>
  <path d="M39.8814 25.7969V27.3309H34.5184V25.7969H39.8814ZM35.9566 23.4446H37.8679V32.7322C37.8679 33.103 37.9233 33.3821 38.0341 33.5696C38.1449 33.7528 38.2876 33.8785 38.4623 33.9467C38.6413 34.0106 38.8352 34.0426 39.044 34.0426C39.1974 34.0426 39.3316 34.0319 39.4467 34.0106C39.5618 33.9893 39.6512 33.9723 39.7152 33.9595L40.0603 35.5383C39.9495 35.5809 39.7919 35.6236 39.5873 35.6662C39.3828 35.713 39.1271 35.7386 38.8203 35.7429C38.3174 35.7514 37.8487 35.6619 37.414 35.4744C36.9794 35.2869 36.6278 34.9971 36.3593 34.6051C36.0909 34.213 35.9566 33.7209 35.9566 33.1285V23.4446Z" fill="black"/>
  <path d="M33.1841 25.7969V27.3309H27.8212V25.7969H33.1841ZM29.2594 23.4446H31.1706V32.7322C31.1706 33.103 31.226 33.3821 31.3368 33.5696C31.4476 33.7528 31.5903 33.8785 31.7651 33.9467C31.944 34.0106 32.1379 34.0426 32.3467 34.0426C32.5001 34.0426 32.6344 34.0319 32.7494 34.0106C32.8645 33.9893 32.954 33.9723 33.0179 33.9595L33.3631 35.5383C33.2523 35.5809 33.0946 35.6236 32.8901 35.6662C32.6855 35.713 32.4298 35.7386 32.123 35.7429C31.6202 35.7514 31.1514 35.6619 30.7168 35.4744C30.2821 35.2869 29.9305 34.9971 29.6621 34.6051C29.3936 34.213 29.2594 33.7209 29.2594 33.1285V23.4446Z" fill="black"/>
  <path d="M21.2102 35.8324C20.5881 35.8324 20.0256 35.7173 19.5227 35.4872C19.0199 35.2528 18.6215 34.914 18.3274 34.4709C18.0376 34.0277 17.8928 33.4843 17.8928 32.8409C17.8928 32.2869 17.9993 31.8309 18.2124 31.473C18.4254 31.115 18.7131 30.8316 19.0753 30.6228C19.4375 30.414 19.8423 30.2564 20.2898 30.1498C20.7372 30.0433 21.1932 29.9623 21.6577 29.9069C22.2457 29.8388 22.723 29.7834 23.0895 29.7407C23.456 29.6939 23.7223 29.6193 23.8885 29.517C24.0547 29.4147 24.1378 29.2485 24.1378 29.0184V28.9737C24.1378 28.4155 23.9801 27.9829 23.6648 27.6761C23.3537 27.3693 22.8892 27.2159 22.2713 27.2159C21.6278 27.2159 21.1207 27.3586 20.75 27.6441C20.3835 27.9254 20.13 28.2386 19.9894 28.5838L18.1932 28.1747C18.4063 27.5781 18.7173 27.0966 19.1264 26.7301C19.5398 26.3593 20.0149 26.0909 20.5519 25.9247C21.0888 25.7542 21.6534 25.669 22.2457 25.669C22.6378 25.669 23.0533 25.7159 23.4922 25.8096C23.9354 25.8991 24.3487 26.0653 24.7323 26.3082C25.12 26.5511 25.4375 26.8984 25.6847 27.3501C25.9318 27.7976 26.0554 28.3792 26.0554 29.0951V35.615H24.1889V34.2727H24.1122C23.9886 34.5199 23.8033 34.7628 23.5561 35.0014C23.309 35.24 22.9915 35.4382 22.6037 35.5959C22.2159 35.7535 21.7514 35.8324 21.2102 35.8324ZM21.6257 34.2983C22.1541 34.2983 22.6058 34.1939 22.9808 33.9851C23.3601 33.7763 23.6477 33.5035 23.8438 33.1669C24.044 32.826 24.1442 32.4616 24.1442 32.0738V30.8082C24.076 30.8764 23.9439 30.9403 23.7479 31C23.5561 31.0554 23.3367 31.1044 23.0895 31.147C22.8423 31.1853 22.6016 31.2216 22.3672 31.2557C22.1328 31.2855 21.9368 31.3111 21.7791 31.3324C21.4084 31.3792 21.0696 31.4581 20.7628 31.5689C20.4602 31.6797 20.2173 31.8395 20.0341 32.0483C19.8551 32.2528 19.7656 32.5255 19.7656 32.8664C19.7656 33.3395 19.9403 33.6974 20.2898 33.9403C20.6392 34.1789 21.0845 34.2983 21.6257 34.2983Z" fill="black"/>
  <path d="M2.44476 35.615V25.7968H4.27928V27.3949H4.40073C4.60527 26.8537 4.93979 26.4318 5.40428 26.1292C5.86877 25.8224 6.42488 25.669 7.0726 25.669C7.72885 25.669 8.27857 25.8224 8.72175 26.1292C9.1692 26.436 9.49945 26.8579 9.71252 27.3949H9.81479C10.0492 26.8707 10.422 26.4531 10.9334 26.142C11.4448 25.8267 12.0541 25.669 12.7615 25.669C13.6521 25.669 14.3787 25.9481 14.9412 26.5064C15.508 27.0646 15.7914 27.9062 15.7914 29.0312V35.615H13.8801V29.2102C13.8801 28.5454 13.699 28.0639 13.3368 27.7656C12.9746 27.4673 12.5421 27.3182 12.0392 27.3182C11.4171 27.3182 10.9334 27.5099 10.5882 27.8934C10.2431 28.2727 10.0705 28.7606 10.0705 29.3572V35.615H8.16564V29.0887C8.16564 28.5561 7.99945 28.1278 7.66706 27.8039C7.33468 27.4801 6.90215 27.3182 6.36948 27.3182C6.00726 27.3182 5.67275 27.414 5.36593 27.6058C5.06337 27.7933 4.81834 28.0554 4.63084 28.392C4.4476 28.7287 4.35598 29.1186 4.35598 29.5618V35.615H2.44476Z" fill="black"/>
  <path d="M89.2583 13.8132C88.291 13.8132 87.4579 13.6065 86.759 13.1932C86.0644 12.7755 85.5275 12.1896 85.1483 11.4353C84.7733 10.6768 84.5858 9.78832 84.5858 8.76986C84.5858 7.76418 84.7733 6.87781 85.1483 6.11077C85.5275 5.34372 86.0559 4.745 86.7335 4.3146C87.4153 3.88421 88.2122 3.66901 89.1241 3.66901C89.6781 3.66901 90.215 3.76063 90.7349 3.94386C91.2548 4.1271 91.7214 4.41474 92.1348 4.80679C92.5481 5.19884 92.8741 5.70807 93.1127 6.33449C93.3514 6.95665 93.4707 7.71304 93.4707 8.60367V9.28122H85.666V7.8494H91.5978C91.5978 7.34656 91.4956 6.90125 91.291 6.51347C91.0865 6.12142 90.7988 5.81247 90.4281 5.58662C90.0616 5.36077 89.6312 5.24784 89.1369 5.24784C88.6 5.24784 88.1312 5.37994 87.7306 5.64415C87.3343 5.90409 87.0275 6.245 86.8102 6.66688C86.5971 7.08449 86.4906 7.53832 86.4906 8.02838V9.14699C86.4906 9.80324 86.6056 10.3615 86.8358 10.8217C87.0701 11.2819 87.3961 11.6335 87.8137 11.8764C88.2313 12.115 88.7193 12.2343 89.2775 12.2343C89.6397 12.2343 89.97 12.1832 90.2683 12.0809C90.5666 11.9744 90.8244 11.8167 91.0417 11.6079C91.259 11.3991 91.4252 11.1413 91.5403 10.8345L93.3493 11.1605C93.2044 11.6932 92.9444 12.1598 92.5694 12.5603C92.1987 12.9566 91.7321 13.2656 91.1696 13.4872C90.6113 13.7045 89.9742 13.8132 89.2583 13.8132Z" fill="black"/>
  <path d="M83.0181 3.79685V5.33094H77.6552V3.79685H83.0181ZM79.0934 1.44458H81.0046V10.7322C81.0046 11.103 81.06 11.3821 81.1708 11.5696C81.2816 11.7528 81.4243 11.8785 81.599 11.9467C81.778 12.0106 81.9719 12.0426 82.1807 12.0426C82.3341 12.0426 82.4684 12.0319 82.5834 12.0106C82.6985 11.9893 82.788 11.9723 82.8519 11.9595L83.1971 13.5383C83.0863 13.5809 82.9286 13.6236 82.724 13.6662C82.5195 13.713 82.2638 13.7386 81.957 13.7429C81.4542 13.7514 80.9854 13.6619 80.5507 13.4744C80.1161 13.2869 79.7645 12.9971 79.4961 12.6051C79.2276 12.213 79.0934 11.7209 79.0934 11.1285V1.44458Z" fill="black"/>
  <path d="M71.0442 13.8324C70.4221 13.8324 69.8596 13.7173 69.3567 13.4872C68.8539 13.2528 68.4554 12.914 68.1614 12.4709C67.8716 12.0277 67.7267 11.4843 67.7267 10.8409C67.7267 10.2869 67.8333 9.83094 68.0463 9.47298C68.2594 9.11503 68.5471 8.83165 68.9093 8.62284C69.2715 8.41403 69.6763 8.25636 70.1238 8.14983C70.5712 8.0433 71.0272 7.96233 71.4917 7.90693C72.0797 7.83875 72.557 7.78335 72.9235 7.74074C73.29 7.69386 73.5563 7.61929 73.7225 7.51702C73.8887 7.41475 73.9718 7.24855 73.9718 7.01844V6.97369C73.9718 6.41546 73.8141 5.98293 73.4988 5.67611C73.1877 5.36929 72.7232 5.21588 72.1053 5.21588C71.4618 5.21588 70.9547 5.35864 70.584 5.64415C70.2175 5.9254 69.964 6.23861 69.8233 6.58378L68.0272 6.17469C68.2402 5.5781 68.5513 5.09656 68.9604 4.73009C69.3738 4.35935 69.8489 4.09088 70.3858 3.92469C70.9228 3.75423 71.4874 3.66901 72.0797 3.66901C72.4718 3.66901 72.8873 3.71588 73.3262 3.80963C73.7694 3.89912 74.1827 4.06531 74.5662 4.30821C74.954 4.55111 75.2715 4.89841 75.5186 5.35011C75.7658 5.79756 75.8894 6.37923 75.8894 7.09514V13.615H74.0229V12.2727H73.9462C73.8226 12.5199 73.6372 12.7628 73.3901 13.0014C73.1429 13.24 72.8255 13.4382 72.4377 13.5959C72.0499 13.7535 71.5854 13.8324 71.0442 13.8324ZM71.4597 12.2983C71.9881 12.2983 72.4398 12.1939 72.8148 11.9851C73.1941 11.7762 73.4817 11.5035 73.6777 11.1669C73.878 10.826 73.9782 10.4616 73.9782 10.0738V8.80821C73.91 8.87639 73.7779 8.94031 73.5819 8.99997C73.3901 9.05537 73.1706 9.10438 72.9235 9.14699C72.6763 9.18534 72.4355 9.22156 72.2012 9.25565C71.9668 9.28548 71.7708 9.31105 71.6131 9.33236C71.2424 9.37923 70.9036 9.45807 70.5968 9.56886C70.2942 9.67966 70.0513 9.83946 69.8681 10.0483C69.6891 10.2528 69.5996 10.5255 69.5996 10.8664C69.5996 11.3395 69.7743 11.6974 70.1238 11.9403C70.4732 12.179 70.9185 12.2983 71.4597 12.2983Z" fill="black"/>
  <path d="M65.6157 0.52417V13.6151H63.7045V0.52417H65.6157Z" fill="black"/>
  <path d="M59.2189 9.54332V3.79688H61.1365V13.6151H59.2573V11.9148H59.155C58.9291 12.4389 58.5669 12.8757 58.0683 13.2251C57.574 13.5703 56.9583 13.7429 56.221 13.7429C55.5904 13.7429 55.0321 13.6044 54.5463 13.3274C54.0648 13.0462 53.6855 12.6307 53.4085 12.081C53.1358 11.5313 52.9995 10.8516 52.9995 10.0419V3.79688H54.9107V9.81179C54.9107 10.4808 55.096 11.0135 55.4668 11.4098C55.8375 11.8061 56.3191 12.0043 56.9114 12.0043C57.2693 12.0043 57.6252 11.9148 57.9789 11.7358C58.3368 11.5568 58.633 11.2862 58.8673 10.924C59.106 10.5618 59.2232 10.1016 59.2189 9.54332Z" fill="black"/>
  <path d="M46.9222 13.8132C45.9719 13.8132 45.1538 13.598 44.4677 13.1676C43.7859 12.7329 43.2617 12.1342 42.8952 11.3714C42.5288 10.6086 42.3455 9.73506 42.3455 8.75068C42.3455 7.75352 42.533 6.87355 42.908 6.11077C43.283 5.34372 43.8114 4.745 44.4932 4.3146C45.1751 3.88421 45.9783 3.66901 46.903 3.66901C47.6488 3.66901 48.3136 3.8075 48.8974 4.08449C49.4812 4.35722 49.9521 4.74074 50.31 5.23506C50.6722 5.72938 50.8874 6.30679 50.9556 6.9673H49.0955C48.9932 6.50707 48.7589 6.11077 48.3924 5.77838C48.0302 5.446 47.5444 5.2798 46.935 5.2798C46.4023 5.2798 45.9357 5.42043 45.5352 5.70168C45.1388 5.97867 44.8299 6.37497 44.6083 6.8906C44.3867 7.40196 44.2759 8.00707 44.2759 8.70594C44.2759 9.42185 44.3846 10.0397 44.6019 10.5596C44.8192 11.0795 45.1261 11.4822 45.5224 11.7677C45.9229 12.0532 46.3938 12.196 46.935 12.196C47.2972 12.196 47.6253 12.1299 47.9194 11.9978C48.2177 11.8615 48.467 11.6676 48.6673 11.4162C48.8718 11.1647 49.0146 10.8622 49.0955 10.5085H50.9556C50.8874 11.1434 50.6807 11.7102 50.3356 12.2088C49.9904 12.7074 49.528 13.0994 48.9485 13.3849C48.3732 13.6704 47.6978 13.8132 46.9222 13.8132Z" fill="black"/>
  <path d="M38.3041 13.6151V3.79688H40.2153V13.6151H38.3041ZM39.2693 2.28196C38.9369 2.28196 38.6514 2.17116 38.4128 1.94957C38.1784 1.72372 38.0612 1.45526 38.0612 1.14418C38.0612 0.828835 38.1784 0.560369 38.4128 0.338778C38.6514 0.112926 38.9369 0 39.2693 0C39.6017 0 39.8851 0.112926 40.1195 0.338778C40.3581 0.560369 40.4774 0.828835 40.4774 1.14418C40.4774 1.45526 40.3581 1.72372 40.1195 1.94957C39.8851 2.17116 39.6017 2.28196 39.2693 2.28196Z" fill="black"/>
  <path d="M36.19 3.79685V5.33094H30.827V3.79685H36.19ZM32.2652 1.44458H34.1765V10.7322C34.1765 11.103 34.2319 11.3821 34.3426 11.5696C34.4534 11.7528 34.5962 11.8785 34.7709 11.9467C34.9499 12.0106 35.1438 12.0426 35.3526 12.0426C35.506 12.0426 35.6402 12.0319 35.7553 12.0106C35.8703 11.9893 35.9598 11.9723 36.0238 11.9595L36.3689 13.5383C36.2581 13.5809 36.1005 13.6236 35.8959 13.6662C35.6914 13.713 35.4357 13.7386 35.1289 13.7429C34.626 13.7514 34.1573 13.6619 33.7226 13.4744C33.288 13.2869 32.9364 12.9971 32.6679 12.6051C32.3995 12.213 32.2652 11.7209 32.2652 11.1285V1.44458Z" fill="black"/>
  <path d="M24.1186 13.615V3.79686H25.9659V5.35652H26.0682C26.2471 4.82811 26.5625 4.41263 27.0142 4.11007C27.4702 3.80325 27.9858 3.64984 28.5611 3.64984C28.6804 3.64984 28.821 3.6541 28.9829 3.66263C29.1491 3.67115 29.2791 3.6818 29.3729 3.69459V5.52271C29.2961 5.5014 29.1598 5.47797 28.9638 5.4524C28.7677 5.42257 28.5717 5.40765 28.3757 5.40765C27.924 5.40765 27.5213 5.50353 27.1676 5.6953C26.8182 5.8828 26.5412 6.14487 26.3366 6.48152C26.1321 6.8139 26.0298 7.19317 26.0298 7.6193V13.615H24.1186Z" fill="black"/>
  <path d="M16.7278 13.8324C16.1057 13.8324 15.5432 13.7173 15.0403 13.4872C14.5375 13.2528 14.139 12.914 13.845 12.4709C13.5552 12.0277 13.4103 11.4843 13.4103 10.8409C13.4103 10.2869 13.5169 9.83094 13.7299 9.47298C13.943 9.11503 14.2307 8.83165 14.5929 8.62284C14.9551 8.41403 15.3599 8.25636 15.8074 8.14983C16.2548 8.0433 16.7108 7.96233 17.1753 7.90693C17.7633 7.83875 18.2406 7.78335 18.6071 7.74074C18.9736 7.69386 19.2399 7.61929 19.4061 7.51702C19.5723 7.41475 19.6554 7.24855 19.6554 7.01844V6.97369C19.6554 6.41546 19.4977 5.98293 19.1824 5.67611C18.8713 5.36929 18.4068 5.21588 17.7889 5.21588C17.1454 5.21588 16.6383 5.35864 16.2676 5.64415C15.9011 5.9254 15.6476 6.23861 15.5069 6.58378L13.7108 6.17469C13.9238 5.5781 14.2349 5.09656 14.644 4.73009C15.0574 4.35935 15.5325 4.09088 16.0694 3.92469C16.6064 3.75423 17.171 3.66901 17.7633 3.66901C18.1554 3.66901 18.5709 3.71588 19.0098 3.80963C19.453 3.89912 19.8663 4.06531 20.2498 4.30821C20.6376 4.55111 20.9551 4.89841 21.2022 5.35011C21.4494 5.79756 21.573 6.37923 21.573 7.09514V13.615H19.7065V12.2727H19.6298C19.5062 12.5199 19.3209 12.7628 19.0737 13.0014C18.8265 13.24 18.5091 13.4382 18.1213 13.5959C17.7335 13.7535 17.269 13.8324 16.7278 13.8324ZM17.1433 12.2983C17.6717 12.2983 18.1234 12.1939 18.4984 11.9851C18.8777 11.7762 19.1653 11.5035 19.3613 11.1669C19.5616 10.826 19.6618 10.4616 19.6618 10.0738V8.80821C19.5936 8.87639 19.4615 8.94031 19.2655 8.99997C19.0737 9.05537 18.8542 9.10438 18.6071 9.14699C18.3599 9.18534 18.1191 9.22156 17.8848 9.25565C17.6504 9.28548 17.4544 9.31105 17.2967 9.33236C16.926 9.37923 16.5872 9.45807 16.2804 9.56886C15.9778 9.67966 15.7349 9.83946 15.5517 10.0483C15.3727 10.2528 15.2832 10.5255 15.2832 10.8664C15.2832 11.3395 15.4579 11.6974 15.8074 11.9403C16.1568 12.179 16.6021 12.2983 17.1433 12.2983Z" fill="black"/>
  <path d="M2.59814 13.6151V0.52417H7.26434C8.2828 0.52417 9.12655 0.709539 9.79559 1.08028C10.4646 1.45102 10.9653 1.95812 11.2977 2.60158C11.6301 3.24079 11.7963 3.96096 11.7963 4.7621C11.7963 5.56749 11.628 6.29193 11.2913 6.93539C10.9589 7.5746 10.4561 8.0817 9.7828 8.4567C9.11377 8.82744 8.27215 9.01281 7.25795 9.01281H4.04914V7.33809H7.07897C7.72243 7.33809 8.24445 7.2273 8.64502 7.0057C9.04559 6.77985 9.33962 6.47303 9.52712 6.08525C9.71462 5.69747 9.80837 5.25641 9.80837 4.7621C9.80837 4.26778 9.71462 3.82886 9.52712 3.44533C9.33962 3.06181 9.04346 2.76139 8.63863 2.54406C8.23806 2.32673 7.70965 2.21806 7.0534 2.21806H4.57329V13.6151H2.59814Z" fill="black"/>
  <path d="M2.51709 61.8612V49.9587H3.84711V55.0759C3.84711 55.5455 3.94479 55.9588 4.14016 56.3157C4.33929 56.6689 4.61732 56.945 4.97424 57.1442C5.33493 57.3433 5.75572 57.4429 6.23664 57.4429C6.71755 57.4429 7.13646 57.3433 7.49339 57.1442C7.85407 56.9413 8.1321 56.6633 8.32747 56.3101C8.5266 55.9532 8.62616 55.5418 8.62616 55.0759V49.9587H9.95618V58.6151H8.62616V57.3301H8.55853C8.32559 57.7848 8.0006 58.1323 7.58356 58.3727C7.16652 58.6094 6.71755 58.7278 6.23664 58.7278C5.75572 58.7278 5.30675 58.6094 4.88971 58.3727C4.47643 58.1323 4.15144 57.7848 3.91474 57.3301H3.84711V61.8612H2.51709Z" fill="black"/>
  <path d="M44.584 56.7729C43.8401 56.7729 43.1769 56.6451 42.5946 56.3896C42.016 56.1342 41.5558 55.7791 41.2139 55.3245C40.8757 54.8661 40.6916 54.3345 40.6616 53.7296H42.0818C42.1118 54.1016 42.2396 54.4228 42.465 54.6933C42.6904 54.9601 42.9853 55.1667 43.3498 55.3132C43.7142 55.4598 44.1181 55.533 44.5614 55.533C45.0574 55.533 45.497 55.4466 45.8802 55.2738C46.2634 55.1009 46.564 54.8605 46.7819 54.5524C46.9998 54.2443 47.1088 53.8874 47.1088 53.4816C47.1088 53.0571 47.0036 52.6832 46.7932 52.3601C46.5828 52.0333 46.2747 51.7778 45.8689 51.5937C45.4632 51.4096 44.9672 51.3175 44.3811 51.3175H43.4569V50.0777H44.3811C44.8395 50.0777 45.2415 49.995 45.5871 49.8297C45.9366 49.6644 46.2089 49.4315 46.4043 49.1309C46.6034 48.8303 46.703 48.4772 46.703 48.0714C46.703 47.6806 46.6166 47.3406 46.4438 47.0513C46.2709 46.762 46.0267 46.5366 45.7111 46.375C45.3993 46.2135 45.0311 46.1327 44.6065 46.1327C44.2083 46.1327 43.8326 46.206 43.4794 46.3525C43.13 46.4953 42.8444 46.7038 42.6228 46.9781C42.4011 47.2486 42.2809 47.5754 42.2621 47.9587H40.9095C40.9321 47.3538 41.1143 46.824 41.4562 46.3694C41.7981 45.911 42.2452 45.5541 42.7975 45.2986C43.3535 45.0431 43.9641 44.9154 44.6291 44.9154C45.3429 44.9154 45.9553 45.0601 46.4663 45.3494C46.9773 45.6349 47.3699 46.0125 47.6442 46.4821C47.9184 46.9518 48.0556 47.459 48.0556 48.0038C48.0556 48.6537 47.8846 49.2079 47.5427 49.6663C47.2046 50.1246 46.7443 50.4421 46.162 50.6187V50.7089C46.8909 50.8291 47.4601 51.1391 47.8696 51.6388C48.2791 52.1347 48.4839 52.749 48.4839 53.4816C48.4839 54.1091 48.3129 54.6726 47.971 55.1723C47.6329 55.6683 47.1708 56.059 46.5847 56.3446C45.9985 56.6301 45.3317 56.7729 44.584 56.7729Z" fill="black"/>
  <path d="M26.9133 56.6151V47.9587H28.1983V49.3112H28.311C28.4913 48.8491 28.7825 48.4903 29.1845 48.2348C29.5865 47.9756 30.0693 47.8459 30.6329 47.8459C31.204 47.8459 31.6792 47.9756 32.0587 48.2348C32.4419 48.4903 32.7406 48.8491 32.9548 49.3112H33.0449C33.2666 48.8641 33.5991 48.5091 34.0425 48.2461C34.4858 47.9793 35.0174 47.8459 35.6374 47.8459C36.4113 47.8459 37.0444 48.0883 37.5366 48.5729C38.0288 49.0539 38.2749 49.8034 38.2749 50.8216V56.6151H36.9448V50.8216C36.9448 50.1829 36.7701 49.7264 36.4207 49.4521C36.0713 49.1778 35.6599 49.0407 35.1865 49.0407C34.5778 49.0407 34.1063 49.2248 33.7719 49.593C33.4376 49.9574 33.2704 50.4196 33.2704 50.9794V56.6151H31.9178V50.6863C31.9178 50.1941 31.7581 49.7978 31.4388 49.4972C31.1194 49.1929 30.708 49.0407 30.2046 49.0407C29.8589 49.0407 29.5358 49.1328 29.2352 49.3169C28.9384 49.501 28.698 49.7564 28.5139 50.0833C28.3335 50.4064 28.2433 50.7803 28.2433 51.2048V56.6151H26.9133Z" fill="black"/>
  <path d="M25.3368 44.5322L21.6172 58.3508H20.3999L24.1194 44.5322H25.3368Z" fill="black"/>
  <path d="M15.0798 60.0415C14.4374 60.0415 13.8851 59.9589 13.4229 59.7936C12.9608 59.632 12.5757 59.4179 12.2676 59.1511C11.9633 58.8881 11.721 58.6063 11.5406 58.3058L12.6001 57.5619C12.7203 57.7196 12.8725 57.9 13.0566 58.1029C13.2407 58.3095 13.4924 58.488 13.8118 58.6383C14.1349 58.7923 14.5576 58.8693 15.0798 58.8693C15.7786 58.8693 16.3554 58.7003 16.81 58.3621C17.2646 58.024 17.4919 57.4942 17.4919 56.7729V55.0145H17.3792C17.2815 55.1723 17.1425 55.3677 16.9621 55.6006C16.7855 55.8298 16.5301 56.0346 16.1957 56.2149C15.8651 56.3915 15.418 56.4798 14.8544 56.4798C14.1556 56.4798 13.5281 56.3145 12.9721 55.9839C12.4198 55.6532 11.9821 55.1723 11.659 54.5411C11.3396 53.9099 11.1799 53.1435 11.1799 52.2418C11.1799 51.3551 11.3359 50.583 11.6477 49.9255C11.9595 49.2643 12.3935 48.7533 12.9495 48.3926C13.5056 48.0282 14.1481 47.8459 14.8769 47.8459C15.4405 47.8459 15.8876 47.9399 16.2182 48.1277C16.5526 48.3118 16.8081 48.5222 16.9847 48.7589C17.165 48.9919 17.304 49.1835 17.4017 49.3338H17.537V47.9587H18.8219V56.863C18.8219 57.6069 18.6528 58.2118 18.3147 58.6777C17.9803 59.1474 17.5295 59.4911 16.9621 59.709C16.3986 59.9307 15.7711 60.0415 15.0798 60.0415ZM15.0347 55.285C15.5682 55.285 16.0191 55.1629 16.3873 54.9187C16.7555 54.6745 17.0354 54.3232 17.227 53.8648C17.4186 53.4065 17.5144 52.8579 17.5144 52.2192C17.5144 51.5955 17.4205 51.0451 17.2326 50.568C17.0448 50.0908 16.7668 49.717 16.3986 49.4465C16.0304 49.176 15.5758 49.0407 15.0347 49.0407C14.4712 49.0407 14.0015 49.1835 13.6258 49.469C13.2539 49.7546 12.974 50.1378 12.7861 50.6187C12.602 51.0996 12.51 51.6331 12.51 52.2192C12.51 52.8204 12.6039 53.352 12.7917 53.8141C12.9833 54.2725 13.2651 54.6332 13.6371 54.8962C14.0128 55.1554 14.4787 55.285 15.0347 55.285Z" fill="black"/>
  <defs>
    <linearGradient id="paint0_linear_0_1" x1="-6.35816" y1="191.106" x2="-6.35816" y2="70.1913" gradientUnits="userSpaceOnUse">
      <stop stop-color="#717174" stop-opacity="0"/>
      <stop offset="0.02" stop-color="#878778" stop-opacity="0.0666667"/>
      <stop offset="0.04" stop-color="#878778" stop-opacity="0.141176"/>
      <stop offset="0.06" stop-color="#898476" stop-opacity="0.211765"/>
      <stop offset="0.08" stop-color="#888577" stop-opacity="0.286275"/>
      <stop offset="0.1" stop-color="#8B8577" stop-opacity="0.360784"/>
      <stop offset="0.12" stop-color="#8A8577" stop-opacity="0.427451"/>
      <stop offset="0.14" stop-color="#898578" stop-opacity="0.501961"/>
      <stop offset="0.16" stop-color="#8A8679" stop-opacity="0.572549"/>
      <stop offset="0.18" stop-color="#8A8679" stop-opacity="0.647059"/>
      <stop offset="0.2" stop-color="#8A8779" stop-opacity="0.721569"/>
      <stop offset="0.22" stop-color="#8D8979" stop-opacity="0.745098"/>
      <stop offset="0.24" stop-color="#8F8A78" stop-opacity="0.776471"/>
      <stop offset="0.26" stop-color="#908B77" stop-opacity="0.803922"/>
      <stop offset="0.28" stop-color="#938E77" stop-opacity="0.831373"/>
      <stop offset="0.3" stop-color="#958F77" stop-opacity="0.858824"/>
      <stop offset="0.32" stop-color="#979076" stop-opacity="0.886275"/>
      <stop offset="0.34" stop-color="#989376" stop-opacity="0.913725"/>
      <stop offset="0.36" stop-color="#9A9476" stop-opacity="0.941176"/>
      <stop offset="0.38" stop-color="#9C9576" stop-opacity="0.968627"/>
      <stop offset="0.4" stop-color="#9D9676"/>
      <stop offset="0.42" stop-color="#A09975"/>
      <stop offset="0.44" stop-color="#A49C74"/>
      <stop offset="0.46" stop-color="#A89F73"/>
      <stop offset="0.48" stop-color="#ACA272"/>
      <stop offset="0.5" stop-color="#B1A571"/>
      <stop offset="0.52" stop-color="#B4A870"/>
      <stop offset="0.54" stop-color="#B8AB6F"/>
      <stop offset="0.56" stop-color="#BCAE6E"/>
      <stop offset="0.58" stop-color="#C0B16D"/>
      <stop offset="0.6" stop-color="#C5B56C"/>
      <stop offset="0.618182" stop-color="#C7B76A"/>
      <stop offset="0.636364" stop-color="#CAB968"/>
      <stop offset="0.654545" stop-color="#CDBC67"/>
      <stop offset="0.672727" stop-color="#D0BE65"/>
      <stop offset="0.690909" stop-color="#D3C163"/>
      <stop offset="0.709091" stop-color="#D6C362"/>
      <stop offset="0.727273" stop-color="#D9C660"/>
      <stop offset="0.745455" stop-color="#DCC85E"/>
      <stop offset="0.763636" stop-color="#DFCB5D"/>
      <stop offset="0.781818" stop-color="#E2CD5B"/>
      <stop offset="0.8" stop-color="#E5D05A"/>
      <stop offset="0.82" stop-color="#E7D258"/>
      <stop offset="0.84" stop-color="#EAD556"/>
      <stop offset="0.86" stop-color="#ECD754"/>
      <stop offset="0.88" stop-color="#EFDA52"/>
      <stop offset="0.9" stop-color="#F2DD50"/>
      <stop offset="0.92" stop-color="#F4DF4E"/>
      <stop offset="0.94" stop-color="#F7E24C"/>
      <stop offset="0.96" stop-color="#F9E44A"/>
      <stop offset="0.98" stop-color="#FCE748"/>
      <stop offset="1" stop-color="#FFEA46"/>
    </linearGradient>
  </defs>
</svg>
