<svg width="123" height="168" viewBox="0 0 123 168" fill="none" xmlns="http://www.w3.org/2000/svg">
  <path d="M37.2042 61V59.9775L41.0442 55.774C41.4948 55.2817 41.866 54.8538 42.1575 54.4903C42.4491 54.1229 42.665 53.7783 42.8051 53.4564C42.949 53.1308 43.021 52.7899 43.021 52.434C43.021 52.025 42.9225 51.6709 42.7256 51.3717C42.5325 51.0726 42.2674 50.8416 41.9303 50.6787C41.5933 50.5159 41.2146 50.4345 40.7943 50.4345C40.3474 50.4345 39.9573 50.5272 39.6241 50.7128C39.2946 50.8946 39.039 51.1502 38.8572 51.4797C38.6793 51.8091 38.5903 52.1954 38.5903 52.6385H37.2497C37.2497 51.9568 37.4068 51.3585 37.7212 50.8435C38.0355 50.3284 38.4634 49.927 39.0049 49.6392C39.5502 49.3514 40.1618 49.2075 40.8397 49.2075C41.5213 49.2075 42.1254 49.3514 42.6517 49.6392C43.1781 49.927 43.5909 50.3152 43.8901 50.8037C44.1892 51.2922 44.3388 51.8356 44.3388 52.434C44.3388 52.8619 44.2612 53.2803 44.1059 53.6893C43.9544 54.0945 43.6894 54.5471 43.3107 55.0469C42.9358 55.543 42.4151 56.1489 41.7486 56.8647L39.1356 59.6594V59.7503H44.5433V61H37.2042ZM50.752 61.1591C50.2748 61.1515 49.7977 61.0606 49.3205 60.8864C48.8434 60.7122 48.4079 60.4187 48.014 60.0059C47.6202 59.5894 47.304 59.027 47.0654 58.3189C46.8268 57.6069 46.7075 56.7132 46.7075 55.6377C46.7075 54.6077 46.8041 53.695 46.9972 52.8998C47.1904 52.1007 47.4706 51.4285 47.8379 50.8832C48.2053 50.3341 48.6483 49.9176 49.1672 49.6335C49.6897 49.3495 50.2786 49.2075 50.9338 49.2075C51.5851 49.2075 52.1645 49.3382 52.672 49.5994C53.1832 49.857 53.5998 50.2167 53.9216 50.6787C54.2435 51.1407 54.4518 51.6728 54.5465 52.2749H53.1605C53.0317 51.7523 52.7818 51.3187 52.4107 50.9741C52.0395 50.6295 51.5472 50.4572 50.9338 50.4572C50.0325 50.4572 49.3224 50.8491 48.8036 51.633C48.2886 52.4169 48.0292 53.517 48.0254 54.9333H48.1163C48.3283 54.6114 48.5802 54.3369 48.8718 54.1097C49.1672 53.8787 49.4928 53.7007 49.8488 53.5757C50.2048 53.4508 50.5816 53.3883 50.9792 53.3883C51.6457 53.3883 52.2554 53.5549 52.8083 53.8881C53.3612 54.2176 53.8042 54.6739 54.1375 55.2571C54.4707 55.8365 54.6374 56.5011 54.6374 57.2509C54.6374 57.9705 54.4764 58.6294 54.1545 59.2277C53.8327 59.8223 53.3801 60.2956 52.7969 60.6478C52.2175 60.9962 51.5359 61.1666 50.752 61.1591ZM50.752 59.9094C51.2291 59.9094 51.6571 59.7901 52.0358 59.5515C52.4182 59.3129 52.7193 58.9929 52.9389 58.5915C53.1624 58.1901 53.2741 57.7432 53.2741 57.2509C53.2741 56.77 53.1662 56.3326 52.9503 55.9388C52.7382 55.5411 52.4447 55.2249 52.0698 54.9901C51.6987 54.7554 51.2746 54.638 50.7974 54.638C50.4377 54.638 50.1025 54.7099 49.792 54.8538C49.4815 54.9939 49.2088 55.1871 48.974 55.4332C48.743 55.6794 48.5612 55.9615 48.4287 56.2796C48.2962 56.5939 48.2299 56.9253 48.2299 57.2737C48.2299 57.7357 48.3378 58.1674 48.5537 58.5688C48.7733 58.9702 49.0725 59.294 49.4512 59.5401C49.8337 59.7863 50.2673 59.9094 50.752 59.9094Z" fill="black"/>
  <path d="M41.0669 162.879C40.5898 162.871 40.1126 162.78 39.6355 162.606C39.1583 162.432 38.7228 162.138 38.329 161.725C37.9351 161.309 37.6189 160.746 37.3803 160.038C37.1418 159.326 37.0225 158.433 37.0225 157.357C37.0225 156.327 37.119 155.414 37.3122 154.619C37.5053 153.82 37.7855 153.148 38.1529 152.603C38.5202 152.054 38.9633 151.637 39.4821 151.353C40.0047 151.069 40.5935 150.927 41.2487 150.927C41.9 150.927 42.4794 151.058 42.9869 151.319C43.4981 151.576 43.9147 151.936 44.2366 152.398C44.5585 152.86 44.7667 153.392 44.8614 153.994H43.4754C43.3466 153.472 43.0967 153.038 42.7256 152.694C42.3545 152.349 41.8622 152.177 41.2487 152.177C40.3474 152.177 39.6373 152.569 39.1185 153.353C38.6035 154.136 38.3441 155.237 38.3403 156.653H38.4312C38.6433 156.331 38.8951 156.056 39.1867 155.829C39.4821 155.598 39.8078 155.42 40.1637 155.295C40.5197 155.17 40.8965 155.108 41.2941 155.108C41.9606 155.108 42.5703 155.274 43.1232 155.608C43.6761 155.937 44.1192 156.393 44.4524 156.977C44.7857 157.556 44.9523 158.221 44.9523 158.97C44.9523 159.69 44.7914 160.349 44.4695 160.947C44.1476 161.542 43.695 162.015 43.1119 162.367C42.5325 162.716 41.8508 162.886 41.0669 162.879ZM41.0669 161.629C41.5441 161.629 41.972 161.51 42.3507 161.271C42.7332 161.032 43.0342 160.712 43.2539 160.311C43.4773 159.91 43.589 159.463 43.589 158.97C43.589 158.489 43.4811 158.052 43.2652 157.658C43.0532 157.261 42.7597 156.944 42.3848 156.71C42.0136 156.475 41.5895 156.357 41.1124 156.357C40.7526 156.357 40.4175 156.429 40.1069 156.573C39.7964 156.713 39.5237 156.907 39.2889 157.153C39.0579 157.399 38.8762 157.681 38.7436 157.999C38.6111 158.313 38.5448 158.645 38.5448 158.993C38.5448 159.455 38.6527 159.887 38.8686 160.288C39.0882 160.69 39.3874 161.013 39.7661 161.26C40.1486 161.506 40.5822 161.629 41.0669 161.629Z" fill="black"/>
  <path d="M44.2744 32.7045V31.6901L48.0841 27.5197C48.5312 27.0313 48.8994 26.6067 49.1887 26.2461C49.478 25.8816 49.6921 25.5397 49.8311 25.2204C49.9739 24.8973 50.0453 24.5591 50.0453 24.2059C50.0453 23.8002 49.9476 23.4489 49.7522 23.1521C49.5606 22.8553 49.2976 22.6261 48.9632 22.4645C48.6289 22.303 48.2531 22.2222 47.8361 22.2222C47.3928 22.2222 47.0058 22.3142 46.6752 22.4983C46.3483 22.6787 46.0947 22.9323 45.9143 23.2592C45.7377 23.586 45.6495 23.9692 45.6495 24.4088H44.3194C44.3194 23.7325 44.4754 23.1389 44.7872 22.628C45.099 22.117 45.5236 21.7187 46.0609 21.4332C46.6019 21.1477 47.2087 21.0049 47.8812 21.0049C48.5575 21.0049 49.1567 21.1477 49.679 21.4332C50.2012 21.7187 50.6107 22.1038 50.9075 22.5885C51.2044 23.0732 51.3528 23.6123 51.3528 24.2059C51.3528 24.6305 51.2757 25.0457 51.1217 25.4514C50.9714 25.8534 50.7084 26.3024 50.3327 26.7984C49.9607 27.2905 49.4441 27.8917 48.7829 28.6018L46.1905 31.3745V31.4647H51.5556V32.7045H44.2744Z" fill="black"/>
  <path d="M30.5036 32.7045V24.0482H31.7885V25.4007H31.9012C32.0816 24.9386 32.3728 24.5798 32.7748 24.3243C33.1768 24.0651 33.6596 23.9354 34.2231 23.9354C34.7942 23.9354 35.2695 24.0651 35.649 24.3243C36.0322 24.5798 36.3309 24.9386 36.545 25.4007H36.6352C36.8569 24.9536 37.1894 24.5986 37.6327 24.3356C38.0761 24.0688 38.6077 23.9354 39.2276 23.9354C40.0016 23.9354 40.6347 24.1778 41.1268 24.6624C41.619 25.1434 41.8651 25.8929 41.8651 26.9111V32.7045H40.5351V26.9111C40.5351 26.2724 40.3604 25.8159 40.011 25.5416C39.6616 25.2673 39.2502 25.1302 38.7768 25.1302C38.1681 25.1302 37.6966 25.3143 37.3622 25.6825C37.0278 26.0469 36.8606 26.5091 36.8606 27.0689V32.7045H35.5081V26.7758C35.5081 26.2836 35.3484 25.8873 35.029 25.5867C34.7097 25.2824 34.2983 25.1302 33.7948 25.1302C33.4492 25.1302 33.1261 25.2223 32.8255 25.4064C32.5287 25.5905 32.2882 25.8459 32.1041 26.1728C31.9238 26.4959 31.8336 26.8697 31.8336 27.2943V32.7045H30.5036Z" fill="black"/>
  <path d="M28.927 20.6217L25.2075 34.4403H23.9902L27.7097 20.6217H28.927Z" fill="black"/>
  <path d="M18.6701 36.131C18.0276 36.131 17.4753 36.0484 17.0132 35.8831C16.5511 35.7215 16.166 35.5074 15.8579 35.2406C15.5536 34.9776 15.3112 34.6958 15.1309 34.3953L16.1904 33.6513C16.3106 33.8091 16.4628 33.9895 16.6469 34.1924C16.831 34.399 17.0827 34.5775 17.4021 34.7278C17.7252 34.8818 18.1479 34.9588 18.6701 34.9588C19.3689 34.9588 19.9456 34.7897 20.4002 34.4516C20.8549 34.1135 21.0822 33.5837 21.0822 32.8623V31.104H20.9694C20.8718 31.2618 20.7327 31.4572 20.5524 31.6901C20.3758 31.9193 20.1203 32.1241 19.786 32.3044C19.4553 32.481 19.0082 32.5693 18.4447 32.5693C17.7458 32.5693 17.1184 32.404 16.5623 32.0734C16.0101 31.7427 15.5723 31.2618 15.2492 30.6306C14.9299 29.9994 14.7702 29.233 14.7702 28.3313C14.7702 27.4446 14.9261 26.6725 15.238 26.015C15.5498 25.3538 15.9838 24.8428 16.5398 24.4821C17.0959 24.1177 17.7383 23.9354 18.4672 23.9354C19.0308 23.9354 19.4779 24.0294 19.8085 24.2172C20.1429 24.4013 20.3984 24.6117 20.5749 24.8484C20.7553 25.0814 20.8943 25.273 20.992 25.4233H21.1272V24.0482H22.4122V32.9525C22.4122 33.6964 22.2431 34.3013 21.905 34.7672C21.5706 35.2368 21.1197 35.5806 20.5524 35.7985C19.9888 36.0202 19.3614 36.131 18.6701 36.131ZM18.625 31.3745C19.1585 31.3745 19.6094 31.2524 19.9776 31.0082C20.3458 30.764 20.6257 30.4127 20.8173 29.9543C21.0089 29.496 21.1047 28.9474 21.1047 28.3087C21.1047 27.685 21.0108 27.1346 20.8229 26.6575C20.6351 26.1803 20.357 25.8065 19.9888 25.536C19.6206 25.2655 19.166 25.1302 18.625 25.1302C18.0614 25.1302 17.5918 25.273 17.2161 25.5585C16.8441 25.8441 16.5642 26.2273 16.3764 26.7082C16.1923 27.1891 16.1002 27.7226 16.1002 28.3087C16.1002 28.9099 16.1941 29.4415 16.382 29.9036C16.5736 30.362 16.8554 30.7227 17.2274 30.9857C17.6031 31.2449 18.069 31.3745 18.625 31.3745Z" fill="black"/>
  <path d="M1.38269 32.7045V24.0482H2.66762V25.4007H2.78034C2.96068 24.9386 3.25186 24.5798 3.65387 24.3243C4.05588 24.0651 4.53867 23.9354 5.10224 23.9354C5.67332 23.9354 6.14859 24.0651 6.52806 24.3243C6.91129 24.5798 7.20998 24.9386 7.42413 25.4007H7.5143C7.73597 24.9536 8.06848 24.5986 8.51182 24.3356C8.95516 24.0688 9.48679 23.9354 10.1067 23.9354C10.8807 23.9354 11.5138 24.1778 12.0059 24.6624C12.4981 25.1434 12.7442 25.8929 12.7442 26.9111V32.7045H11.4142V26.9111C11.4142 26.2724 11.2395 25.8159 10.8901 25.5416C10.5407 25.2673 10.1293 25.1302 9.65586 25.1302C9.04721 25.1302 8.57569 25.3143 8.24131 25.6825C7.90692 26.0469 7.73973 26.5091 7.73973 27.0689V32.7045H6.38717V26.7758C6.38717 26.2836 6.22749 25.8873 5.90814 25.5867C5.58878 25.2824 5.17738 25.1302 4.67392 25.1302C4.32827 25.1302 4.00516 25.2223 3.70459 25.4064C3.40778 25.5905 3.16732 25.8459 2.98322 26.1728C2.80288 26.4959 2.71271 26.8697 2.71271 27.2943V32.7045H1.38269Z" fill="black"/>
  <path d="M122.167 11.9148L122.071 12.6115C122.007 13.1229 121.899 13.6555 121.745 14.2095C121.596 14.7678 121.441 15.2855 121.279 15.7628C121.121 16.2401 120.991 16.6193 120.889 16.9006H119.534C119.589 16.6364 119.666 16.2784 119.764 15.8267C119.862 15.3793 119.958 14.8785 120.051 14.3246C120.145 13.7706 120.215 13.206 120.262 12.6307L120.326 11.9148H122.167Z" fill="black"/>
  <path d="M113.348 13.9027C112.38 13.9027 111.547 13.696 110.848 13.2827C110.154 12.8651 109.617 12.2791 109.238 11.5249C108.863 10.7663 108.675 9.87784 108.675 8.85937C108.675 7.85369 108.863 6.96733 109.238 6.20028C109.617 5.43324 110.145 4.83452 110.823 4.40412C111.505 3.97372 112.302 3.75852 113.213 3.75852C113.767 3.75852 114.304 3.85014 114.824 4.03338C115.344 4.21662 115.811 4.50426 116.224 4.89631C116.637 5.28835 116.963 5.79759 117.202 6.42401C117.441 7.04616 117.56 7.80256 117.56 8.69318V9.37074H109.755V7.93892H115.687C115.687 7.43608 115.585 6.99077 115.38 6.60298C115.176 6.21094 114.888 5.90199 114.517 5.67614C114.151 5.45028 113.721 5.33736 113.226 5.33736C112.689 5.33736 112.221 5.46946 111.82 5.73366C111.424 5.99361 111.117 6.33452 110.9 6.75639C110.686 7.17401 110.58 7.62784 110.58 8.1179V9.23651C110.58 9.89276 110.695 10.451 110.925 10.9112C111.159 11.3714 111.485 11.723 111.903 11.9659C112.321 12.2045 112.809 12.3239 113.367 12.3239C113.729 12.3239 114.059 12.2727 114.358 12.1705C114.656 12.0639 114.914 11.9062 115.131 11.6974C115.348 11.4886 115.515 11.2308 115.63 10.924L117.439 11.25C117.294 11.7827 117.034 12.2493 116.659 12.6499C116.288 13.0462 115.821 13.3551 115.259 13.5767C114.701 13.794 114.064 13.9027 113.348 13.9027Z" fill="black"/>
  <path d="M101.524 13.8963C100.731 13.8963 100.024 13.6939 99.4019 13.2891C98.784 12.88 98.2982 12.2983 97.9445 11.544C97.5951 10.7855 97.4203 9.87571 97.4203 8.81463C97.4203 7.75355 97.5972 6.84588 97.9509 6.09162C98.3088 5.33736 98.7989 4.75995 99.4211 4.35938C100.043 3.95881 100.748 3.75853 101.537 3.75853C102.146 3.75853 102.636 3.8608 103.007 4.06534C103.382 4.26563 103.672 4.5 103.876 4.76847C104.085 5.03694 104.247 5.27344 104.362 5.47799H104.477V0.61364H106.388V13.7045H104.522V12.1769H104.362C104.247 12.3857 104.081 12.6243 103.864 12.8928C103.65 13.1612 103.356 13.3956 102.981 13.5959C102.606 13.7962 102.121 13.8963 101.524 13.8963ZM101.946 12.2663C102.496 12.2663 102.96 12.1215 103.339 11.8317C103.723 11.5376 104.013 11.1307 104.209 10.6108C104.409 10.0909 104.509 9.4858 104.509 8.79546C104.509 8.11364 104.411 7.51705 104.215 7.00569C104.019 6.49432 103.731 6.09588 103.352 5.81037C102.973 5.52486 102.504 5.38211 101.946 5.38211C101.371 5.38211 100.891 5.53125 100.508 5.82955C100.124 6.12784 99.8344 6.5348 99.6384 7.05043C99.4466 7.56605 99.3507 8.14773 99.3507 8.79546C99.3507 9.45171 99.4488 10.0419 99.6448 10.5661C99.8408 11.0902 100.131 11.5057 100.514 11.8125C100.902 12.1151 101.379 12.2663 101.946 12.2663Z" fill="black"/>
  <path d="M93.3662 13.7045V3.88637H95.2774V13.7045H93.3662ZM94.3314 2.37145C93.999 2.37145 93.7135 2.26066 93.4749 2.03907C93.2405 1.81321 93.1233 1.54475 93.1233 1.23367C93.1233 0.918328 93.2405 0.649862 93.4749 0.428271C93.7135 0.202419 93.999 0.0894928 94.3314 0.0894928C94.6638 0.0894928 94.9472 0.202419 95.1815 0.428271C95.4202 0.649862 95.5395 0.918328 95.5395 1.23367C95.5395 1.54475 95.4202 1.81321 95.1815 2.03907C94.9472 2.26066 94.6638 2.37145 94.3314 2.37145Z" fill="black"/>
  <path d="M84.9606 3.88637L87.1275 7.70881L89.3136 3.88637H91.4038L88.342 8.79546L91.4294 13.7045H89.3392L87.1275 10.0355L84.9223 13.7045H82.8257L85.8811 8.79546L82.864 3.88637H84.9606Z" fill="black"/>
  <path d="M77.1288 13.9027C76.2083 13.9027 75.405 13.6918 74.719 13.2699C74.0329 12.848 73.5002 12.2578 73.121 11.4993C72.7417 10.7408 72.5521 9.8544 72.5521 8.8402C72.5521 7.82173 72.7417 6.93111 73.121 6.16832C73.5002 5.40554 74.0329 4.81321 74.719 4.39133C75.405 3.96946 76.2083 3.75852 77.1288 3.75852C78.0492 3.75852 78.8525 3.96946 79.5386 4.39133C80.2246 4.81321 80.7573 5.40554 81.1366 6.16832C81.5158 6.93111 81.7055 7.82173 81.7055 8.8402C81.7055 9.8544 81.5158 10.7408 81.1366 11.4993C80.7573 12.2578 80.2246 12.848 79.5386 13.2699C78.8525 13.6918 78.0492 13.9027 77.1288 13.9027ZM77.1352 12.2983C77.7318 12.2983 78.2261 12.1406 78.6181 11.8253C79.0102 11.5099 79.2999 11.0902 79.4874 10.5661C79.6792 10.0419 79.7751 9.46449 79.7751 8.83381C79.7751 8.20739 79.6792 7.6321 79.4874 7.10795C79.2999 6.57955 79.0102 6.15554 78.6181 5.83594C78.2261 5.51633 77.7318 5.35653 77.1352 5.35653C76.5343 5.35653 76.0357 5.51633 75.6394 5.83594C75.2474 6.15554 74.9555 6.57955 74.7637 7.10795C74.5762 7.6321 74.4825 8.20739 74.4825 8.83381C74.4825 9.46449 74.5762 10.0419 74.7637 10.5661C74.9555 11.0902 75.2474 11.5099 75.6394 11.8253C76.0357 12.1406 76.5343 12.2983 77.1352 12.2983Z" fill="black"/>
  <path d="M68.5107 13.7045V3.88637H70.4219V13.7045H68.5107ZM69.4759 2.37145C69.1435 2.37145 68.858 2.26066 68.6194 2.03907C68.385 1.81321 68.2678 1.54475 68.2678 1.23367C68.2678 0.918328 68.385 0.649862 68.6194 0.428271C68.858 0.202419 69.1435 0.0894928 69.4759 0.0894928C69.8083 0.0894928 70.0917 0.202419 70.3261 0.428271C70.5647 0.649862 70.684 0.918328 70.684 1.23367C70.684 1.54475 70.5647 1.81321 70.3261 2.03907C70.0917 2.26066 69.8083 2.37145 69.4759 2.37145Z" fill="black"/>
  <path d="M60.9186 13.8963C60.126 13.8963 59.4186 13.6939 58.7964 13.2891C58.1785 12.88 57.6927 12.2983 57.339 11.544C56.9896 10.7855 56.8149 9.87571 56.8149 8.81463C56.8149 7.75355 56.9917 6.84588 57.3454 6.09162C57.7034 5.33736 58.1934 4.75995 58.8156 4.35938C59.4377 3.95881 60.143 3.75853 60.9314 3.75853C61.5407 3.75853 62.0308 3.8608 62.4015 4.06534C62.7765 4.26563 63.0663 4.5 63.2708 4.76847C63.4797 5.03694 63.6416 5.27344 63.7566 5.47799H63.8717V0.61364H65.7829V13.7045H63.9164V12.1769H63.7566C63.6416 12.3857 63.4754 12.6243 63.2581 12.8928C63.045 13.1612 62.751 13.3956 62.376 13.5959C62.001 13.7962 61.5152 13.8963 60.9186 13.8963ZM61.3405 12.2663C61.8902 12.2663 62.3547 12.1215 62.7339 11.8317C63.1174 11.5376 63.4072 11.1307 63.6032 10.6108C63.8035 10.0909 63.9037 9.4858 63.9037 8.79546C63.9037 8.11364 63.8056 7.51705 63.6096 7.00569C63.4136 6.49432 63.126 6.09588 62.7467 5.81037C62.3674 5.52486 61.8987 5.38211 61.3405 5.38211C60.7652 5.38211 60.2858 5.53125 59.9022 5.82955C59.5187 6.12784 59.2289 6.5348 59.0329 7.05043C58.8412 7.56605 58.7453 8.14773 58.7453 8.79546C58.7453 9.45171 58.8433 10.0419 59.0393 10.5661C59.2353 11.0902 59.5251 11.5057 59.9086 11.8125C60.2964 12.1151 60.7737 12.2663 61.3405 12.2663Z" fill="black"/>
  <path d="M45.5712 13.7045V3.88637H47.4185V5.44603H47.5208C47.6998 4.91762 48.0151 4.50213 48.4668 4.19958C48.9228 3.89276 49.4384 3.73935 50.0137 3.73935C50.133 3.73935 50.2736 3.74361 50.4356 3.75213C50.6018 3.76066 50.7317 3.77131 50.8255 3.78409V5.61222C50.7488 5.59091 50.6124 5.56747 50.4164 5.54191C50.2204 5.51208 50.0244 5.49716 49.8283 5.49716C49.3766 5.49716 48.9739 5.59304 48.6202 5.7848C48.2708 5.9723 47.9938 6.23438 47.7893 6.57103C47.5847 6.90341 47.4824 7.28267 47.4824 7.70881V13.7045H45.5712Z" fill="black"/>
  <path d="M41.0856 9.63282V3.88637H43.0032V13.7045H41.124V12.0043H41.0217C40.7958 12.5284 40.4336 12.9652 39.935 13.3146C39.4407 13.6598 38.825 13.8324 38.0877 13.8324C37.4571 13.8324 36.8988 13.6939 36.413 13.4169C35.9315 13.1357 35.5522 12.7202 35.2752 12.1705C35.0025 11.6207 34.8661 10.9411 34.8661 10.1314V3.88637H36.7774V9.90128C36.7774 10.5703 36.9627 11.103 37.3335 11.4993C37.7042 11.8956 38.1858 12.0938 38.7781 12.0938C39.136 12.0938 39.4919 12.0043 39.8456 11.8253C40.2035 11.6463 40.4997 11.3757 40.734 11.0135C40.9727 10.6513 41.0899 10.1911 41.0856 9.63282Z" fill="black"/>
  <path d="M32.8942 3.88636V5.42046H27.3459V3.88636H32.8942ZM28.8673 13.7045V2.74858C28.8673 2.13494 29.0015 1.62571 29.27 1.22088C29.5384 0.81179 29.8942 0.507103 30.3374 0.306819C30.7806 0.102273 31.2621 0 31.782 0C32.1656 0 32.4937 0.0319605 32.7664 0.0958815C33.0391 0.15554 33.2415 0.210938 33.3736 0.262074L32.9262 1.80895C32.8367 1.78338 32.7217 1.75355 32.581 1.71946C32.4404 1.68111 32.27 1.66193 32.0697 1.66193C31.6052 1.66193 31.2728 1.77699 31.0725 2.0071C30.8765 2.23722 30.7785 2.5696 30.7785 3.00426V13.7045H28.8673Z" fill="black"/>
  <path d="M25.6504 0.61364V13.7045H23.7392V0.61364H25.6504Z" fill="black"/>
  <path d="M19.2536 9.63282V3.88637H21.1712V13.7045H19.2919V12.0043H19.1897C18.9638 12.5284 18.6016 12.9652 18.103 13.3146C17.6087 13.6598 16.9929 13.8324 16.2557 13.8324C15.625 13.8324 15.0668 13.6939 14.581 13.4169C14.0995 13.1357 13.7202 12.7202 13.4432 12.1705C13.1705 11.6207 13.0341 10.9411 13.0341 10.1314V3.88637H14.9453V9.90128C14.9453 10.5703 15.1307 11.103 15.5014 11.4993C15.8722 11.8956 16.3537 12.0938 16.9461 12.0938C17.304 12.0938 17.6598 12.0043 18.0135 11.8253C18.3715 11.6463 18.6676 11.3757 18.902 11.0135C19.1407 10.6513 19.2578 10.1911 19.2536 9.63282Z" fill="black"/>
  <path d="M8.74349 4.05256C8.6753 3.44745 8.39405 2.9787 7.89974 2.64631C7.40542 2.30966 6.78326 2.14134 6.03326 2.14134C5.49633 2.14134 5.03184 2.22657 4.63979 2.39702C4.24775 2.56321 3.94306 2.79333 3.72573 3.08736C3.51266 3.37713 3.40613 3.70739 3.40613 4.07813C3.40613 4.38921 3.47857 4.65767 3.62346 4.88353C3.77261 5.10938 3.9665 5.29901 4.20513 5.45242C4.44803 5.60157 4.70797 5.72728 4.98496 5.82955C5.26195 5.92756 5.52829 6.00853 5.78397 6.07245L7.06238 6.40483C7.47999 6.50711 7.90826 6.6456 8.34718 6.82032C8.7861 6.99503 9.19306 7.22514 9.56806 7.51066C9.94306 7.79617 10.2456 8.14986 10.4757 8.57174C10.7101 8.99361 10.8273 9.49858 10.8273 10.0867C10.8273 10.8281 10.6355 11.4865 10.252 12.0618C9.87275 12.6371 9.3209 13.0909 8.59647 13.4233C7.8763 13.7557 7.00485 13.9219 5.98212 13.9219C5.00201 13.9219 4.154 13.7663 3.43809 13.4553C2.72218 13.1442 2.16181 12.7031 1.75698 12.1321C1.35215 11.5568 1.12843 10.875 1.08582 10.0867H3.06735C3.1057 10.5597 3.25911 10.9538 3.52758 11.2692C3.8003 11.5803 4.14761 11.8125 4.56948 11.9659C4.99562 12.1151 5.46224 12.1896 5.96934 12.1896C6.52758 12.1896 7.02403 12.1023 7.45868 11.9276C7.89761 11.7486 8.24278 11.5014 8.4942 11.1861C8.74562 10.8665 8.87133 10.4936 8.87133 10.0675C8.87133 9.67969 8.76053 9.36222 8.53894 9.11506C8.32161 8.8679 8.02545 8.66336 7.65045 8.50142C7.27971 8.33949 6.85996 8.19674 6.39121 8.07316L4.84434 7.65128C3.79604 7.36577 2.96508 6.94603 2.35144 6.39205C1.74207 5.83807 1.43738 5.10512 1.43738 4.19318C1.43738 3.43892 1.64192 2.78054 2.05101 2.21804C2.46011 1.65554 3.01408 1.21875 3.71295 0.907674C4.41181 0.592333 5.20016 0.434662 6.078 0.434662C6.96437 0.434662 7.74633 0.590202 8.42388 0.901281C9.1057 1.21236 9.64263 1.64063 10.0347 2.18608C10.4267 2.72728 10.6313 3.34943 10.6483 4.05256H8.74349Z" fill="black"/>
  <g opacity="0.8">
    <path d="M26.3934 46.8112H0.159973V167.421H26.3934V46.8112Z" fill="url(#paint0_linear_0_1)"/>
    <path fill-rule="evenodd" clip-rule="evenodd" d="M0 46.6512H26.5533V167.581H0V46.6512ZM0.31992 46.9711V167.261H26.2334V46.9711H0.31992Z" fill="black"/>
  </g>
  <defs>
    <linearGradient id="paint0_linear_0_1" x1="-231.462" y1="167.936" x2="-231.462" y2="47.0191" gradientUnits="userSpaceOnUse">
      <stop stop-color="#000004" stop-opacity="0"/>
      <stop offset="0.0192308" stop-color="#550E71" stop-opacity="0.0705882"/>
      <stop offset="0.0384615" stop-color="#570D6B" stop-opacity="0.14902"/>
      <stop offset="0.0576923" stop-color="#580D6E" stop-opacity="0.227451"/>
      <stop offset="0.0769231" stop-color="#560D6D" stop-opacity="0.301961"/>
      <stop offset="0.0961538" stop-color="#570D6E" stop-opacity="0.380392"/>
      <stop offset="0.115385" stop-color="#570D6D" stop-opacity="0.458824"/>
      <stop offset="0.134615" stop-color="#560F6D" stop-opacity="0.533333"/>
      <stop offset="0.153846" stop-color="#570F6E" stop-opacity="0.611765"/>
      <stop offset="0.173077" stop-color="#570E6E" stop-opacity="0.690196"/>
      <stop offset="0.192308" stop-color="#560E6E" stop-opacity="0.764706"/>
      <stop offset="0.211538" stop-color="#570E6D" stop-opacity="0.843137"/>
      <stop offset="0.230769" stop-color="#570E6E" stop-opacity="0.921569"/>
      <stop offset="0.25" stop-color="#570F6E"/>
      <stop offset="0.269231" stop-color="#5E116C"/>
      <stop offset="0.288462" stop-color="#66156A"/>
      <stop offset="0.307692" stop-color="#6E1868"/>
      <stop offset="0.326923" stop-color="#751B66"/>
      <stop offset="0.346154" stop-color="#7D1E64"/>
      <stop offset="0.365385" stop-color="#852162"/>
      <stop offset="0.384615" stop-color="#8C2460"/>
      <stop offset="0.403846" stop-color="#94275E"/>
      <stop offset="0.423077" stop-color="#9C2A5C"/>
      <stop offset="0.442308" stop-color="#A32D5A"/>
      <stop offset="0.461538" stop-color="#AB3058"/>
      <stop offset="0.480769" stop-color="#B33356"/>
      <stop offset="0.5" stop-color="#BB3755"/>
      <stop offset="0.519231" stop-color="#BF3D4F"/>
      <stop offset="0.538462" stop-color="#C44449"/>
      <stop offset="0.557692" stop-color="#C94A43"/>
      <stop offset="0.576923" stop-color="#CD513E"/>
      <stop offset="0.596154" stop-color="#D25738"/>
      <stop offset="0.615385" stop-color="#D75E32"/>
      <stop offset="0.634615" stop-color="#DC652C"/>
      <stop offset="0.653846" stop-color="#E16B27"/>
      <stop offset="0.673077" stop-color="#E57221"/>
      <stop offset="0.692308" stop-color="#EA781B"/>
      <stop offset="0.711538" stop-color="#EF7F15"/>
      <stop offset="0.730769" stop-color="#F4860F"/>
      <stop offset="0.75" stop-color="#F98D0A"/>
      <stop offset="0.769231" stop-color="#F99515"/>
      <stop offset="0.788462" stop-color="#F99E21"/>
      <stop offset="0.807692" stop-color="#F9A72D"/>
      <stop offset="0.826923" stop-color="#F9AF38"/>
      <stop offset="0.846154" stop-color="#FAB844"/>
      <stop offset="0.865385" stop-color="#FAC150"/>
      <stop offset="0.884615" stop-color="#FACA5C"/>
      <stop offset="0.903846" stop-color="#FAD268"/>
      <stop offset="0.923077" stop-color="#FBDB74"/>
      <stop offset="0.942308" stop-color="#FBE47F"/>
      <stop offset="0.961538" stop-color="#FBED8B"/>
      <stop offset="0.980769" stop-color="#FBF697"/>
      <stop offset="1" stop-color="#FCFFA4"/>
    </linearGradient>
  </defs>
</svg>