<svg width="146" height="167" viewBox="0 0 146 167" fill="none" xmlns="http://www.w3.org/2000/svg">
  <path d="M39.9306 61.1591C39.1505 61.1591 38.4613 61.0208 37.8629 60.7444C37.2684 60.4641 36.8045 60.0798 36.4712 59.5913C36.138 59.099 35.9732 58.5385 35.977 57.9099C35.9732 57.4176 36.0698 56.9631 36.2667 56.5466C36.4636 56.1262 36.7325 55.7759 37.0733 55.4957C37.418 55.2117 37.8023 55.0318 38.2265 54.9561V54.8879C37.6698 54.744 37.2267 54.4316 36.8973 53.9506C36.5678 53.4659 36.405 52.9149 36.4087 52.2976C36.405 51.7069 36.5545 51.1786 36.8575 50.7128C37.1604 50.247 37.577 49.8797 38.1072 49.6108C38.6411 49.3419 39.2489 49.2075 39.9306 49.2075C40.6047 49.2075 41.2068 49.3419 41.7369 49.6108C42.2671 49.8797 42.6837 50.247 42.9866 50.7128C43.2934 51.1786 43.4486 51.7069 43.4524 52.2976C43.4486 52.9149 43.2801 53.4659 42.9469 53.9506C42.6174 54.4316 42.18 54.744 41.6347 54.8879V54.9561C42.055 55.0318 42.4337 55.2117 42.7708 55.4957C43.1078 55.7759 43.3767 56.1262 43.5774 56.5466C43.7781 56.9631 43.8803 57.4176 43.8841 57.9099C43.8803 58.5385 43.7099 59.099 43.3729 59.5913C43.0397 60.0798 42.5758 60.4641 41.9812 60.7444C41.3904 61.0208 40.7069 61.1591 39.9306 61.1591ZM39.9306 59.9094C40.457 59.9094 40.9114 59.8242 41.2939 59.6537C41.6764 59.4833 41.9717 59.2429 42.18 58.9323C42.3883 58.6218 42.4943 58.2583 42.4981 57.8417C42.4943 57.4024 42.3807 57.0143 42.1573 56.6772C41.9339 56.3402 41.629 56.0751 41.2428 55.882C40.8603 55.6888 40.4229 55.5923 39.9306 55.5923C39.4345 55.5923 38.9914 55.6888 38.6014 55.882C38.2151 56.0751 37.9103 56.3402 37.6868 56.6772C37.4672 57.0143 37.3593 57.4024 37.363 57.8417C37.3593 58.2583 37.4596 58.6218 37.6641 58.9323C37.8724 59.2429 38.1697 59.4833 38.5559 59.6537C38.9422 59.8242 39.4004 59.9094 39.9306 59.9094ZM39.9306 54.388C40.3471 54.388 40.7164 54.3047 41.0383 54.1381C41.3639 53.9715 41.6196 53.7386 41.8051 53.4394C41.9907 53.1402 42.0853 52.7899 42.0891 52.3885C42.0853 51.9947 41.9926 51.652 41.8108 51.3604C41.629 51.065 41.3772 50.8378 41.0553 50.6787C40.7334 50.5159 40.3585 50.4345 39.9306 50.4345C39.4951 50.4345 39.1145 50.5159 38.7888 50.6787C38.4631 50.8378 38.2113 51.065 38.0333 51.3604C37.8553 51.652 37.7682 51.9947 37.772 52.3885C37.7682 52.7899 37.8572 53.1402 38.039 53.4394C38.2246 53.7386 38.4802 53.9715 38.8059 54.1381C39.1315 54.3047 39.5064 54.388 39.9306 54.388ZM47.7241 59.4095L47.6332 60.023C47.5688 60.4547 47.4704 60.9167 47.3378 61.409C47.2091 61.9013 47.0746 62.3652 46.9345 62.8007C46.7944 63.2362 46.6789 63.5827 46.588 63.8402H45.5655C45.6148 63.5978 45.6791 63.2778 45.7587 62.8802C45.8382 62.4826 45.9177 62.0376 45.9972 61.5453C46.0806 61.0568 46.1487 60.5569 46.2017 60.0457L46.2699 59.4095H47.7241ZM53.5862 61.1591C52.9197 61.1591 52.3195 61.0265 51.7856 60.7614C51.2516 60.4963 50.8237 60.1328 50.5018 59.6708C50.1799 59.2088 50.0038 58.6824 49.9735 58.0916H51.3368C51.3898 58.618 51.6284 59.0535 52.0525 59.3981C52.4805 59.739 52.9917 59.9094 53.5862 59.9094C54.0634 59.9094 54.4875 59.7976 54.8587 59.5742C55.2336 59.3508 55.5271 59.0441 55.7391 58.654C55.955 58.2602 56.0629 57.8152 56.0629 57.3191C56.0629 56.8117 55.9512 56.3591 55.7278 55.9615C55.5081 55.5601 55.2052 55.2439 54.8189 55.0129C54.4326 54.7819 53.9915 54.6645 53.4954 54.6607C53.1394 54.6569 52.774 54.7118 52.399 54.8254C52.0241 54.9352 51.7155 55.0772 51.4731 55.2514L50.1553 55.0924L50.8597 49.3666H56.9036V50.6162H52.0412L51.6322 54.0472H51.7004C51.9389 53.8579 52.2381 53.7007 52.5979 53.5757C52.9576 53.4508 53.3325 53.3883 53.7226 53.3883C54.4345 53.3883 55.0688 53.5587 55.6255 53.8995C56.186 54.2365 56.6253 54.6985 56.9434 55.2855C57.2653 55.8725 57.4262 56.5428 57.4262 57.2964C57.4262 58.0386 57.2596 58.7013 56.9263 59.2845C56.5969 59.8639 56.1424 60.3221 55.563 60.6592C54.9836 60.9924 54.3247 61.1591 53.5862 61.1591Z" fill="black"/>
  <path d="M35.9316 160.334V159.175L41.0439 151.086H41.8846V152.881H41.3166L37.4539 158.993V159.084H44.3386V160.334H35.9316ZM41.4075 162.719V159.982V159.442V151.086H42.7481V162.719H41.4075ZM47.9428 161.129L47.8519 161.742C47.7875 162.174 47.6891 162.636 47.5565 163.128C47.4278 163.621 47.2933 164.085 47.1532 164.52C47.0131 164.956 46.8976 165.302 46.8067 165.56H45.7842C45.8335 165.317 45.8978 164.997 45.9774 164.6C46.0569 164.202 46.1364 163.757 46.2159 163.265C46.2993 162.776 46.3674 162.276 46.4204 161.765L46.4886 161.129H47.9428ZM53.8049 162.879C53.1384 162.879 52.5382 162.746 52.0043 162.481C51.4703 162.216 51.0424 161.852 50.7205 161.39C50.3986 160.928 50.2225 160.402 50.1922 159.811H51.5555C51.6085 160.338 51.8471 160.773 52.2712 161.118C52.6992 161.458 53.2104 161.629 53.8049 161.629C54.2821 161.629 54.7062 161.517 55.0774 161.294C55.4523 161.07 55.7457 160.764 55.9578 160.373C56.1737 159.98 56.2816 159.535 56.2816 159.039C56.2816 158.531 56.1699 158.079 55.9465 157.681C55.7268 157.28 55.4239 156.963 55.0376 156.732C54.6513 156.501 54.2101 156.384 53.7141 156.38C53.3581 156.376 52.9926 156.431 52.6177 156.545C52.2428 156.655 51.9342 156.797 51.6918 156.971L50.374 156.812L51.0784 151.086H57.1223V152.336H52.2599L51.8509 155.767H51.9191C52.1576 155.577 52.4568 155.42 52.8166 155.295C53.1763 155.17 53.5512 155.108 53.9413 155.108C54.6532 155.108 55.2875 155.278 55.8442 155.619C56.4047 155.956 56.844 156.418 57.1621 157.005C57.4839 157.592 57.6449 158.262 57.6449 159.016C57.6449 159.758 57.4783 160.421 57.145 161.004C56.8156 161.583 56.3611 162.042 55.7817 162.379C55.2023 162.712 54.5434 162.879 53.8049 162.879Z" fill="black"/>
  <path d="M44.388 32.6151V31.6006L48.1977 27.4302C48.6448 26.9418 49.013 26.5173 49.3023 26.1566C49.5916 25.7921 49.8058 25.4502 49.9448 25.1309C50.0875 24.8078 50.1589 24.4696 50.1589 24.1165C50.1589 23.7107 50.0612 23.3594 49.8659 23.0626C49.6743 22.7658 49.4113 22.5366 49.0769 22.375C48.7425 22.2135 48.3668 22.1327 47.9497 22.1327C47.5064 22.1327 47.1194 22.2248 46.7888 22.4089C46.4619 22.5892 46.2083 22.8428 46.028 23.1697C45.8514 23.4965 45.7631 23.8798 45.7631 24.3194H44.4331C44.4331 23.6431 44.589 23.0494 44.9008 22.5385C45.2127 22.0275 45.6372 21.6293 46.1745 21.3437C46.7155 21.0582 47.3223 20.9154 47.9948 20.9154C48.6711 20.9154 49.2704 21.0582 49.7926 21.3437C50.3149 21.6293 50.7244 22.0144 51.0212 22.499C51.318 22.9837 51.4664 23.5228 51.4664 24.1165C51.4664 24.541 51.3894 24.9562 51.2353 25.362C51.0851 25.764 50.8221 26.2129 50.4464 26.7089C50.0744 27.2011 49.5578 27.8022 48.8965 28.5123L46.3041 31.285V31.3752H51.6693V32.6151H44.388Z" fill="black"/>
  <path d="M30.6172 32.6151V23.9587H31.9022V25.3112H32.0149C32.1952 24.8491 32.4864 24.4903 32.8884 24.2348C33.2904 23.9756 33.7732 23.8459 34.3368 23.8459C34.9078 23.8459 35.3831 23.9756 35.7626 24.2348C36.1458 24.4903 36.4445 24.8491 36.6587 25.3112H36.7488C36.9705 24.8641 37.303 24.5091 37.7463 24.2461C38.1897 23.9793 38.7213 23.8459 39.3412 23.8459C40.1152 23.8459 40.7483 24.0883 41.2405 24.5729C41.7326 25.0539 41.9787 25.8034 41.9787 26.8216V32.6151H40.6487V26.8216C40.6487 26.1829 40.474 25.7264 40.1246 25.4521C39.7752 25.1778 39.3638 25.0407 38.8904 25.0407C38.2817 25.0407 37.8102 25.2248 37.4758 25.593C37.1415 25.9574 36.9743 26.4196 36.9743 26.9794V32.6151H35.6217V26.6863C35.6217 26.1941 35.462 25.7978 35.1427 25.4972C34.8233 25.1929 34.4119 25.0407 33.9085 25.0407C33.5628 25.0407 33.2397 25.1328 32.9391 25.3169C32.6423 25.501 32.4018 25.7564 32.2177 26.0833C32.0374 26.4064 31.9472 26.7803 31.9472 27.2048V32.6151H30.6172Z" fill="black"/>
  <path d="M29.0406 20.5322L25.3211 34.3508H24.1038L27.8233 20.5322H29.0406Z" fill="black"/>
  <path d="M18.7837 36.0415C18.1412 36.0415 17.5889 35.9589 17.1268 35.7936C16.6647 35.632 16.2796 35.4179 15.9715 35.1511C15.6672 34.8881 15.4248 34.6063 15.2445 34.3058L16.304 33.5618C16.4242 33.7196 16.5764 33.9 16.7605 34.1029C16.9446 34.3095 17.1963 34.488 17.5157 34.6383C17.8388 34.7923 18.2615 34.8693 18.7837 34.8693C19.4825 34.8693 20.0592 34.7003 20.5139 34.3621C20.9685 34.024 21.1958 33.4942 21.1958 32.7729V31.0145H21.0831C20.9854 31.1723 20.8464 31.3677 20.666 31.6006C20.4894 31.8298 20.234 32.0346 19.8996 32.2149C19.5689 32.3915 19.1218 32.4798 18.5583 32.4798C17.8595 32.4798 17.232 32.3145 16.676 31.9839C16.1237 31.6532 15.686 31.1723 15.3629 30.5411C15.0435 29.9099 14.8838 29.1435 14.8838 28.2418C14.8838 27.3551 15.0397 26.583 15.3516 25.9255C15.6634 25.2643 16.0974 24.7533 16.6534 24.3926C17.2095 24.0282 17.8519 23.8459 18.5808 23.8459C19.1444 23.8459 19.5915 23.9399 19.9221 24.1277C20.2565 24.3118 20.512 24.5222 20.6886 24.7589C20.8689 24.9919 21.0079 25.1835 21.1056 25.3338H21.2409V23.9587H22.5258V32.863C22.5258 33.6069 22.3567 34.2118 22.0186 34.6777C21.6842 35.1474 21.2333 35.4911 20.666 35.709C20.1025 35.9307 19.475 36.0415 18.7837 36.0415ZM18.7386 31.285C19.2721 31.285 19.723 31.1629 20.0912 30.9187C20.4594 30.6745 20.7393 30.3232 20.9309 29.8648C21.1225 29.4065 21.2183 28.8579 21.2183 28.2192C21.2183 27.5955 21.1244 27.0451 20.9365 26.568C20.7487 26.0908 20.4707 25.717 20.1025 25.4465C19.7343 25.176 19.2796 25.0407 18.7386 25.0407C18.1751 25.0407 17.7054 25.1835 17.3297 25.469C16.9577 25.7546 16.6778 26.1378 16.49 26.6187C16.3059 27.0996 16.2138 27.6331 16.2138 28.2192C16.2138 28.8204 16.3078 29.352 16.4956 29.8141C16.6872 30.2725 16.969 30.6332 17.341 30.8962C17.7167 31.1554 18.1826 31.285 18.7386 31.285Z" fill="black"/>
  <path d="M1.49628 32.6151V23.9587H2.78121V25.3112H2.89392C3.07427 24.8491 3.36544 24.4903 3.76745 24.2348C4.16947 23.9756 4.65226 23.8459 5.21582 23.8459C5.7869 23.8459 6.26218 23.9756 6.64165 24.2348C7.02487 24.4903 7.32356 24.8491 7.53772 25.3112H7.62789C7.84956 24.8641 8.18207 24.5091 8.62541 24.2461C9.06875 23.9793 9.60038 23.8459 10.2203 23.8459C10.9943 23.8459 11.6273 24.0883 12.1195 24.5729C12.6117 25.0539 12.8578 25.8034 12.8578 26.8216V32.6151H11.5278V26.8216C11.5278 26.1829 11.3531 25.7264 11.0037 25.4521C10.6542 25.1778 10.2428 25.0407 9.76945 25.0407C9.16079 25.0407 8.68928 25.2248 8.35489 25.593C8.02051 25.9574 7.85332 26.4196 7.85332 26.9794V32.6151H6.50076V26.6863C6.50076 26.1941 6.34108 25.7978 6.02172 25.4972C5.70237 25.1929 5.29096 25.0407 4.78751 25.0407C4.44186 25.0407 4.11874 25.1328 3.81817 25.3169C3.52136 25.501 3.28091 25.7564 3.09681 26.0833C2.91647 26.4064 2.8263 26.7803 2.8263 27.2048V32.6151H1.49628Z" fill="black"/>
  <path d="M145.712 11.8253L145.617 12.522C145.553 13.0334 145.444 13.566 145.291 14.12C145.141 14.6782 144.986 15.196 144.824 15.6733C144.666 16.1505 144.536 16.5298 144.434 16.8111H143.079C143.134 16.5468 143.211 16.1889 143.309 15.7372C143.407 15.2897 143.503 14.789 143.597 14.2351C143.69 13.6811 143.761 13.1164 143.808 12.5412L143.871 11.8253H145.712Z" fill="black"/>
  <path d="M136.893 13.8132C135.926 13.8132 135.093 13.6065 134.394 13.1932C133.699 12.7755 133.162 12.1896 132.783 11.4353C132.408 10.6768 132.22 9.78832 132.22 8.76986C132.22 7.76418 132.408 6.87781 132.783 6.11077C133.162 5.34372 133.691 4.745 134.368 4.3146C135.05 3.88421 135.847 3.66901 136.759 3.66901C137.313 3.66901 137.85 3.76063 138.37 3.94386C138.889 4.1271 139.356 4.41474 139.769 4.80679C140.183 5.19884 140.509 5.70807 140.747 6.33449C140.986 6.95665 141.105 7.71304 141.105 8.60367V9.28122H133.301V7.8494H139.232C139.232 7.34656 139.13 6.90125 138.926 6.51347C138.721 6.12142 138.433 5.81247 138.063 5.58662C137.696 5.36077 137.266 5.24784 136.772 5.24784C136.235 5.24784 135.766 5.37994 135.365 5.64415C134.969 5.90409 134.662 6.245 134.445 6.66688C134.232 7.08449 134.125 7.53832 134.125 8.02838V9.14699C134.125 9.80324 134.24 10.3615 134.47 10.8217C134.705 11.2819 135.031 11.6335 135.448 11.8764C135.866 12.115 136.354 12.2343 136.912 12.2343C137.274 12.2343 137.605 12.1832 137.903 12.0809C138.201 11.9744 138.459 11.8167 138.676 11.6079C138.894 11.3991 139.06 11.1413 139.175 10.8345L140.984 11.1605C140.839 11.6932 140.579 12.1598 140.204 12.5603C139.833 12.9566 139.367 13.2656 138.804 13.4872C138.246 13.7045 137.609 13.8132 136.893 13.8132Z" fill="black"/>
  <path d="M125.069 13.8068C124.277 13.8068 123.569 13.6044 122.947 13.1996C122.329 12.7905 121.843 12.2088 121.49 11.4546C121.14 10.696 120.966 9.78624 120.966 8.72516C120.966 7.66408 121.142 6.75641 121.496 6.00215C121.854 5.24789 122.344 4.67048 122.966 4.26991C123.588 3.86934 124.294 3.66906 125.082 3.66906C125.691 3.66906 126.181 3.77133 126.552 3.97587C126.927 4.17616 127.217 4.41053 127.422 4.679C127.63 4.94747 127.792 5.18397 127.907 5.38852H128.022V0.52417H129.934V13.6151H128.067V12.0874H127.907C127.792 12.2962 127.626 12.5348 127.409 12.8033C127.196 13.0718 126.902 13.3061 126.527 13.5064C126.152 13.7067 125.666 13.8068 125.069 13.8068ZM125.491 12.1769C126.041 12.1769 126.505 12.032 126.885 11.7422C127.268 11.4482 127.558 11.0412 127.754 10.5213C127.954 10.0014 128.054 9.39633 128.054 8.70599C128.054 8.02417 127.956 7.42758 127.76 6.91622C127.564 6.40485 127.277 6.00641 126.897 5.7209C126.518 5.43539 126.049 5.29264 125.491 5.29264C124.916 5.29264 124.436 5.44178 124.053 5.74008C123.669 6.03837 123.38 6.44533 123.184 6.96096C122.992 7.47658 122.896 8.05826 122.896 8.70599C122.896 9.36224 122.994 9.95244 123.19 10.4766C123.386 11.0007 123.676 11.4162 124.059 11.723C124.447 12.0256 124.924 12.1769 125.491 12.1769Z" fill="black"/>
  <path d="M116.911 13.6151V3.79688H118.823V13.6151H116.911ZM117.877 2.28196C117.544 2.28196 117.259 2.17116 117.02 1.94957C116.786 1.72372 116.669 1.45526 116.669 1.14418C116.669 0.828835 116.786 0.560369 117.02 0.338778C117.259 0.112926 117.544 0 117.877 0C118.209 0 118.492 0.112926 118.727 0.338778C118.965 0.560369 119.085 0.828835 119.085 1.14418C119.085 1.45526 118.965 1.72372 118.727 1.94957C118.492 2.17116 118.209 2.28196 117.877 2.28196Z" fill="black"/>
  <path d="M108.506 3.79688L110.673 7.61932L112.859 3.79688H114.949L111.887 8.70597L114.975 13.6151H112.884L110.673 9.94602L108.468 13.6151H106.371L109.426 8.70597L106.409 3.79688H108.506Z" fill="black"/>
  <path d="M100.674 13.8132C99.7536 13.8132 98.9503 13.6022 98.2642 13.1804C97.5781 12.7585 97.0455 12.1683 96.6662 11.4098C96.287 10.6513 96.0973 9.76489 96.0973 8.75068C96.0973 7.73222 96.287 6.84159 96.6662 6.07881C97.0455 5.31602 97.5781 4.72369 98.2642 4.30182C98.9503 3.87994 99.7536 3.66901 100.674 3.66901C101.594 3.66901 102.398 3.87994 103.084 4.30182C103.77 4.72369 104.303 5.31602 104.682 6.07881C105.061 6.84159 105.251 7.73222 105.251 8.75068C105.251 9.76489 105.061 10.6513 104.682 11.4098C104.303 12.1683 103.77 12.7585 103.084 13.1804C102.398 13.6022 101.594 13.8132 100.674 13.8132ZM100.68 12.2088C101.277 12.2088 101.771 12.0511 102.163 11.7358C102.555 11.4204 102.845 11.0007 103.033 10.4765C103.224 9.95239 103.32 9.37497 103.32 8.74429C103.32 8.11787 103.224 7.54259 103.033 7.01844C102.845 6.49003 102.555 6.06602 102.163 5.74642C101.771 5.42682 101.277 5.26702 100.68 5.26702C100.08 5.26702 99.581 5.42682 99.1847 5.74642C98.7926 6.06602 98.5007 6.49003 98.309 7.01844C98.1215 7.54259 98.0277 8.11787 98.0277 8.74429C98.0277 9.37497 98.1215 9.95239 98.309 10.4765C98.5007 11.0007 98.7926 11.4204 99.1847 11.7358C99.581 12.0511 100.08 12.2088 100.68 12.2088Z" fill="black"/>
  <path d="M92.0559 13.6151V3.79688H93.9672V13.6151H92.0559ZM93.0211 2.28196C92.6888 2.28196 92.4032 2.17116 92.1646 1.94957C91.9302 1.72372 91.813 1.45526 91.813 1.14418C91.813 0.828835 91.9302 0.560369 92.1646 0.338778C92.4032 0.112926 92.6888 0 93.0211 0C93.3535 0 93.6369 0.112926 93.8713 0.338778C94.1099 0.560369 94.2292 0.828835 94.2292 1.14418C94.2292 1.45526 94.1099 1.72372 93.8713 1.94957C93.6369 2.17116 93.3535 2.28196 93.0211 2.28196Z" fill="black"/>
  <path d="M84.4638 13.8068C83.6712 13.8068 82.9638 13.6044 82.3416 13.1996C81.7237 12.7905 81.2379 12.2088 80.8843 11.4546C80.5348 10.696 80.3601 9.78624 80.3601 8.72516C80.3601 7.66408 80.537 6.75641 80.8906 6.00215C81.2486 5.24789 81.7387 4.67048 82.3608 4.26991C82.983 3.86934 83.6882 3.66906 84.4766 3.66906C85.086 3.66906 85.576 3.77133 85.9468 3.97587C86.3218 4.17616 86.6115 4.41053 86.8161 4.679C87.0249 4.94747 87.1868 5.18397 87.3019 5.38852H87.4169V0.52417H89.3281V13.6151H87.4617V12.0874H87.3019C87.1868 12.2962 87.0206 12.5348 86.8033 12.8033C86.5902 13.0718 86.2962 13.3061 85.9212 13.5064C85.5462 13.7067 85.0604 13.8068 84.4638 13.8068ZM84.8857 12.1769C85.4354 12.1769 85.8999 12.032 86.2791 11.7422C86.6627 11.4482 86.9524 11.0412 87.1485 10.5213C87.3487 10.0014 87.4489 9.39633 87.4489 8.70599C87.4489 8.02417 87.3509 7.42758 87.1548 6.91622C86.9588 6.40485 86.6712 6.00641 86.2919 5.7209C85.9127 5.43539 85.4439 5.29264 84.8857 5.29264C84.3104 5.29264 83.831 5.44178 83.4475 5.74008C83.0639 6.03837 82.7742 6.44533 82.5781 6.96096C82.3864 7.47658 82.2905 8.05826 82.2905 8.70599C82.2905 9.36224 82.3885 9.95244 82.5845 10.4766C82.7806 11.0007 83.0703 11.4162 83.4539 11.723C83.8416 12.0256 84.3189 12.1769 84.8857 12.1769Z" fill="black"/>
  <path d="M67.1781 7.78548V13.615H65.2669V3.79685H67.1014V5.39486H67.2229C67.4487 4.87497 67.8024 4.45736 68.284 4.14202C68.7698 3.82668 69.3813 3.66901 70.1185 3.66901C70.7875 3.66901 71.3734 3.80963 71.8763 4.09088C72.3791 4.36787 72.769 4.78122 73.046 5.33094C73.323 5.88065 73.4615 6.56034 73.4615 7.37V13.615H71.5503V7.60011C71.5503 6.88847 71.3649 6.33236 70.9942 5.93179C70.6234 5.52696 70.1142 5.32455 69.4665 5.32455C69.0233 5.32455 68.6291 5.42043 68.284 5.61219C67.943 5.80395 67.6725 6.0852 67.4722 6.45594C67.2761 6.82242 67.1781 7.2656 67.1781 7.78548Z" fill="black"/>
  <path d="M58.934 13.8132C57.9666 13.8132 57.1335 13.6065 56.4347 13.1932C55.7401 12.7755 55.2031 12.1896 54.8239 11.4353C54.4489 10.6768 54.2614 9.78832 54.2614 8.76986C54.2614 7.76418 54.4489 6.87781 54.8239 6.11077C55.2031 5.34372 55.7316 4.745 56.4091 4.3146C57.0909 3.88421 57.8878 3.66901 58.7997 3.66901C59.3537 3.66901 59.8906 3.76063 60.4105 3.94386C60.9304 4.1271 61.397 4.41474 61.8104 4.80679C62.2237 5.19884 62.5497 5.70807 62.7884 6.33449C63.027 6.95665 63.1463 7.71304 63.1463 8.60367V9.28122H55.3416V7.8494H61.2735C61.2735 7.34656 61.1712 6.90125 60.9666 6.51347C60.7621 6.12142 60.4745 5.81247 60.1037 5.58662C59.7372 5.36077 59.3068 5.24784 58.8125 5.24784C58.2756 5.24784 57.8068 5.37994 57.4063 5.64415C57.01 5.90409 56.7031 6.245 56.4858 6.66688C56.2727 7.08449 56.1662 7.53832 56.1662 8.02838V9.14699C56.1662 9.80324 56.2813 10.3615 56.5114 10.8217C56.7458 11.2819 57.0718 11.6335 57.4894 11.8764C57.907 12.115 58.3949 12.2343 58.9531 12.2343C59.3154 12.2343 59.6456 12.1832 59.9439 12.0809C60.2422 11.9744 60.5 11.8167 60.7174 11.6079C60.9347 11.3991 61.1009 11.1413 61.2159 10.8345L63.0249 11.1605C62.88 11.6932 62.62 12.1598 62.245 12.5603C61.8743 12.9566 61.4077 13.2656 60.8452 13.4872C60.287 13.7045 59.6499 13.8132 58.934 13.8132Z" fill="black"/>
  <path d="M47.7095 17.5014C46.9297 17.5014 46.2585 17.3991 45.696 17.1946C45.1378 16.99 44.6818 16.7194 44.3281 16.3828C43.9745 16.0461 43.7102 15.6775 43.5355 15.277L45.1783 14.5994C45.2933 14.7869 45.4468 14.9851 45.6385 15.1939C45.8345 15.4069 46.0987 15.588 46.4311 15.7372C46.7678 15.8863 47.2003 15.9609 47.7287 15.9609C48.4531 15.9609 49.0519 15.7841 49.5249 15.4304C49.9979 15.0809 50.2344 14.5227 50.2344 13.7557V11.8253H50.1129C49.9979 12.0341 49.8317 12.2663 49.6144 12.522C49.4013 12.7777 49.1073 12.9993 48.7323 13.1868C48.3573 13.3743 47.8693 13.468 47.2685 13.468C46.4929 13.468 45.7941 13.2869 45.1719 12.9247C44.554 12.5582 44.0639 12.0191 43.7017 11.3075C43.3438 10.5916 43.1648 9.71162 43.1648 8.66759C43.1648 7.62355 43.3416 6.72867 43.6953 5.98293C44.0533 5.23719 44.5433 4.66617 45.1655 4.26986C45.7877 3.86929 46.4929 3.66901 47.2813 3.66901C47.8906 3.66901 48.3828 3.77128 48.7578 3.97582C49.1328 4.17611 49.4247 4.41048 49.6335 4.67895C49.8466 4.94742 50.0107 5.18392 50.1257 5.38847H50.2664V3.79685H52.1392V13.8324C52.1392 14.6761 51.9432 15.3686 51.5512 15.9098C51.1591 16.451 50.6286 16.8515 49.9595 17.1115C49.2948 17.3714 48.5448 17.5014 47.7095 17.5014ZM47.6904 11.8828C48.2401 11.8828 48.7046 11.7549 49.0838 11.4993C49.4674 11.2393 49.7571 10.8686 49.9531 10.387C50.1534 9.90125 50.2536 9.31958 50.2536 8.64202C50.2536 7.98151 50.1556 7.39983 49.9595 6.89699C49.7635 6.39415 49.4759 6.0021 49.0966 5.72085C48.7174 5.43534 48.2486 5.29259 47.6904 5.29259C47.1151 5.29259 46.6357 5.44173 46.2522 5.74003C45.8686 6.03406 45.5789 6.43463 45.3828 6.94173C45.1911 7.44884 45.0952 8.0156 45.0952 8.64202C45.0952 9.28548 45.1932 9.85011 45.3892 10.3359C45.5853 10.8217 45.875 11.201 46.2585 11.4737C46.6463 11.7464 47.1236 11.8828 47.6904 11.8828Z" fill="black"/>
  <path d="M36.883 13.8132C35.9626 13.8132 35.1593 13.6022 34.4732 13.1804C33.7871 12.7585 33.2545 12.1683 32.8752 11.4098C32.4959 10.6513 32.3063 9.76489 32.3063 8.75068C32.3063 7.73222 32.4959 6.84159 32.8752 6.07881C33.2545 5.31602 33.7871 4.72369 34.4732 4.30182C35.1593 3.87994 35.9626 3.66901 36.883 3.66901C37.8035 3.66901 38.6067 3.87994 39.2928 4.30182C39.9789 4.72369 40.5116 5.31602 40.8908 6.07881C41.2701 6.84159 41.4597 7.73222 41.4597 8.75068C41.4597 9.76489 41.2701 10.6513 40.8908 11.4098C40.5116 12.1683 39.9789 12.7585 39.2928 13.1804C38.6067 13.6022 37.8035 13.8132 36.883 13.8132ZM36.8894 12.2088C37.486 12.2088 37.9803 12.0511 38.3724 11.7358C38.7644 11.4204 39.0542 11.0007 39.2417 10.4765C39.4334 9.95239 39.5293 9.37497 39.5293 8.74429C39.5293 8.11787 39.4334 7.54259 39.2417 7.01844C39.0542 6.49003 38.7644 6.06602 38.3724 5.74642C37.9803 5.42682 37.486 5.26702 36.8894 5.26702C36.2885 5.26702 35.79 5.42682 35.3937 5.74642C35.0016 6.06602 34.7097 6.49003 34.518 7.01844C34.3305 7.54259 34.2367 8.11787 34.2367 8.74429C34.2367 9.37497 34.3305 9.95239 34.518 10.4765C34.7097 11.0007 35.0016 11.4204 35.3937 11.7358C35.79 12.0511 36.2885 12.2088 36.8894 12.2088Z" fill="black"/>
  <path d="M26.1907 13.615V3.79686H28.038V5.35652H28.1403C28.3193 4.82811 28.6346 4.41263 29.0863 4.11007C29.5423 3.80325 30.0579 3.64984 30.6332 3.64984C30.7525 3.64984 30.8932 3.6541 31.0551 3.66263C31.2213 3.67115 31.3512 3.6818 31.445 3.69459V5.52271C31.3683 5.5014 31.2319 5.47797 31.0359 5.4524C30.8399 5.42257 30.6439 5.40765 30.4478 5.40765C29.9961 5.40765 29.5934 5.50353 29.2397 5.6953C28.8903 5.8828 28.6133 6.14487 28.4088 6.48152C28.2042 6.8139 28.102 7.19317 28.102 7.6193V13.615H26.1907Z" fill="black"/>
  <path d="M24.0765 3.79685V5.33094H18.7136V3.79685H24.0765ZM20.1518 1.44458H22.0631V10.7322C22.0631 11.103 22.1185 11.3821 22.2292 11.5696C22.34 11.7528 22.4828 11.8785 22.6575 11.9467C22.8365 12.0106 23.0304 12.0426 23.2392 12.0426C23.3926 12.0426 23.5268 12.0319 23.6419 12.0106C23.7569 11.9893 23.8464 11.9723 23.9104 11.9595L24.2555 13.5383C24.1447 13.5809 23.9871 13.6236 23.7825 13.6662C23.578 13.713 23.3223 13.7386 23.0155 13.7429C22.5126 13.7514 22.0439 13.6619 21.6092 13.4744C21.1746 13.2869 20.823 12.9971 20.5545 12.6051C20.2861 12.213 20.1518 11.7209 20.1518 11.1285V1.44458Z" fill="black"/>
  <path d="M15.011 13.6151V3.79688H16.9222V13.6151H15.011ZM15.9762 2.28196C15.6438 2.28196 15.3583 2.17116 15.1197 1.94957C14.8853 1.72372 14.7681 1.45526 14.7681 1.14418C14.7681 0.828835 14.8853 0.560369 15.1197 0.338778C15.3583 0.112926 15.6438 0 15.9762 0C16.3086 0 16.592 0.112926 16.8264 0.338778C17.065 0.560369 17.1843 0.828835 17.1843 1.14418C17.1843 1.45526 17.065 1.72372 16.8264 1.94957C16.592 2.17116 16.3086 2.28196 15.9762 2.28196Z" fill="black"/>
  <path d="M12.2832 0.52417V13.6151H10.4679L3.81378 4.01423H3.69234V13.6151H1.71719V0.52417H3.54532L10.2058 10.1378H10.3273V0.52417H12.2832Z" fill="black"/>
  <path d="M26.3934 45.9013H0.159973V166.511H26.3934V45.9013Z" fill="url(#paint0_linear_0_1)"/>
  <path fill-rule="evenodd" clip-rule="evenodd" d="M0 45.7413H26.5533V166.671H0V45.7413ZM0.31992 46.0613V166.351H26.2334V46.0613H0.31992Z" fill="black"/>
  <defs>
    <linearGradient id="paint0_linear_0_1" x1="-428.213" y1="166.846" x2="-428.213" y2="45.9314" gradientUnits="userSpaceOnUse">
      <stop stop-color="#440154"/>
      <stop offset="0.25" stop-color="#3B528B"/>
      <stop offset="0.5" stop-color="#21908D"/>
      <stop offset="0.75" stop-color="#5DC962"/>
      <stop offset="1" stop-color="#FDE725"/>
    </linearGradient>
  </defs>
</svg>