<svg width="132" height="166" viewBox="0 0 132 166" fill="none" xmlns="http://www.w3.org/2000/svg">
  <path d="M35.5678 59L40.771 48.7071V48.6162H34.7725V47.3666H42.2252V48.6844L37.0447 59H35.5678ZM47.8346 59.1591C47.0545 59.1591 46.3653 59.0208 45.7669 58.7444C45.1724 58.4641 44.7085 58.0798 44.3752 57.5913C44.042 57.099 43.8773 56.5385 43.881 55.9099C43.8773 55.4176 43.9738 54.9631 44.1707 54.5466C44.3677 54.1262 44.6365 53.7759 44.9774 53.4957C45.322 53.2117 45.7063 53.0318 46.1305 52.9561V52.8879C45.5738 52.744 45.1307 52.4316 44.8013 51.9506C44.4718 51.4659 44.309 50.9149 44.3128 50.2976C44.309 49.7069 44.4586 49.1786 44.7615 48.7128C45.0645 48.247 45.481 47.8797 46.0112 47.6108C46.5452 47.3419 47.153 47.2075 47.8346 47.2075C48.5087 47.2075 49.1108 47.3419 49.641 47.6108C50.1711 47.8797 50.5877 48.247 50.8907 48.7128C51.1974 49.1786 51.3527 49.7069 51.3564 50.2976C51.3527 50.9149 51.1841 51.4659 50.8509 51.9506C50.5214 52.4316 50.084 52.744 49.5387 52.8879V52.9561C49.9591 53.0318 50.3378 53.2117 50.6748 53.4957C51.0118 53.7759 51.2807 54.1262 51.4814 54.5466C51.6821 54.9631 51.7844 55.4176 51.7882 55.9099C51.7844 56.5385 51.614 57.099 51.2769 57.5913C50.9437 58.0798 50.4798 58.4641 49.8852 58.7444C49.2945 59.0208 48.6109 59.1591 47.8346 59.1591ZM47.8346 57.9094C48.361 57.9094 48.8154 57.8242 49.1979 57.6537C49.5804 57.4833 49.8758 57.2429 50.084 56.9323C50.2923 56.6218 50.3984 56.2583 50.4021 55.8417C50.3984 55.4024 50.2847 55.0143 50.0613 54.6772C49.8379 54.3402 49.533 54.0751 49.1468 53.882C48.7643 53.6888 48.3269 53.5923 47.8346 53.5923C47.3385 53.5923 46.8954 53.6888 46.5054 53.882C46.1191 54.0751 45.8143 54.3402 45.5908 54.6772C45.3712 55.0143 45.2633 55.4024 45.2671 55.8417C45.2633 56.2583 45.3636 56.6218 45.5681 56.9323C45.7764 57.2429 46.0737 57.4833 46.4599 57.6537C46.8462 57.8242 47.3044 57.9094 47.8346 57.9094ZM47.8346 52.388C48.2512 52.388 48.6204 52.3047 48.9423 52.1381C49.268 51.9715 49.5236 51.7386 49.7091 51.4394C49.8947 51.1402 49.9894 50.7899 49.9931 50.3885C49.9894 49.9947 49.8966 49.652 49.7148 49.3604C49.533 49.065 49.2812 48.8378 48.9593 48.6787C48.6374 48.5159 48.2625 48.4345 47.8346 48.4345C47.3991 48.4345 47.0185 48.5159 46.6928 48.6787C46.3672 48.8378 46.1153 49.065 45.9373 49.3604C45.7594 49.652 45.6723 49.9947 45.676 50.3885C45.6723 50.7899 45.7613 51.1402 45.943 51.4394C46.1286 51.7386 46.3842 51.9715 46.7099 52.1381C47.0356 52.3047 47.4105 52.388 47.8346 52.388ZM57.6006 59.1591C56.9341 59.1591 56.3339 59.0265 55.7999 58.7614C55.266 58.4963 54.8381 58.1328 54.5162 57.6708C54.1943 57.2088 54.0182 56.6824 53.9879 56.0916H55.3512C55.4042 56.618 55.6428 57.0535 56.0669 57.3981C56.4948 57.739 57.0061 57.9094 57.6006 57.9094C58.0778 57.9094 58.5019 57.7976 58.873 57.5742C59.2479 57.3508 59.5414 57.0441 59.7535 56.654C59.9693 56.2602 60.0773 55.8152 60.0773 55.3191C60.0773 54.8117 59.9656 54.3591 59.7421 53.9615C59.5225 53.5601 59.2195 53.2439 58.8333 53.0129C58.447 52.7819 58.0058 52.6645 57.5097 52.6607C57.1538 52.6569 56.7883 52.7118 56.4134 52.8254C56.0385 52.9352 55.7299 53.0772 55.4875 53.2514L54.1697 53.0924L54.874 47.3666H60.918V48.6162H56.0556L55.6466 52.0472H55.7147C55.9533 51.8579 56.2525 51.7007 56.6122 51.5757C56.972 51.4508 57.3469 51.3883 57.7369 51.3883C58.4489 51.3883 59.0832 51.5587 59.6399 51.8995C60.2003 52.2365 60.6396 52.6985 60.9577 53.2855C61.2796 53.8725 61.4406 54.5428 61.4406 55.2964C61.4406 56.0386 61.2739 56.7013 60.9407 57.2845C60.6112 57.8639 60.1568 58.3221 59.5774 58.6592C58.998 58.9924 58.3391 59.1591 57.6006 59.1591Z" fill="black"/>
  <path d="M38.9987 160.879C38.1429 160.879 37.4139 160.646 36.8118 160.18C36.2097 159.71 35.7496 159.031 35.4315 158.141C35.1134 157.247 34.9543 156.168 34.9543 154.903C34.9543 153.645 35.1134 152.572 35.4315 151.682C35.7533 150.788 36.2154 150.107 36.8175 149.637C37.4234 149.164 38.1505 148.927 38.9987 148.927C39.847 148.927 40.5722 149.164 41.1743 149.637C41.7802 150.107 42.2423 150.788 42.5604 151.682C42.8822 152.572 43.0432 153.645 43.0432 154.903C43.0432 156.168 42.8841 157.247 42.566 158.141C42.2479 159.031 41.7878 159.71 41.1857 160.18C40.5836 160.646 39.8546 160.879 38.9987 160.879ZM38.9987 159.629C39.847 159.629 40.5059 159.22 40.9755 158.402C41.4451 157.584 41.6799 156.418 41.6799 154.903C41.6799 153.895 41.572 153.038 41.3561 152.33C41.144 151.621 40.8373 151.082 40.4359 150.711C40.0383 150.34 39.5592 150.154 38.9987 150.154C38.158 150.154 37.501 150.569 37.0277 151.398C36.5543 152.224 36.3176 153.392 36.3176 154.903C36.3176 155.91 36.4236 156.766 36.6357 157.47C36.8478 158.175 37.1526 158.711 37.5502 159.078C37.9517 159.445 38.4345 159.629 38.9987 159.629Z" fill="black"/>
  <path d="M128.351 32.7954C127.517 32.7954 126.797 32.6113 126.193 32.2431C125.591 31.8711 125.127 31.3527 124.801 30.6877C124.477 30.0189 124.316 29.2412 124.316 28.3545C124.316 27.4678 124.477 26.6863 124.801 26.01C125.127 25.33 125.582 24.8003 126.164 24.4208C126.751 24.0376 127.434 23.8459 128.216 23.8459C128.667 23.8459 129.112 23.9211 129.551 24.0714C129.991 24.2217 130.391 24.4659 130.752 24.804C131.113 25.1384 131.4 25.5817 131.614 26.134C131.828 26.6863 131.935 27.3664 131.935 28.1741V28.7377H125.263V27.588H130.583C130.583 27.0996 130.485 26.6638 130.29 26.2806C130.098 25.8973 129.824 25.5949 129.467 25.3732C129.114 25.1515 128.697 25.0407 128.216 25.0407C127.686 25.0407 127.228 25.1722 126.841 25.4352C126.457 25.6944 126.163 26.0326 125.956 26.4496C125.749 26.8667 125.646 27.3138 125.646 27.7909V28.5574C125.646 29.2111 125.759 29.7653 125.984 30.2199C126.213 30.6708 126.531 31.0145 126.937 31.2512C127.342 31.4842 127.814 31.6006 128.351 31.6006C128.7 31.6006 129.016 31.5518 129.298 31.4541C129.583 31.3527 129.829 31.2024 130.036 31.0033C130.243 30.8004 130.402 30.5486 130.515 30.2481L131.8 30.6088C131.665 31.0446 131.438 31.4278 131.118 31.7584C130.799 32.0853 130.404 32.3408 129.935 32.5249C129.465 32.7052 128.937 32.7954 128.351 32.7954Z" fill="black"/>
  <path d="M122.286 21.0732V32.615H120.956V21.0732H122.286Z" fill="black"/>
  <path d="M111.285 35.8612V23.9587H112.57V25.3338H112.728C112.825 25.1835 112.961 24.9919 113.133 24.7589C113.31 24.5222 113.562 24.3118 113.889 24.1277C114.219 23.9399 114.666 23.8459 115.23 23.8459C115.959 23.8459 116.601 24.0282 117.157 24.3926C117.713 24.757 118.147 25.2737 118.459 25.9424C118.771 26.6112 118.927 27.4002 118.927 28.3094C118.927 29.2261 118.771 30.0208 118.459 30.6933C118.147 31.3621 117.715 31.8805 117.163 32.2487C116.611 32.6132 115.974 32.7954 115.252 32.7954C114.696 32.7954 114.251 32.7034 113.917 32.5193C113.582 32.3314 113.325 32.1191 113.145 31.8824C112.964 31.642 112.825 31.4428 112.728 31.285H112.615V35.8612H111.285ZM112.592 28.2869C112.592 28.9406 112.688 29.5173 112.88 30.017C113.071 30.513 113.351 30.9018 113.719 31.1836C114.088 31.4616 114.539 31.6006 115.072 31.6006C115.628 31.6006 116.092 31.4541 116.464 31.1611C116.84 30.8642 117.122 30.466 117.309 29.9663C117.501 29.4628 117.597 28.903 117.597 28.2869C117.597 27.6782 117.503 27.1297 117.315 26.6412C117.131 26.1491 116.851 25.7602 116.475 25.4747C116.103 25.1854 115.636 25.0407 115.072 25.0407C114.531 25.0407 114.076 25.1778 113.708 25.4521C113.34 25.7226 113.062 26.1021 112.874 26.5905C112.686 27.0752 112.592 27.6406 112.592 28.2869Z" fill="black"/>
  <path d="M105.332 32.7954C104.551 32.7954 103.865 32.6094 103.275 32.2375C102.689 31.8655 102.231 31.3452 101.9 30.6764C101.573 30.0076 101.41 29.2261 101.41 28.3319C101.41 27.4302 101.573 26.6431 101.9 25.9706C102.231 25.2981 102.689 24.7758 103.275 24.4039C103.865 24.0319 104.551 23.8459 105.332 23.8459C106.114 23.8459 106.797 24.0319 107.384 24.4039C107.973 24.7758 108.432 25.2981 108.759 25.9706C109.089 26.6431 109.255 27.4302 109.255 28.3319C109.255 29.2261 109.089 30.0076 108.759 30.6764C108.432 31.3452 107.973 31.8655 107.384 32.2375C106.797 32.6094 106.114 32.7954 105.332 32.7954ZM105.332 31.6006C105.926 31.6006 106.414 31.4485 106.797 31.1441C107.181 30.8398 107.464 30.4397 107.648 29.9437C107.833 29.4478 107.925 28.9105 107.925 28.3319C107.925 27.7533 107.833 27.2142 107.648 26.7145C107.464 26.2148 107.181 25.8109 106.797 25.5028C106.414 25.1948 105.926 25.0407 105.332 25.0407C104.739 25.0407 104.25 25.1948 103.867 25.5028C103.484 25.8109 103.2 26.2148 103.016 26.7145C102.832 27.2142 102.74 27.7533 102.74 28.3319C102.74 28.9105 102.832 29.4478 103.016 29.9437C103.2 30.4397 103.484 30.8398 103.867 31.1441C104.25 31.4485 104.739 31.6006 105.332 31.6006Z" fill="black"/>
  <path d="M96.208 32.7954C95.3739 32.7954 94.6544 32.6113 94.0495 32.2431C93.4484 31.8711 92.9844 31.3527 92.6575 30.6877C92.3344 30.0189 92.1729 29.2412 92.1729 28.3545C92.1729 27.4678 92.3344 26.6863 92.6575 26.01C92.9844 25.33 93.439 24.8003 94.0214 24.4208C94.6075 24.0376 95.2913 23.8459 96.0727 23.8459C96.5236 23.8459 96.9688 23.9211 97.4084 24.0714C97.848 24.2217 98.2481 24.4659 98.6088 24.804C98.9695 25.1384 99.2569 25.5817 99.471 26.134C99.6852 26.6863 99.7923 27.3664 99.7923 28.1741V28.7377H93.1196V27.588H98.4397C98.4397 27.0996 98.342 26.6638 98.1467 26.2806C97.9551 25.8973 97.6808 25.5949 97.3239 25.3732C96.9707 25.1515 96.5536 25.0407 96.0727 25.0407C95.543 25.0407 95.0846 25.1722 94.6976 25.4352C94.3144 25.6944 94.0195 26.0326 93.8128 26.4496C93.6062 26.8667 93.5029 27.3138 93.5029 27.7909V28.5574C93.5029 29.2111 93.6156 29.7653 93.841 30.2199C94.0702 30.6708 94.3877 31.0145 94.7934 31.2512C95.1992 31.4842 95.6707 31.6006 96.208 31.6006C96.5574 31.6006 96.873 31.5518 97.1548 31.4541C97.4403 31.3527 97.6864 31.2024 97.8931 31.0033C98.0997 30.8004 98.2594 30.5486 98.3721 30.2481L99.657 30.6088C99.5218 31.0446 99.2945 31.4278 98.9751 31.7584C98.6558 32.0853 98.2613 32.3408 97.7916 32.5249C97.322 32.7052 96.7941 32.7954 96.208 32.7954Z" fill="black"/>
  <path d="M82.9078 35.8612V23.9587H84.1928V25.3338H84.3506C84.4483 25.1835 84.5835 24.9919 84.7563 24.7589C84.9329 24.5222 85.1846 24.3118 85.5115 24.1277C85.8421 23.9399 86.2892 23.8459 86.8528 23.8459C87.5817 23.8459 88.2242 24.0282 88.7802 24.3926C89.3363 24.757 89.7702 25.2737 90.082 25.9424C90.3939 26.6112 90.5498 27.4002 90.5498 28.3094C90.5498 29.2261 90.3939 30.0208 90.082 30.6933C89.7702 31.3621 89.3381 31.8805 88.7858 32.2487C88.2335 32.6132 87.5967 32.7954 86.8754 32.7954C86.3193 32.7954 85.8741 32.7034 85.5397 32.5193C85.2053 32.3314 84.948 32.1191 84.7676 31.8824C84.5873 31.642 84.4483 31.4428 84.3506 31.285H84.2379V35.8612H82.9078ZM84.2153 28.2869C84.2153 28.9406 84.3111 29.5173 84.5027 30.017C84.6943 30.513 84.9742 30.9018 85.3424 31.1836C85.7106 31.4616 86.1615 31.6006 86.695 31.6006C87.2511 31.6006 87.7151 31.4541 88.087 31.1611C88.4627 30.8642 88.7445 30.466 88.9324 29.9663C89.124 29.4628 89.2198 28.903 89.2198 28.2869C89.2198 27.6782 89.1259 27.1297 88.938 26.6412C88.7539 26.1491 88.474 25.7602 88.0983 25.4747C87.7263 25.1854 87.2586 25.0407 86.695 25.0407C86.154 25.0407 85.6994 25.1778 85.3312 25.4521C84.963 25.7226 84.6849 26.1021 84.4971 26.5905C84.3092 27.0752 84.2153 27.6406 84.2153 28.2869Z" fill="black"/>
  <path d="M76.5804 23.9587V25.0858H71.9141V23.9587H76.5804ZM73.3117 32.6151V22.7639C73.3117 22.268 73.4282 21.8547 73.6611 21.524C73.8941 21.1934 74.1965 20.9454 74.5685 20.7801C74.9404 20.6148 75.333 20.5322 75.7463 20.5322C76.0732 20.5322 76.3399 20.5585 76.5466 20.6111C76.7532 20.6637 76.9073 20.7125 77.0087 20.7576L76.6255 21.9073C76.5579 21.8847 76.4639 21.8566 76.3437 21.8227C76.2272 21.7889 76.0732 21.772 75.8816 21.772C75.442 21.772 75.1245 21.8828 74.9291 22.1045C74.7375 22.3262 74.6417 22.6512 74.6417 23.0795V32.6151H73.3117Z" fill="black"/>
  <path d="M66.7729 32.7954C65.9914 32.7954 65.3057 32.6094 64.7159 32.2375C64.1298 31.8655 63.6714 31.3452 63.3408 30.6764C63.0139 30.0076 62.8505 29.2261 62.8505 28.3319C62.8505 27.4302 63.0139 26.6431 63.3408 25.9706C63.6714 25.2981 64.1298 24.7758 64.7159 24.4039C65.3057 24.0319 65.9914 23.8459 66.7729 23.8459C67.5544 23.8459 68.2382 24.0319 68.8243 24.4039C69.4141 24.7758 69.8725 25.2981 70.1994 25.9706C70.53 26.6431 70.6953 27.4302 70.6953 28.3319C70.6953 29.2261 70.53 30.0076 70.1994 30.6764C69.8725 31.3452 69.4141 31.8655 68.8243 32.2375C68.2382 32.6094 67.5544 32.7954 66.7729 32.7954ZM66.7729 31.6006C67.3665 31.6006 67.8549 31.4485 68.2382 31.1441C68.6214 30.8398 68.9051 30.4397 69.0892 29.9437C69.2733 29.4478 69.3653 28.9105 69.3653 28.3319C69.3653 27.7533 69.2733 27.2142 69.0892 26.7145C68.9051 26.2148 68.6214 25.8109 68.2382 25.5028C67.8549 25.1948 67.3665 25.0407 66.7729 25.0407C66.1793 25.0407 65.6908 25.1948 65.3076 25.5028C64.9244 25.8109 64.6407 26.2148 64.4566 26.7145C64.2725 27.2142 64.1805 27.7533 64.1805 28.3319C64.1805 28.9105 64.2725 29.4478 64.4566 29.9437C64.6407 30.4397 64.9244 30.8398 65.3076 31.1441C65.6908 31.4485 66.1793 31.6006 66.7729 31.6006Z" fill="black"/>
  <path d="M52.888 32.615V23.9587H54.1729V25.2661H54.2631C54.4209 24.8378 54.7064 24.4903 55.1197 24.2235C55.533 23.9568 55.9989 23.8234 56.5174 23.8234C56.6151 23.8234 56.7372 23.8253 56.8837 23.829C57.0302 23.8328 57.1411 23.8384 57.2162 23.8459V25.1985C57.1711 25.1872 57.0678 25.1703 56.9062 25.1478C56.7484 25.1215 56.5812 25.1083 56.4047 25.1083C55.9839 25.1083 55.6082 25.1966 55.2775 25.3732C54.9507 25.546 54.6914 25.7865 54.4998 26.0946C54.3119 26.3989 54.218 26.7464 54.218 27.1372V32.615H52.888Z" fill="black"/>
  <path d="M47.2805 32.7954C46.4464 32.7954 45.7269 32.6113 45.122 32.2431C44.5209 31.8711 44.0569 31.3527 43.73 30.6877C43.4069 30.0189 43.2454 29.2412 43.2454 28.3545C43.2454 27.4678 43.4069 26.6863 43.73 26.01C44.0569 25.33 44.5115 24.8003 45.0939 24.4208C45.68 24.0376 46.3638 23.8459 47.1452 23.8459C47.5961 23.8459 48.0413 23.9211 48.4809 24.0714C48.9205 24.2217 49.3206 24.4659 49.6813 24.804C50.042 25.1384 50.3294 25.5817 50.5436 26.134C50.7577 26.6863 50.8648 27.3664 50.8648 28.1741V28.7377H44.1922V27.588H49.5122C49.5122 27.0996 49.4145 26.6638 49.2192 26.2806C49.0276 25.8973 48.7533 25.5949 48.3964 25.3732C48.0432 25.1515 47.6262 25.0407 47.1452 25.0407C46.6155 25.0407 46.1571 25.1722 45.7701 25.4352C45.3869 25.6944 45.092 26.0326 44.8853 26.4496C44.6787 26.8667 44.5754 27.3138 44.5754 27.7909V28.5574C44.5754 29.2111 44.6881 29.7653 44.9135 30.2199C45.1427 30.6708 45.4602 31.0145 45.8659 31.2512C46.2717 31.4842 46.7432 31.6006 47.2805 31.6006C47.6299 31.6006 47.9455 31.5518 48.2273 31.4541C48.5128 31.3527 48.7589 31.2024 48.9656 31.0033C49.1722 30.8004 49.3319 30.5486 49.4446 30.2481L50.7295 30.6088C50.5943 31.0446 50.367 31.4278 50.0476 31.7584C49.7283 32.0853 49.3338 32.3408 48.8641 32.5249C48.3945 32.7052 47.8666 32.7954 47.2805 32.7954Z" fill="black"/>
  <path d="M33.9747 32.615V21.0732H35.3047V25.3338H35.4174C35.5151 25.1835 35.6503 24.9919 35.8232 24.7589C35.9998 24.5222 36.2515 24.3118 36.5784 24.1277C36.909 23.9399 37.3561 23.8459 37.9196 23.8459C38.6485 23.8459 39.291 24.0282 39.847 24.3926C40.4031 24.757 40.837 25.2736 41.1489 25.9424C41.4607 26.6112 41.6166 27.4002 41.6166 28.3094C41.6166 29.2261 41.4607 30.0208 41.1489 30.6933C40.837 31.362 40.405 31.8805 39.8527 32.2487C39.3004 32.6132 38.6636 32.7954 37.9422 32.7954C37.3861 32.7954 36.9409 32.7033 36.6065 32.5192C36.2721 32.3314 36.0148 32.1191 35.8344 31.8824C35.6541 31.6419 35.5151 31.4428 35.4174 31.285H35.2596V32.615H33.9747ZM35.2821 28.2868C35.2821 28.9406 35.378 29.5173 35.5696 30.017C35.7612 30.5129 36.0411 30.9018 36.4093 31.1836C36.7775 31.4616 37.2283 31.6006 37.7618 31.6006C38.3179 31.6006 38.7819 31.4541 39.1539 31.161C39.5296 30.8642 39.8114 30.466 39.9992 29.9663C40.1908 29.4628 40.2866 28.903 40.2866 28.2868C40.2866 27.6782 40.1927 27.1297 40.0048 26.6412C39.8207 26.149 39.5408 25.7602 39.1651 25.4746C38.7932 25.1853 38.3254 25.0407 37.7618 25.0407C37.2208 25.0407 36.7662 25.1778 36.398 25.4521C36.0298 25.7226 35.7518 26.1021 35.5639 26.5905C35.3761 27.0752 35.2821 27.6406 35.2821 28.2868Z" fill="black"/>
  <path d="M20.001 32.6151V23.9587H21.286V25.3112H21.3987C21.579 24.8491 21.8702 24.4903 22.2722 24.2348C22.6742 23.9756 23.157 23.8459 23.7206 23.8459C24.2917 23.8459 24.7669 23.9756 25.1464 24.2348C25.5296 24.4903 25.8283 24.8491 26.0425 25.3112H26.1327C26.3543 24.8641 26.6868 24.5091 27.1302 24.2461C27.5735 23.9793 28.1051 23.8459 28.7251 23.8459C29.499 23.8459 30.1321 24.0883 30.6243 24.5729C31.1165 25.0539 31.3626 25.8034 31.3626 26.8216V32.6151H30.0325V26.8216C30.0325 26.1829 29.8578 25.7264 29.5084 25.4521C29.159 25.1778 28.7476 25.0407 28.2742 25.0407C27.6656 25.0407 27.194 25.2248 26.8597 25.593C26.5253 25.9574 26.3581 26.4196 26.3581 26.9794V32.6151H25.0055V26.6863C25.0055 26.1941 24.8458 25.7978 24.5265 25.4972C24.2071 25.1929 23.7957 25.0407 23.2923 25.0407C22.9466 25.0407 22.6235 25.1328 22.3229 25.3169C22.0261 25.501 21.7857 25.7564 21.6016 26.0833C21.4212 26.4064 21.3311 26.7803 21.3311 27.2048V32.6151H20.001Z" fill="black"/>
  <path d="M16.235 29.0758V23.9586H17.565V32.615H16.235V31.1498H16.1448C15.9419 31.5894 15.6263 31.9632 15.198 32.2713C14.7697 32.5756 14.2287 32.7278 13.575 32.7278C13.0339 32.7278 12.553 32.6094 12.1322 32.3727C11.7114 32.1323 11.3808 31.7716 11.1403 31.2907C10.8999 30.806 10.7797 30.1955 10.7797 29.4591V23.9586H12.1097V29.3689C12.1097 30.0001 12.2863 30.5035 12.6394 30.8793C12.9964 31.255 13.451 31.4428 14.0033 31.4428C14.3339 31.4428 14.6702 31.3583 15.0121 31.1892C15.3577 31.0201 15.647 30.7609 15.8799 30.4115C16.1166 30.0621 16.235 29.6169 16.235 29.0758Z" fill="black"/>
  <path d="M2.8263 27.4077V32.6151H1.49628V23.9587H2.78121V25.3112H2.89392C3.09681 24.8716 3.40489 24.5185 3.81817 24.2517C4.23146 23.9812 4.76497 23.8459 5.41871 23.8459C6.00482 23.8459 6.51766 23.9662 6.95725 24.2066C7.39683 24.4433 7.73873 24.804 7.98294 25.2887C8.22715 25.7696 8.34926 26.3782 8.34926 27.1146V32.6151H7.01924V27.2048C7.01924 26.5248 6.84265 25.995 6.48949 25.6155C6.13632 25.2323 5.65165 25.0407 5.03548 25.0407C4.61093 25.0407 4.23146 25.1328 3.89707 25.3169C3.56645 25.501 3.30533 25.7696 3.11372 26.1228C2.9221 26.4759 2.8263 26.9042 2.8263 27.4077Z" fill="black"/>
  <path d="M95.6147 11.8253L95.5188 12.522C95.4549 13.0334 95.3463 13.5661 95.1928 14.12C95.0437 14.6783 94.8882 15.196 94.7262 15.6733C94.5686 16.1506 94.4386 16.5298 94.3363 16.8111H92.9812C93.0366 16.5469 93.1133 16.1889 93.2113 15.7372C93.3093 15.2898 93.4052 14.7891 93.499 14.2351C93.5927 13.6811 93.663 13.1165 93.7099 12.5412L93.7738 11.8253H95.6147Z" fill="black"/>
  <path d="M84.2816 7.78548V13.615H82.3704V3.79685H84.2049V5.39486H84.3264C84.5522 4.87497 84.9059 4.45736 85.3875 4.14202C85.8733 3.82668 86.4848 3.66901 87.222 3.66901C87.891 3.66901 88.477 3.80963 88.9798 4.09088C89.4826 4.36787 89.8726 4.78122 90.1495 5.33094C90.4265 5.88065 90.565 6.56034 90.565 7.37V13.615H88.6538V7.60011C88.6538 6.88847 88.4684 6.33236 88.0977 5.93179C87.727 5.52696 87.2177 5.32455 86.57 5.32455C86.1268 5.32455 85.7326 5.42043 85.3875 5.61219C85.0466 5.80395 84.776 6.0852 84.5757 6.45594C84.3797 6.82242 84.2816 7.2656 84.2816 7.78548Z" fill="black"/>
  <path d="M75.6604 13.8132C74.7399 13.8132 73.9367 13.6022 73.2506 13.1804C72.5645 12.7585 72.0318 12.1683 71.6526 11.4098C71.2733 10.6513 71.0837 9.76489 71.0837 8.75068C71.0837 7.73222 71.2733 6.84159 71.6526 6.07881C72.0318 5.31602 72.5645 4.72369 73.2506 4.30182C73.9367 3.87994 74.7399 3.66901 75.6604 3.66901C76.5808 3.66901 77.3841 3.87994 78.0702 4.30182C78.7563 4.72369 79.2889 5.31602 79.6682 6.07881C80.0475 6.84159 80.2371 7.73222 80.2371 8.75068C80.2371 9.76489 80.0475 10.6513 79.6682 11.4098C79.2889 12.1683 78.7563 12.7585 78.0702 13.1804C77.3841 13.6022 76.5808 13.8132 75.6604 13.8132ZM75.6668 12.2088C76.2634 12.2088 76.7577 12.0511 77.1497 11.7358C77.5418 11.4204 77.8316 11.0007 78.0191 10.4765C78.2108 9.95239 78.3067 9.37497 78.3067 8.74429C78.3067 8.11787 78.2108 7.54259 78.0191 7.01844C77.8316 6.49003 77.5418 6.06602 77.1497 5.74642C76.7577 5.42682 76.2634 5.26702 75.6668 5.26702C75.0659 5.26702 74.5673 5.42682 74.171 5.74642C73.779 6.06602 73.4871 6.49003 73.2953 7.01844C73.1078 7.54259 73.0141 8.11787 73.0141 8.74429C73.0141 9.37497 73.1078 9.95239 73.2953 10.4765C73.4871 11.0007 73.779 11.4204 74.171 11.7358C74.5673 12.0511 75.0659 12.2088 75.6668 12.2088Z" fill="black"/>
  <path d="M67.0423 13.6151V3.79688H68.9535V13.6151H67.0423ZM68.0075 2.28196C67.6751 2.28196 67.3896 2.17116 67.1509 1.94957C66.9166 1.72372 66.7994 1.45526 66.7994 1.14418C66.7994 0.828835 66.9166 0.560369 67.1509 0.338778C67.3896 0.112926 67.6751 0 68.0075 0C68.3399 0 68.6232 0.112926 68.8576 0.338778C69.0963 0.560369 69.2156 0.828835 69.2156 1.14418C69.2156 1.45526 69.0963 1.72372 68.8576 1.94957C68.6232 2.17116 68.3399 2.28196 68.0075 2.28196Z" fill="black"/>
  <path d="M64.9281 3.79685V5.33094H59.5652V3.79685H64.9281ZM61.0034 1.44458H62.9146V10.7322C62.9146 11.103 62.97 11.3821 63.0808 11.5696C63.1916 11.7528 63.3344 11.8785 63.5091 11.9467C63.6881 12.0106 63.8819 12.0426 64.0908 12.0426C64.2442 12.0426 64.3784 12.0319 64.4935 12.0106C64.6085 11.9893 64.698 11.9723 64.7619 11.9595L65.1071 13.5383C64.9963 13.5809 64.8386 13.6236 64.6341 13.6662C64.4295 13.713 64.1739 13.7386 63.867 13.7429C63.3642 13.7514 62.8954 13.6619 62.4608 13.4744C62.0261 13.2869 61.6746 12.9971 61.4061 12.6051C61.1376 12.213 61.0034 11.7209 61.0034 11.1285V1.44458Z" fill="black"/>
  <path d="M52.9542 13.8324C52.332 13.8324 51.7695 13.7173 51.2667 13.4872C50.7638 13.2528 50.3654 12.914 50.0714 12.4709C49.7816 12.0277 49.6367 11.4843 49.6367 10.8409C49.6367 10.2869 49.7433 9.83094 49.9563 9.47298C50.1694 9.11503 50.457 8.83165 50.8192 8.62284C51.1815 8.41403 51.5863 8.25636 52.0337 8.14983C52.4812 8.0433 52.9371 7.96233 53.4016 7.90693C53.9897 7.83875 54.467 7.78335 54.8335 7.74074C55.1999 7.69386 55.4663 7.61929 55.6325 7.51702C55.7987 7.41475 55.8817 7.24855 55.8817 7.01844V6.97369C55.8817 6.41546 55.7241 5.98293 55.4087 5.67611C55.0977 5.36929 54.6332 5.21588 54.0153 5.21588C53.3718 5.21588 52.8647 5.35864 52.494 5.64415C52.1275 5.9254 51.8739 6.23861 51.7333 6.58378L49.9371 6.17469C50.1502 5.5781 50.4613 5.09656 50.8704 4.73009C51.2837 4.35935 51.7589 4.09088 52.2958 3.92469C52.8327 3.75423 53.3974 3.66901 53.9897 3.66901C54.3817 3.66901 54.7972 3.71588 55.2362 3.80963C55.6793 3.89912 56.0927 4.06531 56.4762 4.30821C56.864 4.55111 57.1815 4.89841 57.4286 5.35011C57.6758 5.79756 57.7994 6.37923 57.7994 7.09514V13.615H55.9329V12.2727H55.8562C55.7326 12.5199 55.5472 12.7628 55.3001 13.0014C55.0529 13.24 54.7354 13.4382 54.3477 13.5959C53.9599 13.7535 53.4954 13.8324 52.9542 13.8324ZM53.3697 12.2983C53.8981 12.2983 54.3498 12.1939 54.7248 11.9851C55.1041 11.7762 55.3917 11.5035 55.5877 11.1669C55.788 10.826 55.8881 10.4616 55.8881 10.0738V8.80821C55.82 8.87639 55.6879 8.94031 55.4918 8.99997C55.3001 9.05537 55.0806 9.10438 54.8335 9.14699C54.5863 9.18534 54.3455 9.22156 54.1112 9.25565C53.8768 9.28548 53.6808 9.31105 53.5231 9.33236C53.1523 9.37923 52.8136 9.45807 52.5067 9.56886C52.2042 9.67966 51.9613 9.83946 51.7781 10.0483C51.5991 10.2528 51.5096 10.5255 51.5096 10.8664C51.5096 11.3395 51.6843 11.6974 52.0337 11.9403C52.3832 12.179 52.8285 12.2983 53.3697 12.2983Z" fill="black"/>
  <path d="M47.5258 0.52417V13.6151H45.6146V0.52417H47.5258Z" fill="black"/>
  <path d="M41.1289 9.54332V3.79688H43.0466V13.6151H41.1673V11.9148H41.065C40.8392 12.4389 40.477 12.8757 39.9784 13.2251C39.4841 13.5703 38.8683 13.7429 38.1311 13.7429C37.5004 13.7429 36.9422 13.6044 36.4564 13.3274C35.9748 13.0462 35.5956 12.6307 35.3186 12.081C35.0458 11.5313 34.9095 10.8516 34.9095 10.0419V3.79688H36.8207V9.81179C36.8207 10.4808 37.0061 11.0135 37.3768 11.4098C37.7476 11.8061 38.2291 12.0043 38.8214 12.0043C39.1794 12.0043 39.5352 11.9148 39.8889 11.7358C40.2468 11.5568 40.543 11.2862 40.7774 10.924C41.016 10.5618 41.1332 10.1016 41.1289 9.54332Z" fill="black"/>
  <path d="M23.8001 17.2968V3.79685H25.6666V5.38847H25.8264C25.9372 5.18392 26.097 4.94742 26.3058 4.67895C26.5146 4.41048 26.8044 4.17611 27.1751 3.97582C27.5458 3.77128 28.0359 3.66901 28.6453 3.66901C29.4379 3.66901 30.1453 3.86929 30.7674 4.26986C31.3896 4.67043 31.8775 5.24784 32.2312 6.0021C32.5892 6.75636 32.7682 7.66404 32.7682 8.72511C32.7682 9.78619 32.5913 10.696 32.2376 11.4545C31.8839 12.2088 31.3981 12.7905 30.7802 13.1995C30.1623 13.6044 29.4571 13.8068 28.6645 13.8068C28.0679 13.8068 27.5799 13.7066 27.2007 13.5064C26.8257 13.3061 26.5316 13.0717 26.3186 12.8032C26.1055 12.5348 25.9414 12.2961 25.8264 12.0873H25.7113V17.2968H23.8001ZM25.673 8.70594C25.673 9.39628 25.7731 10.0014 25.9734 10.5213C26.1737 11.0412 26.4635 11.4481 26.8427 11.7422C27.222 12.0319 27.6865 12.1768 28.2362 12.1768C28.8072 12.1768 29.2845 12.0255 29.668 11.723C30.0515 11.4162 30.3413 11.0007 30.5373 10.4765C30.7376 9.95239 30.8378 9.36219 30.8378 8.70594C30.8378 8.05821 30.7397 7.47653 30.5437 6.96091C30.352 6.44528 30.0622 6.03832 29.6744 5.74003C29.2909 5.44173 28.8115 5.29259 28.2362 5.29259C27.6822 5.29259 27.2135 5.43534 26.8299 5.72085C26.4507 6.00636 26.163 6.4048 25.967 6.91617C25.771 7.42753 25.673 8.02412 25.673 8.70594Z" fill="black"/>
  <path d="M17.0901 13.8132C16.1696 13.8132 15.3663 13.6022 14.6803 13.1804C13.9942 12.7585 13.4615 12.1683 13.0823 11.4098C12.703 10.6513 12.5134 9.76489 12.5134 8.75068C12.5134 7.73222 12.703 6.84159 13.0823 6.07881C13.4615 5.31602 13.9942 4.72369 14.6803 4.30182C15.3663 3.87994 16.1696 3.66901 17.0901 3.66901C18.0105 3.66901 18.8138 3.87994 19.4999 4.30182C20.186 4.72369 20.7186 5.31602 21.0979 6.07881C21.4771 6.84159 21.6668 7.73222 21.6668 8.75068C21.6668 9.76489 21.4771 10.6513 21.0979 11.4098C20.7186 12.1683 20.186 12.7585 19.4999 13.1804C18.8138 13.6022 18.0105 13.8132 17.0901 13.8132ZM17.0965 12.2088C17.6931 12.2088 18.1874 12.0511 18.5794 11.7358C18.9715 11.4204 19.2612 11.0007 19.4487 10.4765C19.6405 9.95239 19.7364 9.37497 19.7364 8.74429C19.7364 8.11787 19.6405 7.54259 19.4487 7.01844C19.2612 6.49003 18.9715 6.06602 18.5794 5.74642C18.1874 5.42682 17.6931 5.26702 17.0965 5.26702C16.4956 5.26702 15.997 5.42682 15.6007 5.74642C15.2087 6.06602 14.9168 6.49003 14.725 7.01844C14.5375 7.54259 14.4438 8.11787 14.4438 8.74429C14.4438 9.37497 14.5375 9.95239 14.725 10.4765C14.9168 11.0007 15.2087 11.4204 15.6007 11.7358C15.997 12.0511 16.4956 12.2088 17.0965 12.2088Z" fill="black"/>
  <path d="M1.71716 13.6151V0.52417H6.38336C7.40182 0.52417 8.24557 0.709539 8.91461 1.08028C9.58364 1.45102 10.0844 1.95812 10.4167 2.60158C10.7491 3.24079 10.9153 3.96096 10.9153 4.7621C10.9153 5.56749 10.747 6.29193 10.4103 6.93539C10.078 7.5746 9.57512 8.0817 8.90182 8.4567C8.23279 8.82744 7.39117 9.01281 6.37696 9.01281H3.16816V7.33809H6.19799C6.84145 7.33809 7.36347 7.2273 7.76404 7.0057C8.16461 6.77985 8.45864 6.47303 8.64614 6.08525C8.83364 5.69747 8.92739 5.25641 8.92739 4.7621C8.92739 4.26778 8.83364 3.82886 8.64614 3.44533C8.45864 3.06181 8.16248 2.76139 7.75765 2.54406C7.35708 2.32673 6.82867 2.21806 6.17242 2.21806H3.69231V13.6151H1.71716Z" fill="black"/>
  <path d="M26.3934 44.7217H0.159973V165.331H26.3934V44.7217Z" fill="url(#paint0_linear_0_1)"/>
  <path fill-rule="evenodd" clip-rule="evenodd" d="M0 44.5617H26.5533V165.491H0V44.5617ZM0.31992 44.8816V165.171H26.2334V44.8816H0.31992Z" fill="black"/>
  <defs>
    <linearGradient id="paint0_linear_0_1" x1="-428.213" y1="165.847" x2="-428.213" y2="44.9296" gradientUnits="userSpaceOnUse">
      <stop stop-color="#F1EEF6" stop-opacity="0"/>
      <stop offset="0.0192308" stop-color="#D5B8E3" stop-opacity="0.0705882"/>
      <stop offset="0.0384615" stop-color="#D7B5D7" stop-opacity="0.14902"/>
      <stop offset="0.0576923" stop-color="#D7B4D7" stop-opacity="0.227451"/>
      <stop offset="0.0769231" stop-color="#D7B6D7" stop-opacity="0.301961"/>
      <stop offset="0.0961538" stop-color="#D8B5D8" stop-opacity="0.380392"/>
      <stop offset="0.115385" stop-color="#D8B5D8" stop-opacity="0.458824"/>
      <stop offset="0.134615" stop-color="#D8B4D8" stop-opacity="0.533333"/>
      <stop offset="0.153846" stop-color="#D6B5D8" stop-opacity="0.611765"/>
      <stop offset="0.173077" stop-color="#D6B5D8" stop-opacity="0.690196"/>
      <stop offset="0.192308" stop-color="#D6B4D8" stop-opacity="0.764706"/>
      <stop offset="0.211538" stop-color="#D7B4D8" stop-opacity="0.843137"/>
      <stop offset="0.230769" stop-color="#D7B4D8" stop-opacity="0.921569"/>
      <stop offset="0.25" stop-color="#D7B5D8"/>
      <stop offset="0.269231" stop-color="#D7AFD5"/>
      <stop offset="0.288462" stop-color="#D8A8D1"/>
      <stop offset="0.307692" stop-color="#D8A2CE"/>
      <stop offset="0.326923" stop-color="#D99CCB"/>
      <stop offset="0.346154" stop-color="#DA96C8"/>
      <stop offset="0.365385" stop-color="#DA90C5"/>
      <stop offset="0.384615" stop-color="#DB8AC2"/>
      <stop offset="0.403846" stop-color="#DB83BF"/>
      <stop offset="0.423077" stop-color="#DC7DBC"/>
      <stop offset="0.442308" stop-color="#DD77B9"/>
      <stop offset="0.461538" stop-color="#DD71B6"/>
      <stop offset="0.480769" stop-color="#DE6BB3"/>
      <stop offset="0.5" stop-color="#DF65B0"/>
      <stop offset="0.519231" stop-color="#DE5FAB"/>
      <stop offset="0.538462" stop-color="#DE59A7"/>
      <stop offset="0.557692" stop-color="#DE54A2"/>
      <stop offset="0.576923" stop-color="#DE4E9E"/>
      <stop offset="0.596154" stop-color="#DE499A"/>
      <stop offset="0.615385" stop-color="#DE4395"/>
      <stop offset="0.634615" stop-color="#DD3D91"/>
      <stop offset="0.653846" stop-color="#DD388D"/>
      <stop offset="0.673077" stop-color="#DD3288"/>
      <stop offset="0.692308" stop-color="#DD2D84"/>
      <stop offset="0.711538" stop-color="#DD277F"/>
      <stop offset="0.730769" stop-color="#DD217B"/>
      <stop offset="0.75" stop-color="#DD1C77"/>
      <stop offset="0.769231" stop-color="#D71973"/>
      <stop offset="0.788462" stop-color="#D2176F"/>
      <stop offset="0.807692" stop-color="#CD156B"/>
      <stop offset="0.826923" stop-color="#C71367"/>
      <stop offset="0.846154" stop-color="#C21163"/>
      <stop offset="0.865385" stop-color="#BD0F5F"/>
      <stop offset="0.884615" stop-color="#B80D5B"/>
      <stop offset="0.903846" stop-color="#B20A57"/>
      <stop offset="0.923077" stop-color="#AD0853"/>
      <stop offset="0.942308" stop-color="#A8064F"/>
      <stop offset="0.961538" stop-color="#A2044B"/>
      <stop offset="0.980769" stop-color="#9D0247"/>
      <stop offset="1" stop-color="#980043"/>
    </linearGradient>
  </defs>
</svg>