<svg width="118" height="191" viewBox="0 0 118 191" fill="none" xmlns="http://www.w3.org/2000/svg">
  <path d="M38.2042 83V81.9775L42.0442 77.774C42.4948 77.2817 42.866 76.8538 43.1575 76.4903C43.4491 76.1229 43.665 75.7783 43.8051 75.4564C43.949 75.1308 44.021 74.7899 44.021 74.434C44.021 74.025 43.9225 73.6709 43.7256 73.3717C43.5325 73.0726 43.2674 72.8416 42.9303 72.6787C42.5933 72.5159 42.2146 72.4345 41.7943 72.4345C41.3474 72.4345 40.9573 72.5272 40.6241 72.7128C40.2946 72.8946 40.039 73.1502 39.8572 73.4797C39.6793 73.8091 39.5903 74.1954 39.5903 74.6385H38.2497C38.2497 73.9568 38.4068 73.3585 38.7212 72.8435C39.0355 72.3284 39.4634 71.927 40.0049 71.6392C40.5502 71.3514 41.1618 71.2075 41.8397 71.2075C42.5213 71.2075 43.1254 71.3514 43.6517 71.6392C44.1781 71.927 44.5909 72.3152 44.8901 72.8037C45.1892 73.2922 45.3388 73.8356 45.3388 74.434C45.3388 74.8619 45.2612 75.2803 45.1059 75.6893C44.9544 76.0945 44.6894 76.5471 44.3107 77.0469C43.9358 77.543 43.4151 78.1489 42.7486 78.8647L40.1356 81.6594V81.7503H45.5433V83H38.2042ZM48.2529 83L53.4561 72.7071V72.6162H47.4576V71.3666H54.9103V72.6844L49.7298 83H48.2529ZM60.5069 83.1591C59.8404 83.1591 59.2402 83.0265 58.7062 82.7614C58.1722 82.4963 57.7443 82.1328 57.4224 81.6708C57.1005 81.2088 56.9245 80.6824 56.8942 80.0916H58.2575C58.3105 80.618 58.549 81.0535 58.9732 81.3981C59.4011 81.739 59.9123 81.9094 60.5069 81.9094C60.984 81.9094 61.4082 81.7976 61.7793 81.5742C62.1542 81.3508 62.4477 81.0441 62.6598 80.654C62.8756 80.2602 62.9835 79.8152 62.9835 79.3191C62.9835 78.8117 62.8718 78.3591 62.6484 77.9615C62.4288 77.5601 62.1258 77.2439 61.7395 77.0129C61.3533 76.7819 60.9121 76.6645 60.416 76.6607C60.06 76.6569 59.6946 76.7118 59.3197 76.8254C58.9448 76.9352 58.6361 77.0772 58.3938 77.2514L57.0759 77.0924L57.7803 71.3666H63.8242V72.6162H58.9618L58.5528 76.0472H58.621C58.8596 75.8579 59.1587 75.7007 59.5185 75.5757C59.8783 75.4508 60.2532 75.3883 60.6432 75.3883C61.3552 75.3883 61.9895 75.5587 62.5462 75.8995C63.1066 76.2365 63.5459 76.6985 63.864 77.2855C64.1859 77.8725 64.3468 78.5428 64.3468 79.2964C64.3468 80.0386 64.1802 80.7013 63.847 81.2845C63.5175 81.8639 63.0631 82.3221 62.4837 82.6592C61.9043 82.9924 61.2453 83.1591 60.5069 83.1591Z" fill="black"/>
  <path d="M38.2042 184.719V183.697L42.0442 179.494C42.4948 179.001 42.866 178.573 43.1575 178.21C43.4491 177.842 43.665 177.498 43.8051 177.176C43.949 176.85 44.021 176.509 44.021 176.153C44.021 175.744 43.9225 175.39 43.7256 175.091C43.5325 174.792 43.2674 174.561 42.9303 174.398C42.5933 174.235 42.2146 174.154 41.7943 174.154C41.3474 174.154 40.9573 174.247 40.6241 174.432C40.2946 174.614 40.039 174.87 39.8572 175.199C39.6793 175.529 39.5903 175.915 39.5903 176.358H38.2497C38.2497 175.676 38.4068 175.078 38.7212 174.563C39.0355 174.048 39.4634 173.647 40.0049 173.359C40.5502 173.071 41.1618 172.927 41.8397 172.927C42.5213 172.927 43.1254 173.071 43.6517 173.359C44.1781 173.647 44.5909 174.035 44.8901 174.523C45.1892 175.012 45.3388 175.555 45.3388 176.153C45.3388 176.581 45.2612 177 45.1059 177.409C44.9544 177.814 44.6894 178.267 44.3107 178.766C43.9358 179.263 43.4151 179.868 42.7486 180.584L40.1356 183.379V183.47H45.5433V184.719H38.2042ZM51.9792 173.086V184.719H50.5705V174.563H50.5023L47.6621 176.449V175.017L50.5705 173.086H51.9792ZM55.6885 184.719L60.8917 174.427V174.336H54.8932V173.086H62.3459V174.404L57.1654 184.719H55.6885Z" fill="black"/>
  <path d="M26.3934 69.9012H0.159973V190.511H26.3934V69.9012Z" fill="url(#paint0_linear_0_1)"/>
  <path fill-rule="evenodd" clip-rule="evenodd" d="M0 69.7413H26.5533V190.671H0V69.7413ZM0.31992 70.0613V190.351H26.2334V70.0613H0.31992Z" fill="black"/>
  <path d="M117.345 33.8253L117.249 34.522C117.186 35.0334 117.077 35.5661 116.923 36.1201C116.774 36.6783 116.619 37.1961 116.457 37.6733C116.299 38.1506 116.169 38.5299 116.067 38.8111H114.712C114.767 38.5469 114.844 38.189 114.942 37.7372C115.04 37.2898 115.136 36.7891 115.23 36.2351C115.323 35.6811 115.394 35.1165 115.44 34.5412L115.504 33.8253H117.345Z" fill="black"/>
  <path d="M99.3102 35.615V25.7968H100.768V27.3309H100.895C101.1 26.8068 101.43 26.3998 101.886 26.1101C102.342 25.816 102.89 25.669 103.529 25.669C104.177 25.669 104.716 25.816 105.146 26.1101C105.581 26.3998 105.92 26.8068 106.162 27.3309H106.265C106.516 26.8238 106.893 26.4211 107.396 26.1228C107.899 25.8203 108.502 25.669 109.205 25.669C110.083 25.669 110.801 25.9439 111.359 26.4936C111.917 27.039 112.197 27.8892 112.197 29.044V35.615H110.688V29.044C110.688 28.3196 110.49 27.8018 110.094 27.4907C109.697 27.1797 109.231 27.0241 108.694 27.0241C108.003 27.0241 107.469 27.2329 107.089 27.6505C106.71 28.0639 106.52 28.588 106.52 29.223V35.615H104.986V28.8906C104.986 28.3324 104.805 27.8828 104.443 27.5419C104.081 27.1967 103.614 27.0241 103.043 27.0241C102.651 27.0241 102.285 27.1285 101.944 27.3373C101.607 27.5461 101.334 27.8359 101.126 28.2066C100.921 28.5731 100.819 28.9971 100.819 29.4787V35.615H99.3102Z" fill="black"/>
  <path d="M88.1129 39.2969V25.7969H89.6214V31.6009C89.6214 32.1335 89.7322 32.6023 89.9538 33.0071C90.1797 33.4077 90.495 33.7209 90.8998 33.9467C91.3089 34.1726 91.7862 34.2855 92.3317 34.2855C92.8771 34.2855 93.3523 34.1726 93.7571 33.9467C94.1662 33.7166 94.4815 33.4013 94.7031 33.0007C94.929 32.5959 95.0419 32.1293 95.0419 31.6009V25.7969H96.5504V35.6151H95.0419V34.1577H94.9652C94.701 34.6733 94.3324 35.0675 93.8594 35.3402C93.3863 35.6087 92.8771 35.7429 92.3317 35.7429C91.7862 35.7429 91.277 35.6087 90.804 35.3402C90.3352 35.0675 89.9666 34.6733 89.6981 34.1577H89.6214V39.2969H88.1129Z" fill="black"/>
  <path d="M76.1662 35.8324C75.1562 35.8281 74.2933 35.5618 73.5774 35.0334C72.8615 34.505 72.3139 33.7358 71.9346 32.7258C71.5554 31.7159 71.3657 30.4993 71.3657 29.076C71.3657 27.6569 71.5554 26.4446 71.9346 25.4389C72.3181 24.4332 72.8679 23.6662 73.5838 23.1378C74.3039 22.6094 75.1647 22.3452 76.1662 22.3452C77.1676 22.3452 78.0262 22.6115 78.7421 23.1442C79.4581 23.6726 80.0056 24.4396 80.3849 25.4453C80.7684 26.4467 80.9602 27.6569 80.9602 29.076C80.9602 30.5035 80.7705 31.7223 80.3913 32.7322C80.012 33.7379 79.4644 34.5071 78.7485 35.0398C78.0326 35.5682 77.1718 35.8324 76.1662 35.8324ZM76.1662 34.1257C77.0525 34.1257 77.745 33.6932 78.2436 32.8281C78.7464 31.9631 78.9978 30.7123 78.9978 29.076C78.9978 27.9893 78.8828 27.071 78.6527 26.321C78.4268 25.5667 78.1008 24.9957 77.6747 24.6079C77.2528 24.2159 76.75 24.0199 76.1662 24.0199C75.2841 24.0199 74.5916 24.4545 74.0887 25.3238C73.5859 26.1932 73.3323 27.4439 73.3281 29.076C73.3281 30.1669 73.441 31.0895 73.6669 31.8437C73.897 32.5937 74.223 33.1626 74.6448 33.5504C75.0667 33.9339 75.5738 34.1257 76.1662 34.1257Z" fill="black"/>
  <path d="M68.0675 22.5242V35.6151H66.0859V24.5057H66.0092L62.8771 26.5512V24.6591L66.1435 22.5242H68.0675Z" fill="black"/>
  <path d="M51.4545 35.615V25.7969H53.3018V27.3565H53.4041C53.5831 26.8281 53.8984 26.4126 54.3501 26.1101C54.8061 25.8032 55.3217 25.6498 55.897 25.6498C56.0163 25.6498 56.1569 25.6541 56.3189 25.6626C56.4851 25.6711 56.615 25.6818 56.7088 25.6946V27.5227C56.6321 27.5014 56.4957 27.478 56.2997 27.4524C56.1037 27.4226 55.9077 27.4077 55.7116 27.4077C55.2599 27.4077 54.8572 27.5035 54.5035 27.6953C54.1541 27.8828 53.8771 28.1449 53.6726 28.4815C53.468 28.8139 53.3657 29.1932 53.3657 29.6193V35.615H51.4545Z" fill="black"/>
  <path d="M45.1216 35.8132C44.1543 35.8132 43.3212 35.6065 42.6223 35.1932C41.9277 34.7755 41.3908 34.1896 41.0115 33.4353C40.6365 32.6768 40.449 31.7883 40.449 30.7699C40.449 29.7642 40.6365 28.8778 41.0115 28.1108C41.3908 27.3437 41.9192 26.745 42.5968 26.3146C43.2786 25.8842 44.0755 25.669 44.9874 25.669C45.5414 25.669 46.0783 25.7606 46.5982 25.9439C47.1181 26.1271 47.5847 26.4147 47.998 26.8068C48.4114 27.1988 48.7374 27.7081 48.976 28.3345C49.2147 28.9566 49.334 29.713 49.334 30.6037V31.2812H41.5293V29.8494H47.4611C47.4611 29.3466 47.3588 28.9012 47.1543 28.5135C46.9497 28.1214 46.6621 27.8125 46.2914 27.5866C45.9249 27.3608 45.4945 27.2478 45.0002 27.2478C44.4632 27.2478 43.9945 27.3799 43.5939 27.6441C43.1976 27.9041 42.8908 28.245 42.6735 28.6669C42.4604 29.0845 42.3539 29.5383 42.3539 30.0284V31.147C42.3539 31.8032 42.4689 32.3615 42.699 32.8217C42.9334 33.2819 43.2594 33.6335 43.677 33.8764C44.0946 34.115 44.5826 34.2343 45.1408 34.2343C45.503 34.2343 45.8333 34.1832 46.1316 34.0809C46.4299 33.9744 46.6877 33.8167 46.905 33.6079C47.1223 33.3991 47.2885 33.1413 47.4036 32.8345L49.2125 33.1605C49.0676 33.6932 48.8077 34.1598 48.4327 34.5603C48.062 34.9566 47.5953 35.2656 47.0328 35.4872C46.4746 35.7045 45.8375 35.8132 45.1216 35.8132Z" fill="black"/>
  <path d="M38.8814 25.7969V27.3309H33.5184V25.7969H38.8814ZM34.9566 23.4446H36.8679V32.7322C36.8679 33.103 36.9233 33.3821 37.0341 33.5696C37.1449 33.7528 37.2876 33.8785 37.4623 33.9467C37.6413 34.0106 37.8352 34.0426 38.044 34.0426C38.1974 34.0426 38.3316 34.0319 38.4467 34.0106C38.5618 33.9893 38.6512 33.9723 38.7152 33.9595L39.0603 35.5383C38.9495 35.5809 38.7919 35.6236 38.5873 35.6662C38.3828 35.713 38.1271 35.7386 37.8203 35.7429C37.3174 35.7514 36.8487 35.6619 36.414 35.4744C35.9794 35.2869 35.6278 34.9971 35.3593 34.6051C35.0909 34.213 34.9566 33.7209 34.9566 33.1285V23.4446Z" fill="black"/>
  <path d="M32.1841 25.7969V27.3309H26.8212V25.7969H32.1841ZM28.2594 23.4446H30.1706V32.7322C30.1706 33.103 30.226 33.3821 30.3368 33.5696C30.4476 33.7528 30.5903 33.8785 30.7651 33.9467C30.944 34.0106 31.1379 34.0426 31.3467 34.0426C31.5001 34.0426 31.6344 34.0319 31.7494 34.0106C31.8645 33.9893 31.954 33.9723 32.0179 33.9595L32.3631 35.5383C32.2523 35.5809 32.0946 35.6236 31.8901 35.6662C31.6855 35.713 31.4298 35.7386 31.123 35.7429C30.6202 35.7514 30.1514 35.6619 29.7168 35.4744C29.2821 35.2869 28.9305 34.9971 28.6621 34.6051C28.3936 34.213 28.2594 33.7209 28.2594 33.1285V23.4446Z" fill="black"/>
  <path d="M20.2102 35.8324C19.5881 35.8324 19.0256 35.7173 18.5227 35.4872C18.0199 35.2528 17.6215 34.914 17.3274 34.4709C17.0376 34.0277 16.8928 33.4843 16.8928 32.8409C16.8928 32.2869 16.9993 31.8309 17.2124 31.473C17.4254 31.115 17.7131 30.8316 18.0753 30.6228C18.4375 30.414 18.8423 30.2564 19.2898 30.1498C19.7372 30.0433 20.1932 29.9623 20.6577 29.9069C21.2457 29.8388 21.723 29.7834 22.0895 29.7407C22.456 29.6939 22.7223 29.6193 22.8885 29.517C23.0547 29.4147 23.1378 29.2485 23.1378 29.0184V28.9737C23.1378 28.4155 22.9801 27.9829 22.6648 27.6761C22.3537 27.3693 21.8892 27.2159 21.2713 27.2159C20.6278 27.2159 20.1207 27.3586 19.75 27.6441C19.3835 27.9254 19.13 28.2386 18.9894 28.5838L17.1932 28.1747C17.4063 27.5781 17.7173 27.0966 18.1264 26.7301C18.5398 26.3593 19.0149 26.0909 19.5519 25.9247C20.0888 25.7542 20.6534 25.669 21.2457 25.669C21.6378 25.669 22.0533 25.7159 22.4922 25.8096C22.9354 25.8991 23.3487 26.0653 23.7323 26.3082C24.12 26.5511 24.4375 26.8984 24.6847 27.3501C24.9318 27.7976 25.0554 28.3792 25.0554 29.0951V35.615H23.1889V34.2727H23.1122C22.9886 34.5199 22.8033 34.7628 22.5561 35.0014C22.309 35.24 21.9915 35.4382 21.6037 35.5959C21.2159 35.7535 20.7514 35.8324 20.2102 35.8324ZM20.6257 34.2983C21.1541 34.2983 21.6058 34.1939 21.9808 33.9851C22.3601 33.7763 22.6477 33.5035 22.8438 33.1669C23.044 32.826 23.1442 32.4616 23.1442 32.0738V30.8082C23.076 30.8764 22.9439 30.9403 22.7479 31C22.5561 31.0554 22.3367 31.1044 22.0895 31.147C21.8423 31.1853 21.6016 31.2216 21.3672 31.2557C21.1328 31.2855 20.9368 31.3111 20.7791 31.3324C20.4084 31.3792 20.0696 31.4581 19.7628 31.5689C19.4602 31.6797 19.2173 31.8395 19.0341 32.0483C18.8551 32.2528 18.7656 32.5255 18.7656 32.8664C18.7656 33.3395 18.9403 33.6974 19.2898 33.9403C19.6392 34.1789 20.0845 34.2983 20.6257 34.2983Z" fill="black"/>
  <path d="M1.44476 35.615V25.7968H3.27928V27.3949H3.40073C3.60527 26.8537 3.93979 26.4318 4.40428 26.1292C4.86877 25.8224 5.42488 25.669 6.0726 25.669C6.72885 25.669 7.27857 25.8224 7.72175 26.1292C8.1692 26.436 8.49945 26.8579 8.71252 27.3949H8.81479C9.04917 26.8707 9.42204 26.4531 9.9334 26.142C10.4448 25.8267 11.0541 25.669 11.7615 25.669C12.6521 25.669 13.3787 25.9481 13.9412 26.5064C14.508 27.0646 14.7914 27.9062 14.7914 29.0312V35.615H12.8801V29.2102C12.8801 28.5454 12.699 28.0639 12.3368 27.7656C11.9746 27.4673 11.5421 27.3182 11.0392 27.3182C10.4171 27.3182 9.9334 27.5099 9.58823 27.8934C9.24306 28.2727 9.07047 28.7606 9.07047 29.3572V35.615H7.16564V29.0887C7.16564 28.5561 6.99945 28.1278 6.66706 27.8039C6.33468 27.4801 5.90215 27.3182 5.36948 27.3182C5.00726 27.3182 4.67275 27.414 4.36593 27.6058C4.06337 27.7933 3.81834 28.0554 3.63084 28.392C3.4476 28.7287 3.35598 29.1186 3.35598 29.5618V35.615H1.44476Z" fill="black"/>
  <path d="M88.2583 13.8132C87.291 13.8132 86.4579 13.6065 85.759 13.1932C85.0644 12.7755 84.5275 12.1896 84.1483 11.4353C83.7733 10.6768 83.5858 9.78832 83.5858 8.76986C83.5858 7.76418 83.7733 6.87781 84.1483 6.11077C84.5275 5.34372 85.0559 4.745 85.7335 4.3146C86.4153 3.88421 87.2122 3.66901 88.1241 3.66901C88.6781 3.66901 89.215 3.76063 89.7349 3.94386C90.2548 4.1271 90.7214 4.41474 91.1348 4.80679C91.5481 5.19884 91.8741 5.70807 92.1127 6.33449C92.3514 6.95665 92.4707 7.71304 92.4707 8.60367V9.28122H84.666V7.8494H90.5978C90.5978 7.34656 90.4956 6.90125 90.291 6.51347C90.0865 6.12142 89.7988 5.81247 89.4281 5.58662C89.0616 5.36077 88.6312 5.24784 88.1369 5.24784C87.6 5.24784 87.1312 5.37994 86.7306 5.64415C86.3343 5.90409 86.0275 6.245 85.8102 6.66688C85.5971 7.08449 85.4906 7.53832 85.4906 8.02838V9.14699C85.4906 9.80324 85.6056 10.3615 85.8358 10.8217C86.0701 11.2819 86.3961 11.6335 86.8137 11.8764C87.2313 12.115 87.7193 12.2343 88.2775 12.2343C88.6397 12.2343 88.97 12.1832 89.2683 12.0809C89.5666 11.9744 89.8244 11.8167 90.0417 11.6079C90.259 11.3991 90.4252 11.1413 90.5403 10.8345L92.3493 11.1605C92.2044 11.6932 91.9444 12.1598 91.5694 12.5603C91.1987 12.9566 90.7321 13.2656 90.1696 13.4872C89.6113 13.7045 88.9742 13.8132 88.2583 13.8132Z" fill="black"/>
  <path d="M82.0181 3.79685V5.33094H76.6552V3.79685H82.0181ZM78.0934 1.44458H80.0046V10.7322C80.0046 11.103 80.06 11.3821 80.1708 11.5696C80.2816 11.7528 80.4243 11.8785 80.599 11.9467C80.778 12.0106 80.9719 12.0426 81.1807 12.0426C81.3341 12.0426 81.4684 12.0319 81.5834 12.0106C81.6985 11.9893 81.788 11.9723 81.8519 11.9595L82.1971 13.5383C82.0863 13.5809 81.9286 13.6236 81.724 13.6662C81.5195 13.713 81.2638 13.7386 80.957 13.7429C80.4542 13.7514 79.9854 13.6619 79.5507 13.4744C79.1161 13.2869 78.7645 12.9971 78.4961 12.6051C78.2276 12.213 78.0934 11.7209 78.0934 11.1285V1.44458Z" fill="black"/>
  <path d="M70.0442 13.8324C69.4221 13.8324 68.8596 13.7173 68.3567 13.4872C67.8539 13.2528 67.4554 12.914 67.1614 12.4709C66.8716 12.0277 66.7267 11.4843 66.7267 10.8409C66.7267 10.2869 66.8333 9.83094 67.0463 9.47298C67.2594 9.11503 67.5471 8.83165 67.9093 8.62284C68.2715 8.41403 68.6763 8.25636 69.1238 8.14983C69.5712 8.0433 70.0272 7.96233 70.4917 7.90693C71.0797 7.83875 71.557 7.78335 71.9235 7.74074C72.29 7.69386 72.5563 7.61929 72.7225 7.51702C72.8887 7.41475 72.9718 7.24855 72.9718 7.01844V6.97369C72.9718 6.41546 72.8141 5.98293 72.4988 5.67611C72.1877 5.36929 71.7232 5.21588 71.1053 5.21588C70.4618 5.21588 69.9547 5.35864 69.584 5.64415C69.2175 5.9254 68.964 6.23861 68.8233 6.58378L67.0272 6.17469C67.2402 5.5781 67.5513 5.09656 67.9604 4.73009C68.3738 4.35935 68.8489 4.09088 69.3858 3.92469C69.9228 3.75423 70.4874 3.66901 71.0797 3.66901C71.4718 3.66901 71.8873 3.71588 72.3262 3.80963C72.7694 3.89912 73.1827 4.06531 73.5662 4.30821C73.954 4.55111 74.2715 4.89841 74.5186 5.35011C74.7658 5.79756 74.8894 6.37923 74.8894 7.09514V13.615H73.0229V12.2727H72.9462C72.8226 12.5199 72.6372 12.7628 72.3901 13.0014C72.1429 13.24 71.8255 13.4382 71.4377 13.5959C71.0499 13.7535 70.5854 13.8324 70.0442 13.8324ZM70.4597 12.2983C70.9881 12.2983 71.4398 12.1939 71.8148 11.9851C72.1941 11.7762 72.4817 11.5035 72.6777 11.1669C72.878 10.826 72.9782 10.4616 72.9782 10.0738V8.80821C72.91 8.87639 72.7779 8.94031 72.5819 8.99997C72.3901 9.05537 72.1706 9.10438 71.9235 9.14699C71.6763 9.18534 71.4355 9.22156 71.2012 9.25565C70.9668 9.28548 70.7708 9.31105 70.6131 9.33236C70.2424 9.37923 69.9036 9.45807 69.5968 9.56886C69.2942 9.67966 69.0513 9.83946 68.8681 10.0483C68.6891 10.2528 68.5996 10.5255 68.5996 10.8664C68.5996 11.3395 68.7743 11.6974 69.1238 11.9403C69.4732 12.179 69.9185 12.2983 70.4597 12.2983Z" fill="black"/>
  <path d="M64.6157 0.52417V13.6151H62.7045V0.52417H64.6157Z" fill="black"/>
  <path d="M58.2189 9.54332V3.79688H60.1365V13.6151H58.2573V11.9148H58.155C57.9291 12.4389 57.5669 12.8757 57.0683 13.2251C56.574 13.5703 55.9583 13.7429 55.221 13.7429C54.5904 13.7429 54.0321 13.6044 53.5463 13.3274C53.0648 13.0462 52.6855 12.6307 52.4085 12.081C52.1358 11.5313 51.9995 10.8516 51.9995 10.0419V3.79688H53.9107V9.81179C53.9107 10.4808 54.096 11.0135 54.4668 11.4098C54.8375 11.8061 55.3191 12.0043 55.9114 12.0043C56.2693 12.0043 56.6252 11.9148 56.9789 11.7358C57.3368 11.5568 57.633 11.2862 57.8673 10.924C58.106 10.5618 58.2232 10.1016 58.2189 9.54332Z" fill="black"/>
  <path d="M45.9222 13.8132C44.9719 13.8132 44.1538 13.598 43.4677 13.1676C42.7859 12.7329 42.2617 12.1342 41.8952 11.3714C41.5288 10.6086 41.3455 9.73506 41.3455 8.75068C41.3455 7.75352 41.533 6.87355 41.908 6.11077C42.283 5.34372 42.8114 4.745 43.4932 4.3146C44.1751 3.88421 44.9783 3.66901 45.903 3.66901C46.6488 3.66901 47.3136 3.8075 47.8974 4.08449C48.4812 4.35722 48.9521 4.74074 49.31 5.23506C49.6722 5.72938 49.8874 6.30679 49.9556 6.9673H48.0955C47.9932 6.50707 47.7589 6.11077 47.3924 5.77838C47.0302 5.446 46.5444 5.2798 45.935 5.2798C45.4023 5.2798 44.9357 5.42043 44.5352 5.70168C44.1388 5.97867 43.8299 6.37497 43.6083 6.8906C43.3867 7.40196 43.2759 8.00707 43.2759 8.70594C43.2759 9.42185 43.3846 10.0397 43.6019 10.5596C43.8192 11.0795 44.1261 11.4822 44.5224 11.7677C44.9229 12.0532 45.3938 12.196 45.935 12.196C46.2972 12.196 46.6253 12.1299 46.9194 11.9978C47.2177 11.8615 47.467 11.6676 47.6673 11.4162C47.8718 11.1647 48.0146 10.8622 48.0955 10.5085H49.9556C49.8874 11.1434 49.6807 11.7102 49.3356 12.2088C48.9904 12.7074 48.528 13.0994 47.9485 13.3849C47.3732 13.6704 46.6978 13.8132 45.9222 13.8132Z" fill="black"/>
  <path d="M37.3041 13.6151V3.79688H39.2153V13.6151H37.3041ZM38.2693 2.28196C37.9369 2.28196 37.6514 2.17116 37.4128 1.94957C37.1784 1.72372 37.0612 1.45526 37.0612 1.14418C37.0612 0.828835 37.1784 0.560369 37.4128 0.338778C37.6514 0.112926 37.9369 0 38.2693 0C38.6017 0 38.8851 0.112926 39.1195 0.338778C39.3581 0.560369 39.4774 0.828835 39.4774 1.14418C39.4774 1.45526 39.3581 1.72372 39.1195 1.94957C38.8851 2.17116 38.6017 2.28196 38.2693 2.28196Z" fill="black"/>
  <path d="M35.19 3.79685V5.33094H29.827V3.79685H35.19ZM31.2652 1.44458H33.1765V10.7322C33.1765 11.103 33.2319 11.3821 33.3426 11.5696C33.4534 11.7528 33.5962 11.8785 33.7709 11.9467C33.9499 12.0106 34.1438 12.0426 34.3526 12.0426C34.506 12.0426 34.6402 12.0319 34.7553 12.0106C34.8703 11.9893 34.9598 11.9723 35.0238 11.9595L35.3689 13.5383C35.2581 13.5809 35.1005 13.6236 34.8959 13.6662C34.6914 13.713 34.4357 13.7386 34.1289 13.7429C33.626 13.7514 33.1573 13.6619 32.7226 13.4744C32.288 13.2869 31.9364 12.9971 31.6679 12.6051C31.3995 12.213 31.2652 11.7209 31.2652 11.1285V1.44458Z" fill="black"/>
  <path d="M23.1186 13.615V3.79686H24.9659V5.35652H25.0682C25.2471 4.82811 25.5625 4.41263 26.0142 4.11007C26.4702 3.80325 26.9858 3.64984 27.5611 3.64984C27.6804 3.64984 27.821 3.6541 27.9829 3.66263C28.1491 3.67115 28.2791 3.6818 28.3729 3.69459V5.52271C28.2961 5.5014 28.1598 5.47797 27.9638 5.4524C27.7677 5.42257 27.5717 5.40765 27.3757 5.40765C26.924 5.40765 26.5213 5.50353 26.1676 5.6953C25.8182 5.8828 25.5412 6.14487 25.3366 6.48152C25.1321 6.8139 25.0298 7.19317 25.0298 7.6193V13.615H23.1186Z" fill="black"/>
  <path d="M15.7278 13.8324C15.1057 13.8324 14.5432 13.7173 14.0403 13.4872C13.5375 13.2528 13.139 12.914 12.845 12.4709C12.5552 12.0277 12.4103 11.4843 12.4103 10.8409C12.4103 10.2869 12.5169 9.83094 12.7299 9.47298C12.943 9.11503 13.2307 8.83165 13.5929 8.62284C13.9551 8.41403 14.3599 8.25636 14.8074 8.14983C15.2548 8.0433 15.7108 7.96233 16.1753 7.90693C16.7633 7.83875 17.2406 7.78335 17.6071 7.74074C17.9736 7.69386 18.2399 7.61929 18.4061 7.51702C18.5723 7.41475 18.6554 7.24855 18.6554 7.01844V6.97369C18.6554 6.41546 18.4977 5.98293 18.1824 5.67611C17.8713 5.36929 17.4068 5.21588 16.7889 5.21588C16.1454 5.21588 15.6383 5.35864 15.2676 5.64415C14.9011 5.9254 14.6476 6.23861 14.5069 6.58378L12.7108 6.17469C12.9238 5.5781 13.2349 5.09656 13.644 4.73009C14.0574 4.35935 14.5325 4.09088 15.0694 3.92469C15.6064 3.75423 16.171 3.66901 16.7633 3.66901C17.1554 3.66901 17.5709 3.71588 18.0098 3.80963C18.453 3.89912 18.8663 4.06531 19.2498 4.30821C19.6376 4.55111 19.9551 4.89841 20.2022 5.35011C20.4494 5.79756 20.573 6.37923 20.573 7.09514V13.615H18.7065V12.2727H18.6298C18.5062 12.5199 18.3209 12.7628 18.0737 13.0014C17.8265 13.24 17.5091 13.4382 17.1213 13.5959C16.7335 13.7535 16.269 13.8324 15.7278 13.8324ZM16.1433 12.2983C16.6717 12.2983 17.1234 12.1939 17.4984 11.9851C17.8777 11.7762 18.1653 11.5035 18.3613 11.1669C18.5616 10.826 18.6618 10.4616 18.6618 10.0738V8.80821C18.5936 8.87639 18.4615 8.94031 18.2655 8.99997C18.0737 9.05537 17.8542 9.10438 17.6071 9.14699C17.3599 9.18534 17.1191 9.22156 16.8848 9.25565C16.6504 9.28548 16.4544 9.31105 16.2967 9.33236C15.926 9.37923 15.5872 9.45807 15.2804 9.56886C14.9778 9.67966 14.7349 9.83946 14.5517 10.0483C14.3727 10.2528 14.2832 10.5255 14.2832 10.8664C14.2832 11.3395 14.4579 11.6974 14.8074 11.9403C15.1568 12.179 15.6021 12.2983 16.1433 12.2983Z" fill="black"/>
  <path d="M1.59814 13.6151V0.52417H6.26434C7.2828 0.52417 8.12655 0.709539 8.79559 1.08028C9.46462 1.45102 9.96533 1.95812 10.2977 2.60158C10.6301 3.24079 10.7963 3.96096 10.7963 4.7621C10.7963 5.56749 10.628 6.29193 10.2913 6.93539C9.95894 7.5746 9.4561 8.0817 8.7828 8.4567C8.11377 8.82744 7.27215 9.01281 6.25795 9.01281H3.04914V7.33809H6.07897C6.72243 7.33809 7.24445 7.2273 7.64502 7.0057C8.04559 6.77985 8.33962 6.47303 8.52712 6.08525C8.71462 5.69747 8.80837 5.25641 8.80837 4.7621C8.80837 4.26778 8.71462 3.82886 8.52712 3.44533C8.33962 3.06181 8.04346 2.76139 7.63863 2.54406C7.23806 2.32673 6.70965 2.21806 6.0534 2.21806H3.57329V13.6151H1.59814Z" fill="black"/>
  <path d="M1.51709 61.8612V49.9587H2.84711V55.0759C2.84711 55.5455 2.94479 55.9588 3.14016 56.3157C3.33929 56.6689 3.61732 56.945 3.97424 57.1442C4.33493 57.3433 4.75572 57.4429 5.23664 57.4429C5.71755 57.4429 6.13646 57.3433 6.49339 57.1442C6.85407 56.9413 7.1321 56.6633 7.32747 56.3101C7.5266 55.9532 7.62616 55.5418 7.62616 55.0759V49.9587H8.95618V58.6151H7.62616V57.3301H7.55853C7.32559 57.7848 7.0006 58.1323 6.58356 58.3727C6.16652 58.6094 5.71755 58.7278 5.23664 58.7278C4.75572 58.7278 4.30675 58.6094 3.88971 58.3727C3.47643 58.1323 3.15144 57.7848 2.91474 57.3301H2.84711V61.8612H1.51709Z" fill="black"/>
  <path d="M43.584 56.7729C42.8401 56.7729 42.1769 56.6451 41.5946 56.3896C41.016 56.1342 40.5558 55.7791 40.2139 55.3245C39.8757 54.8661 39.6916 54.3345 39.6616 53.7296H41.0818C41.1118 54.1016 41.2396 54.4228 41.465 54.6933C41.6904 54.9601 41.9853 55.1667 42.3498 55.3132C42.7142 55.4598 43.1181 55.533 43.5614 55.533C44.0574 55.533 44.497 55.4466 44.8802 55.2738C45.2634 55.1009 45.564 54.8605 45.7819 54.5524C45.9998 54.2443 46.1088 53.8874 46.1088 53.4816C46.1088 53.0571 46.0036 52.6832 45.7932 52.3601C45.5828 52.0333 45.2747 51.7778 44.8689 51.5937C44.4632 51.4096 43.9672 51.3175 43.3811 51.3175H42.4569V50.0777H43.3811C43.8395 50.0777 44.2415 49.995 44.5871 49.8297C44.9366 49.6644 45.2089 49.4315 45.4043 49.1309C45.6034 48.8303 45.703 48.4772 45.703 48.0714C45.703 47.6806 45.6166 47.3406 45.4438 47.0513C45.2709 46.762 45.0267 46.5366 44.7111 46.375C44.3993 46.2135 44.0311 46.1327 43.6065 46.1327C43.2083 46.1327 42.8326 46.206 42.4794 46.3525C42.13 46.4953 41.8444 46.7038 41.6228 46.9781C41.4011 47.2486 41.2809 47.5754 41.2621 47.9587H39.9095C39.9321 47.3538 40.1143 46.824 40.4562 46.3694C40.7981 45.911 41.2452 45.5541 41.7975 45.2986C42.3535 45.0431 42.9641 44.9154 43.6291 44.9154C44.3429 44.9154 44.9553 45.0601 45.4663 45.3494C45.9773 45.6349 46.3699 46.0125 46.6442 46.4821C46.9184 46.9518 47.0556 47.459 47.0556 48.0038C47.0556 48.6537 46.8846 49.2079 46.5427 49.6663C46.2046 50.1246 45.7443 50.4421 45.162 50.6187V50.7089C45.8909 50.8291 46.4601 51.1391 46.8696 51.6388C47.2791 52.1347 47.4839 52.749 47.4839 53.4816C47.4839 54.1091 47.3129 54.6726 46.971 55.1723C46.6329 55.6683 46.1708 56.059 45.5847 56.3446C44.9985 56.6301 44.3317 56.7729 43.584 56.7729Z" fill="black"/>
  <path d="M25.9133 56.6151V47.9587H27.1983V49.3112H27.311C27.4913 48.8491 27.7825 48.4903 28.1845 48.2348C28.5865 47.9756 29.0693 47.8459 29.6329 47.8459C30.204 47.8459 30.6792 47.9756 31.0587 48.2348C31.4419 48.4903 31.7406 48.8491 31.9548 49.3112H32.0449C32.2666 48.8641 32.5991 48.5091 33.0425 48.2461C33.4858 47.9793 34.0174 47.8459 34.6374 47.8459C35.4113 47.8459 36.0444 48.0883 36.5366 48.5729C37.0288 49.0539 37.2749 49.8034 37.2749 50.8216V56.6151H35.9448V50.8216C35.9448 50.1829 35.7701 49.7264 35.4207 49.4521C35.0713 49.1778 34.6599 49.0407 34.1865 49.0407C33.5778 49.0407 33.1063 49.2248 32.7719 49.593C32.4376 49.9574 32.2704 50.4196 32.2704 50.9794V56.6151H30.9178V50.6863C30.9178 50.1941 30.7581 49.7978 30.4388 49.4972C30.1194 49.1929 29.708 49.0407 29.2046 49.0407C28.8589 49.0407 28.5358 49.1328 28.2352 49.3169C27.9384 49.501 27.698 49.7564 27.5139 50.0833C27.3335 50.4064 27.2433 50.7803 27.2433 51.2048V56.6151H25.9133Z" fill="black"/>
  <path d="M24.3368 44.5322L20.6172 58.3508H19.3999L23.1194 44.5322H24.3368Z" fill="black"/>
  <path d="M14.0798 60.0415C13.4374 60.0415 12.8851 59.9589 12.4229 59.7936C11.9608 59.632 11.5757 59.4179 11.2676 59.1511C10.9633 58.8881 10.721 58.6063 10.5406 58.3058L11.6001 57.5619C11.7203 57.7196 11.8725 57.9 12.0566 58.1029C12.2407 58.3095 12.4924 58.488 12.8118 58.6383C13.1349 58.7923 13.5576 58.8693 14.0798 58.8693C14.7786 58.8693 15.3554 58.7003 15.81 58.3621C16.2646 58.024 16.4919 57.4942 16.4919 56.7729V55.0145H16.3792C16.2815 55.1723 16.1425 55.3677 15.9621 55.6006C15.7855 55.8298 15.5301 56.0346 15.1957 56.2149C14.8651 56.3915 14.418 56.4798 13.8544 56.4798C13.1556 56.4798 12.5281 56.3145 11.9721 55.9839C11.4198 55.6532 10.9821 55.1723 10.659 54.5411C10.3396 53.9099 10.1799 53.1435 10.1799 52.2418C10.1799 51.3551 10.3359 50.583 10.6477 49.9255C10.9595 49.2643 11.3935 48.7533 11.9495 48.3926C12.5056 48.0282 13.1481 47.8459 13.8769 47.8459C14.4405 47.8459 14.8876 47.9399 15.2182 48.1277C15.5526 48.3118 15.8081 48.5222 15.9847 48.7589C16.165 48.9919 16.304 49.1835 16.4017 49.3338H16.537V47.9587H17.8219V56.863C17.8219 57.6069 17.6528 58.2118 17.3147 58.6777C16.9803 59.1474 16.5295 59.4911 15.9621 59.709C15.3986 59.9307 14.7711 60.0415 14.0798 60.0415ZM14.0347 55.285C14.5682 55.285 15.0191 55.1629 15.3873 54.9187C15.7555 54.6745 16.0354 54.3232 16.227 53.8648C16.4186 53.4065 16.5144 52.8579 16.5144 52.2192C16.5144 51.5955 16.4205 51.0451 16.2326 50.568C16.0448 50.0908 15.7668 49.717 15.3986 49.4465C15.0304 49.176 14.5758 49.0407 14.0347 49.0407C13.4712 49.0407 13.0015 49.1835 12.6258 49.469C12.2539 49.7546 11.974 50.1378 11.7861 50.6187C11.602 51.0996 11.51 51.6331 11.51 52.2192C11.51 52.8204 11.6039 53.352 11.7917 53.8141C11.9833 54.2725 12.2651 54.6332 12.6371 54.8962C13.0128 55.1554 13.4787 55.285 14.0347 55.285Z" fill="black"/>
  <defs>
    <linearGradient id="paint0_linear_0_1" x1="-7.19818" y1="190.846" x2="-7.19818" y2="69.9313" gradientUnits="userSpaceOnUse">
      <stop stop-color="white"/>
      <stop offset="0.25" stop-color="#F0F0F0"/>
      <stop offset="0.5" stop-color="#7D7C78"/>
      <stop offset="0.75" stop-color="#BEAF6F"/>
      <stop offset="1" stop-color="#FFEA46"/>
    </linearGradient>
  </defs>
</svg>
