<svg width="156" height="181" viewBox="0 0 156 181" fill="none" xmlns="http://www.w3.org/2000/svg">
  <path d="M45.3413 32.8563V31.8419L49.151 27.6715C49.5981 27.183 49.9663 26.7585 50.2556 26.3978C50.5449 26.0334 50.7591 25.6915 50.8981 25.3721C51.0409 25.049 51.1122 24.7109 51.1122 24.3577C51.1122 23.9519 51.0146 23.6006 50.8192 23.3038C50.6276 23.007 50.3646 22.7778 50.0302 22.6163C49.6958 22.4547 49.3201 22.3739 48.9031 22.3739C48.4597 22.3739 48.0727 22.466 47.7421 22.6501C47.4152 22.8304 47.1616 23.084 46.9813 23.4109C46.8047 23.7378 46.7164 24.121 46.7164 24.5606H45.3864C45.3864 23.8843 45.5423 23.2907 45.8542 22.7797C46.166 22.2687 46.5906 21.8705 47.1278 21.5849C47.6688 21.2994 48.2756 21.1566 48.9481 21.1566C49.6244 21.1566 50.2237 21.2994 50.7459 21.5849C51.2682 21.8705 51.6777 22.2556 51.9745 22.7403C52.2713 23.2249 52.4197 23.7641 52.4197 24.3577C52.4197 24.7822 52.3427 25.1974 52.1887 25.6032C52.0384 26.0052 51.7754 26.4542 51.3997 26.9501C51.0277 27.4423 50.5111 28.0434 49.8498 28.7535L47.2574 31.5263V31.6164H52.6226V32.8563H45.3413Z" fill="black"/>
  <path d="M31.5705 32.8563V24.1999H32.8555V25.5525H32.9682C33.1485 25.0903 33.4397 24.7315 33.8417 24.476C34.2437 24.2168 34.7265 24.0872 35.2901 24.0872C35.8612 24.0872 36.3364 24.2168 36.7159 24.476C37.0991 24.7315 37.3978 25.0903 37.612 25.5525H37.7021C37.9238 25.1054 38.2563 24.7503 38.6997 24.4873C39.143 24.2206 39.6746 24.0872 40.2946 24.0872C41.0685 24.0872 41.7016 24.3295 42.1938 24.8142C42.686 25.2951 42.932 26.0446 42.932 27.0628V32.8563H41.602V27.0628C41.602 26.4241 41.4273 25.9676 41.0779 25.6934C40.7285 25.4191 40.3171 25.282 39.8437 25.282C39.235 25.282 38.7635 25.466 38.4291 25.8342C38.0948 26.1987 37.9276 26.6608 37.9276 27.2206V32.8563H36.575V26.9276C36.575 26.4354 36.4153 26.039 36.096 25.7384C35.7766 25.4341 35.3652 25.282 34.8618 25.282C34.5161 25.282 34.193 25.374 33.8924 25.5581C33.5956 25.7422 33.3552 25.9977 33.1711 26.3246C32.9907 26.6477 32.9005 27.0215 32.9005 27.4461V32.8563H31.5705Z" fill="black"/>
  <path d="M29.9939 20.7734L26.2744 34.5921H25.0571L28.7766 20.7734H29.9939Z" fill="black"/>
  <path d="M19.737 36.2828C19.0945 36.2828 18.5423 36.2001 18.0801 36.0348C17.618 35.8733 17.2329 35.6591 16.9248 35.3924C16.6205 35.1294 16.3782 34.8476 16.1978 34.547L17.2573 33.8031C17.3775 33.9609 17.5297 34.1412 17.7138 34.3441C17.8979 34.5508 18.1496 34.7292 18.469 34.8795C18.7921 35.0335 19.2148 35.1106 19.737 35.1106C20.4358 35.1106 21.0126 34.9415 21.4672 34.6034C21.9218 34.2652 22.1491 33.7355 22.1491 33.0141V31.2558H22.0364C21.9387 31.4136 21.7997 31.6089 21.6193 31.8419C21.4427 32.0711 21.1873 32.2758 20.8529 32.4562C20.5223 32.6328 20.0752 32.721 19.5116 32.721C18.8128 32.721 18.1853 32.5557 17.6293 32.2251C17.077 31.8945 16.6393 31.4136 16.3162 30.7824C15.9968 30.1512 15.8371 29.3847 15.8371 28.483C15.8371 27.5963 15.993 26.8242 16.3049 26.1668C16.6167 25.5055 17.0507 24.9945 17.6067 24.6338C18.1628 24.2694 18.8052 24.0872 19.5341 24.0872C20.0977 24.0872 20.5448 24.1811 20.8754 24.369C21.2098 24.5531 21.4653 24.7635 21.6419 25.0002C21.8222 25.2331 21.9612 25.4247 22.0589 25.575H22.1942V24.1999H23.4791V33.1043C23.4791 33.8482 23.31 34.4531 22.9719 34.919C22.6375 35.3886 22.1867 35.7324 21.6193 35.9503C21.0558 36.172 20.4283 36.2828 19.737 36.2828ZM19.6919 31.5263C20.2254 31.5263 20.6763 31.4042 21.0445 31.16C21.4127 30.9157 21.6926 30.5645 21.8842 30.1061C22.0758 29.6477 22.1716 29.0992 22.1716 28.4605C22.1716 27.8368 22.0777 27.2864 21.8898 26.8092C21.702 26.3321 21.424 25.9582 21.0558 25.6877C20.6876 25.4172 20.233 25.282 19.6919 25.282C19.1284 25.282 18.6587 25.4247 18.283 25.7103C17.9111 25.9958 17.6312 26.379 17.4433 26.8599C17.2592 27.3409 17.1671 27.8744 17.1671 28.4605C17.1671 29.0616 17.2611 29.5932 17.4489 30.0554C17.6405 30.5137 17.9223 30.8744 18.2943 31.1374C18.67 31.3967 19.1359 31.5263 19.6919 31.5263Z" fill="black"/>
  <path d="M2.44958 32.8563V24.1999H3.73452V25.5525H3.84723C4.02757 25.0903 4.31875 24.7315 4.72076 24.476C5.12277 24.2168 5.60556 24.0872 6.16913 24.0872C6.74021 24.0872 7.21549 24.2168 7.59496 24.476C7.97818 24.7315 8.27687 25.0903 8.49103 25.5525H8.5812C8.80287 25.1054 9.13537 24.7503 9.57871 24.4873C10.0221 24.2206 10.5537 24.0872 11.1736 24.0872C11.9476 24.0872 12.5806 24.3295 13.0728 24.8142C13.565 25.2951 13.8111 26.0446 13.8111 27.0628V32.8563H12.4811V27.0628C12.4811 26.4241 12.3064 25.9676 11.957 25.6934C11.6076 25.4191 11.1962 25.282 10.7228 25.282C10.1141 25.282 9.64258 25.466 9.3082 25.8342C8.97382 26.1987 8.80663 26.6608 8.80663 27.2206V32.8563H7.45406V26.9276C7.45406 26.4354 7.29439 26.039 6.97503 25.7384C6.65568 25.4341 6.24427 25.282 5.74082 25.282C5.39516 25.282 5.07205 25.374 4.77148 25.5581C4.47467 25.7422 4.23422 25.9977 4.05012 26.3246C3.86978 26.6477 3.7796 27.0215 3.7796 27.4461V32.8563H2.44958Z" fill="black"/>
  <path d="M157.23 12.0665L157.134 12.7633C157.07 13.2746 156.962 13.8073 156.808 14.3613C156.659 14.9195 156.504 15.4373 156.342 15.9145C156.184 16.3918 156.054 16.7711 155.952 17.0523H154.597C154.652 16.7881 154.729 16.4302 154.827 15.9785C154.925 15.531 155.021 15.0303 155.114 14.4763C155.208 13.9224 155.278 13.3577 155.325 12.7824L155.389 12.0665H157.23Z" fill="black"/>
  <path d="M148.411 14.0545C147.443 14.0545 146.61 13.8478 145.911 13.4344C145.217 13.0168 144.68 12.4309 144.301 11.6766C143.926 10.9181 143.738 10.0296 143.738 9.01113C143.738 8.00545 143.926 7.11908 144.301 6.35204C144.68 5.58499 145.208 4.98627 145.886 4.55587C146.568 4.12548 147.365 3.91028 148.276 3.91028C148.83 3.91028 149.367 4.0019 149.887 4.18514C150.407 4.36838 150.874 4.65602 151.287 5.04806C151.701 5.44011 152.027 5.94934 152.265 6.57576C152.504 7.19792 152.623 7.95431 152.623 8.84494V9.52249H144.818V8.09068H150.75C150.75 7.58784 150.648 7.14252 150.443 6.75474C150.239 6.36269 149.951 6.05374 149.58 5.82789C149.214 5.60204 148.784 5.48911 148.289 5.48911C147.752 5.48911 147.284 5.62122 146.883 5.88542C146.487 6.14536 146.18 6.48627 145.963 6.90815C145.75 7.32576 145.643 7.7796 145.643 8.26965V9.38826C145.643 10.0445 145.758 10.6028 145.988 11.063C146.223 11.5232 146.549 11.8748 146.966 12.1177C147.384 12.3563 147.872 12.4756 148.43 12.4756C148.792 12.4756 149.122 12.4245 149.421 12.3222C149.719 12.2157 149.977 12.058 150.194 11.8492C150.411 11.6404 150.578 11.3826 150.693 11.0758L152.502 11.4018C152.357 11.9344 152.097 12.401 151.722 12.8016C151.351 13.1979 150.884 13.5069 150.322 13.7285C149.764 13.9458 149.127 14.0545 148.411 14.0545Z" fill="black"/>
  <path d="M136.587 14.0481C135.794 14.0481 135.087 13.8457 134.465 13.4408C133.847 13.0317 133.361 12.4501 133.007 11.6958C132.658 10.9373 132.483 10.0275 132.483 8.96639C132.483 7.90531 132.66 6.99764 133.014 6.24338C133.372 5.48912 133.862 4.9117 134.484 4.51114C135.106 4.11057 135.811 3.91028 136.6 3.91028C137.209 3.91028 137.699 4.01256 138.07 4.2171C138.445 4.41738 138.735 4.65176 138.939 4.92023C139.148 5.18869 139.31 5.4252 139.425 5.62974H139.54V0.765396H141.451V13.8563H139.585V12.3286H139.425C139.31 12.5374 139.144 12.776 138.927 13.0445C138.713 13.313 138.419 13.5474 138.044 13.7476C137.669 13.9479 137.184 14.0481 136.587 14.0481ZM137.009 12.4181C137.559 12.4181 138.023 12.2732 138.402 11.9834C138.786 11.6894 139.076 11.2824 139.272 10.7626C139.472 10.2427 139.572 9.63756 139.572 8.94721C139.572 8.2654 139.474 7.66881 139.278 7.15744C139.082 6.64608 138.794 6.24764 138.415 5.96213C138.036 5.67662 137.567 5.53386 137.009 5.53386C136.434 5.53386 135.954 5.68301 135.571 5.98131C135.187 6.2796 134.897 6.68656 134.701 7.20219C134.51 7.71781 134.414 8.29949 134.414 8.94721C134.414 9.60346 134.512 10.1937 134.708 10.7178C134.904 11.242 135.194 11.6574 135.577 11.9643C135.965 12.2668 136.442 12.4181 137.009 12.4181Z" fill="black"/>
  <path d="M128.429 13.8563V4.03812H130.34V13.8563H128.429ZM129.394 2.5232C129.062 2.5232 128.777 2.41241 128.538 2.19081C128.303 1.96496 128.186 1.6965 128.186 1.38542C128.186 1.07008 128.303 0.801611 128.538 0.580019C128.777 0.354167 129.062 0.241241 129.394 0.241241C129.727 0.241241 130.01 0.354167 130.245 0.580019C130.483 0.801611 130.603 1.07008 130.603 1.38542C130.603 1.6965 130.483 1.96496 130.245 2.19081C130.01 2.41241 129.727 2.5232 129.394 2.5232Z" fill="black"/>
  <path d="M120.024 4.03812L122.191 7.86056L124.377 4.03812H126.467L123.405 8.94721L126.492 13.8563H124.402L122.191 10.1873L119.985 13.8563H117.889L120.944 8.94721L117.927 4.03812H120.024Z" fill="black"/>
  <path d="M112.192 14.0545C111.271 14.0545 110.468 13.8435 109.782 13.4216C109.096 12.9998 108.563 12.4096 108.184 11.651C107.805 10.8925 107.615 10.0062 107.615 8.99195C107.615 7.97349 107.805 7.08286 108.184 6.32008C108.563 5.55729 109.096 4.96497 109.782 4.54309C110.468 4.12122 111.271 3.91028 112.192 3.91028C113.112 3.91028 113.916 4.12122 114.602 4.54309C115.288 4.96497 115.82 5.55729 116.2 6.32008C116.579 7.08286 116.769 7.97349 116.769 8.99195C116.769 10.0062 116.579 10.8925 116.2 11.651C115.82 12.4096 115.288 12.9998 114.602 13.4216C113.916 13.8435 113.112 14.0545 112.192 14.0545ZM112.198 12.4501C112.795 12.4501 113.289 12.2924 113.681 11.977C114.073 11.6617 114.363 11.242 114.55 10.7178C114.742 10.1937 114.838 9.61624 114.838 8.98556C114.838 8.35914 114.742 7.78386 114.55 7.25971C114.363 6.7313 114.073 6.3073 113.681 5.98769C113.289 5.66809 112.795 5.50829 112.198 5.50829C111.597 5.50829 111.099 5.66809 110.702 5.98769C110.31 6.3073 110.019 6.7313 109.827 7.25971C109.639 7.78386 109.546 8.35914 109.546 8.98556C109.546 9.61624 109.639 10.1937 109.827 10.7178C110.019 11.242 110.31 11.6617 110.702 11.977C111.099 12.2924 111.597 12.4501 112.198 12.4501Z" fill="black"/>
  <path d="M99.2096 8.02676V13.8563H97.2983V4.03812H99.1329V5.63613H99.2543C99.4802 5.11624 99.8339 4.69863 100.315 4.38329C100.801 4.06795 101.413 3.91028 102.15 3.91028C102.819 3.91028 103.405 4.0509 103.908 4.33215C104.411 4.60914 104.8 5.02249 105.077 5.57221C105.354 6.12193 105.493 6.80161 105.493 7.61127V13.8563H103.582V7.84139C103.582 7.12974 103.396 6.57363 103.026 6.17306C102.655 5.76823 102.146 5.56582 101.498 5.56582C101.055 5.56582 100.661 5.6617 100.315 5.85346C99.9745 6.04522 99.7039 6.32647 99.5036 6.69721C99.3076 7.06369 99.2096 7.50687 99.2096 8.02676Z" fill="black"/>
  <path d="M90.5883 14.0545C89.6678 14.0545 88.8646 13.8435 88.1785 13.4216C87.4924 12.9998 86.9598 12.4096 86.5805 11.651C86.2012 10.8925 86.0116 10.0062 86.0116 8.99195C86.0116 7.97349 86.2012 7.08286 86.5805 6.32008C86.9598 5.55729 87.4924 4.96497 88.1785 4.54309C88.8646 4.12122 89.6678 3.91028 90.5883 3.91028C91.5088 3.91028 92.312 4.12122 92.9981 4.54309C93.6842 4.96497 94.2169 5.55729 94.5961 6.32008C94.9754 7.08286 95.165 7.97349 95.165 8.99195C95.165 10.0062 94.9754 10.8925 94.5961 11.651C94.2169 12.4096 93.6842 12.9998 92.9981 13.4216C92.312 13.8435 91.5088 14.0545 90.5883 14.0545ZM90.5947 12.4501C91.1913 12.4501 91.6856 12.2924 92.0776 11.977C92.4697 11.6617 92.7595 11.242 92.947 10.7178C93.1387 10.1937 93.2346 9.61624 93.2346 8.98556C93.2346 8.35914 93.1387 7.78386 92.947 7.25971C92.7595 6.7313 92.4697 6.3073 92.0776 5.98769C91.6856 5.66809 91.1913 5.50829 90.5947 5.50829C89.9938 5.50829 89.4953 5.66809 89.099 5.98769C88.7069 6.3073 88.415 6.7313 88.2232 7.25971C88.0357 7.78386 87.942 8.35914 87.942 8.98556C87.942 9.61624 88.0357 10.1937 88.2232 10.7178C88.415 11.242 88.7069 11.6617 89.099 11.977C89.4953 12.2924 89.9938 12.4501 90.5947 12.4501Z" fill="black"/>
  <path d="M70.5444 13.8563V4.03812H72.379V5.63613H72.5004C72.7049 5.09494 73.0395 4.67306 73.504 4.37051C73.9684 4.06369 74.5246 3.91028 75.1723 3.91028C75.8285 3.91028 76.3782 4.06369 76.8214 4.37051C77.2689 4.67732 77.5991 5.0992 77.8122 5.63613H77.9145C78.1488 5.11198 78.5217 4.69437 79.0331 4.38329C79.5444 4.06795 80.1538 3.91028 80.8612 3.91028C81.7518 3.91028 82.4784 4.1894 83.0409 4.74764C83.6076 5.30588 83.891 6.14749 83.891 7.27249V13.8563H81.9798V7.45147C81.9798 6.7867 81.7987 6.30516 81.4365 6.00687C81.0743 5.70857 80.6417 5.55943 80.1389 5.55943C79.5167 5.55943 79.0331 5.75119 78.6879 6.13471C78.3427 6.51397 78.1702 7.0019 78.1702 7.59849V13.8563H76.2653V7.33002C76.2653 6.79735 76.0991 6.36908 75.7667 6.04522C75.4344 5.72136 75.0018 5.55943 74.4692 5.55943C74.1069 5.55943 73.7724 5.65531 73.4656 5.84707C73.163 6.03457 72.918 6.29664 72.7305 6.63329C72.5473 6.96994 72.4557 7.35985 72.4557 7.80303V13.8563H70.5444Z" fill="black"/>
  <path d="M56.9342 8.02676V13.8563H55.0229V4.03812H56.8575V5.63613H56.9789C57.2048 5.11624 57.5585 4.69863 58.04 4.38329C58.5258 4.06795 59.1373 3.91028 59.8745 3.91028C60.5435 3.91028 61.1295 4.0509 61.6323 4.33215C62.1352 4.60914 62.5251 5.02249 62.8021 5.57221C63.0791 6.12193 63.2176 6.80161 63.2176 7.61127V13.8563H61.3063V7.84139C61.3063 7.12974 61.121 6.57363 60.7502 6.17306C60.3795 5.76823 59.8703 5.56582 59.2225 5.56582C58.7793 5.56582 58.3852 5.6617 58.04 5.85346C57.6991 6.04522 57.4285 6.32647 57.2282 6.69721C57.0322 7.06369 56.9342 7.50687 56.9342 8.02676Z" fill="black"/>
  <path d="M48.3129 14.0545C47.3925 14.0545 46.5892 13.8435 45.9031 13.4216C45.217 12.9998 44.6844 12.4096 44.3051 11.651C43.9258 10.8925 43.7362 10.0062 43.7362 8.99195C43.7362 7.97349 43.9258 7.08286 44.3051 6.32008C44.6844 5.55729 45.217 4.96497 45.9031 4.54309C46.5892 4.12122 47.3925 3.91028 48.3129 3.91028C49.2334 3.91028 50.0366 4.12122 50.7227 4.54309C51.4088 4.96497 51.9415 5.55729 52.3207 6.32008C52.7 7.08286 52.8896 7.97349 52.8896 8.99195C52.8896 10.0062 52.7 10.8925 52.3207 11.651C51.9415 12.4096 51.4088 12.9998 50.7227 13.4216C50.0366 13.8435 49.2334 14.0545 48.3129 14.0545ZM48.3193 12.4501C48.9159 12.4501 49.4102 12.2924 49.8023 11.977C50.1943 11.6617 50.4841 11.242 50.6716 10.7178C50.8633 10.1937 50.9592 9.61624 50.9592 8.98556C50.9592 8.35914 50.8633 7.78386 50.6716 7.25971C50.4841 6.7313 50.1943 6.3073 49.8023 5.98769C49.4102 5.66809 48.9159 5.50829 48.3193 5.50829C47.7184 5.50829 47.2199 5.66809 46.8236 5.98769C46.4315 6.3073 46.1396 6.7313 45.9479 7.25971C45.7604 7.78386 45.6666 8.35914 45.6666 8.98556C45.6666 9.61624 45.7604 10.1937 45.9479 10.7178C46.1396 11.242 46.4315 11.6617 46.8236 11.977C47.2199 12.2924 47.7184 12.4501 48.3193 12.4501Z" fill="black"/>
  <path d="M33.0631 13.8563V0.765396H34.9743V5.62974H35.0894C35.2002 5.4252 35.36 5.18869 35.5688 4.92023C35.7776 4.65176 36.0673 4.41738 36.4381 4.2171C36.8088 4.01256 37.2989 3.91028 37.9083 3.91028C38.7009 3.91028 39.4083 4.11057 40.0304 4.51114C40.6526 4.9117 41.1405 5.48912 41.4942 6.24338C41.8521 6.99764 42.0311 7.90531 42.0311 8.96639C42.0311 10.0275 41.8543 10.9373 41.5006 11.6958C41.1469 12.4501 40.6611 13.0317 40.0432 13.4408C39.4253 13.8457 38.72 14.0481 37.9274 14.0481C37.3308 14.0481 36.8429 13.9479 36.4636 13.7476C36.0886 13.5474 35.7946 13.313 35.5815 13.0445C35.3685 12.776 35.2044 12.5374 35.0894 12.3286H34.9296V13.8563H33.0631ZM34.936 8.94721C34.936 9.63756 35.0361 10.2427 35.2364 10.7626C35.4367 11.2824 35.7264 11.6894 36.1057 11.9834C36.485 12.2732 36.9494 12.4181 37.4992 12.4181C38.0702 12.4181 38.5475 12.2668 38.931 11.9643C39.3145 11.6574 39.6043 11.242 39.8003 10.7178C40.0006 10.1937 40.1007 9.60346 40.1007 8.94721C40.1007 8.29949 40.0027 7.71781 39.8067 7.20219C39.6149 6.68656 39.3252 6.2796 38.9374 5.98131C38.5538 5.68301 38.0744 5.53386 37.4992 5.53386C36.9452 5.53386 36.4764 5.67662 36.0929 5.96213C35.7136 6.24764 35.426 6.64608 35.23 7.15744C35.034 7.66881 34.936 8.2654 34.936 8.94721Z" fill="black"/>
  <path d="M26.0015 13.8563V4.03812H27.8488V5.59777H27.951C28.13 5.06937 28.4454 4.65388 28.8971 4.35133C29.353 4.04451 29.8687 3.8911 30.4439 3.8911C30.5633 3.8911 30.7039 3.89536 30.8658 3.90388C31.032 3.91241 31.162 3.92306 31.2557 3.93584V5.76397C31.179 5.74266 31.0427 5.71922 30.8466 5.69366C30.6506 5.66383 30.4546 5.64891 30.2586 5.64891C29.8069 5.64891 29.4042 5.74479 29.0505 5.93655C28.701 6.12405 28.4241 6.38613 28.2195 6.72277C28.015 7.05516 27.9127 7.43442 27.9127 7.86056V13.8563H26.0015Z" fill="black"/>
  <path d="M18.6107 14.0736C17.9885 14.0736 17.426 13.9586 16.9232 13.7285C16.4203 13.4941 16.0219 13.1553 15.7278 12.7121C15.4381 12.2689 15.2932 11.7256 15.2932 11.0822C15.2932 10.5282 15.3997 10.0722 15.6128 9.71426C15.8259 9.3563 16.1135 9.07292 16.4757 8.86411C16.8379 8.65531 17.2428 8.49764 17.6902 8.3911C18.1376 8.28457 18.5936 8.2036 19.0581 8.1482C19.6462 8.08002 20.1234 8.02463 20.4899 7.98201C20.8564 7.93514 21.1227 7.86056 21.2889 7.75829C21.4551 7.65602 21.5382 7.48982 21.5382 7.25971V7.21497C21.5382 6.65673 21.3805 6.2242 21.0652 5.91738C20.7541 5.61056 20.2896 5.45715 19.6717 5.45715C19.0283 5.45715 18.5212 5.59991 18.1504 5.88542C17.7839 6.16667 17.5304 6.47988 17.3898 6.82505L15.5936 6.41596C15.8067 5.81937 16.1178 5.33784 16.5268 4.97136C16.9402 4.60062 17.4153 4.33215 17.9523 4.16596C18.4892 3.99551 19.0538 3.91028 19.6462 3.91028C20.0382 3.91028 20.4537 3.95715 20.8926 4.0509C21.3358 4.14039 21.7491 4.30659 22.1327 4.54948C22.5205 4.79238 22.8379 5.13968 23.0851 5.59139C23.3322 6.03883 23.4558 6.62051 23.4558 7.33642V13.8563H21.5893V12.514H21.5126C21.3891 12.7611 21.2037 13.004 20.9565 13.2427C20.7094 13.4813 20.3919 13.6795 20.0041 13.8371C19.6163 13.9948 19.1518 14.0736 18.6107 14.0736ZM19.0261 12.5395C19.5545 12.5395 20.0063 12.4351 20.3813 12.2263C20.7605 12.0175 21.0482 11.7448 21.2442 11.4081C21.4445 11.0672 21.5446 10.7029 21.5446 10.3151V9.04948C21.4764 9.11767 21.3443 9.18159 21.1483 9.24124C20.9565 9.29664 20.7371 9.34565 20.4899 9.38826C20.2428 9.42661 20.002 9.46284 19.7676 9.49693C19.5332 9.52676 19.3372 9.55232 19.1795 9.57363C18.8088 9.62051 18.47 9.69934 18.1632 9.81014C17.8607 9.92093 17.6178 10.0807 17.4345 10.2895C17.2555 10.4941 17.1661 10.7668 17.1661 11.1077C17.1661 11.5807 17.3408 11.9387 17.6902 12.1816C18.0396 12.4202 18.4849 12.5395 19.0261 12.5395Z" fill="black"/>
  <path d="M13.5434 5.02249H11.5491C11.4723 4.59635 11.3296 4.22135 11.1208 3.89749C10.912 3.57363 10.6563 3.29877 10.3537 3.07292C10.0512 2.84706 9.71241 2.67661 9.33741 2.56155C8.96667 2.4465 8.57249 2.38897 8.15488 2.38897C7.40062 2.38897 6.72519 2.5786 6.1286 2.95786C5.53627 3.33712 5.06752 3.89323 4.72235 4.62618C4.38144 5.35914 4.21098 6.25402 4.21098 7.31084C4.21098 8.37618 4.38144 9.27533 4.72235 10.0083C5.06752 10.7412 5.5384 11.2952 6.13499 11.6702C6.73158 12.0452 7.40275 12.2327 8.14849 12.2327C8.56184 12.2327 8.95388 12.1773 9.32462 12.0665C9.69962 11.9515 10.0384 11.7831 10.341 11.5616C10.6435 11.34 10.8992 11.0694 11.108 10.7498C11.3211 10.4259 11.4681 10.0552 11.5491 9.63755L13.5434 9.64394C13.4368 10.2874 13.2302 10.8797 12.9233 11.4209C12.6208 11.9579 12.2309 12.4223 11.7536 12.8144C11.2806 13.2022 10.7394 13.5026 10.13 13.7157C9.52064 13.9287 8.85587 14.0353 8.1357 14.0353C7.00218 14.0353 5.99223 13.7668 5.10587 13.2299C4.21951 12.6887 3.52064 11.9152 3.00928 10.9096C2.50218 9.90388 2.24863 8.70431 2.24863 7.31084C2.24863 5.91312 2.50431 4.71354 3.01567 3.71212C3.52704 2.70644 4.2259 1.93513 5.11226 1.3982C5.99863 0.857007 7.00644 0.586411 8.1357 0.586411C8.8303 0.586411 9.47803 0.686553 10.0789 0.886837C10.684 1.08286 11.2273 1.37263 11.7089 1.75616C12.1904 2.13542 12.5888 2.59991 12.9042 3.14962C13.2195 3.69508 13.4326 4.31937 13.5434 5.02249Z" fill="black"/>
  <path d="M27.2667 45.9629H1.03329V166.573H27.2667V45.9629Z" fill="url(#paint0_linear_0_1)"/>
  <path fill-rule="evenodd" clip-rule="evenodd" d="M0.873322 45.803H27.4267V166.733H0.873322V45.803ZM1.19324 46.1229V166.413H27.1067V46.1229H1.19324Z" fill="black"/>
  <path d="M60.1453 60.2126C59.6681 60.205 59.191 60.1142 58.7138 59.94C58.2367 59.7658 57.8012 59.4723 57.4073 59.0595C57.0135 58.6429 56.6973 58.0806 56.4587 57.3724C56.2201 56.6605 56.1008 55.7668 56.1008 54.6913C56.1008 53.6612 56.1974 52.7486 56.3905 51.9533C56.5837 51.1543 56.8639 50.4821 57.2312 49.9368C57.5986 49.3877 58.0416 48.9711 58.5604 48.6871C59.083 48.4031 59.6719 48.2611 60.327 48.2611C60.9784 48.2611 61.5578 48.3917 62.0652 48.653C62.5765 48.9105 62.993 49.2703 63.3149 49.7323C63.6368 50.1943 63.8451 50.7264 63.9398 51.3285H62.5538C62.425 50.8059 62.1751 50.3723 61.8039 50.0277C61.4328 49.6831 60.9405 49.5107 60.327 49.5107C59.4258 49.5107 58.7157 49.9027 58.1969 50.6866C57.6819 51.4705 57.4225 52.5706 57.4187 53.9869H57.5096C57.7216 53.665 57.9735 53.3905 58.2651 53.1632C58.5604 52.9322 58.8861 52.7543 59.2421 52.6293C59.5981 52.5043 59.9749 52.4418 60.3725 52.4418C61.039 52.4418 61.6487 52.6085 62.2016 52.9417C62.7545 53.2712 63.1975 53.7275 63.5308 54.3107C63.864 54.8901 64.0307 55.5547 64.0307 56.3045C64.0307 57.024 63.8697 57.6829 63.5478 58.2813C63.2259 58.8758 62.7734 59.3492 62.1902 59.7014C61.6108 60.0498 60.9292 60.2202 60.1453 60.2126ZM60.1453 58.9629C60.6224 58.9629 61.0503 58.8436 61.429 58.6051C61.8115 58.3665 62.1126 58.0465 62.3322 57.6451C62.5557 57.2437 62.6674 56.7968 62.6674 56.3045C62.6674 55.8236 62.5594 55.3862 62.3436 54.9923C62.1315 54.5947 61.838 54.2785 61.4631 54.0437C61.092 53.8089 60.6679 53.6915 60.1907 53.6915C59.831 53.6915 59.4958 53.7635 59.1853 53.9074C58.8748 54.0475 58.6021 54.2406 58.3673 54.4868C58.1363 54.7329 57.9545 55.0151 57.822 55.3332C57.6894 55.6475 57.6232 55.9788 57.6232 56.3272C57.6232 56.7892 57.7311 57.2209 57.947 57.6224C58.1666 58.0238 58.4658 58.3475 58.8445 58.5937C59.2269 58.8398 59.6605 58.9629 60.1453 58.9629Z" fill="black"/>
  <path d="M50.1634 60.2126C49.6862 60.205 49.2091 60.1142 48.7319 59.94C48.2548 59.7658 47.8193 59.4723 47.4254 59.0595C47.0316 58.6429 46.7154 58.0806 46.4768 57.3724C46.2382 56.6605 46.119 55.7668 46.119 54.6913C46.119 53.6612 46.2155 52.7486 46.4087 51.9533C46.6018 51.1543 46.882 50.4821 47.2494 49.9368C47.6167 49.3877 48.0598 48.9711 48.5786 48.6871C49.1012 48.4031 49.69 48.2611 50.3452 48.2611C50.9965 48.2611 51.5759 48.3917 52.0834 48.653C52.5946 48.9105 53.0112 49.2703 53.3331 49.7323C53.6549 50.1943 53.8632 50.7264 53.9579 51.3285H52.5719C52.4431 50.8059 52.1932 50.3723 51.8221 50.0277C51.451 49.6831 50.9587 49.5107 50.3452 49.5107C49.4439 49.5107 48.7338 49.9027 48.215 50.6866C47.7 51.4705 47.4406 52.5706 47.4368 53.9869H47.5277C47.7398 53.665 47.9916 53.3905 48.2832 53.1632C48.5786 52.9322 48.9042 52.7543 49.2602 52.6293C49.6162 52.5043 49.993 52.4418 50.3906 52.4418C51.0571 52.4418 51.6668 52.6085 52.2197 52.9417C52.7726 53.2712 53.2157 53.7275 53.5489 54.3107C53.8822 54.8901 54.0488 55.5547 54.0488 56.3045C54.0488 57.024 53.8878 57.6829 53.566 58.2813C53.2441 58.8758 52.7915 59.3492 52.2083 59.7014C51.6289 60.0498 50.9473 60.2202 50.1634 60.2126ZM50.1634 58.9629C50.6406 58.9629 51.0685 58.8436 51.4472 58.6051C51.8296 58.3665 52.1307 58.0465 52.3504 57.6451C52.5738 57.2437 52.6855 56.7968 52.6855 56.3045C52.6855 55.8236 52.5776 55.3862 52.3617 54.9923C52.1496 54.5947 51.8562 54.2785 51.4812 54.0437C51.1101 53.8089 50.686 53.6915 50.2088 53.6915C49.8491 53.6915 49.5139 53.7635 49.2034 53.9074C48.8929 54.0475 48.6202 54.2406 48.3854 54.4868C48.1544 54.7329 47.9727 55.0151 47.8401 55.3332C47.7076 55.6475 47.6413 55.9788 47.6413 56.3272C47.6413 56.7892 47.7492 57.2209 47.9651 57.6224C48.1847 58.0238 48.4839 58.3475 48.8626 58.5937C49.2451 58.8398 49.6787 58.9629 50.1634 58.9629Z" fill="black"/>
  <path d="M40.1702 60.2126C39.39 60.2126 38.7008 60.0744 38.1025 59.7979C37.5079 59.5177 37.044 59.1333 36.7108 58.6448C36.3775 58.1525 36.2128 57.5921 36.2166 56.9634C36.2128 56.4711 36.3094 56.0167 36.5063 55.6001C36.7032 55.1798 36.9721 54.8295 37.3129 54.5493C37.6575 54.2652 38.0419 54.0854 38.466 54.0096V53.9415C37.9094 53.7976 37.4663 53.4851 37.1368 53.0042C36.8074 52.5195 36.6445 51.9685 36.6483 51.3512C36.6445 50.7604 36.7941 50.2322 37.0971 49.7664C37.4 49.3006 37.8166 48.9332 38.3467 48.6644C38.8807 48.3955 39.4885 48.2611 40.1702 48.2611C40.8442 48.2611 41.4463 48.3955 41.9765 48.6644C42.5067 48.9332 42.9233 49.3006 43.2262 49.7664C43.5329 50.2322 43.6882 50.7604 43.692 51.3512C43.6882 51.9685 43.5197 52.5195 43.1864 53.0042C42.857 53.4851 42.4196 53.7976 41.8743 53.9415V54.0096C42.2946 54.0854 42.6733 54.2652 43.0104 54.5493C43.3474 54.8295 43.6163 55.1798 43.817 55.6001C44.0177 56.0167 44.1199 56.4711 44.1237 56.9634C44.1199 57.5921 43.9495 58.1525 43.6125 58.6448C43.2792 59.1333 42.8153 59.5177 42.2208 59.7979C41.63 60.0744 40.9465 60.2126 40.1702 60.2126ZM40.1702 58.9629C40.6965 58.9629 41.151 58.8777 41.5334 58.7073C41.9159 58.5369 42.2113 58.2964 42.4196 57.9859C42.6279 57.6754 42.7339 57.3118 42.7377 56.8953C42.7339 56.456 42.6203 56.0678 42.3969 55.7308C42.1734 55.3937 41.8686 55.1287 41.4823 54.9355C41.0998 54.7424 40.6625 54.6458 40.1702 54.6458C39.6741 54.6458 39.231 54.7424 38.8409 54.9355C38.4547 55.1287 38.1498 55.3937 37.9264 55.7308C37.7068 56.0678 37.5988 56.456 37.6026 56.8953C37.5988 57.3118 37.6992 57.6754 37.9037 57.9859C38.112 58.2964 38.4092 58.5369 38.7955 58.7073C39.1818 58.8777 39.64 58.9629 40.1702 58.9629ZM40.1702 53.4416C40.5867 53.4416 40.9559 53.3583 41.2778 53.1916C41.6035 53.025 41.8591 52.7921 42.0447 52.493C42.2302 52.1938 42.3249 51.8435 42.3287 51.4421C42.3249 51.0482 42.2321 50.7055 42.0504 50.4139C41.8686 50.1186 41.6168 49.8913 41.2949 49.7323C40.973 49.5694 40.5981 49.488 40.1702 49.488C39.7347 49.488 39.3541 49.5694 39.0284 49.7323C38.7027 49.8913 38.4509 50.1186 38.2729 50.4139C38.0949 50.7055 38.0078 51.0482 38.0116 51.4421C38.0078 51.8435 38.0968 52.1938 38.2786 52.493C38.4641 52.7921 38.7198 53.025 39.0454 53.1916C39.3711 53.3583 39.746 53.4416 40.1702 53.4416Z" fill="black"/>
  <path d="M56.3493 161.772L61.5526 151.479V151.388H55.5541V150.138H63.0068V151.456L57.8262 161.772H56.3493Z" fill="black"/>
  <path d="M50.0952 161.931C49.2394 161.931 48.5104 161.698 47.9083 161.232C47.3061 160.763 46.846 160.083 46.5279 159.193C46.2098 158.299 46.0508 157.22 46.0508 155.955C46.0508 154.698 46.2098 153.624 46.5279 152.734C46.8498 151.841 47.3118 151.159 47.9139 150.689C48.5199 150.216 49.2469 149.979 50.0952 149.979C50.9435 149.979 51.6687 150.216 52.2708 150.689C52.8767 151.159 53.3387 151.841 53.6568 152.734C53.9787 153.624 54.1397 154.698 54.1397 155.955C54.1397 157.22 53.9806 158.299 53.6625 159.193C53.3444 160.083 52.8843 160.763 52.2822 161.232C51.6801 161.698 50.9511 161.931 50.0952 161.931ZM50.0952 160.681C50.9435 160.681 51.6024 160.272 52.072 159.454C52.5416 158.636 52.7764 157.47 52.7764 155.955C52.7764 154.948 52.6684 154.09 52.4526 153.382C52.2405 152.674 51.9338 152.134 51.5324 151.763C51.1347 151.392 50.6557 151.206 50.0952 151.206C49.2545 151.206 48.5975 151.621 48.1241 152.45C47.6508 153.276 47.4141 154.444 47.4141 155.955C47.4141 156.962 47.5201 157.818 47.7322 158.523C47.9442 159.227 48.2491 159.763 48.6467 160.13C49.0481 160.497 49.531 160.681 50.0952 160.681Z" fill="black"/>
  <path d="M40.1702 161.931C39.39 161.931 38.7008 161.793 38.1025 161.516C37.5079 161.236 37.044 160.852 36.7108 160.363C36.3775 159.871 36.2128 159.31 36.2166 158.682C36.2128 158.189 36.3094 157.735 36.5063 157.318C36.7032 156.898 36.9721 156.548 37.3129 156.267C37.6575 155.983 38.0419 155.804 38.466 155.728V155.66C37.9094 155.516 37.4663 155.203 37.1368 154.722C36.8074 154.238 36.6445 153.687 36.6483 153.069C36.6445 152.479 36.7941 151.95 37.0971 151.485C37.4 151.019 37.8166 150.651 38.3467 150.383C38.8807 150.114 39.4885 149.979 40.1702 149.979C40.8442 149.979 41.4463 150.114 41.9765 150.383C42.5067 150.651 42.9233 151.019 43.2262 151.485C43.5329 151.95 43.6882 152.479 43.692 153.069C43.6882 153.687 43.5197 154.238 43.1864 154.722C42.857 155.203 42.4196 155.516 41.8743 155.66V155.728C42.2946 155.804 42.6733 155.983 43.0104 156.267C43.3474 156.548 43.6163 156.898 43.817 157.318C44.0177 157.735 44.1199 158.189 44.1237 158.682C44.1199 159.31 43.9495 159.871 43.6125 160.363C43.2792 160.852 42.8153 161.236 42.2208 161.516C41.63 161.793 40.9465 161.931 40.1702 161.931ZM40.1702 160.681C40.6965 160.681 41.151 160.596 41.5334 160.425C41.9159 160.255 42.2113 160.015 42.4196 159.704C42.6279 159.394 42.7339 159.03 42.7377 158.613C42.7339 158.174 42.6203 157.786 42.3969 157.449C42.1734 157.112 41.8686 156.847 41.4823 156.654C41.0998 156.461 40.6625 156.364 40.1702 156.364C39.6741 156.364 39.231 156.461 38.8409 156.654C38.4547 156.847 38.1498 157.112 37.9264 157.449C37.7068 157.786 37.5988 158.174 37.6026 158.613C37.5988 159.03 37.6992 159.394 37.9037 159.704C38.112 160.015 38.4092 160.255 38.7955 160.425C39.1818 160.596 39.64 160.681 40.1702 160.681ZM40.1702 155.16C40.5867 155.16 40.9559 155.076 41.2778 154.91C41.6035 154.743 41.8591 154.51 42.0447 154.211C42.2302 153.912 42.3249 153.562 42.3287 153.16C42.3249 152.766 42.2321 152.424 42.0504 152.132C41.8686 151.837 41.6168 151.61 41.2949 151.45C40.973 151.288 40.5981 151.206 40.1702 151.206C39.7347 151.206 39.3541 151.288 39.0284 151.45C38.7027 151.61 38.4509 151.837 38.2729 152.132C38.0949 152.424 38.0078 152.766 38.0116 153.16C38.0078 153.562 38.0968 153.912 38.2786 154.211C38.4641 154.51 38.7198 154.743 39.0454 154.91C39.3711 155.076 39.746 155.16 40.1702 155.16Z" fill="black"/>
  <defs>
    <linearGradient id="paint0_linear_0_1" x1="-6.32486" y1="167.088" x2="-6.32486" y2="46.1709" gradientUnits="userSpaceOnUse">
      <stop stop-color="#F6EFF7" stop-opacity="0"/>
      <stop offset="4.05525e-10" stop-color="#F6EFF7" stop-opacity="0"/>
      <stop offset="0.0192308" stop-opacity="0"/>
      <stop offset="0.0384615" stop-opacity="0"/>
      <stop offset="0.0576923" stop-opacity="0"/>
      <stop offset="0.0769231" stop-opacity="0"/>
      <stop offset="0.0961538" stop-opacity="0"/>
      <stop offset="0.115385" stop-opacity="0"/>
      <stop offset="0.134615" stop-opacity="0"/>
      <stop offset="0.153846" stop-opacity="0"/>
      <stop offset="0.173077" stop-opacity="0"/>
      <stop offset="0.192308" stop-opacity="0"/>
      <stop offset="0.211538" stop-opacity="0"/>
      <stop offset="0.230769" stop-opacity="0"/>
      <stop offset="0.25" stop-color="#BDC9E1" stop-opacity="0"/>
      <stop offset="0.269231" stop-color="#63AAD5" stop-opacity="0.0705882"/>
      <stop offset="0.288462" stop-color="#65A8D0" stop-opacity="0.14902"/>
      <stop offset="0.307692" stop-color="#65A7CF" stop-opacity="0.227451"/>
      <stop offset="0.326923" stop-color="#67A9D1" stop-opacity="0.301961"/>
      <stop offset="0.346154" stop-color="#67A8D0" stop-opacity="0.380392"/>
      <stop offset="0.365385" stop-color="#66A8CF" stop-opacity="0.458824"/>
      <stop offset="0.384615" stop-color="#67A9CE" stop-opacity="0.533333"/>
      <stop offset="0.403846" stop-color="#67A8CE" stop-opacity="0.611765"/>
      <stop offset="0.423077" stop-color="#67A8CF" stop-opacity="0.690196"/>
      <stop offset="0.442308" stop-color="#66A9CF" stop-opacity="0.764706"/>
      <stop offset="0.461538" stop-color="#66A8CE" stop-opacity="0.843137"/>
      <stop offset="0.480769" stop-color="#66A8CE" stop-opacity="0.921569"/>
      <stop offset="0.5" stop-color="#67A9CF"/>
      <stop offset="0.519231" stop-color="#61A7CA"/>
      <stop offset="0.538462" stop-color="#5BA5C6"/>
      <stop offset="0.557692" stop-color="#55A3C2"/>
      <stop offset="0.576923" stop-color="#50A1BE"/>
      <stop offset="0.596154" stop-color="#4A9FBA"/>
      <stop offset="0.615385" stop-color="#449DB6"/>
      <stop offset="0.634615" stop-color="#3E9BB2"/>
      <stop offset="0.653846" stop-color="#3999AD"/>
      <stop offset="0.673077" stop-color="#3397A9"/>
      <stop offset="0.692308" stop-color="#2D95A5"/>
      <stop offset="0.711538" stop-color="#2793A1"/>
      <stop offset="0.730769" stop-color="#21919D"/>
      <stop offset="0.75" stop-color="#1C9099"/>
      <stop offset="0.769231" stop-color="#198D94"/>
      <stop offset="0.788462" stop-color="#178A8F"/>
      <stop offset="0.807692" stop-color="#15878A"/>
      <stop offset="0.826923" stop-color="#138585"/>
      <stop offset="0.846154" stop-color="#118280"/>
      <stop offset="0.865385" stop-color="#0F7F7B"/>
      <stop offset="0.884615" stop-color="#0D7C76"/>
      <stop offset="0.903846" stop-color="#0B7971"/>
      <stop offset="0.923077" stop-color="#09776C"/>
      <stop offset="0.942308" stop-color="#077468"/>
      <stop offset="0.961538" stop-color="#057163"/>
      <stop offset="0.980769" stop-color="#036E5E"/>
      <stop offset="1" stop-color="#016C59"/>
    </linearGradient>
  </defs>
</svg>