<svg width="156" height="197" viewBox="0 0 156 197" fill="none" xmlns="http://www.w3.org/2000/svg">
  <path d="M118.418 33.9325L118.322 34.6292C118.258 35.1406 118.149 35.6733 117.996 36.2273C117.847 36.7855 117.691 37.3032 117.529 37.7805C117.372 38.2578 117.242 38.6371 117.139 38.9183H115.784C115.84 38.6541 115.916 38.2961 116.014 37.8444C116.112 37.397 116.208 36.8963 116.302 36.3423C116.396 35.7883 116.466 35.2237 116.513 34.6484L116.577 33.9325H118.418Z" fill="black"/>
  <path d="M100.383 35.7223V25.9041H101.84V27.4382H101.968C102.172 26.914 102.503 26.5071 102.958 26.2173C103.414 25.9233 103.962 25.7763 104.601 25.7763C105.249 25.7763 105.788 25.9233 106.218 26.2173C106.653 26.5071 106.992 26.914 107.235 27.4382H107.337C107.588 26.9311 107.966 26.5284 108.468 26.2301C108.971 25.9275 109.574 25.7763 110.277 25.7763C111.155 25.7763 111.873 26.0511 112.432 26.6008C112.99 27.1463 113.269 27.9964 113.269 29.1513V35.7223H111.76V29.1513C111.76 28.4268 111.562 27.9091 111.166 27.598C110.77 27.2869 110.303 27.1314 109.766 27.1314C109.076 27.1314 108.541 27.3402 108.162 27.7578C107.782 28.1711 107.593 28.6953 107.593 29.3302V35.7223H106.059V28.9978C106.059 28.4396 105.878 27.99 105.515 27.6491C105.153 27.304 104.686 27.1314 104.115 27.1314C103.723 27.1314 103.357 27.2358 103.016 27.4446C102.679 27.6534 102.407 27.9432 102.198 28.3139C101.993 28.6804 101.891 29.1044 101.891 29.5859V35.7223H100.383Z" fill="black"/>
  <path d="M89.1852 39.4041V25.9041H90.6938V31.7081C90.6938 32.2407 90.8046 32.7095 91.0261 33.1143C91.252 33.5149 91.5673 33.8281 91.9722 34.054C92.3813 34.2798 92.8585 34.3927 93.404 34.3927C93.9494 34.3927 94.4246 34.2798 94.8294 34.054C95.2385 33.8238 95.5538 33.5085 95.7754 33.1079C96.0013 32.7031 96.1142 32.2365 96.1142 31.7081V25.9041H97.6227V35.7223H96.1142V34.2649H96.0375C95.7733 34.7805 95.4047 35.1747 94.9317 35.4474C94.4587 35.7159 93.9494 35.8501 93.404 35.8501C92.8585 35.8501 92.3493 35.7159 91.8763 35.4474C91.4075 35.1747 91.0389 34.7805 90.7705 34.2649H90.6938V39.4041H89.1852Z" fill="black"/>
  <path d="M77.2385 35.9396C76.2286 35.9353 75.3656 35.669 74.6497 35.1406C73.9338 34.6122 73.3862 33.843 73.007 32.8331C72.6277 31.8231 72.4381 30.6065 72.4381 29.1832C72.4381 27.7642 72.6277 26.5518 73.007 25.5461C73.3905 24.5405 73.9402 23.7734 74.6561 23.245C75.3763 22.7166 76.2371 22.4524 77.2385 22.4524C78.2399 22.4524 79.0986 22.7187 79.8145 23.2514C80.5304 23.7798 81.078 24.5469 81.4573 25.5525C81.8408 26.554 82.0325 27.7642 82.0325 29.1832C82.0325 30.6108 81.8429 31.8295 81.4636 32.8395C81.0844 33.8451 80.5368 34.6143 79.8209 35.147C79.105 35.6754 78.2442 35.9396 77.2385 35.9396ZM77.2385 34.2329C78.1249 34.2329 78.8173 33.8004 79.3159 32.9353C79.8188 32.0703 80.0702 30.8196 80.0702 29.1832C80.0702 28.0966 79.9551 27.1782 79.725 26.4282C79.4992 25.674 79.1732 25.103 78.747 24.7152C78.3252 24.3231 77.8223 24.1271 77.2385 24.1271C76.3564 24.1271 75.6639 24.5618 75.1611 25.4311C74.6583 26.3004 74.4047 27.5511 74.4004 29.1832C74.4004 30.2741 74.5134 31.1967 74.7392 31.951C74.9693 32.701 75.2953 33.2699 75.7172 33.6576C76.1391 34.0412 76.6462 34.2329 77.2385 34.2329Z" fill="black"/>
  <path d="M69.1398 22.6314V35.7223H67.1582V24.6129H67.0815L63.9494 26.6584V24.7663L67.2158 22.6314H69.1398Z" fill="black"/>
  <path d="M52.5269 35.7223V25.9041H54.3742V27.4638H54.4764C54.6554 26.9353 54.9707 26.5199 55.4225 26.2173C55.8784 25.9105 56.394 25.7571 56.9693 25.7571C57.0886 25.7571 57.2293 25.7613 57.3912 25.7699C57.5574 25.7784 57.6874 25.789 57.7811 25.8018V27.6299C57.7044 27.6086 57.568 27.5852 57.372 27.5596C57.176 27.5298 56.98 27.5149 56.784 27.5149C56.3323 27.5149 55.9296 27.6108 55.5759 27.8025C55.2264 27.99 54.9494 28.2521 54.7449 28.5888C54.5404 28.9211 54.4381 29.3004 54.4381 29.7265V35.7223H52.5269Z" fill="black"/>
  <path d="M46.1939 35.9204C45.2266 35.9204 44.3935 35.7138 43.6947 35.3004C43.0001 34.8828 42.4631 34.2969 42.0839 33.5426C41.7089 32.7841 41.5214 31.8956 41.5214 30.8771C41.5214 29.8714 41.7089 28.9851 42.0839 28.218C42.4631 27.451 42.9915 26.8523 43.6691 26.4219C44.3509 25.9915 45.1478 25.7763 46.0597 25.7763C46.6137 25.7763 47.1506 25.8679 47.6705 26.0511C48.1904 26.2344 48.657 26.522 49.0704 26.914C49.4837 27.3061 49.8097 27.8153 50.0484 28.4417C50.287 29.0639 50.4063 29.8203 50.4063 30.7109V31.3885H42.6016V29.9567H48.5334C48.5334 29.4538 48.4312 29.0085 48.2266 28.6207C48.0221 28.2287 47.7344 27.9197 47.3637 27.6939C46.9972 27.468 46.5668 27.3551 46.0725 27.3551C45.5356 27.3551 45.0668 27.4872 44.6662 27.7514C44.2699 28.0113 43.9631 28.3523 43.7458 28.7741C43.5327 29.1917 43.4262 29.6456 43.4262 30.1356V31.2542C43.4262 31.9105 43.5412 32.4687 43.7714 32.929C44.0057 33.3892 44.3317 33.7407 44.7493 33.9836C45.167 34.2223 45.6549 34.3416 46.2131 34.3416C46.5753 34.3416 46.9056 34.2905 47.2039 34.1882C47.5022 34.0817 47.76 33.924 47.9773 33.7152C48.1947 33.5064 48.3608 33.2486 48.4759 32.9417L50.2849 33.2677C50.14 33.8004 49.88 34.267 49.505 34.6676C49.1343 35.0639 48.6677 35.3728 48.1052 35.5944C47.5469 35.8118 46.9099 35.9204 46.1939 35.9204Z" fill="black"/>
  <path d="M39.9537 25.9041V27.4382H34.5908V25.9041H39.9537ZM36.029 23.5518H37.9402V32.8395C37.9402 33.2102 37.9956 33.4893 38.1064 33.6768C38.2172 33.8601 38.3599 33.9858 38.5347 34.0539C38.7136 34.1179 38.9075 34.1498 39.1163 34.1498C39.2697 34.1498 39.404 34.1392 39.519 34.1179C39.6341 34.0966 39.7236 34.0795 39.7875 34.0667L40.1327 35.6456C40.0219 35.6882 39.8642 35.7308 39.6597 35.7734C39.4551 35.8203 39.1994 35.8459 38.8926 35.8501C38.3898 35.8586 37.921 35.7691 37.4864 35.5816C37.0517 35.3941 36.7001 35.1044 36.4317 34.7123C36.1632 34.3203 36.029 33.8281 36.029 33.2358V23.5518Z" fill="black"/>
  <path d="M33.2564 25.9041V27.4382H27.8935V25.9041H33.2564ZM29.3317 23.5518H31.243V32.8395C31.243 33.2102 31.2984 33.4893 31.4091 33.6768C31.5199 33.8601 31.6627 33.9858 31.8374 34.0539C32.0164 34.1179 32.2103 34.1498 32.4191 34.1498C32.5725 34.1498 32.7067 34.1392 32.8218 34.1179C32.9368 34.0966 33.0263 34.0795 33.0903 34.0667L33.4354 35.6456C33.3246 35.6882 33.167 35.7308 32.9624 35.7734C32.7579 35.8203 32.5022 35.8459 32.1954 35.8501C31.6925 35.8586 31.2238 35.7691 30.7891 35.5816C30.3545 35.3941 30.0029 35.1044 29.7344 34.7123C29.466 34.3203 29.3317 33.8281 29.3317 33.2358V23.5518Z" fill="black"/>
  <path d="M21.2825 35.9396C20.6604 35.9396 20.0979 35.8246 19.595 35.5944C19.0922 35.3601 18.6938 35.0213 18.3997 34.5781C18.1099 34.1349 17.9651 33.5916 17.9651 32.9481C17.9651 32.3942 18.0716 31.9382 18.2847 31.5802C18.4977 31.2223 18.7854 30.9389 19.1476 30.7301C19.5098 30.5213 19.9146 30.3636 20.3621 30.2571C20.8095 30.1505 21.2655 30.0696 21.73 30.0142C22.318 29.946 22.7953 29.8906 23.1618 29.848C23.5283 29.8011 23.7946 29.7265 23.9608 29.6243C24.127 29.522 24.2101 29.3558 24.2101 29.1257V29.0809C24.2101 28.5227 24.0524 28.0902 23.7371 27.7834C23.426 27.4765 22.9615 27.3231 22.3436 27.3231C21.7001 27.3231 21.193 27.4659 20.8223 27.7514C20.4558 28.0326 20.2023 28.3459 20.0616 28.691L18.2655 28.2819C18.4786 27.6853 18.7896 27.2038 19.1987 26.8373C19.6121 26.4666 20.0872 26.1981 20.6241 26.0319C21.1611 25.8615 21.7257 25.7763 22.318 25.7763C22.7101 25.7763 23.1256 25.8231 23.5645 25.9169C24.0077 26.0064 24.421 26.1726 24.8045 26.4155C25.1923 26.6584 25.5098 27.0057 25.757 27.4574C26.0041 27.9048 26.1277 28.4865 26.1277 29.2024V35.7223H24.2612V34.38H24.1845C24.0609 34.6271 23.8756 34.87 23.6284 35.1086C23.3813 35.3473 23.0638 35.5454 22.676 35.7031C22.2882 35.8608 21.8237 35.9396 21.2825 35.9396ZM21.698 34.4055C22.2264 34.4055 22.6781 34.3011 23.0531 34.0923C23.4324 33.8835 23.72 33.6108 23.9161 33.2741C24.1163 32.9332 24.2165 32.5689 24.2165 32.1811V30.9155C24.1483 30.9836 24.0162 31.0476 23.8202 31.1072C23.6284 31.1626 23.4089 31.2116 23.1618 31.2542C22.9146 31.2926 22.6739 31.3288 22.4395 31.3629C22.2051 31.3927 22.0091 31.4183 21.8514 31.4396C21.4807 31.4865 21.1419 31.5653 20.8351 31.6761C20.5325 31.7869 20.2896 31.9467 20.1064 32.1555C19.9274 32.3601 19.8379 32.6328 19.8379 32.9737C19.8379 33.4467 20.0126 33.8047 20.3621 34.0476C20.7115 34.2862 21.1568 34.4055 21.698 34.4055Z" fill="black"/>
  <path d="M2.51709 35.7223V25.9041H4.35161V27.5021H4.47306C4.6776 26.9609 5.01212 26.539 5.47661 26.2365C5.9411 25.9297 6.4972 25.7763 7.14493 25.7763C7.80118 25.7763 8.3509 25.9297 8.79408 26.2365C9.24152 26.5433 9.57178 26.9652 9.78485 27.5021H9.88712C10.1215 26.978 10.4944 26.5604 11.0057 26.2493C11.5171 25.9339 12.1265 25.7763 12.8339 25.7763C13.7245 25.7763 14.451 26.0554 15.0135 26.6136C15.5803 27.1719 15.8637 28.0135 15.8637 29.1385V35.7223H13.9525V29.3175C13.9525 28.6527 13.7714 28.1711 13.4091 27.8728C13.0469 27.5746 12.6144 27.4254 12.1116 27.4254C11.4894 27.4254 11.0057 27.6172 10.6606 28.0007C10.3154 28.38 10.1428 28.8679 10.1428 29.4645V35.7223H8.23797V29.196C8.23797 28.6633 8.07178 28.2351 7.73939 27.9112C7.40701 27.5873 6.97448 27.4254 6.44181 27.4254C6.07959 27.4254 5.74507 27.5213 5.43825 27.713C5.1357 27.9005 4.89067 28.1626 4.70317 28.4993C4.51993 28.8359 4.42831 29.2258 4.42831 29.669V35.7223H2.51709Z" fill="black"/>
  <path d="M89.3307 13.9204C88.3633 13.9204 87.5302 13.7138 86.8314 13.3004C86.1368 12.8828 85.5998 12.2969 85.2206 11.5426C84.8456 10.7841 84.6581 9.89558 84.6581 8.87711C84.6581 7.87143 84.8456 6.98507 85.2206 6.21802C85.5998 5.45098 86.1283 4.85225 86.8058 4.42186C87.4876 3.99146 88.2845 3.77626 89.1964 3.77626C89.7504 3.77626 90.2873 3.86788 90.8072 4.05112C91.3271 4.23436 91.7937 4.522 92.2071 4.91404C92.6204 5.30609 92.9464 5.81532 93.1851 6.44174C93.4237 7.0639 93.543 7.82029 93.543 8.71092V9.38848H85.7383V7.95666H91.6702C91.6702 7.45382 91.5679 7.0085 91.3633 6.62072C91.1588 6.22868 90.8712 5.91973 90.5004 5.69387C90.1339 5.46802 89.7035 5.3551 89.2092 5.3551C88.6723 5.3551 88.2035 5.4872 87.803 5.7514C87.4067 6.01135 87.0998 6.35225 86.8825 6.77413C86.6694 7.19174 86.5629 7.64558 86.5629 8.13564V9.25424C86.5629 9.91049 86.678 10.4687 86.9081 10.929C87.1425 11.3892 87.4684 11.7407 87.8861 11.9836C88.3037 12.2223 88.7916 12.3416 89.3498 12.3416C89.7121 12.3416 90.0423 12.2905 90.3406 12.1882C90.6389 12.0817 90.8967 11.924 91.114 11.7152C91.3314 11.5064 91.4976 11.2486 91.6126 10.9417L93.4216 11.2677C93.2767 11.8004 93.0167 12.267 92.6417 12.6676C92.271 13.0639 91.8044 13.3729 91.2419 13.5944C90.6837 13.8118 90.0466 13.9204 89.3307 13.9204Z" fill="black"/>
  <path d="M83.0904 3.90409V5.43818H77.7275V3.90409H83.0904ZM79.1657 1.55182H81.0769V10.8395C81.0769 11.2102 81.1323 11.4893 81.2431 11.6768C81.3539 11.8601 81.4967 11.9858 81.6714 12.054C81.8504 12.1179 82.0443 12.1498 82.2531 12.1498C82.4065 12.1498 82.5407 12.1392 82.6558 12.1179C82.7708 12.0966 82.8603 12.0795 82.9242 12.0667L83.2694 13.6456C83.1586 13.6882 83.0009 13.7308 82.7964 13.7734C82.5918 13.8203 82.3362 13.8459 82.0294 13.8501C81.5265 13.8586 81.0578 13.7691 80.6231 13.5816C80.1884 13.3941 79.8369 13.1044 79.5684 12.7123C79.2999 12.3203 79.1657 11.8281 79.1657 11.2358V1.55182Z" fill="black"/>
  <path d="M71.1165 13.9396C70.4944 13.9396 69.9319 13.8246 69.429 13.5944C68.9262 13.3601 68.5278 13.0213 68.2337 12.5781C67.944 12.1349 67.7991 11.5916 67.7991 10.9481C67.7991 10.3942 67.9056 9.93819 68.1187 9.58024C68.3317 9.22228 68.6194 8.9389 68.9816 8.7301C69.3438 8.52129 69.7486 8.36362 70.1961 8.25708C70.6435 8.15055 71.0995 8.06958 71.564 8.01419C72.152 7.946 72.6293 7.89061 72.9958 7.84799C73.3623 7.80112 73.6286 7.72654 73.7948 7.62427C73.961 7.522 74.0441 7.35581 74.0441 7.12569V7.08095C74.0441 6.52271 73.8864 6.09018 73.5711 5.78336C73.26 5.47654 72.7955 5.32314 72.1776 5.32314C71.5342 5.32314 71.027 5.46589 70.6563 5.7514C70.2898 6.03265 70.0363 6.34586 69.8957 6.69103L68.0995 6.28194C68.3126 5.68535 68.6236 5.20382 69.0327 4.83734C69.4461 4.4666 69.9212 4.19813 70.4582 4.03194C70.9951 3.86149 71.5597 3.77626 72.1521 3.77626C72.5441 3.77626 72.9596 3.82314 73.3985 3.91689C73.8417 4.00637 74.255 4.17257 74.6386 4.41546C75.0263 4.65836 75.3438 5.00566 75.591 5.45737C75.8381 5.90481 75.9617 6.48649 75.9617 7.2024V13.7223H74.0952V12.38H74.0185C73.895 12.6271 73.7096 12.87 73.4624 13.1086C73.2153 13.3473 72.8978 13.5454 72.51 13.7031C72.1222 13.8608 71.6577 13.9396 71.1165 13.9396ZM71.532 12.4055C72.0604 12.4055 72.5121 12.3011 72.8871 12.0923C73.2664 11.8835 73.554 11.6108 73.7501 11.2741C73.9503 10.9332 74.0505 10.5689 74.0505 10.1811V8.91547C73.9823 8.98365 73.8502 9.04757 73.6542 9.10723C73.4624 9.16262 73.243 9.21163 72.9958 9.25424C72.7486 9.2926 72.5079 9.32882 72.2735 9.36291C72.0391 9.39274 71.8431 9.41831 71.6854 9.43961C71.3147 9.48649 70.9759 9.56532 70.6691 9.67612C70.3665 9.78691 70.1236 9.94671 69.9404 10.1555C69.7614 10.3601 69.6719 10.6328 69.6719 10.9737C69.6719 11.4467 69.8467 11.8047 70.1961 12.0476C70.5455 12.2862 70.9908 12.4055 71.532 12.4055Z" fill="black"/>
  <path d="M65.6881 0.631378V13.7223H63.7769V0.631378H65.6881Z" fill="black"/>
  <path d="M59.2912 9.65055V3.9041H61.2089V13.7223H59.3296V12.022H59.2273C59.0015 12.5461 58.6393 12.9829 58.1407 13.3324C57.6464 13.6775 57.0306 13.8501 56.2934 13.8501C55.6627 13.8501 55.1044 13.7116 54.6187 13.4346C54.1371 13.1534 53.7579 12.7379 53.4809 12.1882C53.2081 11.6385 53.0718 10.9588 53.0718 10.1491V3.9041H54.983V9.91901C54.983 10.588 55.1684 11.1207 55.5391 11.517C55.9098 11.9133 56.3914 12.1115 56.9837 12.1115C57.3417 12.1115 57.6975 12.022 58.0512 11.843C58.4091 11.664 58.7053 11.3934 58.9397 11.0312C59.1783 10.669 59.2955 10.2088 59.2912 9.65055Z" fill="black"/>
  <path d="M46.9946 13.9204C46.0443 13.9204 45.2261 13.7052 44.54 13.2748C43.8582 12.8402 43.334 12.2415 42.9676 11.4787C42.6011 10.7159 42.4178 9.84231 42.4178 8.85794C42.4178 7.86078 42.6053 6.98081 42.9803 6.21802C43.3553 5.45098 43.8838 4.85225 44.5656 4.42186C45.2474 3.99146 46.0507 3.77626 46.9754 3.77626C47.7211 3.77626 48.3859 3.91476 48.9697 4.19174C49.5535 4.46447 50.0244 4.84799 50.3823 5.34231C50.7446 5.83663 50.9597 6.41404 51.0279 7.07456H49.1678C49.0656 6.61433 48.8312 6.21802 48.4647 5.88564C48.1025 5.55325 47.6167 5.38706 47.0073 5.38706C46.4747 5.38706 46.008 5.52768 45.6075 5.80893C45.2112 6.08592 44.9022 6.48223 44.6806 6.99785C44.459 7.50922 44.3482 8.11433 44.3482 8.81319C44.3482 9.5291 44.4569 10.147 44.6742 10.6669C44.8916 11.1868 45.1984 11.5895 45.5947 11.875C45.9953 12.1605 46.4661 12.3032 47.0073 12.3032C47.3696 12.3032 47.6977 12.2372 47.9917 12.1051C48.29 11.9687 48.5393 11.7748 48.7396 11.5234C48.9441 11.272 49.0869 10.9694 49.1678 10.6157H51.0279C50.9597 11.2507 50.7531 11.8175 50.4079 12.316C50.0627 12.8146 49.6004 13.2067 49.0208 13.4922C48.4455 13.7777 47.7701 13.9204 46.9946 13.9204Z" fill="black"/>
  <path d="M38.3765 13.7223V3.9041H40.2877V13.7223H38.3765ZM39.3417 2.38918C39.0093 2.38918 38.7238 2.27839 38.4851 2.0568C38.2508 1.83094 38.1336 1.56248 38.1336 1.2514C38.1336 0.936059 38.2508 0.667593 38.4851 0.446002C38.7238 0.22015 39.0093 0.107224 39.3417 0.107224C39.6741 0.107224 39.9574 0.22015 40.1918 0.446002C40.4305 0.667593 40.5498 0.936059 40.5498 1.2514C40.5498 1.56248 40.4305 1.83094 40.1918 2.0568C39.9574 2.27839 39.6741 2.38918 39.3417 2.38918Z" fill="black"/>
  <path d="M36.2623 3.90409V5.43818H30.8994V3.90409H36.2623ZM32.3376 1.55182H34.2488V10.8395C34.2488 11.2102 34.3042 11.4893 34.415 11.6768C34.5258 11.8601 34.6686 11.9858 34.8433 12.054C35.0223 12.1179 35.2161 12.1498 35.425 12.1498C35.5784 12.1498 35.7126 12.1392 35.8277 12.1179C35.9427 12.0966 36.0322 12.0795 36.0961 12.0667L36.4413 13.6456C36.3305 13.6882 36.1728 13.7308 35.9683 13.7734C35.7637 13.8203 35.508 13.8459 35.2012 13.8501C34.6984 13.8586 34.2296 13.7691 33.795 13.5816C33.3603 13.3941 33.0088 13.1044 32.7403 12.7123C32.4718 12.3203 32.3376 11.8281 32.3376 11.2358V1.55182Z" fill="black"/>
  <path d="M24.1909 13.7223V3.9041H26.0382V5.46376H26.1405C26.3195 4.93535 26.6348 4.51986 27.0865 4.21731C27.5425 3.91049 28.0581 3.75708 28.6334 3.75708C28.7527 3.75708 28.8933 3.76134 29.0553 3.76987C29.2215 3.77839 29.3514 3.78904 29.4452 3.80182V5.62995C29.3685 5.60864 29.2321 5.58521 29.0361 5.55964C28.8401 5.52981 28.644 5.51489 28.448 5.51489C27.9963 5.51489 27.5936 5.61077 27.2399 5.80254C26.8905 5.99004 26.6135 6.25211 26.409 6.58876C26.2044 6.92114 26.1021 7.3004 26.1021 7.72654V13.7223H24.1909Z" fill="black"/>
  <path d="M16.8001 13.9396C16.1779 13.9396 15.6154 13.8246 15.1126 13.5944C14.6098 13.3601 14.2113 13.0213 13.9173 12.5781C13.6275 12.1349 13.4826 11.5916 13.4826 10.9481C13.4826 10.3942 13.5892 9.93819 13.8022 9.58024C14.0153 9.22228 14.3029 8.9389 14.6652 8.7301C15.0274 8.52129 15.4322 8.36362 15.8797 8.25708C16.3271 8.15055 16.7831 8.06958 17.2476 8.01419C17.8356 7.946 18.3129 7.89061 18.6794 7.84799C19.0458 7.80112 19.3122 7.72654 19.4784 7.62427C19.6446 7.522 19.7277 7.35581 19.7277 7.12569V7.08095C19.7277 6.52271 19.57 6.09018 19.2547 5.78336C18.9436 5.47654 18.4791 5.32314 17.8612 5.32314C17.2177 5.32314 16.7106 5.46589 16.3399 5.7514C15.9734 6.03265 15.7199 6.34586 15.5792 6.69103L13.7831 6.28194C13.9961 5.68535 14.3072 5.20382 14.7163 4.83734C15.1297 4.4666 15.6048 4.19813 16.1417 4.03194C16.6787 3.86149 17.2433 3.77626 17.8356 3.77626C18.2277 3.77626 18.6431 3.82314 19.0821 3.91689C19.5252 4.00637 19.9386 4.17257 20.3221 4.41546C20.7099 4.65836 21.0274 5.00566 21.2745 5.45737C21.5217 5.90481 21.6453 6.48649 21.6453 7.2024V13.7223H19.7788V12.38H19.7021C19.5785 12.6271 19.3931 12.87 19.146 13.1086C18.8988 13.3473 18.5814 13.5454 18.1936 13.7031C17.8058 13.8608 17.3413 13.9396 16.8001 13.9396ZM17.2156 12.4055C17.744 12.4055 18.1957 12.3011 18.5707 12.0923C18.95 11.8835 19.2376 11.6108 19.4336 11.2741C19.6339 10.9332 19.7341 10.5689 19.7341 10.1811V8.91547C19.6659 8.98365 19.5338 9.04757 19.3377 9.10723C19.146 9.16262 18.9265 9.21163 18.6794 9.25424C18.4322 9.2926 18.1914 9.32882 17.9571 9.36291C17.7227 9.39274 17.5267 9.41831 17.369 9.43961C16.9983 9.48649 16.6595 9.56532 16.3527 9.67612C16.0501 9.78691 15.8072 9.94671 15.624 10.1555C15.445 10.3601 15.3555 10.6328 15.3555 10.9737C15.3555 11.4467 15.5302 11.8047 15.8797 12.0476C16.2291 12.2862 16.6744 12.4055 17.2156 12.4055Z" fill="black"/>
  <path d="M2.6705 13.7223V0.631378H7.33669C8.35516 0.631378 9.19891 0.816748 9.86794 1.18749C10.537 1.55822 11.0377 2.06533 11.3701 2.70879C11.7025 3.348 11.8687 4.06817 11.8687 4.8693C11.8687 5.6747 11.7003 6.39913 11.3637 7.0426C11.0313 7.6818 10.5285 8.18891 9.85516 8.56391C9.18613 8.93465 8.34451 9.12001 7.3303 9.12001H4.1215V7.4453H7.15133C7.79479 7.4453 8.31681 7.3345 8.71738 7.11291C9.11794 6.88706 9.41198 6.58024 9.59948 6.19246C9.78698 5.80467 9.88073 5.36362 9.88073 4.8693C9.88073 4.37499 9.78698 3.93607 9.59948 3.55254C9.41198 3.16902 9.11581 2.86859 8.71099 2.65127C8.31042 2.43394 7.78201 2.32527 7.12576 2.32527H4.64564V13.7223H2.6705Z" fill="black"/>
  <path d="M2.58939 60.9684V49.0659H3.91941V54.1831C3.91941 54.6527 4.01709 55.066 4.21246 55.4229C4.41159 55.7761 4.68961 56.0522 5.04654 56.2514C5.40722 56.4505 5.82802 56.5501 6.30893 56.5501C6.78984 56.5501 7.20876 56.4505 7.56569 56.2514C7.92637 56.0485 8.2044 55.7705 8.39977 55.4173C8.59889 55.0604 8.69846 54.649 8.69846 54.1831V49.0659H10.0285V57.7223H8.69846V56.4373H8.63083C8.39789 56.892 8.0729 57.2395 7.65586 57.4799C7.23882 57.7166 6.78984 57.835 6.30893 57.835C5.82802 57.835 5.37905 57.7166 4.96201 57.4799C4.54872 57.2395 4.22373 56.892 3.98703 56.4373H3.91941V60.9684H2.58939Z" fill="black"/>
  <path d="M44.6563 55.8801C43.9124 55.8801 43.2492 55.7523 42.6669 55.4969C42.0883 55.2414 41.628 54.8863 41.2862 54.4317C40.948 53.9734 40.7639 53.4417 40.7339 52.8368H42.154C42.1841 53.2088 42.3118 53.53 42.5373 53.8005C42.7627 54.0673 43.0576 54.2739 43.4221 54.4204C43.7865 54.567 44.1904 54.6402 44.6337 54.6402C45.1297 54.6402 45.5693 54.5538 45.9525 54.381C46.3357 54.2082 46.6363 53.9677 46.8542 53.6596C47.0721 53.3515 47.1811 52.9946 47.1811 52.5889C47.1811 52.1643 47.0759 51.7905 46.8655 51.4674C46.6551 51.1405 46.347 50.885 45.9412 50.7009C45.5355 50.5168 45.0395 50.4248 44.4534 50.4248H43.5292V49.1849H44.4534C44.9118 49.1849 45.3138 49.1023 45.6594 48.9369C46.0088 48.7716 46.2812 48.5387 46.4766 48.2381C46.6757 47.9375 46.7753 47.5844 46.7753 47.1786C46.7753 46.7879 46.6889 46.4478 46.5161 46.1585C46.3432 45.8693 46.099 45.6438 45.7834 45.4823C45.4716 45.3207 45.1034 45.2399 44.6788 45.2399C44.2806 45.2399 43.9049 45.3132 43.5517 45.4597C43.2023 45.6025 42.9167 45.811 42.6951 46.0853C42.4734 46.3558 42.3532 46.6827 42.3344 47.0659H40.9818C41.0044 46.461 41.1866 45.9312 41.5285 45.4766C41.8704 45.0183 42.3175 44.6613 42.8698 44.4059C43.4258 44.1504 44.0364 44.0226 44.7014 44.0226C45.4152 44.0226 46.0276 44.1673 46.5386 44.4566C47.0496 44.7421 47.4422 45.1197 47.7165 45.5893C47.9907 46.059 48.1279 46.5662 48.1279 47.111C48.1279 47.761 47.9569 48.3151 47.615 48.7735C47.2769 49.2319 46.8166 49.5493 46.2343 49.7259V49.8161C46.9632 49.9363 47.5324 50.2463 47.9419 50.746C48.3514 51.2419 48.5562 51.8562 48.5562 52.5889C48.5562 53.2163 48.3852 53.7799 48.0433 54.2796C47.7052 54.7755 47.2431 55.1662 46.657 55.4518C46.0708 55.7373 45.404 55.8801 44.6563 55.8801Z" fill="black"/>
  <path d="M26.9856 55.7223V47.0659H28.2706V48.4185H28.3833C28.5636 47.9563 28.8548 47.5975 29.2568 47.342C29.6588 47.0828 30.1416 46.9532 30.7052 46.9532C31.2763 46.9532 31.7515 47.0828 32.131 47.342C32.5142 47.5975 32.8129 47.9563 33.0271 48.4185H33.1172C33.3389 47.9714 33.6714 47.6163 34.1148 47.3533C34.5581 47.0866 35.0897 46.9532 35.7097 46.9532C36.4836 46.9532 37.1167 47.1955 37.6089 47.6802C38.1011 48.1611 38.3471 48.9106 38.3471 49.9288V55.7223H37.0171V49.9288C37.0171 49.2901 36.8424 48.8336 36.493 48.5594C36.1436 48.2851 35.7322 48.1479 35.2588 48.1479C34.6501 48.1479 34.1786 48.332 33.8442 48.7002C33.5099 49.0647 33.3427 49.5268 33.3427 50.0866V55.7223H31.9901V49.7936C31.9901 49.3014 31.8304 48.905 31.5111 48.6044C31.1917 48.3001 30.7803 48.1479 30.2769 48.1479C29.9312 48.1479 29.6081 48.24 29.3075 48.4241C29.0107 48.6082 28.7703 48.8637 28.5862 49.1905C28.4058 49.5137 28.3156 49.8875 28.3156 50.312V55.7223H26.9856Z" fill="black"/>
  <path d="M25.409 43.6394L21.6895 57.4581H20.4722L24.1917 43.6394H25.409Z" fill="black"/>
  <path d="M15.1521 59.1488C14.5096 59.1488 13.9574 59.0661 13.4952 58.9008C13.0331 58.7393 12.648 58.5251 12.3399 58.2584C12.0356 57.9954 11.7933 57.7136 11.6129 57.413L12.6724 56.6691C12.7926 56.8269 12.9448 57.0072 13.1289 57.2101C13.313 57.4168 13.5647 57.5952 13.8841 57.7455C14.2072 57.8995 14.6299 57.9766 15.1521 57.9766C15.8509 57.9766 16.4277 57.8075 16.8823 57.4694C17.3369 57.1312 17.5642 56.6015 17.5642 55.8801V54.1218H17.4515C17.3538 54.2796 17.2148 54.4749 17.0344 54.7079C16.8578 54.9371 16.6024 55.1418 16.268 55.3222C15.9374 55.4987 15.4903 55.587 14.9267 55.587C14.2279 55.587 13.6004 55.4217 13.0444 55.0911C12.4921 54.7605 12.0544 54.2796 11.7313 53.6484C11.4119 53.0172 11.2522 52.2507 11.2522 51.349C11.2522 50.4623 11.4081 49.6902 11.72 49.0327C12.0318 48.3715 12.4658 47.8605 13.0218 47.4998C13.5779 47.1354 14.2203 46.9532 14.9492 46.9532C15.5128 46.9532 15.9599 47.0471 16.2905 47.235C16.6249 47.4191 16.8804 47.6295 17.057 47.8662C17.2373 48.0991 17.3763 48.2907 17.474 48.441H17.6093V47.0659H18.8942V55.9703C18.8942 56.7142 18.7251 57.3191 18.387 57.785C18.0526 58.2546 17.6018 58.5984 17.0344 58.8163C16.4709 59.038 15.8434 59.1488 15.1521 59.1488ZM15.107 54.3923C15.6405 54.3923 16.0914 54.2702 16.4596 54.026C16.8278 53.7817 17.1077 53.4305 17.2993 52.9721C17.4909 52.5137 17.5867 51.9652 17.5867 51.3265C17.5867 50.7028 17.4928 50.1524 17.3049 49.6752C17.1171 49.1981 16.8391 48.8242 16.4709 48.5537C16.1027 48.2832 15.6481 48.1479 15.107 48.1479C14.5435 48.1479 14.0738 48.2907 13.6981 48.5763C13.3262 48.8618 13.0463 49.245 12.8584 49.7259C12.6743 50.2068 12.5822 50.7404 12.5822 51.3265C12.5822 51.9276 12.6762 52.4592 12.864 52.9214C13.0556 53.3797 13.3374 53.7404 13.7094 54.0034C14.0851 54.2627 14.551 54.3923 15.107 54.3923Z" fill="black"/>
  <path d="M27.2667 75.842H1.03329V196.452H27.2667V75.842Z" fill="url(#paint0_linear_0_1)"/>
  <path fill-rule="evenodd" clip-rule="evenodd" d="M0.873322 75.682H27.4267V196.612H0.873322V75.682ZM1.19324 76.002V196.292H27.1067V76.002H1.19324Z" fill="black"/>
  <path d="M46.4924 89.9187L51.6957 79.6259V79.535H45.6972V78.2853H53.1499V79.6031L47.9693 89.9187H46.4924Z" fill="black"/>
  <path d="M36.4438 89.9187V88.8963L40.2838 84.6928C40.7344 84.2005 41.1055 83.7725 41.3971 83.409C41.6887 83.0417 41.9046 82.6971 42.0447 82.3752C42.1886 82.0495 42.2605 81.7087 42.2605 81.3527C42.2605 80.9437 42.1621 80.5896 41.9652 80.2905C41.772 79.9913 41.5069 79.7603 41.1699 79.5975C40.8329 79.4346 40.4542 79.3532 40.0338 79.3532C39.587 79.3532 39.1969 79.446 38.8637 79.6315C38.5342 79.8133 38.2786 80.0689 38.0968 80.3984C37.9188 80.7279 37.8298 81.1141 37.8298 81.5572H36.4893C36.4893 80.8755 36.6464 80.2772 36.9607 79.7622C37.275 79.2472 37.703 78.8458 38.2445 78.5579C38.7898 78.2701 39.4014 78.1262 40.0793 78.1262C40.7609 78.1262 41.3649 78.2701 41.8913 78.5579C42.4177 78.8458 42.8305 79.2339 43.1296 79.7224C43.4288 80.2109 43.5784 80.7544 43.5784 81.3527C43.5784 81.7806 43.5008 82.1991 43.3455 82.6081C43.194 83.0133 42.9289 83.4658 42.5502 83.9657C42.1753 84.4618 41.6546 85.0677 40.9881 85.7834L38.3752 88.5782V88.669H43.7829V89.9187H36.4438Z" fill="black"/>
  <path d="M47.7421 191.799C47.265 191.791 46.7878 191.7 46.3106 191.526C45.8335 191.352 45.398 191.058 45.0042 190.645C44.6103 190.229 44.2941 189.667 44.0555 188.958C43.817 188.246 43.6977 187.353 43.6977 186.277C43.6977 185.247 43.7942 184.335 43.9874 183.539C44.1805 182.74 44.4607 182.068 44.8281 181.523C45.1954 180.974 45.6385 180.557 46.1573 180.273C46.6799 179.989 47.2687 179.847 47.9239 179.847C48.5752 179.847 49.1546 179.978 49.6621 180.239C50.1733 180.496 50.5899 180.856 50.9118 181.318C51.2337 181.78 51.4419 182.312 51.5366 182.914H50.1506C50.0218 182.392 49.7719 181.958 49.4008 181.614C49.0297 181.269 48.5374 181.097 47.9239 181.097C47.0226 181.097 46.3125 181.489 45.7937 182.273C45.2787 183.056 45.0193 184.157 45.0155 185.573H45.1064C45.3185 185.251 45.5703 184.976 45.8619 184.749C46.1573 184.518 46.4829 184.34 46.8389 184.215C47.1949 184.09 47.5717 184.028 47.9693 184.028C48.6358 184.028 49.2455 184.194 49.7984 184.528C50.3513 184.857 50.7944 185.313 51.1276 185.897C51.4609 186.476 51.6275 187.141 51.6275 187.89C51.6275 188.61 51.4665 189.269 51.1447 189.867C50.8228 190.462 50.3702 190.935 49.787 191.287C49.2076 191.636 48.526 191.806 47.7421 191.799ZM47.7421 190.549C48.2193 190.549 48.6472 190.43 49.0259 190.191C49.4084 189.952 49.7094 189.632 49.9291 189.231C50.1525 188.83 50.2642 188.383 50.2642 187.89C50.2642 187.409 50.1563 186.972 49.9404 186.578C49.7283 186.181 49.4349 185.864 49.06 185.63C48.6888 185.395 48.2647 185.277 47.7875 185.277C47.4278 185.277 47.0926 185.349 46.7821 185.493C46.4716 185.633 46.1989 185.827 45.9641 186.073C45.7331 186.319 45.5514 186.601 45.4188 186.919C45.2863 187.233 45.22 187.565 45.22 187.913C45.22 188.375 45.3279 188.807 45.5438 189.208C45.7634 189.61 46.0626 189.933 46.4413 190.18C46.8238 190.426 47.2574 190.549 47.7421 190.549Z" fill="black"/>
  <path d="M40.5337 180.006V191.639H39.1249V181.483H39.0568L36.2166 183.369V181.937L39.1249 180.006H40.5337Z" fill="black"/>
  <defs>
    <linearGradient id="paint0_linear_0_1" x1="-6.32486" y1="196.954" x2="-6.32486" y2="76.0384" gradientUnits="userSpaceOnUse">
      <stop stop-color="#00204D" stop-opacity="0"/>
      <stop offset="0.0192308" stop-opacity="0"/>
      <stop offset="0.0384615" stop-opacity="0"/>
      <stop offset="0.0576923" stop-opacity="0"/>
      <stop offset="0.0769231" stop-opacity="0"/>
      <stop offset="0.0961538" stop-opacity="0"/>
      <stop offset="0.115385" stop-opacity="0"/>
      <stop offset="0.134615" stop-opacity="0"/>
      <stop offset="0.153846" stop-opacity="0"/>
      <stop offset="0.173077" stop-opacity="0"/>
      <stop offset="0.192308" stop-opacity="0"/>
      <stop offset="0.211538" stop-opacity="0"/>
      <stop offset="0.230769" stop-opacity="0"/>
      <stop offset="0.25" stop-color="#414D6B" stop-opacity="0"/>
      <stop offset="0.269231" stop-color="#808071" stop-opacity="0.0705882"/>
      <stop offset="0.288462" stop-color="#807979" stop-opacity="0.14902"/>
      <stop offset="0.307692" stop-color="#7B7B77" stop-opacity="0.227451"/>
      <stop offset="0.326923" stop-color="#7E7B77" stop-opacity="0.301961"/>
      <stop offset="0.346154" stop-color="#7C7C76" stop-opacity="0.380392"/>
      <stop offset="0.365385" stop-color="#7C7C78" stop-opacity="0.458824"/>
      <stop offset="0.384615" stop-color="#7C7C78" stop-opacity="0.533333"/>
      <stop offset="0.403846" stop-color="#7C7C77" stop-opacity="0.611765"/>
      <stop offset="0.423077" stop-color="#7D7B77" stop-opacity="0.690196"/>
      <stop offset="0.442308" stop-color="#7C7B77" stop-opacity="0.764706"/>
      <stop offset="0.461538" stop-color="#7D7B78" stop-opacity="0.843137"/>
      <stop offset="0.480769" stop-color="#7D7C77" stop-opacity="0.921569"/>
      <stop offset="0.5" stop-color="#7D7C78"/>
      <stop offset="0.519231" stop-color="#817F77"/>
      <stop offset="0.538462" stop-color="#868376"/>
      <stop offset="0.557692" stop-color="#8B8775"/>
      <stop offset="0.576923" stop-color="#908B75"/>
      <stop offset="0.596154" stop-color="#958F74"/>
      <stop offset="0.615385" stop-color="#9A9373"/>
      <stop offset="0.634615" stop-color="#9F9773"/>
      <stop offset="0.653846" stop-color="#A49B72"/>
      <stop offset="0.673077" stop-color="#A99F71"/>
      <stop offset="0.692308" stop-color="#AEA371"/>
      <stop offset="0.711538" stop-color="#B3A770"/>
      <stop offset="0.730769" stop-color="#B8AB6F"/>
      <stop offset="0.75" stop-color="#BEAF6F"/>
      <stop offset="0.769231" stop-color="#C2B36B"/>
      <stop offset="0.788462" stop-color="#C7B768"/>
      <stop offset="0.807692" stop-color="#CCBC65"/>
      <stop offset="0.826923" stop-color="#D1C062"/>
      <stop offset="0.846154" stop-color="#D6C55F"/>
      <stop offset="0.865385" stop-color="#DBCA5C"/>
      <stop offset="0.884615" stop-color="#E0CE59"/>
      <stop offset="0.903846" stop-color="#E5D355"/>
      <stop offset="0.923077" stop-color="#EAD752"/>
      <stop offset="0.942308" stop-color="#EFDC4F"/>
      <stop offset="0.961538" stop-color="#F4E04C"/>
      <stop offset="0.980769" stop-color="#F9E549"/>
      <stop offset="1" stop-color="#FFEA46"/>
    </linearGradient>
  </defs>
</svg>