<svg width="158" height="167" viewBox="0 0 158 167" fill="none" xmlns="http://www.w3.org/2000/svg">
  <path d="M45.3413 33.2893V32.2749L49.151 28.1045C49.5981 27.616 49.9663 27.1915 50.2556 26.8308C50.5449 26.4664 50.7591 26.1245 50.8981 25.8051C51.0409 25.482 51.1122 25.1438 51.1122 24.7907C51.1122 24.3849 51.0146 24.0336 50.8192 23.7368C50.6276 23.44 50.3646 23.2108 50.0302 23.0493C49.6958 22.8877 49.3201 22.8069 48.9031 22.8069C48.4597 22.8069 48.0727 22.899 47.7421 23.0831C47.4152 23.2634 47.1616 23.517 46.9813 23.8439C46.8047 24.1708 46.7164 24.554 46.7164 24.9936H45.3864C45.3864 24.3173 45.5423 23.7237 45.8542 23.2127C46.166 22.7017 46.5906 22.3035 47.1278 22.0179C47.6688 21.7324 48.2756 21.5896 48.9481 21.5896C49.6244 21.5896 50.2237 21.7324 50.7459 22.0179C51.2682 22.3035 51.6777 22.6886 51.9745 23.1732C52.2713 23.6579 52.4197 24.1971 52.4197 24.7907C52.4197 25.2152 52.3427 25.6304 52.1887 26.0362C52.0384 26.4382 51.7754 26.8871 51.3997 27.3831C51.0277 27.8753 50.5111 28.4764 49.8498 29.1865L47.2574 31.9593V32.0494H52.6226V33.2893H45.3413Z" fill="black"/>
  <path d="M31.5705 33.2893V24.6329H32.8555V25.9854H32.9682C33.1485 25.5233 33.4397 25.1645 33.8417 24.909C34.2437 24.6498 34.7265 24.5202 35.2901 24.5202C35.8612 24.5202 36.3364 24.6498 36.7159 24.909C37.0991 25.1645 37.3978 25.5233 37.612 25.9854H37.7021C37.9238 25.5383 38.2563 25.1833 38.6997 24.9203C39.143 24.6535 39.6746 24.5202 40.2946 24.5202C41.0685 24.5202 41.7016 24.7625 42.1938 25.2472C42.686 25.7281 42.932 26.4776 42.932 27.4958V33.2893H41.602V27.4958C41.602 26.8571 41.4273 26.4006 41.0779 26.1263C40.7285 25.8521 40.3171 25.7149 39.8437 25.7149C39.235 25.7149 38.7635 25.899 38.4291 26.2672C38.0948 26.6317 37.9276 27.0938 37.9276 27.6536V33.2893H36.575V27.3605C36.575 26.8684 36.4153 26.472 36.096 26.1714C35.7766 25.8671 35.3652 25.7149 34.8618 25.7149C34.5161 25.7149 34.193 25.807 33.8924 25.9911C33.5956 26.1752 33.3552 26.4307 33.1711 26.7575C32.9907 27.0806 32.9005 27.4545 32.9005 27.879V33.2893H31.5705Z" fill="black"/>
  <path d="M29.9939 21.2064L26.2744 35.0251H25.0571L28.7766 21.2064H29.9939Z" fill="black"/>
  <path d="M19.737 36.7158C19.0945 36.7158 18.5423 36.6331 18.0801 36.4678C17.618 36.3062 17.2329 36.0921 16.9248 35.8253C16.6205 35.5623 16.3782 35.2805 16.1978 34.98L17.2573 34.2361C17.3775 34.3939 17.5297 34.5742 17.7138 34.7771C17.8979 34.9837 18.1496 35.1622 18.469 35.3125C18.7921 35.4665 19.2148 35.5435 19.737 35.5435C20.4358 35.5435 21.0126 35.3745 21.4672 35.0363C21.9218 34.6982 22.1491 34.1684 22.1491 33.4471V31.6887H22.0364C21.9387 31.8465 21.7997 32.0419 21.6193 32.2749C21.4427 32.504 21.1873 32.7088 20.8529 32.8891C20.5223 33.0657 20.0752 33.154 19.5116 33.154C18.8128 33.154 18.1853 32.9887 17.6293 32.6581C17.077 32.3275 16.6393 31.8465 16.3162 31.2153C15.9968 30.5842 15.8371 29.8177 15.8371 28.916C15.8371 28.0293 15.993 27.2572 16.3049 26.5997C16.6167 25.9385 17.0507 25.4275 17.6067 25.0668C18.1628 24.7024 18.8052 24.5202 19.5341 24.5202C20.0977 24.5202 20.5448 24.6141 20.8754 24.802C21.2098 24.986 21.4653 25.1964 21.6419 25.4331C21.8222 25.6661 21.9612 25.8577 22.0589 26.008H22.1942V24.6329H23.4791V33.5372C23.4791 34.2812 23.31 34.8861 22.9719 35.3519C22.6375 35.8216 22.1867 36.1653 21.6193 36.3833C21.0558 36.6049 20.4283 36.7158 19.737 36.7158ZM19.6919 31.9593C20.2254 31.9593 20.6763 31.8372 21.0445 31.5929C21.4127 31.3487 21.6926 30.9974 21.8842 30.5391C22.0758 30.0807 22.1716 29.5322 22.1716 28.8934C22.1716 28.2698 22.0777 27.7194 21.8898 27.2422C21.702 26.765 21.424 26.3912 21.0558 26.1207C20.6876 25.8502 20.233 25.7149 19.6919 25.7149C19.1284 25.7149 18.6587 25.8577 18.283 26.1432C17.9111 26.4288 17.6312 26.812 17.4433 27.2929C17.2592 27.7738 17.1671 28.3073 17.1671 28.8934C17.1671 29.4946 17.2611 30.0262 17.4489 30.4883C17.6405 30.9467 17.9223 31.3074 18.2943 31.5704C18.67 31.8296 19.1359 31.9593 19.6919 31.9593Z" fill="black"/>
  <path d="M2.44958 33.2893V24.6329H3.73452V25.9854H3.84723C4.02757 25.5233 4.31875 25.1645 4.72076 24.909C5.12277 24.6498 5.60556 24.5202 6.16913 24.5202C6.74021 24.5202 7.21549 24.6498 7.59496 24.909C7.97818 25.1645 8.27687 25.5233 8.49103 25.9854H8.5812C8.80287 25.5383 9.13537 25.1833 9.57871 24.9203C10.0221 24.6535 10.5537 24.5202 11.1736 24.5202C11.9476 24.5202 12.5806 24.7625 13.0728 25.2472C13.565 25.7281 13.8111 26.4776 13.8111 27.4958V33.2893H12.4811V27.4958C12.4811 26.8571 12.3064 26.4006 11.957 26.1263C11.6076 25.8521 11.1962 25.7149 10.7228 25.7149C10.1141 25.7149 9.64258 25.899 9.3082 26.2672C8.97382 26.6317 8.80663 27.0938 8.80663 27.6536V33.2893H7.45406V27.3605C7.45406 26.8684 7.29439 26.472 6.97503 26.1714C6.65568 25.8671 6.24427 25.7149 5.74082 25.7149C5.39516 25.7149 5.07205 25.807 4.77148 25.9911C4.47467 26.1752 4.23422 26.4307 4.05012 26.7575C3.86978 27.0806 3.7796 27.4545 3.7796 27.879V33.2893H2.44958Z" fill="black"/>
  <path d="M157.23 12.4995L157.134 13.1962C157.07 13.7076 156.962 14.2403 156.808 14.7942C156.659 15.3525 156.504 15.8702 156.342 16.3475C156.184 16.8248 156.054 17.204 155.952 17.4853H154.597C154.652 17.2211 154.729 16.8631 154.827 16.4114C154.925 15.964 155.021 15.4633 155.114 14.9093C155.208 14.3553 155.278 13.7907 155.325 13.2154L155.389 12.4995H157.23Z" fill="black"/>
  <path d="M148.411 14.4874C147.443 14.4874 146.61 14.2808 145.911 13.8674C145.217 13.4498 144.68 12.8639 144.301 12.1096C143.926 11.3511 143.738 10.4626 143.738 9.44411C143.738 8.43842 143.926 7.55206 144.301 6.78502C144.68 6.01797 145.208 5.41925 145.886 4.98885C146.568 4.55845 147.365 4.34325 148.276 4.34325C148.83 4.34325 149.367 4.43487 149.887 4.61811C150.407 4.80135 150.874 5.08899 151.287 5.48104C151.701 5.87308 152.027 6.38232 152.265 7.00874C152.504 7.6309 152.623 8.38729 152.623 9.27791V9.95547H144.818V8.52365H150.75C150.75 8.02081 150.648 7.5755 150.443 7.18771C150.239 6.79567 149.951 6.48672 149.58 6.26087C149.214 6.03502 148.784 5.92209 148.289 5.92209C147.752 5.92209 147.284 6.05419 146.883 6.3184C146.487 6.57834 146.18 6.91925 145.963 7.34112C145.75 7.75874 145.643 8.21257 145.643 8.70263V9.82124C145.643 10.4775 145.758 11.0357 145.988 11.496C146.223 11.9562 146.549 12.3077 146.966 12.5506C147.384 12.7893 147.872 12.9086 148.43 12.9086C148.792 12.9086 149.122 12.8575 149.421 12.7552C149.719 12.6487 149.977 12.491 150.194 12.2822C150.411 12.0734 150.578 11.8156 150.693 11.5087L152.502 11.8347C152.357 12.3674 152.097 12.834 151.722 13.2346C151.351 13.6309 150.884 13.9398 150.322 14.1614C149.764 14.3788 149.127 14.4874 148.411 14.4874Z" fill="black"/>
  <path d="M136.587 14.481C135.794 14.481 135.087 14.2786 134.465 13.8738C133.847 13.4647 133.361 12.883 133.007 12.1288C132.658 11.3702 132.483 10.4604 132.483 9.39936C132.483 8.33828 132.66 7.43061 133.014 6.67635C133.372 5.92209 133.862 5.34467 134.484 4.94411C135.106 4.54354 135.811 4.34325 136.6 4.34325C137.209 4.34325 137.699 4.44553 138.07 4.65007C138.445 4.85035 138.735 5.08473 138.939 5.3532C139.148 5.62166 139.31 5.85817 139.425 6.06271H139.54V1.19837H141.451V14.2893H139.585V12.7616H139.425C139.31 12.9704 139.144 13.209 138.927 13.4775C138.713 13.746 138.419 13.9803 138.044 14.1806C137.669 14.3809 137.184 14.481 136.587 14.481ZM137.009 12.8511C137.559 12.8511 138.023 12.7062 138.402 12.4164C138.786 12.1224 139.076 11.7154 139.272 11.1955C139.472 10.6756 139.572 10.0705 139.572 9.38018C139.572 8.69837 139.474 8.10178 139.278 7.59041C139.082 7.07905 138.794 6.68061 138.415 6.3951C138.036 6.10959 137.567 5.96683 137.009 5.96683C136.434 5.96683 135.954 6.11598 135.571 6.41428C135.187 6.71257 134.897 7.11953 134.701 7.63516C134.51 8.15078 134.414 8.73246 134.414 9.38018C134.414 10.0364 134.512 10.6266 134.708 11.1508C134.904 11.6749 135.194 12.0904 135.577 12.3972C135.965 12.6998 136.442 12.8511 137.009 12.8511Z" fill="black"/>
  <path d="M128.429 14.2893V4.47109H130.34V14.2893H128.429ZM129.394 2.95618C129.062 2.95618 128.777 2.84538 128.538 2.62379C128.303 2.39794 128.186 2.12947 128.186 1.81839C128.186 1.50305 128.303 1.23459 128.538 1.013C128.777 0.787145 129.062 0.674219 129.394 0.674219C129.727 0.674219 130.01 0.787145 130.245 1.013C130.483 1.23459 130.603 1.50305 130.603 1.81839C130.603 2.12947 130.483 2.39794 130.245 2.62379C130.01 2.84538 129.727 2.95618 129.394 2.95618Z" fill="black"/>
  <path d="M120.024 4.47109L122.191 8.29354L124.377 4.47109H126.467L123.405 9.38019L126.492 14.2893H124.402L122.191 10.6202L119.985 14.2893H117.889L120.944 9.38019L117.927 4.47109H120.024Z" fill="black"/>
  <path d="M112.192 14.4874C111.271 14.4874 110.468 14.2765 109.782 13.8546C109.096 13.4327 108.563 12.8425 108.184 12.084C107.805 11.3255 107.615 10.4391 107.615 9.42493C107.615 8.40646 107.805 7.51584 108.184 6.75305C108.563 5.99027 109.096 5.39794 109.782 4.97607C110.468 4.55419 111.271 4.34325 112.192 4.34325C113.112 4.34325 113.916 4.55419 114.602 4.97607C115.288 5.39794 115.82 5.99027 116.2 6.75305C116.579 7.51584 116.769 8.40646 116.769 9.42493C116.769 10.4391 116.579 11.3255 116.2 12.084C115.82 12.8425 115.288 13.4327 114.602 13.8546C113.916 14.2765 113.112 14.4874 112.192 14.4874ZM112.198 12.883C112.795 12.883 113.289 12.7254 113.681 12.41C114.073 12.0947 114.363 11.6749 114.55 11.1508C114.742 10.6266 114.838 10.0492 114.838 9.41854C114.838 8.79212 114.742 8.21683 114.55 7.69269C114.363 7.16428 114.073 6.74027 113.681 6.42067C113.289 6.10107 112.795 5.94127 112.198 5.94127C111.597 5.94127 111.099 6.10107 110.702 6.42067C110.31 6.74027 110.019 7.16428 109.827 7.69269C109.639 8.21683 109.546 8.79212 109.546 9.41854C109.546 10.0492 109.639 10.6266 109.827 11.1508C110.019 11.6749 110.31 12.0947 110.702 12.41C111.099 12.7254 111.597 12.883 112.198 12.883Z" fill="black"/>
  <path d="M99.2096 8.45973V14.2893H97.2983V4.4711H99.1329V6.06911H99.2543C99.4802 5.54922 99.8339 5.13161 100.315 4.81627C100.801 4.50092 101.413 4.34325 102.15 4.34325C102.819 4.34325 103.405 4.48388 103.908 4.76513C104.411 5.04212 104.8 5.45547 105.077 6.00519C105.354 6.5549 105.493 7.23459 105.493 8.04425V14.2893H103.582V8.27436C103.582 7.56271 103.396 7.00661 103.026 6.60604C102.655 6.20121 102.146 5.99879 101.498 5.99879C101.055 5.99879 100.661 6.09467 100.315 6.28644C99.9745 6.4782 99.7039 6.75945 99.5036 7.13019C99.3076 7.49666 99.2096 7.93984 99.2096 8.45973Z" fill="black"/>
  <path d="M90.5883 14.4874C89.6678 14.4874 88.8646 14.2765 88.1785 13.8546C87.4924 13.4327 86.9598 12.8425 86.5805 12.084C86.2012 11.3255 86.0116 10.4391 86.0116 9.42493C86.0116 8.40646 86.2012 7.51584 86.5805 6.75305C86.9598 5.99027 87.4924 5.39794 88.1785 4.97607C88.8646 4.55419 89.6678 4.34325 90.5883 4.34325C91.5088 4.34325 92.312 4.55419 92.9981 4.97607C93.6842 5.39794 94.2169 5.99027 94.5961 6.75305C94.9754 7.51584 95.165 8.40646 95.165 9.42493C95.165 10.4391 94.9754 11.3255 94.5961 12.084C94.2169 12.8425 93.6842 13.4327 92.9981 13.8546C92.312 14.2765 91.5088 14.4874 90.5883 14.4874ZM90.5947 12.883C91.1913 12.883 91.6856 12.7254 92.0776 12.41C92.4697 12.0947 92.7595 11.6749 92.947 11.1508C93.1387 10.6266 93.2346 10.0492 93.2346 9.41854C93.2346 8.79212 93.1387 8.21683 92.947 7.69269C92.7595 7.16428 92.4697 6.74027 92.0776 6.42067C91.6856 6.10107 91.1913 5.94127 90.5947 5.94127C89.9938 5.94127 89.4953 6.10107 89.099 6.42067C88.7069 6.74027 88.415 7.16428 88.2232 7.69269C88.0357 8.21683 87.942 8.79212 87.942 9.41854C87.942 10.0492 88.0357 10.6266 88.2232 11.1508C88.415 11.6749 88.7069 12.0947 89.099 12.41C89.4953 12.7254 89.9938 12.883 90.5947 12.883Z" fill="black"/>
  <path d="M70.5444 14.2893V4.4711H72.379V6.06911H72.5004C72.7049 5.52791 73.0395 5.10604 73.504 4.80348C73.9684 4.49666 74.5246 4.34325 75.1723 4.34325C75.8285 4.34325 76.3782 4.49666 76.8214 4.80348C77.2689 5.1103 77.5991 5.53217 77.8122 6.06911H77.9145C78.1488 5.54496 78.5217 5.12734 79.0331 4.81627C79.5444 4.50092 80.1538 4.34325 80.8612 4.34325C81.7518 4.34325 82.4784 4.62237 83.0409 5.18061C83.6076 5.73885 83.891 6.58047 83.891 7.70547V14.2893H81.9798V7.88445C81.9798 7.21967 81.7987 6.73814 81.4365 6.43985C81.0743 6.14155 80.6417 5.9924 80.1389 5.9924C79.5167 5.9924 79.0331 6.18416 78.6879 6.56769C78.3427 6.94695 78.1702 7.43487 78.1702 8.03146V14.2893H76.2653V7.763C76.2653 7.23033 76.0991 6.80206 75.7667 6.4782C75.4344 6.15433 75.0018 5.9924 74.4692 5.9924C74.1069 5.9924 73.7724 6.08828 73.4656 6.28004C73.163 6.46754 72.918 6.72962 72.7305 7.06627C72.5473 7.40291 72.4557 7.79283 72.4557 8.23601V14.2893H70.5444Z" fill="black"/>
  <path d="M56.9342 8.45973V14.2893H55.0229V4.4711H56.8575V6.06911H56.9789C57.2048 5.54922 57.5585 5.13161 58.04 4.81627C58.5258 4.50092 59.1373 4.34325 59.8745 4.34325C60.5435 4.34325 61.1295 4.48388 61.6323 4.76513C62.1352 5.04212 62.5251 5.45547 62.8021 6.00519C63.0791 6.5549 63.2176 7.23459 63.2176 8.04425V14.2893H61.3063V8.27436C61.3063 7.56271 61.121 7.00661 60.7502 6.60604C60.3795 6.20121 59.8703 5.99879 59.2225 5.99879C58.7793 5.99879 58.3852 6.09467 58.04 6.28644C57.6991 6.4782 57.4285 6.75945 57.2282 7.13019C57.0322 7.49666 56.9342 7.93984 56.9342 8.45973Z" fill="black"/>
  <path d="M48.3129 14.4874C47.3925 14.4874 46.5892 14.2765 45.9031 13.8546C45.217 13.4327 44.6844 12.8425 44.3051 12.084C43.9258 11.3255 43.7362 10.4391 43.7362 9.42493C43.7362 8.40646 43.9258 7.51584 44.3051 6.75305C44.6844 5.99027 45.217 5.39794 45.9031 4.97607C46.5892 4.55419 47.3925 4.34325 48.3129 4.34325C49.2334 4.34325 50.0366 4.55419 50.7227 4.97607C51.4088 5.39794 51.9415 5.99027 52.3207 6.75305C52.7 7.51584 52.8896 8.40646 52.8896 9.42493C52.8896 10.4391 52.7 11.3255 52.3207 12.084C51.9415 12.8425 51.4088 13.4327 50.7227 13.8546C50.0366 14.2765 49.2334 14.4874 48.3129 14.4874ZM48.3193 12.883C48.9159 12.883 49.4102 12.7254 49.8023 12.41C50.1943 12.0947 50.4841 11.6749 50.6716 11.1508C50.8633 10.6266 50.9592 10.0492 50.9592 9.41854C50.9592 8.79212 50.8633 8.21683 50.6716 7.69269C50.4841 7.16428 50.1943 6.74027 49.8023 6.42067C49.4102 6.10107 48.9159 5.94127 48.3193 5.94127C47.7184 5.94127 47.2199 6.10107 46.8236 6.42067C46.4315 6.74027 46.1396 7.16428 45.9479 7.69269C45.7604 8.21683 45.6666 8.79212 45.6666 9.41854C45.6666 10.0492 45.7604 10.6266 45.9479 11.1508C46.1396 11.6749 46.4315 12.0947 46.8236 12.41C47.2199 12.7254 47.7184 12.883 48.3193 12.883Z" fill="black"/>
  <path d="M33.0631 14.2893V1.19837H34.9743V6.06271H35.0894C35.2002 5.85817 35.36 5.62166 35.5688 5.3532C35.7776 5.08473 36.0673 4.85035 36.4381 4.65007C36.8088 4.44553 37.2989 4.34325 37.9083 4.34325C38.7009 4.34325 39.4083 4.54354 40.0304 4.94411C40.6526 5.34467 41.1405 5.92209 41.4942 6.67635C41.8521 7.43061 42.0311 8.33828 42.0311 9.39936C42.0311 10.4604 41.8543 11.3702 41.5006 12.1288C41.1469 12.883 40.6611 13.4647 40.0432 13.8738C39.4253 14.2786 38.72 14.481 37.9274 14.481C37.3308 14.481 36.8429 14.3809 36.4636 14.1806C36.0886 13.9803 35.7946 13.746 35.5815 13.4775C35.3685 13.209 35.2044 12.9704 35.0894 12.7616H34.9296V14.2893H33.0631ZM34.936 9.38018C34.936 10.0705 35.0361 10.6756 35.2364 11.1955C35.4367 11.7154 35.7264 12.1224 36.1057 12.4164C36.485 12.7062 36.9494 12.8511 37.4992 12.8511C38.0702 12.8511 38.5475 12.6998 38.931 12.3972C39.3145 12.0904 39.6043 11.6749 39.8003 11.1508C40.0006 10.6266 40.1007 10.0364 40.1007 9.38018C40.1007 8.73246 40.0027 8.15078 39.8067 7.63516C39.6149 7.11953 39.3252 6.71257 38.9374 6.41428C38.5538 6.11598 38.0744 5.96683 37.4992 5.96683C36.9452 5.96683 36.4764 6.10959 36.0929 6.3951C35.7136 6.68061 35.426 7.07905 35.23 7.59041C35.034 8.10178 34.936 8.69837 34.936 9.38018Z" fill="black"/>
  <path d="M26.0015 14.2893V4.4711H27.8488V6.03075H27.951C28.13 5.50234 28.4454 5.08686 28.8971 4.7843C29.353 4.47749 29.8687 4.32408 30.4439 4.32408C30.5633 4.32408 30.7039 4.32834 30.8658 4.33686C31.032 4.34538 31.162 4.35604 31.2557 4.36882V6.19695C31.179 6.17564 31.0427 6.1522 30.8466 6.12663C30.6506 6.0968 30.4546 6.08189 30.2586 6.08189C29.8069 6.08189 29.4042 6.17777 29.0505 6.36953C28.701 6.55703 28.4241 6.81911 28.2195 7.15575C28.015 7.48814 27.9127 7.8674 27.9127 8.29354V14.2893H26.0015Z" fill="black"/>
  <path d="M18.6107 14.5066C17.9885 14.5066 17.426 14.3916 16.9232 14.1614C16.4203 13.9271 16.0219 13.5883 15.7278 13.1451C15.4381 12.7019 15.2932 12.1586 15.2932 11.5151C15.2932 10.9612 15.3997 10.5052 15.6128 10.1472C15.8259 9.78928 16.1135 9.5059 16.4757 9.29709C16.8379 9.08828 17.2428 8.93061 17.6902 8.82408C18.1376 8.71754 18.5936 8.63658 19.0581 8.58118C19.6462 8.513 20.1234 8.4576 20.4899 8.41499C20.8564 8.36811 21.1227 8.29354 21.2889 8.19127C21.4551 8.08899 21.5382 7.9228 21.5382 7.69269V7.64794C21.5382 7.0897 21.3805 6.65717 21.0652 6.35036C20.7541 6.04354 20.2896 5.89013 19.6717 5.89013C19.0283 5.89013 18.5212 6.03289 18.1504 6.3184C17.7839 6.59965 17.5304 6.91286 17.3898 7.25803L15.5936 6.84894C15.8067 6.25235 16.1178 5.77081 16.5268 5.40433C16.9402 5.0336 17.4153 4.76513 17.9523 4.59894C18.4892 4.42848 19.0538 4.34325 19.6462 4.34325C20.0382 4.34325 20.4537 4.39013 20.8926 4.48388C21.3358 4.57337 21.7491 4.73956 22.1327 4.98246C22.5205 5.22536 22.8379 5.57266 23.0851 6.02436C23.3322 6.47181 23.4558 7.05348 23.4558 7.76939V14.2893H21.5893V12.9469H21.5126C21.3891 13.1941 21.2037 13.437 20.9565 13.6756C20.7094 13.9143 20.3919 14.1124 20.0041 14.2701C19.6163 14.4278 19.1518 14.5066 18.6107 14.5066ZM19.0261 12.9725C19.5545 12.9725 20.0063 12.8681 20.3813 12.6593C20.7605 12.4505 21.0482 12.1778 21.2442 11.8411C21.4445 11.5002 21.5446 11.1359 21.5446 10.7481V9.48246C21.4764 9.55064 21.3443 9.61456 21.1483 9.67422C20.9565 9.72962 20.7371 9.77862 20.4899 9.82124C20.2428 9.85959 20.002 9.89581 19.7676 9.9299C19.5332 9.95973 19.3372 9.9853 19.1795 10.0066C18.8088 10.0535 18.47 10.1323 18.1632 10.2431C17.8607 10.3539 17.6178 10.5137 17.4345 10.7225C17.2555 10.9271 17.1661 11.1998 17.1661 11.5407C17.1661 12.0137 17.3408 12.3717 17.6902 12.6146C18.0396 12.8532 18.4849 12.9725 19.0261 12.9725Z" fill="black"/>
  <path d="M13.5434 5.45547H11.5491C11.4723 5.02933 11.3296 4.65433 11.1208 4.33047C10.912 4.00661 10.6563 3.73175 10.3537 3.5059C10.0512 3.28004 9.71241 3.10959 9.33741 2.99453C8.96667 2.87948 8.57249 2.82195 8.15488 2.82195C7.40062 2.82195 6.72519 3.01158 6.1286 3.39084C5.53627 3.7701 5.06752 4.32621 4.72235 5.05916C4.38144 5.79212 4.21098 6.687 4.21098 7.74382C4.21098 8.80916 4.38144 9.70831 4.72235 10.4413C5.06752 11.1742 5.5384 11.7282 6.13499 12.1032C6.73158 12.4782 7.40275 12.6657 8.14849 12.6657C8.56184 12.6657 8.95388 12.6103 9.32462 12.4995C9.69962 12.3844 10.0384 12.2161 10.341 11.9945C10.6435 11.7729 10.8992 11.5023 11.108 11.1827C11.3211 10.8589 11.4681 10.4881 11.5491 10.0705L13.5434 10.0769C13.4368 10.7204 13.2302 11.3127 12.9233 11.8539C12.6208 12.3908 12.2309 12.8553 11.7536 13.2474C11.2806 13.6352 10.7394 13.9356 10.13 14.1487C9.52064 14.3617 8.85587 14.4683 8.1357 14.4683C7.00218 14.4683 5.99223 14.1998 5.10587 13.6629C4.21951 13.1217 3.52064 12.3482 3.00928 11.3425C2.50218 10.3369 2.24863 9.13729 2.24863 7.74382C2.24863 6.34609 2.50431 5.14652 3.01567 4.1451C3.52704 3.13942 4.2259 2.36811 5.11226 1.83118C5.99863 1.28999 7.00644 1.01939 8.1357 1.01939C8.8303 1.01939 9.47803 1.11953 10.0789 1.31982C10.684 1.51584 11.2273 1.80561 11.7089 2.18913C12.1904 2.5684 12.5888 3.03289 12.9042 3.5826C13.2195 4.12806 13.4326 4.75235 13.5434 5.45547Z" fill="black"/>
  <path d="M27.2667 45.5624H1.03329V166.172H27.2667V45.5624Z" fill="url(#paint0_linear_0_1)"/>
  <path fill-rule="evenodd" clip-rule="evenodd" d="M0.873322 45.4025H27.4267V166.332H0.873322V45.4025ZM1.19324 45.7224V166.012H27.1067V45.7224H1.19324Z" fill="black"/>
  <path d="M60.1453 59.6449C59.6681 59.6373 59.191 59.5464 58.7138 59.3722C58.2367 59.198 57.8012 58.9045 57.4073 58.4917C57.0135 58.0752 56.6973 57.5128 56.4587 56.8047C56.2201 56.0927 56.1008 55.199 56.1008 54.1235C56.1008 53.0935 56.1974 52.1808 56.3905 51.3856C56.5837 50.5865 56.8639 49.9143 57.2312 49.369C57.5986 48.8199 58.0416 48.4034 58.5604 48.1193C59.083 47.8353 59.6719 47.6933 60.327 47.6933C60.9784 47.6933 61.5578 47.824 62.0652 48.0853C62.5765 48.3428 62.993 48.7025 63.3149 49.1645C63.6368 49.6265 63.8451 50.1586 63.9398 50.7607H62.5538C62.425 50.2381 62.1751 49.8045 61.8039 49.4599C61.4328 49.1153 60.9405 48.943 60.327 48.943C59.4258 48.943 58.7157 49.3349 58.1969 50.1188C57.6819 50.9027 57.4225 52.0028 57.4187 53.4191H57.5096C57.7216 53.0973 57.9735 52.8227 58.2651 52.5955C58.5604 52.3645 58.8861 52.1865 59.2421 52.0615C59.5981 51.9366 59.9749 51.8741 60.3725 51.8741C61.039 51.8741 61.6487 52.0407 62.2016 52.374C62.7545 52.7034 63.1975 53.1597 63.5308 53.7429C63.864 54.3223 64.0307 54.9869 64.0307 55.7367C64.0307 56.4563 63.8697 57.1152 63.5478 57.7135C63.2259 58.3081 62.7734 58.7814 62.1902 59.1336C61.6108 59.482 60.9292 59.6524 60.1453 59.6449ZM60.1453 58.3952C60.6224 58.3952 61.0503 58.2759 61.429 58.0373C61.8115 57.7987 62.1126 57.4787 62.3322 57.0773C62.5557 56.6759 62.6674 56.229 62.6674 55.7367C62.6674 55.2558 62.5594 54.8184 62.3436 54.4246C62.1315 54.0269 61.838 53.7107 61.4631 53.476C61.092 53.2412 60.6679 53.1238 60.1907 53.1238C59.831 53.1238 59.4958 53.1957 59.1853 53.3396C58.8748 53.4797 58.6021 53.6729 58.3673 53.919C58.1363 54.1652 57.9545 54.4473 57.822 54.7654C57.6894 55.0797 57.6232 55.4111 57.6232 55.7595C57.6232 56.2215 57.7311 56.6532 57.947 57.0546C58.1666 57.456 58.4658 57.7798 58.8445 58.0259C59.2269 58.2721 59.6605 58.3952 60.1453 58.3952Z" fill="black"/>
  <path d="M50.1634 59.6449C49.6862 59.6373 49.2091 59.5464 48.7319 59.3722C48.2548 59.198 47.8193 58.9045 47.4254 58.4917C47.0316 58.0752 46.7154 57.5128 46.4768 56.8047C46.2382 56.0927 46.119 55.199 46.119 54.1235C46.119 53.0935 46.2155 52.1808 46.4087 51.3856C46.6018 50.5865 46.882 49.9143 47.2494 49.369C47.6167 48.8199 48.0598 48.4034 48.5786 48.1193C49.1012 47.8353 49.69 47.6933 50.3452 47.6933C50.9965 47.6933 51.5759 47.824 52.0834 48.0853C52.5946 48.3428 53.0112 48.7025 53.3331 49.1645C53.6549 49.6265 53.8632 50.1586 53.9579 50.7607H52.5719C52.4431 50.2381 52.1932 49.8045 51.8221 49.4599C51.451 49.1153 50.9587 48.943 50.3452 48.943C49.4439 48.943 48.7338 49.3349 48.215 50.1188C47.7 50.9027 47.4406 52.0028 47.4368 53.4191H47.5277C47.7398 53.0973 47.9916 52.8227 48.2832 52.5955C48.5786 52.3645 48.9042 52.1865 49.2602 52.0615C49.6162 51.9366 49.993 51.8741 50.3906 51.8741C51.0571 51.8741 51.6668 52.0407 52.2197 52.374C52.7726 52.7034 53.2157 53.1597 53.5489 53.7429C53.8822 54.3223 54.0488 54.9869 54.0488 55.7367C54.0488 56.4563 53.8878 57.1152 53.566 57.7135C53.2441 58.3081 52.7915 58.7814 52.2083 59.1336C51.6289 59.482 50.9473 59.6524 50.1634 59.6449ZM50.1634 58.3952C50.6406 58.3952 51.0685 58.2759 51.4472 58.0373C51.8296 57.7987 52.1307 57.4787 52.3504 57.0773C52.5738 56.6759 52.6855 56.229 52.6855 55.7367C52.6855 55.2558 52.5776 54.8184 52.3617 54.4246C52.1496 54.0269 51.8562 53.7107 51.4812 53.476C51.1101 53.2412 50.686 53.1238 50.2088 53.1238C49.8491 53.1238 49.5139 53.1957 49.2034 53.3396C48.8929 53.4797 48.6202 53.6729 48.3854 53.919C48.1544 54.1652 47.9727 54.4473 47.8401 54.7654C47.7076 55.0797 47.6413 55.4111 47.6413 55.7595C47.6413 56.2215 47.7492 56.6532 47.9651 57.0546C48.1847 57.456 48.4839 57.7798 48.8626 58.0259C49.2451 58.2721 49.6787 58.3952 50.1634 58.3952Z" fill="black"/>
  <path d="M40.1702 59.6449C39.39 59.6449 38.7008 59.5066 38.1025 59.2302C37.5079 58.95 37.044 58.5656 36.7108 58.0771C36.3775 57.5848 36.2128 57.0243 36.2166 56.3957C36.2128 55.9034 36.3094 55.4489 36.5063 55.0324C36.7032 54.612 36.9721 54.2617 37.3129 53.9815C37.6575 53.6975 38.0419 53.5176 38.466 53.4419V53.3737C37.9094 53.2298 37.4663 52.9174 37.1368 52.4364C36.8074 51.9517 36.6445 51.4007 36.6483 50.7834C36.6445 50.1927 36.7941 49.6644 37.0971 49.1986C37.4 48.7328 37.8166 48.3655 38.3467 48.0966C38.8807 47.8277 39.4885 47.6933 40.1702 47.6933C40.8442 47.6933 41.4463 47.8277 41.9765 48.0966C42.5067 48.3655 42.9233 48.7328 43.2262 49.1986C43.5329 49.6644 43.6882 50.1927 43.692 50.7834C43.6882 51.4007 43.5197 51.9517 43.1864 52.4364C42.857 52.9174 42.4196 53.2298 41.8743 53.3737V53.4419C42.2946 53.5176 42.6733 53.6975 43.0104 53.9815C43.3474 54.2617 43.6163 54.612 43.817 55.0324C44.0177 55.4489 44.1199 55.9034 44.1237 56.3957C44.1199 57.0243 43.9495 57.5848 43.6125 58.0771C43.2792 58.5656 42.8153 58.95 42.2208 59.2302C41.63 59.5066 40.9465 59.6449 40.1702 59.6449ZM40.1702 58.3952C40.6965 58.3952 41.151 58.31 41.5334 58.1396C41.9159 57.9691 42.2113 57.7287 42.4196 57.4181C42.6279 57.1076 42.7339 56.7441 42.7377 56.3275C42.7339 55.8882 42.6203 55.5001 42.3969 55.163C42.1734 54.826 41.8686 54.5609 41.4823 54.3678C41.0998 54.1746 40.6625 54.0781 40.1702 54.0781C39.6741 54.0781 39.231 54.1746 38.8409 54.3678C38.4547 54.5609 38.1498 54.826 37.9264 55.163C37.7068 55.5001 37.5988 55.8882 37.6026 56.3275C37.5988 56.7441 37.6992 57.1076 37.9037 57.4181C38.112 57.7287 38.4092 57.9691 38.7955 58.1396C39.1818 58.31 39.64 58.3952 40.1702 58.3952ZM40.1702 52.8738C40.5867 52.8738 40.9559 52.7905 41.2778 52.6239C41.6035 52.4573 41.8591 52.2244 42.0447 51.9252C42.2302 51.626 42.3249 51.2757 42.3287 50.8743C42.3249 50.4805 42.2321 50.1378 42.0504 49.8462C41.8686 49.5508 41.6168 49.3236 41.2949 49.1645C40.973 49.0017 40.5981 48.9203 40.1702 48.9203C39.7347 48.9203 39.3541 49.0017 39.0284 49.1645C38.7027 49.3236 38.4509 49.5508 38.2729 49.8462C38.0949 50.1378 38.0078 50.4805 38.0116 50.8743C38.0078 51.2757 38.0968 51.626 38.2786 51.9252C38.4641 52.2244 38.7198 52.4573 39.0454 52.6239C39.3711 52.7905 39.746 52.8738 40.1702 52.8738Z" fill="black"/>
  <path d="M56.3493 161.204L61.5526 150.911V150.82H55.5541V149.571H63.0068V150.888L57.8262 161.204H56.3493Z" fill="black"/>
  <path d="M50.0952 161.363C49.2394 161.363 48.5104 161.13 47.9083 160.664C47.3061 160.195 46.846 159.515 46.5279 158.625C46.2098 157.731 46.0508 156.652 46.0508 155.387C46.0508 154.13 46.2098 153.056 46.5279 152.167C46.8498 151.273 47.3118 150.591 47.9139 150.122C48.5199 149.648 49.2469 149.412 50.0952 149.412C50.9435 149.412 51.6687 149.648 52.2708 150.122C52.8767 150.591 53.3387 151.273 53.6568 152.167C53.9787 153.056 54.1397 154.13 54.1397 155.387C54.1397 156.652 53.9806 157.731 53.6625 158.625C53.3444 159.515 52.8843 160.195 52.2822 160.664C51.6801 161.13 50.9511 161.363 50.0952 161.363ZM50.0952 160.113C50.9435 160.113 51.6024 159.704 52.072 158.886C52.5416 158.068 52.7764 156.902 52.7764 155.387C52.7764 154.38 52.6684 153.522 52.4526 152.814C52.2405 152.106 51.9338 151.566 51.5324 151.195C51.1347 150.824 50.6557 150.639 50.0952 150.639C49.2545 150.639 48.5975 151.053 48.1241 151.883C47.6508 152.708 47.4141 153.876 47.4141 155.387C47.4141 156.395 47.5201 157.25 47.7322 157.955C47.9442 158.659 48.2491 159.195 48.6467 159.562C49.0481 159.93 49.531 160.113 50.0952 160.113Z" fill="black"/>
  <path d="M40.1702 161.363C39.39 161.363 38.7008 161.225 38.1025 160.948C37.5079 160.668 37.044 160.284 36.7108 159.795C36.3775 159.303 36.2128 158.743 36.2166 158.114C36.2128 157.622 36.3094 157.167 36.5063 156.751C36.7032 156.33 36.9721 155.98 37.3129 155.7C37.6575 155.416 38.0419 155.236 38.466 155.16V155.092C37.9094 154.948 37.4663 154.636 37.1368 154.155C36.8074 153.67 36.6445 153.119 36.6483 152.502C36.6445 151.911 36.7941 151.383 37.0971 150.917C37.4 150.451 37.8166 150.084 38.3467 149.815C38.8807 149.546 39.4885 149.412 40.1702 149.412C40.8442 149.412 41.4463 149.546 41.9765 149.815C42.5067 150.084 42.9233 150.451 43.2262 150.917C43.5329 151.383 43.6882 151.911 43.692 152.502C43.6882 153.119 43.5197 153.67 43.1864 154.155C42.857 154.636 42.4196 154.948 41.8743 155.092V155.16C42.2946 155.236 42.6733 155.416 43.0104 155.7C43.3474 155.98 43.6163 156.33 43.817 156.751C44.0177 157.167 44.1199 157.622 44.1237 158.114C44.1199 158.743 43.9495 159.303 43.6125 159.795C43.2792 160.284 42.8153 160.668 42.2208 160.948C41.63 161.225 40.9465 161.363 40.1702 161.363ZM40.1702 160.113C40.6965 160.113 41.151 160.028 41.5334 159.858C41.9159 159.687 42.2113 159.447 42.4196 159.136C42.6279 158.826 42.7339 158.462 42.7377 158.046C42.7339 157.606 42.6203 157.218 42.3969 156.881C42.1734 156.544 41.8686 156.279 41.4823 156.086C41.0998 155.893 40.6625 155.796 40.1702 155.796C39.6741 155.796 39.231 155.893 38.8409 156.086C38.4547 156.279 38.1498 156.544 37.9264 156.881C37.7068 157.218 37.5988 157.606 37.6026 158.046C37.5988 158.462 37.6992 158.826 37.9037 159.136C38.112 159.447 38.4092 159.687 38.7955 159.858C39.1818 160.028 39.64 160.113 40.1702 160.113ZM40.1702 154.592C40.5867 154.592 40.9559 154.509 41.2778 154.342C41.6035 154.176 41.8591 153.943 42.0447 153.643C42.2302 153.344 42.3249 152.994 42.3287 152.593C42.3249 152.199 42.2321 151.856 42.0504 151.564C41.8686 151.269 41.6168 151.042 41.2949 150.883C40.973 150.72 40.5981 150.639 40.1702 150.639C39.7347 150.639 39.3541 150.72 39.0284 150.883C38.7027 151.042 38.4509 151.269 38.2729 151.564C38.0949 151.856 38.0078 152.199 38.0116 152.593C38.0078 152.994 38.0968 153.344 38.2786 153.643C38.4641 153.943 38.7198 154.176 39.0454 154.342C39.3711 154.509 39.746 154.592 40.1702 154.592Z" fill="black"/>
  <defs>
    <linearGradient id="paint0_linear_0_1" x1="-6.32486" y1="166.521" x2="-6.32486" y2="45.604" gradientUnits="userSpaceOnUse">
      <stop stop-color="#F6EFF7"/>
      <stop offset="4.05525e-10" stop-color="#F6EFF7"/>
      <stop offset="0.25" stop-color="#BDC9E1"/>
      <stop offset="0.5" stop-color="#67A9CF"/>
      <stop offset="0.75" stop-color="#1C9099"/>
      <stop offset="1" stop-color="#016C59"/>
    </linearGradient>
  </defs>
</svg>