<svg width="156" height="181" viewBox="0 0 156 181" fill="none" xmlns="http://www.w3.org/2000/svg">
  <path d="M45.2758 33.1552V32.1408L49.0855 27.9704C49.5326 27.482 49.9008 27.0574 50.1901 26.6967C50.4794 26.3323 50.6936 25.9904 50.8326 25.6711C50.9753 25.3479 51.0467 25.0098 51.0467 24.6566C51.0467 24.2509 50.949 23.8996 50.7537 23.6028C50.5621 23.3059 50.2991 23.0768 49.9647 22.9152C49.6303 22.7537 49.2546 22.6729 48.8375 22.6729C48.3942 22.6729 48.0072 22.7649 47.6766 22.949C47.3497 23.1294 47.0961 23.383 46.9158 23.7098C46.7392 24.0367 46.6509 24.4199 46.6509 24.8595H45.3209C45.3209 24.1832 45.4768 23.5896 45.7887 23.0786C46.1005 22.5677 46.525 22.1694 47.0623 21.8839C47.6033 21.5983 48.2101 21.4556 48.8826 21.4556C49.5589 21.4556 50.1582 21.5983 50.6804 21.8839C51.2027 22.1694 51.6122 22.5545 51.909 23.0392C52.2058 23.5239 52.3542 24.063 52.3542 24.6566C52.3542 25.0812 52.2772 25.4963 52.1231 25.9021C51.9729 26.3041 51.7099 26.7531 51.3342 27.249C50.9622 27.7412 50.4456 28.3424 49.7843 29.0525L47.1919 31.8252V31.9154H52.5571V33.1552H45.2758Z" fill="black"/>
  <path d="M31.505 33.1552V24.4988H32.79V25.8514H32.9027C33.083 25.3893 33.3742 25.0305 33.7762 24.775C34.1782 24.5157 34.661 24.3861 35.2246 24.3861C35.7957 24.3861 36.2709 24.5157 36.6504 24.775C37.0336 25.0305 37.3323 25.3893 37.5465 25.8514H37.6366C37.8583 25.4043 38.1908 25.0492 38.6342 24.7862C39.0775 24.5195 39.6091 24.3861 40.2291 24.3861C41.003 24.3861 41.6361 24.6284 42.1283 25.1131C42.6205 25.594 42.8665 26.3436 42.8665 27.3617V33.1552H41.5365V27.3617C41.5365 26.723 41.3618 26.2665 41.0124 25.9923C40.663 25.718 40.2516 25.5809 39.7782 25.5809C39.1695 25.5809 38.698 25.765 38.3636 26.1332C38.0293 26.4976 37.8621 26.9597 37.8621 27.5195V33.1552H36.5095V27.2265C36.5095 26.7343 36.3498 26.3379 36.0305 26.0374C35.7111 25.733 35.2997 25.5809 34.7963 25.5809C34.4506 25.5809 34.1275 25.6729 33.8269 25.857C33.5301 26.0411 33.2897 26.2966 33.1056 26.6235C32.9252 26.9466 32.835 27.3204 32.835 27.745V33.1552H31.505Z" fill="black"/>
  <path d="M29.9284 21.0723L26.2089 34.891H24.9916L28.7111 21.0723H29.9284Z" fill="black"/>
  <path d="M19.6715 36.5817C19.029 36.5817 18.4768 36.4991 18.0146 36.3337C17.5525 36.1722 17.1674 35.958 16.8593 35.6913C16.555 35.4283 16.3127 35.1465 16.1323 34.8459L17.1918 34.102C17.312 34.2598 17.4642 34.4402 17.6483 34.643C17.8324 34.8497 18.0841 35.0281 18.4035 35.1784C18.7266 35.3325 19.1493 35.4095 19.6715 35.4095C20.3703 35.4095 20.9471 35.2404 21.4017 34.9023C21.8563 34.5641 22.0836 34.0344 22.0836 33.313V31.5547H21.9709C21.8732 31.7125 21.7342 31.9079 21.5538 32.1408C21.3772 32.37 21.1218 32.5747 20.7874 32.7551C20.4568 32.9317 20.0097 33.02 19.4461 33.02C18.7473 33.02 18.1198 32.8546 17.5638 32.524C17.0115 32.1934 16.5738 31.7125 16.2507 31.0813C15.9313 30.4501 15.7716 29.6836 15.7716 28.7819C15.7716 27.8953 15.9275 27.1232 16.2394 26.4657C16.5512 25.8044 16.9852 25.2935 17.5412 24.9328C18.0973 24.5683 18.7398 24.3861 19.4686 24.3861C20.0322 24.3861 20.4793 24.48 20.8099 24.6679C21.1443 24.852 21.3998 25.0624 21.5764 25.2991C21.7567 25.532 21.8957 25.7236 21.9934 25.8739H22.1287V24.4988H23.4136V33.4032C23.4136 34.1471 23.2445 34.752 22.9064 35.2179C22.572 35.6875 22.1212 36.0313 21.5538 36.2492C20.9903 36.4709 20.3628 36.5817 19.6715 36.5817ZM19.6264 31.8252C20.1599 31.8252 20.6108 31.7031 20.979 31.4589C21.3472 31.2147 21.6271 30.8634 21.8187 30.405C22.0103 29.9466 22.1061 29.3981 22.1061 28.7594C22.1061 28.1357 22.0122 27.5853 21.8243 27.1081C21.6365 26.631 21.3585 26.2572 20.9903 25.9866C20.6221 25.7161 20.1675 25.5809 19.6264 25.5809C19.0629 25.5809 18.5932 25.7236 18.2175 26.0092C17.8456 26.2947 17.5657 26.678 17.3778 27.1589C17.1937 27.6398 17.1016 28.1733 17.1016 28.7594C17.1016 29.3605 17.1956 29.8922 17.3834 30.3543C17.575 30.8127 17.8568 31.1733 18.2288 31.4363C18.6045 31.6956 19.0704 31.8252 19.6264 31.8252Z" fill="black"/>
  <path d="M2.38409 33.1552V24.4988H3.66902V25.8514H3.78173C3.96208 25.3893 4.25325 25.0305 4.65526 24.775C5.05727 24.5157 5.54006 24.3861 6.10363 24.3861C6.67471 24.3861 7.14999 24.5157 7.52946 24.775C7.91268 25.0305 8.21137 25.3893 8.42553 25.8514H8.5157C8.73737 25.4043 9.06988 25.0492 9.51322 24.7862C9.95656 24.5195 10.4882 24.3861 11.1081 24.3861C11.8821 24.3861 12.5152 24.6284 13.0073 25.1131C13.4995 25.594 13.7456 26.3436 13.7456 27.3617V33.1552H12.4156V27.3617C12.4156 26.723 12.2409 26.2665 11.8915 25.9923C11.5421 25.718 11.1307 25.5809 10.6573 25.5809C10.0486 25.5809 9.57709 25.765 9.2427 26.1332C8.90832 26.4976 8.74113 26.9597 8.74113 27.5195V33.1552H7.38857V27.2265C7.38857 26.7343 7.22889 26.3379 6.90953 26.0374C6.59018 25.733 6.17877 25.5809 5.67532 25.5809C5.32967 25.5809 5.00655 25.6729 4.70598 25.857C4.40917 26.0411 4.16872 26.2966 3.98462 26.6235C3.80428 26.9466 3.71411 27.3204 3.71411 27.745V33.1552H2.38409Z" fill="black"/>
  <path d="M146.6 12.3654L146.504 13.0622C146.44 13.5735 146.332 14.1062 146.178 14.6602C146.029 15.2184 145.874 15.7362 145.712 16.2135C145.554 16.6907 145.424 17.07 145.322 17.3512H143.967C144.022 17.087 144.099 16.7291 144.197 16.2774C144.295 15.8299 144.391 15.3292 144.484 14.7752C144.578 14.2213 144.648 13.6566 144.695 13.0814L144.759 12.3654H146.6Z" fill="black"/>
  <path d="M137.781 14.3534C136.813 14.3534 135.98 14.1467 135.281 13.7333C134.587 13.3157 134.05 12.7298 133.671 11.9755C133.296 11.217 133.108 10.3285 133.108 9.31005C133.108 8.30437 133.296 7.418 133.671 6.65096C134.05 5.88391 134.578 5.28519 135.256 4.85479C135.938 4.4244 136.735 4.2092 137.647 4.2092C138.201 4.2092 138.737 4.30082 139.257 4.48406C139.777 4.66729 140.244 4.95494 140.657 5.34698C141.071 5.73903 141.397 6.24826 141.635 6.87468C141.874 7.49684 141.993 8.25323 141.993 9.14386V9.82141H134.188V8.3896H140.12C140.12 7.88676 140.018 7.44144 139.813 7.05366C139.609 6.66161 139.321 6.35266 138.951 6.12681C138.584 5.90096 138.154 5.78803 137.659 5.78803C137.122 5.78803 136.654 5.92014 136.253 6.18434C135.857 6.44428 135.55 6.78519 135.333 7.20707C135.12 7.62468 135.013 8.07852 135.013 8.56857V9.68718C135.013 10.3434 135.128 10.9017 135.358 11.3619C135.593 11.8221 135.919 12.1737 136.336 12.4166C136.754 12.6552 137.242 12.7745 137.8 12.7745C138.162 12.7745 138.492 12.7234 138.791 12.6211C139.089 12.5146 139.347 12.3569 139.564 12.1481C139.781 11.9393 139.948 11.6815 140.063 11.3747L141.872 11.7007C141.727 12.2333 141.467 12.7 141.092 13.1005C140.721 13.4968 140.254 13.8058 139.692 14.0274C139.134 14.2447 138.497 14.3534 137.781 14.3534Z" fill="black"/>
  <path d="M125.957 14.347C125.164 14.347 124.457 14.1446 123.835 13.7397C123.217 13.3306 122.731 12.749 122.378 11.9947C122.028 11.2362 121.853 10.3264 121.853 9.2653C121.853 8.20422 122.03 7.29654 122.384 6.54228C122.742 5.78802 123.232 5.21061 123.854 4.81004C124.476 4.40947 125.182 4.20919 125.97 4.20919C126.579 4.20919 127.069 4.31146 127.44 4.51601C127.815 4.71629 128.105 4.95066 128.309 5.21913C128.518 5.4876 128.68 5.7241 128.795 5.92865H128.91V1.0643H130.821V14.1552H128.955V12.6275H128.795C128.68 12.8363 128.514 13.075 128.297 13.3434C128.084 13.6119 127.789 13.8463 127.414 14.0465C127.039 14.2468 126.554 14.347 125.957 14.347ZM126.379 12.717C126.929 12.717 127.393 12.5721 127.772 12.2823C128.156 11.9883 128.446 11.5813 128.642 11.0615C128.842 10.5416 128.942 9.93646 128.942 9.24612C128.942 8.5643 128.844 7.96771 128.648 7.45635C128.452 6.94498 128.164 6.54654 127.785 6.26103C127.406 5.97552 126.937 5.83277 126.379 5.83277C125.804 5.83277 125.324 5.98191 124.941 6.28021C124.557 6.57851 124.267 6.98547 124.071 7.50109C123.88 8.01672 123.784 8.59839 123.784 9.24612C123.784 9.90237 123.882 10.4926 124.078 11.0167C124.274 11.5409 124.564 11.9563 124.947 12.2632C125.335 12.5657 125.812 12.717 126.379 12.717Z" fill="black"/>
  <path d="M117.799 14.1552V4.33704H119.71V14.1552H117.799ZM118.764 2.82212C118.432 2.82212 118.147 2.71133 117.908 2.48973C117.674 2.26388 117.556 1.99542 117.556 1.68434C117.556 1.369 117.674 1.10053 117.908 0.878939C118.147 0.653087 118.432 0.540161 118.764 0.540161C119.097 0.540161 119.38 0.653087 119.615 0.878939C119.853 1.10053 119.973 1.369 119.973 1.68434C119.973 1.99542 119.853 2.26388 119.615 2.48973C119.38 2.71133 119.097 2.82212 118.764 2.82212Z" fill="black"/>
  <path d="M109.394 4.33704L111.561 8.15948L113.747 4.33704H115.837L112.775 9.24613L115.862 14.1552H113.772L111.561 10.4862L109.355 14.1552H107.259L110.314 9.24613L107.297 4.33704H109.394Z" fill="black"/>
  <path d="M101.562 14.3534C100.641 14.3534 99.8381 14.1424 99.152 13.7206C98.466 13.2987 97.9333 12.7085 97.554 11.95C97.1748 11.1914 96.9851 10.3051 96.9851 9.29087C96.9851 8.27241 97.1748 7.38178 97.554 6.619C97.9333 5.85621 98.466 5.26389 99.152 4.84201C99.8381 4.42014 100.641 4.2092 101.562 4.2092C102.482 4.2092 103.286 4.42014 103.972 4.84201C104.658 5.26389 105.19 5.85621 105.57 6.619C105.949 7.38178 106.139 8.27241 106.139 9.29087C106.139 10.3051 105.949 11.1914 105.57 11.95C105.19 12.7085 104.658 13.2987 103.972 13.7206C103.286 14.1424 102.482 14.3534 101.562 14.3534ZM101.568 12.749C102.165 12.749 102.659 12.5913 103.051 12.276C103.443 11.9606 103.733 11.5409 103.921 11.0167C104.112 10.4926 104.208 9.91516 104.208 9.28448C104.208 8.65806 104.112 8.08278 103.921 7.55863C103.733 7.03022 103.443 6.60621 103.051 6.28661C102.659 5.96701 102.165 5.80721 101.568 5.80721C100.967 5.80721 100.469 5.96701 100.072 6.28661C99.6804 6.60621 99.3885 7.03022 99.1968 7.55863C99.0093 8.08278 98.9155 8.65806 98.9155 9.28448C98.9155 9.91516 99.0093 10.4926 99.1968 11.0167C99.3885 11.5409 99.6804 11.9606 100.072 12.276C100.469 12.5913 100.967 12.749 101.568 12.749Z" fill="black"/>
  <path d="M92.9438 14.1552V4.33704H94.855V14.1552H92.9438ZM93.909 2.82212C93.5766 2.82212 93.2911 2.71133 93.0524 2.48973C92.8181 2.26388 92.7009 1.99542 92.7009 1.68434C92.7009 1.369 92.8181 1.10053 93.0524 0.878939C93.2911 0.653087 93.5766 0.540161 93.909 0.540161C94.2414 0.540161 94.5247 0.653087 94.7591 0.878939C94.9977 1.10053 95.1171 1.369 95.1171 1.68434C95.1171 1.99542 94.9977 2.26388 94.7591 2.48973C94.5247 2.71133 94.2414 2.82212 93.909 2.82212Z" fill="black"/>
  <path d="M85.3516 14.347C84.559 14.347 83.8516 14.1446 83.2295 13.7397C82.6116 13.3306 82.1258 12.749 81.7721 11.9947C81.4226 11.2362 81.2479 10.3264 81.2479 9.2653C81.2479 8.20422 81.4248 7.29654 81.7785 6.54228C82.1364 5.78802 82.6265 5.21061 83.2486 4.81004C83.8708 4.40947 84.5761 4.20919 85.3644 4.20919C85.9738 4.20919 86.4638 4.31146 86.8346 4.51601C87.2096 4.71629 87.4993 4.95066 87.7039 5.21913C87.9127 5.4876 88.0746 5.7241 88.1897 5.92865H88.3047V1.0643H90.216V14.1552H88.3495V12.6275H88.1897C88.0746 12.8363 87.9084 13.075 87.6911 13.3434C87.478 13.6119 87.184 13.8463 86.809 14.0465C86.434 14.2468 85.9482 14.347 85.3516 14.347ZM85.7735 12.717C86.3232 12.717 86.7877 12.5721 87.167 12.2823C87.5505 11.9883 87.8403 11.5813 88.0363 11.0615C88.2366 10.5416 88.3367 9.93646 88.3367 9.24612C88.3367 8.5643 88.2387 7.96771 88.0427 7.45635C87.8466 6.94498 87.559 6.54654 87.1797 6.26103C86.8005 5.97552 86.3317 5.83277 85.7735 5.83277C85.1982 5.83277 84.7188 5.98191 84.3353 6.28021C83.9518 6.57851 83.662 6.98547 83.466 7.50109C83.2742 8.01672 83.1783 8.59839 83.1783 9.24612C83.1783 9.90237 83.2763 10.4926 83.4724 11.0167C83.6684 11.5409 83.9582 11.9563 84.3417 12.2632C84.7295 12.5657 85.2067 12.717 85.7735 12.717Z" fill="black"/>
  <path d="M68.0659 8.32568V14.1552H66.1547V4.33704H67.9892V5.93505H68.1107C68.3365 5.41516 68.6902 4.99755 69.1718 4.68221C69.6576 4.36687 70.2691 4.2092 71.0063 4.2092C71.6753 4.2092 72.2612 4.34982 72.7641 4.63107C73.2669 4.90806 73.6568 5.32141 73.9338 5.87113C74.2108 6.42085 74.3493 7.10053 74.3493 7.91019V14.1552H72.4381V8.14031C72.4381 7.42866 72.2527 6.87255 71.882 6.47198C71.5113 6.06715 71.002 5.86474 70.3543 5.86474C69.9111 5.86474 69.5169 5.96062 69.1718 6.15238C68.8309 6.34414 68.5603 6.62539 68.36 6.99613C68.1639 7.36261 68.0659 7.80579 68.0659 8.32568Z" fill="black"/>
  <path d="M59.8218 14.3534C58.8545 14.3534 58.0214 14.1467 57.3225 13.7333C56.6279 13.3157 56.091 12.7298 55.7117 11.9755C55.3367 11.217 55.1492 10.3285 55.1492 9.31005C55.1492 8.30437 55.3367 7.418 55.7117 6.65096C56.091 5.88391 56.6194 5.28519 57.2969 4.85479C57.9787 4.4244 58.7756 4.2092 59.6876 4.2092C60.2415 4.2092 60.7785 4.30082 61.2983 4.48406C61.8182 4.66729 62.2849 4.95494 62.6982 5.34698C63.1116 5.73903 63.4376 6.24826 63.6762 6.87468C63.9148 7.49684 64.0341 8.25323 64.0341 9.14386V9.82141H56.2295V8.3896H62.1613C62.1613 7.88676 62.059 7.44144 61.8545 7.05366C61.6499 6.66161 61.3623 6.35266 60.9915 6.12681C60.6251 5.90096 60.1947 5.78803 59.7003 5.78803C59.1634 5.78803 58.6947 5.92014 58.2941 6.18434C57.8978 6.44428 57.591 6.78519 57.3736 7.20707C57.1606 7.62468 57.054 8.07852 57.054 8.56857V9.68718C57.054 10.3434 57.1691 10.9017 57.3992 11.3619C57.6336 11.8221 57.9596 12.1737 58.3772 12.4166C58.7948 12.6552 59.2827 12.7745 59.841 12.7745C60.2032 12.7745 60.5334 12.7234 60.8317 12.6211C61.13 12.5146 61.3878 12.3569 61.6052 12.1481C61.8225 11.9393 61.9887 11.6815 62.1037 11.3747L63.9127 11.7007C63.7678 12.2333 63.5079 12.7 63.1329 13.1005C62.7621 13.4968 62.2955 13.8058 61.733 14.0274C61.1748 14.2447 60.5377 14.3534 59.8218 14.3534Z" fill="black"/>
  <path d="M48.5974 18.0416C47.8175 18.0416 47.1464 17.9393 46.5839 17.7348C46.0256 17.5302 45.5697 17.2596 45.216 16.923C44.8623 16.5863 44.5981 16.2177 44.4234 15.8172L46.0661 15.1396C46.1812 15.3271 46.3346 15.5252 46.5263 15.7341C46.7224 15.9471 46.9866 16.1282 47.3189 16.2774C47.6556 16.4265 48.0881 16.5011 48.6165 16.5011C49.341 16.5011 49.9397 16.3243 50.4127 15.9706C50.8857 15.6211 51.1222 15.0629 51.1222 14.2958V12.3654H51.0008C50.8857 12.5743 50.7195 12.8065 50.5022 13.0622C50.2891 13.3179 49.9951 13.5395 49.6201 13.727C49.2451 13.9145 48.7572 14.0082 48.1563 14.0082C47.3807 14.0082 46.6819 13.8271 46.0597 13.4649C45.4418 13.0984 44.9518 12.5593 44.5895 11.8477C44.2316 11.1318 44.0526 10.2518 44.0526 9.20778C44.0526 8.16374 44.2295 7.26886 44.5832 6.52312C44.9411 5.77738 45.4312 5.20636 46.0533 4.81005C46.6755 4.40948 47.3807 4.2092 48.1691 4.2092C48.7785 4.2092 49.2707 4.31147 49.6457 4.51602C50.0207 4.7163 50.3126 4.95067 50.5214 5.21914C50.7344 5.48761 50.8985 5.72411 51.0135 5.92866H51.1542V4.33704H53.027V14.3726C53.027 15.2163 52.831 15.9088 52.439 16.45C52.0469 16.9912 51.5164 17.3917 50.8474 17.6517C50.1826 17.9116 49.4326 18.0416 48.5974 18.0416ZM48.5782 12.423C49.1279 12.423 49.5924 12.2951 49.9716 12.0395C50.3552 11.7795 50.6449 11.4088 50.841 10.9272C51.0412 10.4414 51.1414 9.85977 51.1414 9.18221C51.1414 8.5217 51.0434 7.94002 50.8474 7.43718C50.6513 6.93434 50.3637 6.54229 49.9844 6.26104C49.6052 5.97553 49.1364 5.83278 48.5782 5.83278C48.0029 5.83278 47.5235 5.98193 47.14 6.28022C46.7564 6.57425 46.4667 6.97482 46.2707 7.48193C46.0789 7.98903 45.983 8.55579 45.983 9.18221C45.983 9.82568 46.081 10.3903 46.277 10.8761C46.4731 11.3619 46.7628 11.7412 47.1464 12.0139C47.5341 12.2866 48.0114 12.423 48.5782 12.423Z" fill="black"/>
  <path d="M37.7708 14.3534C36.8504 14.3534 36.0471 14.1424 35.361 13.7206C34.6749 13.2987 34.1423 12.7085 33.763 11.95C33.3838 11.1914 33.1941 10.3051 33.1941 9.29087C33.1941 8.27241 33.3838 7.38178 33.763 6.619C34.1423 5.85621 34.6749 5.26389 35.361 4.84201C36.0471 4.42014 36.8504 4.2092 37.7708 4.2092C38.6913 4.2092 39.4945 4.42014 40.1806 4.84201C40.8667 5.26389 41.3994 5.85621 41.7786 6.619C42.1579 7.38178 42.3475 8.27241 42.3475 9.29087C42.3475 10.3051 42.1579 11.1914 41.7786 11.95C41.3994 12.7085 40.8667 13.2987 40.1806 13.7206C39.4945 14.1424 38.6913 14.3534 37.7708 14.3534ZM37.7772 12.749C38.3738 12.749 38.8681 12.5913 39.2602 12.276C39.6522 11.9606 39.942 11.5409 40.1295 11.0167C40.3213 10.4926 40.4171 9.91516 40.4171 9.28448C40.4171 8.65806 40.3213 8.08278 40.1295 7.55863C39.942 7.03022 39.6522 6.60621 39.2602 6.28661C38.8681 5.96701 38.3738 5.80721 37.7772 5.80721C37.1764 5.80721 36.6778 5.96701 36.2815 6.28661C35.8894 6.60621 35.5975 7.03022 35.4058 7.55863C35.2183 8.08278 35.1245 8.65806 35.1245 9.28448C35.1245 9.91516 35.2183 10.4926 35.4058 11.0167C35.5975 11.5409 35.8894 11.9606 36.2815 12.276C36.6778 12.5913 37.1764 12.749 37.7772 12.749Z" fill="black"/>
  <path d="M27.0785 14.1552V4.33705H28.9258V5.89671H29.0281C29.2071 5.3683 29.5224 4.95282 29.9741 4.65026C30.4301 4.34344 30.9457 4.19003 31.521 4.19003C31.6403 4.19003 31.781 4.19429 31.9429 4.20282C32.1091 4.21134 32.239 4.22199 32.3328 4.23478V6.0629C32.2561 6.0416 32.1197 6.01816 31.9237 5.99259C31.7277 5.96276 31.5317 5.94785 31.3356 5.94785C30.8839 5.94785 30.4812 6.04373 30.1275 6.23549C29.7781 6.42299 29.5011 6.68506 29.2966 7.02171C29.092 7.3541 28.9898 7.73336 28.9898 8.15949V14.1552H27.0785Z" fill="black"/>
  <path d="M24.9644 4.33704V5.87114H19.6014V4.33704H24.9644ZM21.0396 1.98477H22.9509V11.2724C22.9509 11.6432 23.0063 11.9223 23.1171 12.1098C23.2279 12.293 23.3706 12.4187 23.5453 12.4869C23.7243 12.5508 23.9182 12.5828 24.127 12.5828C24.2804 12.5828 24.4147 12.5721 24.5297 12.5508C24.6448 12.5295 24.7343 12.5125 24.7982 12.4997L25.1433 14.0785C25.0325 14.1211 24.8749 14.1637 24.6703 14.2064C24.4658 14.2532 24.2101 14.2788 23.9033 14.2831C23.4004 14.2916 22.9317 14.2021 22.497 14.0146C22.0624 13.8271 21.7108 13.5373 21.4423 13.1453C21.1739 12.7532 21.0396 12.2611 21.0396 11.6687V1.98477Z" fill="black"/>
  <path d="M15.8989 14.1552V4.33704H17.8101V14.1552H15.8989ZM16.864 2.82212C16.5317 2.82212 16.2462 2.71133 16.0075 2.48973C15.7731 2.26388 15.656 1.99542 15.656 1.68434C15.656 1.369 15.7731 1.10053 16.0075 0.878939C16.2462 0.653087 16.5317 0.540161 16.864 0.540161C17.1964 0.540161 17.4798 0.653087 17.7142 0.878939C17.9528 1.10053 18.0721 1.369 18.0721 1.68434C18.0721 1.99542 17.9528 2.26388 17.7142 2.48973C17.4798 2.71133 17.1964 2.82212 16.864 2.82212Z" fill="black"/>
  <path d="M13.171 1.0643V14.1552H11.3557L4.70158 4.55436H4.58013V14.1552H2.60499V1.0643H4.43311L11.0936 10.6779H11.2151V1.0643H13.171Z" fill="black"/>
  <path d="M27.2812 46.4414H1.04776V167.051H27.2812V46.4414Z" fill="url(#paint0_linear_0_1)"/>
  <path fill-rule="evenodd" clip-rule="evenodd" d="M0.887802 46.2815H27.4411V167.211H0.887802V46.2815ZM1.20772 46.6014V166.891H27.1212V46.6014H1.20772Z" fill="black"/>
  <path d="M53.9117 60.511C53.1315 60.511 52.4423 60.3727 51.844 60.0963C51.2494 59.8161 50.7855 59.4317 50.4523 58.9432C50.119 58.4509 49.9543 57.8904 49.9581 57.2618C49.9543 56.7695 50.0509 56.315 50.2478 55.8985C50.4447 55.4781 50.7136 55.1278 51.0544 54.8476C51.399 54.5636 51.7834 54.3837 52.2075 54.308V54.2398C51.6509 54.0959 51.2078 53.7835 50.8783 53.3025C50.5489 52.8178 50.386 52.2668 50.3898 51.6496C50.386 51.0588 50.5356 50.5305 50.8386 50.0647C51.1415 49.5989 51.5581 49.2316 52.0882 48.9627C52.6222 48.6939 53.23 48.5594 53.9117 48.5594C54.5857 48.5594 55.1878 48.6939 55.718 48.9627C56.2482 49.2316 56.6648 49.5989 56.9677 50.0647C57.2744 50.5305 57.4297 51.0588 57.4335 51.6496C57.4297 52.2668 57.2612 52.8178 56.9279 53.3025C56.5985 53.7835 56.1611 54.0959 55.6158 54.2398V54.308C56.0361 54.3837 56.4148 54.5636 56.7519 54.8476C57.0889 55.1278 57.3578 55.4781 57.5585 55.8985C57.7592 56.315 57.8614 56.7695 57.8652 57.2618C57.8614 57.8904 57.691 58.4509 57.354 58.9432C57.0207 59.4317 56.5568 59.8161 55.9623 60.0963C55.3715 60.3727 54.688 60.511 53.9117 60.511ZM53.9117 59.2613C54.438 59.2613 54.8925 59.1761 55.2749 59.0057C55.6574 58.8353 55.9528 58.5948 56.1611 58.2843C56.3694 57.9737 56.4754 57.6102 56.4792 57.1936C56.4754 56.7543 56.3618 56.3662 56.1384 56.0291C55.9149 55.6921 55.6101 55.427 55.2238 55.2339C54.8413 55.0407 54.404 54.9442 53.9117 54.9442C53.4156 54.9442 52.9725 55.0407 52.5824 55.2339C52.1962 55.427 51.8913 55.6921 51.6679 56.0291C51.4483 56.3662 51.3403 56.7543 51.3441 57.1936C51.3403 57.6102 51.4407 57.9737 51.6452 58.2843C51.8535 58.5948 52.1507 58.8353 52.537 59.0057C52.9233 59.1761 53.3815 59.2613 53.9117 59.2613ZM53.9117 53.7399C54.3282 53.7399 54.6974 53.6566 55.0193 53.49C55.345 53.3234 55.6006 53.0905 55.7862 52.7913C55.9717 52.4921 56.0664 52.1419 56.0702 51.7404C56.0664 51.3466 55.9736 51.0039 55.7919 50.7123C55.6101 50.4169 55.3583 50.1897 55.0364 50.0306C54.7145 49.8678 54.3396 49.7864 53.9117 49.7864C53.4762 49.7864 53.0956 49.8678 52.7699 50.0306C52.4442 50.1897 52.1924 50.4169 52.0144 50.7123C51.8364 51.0039 51.7493 51.3466 51.7531 51.7404C51.7493 52.1419 51.8383 52.4921 52.0201 52.7913C52.2056 53.0905 52.4613 53.3234 52.7869 53.49C53.1126 53.6566 53.4875 53.7399 53.9117 53.7399Z" fill="black"/>
  <path d="M48.0836 58.7614L47.9927 59.3749C47.9283 59.8066 47.8298 60.2686 47.6973 60.7609C47.5685 61.2532 47.4341 61.7171 47.294 62.1526C47.1539 62.5881 47.0384 62.9346 46.9475 63.1921H45.925C45.9742 62.9498 46.0386 62.6298 46.1182 62.2321C46.1977 61.8345 46.2772 61.3895 46.3567 60.8972C46.44 60.4087 46.5082 59.9089 46.5612 59.3976L46.6294 58.7614H48.0836Z" fill="black"/>
  <path d="M36.3763 60.3519V59.3294L40.2162 55.126C40.6669 54.6337 41.038 54.2057 41.3296 53.8422C41.6212 53.4749 41.837 53.1302 41.9771 52.8084C42.121 52.4827 42.193 52.1419 42.193 51.7859C42.193 51.3769 42.0945 51.0228 41.8976 50.7236C41.7045 50.4245 41.4394 50.1935 41.1024 50.0306C40.7653 49.8678 40.3866 49.7864 39.9663 49.7864C39.5194 49.7864 39.1294 49.8792 38.7961 50.0647C38.4667 50.2465 38.211 50.5021 38.0293 50.8316C37.8513 51.161 37.7623 51.5473 37.7623 51.9904H36.4217C36.4217 51.3087 36.5789 50.7104 36.8932 50.1954C37.2075 49.6803 37.6354 49.2789 38.177 48.9911C38.7223 48.7033 39.3339 48.5594 40.0117 48.5594C40.6934 48.5594 41.2974 48.7033 41.8238 48.9911C42.3502 49.2789 42.7629 49.6671 43.0621 50.1556C43.3613 50.6441 43.5108 51.1875 43.5108 51.7859C43.5108 52.2138 43.4332 52.6323 43.278 53.0412C43.1265 53.4465 42.8614 53.899 42.4827 54.3989C42.1078 54.895 41.5871 55.5009 40.9206 56.2166L38.3076 59.0113V59.1022H43.7153V60.3519H36.3763Z" fill="black"/>
  <path d="M36.3763 162.071V161.049L40.2162 156.845C40.6669 156.353 41.038 155.925 41.3296 155.562C41.6212 155.194 41.837 154.85 41.9771 154.528C42.121 154.202 42.193 153.861 42.193 153.505C42.193 153.096 42.0945 152.742 41.8976 152.443C41.7045 152.144 41.4394 151.913 41.1024 151.75C40.7653 151.587 40.3866 151.506 39.9663 151.506C39.5194 151.506 39.1294 151.599 38.7961 151.784C38.4667 151.966 38.211 152.222 38.0293 152.551C37.8513 152.881 37.7623 153.267 37.7623 153.71H36.4217C36.4217 153.028 36.5789 152.43 36.8932 151.915C37.2075 151.4 37.6354 150.998 38.177 150.711C38.7223 150.423 39.3339 150.279 40.0117 150.279C40.6934 150.279 41.2974 150.423 41.8238 150.711C42.3502 150.998 42.7629 151.387 43.0621 151.875C43.3613 152.364 43.5108 152.907 43.5108 153.505C43.5108 153.933 43.4332 154.352 43.278 154.761C43.1265 155.166 42.8614 155.619 42.4827 156.118C42.1078 156.614 41.5871 157.22 40.9206 157.936L38.3076 160.731V160.822H43.7153V162.071H36.3763Z" fill="black"/>
  <defs>
    <linearGradient id="paint0_linear_0_1" x1="-427.325" y1="167.386" x2="-427.325" y2="46.4715" gradientUnits="userSpaceOnUse">
      <stop stop-color="#440154"/>
      <stop offset="0.25" stop-color="#3B528B"/>
      <stop offset="0.5" stop-color="#21908D"/>
      <stop offset="0.75" stop-color="#5DC962"/>
      <stop offset="1" stop-color="#FDE725"/>
    </linearGradient>
  </defs>
</svg>