<svg width="156" height="181" viewBox="0 0 156 181" fill="none" xmlns="http://www.w3.org/2000/svg">
  <path d="M44.4115 32.8563V31.8419L48.2212 27.6715C48.6683 27.183 49.0365 26.7585 49.3258 26.3978C49.6151 26.0334 49.8292 25.6915 49.9683 25.3721C50.111 25.049 50.1824 24.7108 50.1824 24.3577C50.1824 23.9519 50.0847 23.6006 49.8894 23.3038C49.6977 23.007 49.4347 22.7778 49.1004 22.6163C48.766 22.4547 48.3903 22.3739 47.9732 22.3739C47.5299 22.3739 47.1429 22.466 46.8123 22.6501C46.4854 22.8304 46.2318 23.084 46.0515 23.4109C45.8749 23.7378 45.7866 24.121 45.7866 24.5606H44.4566C44.4566 23.8843 44.6125 23.2907 44.9243 22.7797C45.2362 22.2687 45.6607 21.8705 46.198 21.5849C46.739 21.2994 47.3458 21.1566 48.0183 21.1566C48.6946 21.1566 49.2939 21.2994 49.8161 21.5849C50.3383 21.8705 50.7479 22.2556 51.0447 22.7402C51.3415 23.2249 51.4899 23.7641 51.4899 24.3577C51.4899 24.7822 51.4129 25.1974 51.2588 25.6032C51.1085 26.0052 50.8455 26.4542 50.4698 26.9501C50.0979 27.4423 49.5813 28.0434 48.92 28.7535L46.3276 31.5263V31.6164H51.6928V32.8563H44.4115Z" fill="black"/>
  <path d="M30.6407 32.8563V24.1999H31.9256V25.5524H32.0384C32.2187 25.0903 32.5099 24.7315 32.9119 24.476C33.3139 24.2168 33.7967 24.0872 34.3603 24.0872C34.9313 24.0872 35.4066 24.2168 35.7861 24.476C36.1693 24.7315 36.468 25.0903 36.6822 25.5524H36.7723C36.994 25.1053 37.3265 24.7503 37.7698 24.4873C38.2132 24.2205 38.7448 24.0872 39.3647 24.0872C40.1387 24.0872 40.7718 24.3295 41.264 24.8142C41.7561 25.2951 42.0022 26.0446 42.0022 27.0628V32.8563H40.6722V27.0628C40.6722 26.4241 40.4975 25.9676 40.1481 25.6933C39.7987 25.4191 39.3873 25.2819 38.9139 25.2819C38.3052 25.2819 37.8337 25.466 37.4993 25.8342C37.1649 26.1987 36.9977 26.6608 36.9977 27.2206V32.8563H35.6452V26.9275C35.6452 26.4354 35.4855 26.039 35.1662 25.7384C34.8468 25.4341 34.4354 25.2819 33.9319 25.2819C33.5863 25.2819 33.2632 25.374 32.9626 25.5581C32.6658 25.7422 32.4253 25.9977 32.2412 26.3245C32.0609 26.6476 31.9707 27.0215 31.9707 27.446V32.8563H30.6407Z" fill="black"/>
  <path d="M29.0641 20.7734L25.3446 34.5921H24.1273L27.8468 20.7734H29.0641Z" fill="black"/>
  <path d="M18.8072 36.2828C18.1647 36.2828 17.6124 36.2001 17.1503 36.0348C16.6882 35.8732 16.3031 35.6591 15.995 35.3923C15.6907 35.1293 15.4483 34.8475 15.268 34.547L16.3275 33.8031C16.4477 33.9609 16.5999 34.1412 16.784 34.3441C16.9681 34.5507 17.2198 34.7292 17.5392 34.8795C17.8623 35.0335 18.285 35.1105 18.8072 35.1105C19.506 35.1105 20.0827 34.9415 20.5373 34.6033C20.992 34.2652 21.2193 33.7354 21.2193 33.0141V31.2557H21.1066C21.0089 31.4135 20.8699 31.6089 20.6895 31.8418C20.5129 32.071 20.2574 32.2758 19.9231 32.4561C19.5924 32.6327 19.1453 32.721 18.5818 32.721C17.8829 32.721 17.2555 32.5557 16.6995 32.2251C16.1472 31.8944 15.7095 31.4135 15.3863 30.7823C15.067 30.1511 14.9073 29.3847 14.9073 28.483C14.9073 27.5963 15.0632 26.8242 15.3751 26.1667C15.6869 25.5055 16.1209 24.9945 16.6769 24.6338C17.233 24.2694 17.8754 24.0872 18.6043 24.0872C19.1679 24.0872 19.615 24.1811 19.9456 24.3689C20.28 24.553 20.5355 24.7634 20.7121 25.0001C20.8924 25.2331 21.0314 25.4247 21.1291 25.575H21.2644V24.1999H22.5493V33.1042C22.5493 33.8481 22.3802 34.453 22.0421 34.9189C21.7077 35.3886 21.2568 35.7323 20.6895 35.9503C20.1259 36.1719 19.4985 36.2828 18.8072 36.2828ZM18.7621 31.5262C19.2956 31.5262 19.7465 31.4041 20.1147 31.1599C20.4829 30.9157 20.7628 30.5644 20.9544 30.1061C21.146 29.6477 21.2418 29.0991 21.2418 28.4604C21.2418 27.8368 21.1479 27.2863 20.96 26.8092C20.7722 26.332 20.4941 25.9582 20.1259 25.6877C19.7577 25.4172 19.3031 25.2819 18.7621 25.2819C18.1985 25.2819 17.7289 25.4247 17.3532 25.7102C16.9812 25.9958 16.7013 26.379 16.5135 26.8599C16.3294 27.3408 16.2373 27.8743 16.2373 28.4604C16.2373 29.0616 16.3313 29.5932 16.5191 30.0553C16.7107 30.5137 16.9925 30.8744 17.3645 31.1374C17.7402 31.3966 18.2061 31.5262 18.7621 31.5262Z" fill="black"/>
  <path d="M1.51977 32.8563V24.1999H2.8047V25.5524H2.91742C3.09776 25.0903 3.38893 24.7315 3.79094 24.476C4.19296 24.2168 4.67575 24.0872 5.23931 24.0872C5.8104 24.0872 6.28567 24.2168 6.66514 24.476C7.04837 24.7315 7.34706 25.0903 7.56121 25.5524H7.65138C7.87305 25.1053 8.20556 24.7503 8.6489 24.4873C9.09224 24.2205 9.62387 24.0872 10.2438 24.0872C11.0178 24.0872 11.6508 24.3295 12.143 24.8142C12.6352 25.2951 12.8813 26.0446 12.8813 27.0628V32.8563H11.5513V27.0628C11.5513 26.4241 11.3766 25.9676 11.0272 25.6933C10.6777 25.4191 10.2663 25.2819 9.79294 25.2819C9.18429 25.2819 8.71277 25.466 8.37838 25.8342C8.044 26.1987 7.87681 26.6608 7.87681 27.2206V32.8563H6.52425V26.9275C6.52425 26.4354 6.36457 26.039 6.04521 25.7384C5.72586 25.4341 5.31446 25.2819 4.811 25.2819C4.46535 25.2819 4.14224 25.374 3.84167 25.5581C3.54485 25.7422 3.3044 25.9977 3.1203 26.3245C2.93996 26.6476 2.84979 27.0215 2.84979 27.446V32.8563H1.51977Z" fill="black"/>
  <path d="M122.304 12.0665L122.208 12.7632C122.144 13.2746 122.036 13.8073 121.882 14.3612C121.733 14.9195 121.578 15.4372 121.416 15.9145C121.258 16.3918 121.128 16.771 121.026 17.0523H119.671C119.726 16.7881 119.803 16.4301 119.901 15.9784C119.999 15.531 120.095 15.0303 120.188 14.4763C120.282 13.9223 120.353 13.3577 120.399 12.7824L120.463 12.0665H122.304Z" fill="black"/>
  <path d="M113.485 14.0544C112.517 14.0544 111.684 13.8477 110.986 13.4344C110.291 13.0168 109.754 12.4308 109.375 11.6766C109 10.9181 108.812 10.0296 108.812 9.0111C108.812 8.00542 109 7.11905 109.375 6.35201C109.754 5.58496 110.282 4.98624 110.96 4.55584C111.642 4.12545 112.439 3.91025 113.351 3.91025C113.905 3.91025 114.441 4.00187 114.961 4.18511C115.481 4.36834 115.948 4.65599 116.361 5.04803C116.775 5.44008 117.101 5.94931 117.339 6.57573C117.578 7.19789 117.697 7.95428 117.697 8.84491V9.52246H109.892V8.09065H115.824C115.824 7.5878 115.722 7.14249 115.517 6.75471C115.313 6.36266 115.025 6.05371 114.655 5.82786C114.288 5.60201 113.858 5.48908 113.363 5.48908C112.826 5.48908 112.358 5.62119 111.957 5.88539C111.561 6.14533 111.254 6.48624 111.037 6.90812C110.824 7.32573 110.717 7.77957 110.717 8.26962V9.38823C110.717 10.0445 110.832 10.6027 111.062 11.0629C111.297 11.5232 111.623 11.8747 112.04 12.1176C112.458 12.3563 112.946 12.4756 113.504 12.4756C113.866 12.4756 114.196 12.4245 114.495 12.3222C114.793 12.2156 115.051 12.058 115.268 11.8492C115.486 11.6404 115.652 11.3825 115.767 11.0757L117.576 11.4017C117.431 11.9344 117.171 12.401 116.796 12.8016C116.425 13.1979 115.959 13.5068 115.396 13.7284C114.838 13.9458 114.201 14.0544 113.485 14.0544Z" fill="black"/>
  <path d="M101.661 14.0481C100.869 14.0481 100.161 13.8456 99.539 13.4408C98.9211 13.0317 98.4353 12.45 98.0816 11.6958C97.7321 10.9373 97.5574 10.0275 97.5574 8.96638C97.5574 7.9053 97.7343 6.99762 98.088 6.24336C98.4459 5.4891 98.936 4.91169 99.5581 4.51112C100.18 4.11055 100.886 3.91027 101.674 3.91027C102.283 3.91027 102.773 4.01254 103.144 4.21709C103.519 4.41737 103.809 4.65174 104.013 4.92021C104.222 5.18868 104.384 5.42518 104.499 5.62973H104.614V0.765381H106.525V13.8563H104.659V12.3286H104.499C104.384 12.5374 104.218 12.776 104.001 13.0445C103.788 13.313 103.494 13.5473 103.119 13.7476C102.744 13.9479 102.258 14.0481 101.661 14.0481ZM102.083 12.4181C102.633 12.4181 103.097 12.2732 103.476 11.9834C103.86 11.6894 104.15 11.2824 104.346 10.7625C104.546 10.2427 104.646 9.63754 104.646 8.9472C104.646 8.26538 104.548 7.66879 104.352 7.15743C104.156 6.64606 103.869 6.24762 103.489 5.96211C103.11 5.6766 102.641 5.53385 102.083 5.53385C101.508 5.53385 101.028 5.68299 100.645 5.98129C100.261 6.27959 99.9715 6.68655 99.7755 7.20217C99.5837 7.7178 99.4878 8.29947 99.4878 8.9472C99.4878 9.60345 99.5858 10.1936 99.7819 10.7178C99.9779 11.2419 100.268 11.6574 100.651 11.9642C101.039 12.2668 101.516 12.4181 102.083 12.4181Z" fill="black"/>
  <path d="M93.5033 13.8563V4.03809H95.4145V13.8563H93.5033ZM94.4685 2.52317C94.1361 2.52317 93.8506 2.41238 93.6119 2.19078C93.3776 1.96493 93.2604 1.69647 93.2604 1.38539C93.2604 1.07005 93.3776 0.80158 93.6119 0.579989C93.8506 0.354137 94.1361 0.241211 94.4685 0.241211C94.8009 0.241211 95.0842 0.354137 95.3186 0.579989C95.5573 0.80158 95.6766 1.07005 95.6766 1.38539C95.6766 1.69647 95.5573 1.96493 95.3186 2.19078C95.0842 2.41238 94.8009 2.52317 94.4685 2.52317Z" fill="black"/>
  <path d="M85.0977 4.03809L87.2646 7.86053L89.4507 4.03809H91.5409L88.4791 8.94718L91.5665 13.8563H89.4763L87.2646 10.1872L85.0594 13.8563H82.9628L86.0182 8.94718L83.0011 4.03809H85.0977Z" fill="black"/>
  <path d="M77.2659 14.0544C76.3454 14.0544 75.5422 13.8435 74.8561 13.4216C74.17 12.9997 73.6373 12.4095 73.2581 11.651C72.8788 10.8925 72.6892 10.0061 72.6892 8.99192C72.6892 7.97346 72.8788 7.08283 73.2581 6.32005C73.6373 5.55726 74.17 4.96493 74.8561 4.54306C75.5422 4.12119 76.3454 3.91025 77.2659 3.91025C78.1863 3.91025 78.9896 4.12119 79.6757 4.54306C80.3618 4.96493 80.8944 5.55726 81.2737 6.32005C81.653 7.08283 81.8426 7.97346 81.8426 8.99192C81.8426 10.0061 81.653 10.8925 81.2737 11.651C80.8944 12.4095 80.3618 12.9997 79.6757 13.4216C78.9896 13.8435 78.1863 14.0544 77.2659 14.0544ZM77.2723 12.45C77.8689 12.45 78.3632 12.2924 78.7552 11.977C79.1473 11.6617 79.437 11.2419 79.6245 10.7178C79.8163 10.1936 79.9122 9.61621 79.9122 8.98553C79.9122 8.35911 79.8163 7.78383 79.6245 7.25968C79.437 6.73127 79.1473 6.30726 78.7552 5.98766C78.3632 5.66806 77.8689 5.50826 77.2723 5.50826C76.6714 5.50826 76.1728 5.66806 75.7765 5.98766C75.3845 6.30726 75.0926 6.73127 74.9008 7.25968C74.7133 7.78383 74.6196 8.35911 74.6196 8.98553C74.6196 9.61621 74.7133 10.1936 74.9008 10.7178C75.0926 11.2419 75.3845 11.6617 75.7765 11.977C76.1728 12.2924 76.6714 12.45 77.2723 12.45Z" fill="black"/>
  <path d="M68.6478 13.8563V4.03809H70.559V13.8563H68.6478ZM69.613 2.52317C69.2806 2.52317 68.9951 2.41238 68.7565 2.19078C68.5221 1.96493 68.4049 1.69647 68.4049 1.38539C68.4049 1.07005 68.5221 0.80158 68.7565 0.579989C68.9951 0.354137 69.2806 0.241211 69.613 0.241211C69.9454 0.241211 70.2288 0.354137 70.4632 0.579989C70.7018 0.80158 70.8211 1.07005 70.8211 1.38539C70.8211 1.69647 70.7018 1.96493 70.4632 2.19078C70.2288 2.41238 69.9454 2.52317 69.613 2.52317Z" fill="black"/>
  <path d="M61.0557 14.0481C60.263 14.0481 59.5557 13.8456 58.9335 13.4408C58.3156 13.0317 57.8298 12.45 57.4761 11.6958C57.1267 10.9373 56.952 10.0275 56.952 8.96638C56.952 7.9053 57.1288 6.99762 57.4825 6.24336C57.8405 5.4891 58.3305 4.91169 58.9527 4.51112C59.5748 4.11055 60.2801 3.91027 61.0684 3.91027C61.6778 3.91027 62.1679 4.01254 62.5386 4.21709C62.9136 4.41737 63.2034 4.65174 63.4079 4.92021C63.6167 5.18868 63.7787 5.42518 63.8937 5.62973H64.0088V0.765381H65.92V13.8563H64.0535V12.3286H63.8937C63.7787 12.5374 63.6125 12.776 63.3951 13.0445C63.1821 13.313 62.888 13.5473 62.513 13.7476C62.138 13.9479 61.6522 14.0481 61.0557 14.0481ZM61.4775 12.4181C62.0272 12.4181 62.4917 12.2732 62.871 11.9834C63.2545 11.6894 63.5443 11.2824 63.7403 10.7625C63.9406 10.2427 64.0407 9.63754 64.0407 8.9472C64.0407 8.26538 63.9427 7.66879 63.7467 7.15743C63.5507 6.64606 63.263 6.24762 62.8838 5.96211C62.5045 5.6766 62.0358 5.53385 61.4775 5.53385C60.9022 5.53385 60.4228 5.68299 60.0393 5.98129C59.6558 6.27959 59.366 6.68655 59.17 7.20217C58.9782 7.7178 58.8824 8.29947 58.8824 8.9472C58.8824 9.60345 58.9804 10.1936 59.1764 10.7178C59.3724 11.2419 59.6622 11.6574 60.0457 11.9642C60.4335 12.2668 60.9108 12.4181 61.4775 12.4181Z" fill="black"/>
  <path d="M45.7084 13.8563V4.0381H47.5557V5.59776H47.6579C47.8369 5.06935 48.1522 4.65387 48.604 4.35131C49.0599 4.04449 49.5755 3.89108 50.1508 3.89108C50.2701 3.89108 50.4108 3.89534 50.5727 3.90387C50.7389 3.91239 50.8689 3.92304 50.9626 3.93583V5.76395C50.8859 5.74265 50.7495 5.71921 50.5535 5.69364C50.3575 5.66381 50.1615 5.6489 49.9655 5.6489C49.5138 5.6489 49.1111 5.74478 48.7574 5.93654C48.4079 6.12404 48.1309 6.38611 47.9264 6.72276C47.7218 7.05515 47.6196 7.43441 47.6196 7.86054V13.8563H45.7084Z" fill="black"/>
  <path d="M41.2227 9.78453V4.03809H43.1404V13.8563H41.2611V12.156H41.1588C40.933 12.6801 40.5707 13.1169 40.0722 13.4664C39.5779 13.8115 38.9621 13.9841 38.2249 13.9841C37.5942 13.9841 37.0359 13.8456 36.5502 13.5686C36.0686 13.2874 35.6894 12.8719 35.4124 12.3222C35.1396 11.7725 35.0033 11.0928 35.0033 10.2831V4.03809H36.9145V10.053C36.9145 10.722 37.0999 11.2547 37.4706 11.651C37.8413 12.0473 38.3229 12.2455 38.9152 12.2455C39.2732 12.2455 39.629 12.156 39.9827 11.977C40.3406 11.798 40.6368 11.5274 40.8712 11.1652C41.1098 10.803 41.227 10.3428 41.2227 9.78453Z" fill="black"/>
  <path d="M33.0313 4.0381V5.57219H27.483V4.0381H33.0313ZM29.0043 13.8563V2.90031C29.0043 2.28668 29.1386 1.77744 29.407 1.37261C29.6755 0.963524 30.0313 0.658836 30.4745 0.458552C30.9177 0.254006 31.3992 0.151733 31.9191 0.151733C32.3026 0.151733 32.6308 0.183694 32.9035 0.247615C33.1762 0.307274 33.3786 0.362671 33.5107 0.413808L33.0633 1.96068C32.9738 1.93511 32.8587 1.90529 32.7181 1.87119C32.5775 1.83284 32.407 1.81367 32.2068 1.81367C31.7423 1.81367 31.4099 1.92872 31.2096 2.15884C31.0136 2.38895 30.9156 2.72134 30.9156 3.156V13.8563H29.0043Z" fill="black"/>
  <path d="M25.7875 0.765381V13.8563H23.8763V0.765381H25.7875Z" fill="black"/>
  <path d="M19.3907 9.78453V4.03809H21.3083V13.8563H19.4291V12.156H19.3268C19.1009 12.6801 18.7387 13.1169 18.2401 13.4664C17.7458 13.8115 17.1301 13.9841 16.3928 13.9841C15.7622 13.9841 15.2039 13.8456 14.7181 13.5686C14.2366 13.2874 13.8573 12.8719 13.5803 12.3222C13.3076 11.7725 13.1712 11.0928 13.1712 10.2831V4.03809H15.0825V10.053C15.0825 10.722 15.2678 11.2547 15.6386 11.651C16.0093 12.0473 16.4909 12.2455 17.0832 12.2455C17.4411 12.2455 17.797 12.156 18.1507 11.977C18.5086 11.798 18.8048 11.5274 19.0391 11.1652C19.2778 10.803 19.395 10.3428 19.3907 9.78453Z" fill="black"/>
  <path d="M8.88059 4.20429C8.8124 3.59918 8.53115 3.13043 8.03684 2.79804C7.54252 2.4614 6.92036 2.29307 6.17036 2.29307C5.63343 2.29307 5.16894 2.3783 4.77689 2.54875C4.38485 2.71495 4.08016 2.94506 3.86283 3.23909C3.64976 3.52887 3.54323 3.85912 3.54323 4.22986C3.54323 4.54094 3.61567 4.80941 3.76056 5.03526C3.90971 5.26111 4.1036 5.45074 4.34223 5.60415C4.58513 5.7533 4.84507 5.87901 5.12206 5.98128C5.39905 6.07929 5.66539 6.16026 5.92107 6.22418L7.19948 6.55657C7.61709 6.65884 8.04536 6.79733 8.48428 6.97205C8.9232 7.14676 9.33016 7.37688 9.70516 7.66239C10.0802 7.9479 10.3827 8.30159 10.6128 8.72347C10.8472 9.14534 10.9644 9.65032 10.9644 10.2384C10.9644 10.9799 10.7726 11.6382 10.3891 12.2135C10.0098 12.7888 9.458 13.2426 8.73357 13.575C8.0134 13.9074 7.14195 14.0736 6.11922 14.0736C5.13911 14.0736 4.2911 13.9181 3.57519 13.607C2.85928 13.2959 2.29891 12.8549 1.89408 12.2838C1.48925 11.7086 1.26553 11.0267 1.22292 10.2384H3.20445C3.2428 10.7114 3.39621 11.1056 3.66468 11.4209C3.9374 11.732 4.28471 11.9642 4.70658 12.1176C5.13272 12.2668 5.59934 12.3414 6.10644 12.3414C6.66468 12.3414 7.16113 12.254 7.59579 12.0793C8.03471 11.9003 8.37988 11.6532 8.6313 11.3378C8.88272 11.0182 9.00843 10.6453 9.00843 10.2192C9.00843 9.83142 8.89763 9.51395 8.67604 9.26679C8.45871 9.01963 8.16255 8.81509 7.78755 8.65316C7.41681 8.49123 6.99706 8.34847 6.52831 8.22489L4.98144 7.80301C3.93314 7.5175 3.10218 7.09776 2.48854 6.54378C1.87917 5.9898 1.57448 5.25685 1.57448 4.34492C1.57448 3.59066 1.77902 2.93228 2.18811 2.36978C2.59721 1.80728 3.15118 1.37049 3.85005 1.05941C4.54891 0.744066 5.33726 0.586395 6.2151 0.586395C7.10147 0.586395 7.88343 0.741935 8.56098 1.05301C9.2428 1.36409 9.77973 1.79236 10.1718 2.33782C10.5638 2.87901 10.7684 3.50117 10.7854 4.20429H8.88059Z" fill="black"/>
  <path d="M26.5305 46.9629H0.297058V167.573H26.5305V46.9629Z" fill="url(#paint0_linear_0_1)"/>
  <path fill-rule="evenodd" clip-rule="evenodd" d="M0.1371 46.8029H26.6904V167.733H0.1371V46.8029ZM0.45702 47.1229V167.413H26.3705V47.1229H0.45702Z" fill="black"/>
  <path d="M49.0187 58.6678V57.509L54.131 49.4201H54.9717V51.2151H54.4037L50.541 57.3272V57.4181H57.4257V58.6678H49.0187ZM54.4946 61.0536V58.3156V57.776V49.4201H55.8352V61.0536H54.4946Z" fill="black"/>
  <path d="M46.8303 59.463L46.7394 60.0765C46.675 60.5082 46.5766 60.9702 46.444 61.4625C46.3153 61.9548 46.1808 62.4187 46.0407 62.8542C45.9006 63.2897 45.7851 63.6362 45.6942 63.8938H44.6718C44.721 63.6514 44.7854 63.3314 44.8649 62.9338C44.9444 62.5361 45.0239 62.0912 45.1035 61.5989C45.1868 61.1104 45.2549 60.6105 45.308 60.0992L45.3761 59.463H46.8303Z" fill="black"/>
  <path d="M39.149 61.2126C38.4825 61.2126 37.8823 61.0801 37.3483 60.815C36.8144 60.5499 36.3864 60.1863 36.0645 59.7243C35.7427 59.2623 35.5666 58.736 35.5363 58.1452H36.8996C36.9526 58.6716 37.1912 59.1071 37.6153 59.4517C38.0432 59.7925 38.5544 59.9629 39.149 59.9629C39.6261 59.9629 40.0503 59.8512 40.4214 59.6278C40.7963 59.4043 41.0898 59.0976 41.3019 58.7076C41.5177 58.3137 41.6256 57.8687 41.6256 57.3727C41.6256 56.8652 41.5139 56.4127 41.2905 56.015C41.0709 55.6136 40.7679 55.2974 40.3816 55.0664C39.9954 54.8354 39.5542 54.718 39.0581 54.7142C38.7021 54.7104 38.3367 54.7654 37.9618 54.879C37.5869 54.9888 37.2783 55.1308 37.0359 55.305L35.718 55.1459L36.4224 49.4201H42.4663V50.6698H37.6039L37.1949 54.1007H37.2631C37.5017 53.9114 37.8008 53.7542 38.1606 53.6293C38.5204 53.5043 38.8953 53.4418 39.2853 53.4418C39.9973 53.4418 40.6316 53.6122 41.1883 53.9531C41.7487 54.2901 42.188 54.7521 42.5061 55.3391C42.828 55.9261 42.9889 56.5963 42.9889 57.3499C42.9889 58.0922 42.8223 58.7549 42.4891 59.3381C42.1596 59.9175 41.7052 60.3757 41.1258 60.7127C40.5464 61.046 39.8874 61.2126 39.149 61.2126Z" fill="black"/>
  <path d="M39.308 162.931C38.4522 162.931 37.7232 162.698 37.1211 162.232C36.519 161.763 36.0589 161.083 35.7408 160.193C35.4227 159.299 35.2636 158.22 35.2636 156.955C35.2636 155.698 35.4227 154.624 35.7408 153.734C36.0626 152.841 36.5247 152.159 37.1268 151.689C37.7327 151.216 38.4598 150.979 39.308 150.979C40.1563 150.979 40.8815 151.216 41.4836 151.689C42.0895 152.159 42.5515 152.841 42.8697 153.734C43.1915 154.624 43.3525 155.698 43.3525 156.955C43.3525 158.22 43.1934 159.299 42.8753 160.193C42.5572 161.083 42.0971 161.763 41.495 162.232C40.8929 162.698 40.1639 162.931 39.308 162.931ZM39.308 161.681C40.1563 161.681 40.8152 161.272 41.2848 160.454C41.7544 159.636 41.9892 158.47 41.9892 156.955C41.9892 155.948 41.8813 155.09 41.6654 154.382C41.4533 153.674 41.1466 153.134 40.7452 152.763C40.3476 152.392 39.8685 152.206 39.308 152.206C38.4673 152.206 37.8103 152.621 37.3369 153.45C36.8636 154.276 36.6269 155.444 36.6269 156.955C36.6269 157.962 36.7329 158.818 36.945 159.523C37.1571 160.227 37.4619 160.763 37.8595 161.13C38.261 161.497 38.7438 161.681 39.308 161.681Z" fill="black"/>
  <defs>
    <linearGradient id="paint0_linear_0_1" x1="-231.325" y1="168.088" x2="-231.325" y2="47.1709" gradientUnits="userSpaceOnUse">
      <stop stop-color="#000004" stop-opacity="0"/>
      <stop offset="0.0192308" stop-color="#550E71" stop-opacity="0.0705882"/>
      <stop offset="0.0384615" stop-color="#570D6B" stop-opacity="0.14902"/>
      <stop offset="0.0576923" stop-color="#580D6E" stop-opacity="0.227451"/>
      <stop offset="0.0769231" stop-color="#560D6D" stop-opacity="0.301961"/>
      <stop offset="0.0961538" stop-color="#570D6E" stop-opacity="0.380392"/>
      <stop offset="0.115385" stop-color="#570D6D" stop-opacity="0.458824"/>
      <stop offset="0.134615" stop-color="#560F6D" stop-opacity="0.533333"/>
      <stop offset="0.153846" stop-color="#570F6E" stop-opacity="0.611765"/>
      <stop offset="0.173077" stop-color="#570E6E" stop-opacity="0.690196"/>
      <stop offset="0.192308" stop-color="#560E6E" stop-opacity="0.764706"/>
      <stop offset="0.211538" stop-color="#570E6D" stop-opacity="0.843137"/>
      <stop offset="0.230769" stop-color="#570E6E" stop-opacity="0.921569"/>
      <stop offset="0.25" stop-color="#570F6E"/>
      <stop offset="0.269231" stop-color="#5E116C"/>
      <stop offset="0.288462" stop-color="#66156A"/>
      <stop offset="0.307692" stop-color="#6E1868"/>
      <stop offset="0.326923" stop-color="#751B66"/>
      <stop offset="0.346154" stop-color="#7D1E64"/>
      <stop offset="0.365385" stop-color="#852162"/>
      <stop offset="0.384615" stop-color="#8C2460"/>
      <stop offset="0.403846" stop-color="#94275E"/>
      <stop offset="0.423077" stop-color="#9C2A5C"/>
      <stop offset="0.442308" stop-color="#A32D5A"/>
      <stop offset="0.461538" stop-color="#AB3058"/>
      <stop offset="0.480769" stop-color="#B33356"/>
      <stop offset="0.5" stop-color="#BB3755"/>
      <stop offset="0.519231" stop-color="#BF3D4F"/>
      <stop offset="0.538462" stop-color="#C44449"/>
      <stop offset="0.557692" stop-color="#C94A43"/>
      <stop offset="0.576923" stop-color="#CD513E"/>
      <stop offset="0.596154" stop-color="#D25738"/>
      <stop offset="0.615385" stop-color="#D75E32"/>
      <stop offset="0.634615" stop-color="#DC652C"/>
      <stop offset="0.653846" stop-color="#E16B27"/>
      <stop offset="0.673077" stop-color="#E57221"/>
      <stop offset="0.692308" stop-color="#EA781B"/>
      <stop offset="0.711538" stop-color="#EF7F15"/>
      <stop offset="0.730769" stop-color="#F4860F"/>
      <stop offset="0.75" stop-color="#F98D0A"/>
      <stop offset="0.769231" stop-color="#F99515"/>
      <stop offset="0.788462" stop-color="#F99E21"/>
      <stop offset="0.807692" stop-color="#F9A72D"/>
      <stop offset="0.826923" stop-color="#F9AF38"/>
      <stop offset="0.846154" stop-color="#FAB844"/>
      <stop offset="0.865385" stop-color="#FAC150"/>
      <stop offset="0.884615" stop-color="#FACA5C"/>
      <stop offset="0.903846" stop-color="#FAD268"/>
      <stop offset="0.923077" stop-color="#FBDB74"/>
      <stop offset="0.942308" stop-color="#FBE47F"/>
      <stop offset="0.961538" stop-color="#FBED8B"/>
      <stop offset="0.980769" stop-color="#FBF697"/>
      <stop offset="1" stop-color="#FCFFA4"/>
    </linearGradient>
  </defs>
</svg>