<svg width="156" height="181" viewBox="0 0 156 181" fill="none" xmlns="http://www.w3.org/2000/svg">
  <path d="M107.828 26.5716L106.633 26.9097C106.558 26.7106 106.447 26.5171 106.3 26.3292C106.158 26.1376 105.962 25.9798 105.714 25.8558C105.466 25.7318 105.149 25.6698 104.762 25.6698C104.232 25.6698 103.791 25.7919 103.437 26.0362C103.088 26.2766 102.913 26.5828 102.913 26.9548C102.913 27.2854 103.033 27.5465 103.274 27.7381C103.514 27.9297 103.89 28.0894 104.401 28.2172L105.686 28.5328C106.46 28.7206 107.037 29.008 107.416 29.395C107.796 29.7782 107.985 30.2723 107.985 30.8772C107.985 31.3731 107.843 31.8165 107.557 32.2072C107.275 32.598 106.881 32.906 106.374 33.1315C105.866 33.3569 105.276 33.4696 104.604 33.4696C103.721 33.4696 102.99 33.278 102.412 32.8948C101.833 32.5116 101.467 31.9517 101.313 31.2153L102.575 30.8997C102.695 31.3656 102.923 31.715 103.257 31.948C103.595 32.1809 104.037 32.2974 104.581 32.2974C105.201 32.2974 105.694 32.1659 106.058 31.9029C106.426 31.6361 106.61 31.3168 106.61 30.9448C106.61 30.6443 106.505 30.3925 106.295 30.1897C106.084 29.983 105.761 29.829 105.325 29.7275L103.883 29.3894C103.09 29.2015 102.507 28.9104 102.136 28.5159C101.767 28.1176 101.583 27.6198 101.583 27.0224C101.583 26.534 101.72 26.1019 101.995 25.7262C102.273 25.3505 102.65 25.0556 103.127 24.8414C103.608 24.6272 104.153 24.5202 104.762 24.5202C105.618 24.5202 106.291 24.708 106.779 25.0837C107.271 25.4594 107.621 25.9554 107.828 26.5716Z" fill="black"/>
  <path d="M95.7912 33.2893V24.6329H97.0761V25.9404H97.1663C97.3241 25.512 97.6096 25.1645 98.0229 24.8978C98.4362 24.631 98.9021 24.4976 99.4205 24.4976C99.5182 24.4976 99.6403 24.4995 99.7869 24.5033C99.9334 24.507 100.044 24.5127 100.119 24.5202V25.8727C100.074 25.8615 99.971 25.8445 99.8094 25.822C99.6516 25.7957 99.4844 25.7826 99.3078 25.7826C98.887 25.7826 98.5113 25.8708 98.1807 26.0474C97.8538 26.2203 97.5946 26.4607 97.403 26.7688C97.2151 27.0731 97.1212 27.4207 97.1212 27.8114V33.2893H95.7912Z" fill="black"/>
  <path d="M90.1837 33.4696C89.3496 33.4696 88.6301 33.2855 88.0252 32.9173C87.4241 32.5454 86.9601 32.0269 86.6332 31.3619C86.3101 30.6931 86.1485 29.9154 86.1485 29.0287C86.1485 28.142 86.3101 27.3605 86.6332 26.6843C86.9601 26.0042 87.4147 25.4745 87.997 25.095C88.5831 24.7118 89.2669 24.5202 90.0484 24.5202C90.4993 24.5202 90.9445 24.5953 91.3841 24.7456C91.8237 24.8959 92.2238 25.1401 92.5845 25.4782C92.9451 25.8126 93.2326 26.256 93.4467 26.8082C93.6609 27.3605 93.768 28.0406 93.768 28.8484V29.4119H87.0953V28.2623H92.4154C92.4154 27.7738 92.3177 27.338 92.1223 26.9548C91.9307 26.5715 91.6565 26.2691 91.2995 26.0474C90.9464 25.8258 90.5293 25.7149 90.0484 25.7149C89.5187 25.7149 89.0603 25.8464 88.6733 26.1094C88.2901 26.3687 87.9951 26.7068 87.7885 27.1238C87.5819 27.5409 87.4785 27.988 87.4785 28.4651V29.2316C87.4785 29.8853 87.5913 30.4395 87.8167 30.8941C88.0459 31.345 88.3634 31.6887 88.7691 31.9254C89.1749 32.1584 89.6464 32.2749 90.1837 32.2749C90.5331 32.2749 90.8487 32.226 91.1305 32.1283C91.416 32.0269 91.6621 31.8766 91.8687 31.6775C92.0754 31.4746 92.2351 31.2229 92.3478 30.9223L93.6327 31.283C93.4974 31.7188 93.2701 32.102 92.9508 32.4327C92.6314 32.7595 92.2369 33.015 91.7673 33.1991C91.2977 33.3794 90.7698 33.4696 90.1837 33.4696Z" fill="black"/>
  <path d="M84.6466 24.6329V25.76H80.1606V24.6329H84.6466ZM81.4681 22.5589H82.7981V30.8096C82.7981 31.1853 82.8526 31.4671 82.9615 31.6549C83.0743 31.839 83.217 31.963 83.3899 32.0269C83.5664 32.087 83.7524 32.1171 83.9478 32.1171C84.0943 32.1171 84.2145 32.1095 84.3085 32.0945C84.4024 32.0757 84.4775 32.0607 84.5339 32.0494L84.8044 33.2442C84.7142 33.278 84.5884 33.3118 84.4268 33.3456C84.2653 33.3832 84.0605 33.402 83.8125 33.402C83.4368 33.402 83.0686 33.3212 82.7079 33.1597C82.351 32.9981 82.0542 32.752 81.8175 32.4214C81.5846 32.0908 81.4681 31.6737 81.4681 31.1703V22.5589Z" fill="black"/>
  <path d="M75.2745 33.4696C74.4404 33.4696 73.7209 33.2855 73.116 32.9173C72.5149 32.5454 72.0509 32.0269 71.724 31.3619C71.4009 30.6931 71.2393 29.9154 71.2393 29.0287C71.2393 28.142 71.4009 27.3605 71.724 26.6843C72.0509 26.0042 72.5055 25.4745 73.0879 25.095C73.674 24.7118 74.3578 24.5202 75.1392 24.5202C75.5901 24.5202 76.0353 24.5953 76.4749 24.7456C76.9145 24.8959 77.3146 25.1401 77.6753 25.4782C78.036 25.8126 78.3234 26.256 78.5375 26.8082C78.7517 27.3605 78.8588 28.0406 78.8588 28.8484V29.4119H72.1861V28.2623H77.5062C77.5062 27.7738 77.4085 27.338 77.2132 26.9548C77.0216 26.5715 76.7473 26.2691 76.3904 26.0474C76.0372 25.8258 75.6201 25.7149 75.1392 25.7149C74.6095 25.7149 74.1511 25.8464 73.7641 26.1094C73.3809 26.3687 73.086 26.7068 72.8793 27.1238C72.6727 27.5409 72.5694 27.988 72.5694 28.4651V29.2316C72.5694 29.8853 72.6821 30.4395 72.9075 30.8941C73.1367 31.345 73.4542 31.6887 73.8599 31.9254C74.2657 32.1584 74.7372 32.2749 75.2745 32.2749C75.6239 32.2749 75.9395 32.226 76.2213 32.1283C76.5068 32.0269 76.7529 31.8766 76.9596 31.6775C77.1662 31.4746 77.3259 31.2229 77.4386 30.9223L78.7235 31.283C78.5883 31.7188 78.361 32.102 78.0416 32.4327C77.7223 32.7595 77.3278 33.015 76.8581 33.1991C76.3885 33.3794 75.8606 33.4696 75.2745 33.4696Z" fill="black"/>
  <path d="M57.8518 33.2893V24.6329H59.1367V25.9854H59.2495C59.4298 25.5233 59.721 25.1645 60.123 24.909C60.525 24.6498 61.0078 24.5202 61.5714 24.5202C62.1424 24.5202 62.6177 24.6498 62.9972 24.909C63.3804 25.1645 63.6791 25.5233 63.8933 25.9854H63.9834C64.2051 25.5383 64.5376 25.1833 64.9809 24.9203C65.4243 24.6535 65.9559 24.5202 66.5758 24.5202C67.3498 24.5202 67.9829 24.7625 68.4751 25.2472C68.9672 25.7281 69.2133 26.4776 69.2133 27.4958V33.2893H67.8833V27.4958C67.8833 26.8571 67.7086 26.4006 67.3592 26.1263C67.0098 25.8521 66.5984 25.7149 66.125 25.7149C65.5163 25.7149 65.0448 25.899 64.7104 26.2672C64.376 26.6317 64.2089 27.0938 64.2089 27.6536V33.2893H62.8563V27.3605C62.8563 26.8684 62.6966 26.472 62.3773 26.1714C62.0579 25.8671 61.6465 25.7149 61.143 25.7149C60.7974 25.7149 60.4743 25.807 60.1737 25.9911C59.8769 26.1752 59.6364 26.4307 59.4523 26.7575C59.272 27.0806 59.1818 27.4545 59.1818 27.879V33.2893H57.8518Z" fill="black"/>
  <path d="M47.7809 33.4696C46.9468 33.4696 46.2273 33.2855 45.6224 32.9173C45.0213 32.5454 44.5572 32.0269 44.2304 31.3619C43.9073 30.6931 43.7457 29.9154 43.7457 29.0287C43.7457 28.142 43.9073 27.3605 44.2304 26.6843C44.5572 26.0042 45.0119 25.4745 45.5942 25.095C46.1803 24.7118 46.8641 24.5202 47.6456 24.5202C48.0965 24.5202 48.5417 24.5953 48.9813 24.7456C49.4208 24.8959 49.821 25.1401 50.1817 25.4782C50.5423 25.8126 50.8298 26.256 51.0439 26.8082C51.2581 27.3605 51.3651 28.0406 51.3651 28.8484V29.4119H44.6925V28.2623H50.0126C50.0126 27.7738 49.9149 27.338 49.7195 26.9548C49.5279 26.5715 49.2536 26.2691 48.8967 26.0474C48.5435 25.8258 48.1265 25.7149 47.6456 25.7149C47.1158 25.7149 46.6575 25.8464 46.2705 26.1094C45.8873 26.3687 45.5923 26.7068 45.3857 27.1238C45.1791 27.5409 45.0757 27.988 45.0757 28.4651V29.2316C45.0757 29.8853 45.1884 30.4395 45.4139 30.8941C45.6431 31.345 45.9605 31.6887 46.3663 31.9254C46.7721 32.1584 47.2436 32.2749 47.7809 32.2749C48.1303 32.2749 48.4459 32.226 48.7276 32.1283C49.0132 32.0269 49.2593 31.8766 49.4659 31.6775C49.6726 31.4746 49.8322 31.2229 49.945 30.9223L51.2299 31.283C51.0946 31.7188 50.8673 32.102 50.548 32.4327C50.2286 32.7595 49.8341 33.015 49.3645 33.1991C48.8948 33.3794 48.367 33.4696 47.7809 33.4696Z" fill="black"/>
  <path d="M38.5102 33.2893V24.6329H39.7951V25.9404H39.8853C40.0431 25.512 40.3286 25.1645 40.7419 24.8978C41.1552 24.631 41.6211 24.4976 42.1395 24.4976C42.2372 24.4976 42.3593 24.4995 42.5059 24.5033C42.6524 24.507 42.7632 24.5127 42.8384 24.5202V25.8727C42.7933 25.8615 42.69 25.8445 42.5284 25.822C42.3706 25.7957 42.2034 25.7826 42.0268 25.7826C41.606 25.7826 41.2303 25.8708 40.8997 26.0474C40.5728 26.2203 40.3136 26.4607 40.122 26.7688C39.9341 27.0731 39.8402 27.4207 39.8402 27.8114V33.2893H38.5102Z" fill="black"/>
  <path d="M32.1151 33.4922C31.5665 33.4922 31.0687 33.3888 30.6216 33.1822C30.1745 32.9718 29.8195 32.6694 29.5565 32.2749C29.2935 31.8766 29.162 31.3957 29.162 30.8321C29.162 30.3362 29.2597 29.9342 29.455 29.6261C29.6504 29.3142 29.9115 29.07 30.2384 28.8934C30.5653 28.7169 30.926 28.5854 31.3205 28.4989C31.7187 28.4088 32.1188 28.3374 32.5208 28.2848C33.0468 28.2172 33.4733 28.1664 33.8001 28.1326C34.1308 28.0951 34.3712 28.0331 34.5215 27.9467C34.6756 27.8602 34.7526 27.71 34.7526 27.4958V27.4507C34.7526 26.8947 34.6004 26.4626 34.2961 26.1545C33.9955 25.8464 33.539 25.6924 32.9266 25.6924C32.2917 25.6924 31.7938 25.8314 31.4332 26.1094C31.0725 26.3875 30.8189 26.6843 30.6723 26.9999L29.41 26.549C29.6354 26.023 29.936 25.6135 30.3117 25.3204C30.6911 25.0236 31.1044 24.817 31.5515 24.7005C32.0024 24.5803 32.4457 24.5202 32.8815 24.5202C33.1596 24.5202 33.4789 24.554 33.8396 24.6216C34.204 24.6855 34.5553 24.8189 34.8935 25.0217C35.2354 25.2246 35.519 25.5308 35.7445 25.9404C35.9699 26.3499 36.0826 26.8984 36.0826 27.586V33.2893H34.7526V32.1171H34.6849C34.5948 32.3049 34.4445 32.5059 34.2341 32.7201C34.0237 32.9342 33.7438 33.1164 33.3944 33.2667C33.045 33.417 32.6185 33.4922 32.1151 33.4922ZM32.318 32.2974C32.844 32.2974 33.2873 32.1941 33.648 31.9874C34.0124 31.7808 34.2867 31.514 34.4708 31.1872C34.6586 30.8603 34.7526 30.5165 34.7526 30.1558V28.9385C34.6962 29.0062 34.5722 29.0682 34.3806 29.1245C34.1928 29.1771 33.9749 29.2241 33.7269 29.2654C33.4827 29.303 33.2441 29.3368 33.0112 29.3668C32.782 29.3931 32.596 29.4157 32.4532 29.4345C32.1076 29.4796 31.7845 29.5528 31.4839 29.6543C31.1871 29.7519 30.9466 29.9004 30.7625 30.0995C30.5822 30.2949 30.492 30.5616 30.492 30.8997C30.492 31.3619 30.663 31.7113 31.0049 31.948C31.3505 32.1809 31.7882 32.2974 32.318 32.2974Z" fill="black"/>
  <path d="M25.8017 29.7501V24.6329H27.1317V33.2893H25.8017V31.824H25.7116C25.5087 32.2636 25.1931 32.6374 24.7648 32.9455C24.3364 33.2498 23.7954 33.402 23.1417 33.402C22.6007 33.402 22.1197 33.2836 21.699 33.0469C21.2782 32.8065 20.9475 32.4458 20.7071 31.9649C20.4666 31.4802 20.3464 30.8697 20.3464 30.1333V24.6329H21.6764V30.0431C21.6764 30.6743 21.853 31.1778 22.2062 31.5535C22.5631 31.9292 23.0177 32.1171 23.57 32.1171C23.9006 32.1171 24.2369 32.0325 24.5788 31.8634C24.9244 31.6944 25.2137 31.4351 25.4467 31.0857C25.6834 30.7363 25.8017 30.2911 25.8017 29.7501Z" fill="black"/>
  <path d="M16.5818 36.5354V31.9593H16.469C16.3714 32.1171 16.2324 32.3162 16.052 32.5566C15.8717 32.7933 15.6143 33.0056 15.2799 33.1935C14.9455 33.3776 14.5003 33.4696 13.9443 33.4696C13.2229 33.4696 12.5861 33.2874 12.0338 32.923C11.4815 32.5548 11.0494 32.0363 10.7376 31.3675C10.4257 30.695 10.2698 29.9004 10.2698 28.9836C10.2698 28.0744 10.4257 27.2854 10.7376 26.6166C11.0494 25.9479 11.4834 25.4313 12.0394 25.0668C12.5955 24.7024 13.2379 24.5202 13.9668 24.5202C14.5304 24.5202 14.9756 24.6141 15.3025 24.8019C15.6331 24.986 15.8848 25.1964 16.0576 25.4331C16.2342 25.6661 16.3714 25.8577 16.469 26.008H16.6268V24.6329H17.9118V36.5354H16.5818ZM14.1246 32.2749C14.6581 32.2749 15.109 32.1358 15.4772 31.8578C15.8454 31.576 16.1253 31.1872 16.3169 30.6912C16.5085 30.1915 16.6043 29.6148 16.6043 28.9611C16.6043 28.3149 16.5104 27.7494 16.3225 27.2647C16.1347 26.7763 15.8566 26.3968 15.4884 26.1263C15.1202 25.8521 14.6656 25.7149 14.1246 25.7149C13.561 25.7149 13.0914 25.8596 12.7157 26.1489C12.3437 26.4344 12.0638 26.8233 11.876 27.3155C11.6919 27.8039 11.5998 28.3524 11.5998 28.9611C11.5998 29.5772 11.6938 30.1371 11.8816 30.6405C12.0732 31.1402 12.355 31.5385 12.727 31.8353C13.1027 32.1283 13.5686 32.2749 14.1246 32.2749Z" fill="black"/>
  <path d="M8.51569 26.5716L7.32093 26.9097C7.24579 26.7106 7.13495 26.5171 6.98843 26.3292C6.84566 26.1376 6.65029 25.9798 6.40232 25.8558C6.15435 25.7318 5.83687 25.6698 5.44989 25.6698C4.92013 25.6698 4.47867 25.7919 4.1255 26.0362C3.77609 26.2766 3.60139 26.5828 3.60139 26.9548C3.60139 27.2854 3.72161 27.5465 3.96207 27.7381C4.20252 27.9297 4.57824 28.0894 5.0892 28.2172L6.37414 28.5328C7.1481 28.7206 7.72482 29.008 8.10429 29.395C8.48376 29.7782 8.67349 30.2723 8.67349 30.8772C8.67349 31.3731 8.53072 31.8165 8.24518 32.2072C7.9634 32.598 7.5689 32.906 7.06169 33.1315C6.55448 33.3569 5.96461 33.4696 5.29209 33.4696C4.40917 33.4696 3.67841 33.278 3.09981 32.8948C2.52122 32.5116 2.1549 31.9517 2.00085 31.2153L3.26325 30.8997C3.38347 31.3656 3.61078 31.715 3.94516 31.948C4.2833 32.1809 4.72476 32.2974 5.26955 32.2974C5.88947 32.2974 6.38165 32.1659 6.74609 31.9029C7.11429 31.6361 7.29839 31.3168 7.29839 30.9448C7.29839 30.6443 7.19319 30.3925 6.98279 30.1897C6.77239 29.983 6.44928 29.829 6.01346 29.7275L4.57072 29.3894C3.77797 29.2015 3.19562 28.9104 2.82366 28.5159C2.45547 28.1176 2.27137 27.6198 2.27137 27.0224C2.27137 26.534 2.4085 26.1019 2.68277 25.7262C2.9608 25.3505 3.33839 25.0556 3.81554 24.8414C4.29645 24.6272 4.84123 24.5202 5.44989 24.5202C6.30651 24.5202 6.97903 24.708 7.46746 25.0837C7.95964 25.4594 8.30905 25.9554 8.51569 26.5716Z" fill="black"/>
  <path d="M126.262 12.4995L126.166 13.1962C126.102 13.7076 125.994 14.2403 125.84 14.7942C125.691 15.3525 125.536 15.8702 125.374 16.3475C125.216 16.8248 125.086 17.204 124.984 17.4853H123.629C123.684 17.2211 123.761 16.8631 123.859 16.4114C123.957 15.964 124.053 15.4633 124.147 14.9093C124.24 14.3553 124.311 13.7907 124.357 13.2154L124.421 12.4995H126.262Z" fill="black"/>
  <path d="M121.483 6.86811L119.75 7.17493C119.678 6.95333 119.563 6.7424 119.405 6.54211C119.252 6.34183 119.043 6.17777 118.779 6.04993C118.515 5.92208 118.184 5.85816 117.788 5.85816C117.247 5.85816 116.795 5.97961 116.433 6.22251C116.071 6.46115 115.89 6.7701 115.89 7.14936C115.89 7.47748 116.011 7.74169 116.254 7.94197C116.497 8.14226 116.889 8.30632 117.43 8.43416L118.99 8.79211C119.893 9.00092 120.566 9.32265 121.01 9.75731C121.453 10.192 121.674 10.7566 121.674 11.4512C121.674 12.0393 121.504 12.5634 121.163 13.0236C120.826 13.4796 120.356 13.8376 119.75 14.0975C119.15 14.3575 118.453 14.4874 117.66 14.4874C116.561 14.4874 115.664 14.2531 114.969 13.7843C114.275 13.3113 113.848 12.6401 113.691 11.7708L115.538 11.4896C115.653 11.9711 115.89 12.3354 116.248 12.5826C116.606 12.8255 117.072 12.9469 117.647 12.9469C118.274 12.9469 118.775 12.817 119.15 12.557C119.525 12.2928 119.712 11.9711 119.712 11.5918C119.712 11.285 119.597 11.0272 119.367 10.8184C119.141 10.6096 118.794 10.4519 118.325 10.3454L116.663 9.98103C115.747 9.77223 115.069 9.43984 114.63 8.98388C114.196 8.52791 113.978 7.95049 113.978 7.25163C113.978 6.67209 114.14 6.16498 114.464 5.73032C114.788 5.29567 115.235 4.95689 115.807 4.71399C116.378 4.46683 117.032 4.34325 117.769 4.34325C118.83 4.34325 119.665 4.57336 120.275 5.03359C120.884 5.48956 121.287 6.10106 121.483 6.86811Z" fill="black"/>
  <path d="M106.735 14.5066C106.112 14.5066 105.55 14.3915 105.047 14.1614C104.544 13.9271 104.146 13.5883 103.852 13.1451C103.562 12.7019 103.417 12.1586 103.417 11.5151C103.417 10.9611 103.524 10.5052 103.737 10.1472C103.95 9.78927 104.237 9.50589 104.6 9.29709C104.962 9.08828 105.367 8.93061 105.814 8.82407C106.262 8.71754 106.718 8.63657 107.182 8.58118C107.77 8.51299 108.247 8.4576 108.614 8.41498C108.98 8.36811 109.247 8.29353 109.413 8.19126C109.579 8.08899 109.662 7.9228 109.662 7.69268V7.64794C109.662 7.0897 109.504 6.65717 109.189 6.35035C108.878 6.04353 108.414 5.89013 107.796 5.89013C107.152 5.89013 106.645 6.03288 106.274 6.31839C105.908 6.59964 105.654 6.91285 105.514 7.25802L103.718 6.84893C103.931 6.25234 104.242 5.77081 104.651 5.40433C105.064 5.03359 105.539 4.76512 106.076 4.59893C106.613 4.42848 107.178 4.34325 107.77 4.34325C108.162 4.34325 108.578 4.39013 109.017 4.48388C109.46 4.57336 109.873 4.73956 110.257 4.98245C110.644 5.22535 110.962 5.57265 111.209 6.02436C111.456 6.4718 111.58 7.05348 111.58 7.76939V14.2893H109.713V12.9469H109.637C109.513 13.1941 109.328 13.437 109.08 13.6756C108.833 13.9143 108.516 14.1124 108.128 14.2701C107.74 14.4278 107.276 14.5066 106.735 14.5066ZM107.15 12.9725C107.678 12.9725 108.13 12.8681 108.505 12.6593C108.884 12.4505 109.172 12.1778 109.368 11.8411C109.568 11.5002 109.669 11.1359 109.669 10.7481V9.48246C109.6 9.55064 109.468 9.61456 109.272 9.67422C109.08 9.72961 108.861 9.77862 108.614 9.82123C108.367 9.85959 108.126 9.89581 107.892 9.9299C107.657 9.95973 107.461 9.9853 107.303 10.0066C106.933 10.0535 106.594 10.1323 106.287 10.2431C105.985 10.3539 105.742 10.5137 105.558 10.7225C105.379 10.9271 105.29 11.1998 105.29 11.5407C105.29 12.0137 105.465 12.3717 105.814 12.6146C106.164 12.8532 106.609 12.9725 107.15 12.9725Z" fill="black"/>
  <path d="M97.5444 14.4874C96.5771 14.4874 95.744 14.2808 95.0452 13.8674C94.3505 13.4498 93.8136 12.8638 93.4344 12.1096C93.0594 11.3511 92.8719 10.4626 92.8719 9.4441C92.8719 8.43842 93.0594 7.55206 93.4344 6.78501C93.8136 6.01797 94.342 5.41924 95.0196 4.98885C95.7014 4.55845 96.4983 4.34325 97.4102 4.34325C97.9642 4.34325 98.5011 4.43487 99.021 4.61811C99.5409 4.80135 100.008 5.08899 100.421 5.48103C100.834 5.87308 101.16 6.38231 101.399 7.00873C101.637 7.63089 101.757 8.38728 101.757 9.27791V9.95547H93.9521V8.52365H99.8839C99.8839 8.02081 99.7817 7.57549 99.5771 7.18771C99.3726 6.79567 99.0849 6.48672 98.7142 6.26086C98.3477 6.03501 97.9173 5.92209 97.423 5.92209C96.8861 5.92209 96.4173 6.05419 96.0167 6.31839C95.6204 6.57834 95.3136 6.91924 95.0963 7.34112C94.8832 7.75873 94.7767 8.21257 94.7767 8.70263V9.82123C94.7767 10.4775 94.8917 11.0357 95.1219 11.4959C95.3562 11.9562 95.6822 12.3077 96.0998 12.5506C96.5175 12.7893 97.0054 12.9086 97.5636 12.9086C97.9258 12.9086 98.2561 12.8575 98.5544 12.7552C98.8527 12.6486 99.1105 12.491 99.3278 12.2822C99.5451 12.0734 99.7113 11.8156 99.8264 11.5087L101.635 11.8347C101.49 12.3674 101.231 12.834 100.856 13.2346C100.485 13.6309 100.018 13.9398 99.4557 14.1614C98.8974 14.3788 98.2604 14.4874 97.5444 14.4874Z" fill="black"/>
  <path d="M86.7563 14.2893V4.47109H88.6036V6.03075H88.7058C88.8848 5.50234 89.2002 5.08686 89.6519 4.7843C90.1078 4.47748 90.6234 4.32407 91.1987 4.32407C91.318 4.32407 91.4587 4.32834 91.6206 4.33686C91.7868 4.34538 91.9168 4.35603 92.0105 4.36882V6.19694C91.9338 6.17564 91.7975 6.1522 91.6014 6.12663C91.4054 6.0968 91.2094 6.08189 91.0134 6.08189C90.5617 6.08189 90.159 6.17777 89.8053 6.36953C89.4558 6.55703 89.1788 6.8191 88.9743 7.15575C88.7698 7.48814 88.6675 7.8674 88.6675 8.29353V14.2893H86.7563Z" fill="black"/>
  <path d="M79.3655 14.5066C78.7433 14.5066 78.1808 14.3915 77.678 14.1614C77.1751 13.9271 76.7767 13.5883 76.4826 13.1451C76.1929 12.7019 76.048 12.1586 76.048 11.5151C76.048 10.9611 76.1545 10.5052 76.3676 10.1472C76.5807 9.78927 76.8683 9.50589 77.2305 9.29709C77.5927 9.08828 77.9976 8.93061 78.445 8.82407C78.8924 8.71754 79.3484 8.63657 79.8129 8.58118C80.401 8.51299 80.8782 8.4576 81.2447 8.41498C81.6112 8.36811 81.8775 8.29353 82.0437 8.19126C82.2099 8.08899 82.293 7.9228 82.293 7.69268V7.64794C82.293 7.0897 82.1353 6.65717 81.82 6.35035C81.5089 6.04353 81.0444 5.89013 80.4265 5.89013C79.7831 5.89013 79.276 6.03288 78.9052 6.31839C78.5388 6.59964 78.2852 6.91285 78.1446 7.25802L76.3484 6.84893C76.5615 6.25234 76.8726 5.77081 77.2816 5.40433C77.695 5.03359 78.1701 4.76512 78.7071 4.59893C79.244 4.42848 79.8086 4.34325 80.401 4.34325C80.793 4.34325 81.2085 4.39013 81.6474 4.48388C82.0906 4.57336 82.504 4.73956 82.8875 4.98245C83.2753 5.22535 83.5927 5.57265 83.8399 6.02436C84.087 6.4718 84.2106 7.05348 84.2106 7.76939V14.2893H82.3441V12.9469H82.2674C82.1439 13.1941 81.9585 13.437 81.7113 13.6756C81.4642 13.9143 81.1467 14.1124 80.7589 14.2701C80.3711 14.4278 79.9066 14.5066 79.3655 14.5066ZM79.7809 12.9725C80.3093 12.9725 80.7611 12.8681 81.1361 12.6593C81.5153 12.4505 81.803 12.1778 81.999 11.8411C82.1993 11.5002 82.2994 11.1359 82.2994 10.7481V9.48246C82.2312 9.55064 82.0991 9.61456 81.9031 9.67422C81.7113 9.72961 81.4919 9.77862 81.2447 9.82123C80.9976 9.85959 80.7568 9.89581 80.5224 9.9299C80.288 9.95973 80.092 9.9853 79.9343 10.0066C79.5636 10.0535 79.2248 10.1323 78.918 10.2431C78.6155 10.3539 78.3726 10.5137 78.1893 10.7225C78.0103 10.9271 77.9209 11.1998 77.9209 11.5407C77.9209 12.0137 78.0956 12.3717 78.445 12.6146C78.7944 12.8532 79.2397 12.9725 79.7809 12.9725Z" fill="black"/>
  <path d="M60.6352 17.9711V4.47109H62.5016V6.06271H62.6614C62.7722 5.85817 62.932 5.62166 63.1408 5.35319C63.3496 5.08473 63.6394 4.85035 64.0102 4.65007C64.3809 4.44552 64.871 4.34325 65.4803 4.34325C66.2729 4.34325 66.9803 4.54353 67.6025 4.9441C68.2246 5.34467 68.7126 5.92209 69.0663 6.67635C69.4242 7.43061 69.6032 8.33828 69.6032 9.39936C69.6032 10.4604 69.4264 11.3702 69.0727 12.1288C68.719 12.883 68.2332 13.4647 67.6153 13.8738C66.9974 14.2786 66.2921 14.481 65.4995 14.481C64.9029 14.481 64.415 14.3809 64.0357 14.1806C63.6607 13.9803 63.3667 13.7459 63.1536 13.4775C62.9406 13.209 62.7765 12.9704 62.6614 12.7616H62.5464V17.9711H60.6352ZM62.508 9.38018C62.508 10.0705 62.6082 10.6756 62.8085 11.1955C63.0087 11.7154 63.2985 12.1224 63.6778 12.4164C64.057 12.7062 64.5215 12.8511 65.0712 12.8511C65.6423 12.8511 66.1195 12.6998 66.5031 12.3972C66.8866 12.0904 67.1764 11.6749 67.3724 11.1508C67.5727 10.6266 67.6728 10.0364 67.6728 9.38018C67.6728 8.73245 67.5748 8.15078 67.3788 7.63515C67.187 7.11953 66.8972 6.71257 66.5094 6.41427C66.1259 6.11598 65.6465 5.96683 65.0712 5.96683C64.5173 5.96683 64.0485 6.10959 63.665 6.3951C63.2857 6.68061 62.9981 7.07905 62.8021 7.59041C62.606 8.10177 62.508 8.69836 62.508 9.38018Z" fill="black"/>
  <path d="M56.1495 10.2175V4.47109H58.0672V14.2893H56.1879V12.589H56.0856C55.8598 13.1131 55.4976 13.5499 54.999 13.8994C54.5047 14.2445 53.8889 14.4171 53.1517 14.4171C52.521 14.4171 51.9628 14.2786 51.477 14.0016C50.9954 13.7204 50.6162 13.3049 50.3392 12.7552C50.0664 12.2055 49.9301 11.5258 49.9301 10.7161V4.47109H51.8413V10.486C51.8413 11.155 52.0267 11.6877 52.3974 12.084C52.7682 12.4803 53.2497 12.6785 53.842 12.6785C54.2 12.6785 54.5558 12.589 54.9095 12.41C55.2674 12.231 55.5636 11.9604 55.798 11.5982C56.0366 11.236 56.1538 10.7758 56.1495 10.2175Z" fill="black"/>
  <path d="M37.5743 14.481C36.7817 14.481 36.0743 14.2786 35.4521 13.8738C34.8342 13.4647 34.3484 12.883 33.9947 12.1288C33.6453 11.3702 33.4706 10.4604 33.4706 9.39936C33.4706 8.33828 33.6474 7.43061 34.0011 6.67635C34.3591 5.92209 34.8491 5.34467 35.4713 4.9441C36.0934 4.54354 36.7987 4.34325 37.5871 4.34325C38.1964 4.34325 38.6865 4.44552 39.0572 4.65007C39.4322 4.85035 39.722 5.08473 39.9265 5.35319C40.1354 5.62166 40.2973 5.85817 40.4123 6.06271H40.5274V1.19836H42.4386V14.2893H40.5721V12.7616H40.4123C40.2973 12.9704 40.1311 13.209 39.9138 13.4775C39.7007 13.7459 39.4067 13.9803 39.0317 14.1806C38.6567 14.3809 38.1709 14.481 37.5743 14.481ZM37.9962 12.8511C38.5459 12.8511 39.0104 12.7062 39.3896 12.4164C39.7731 12.1224 40.0629 11.7154 40.2589 11.1955C40.4592 10.6756 40.5594 10.0705 40.5594 9.38018C40.5594 8.69836 40.4614 8.10177 40.2653 7.59041C40.0693 7.07905 39.7817 6.68061 39.4024 6.3951C39.0231 6.10959 38.5544 5.96683 37.9962 5.96683C37.4209 5.96683 36.9415 6.11598 36.5579 6.41427C36.1744 6.71257 35.8846 7.11953 35.6886 7.63515C35.4969 8.15078 35.401 8.73245 35.401 9.38018C35.401 10.0364 35.499 10.6266 35.695 11.1508C35.891 11.6749 36.1808 12.0904 36.5643 12.3972C36.9521 12.6998 37.4294 12.8511 37.9962 12.8511Z" fill="black"/>
  <path d="M31.3276 1.19836V14.2893H29.4164V1.19836H31.3276Z" fill="black"/>
  <path d="M24.934 14.2893V4.47109H26.8452V14.2893H24.934ZM25.8992 2.95618C25.5668 2.95618 25.2813 2.84538 25.0427 2.62379C24.8083 2.39794 24.6911 2.12947 24.6911 1.81839C24.6911 1.50305 24.8083 1.23459 25.0427 1.013C25.2813 0.787143 25.5668 0.674217 25.8992 0.674217C26.2316 0.674217 26.515 0.787143 26.7493 1.013C26.988 1.23459 27.1073 1.50305 27.1073 1.81839C27.1073 2.12947 26.988 2.39794 26.7493 2.62379C26.515 2.84538 26.2316 2.95618 25.8992 2.95618Z" fill="black"/>
  <path d="M20.4484 10.2175V4.47109H22.366V14.2893H20.4867V12.589H20.3845C20.1586 13.1131 19.7964 13.5499 19.2978 13.8994C18.8035 14.2445 18.1877 14.4171 17.4505 14.4171C16.8198 14.4171 16.2616 14.2786 15.7758 14.0016C15.2943 13.7204 14.915 13.3049 14.638 12.7552C14.3653 12.2055 14.2289 11.5258 14.2289 10.7161V4.47109H16.1401V10.486C16.1401 11.155 16.3255 11.6877 16.6962 12.084C17.067 12.4803 17.5485 12.6785 18.1408 12.6785C18.4988 12.6785 18.8546 12.589 19.2083 12.41C19.5663 12.231 19.8624 11.9604 20.0968 11.5982C20.3354 11.236 20.4526 10.7758 20.4484 10.2175Z" fill="black"/>
  <path d="M2.60498 14.2893V1.19836H7.39901C8.32799 1.19836 9.09717 1.35177 9.70654 1.65859C10.3159 1.96115 10.7719 2.37237 11.0744 2.89226C11.377 3.40788 11.5283 3.98956 11.5283 4.63728C11.5283 5.18274 11.4281 5.64297 11.2278 6.01797C11.0276 6.38871 10.7591 6.687 10.4225 6.91285C10.0901 7.13444 9.72359 7.29638 9.32302 7.39865V7.52649C9.75768 7.5478 10.1817 7.68842 10.595 7.94836C11.0127 8.20405 11.3578 8.56839 11.6305 9.0414C11.9033 9.51442 12.0396 10.0897 12.0396 10.7673C12.0396 11.4363 11.882 12.0371 11.5666 12.5698C11.2555 13.0982 10.774 13.518 10.122 13.829C9.47004 14.1359 8.63694 14.2893 7.62274 14.2893H2.60498ZM4.58012 12.5954H7.43097C8.377 12.5954 9.05455 12.4121 9.46364 12.0457C9.87274 11.6792 10.0773 11.2211 10.0773 10.6714C10.0773 10.258 9.97288 9.87876 9.76407 9.53359C9.55526 9.18842 9.25697 8.91356 8.86919 8.70902C8.48566 8.50447 8.0297 8.4022 7.50129 8.4022H4.58012V12.5954ZM4.58012 6.86172H7.22643C7.66961 6.86172 8.06805 6.77649 8.42174 6.60603C8.7797 6.43558 9.06308 6.19694 9.27188 5.89013C9.48495 5.57905 9.59149 5.21257 9.59149 4.79069C9.59149 4.2495 9.40186 3.79567 9.02259 3.42919C8.64333 3.06271 8.06166 2.87947 7.27757 2.87947H4.58012V6.86172Z" fill="black"/>
  <path d="M27.2812 46.5624H1.04776V167.172H27.2812V46.5624Z" fill="url(#paint0_linear_0_1)"/>
  <path fill-rule="evenodd" clip-rule="evenodd" d="M0.887802 46.4025H27.4411V167.332H0.887802V46.4025ZM1.20772 46.7224V167.012H27.1212V46.7224H1.20772Z" fill="black"/>
  <path d="M73.8626 60.6449C73.1961 60.6449 72.5959 60.5123 72.0619 60.2472C71.528 59.9821 71.1 59.6186 70.7782 59.1566C70.4563 58.6946 70.2802 58.1682 70.2499 57.5774H71.6132C71.6662 58.1038 71.9048 58.5393 72.3289 58.8839C72.7568 59.2248 73.2681 59.3952 73.8626 59.3952C74.3398 59.3952 74.7639 59.2835 75.135 59.06C75.5099 58.8366 75.8034 58.5299 76.0155 58.1398C76.2313 57.746 76.3393 57.301 76.3393 56.8049C76.3393 56.2975 76.2275 55.8449 76.0041 55.4473C75.7845 55.0459 75.4815 54.7297 75.0953 54.4987C74.709 54.2677 74.2678 54.1503 73.7717 54.1465C73.4157 54.1427 73.0503 54.1976 72.6754 54.3112C72.3005 54.421 71.9919 54.5631 71.7495 54.7373L70.4316 54.5782L71.136 48.8524H77.18V50.102H72.3175L71.9086 53.533H71.9767C72.2153 53.3437 72.5145 53.1865 72.8742 53.0615C73.234 52.9366 73.6089 52.8741 73.9989 52.8741C74.7109 52.8741 75.3452 53.0445 75.9019 53.3853C76.4623 53.7224 76.9016 54.1844 77.2197 54.7713C77.5416 55.3583 77.7026 56.0286 77.7026 56.7822C77.7026 57.5244 77.5359 58.1871 77.2027 58.7703C76.8732 59.3497 76.4188 59.8079 75.8394 60.145C75.26 60.4782 74.6011 60.6449 73.8626 60.6449Z" fill="black"/>
  <path d="M64.0242 60.6449C63.1683 60.6449 62.4393 60.412 61.8372 59.9462C61.2351 59.4766 60.775 58.7968 60.4569 57.9069C60.1388 57.0132 59.9797 55.9339 59.9797 54.6691C59.9797 53.4118 60.1388 52.3382 60.4569 51.4483C60.7788 50.5546 61.2408 49.8729 61.8429 49.4034C62.4488 48.93 63.1759 48.6933 64.0242 48.6933C64.8724 48.6933 65.5976 48.93 66.1998 49.4034C66.8057 49.8729 67.2677 50.5546 67.5858 51.4483C67.9077 52.3382 68.0686 53.4118 68.0686 54.6691C68.0686 55.9339 67.9096 57.0132 67.5915 57.9069C67.2734 58.7968 66.8133 59.4766 66.2111 59.9462C65.609 60.412 64.88 60.6449 64.0242 60.6449ZM64.0242 59.3952C64.8724 59.3952 65.5314 58.9862 66.001 58.1682C66.4705 57.3502 66.7053 56.1839 66.7053 54.6691C66.7053 53.6618 66.5974 52.804 66.3815 52.0959C66.1695 51.3877 65.8627 50.8481 65.4613 50.477C65.0637 50.1058 64.5846 49.9203 64.0242 49.9203C63.1835 49.9203 62.5264 50.3349 62.0531 51.1643C61.5797 51.9898 61.343 53.1581 61.343 54.6691C61.343 55.6764 61.4491 56.5323 61.6611 57.2366C61.8732 57.941 62.1781 58.4768 62.5757 58.8442C62.9771 59.2115 63.4599 59.3952 64.0242 59.3952Z" fill="black"/>
  <path d="M53.9514 48.6933C54.4286 48.6971 54.9057 48.788 55.3829 48.966C55.86 49.144 56.2955 49.4393 56.6894 49.8521C57.0832 50.2611 57.3994 50.8197 57.638 51.5278C57.8766 52.236 57.9959 53.124 57.9959 54.1919C57.9959 55.2258 57.8974 56.1441 57.7005 56.9469C57.5073 57.746 57.2271 58.42 56.8598 58.9691C56.4962 59.5182 56.0532 59.9348 55.5306 60.2188C55.0118 60.5029 54.4248 60.6449 53.7696 60.6449C53.1183 60.6449 52.537 60.5161 52.0258 60.2586C51.5183 59.9973 51.1018 59.6356 50.7761 59.1736C50.4542 58.7078 50.2478 58.1682 50.1569 57.5547H51.5429C51.6679 58.0887 51.9159 58.5299 52.2871 58.8783C52.662 59.2229 53.1562 59.3952 53.7696 59.3952C54.6671 59.3952 55.3753 59.0032 55.8941 58.2193C56.4167 57.4354 56.678 56.3278 56.678 54.8963H56.5871C56.375 55.2144 56.1232 55.489 55.8316 55.72C55.54 55.951 55.2162 56.1289 54.8603 56.2539C54.5043 56.3789 54.1256 56.4414 53.7242 56.4414C53.0577 56.4414 52.4461 56.2766 51.8894 55.9472C51.3365 55.6139 50.8935 55.1576 50.5602 54.5782C50.2308 53.995 50.066 53.3285 50.066 52.5787C50.066 51.8668 50.2251 51.2154 50.5432 50.6246C50.8651 50.0301 51.3157 49.5567 51.8951 49.2045C52.4783 48.8524 53.1637 48.682 53.9514 48.6933ZM53.9514 49.943C53.4743 49.943 53.0444 50.0623 52.662 50.3009C52.2833 50.5357 51.9822 50.8538 51.7588 51.2552C51.5391 51.6528 51.4293 52.094 51.4293 52.5787C51.4293 53.0634 51.5354 53.5046 51.7474 53.9022C51.9633 54.2961 52.2568 54.6104 52.6279 54.8452C53.0028 55.0762 53.4288 55.1917 53.906 55.1917C54.2657 55.1917 54.6009 55.1216 54.9114 54.9815C55.2219 54.8376 55.4927 54.6426 55.7237 54.3964C55.9585 54.1465 56.1422 53.8644 56.2747 53.55C56.4072 53.2319 56.4735 52.9006 56.4735 52.556C56.4735 52.1015 56.3637 51.6755 56.144 51.2779C55.9282 50.8803 55.629 50.5584 55.2465 50.3122C54.8679 50.0661 54.4361 49.943 53.9514 49.943Z" fill="black"/>
  <path d="M40.0799 48.6933C40.557 48.6971 41.0342 48.788 41.5114 48.966C41.9885 49.144 42.424 49.4393 42.8178 49.8521C43.2117 50.2611 43.5279 50.8197 43.7665 51.5278C44.005 52.236 44.1243 53.124 44.1243 54.1919C44.1243 55.2258 44.0259 56.1441 43.829 56.9469C43.6358 57.746 43.3556 58.42 42.9883 58.9691C42.6247 59.5182 42.1816 59.9348 41.659 60.2188C41.1402 60.5029 40.5533 60.6449 39.8981 60.6449C39.2468 60.6449 38.6655 60.5161 38.1542 60.2586C37.6468 59.9973 37.2302 59.6356 36.9046 59.1736C36.5827 58.7078 36.3763 58.1682 36.2854 57.5547H37.6714C37.7964 58.0887 38.0444 58.5299 38.4155 58.8783C38.7904 59.2229 39.2846 59.3952 39.8981 59.3952C40.7956 59.3952 41.5038 59.0032 42.0226 58.2193C42.5452 57.4354 42.8065 56.3278 42.8065 54.8963H42.7156C42.5035 55.2144 42.2517 55.489 41.9601 55.72C41.6685 55.951 41.3447 56.1289 40.9888 56.2539C40.6328 56.3789 40.2541 56.4414 39.8527 56.4414C39.1862 56.4414 38.5746 56.2766 38.0179 55.9472C37.465 55.6139 37.0219 55.1576 36.6887 54.5782C36.3592 53.995 36.1945 53.3285 36.1945 52.5787C36.1945 51.8668 36.3536 51.2154 36.6717 50.6246C36.9935 50.0301 37.4442 49.5567 38.0236 49.2045C38.6068 48.8524 39.2922 48.682 40.0799 48.6933ZM40.0799 49.943C39.6027 49.943 39.1729 50.0623 38.7904 50.3009C38.4118 50.5357 38.1107 50.8538 37.8873 51.2552C37.6676 51.6528 37.5578 52.094 37.5578 52.5787C37.5578 53.0634 37.6638 53.5046 37.8759 53.9022C38.0918 54.2961 38.3852 54.6104 38.7564 54.8452C39.1313 55.0762 39.5573 55.1917 40.0345 55.1917C40.3942 55.1917 40.7294 55.1216 41.0399 54.9815C41.3504 54.8376 41.6212 54.6426 41.8522 54.3964C42.087 54.1465 42.2706 53.8644 42.4032 53.55C42.5357 53.2319 42.602 52.9006 42.602 52.556C42.602 52.1015 42.4922 51.6755 42.2725 51.2779C42.0567 50.8803 41.7575 50.5584 41.375 50.3122C40.9963 50.0661 40.5646 49.943 40.0799 49.943Z" fill="black"/>
  <path d="M40.1708 162.363C39.3149 162.363 38.5859 162.13 37.9838 161.664C37.3817 161.195 36.9216 160.515 36.6035 159.625C36.2854 158.731 36.1263 157.652 36.1263 156.387C36.1263 155.13 36.2854 154.056 36.6035 153.167C36.9254 152.273 37.3874 151.591 37.9895 151.122C38.5954 150.648 39.3225 150.412 40.1708 150.412C41.019 150.412 41.7442 150.648 42.3464 151.122C42.9523 151.591 43.4143 152.273 43.7324 153.167C44.0543 154.056 44.2152 155.13 44.2152 156.387C44.2152 157.652 44.0562 158.731 43.7381 159.625C43.42 160.515 42.9598 161.195 42.3577 161.664C41.7556 162.13 41.0266 162.363 40.1708 162.363ZM40.1708 161.113C41.019 161.113 41.678 160.704 42.1475 159.886C42.6171 159.068 42.8519 157.902 42.8519 156.387C42.8519 155.38 42.744 154.522 42.5281 153.814C42.3161 153.106 42.0093 152.566 41.6079 152.195C41.2103 151.824 40.7312 151.639 40.1708 151.639C39.3301 151.639 38.673 152.053 38.1997 152.883C37.7263 153.708 37.4896 154.876 37.4896 156.387C37.4896 157.395 37.5957 158.25 37.8077 158.955C38.0198 159.659 38.3246 160.195 38.7223 160.562C39.1237 160.93 39.6065 161.113 40.1708 161.113Z" fill="black"/>
  <defs>
    <linearGradient id="paint0_linear_0_1" x1="-427.325" y1="167.521" x2="-427.325" y2="46.604" gradientUnits="userSpaceOnUse">
      <stop stop-color="#FEF0D9" stop-opacity="0"/>
      <stop offset="0.0039063" stop-color="#FEEFD8"/>
      <stop offset="0.0078125" stop-color="#FEEFD7"/>
      <stop offset="0.0117188" stop-color="#FEEED5"/>
      <stop offset="0.015625" stop-color="#FEEED4"/>
      <stop offset="0.0195313" stop-color="#FEEDD3"/>
      <stop offset="0.0234375" stop-color="#FEEDD2"/>
      <stop offset="0.0273438" stop-color="#FEECD0"/>
      <stop offset="0.03125" stop-color="#FEECCF"/>
      <stop offset="0.0351563" stop-color="#FEEBCE"/>
      <stop offset="0.0390625" stop-color="#FEEACD"/>
      <stop offset="0.0429688" stop-color="#FEEACB"/>
      <stop offset="0.046875" stop-color="#FEE9CA"/>
      <stop offset="0.0507813" stop-color="#FEE9C9"/>
      <stop offset="0.0546875" stop-color="#FEE8C8"/>
      <stop offset="0.0585938" stop-color="#FEE8C6"/>
      <stop offset="0.0625" stop-color="#FEE7C5"/>
      <stop offset="0.0664063" stop-color="#FEE6C4"/>
      <stop offset="0.0703125" stop-color="#FEE6C3"/>
      <stop offset="0.0742188" stop-color="#FEE5C2"/>
      <stop offset="0.078125" stop-color="#FEE5C0"/>
      <stop offset="0.0820313" stop-color="#FEE4BF"/>
      <stop offset="0.0859375" stop-color="#FEE4BE"/>
      <stop offset="0.0898438" stop-color="#FEE3BD"/>
      <stop offset="0.09375" stop-color="#FEE3BB"/>
      <stop offset="0.0976563" stop-color="#FEE2BA"/>
      <stop offset="0.101563" stop-color="#FEE1B9"/>
      <stop offset="0.105469" stop-color="#FEE1B8"/>
      <stop offset="0.109375" stop-color="#FEE0B6"/>
      <stop offset="0.113281" stop-color="#FEE0B5"/>
      <stop offset="0.117188" stop-color="#FEDFB4"/>
      <stop offset="0.121094" stop-color="#FEDFB3"/>
      <stop offset="0.125" stop-color="#FEDEB2"/>
      <stop offset="0.128906" stop-color="#FDDDB0"/>
      <stop offset="0.132813" stop-color="#FDDDAF"/>
      <stop offset="0.136719" stop-color="#FDDCAE"/>
      <stop offset="0.140625" stop-color="#FDDCAD"/>
      <stop offset="0.144531" stop-color="#FDDBAB"/>
      <stop offset="0.148438" stop-color="#FDDBAA"/>
      <stop offset="0.152344" stop-color="#FDDAA9"/>
      <stop offset="0.15625" stop-color="#FDDAA8"/>
      <stop offset="0.160156" stop-color="#FDD9A6"/>
      <stop offset="0.164063" stop-color="#FDD8A5"/>
      <stop offset="0.167969" stop-color="#FDD8A4"/>
      <stop offset="0.171875" stop-color="#FDD7A3"/>
      <stop offset="0.175781" stop-color="#FDD7A1"/>
      <stop offset="0.179688" stop-color="#FDD6A0"/>
      <stop offset="0.183594" stop-color="#FDD69F"/>
      <stop offset="0.1875" stop-color="#FDD59E"/>
      <stop offset="0.191406" stop-color="#FDD49D"/>
      <stop offset="0.195313" stop-color="#FDD49B"/>
      <stop offset="0.199219" stop-color="#FDD39A"/>
      <stop offset="0.203125" stop-color="#FDD399"/>
      <stop offset="0.207031" stop-color="#FDD298"/>
      <stop offset="0.210938" stop-color="#FDD296"/>
      <stop offset="0.214844" stop-color="#FDD195"/>
      <stop offset="0.21875" stop-color="#FDD194"/>
      <stop offset="0.222656" stop-color="#FDD093"/>
      <stop offset="0.226563" stop-color="#FDCF91"/>
      <stop offset="0.230469" stop-color="#FDCF90"/>
      <stop offset="0.234375" stop-color="#FDCE8F"/>
      <stop offset="0.238281" stop-color="#FDCE8E"/>
      <stop offset="0.242188" stop-color="#FDCD8C"/>
      <stop offset="0.246094" stop-color="#FDCD8B"/>
      <stop offset="0.25" stop-color="#FDCC8A"/>
      <stop offset="0.253906" stop-color="#FDCB89"/>
      <stop offset="0.257813" stop-color="#FDCA88"/>
      <stop offset="0.261719" stop-color="#FDC988"/>
      <stop offset="0.265625" stop-color="#FDC887"/>
      <stop offset="0.269531" stop-color="#FDC786"/>
      <stop offset="0.273438" stop-color="#FDC685"/>
      <stop offset="0.277344" stop-color="#FDC585"/>
      <stop offset="0.28125" stop-color="#FDC484"/>
      <stop offset="0.285156" stop-color="#FDC383"/>
      <stop offset="0.289063" stop-color="#FDC282"/>
      <stop offset="0.292969" stop-color="#FDC182"/>
      <stop offset="0.296875" stop-color="#FDC081"/>
      <stop offset="0.300781" stop-color="#FDBF80"/>
      <stop offset="0.304688" stop-color="#FDBE7F"/>
      <stop offset="0.308594" stop-color="#FDBD7F"/>
      <stop offset="0.3125" stop-color="#FDBC7E"/>
      <stop offset="0.316406" stop-color="#FDBB7D"/>
      <stop offset="0.320313" stop-color="#FDBA7C"/>
      <stop offset="0.324219" stop-color="#FDB97B"/>
      <stop offset="0.328125" stop-color="#FDB87B"/>
      <stop offset="0.332031" stop-color="#FDB77A"/>
      <stop offset="0.335938" stop-color="#FDB679"/>
      <stop offset="0.339844" stop-color="#FDB578"/>
      <stop offset="0.34375" stop-color="#FDB478"/>
      <stop offset="0.347656" stop-color="#FDB377"/>
      <stop offset="0.351563" stop-color="#FDB276"/>
      <stop offset="0.355469" stop-color="#FDB175"/>
      <stop offset="0.359375" stop-color="#FDB075"/>
      <stop offset="0.363281" stop-color="#FDAF74"/>
      <stop offset="0.367188" stop-color="#FDAE73"/>
      <stop offset="0.371094" stop-color="#FDAD72"/>
      <stop offset="0.375" stop-color="#FDAD72"/>
      <stop offset="0.378906" stop-color="#FCAC71"/>
      <stop offset="0.382813" stop-color="#FCAB70"/>
      <stop offset="0.386719" stop-color="#FCAA6F"/>
      <stop offset="0.390625" stop-color="#FCA96E"/>
      <stop offset="0.394531" stop-color="#FCA86E"/>
      <stop offset="0.398438" stop-color="#FCA76D"/>
      <stop offset="0.402344" stop-color="#FCA66C"/>
      <stop offset="0.40625" stop-color="#FCA56B"/>
      <stop offset="0.410156" stop-color="#FCA46B"/>
      <stop offset="0.414063" stop-color="#FCA36A"/>
      <stop offset="0.417969" stop-color="#FCA269"/>
      <stop offset="0.421875" stop-color="#FCA168"/>
      <stop offset="0.425781" stop-color="#FCA068"/>
      <stop offset="0.429688" stop-color="#FC9F67"/>
      <stop offset="0.433594" stop-color="#FC9E66"/>
      <stop offset="0.4375" stop-color="#FC9D65"/>
      <stop offset="0.441406" stop-color="#FC9C64"/>
      <stop offset="0.445313" stop-color="#FC9B64"/>
      <stop offset="0.449219" stop-color="#FC9A63"/>
      <stop offset="0.453125" stop-color="#FC9962"/>
      <stop offset="0.457031" stop-color="#FC9861"/>
      <stop offset="0.460938" stop-color="#FC9761"/>
      <stop offset="0.464844" stop-color="#FC9660"/>
      <stop offset="0.46875" stop-color="#FC955F"/>
      <stop offset="0.472656" stop-color="#FC945E"/>
      <stop offset="0.476563" stop-color="#FC935E"/>
      <stop offset="0.480469" stop-color="#FC925D"/>
      <stop offset="0.484375" stop-color="#FC915C"/>
      <stop offset="0.488281" stop-color="#FC905B"/>
      <stop offset="0.492188" stop-color="#FC8F5B"/>
      <stop offset="0.496094" stop-color="#FC8E5A"/>
      <stop offset="0.5" stop-color="#FC8D59"/>
      <stop offset="0.503906" stop-color="#FC8C58"/>
      <stop offset="0.507813" stop-color="#FB8B58"/>
      <stop offset="0.511719" stop-color="#FB8A57"/>
      <stop offset="0.515625" stop-color="#FA8957"/>
      <stop offset="0.519531" stop-color="#FA8856"/>
      <stop offset="0.523438" stop-color="#FA8755"/>
      <stop offset="0.527344" stop-color="#F98655"/>
      <stop offset="0.53125" stop-color="#F98554"/>
      <stop offset="0.535156" stop-color="#F88454"/>
      <stop offset="0.539063" stop-color="#F88353"/>
      <stop offset="0.542969" stop-color="#F88152"/>
      <stop offset="0.546875" stop-color="#F78052"/>
      <stop offset="0.550781" stop-color="#F77F51"/>
      <stop offset="0.554688" stop-color="#F77E51"/>
      <stop offset="0.558594" stop-color="#F67D50"/>
      <stop offset="0.5625" stop-color="#F67C50"/>
      <stop offset="0.566406" stop-color="#F57B4F"/>
      <stop offset="0.570313" stop-color="#F57A4E"/>
      <stop offset="0.574219" stop-color="#F5794E"/>
      <stop offset="0.578125" stop-color="#F4784D"/>
      <stop offset="0.582031" stop-color="#F4774D"/>
      <stop offset="0.585938" stop-color="#F3764C"/>
      <stop offset="0.589844" stop-color="#F3754B"/>
      <stop offset="0.59375" stop-color="#F3744B"/>
      <stop offset="0.597656" stop-color="#F2734A"/>
      <stop offset="0.601563" stop-color="#F2724A"/>
      <stop offset="0.605469" stop-color="#F17149"/>
      <stop offset="0.609375" stop-color="#F17048"/>
      <stop offset="0.613281" stop-color="#F16F48"/>
      <stop offset="0.617188" stop-color="#F06E47"/>
      <stop offset="0.621094" stop-color="#F06D47"/>
      <stop offset="0.625" stop-color="#F06C46"/>
      <stop offset="0.628906" stop-color="#EF6A45"/>
      <stop offset="0.632813" stop-color="#EF6945"/>
      <stop offset="0.636719" stop-color="#EE6844"/>
      <stop offset="0.640625" stop-color="#EE6744"/>
      <stop offset="0.644531" stop-color="#EE6643"/>
      <stop offset="0.648438" stop-color="#ED6542"/>
      <stop offset="0.652344" stop-color="#ED6442"/>
      <stop offset="0.65625" stop-color="#EC6341"/>
      <stop offset="0.660156" stop-color="#EC6241"/>
      <stop offset="0.664063" stop-color="#EC6140"/>
      <stop offset="0.667969" stop-color="#EB603F"/>
      <stop offset="0.671875" stop-color="#EB5F3F"/>
      <stop offset="0.675781" stop-color="#EA5E3E"/>
      <stop offset="0.679688" stop-color="#EA5D3E"/>
      <stop offset="0.683594" stop-color="#EA5C3D"/>
      <stop offset="0.6875" stop-color="#E95B3D"/>
      <stop offset="0.691406" stop-color="#E95A3C"/>
      <stop offset="0.695313" stop-color="#E8593B"/>
      <stop offset="0.699219" stop-color="#E8583B"/>
      <stop offset="0.703125" stop-color="#E8573A"/>
      <stop offset="0.707031" stop-color="#E7563A"/>
      <stop offset="0.710938" stop-color="#E75439"/>
      <stop offset="0.714844" stop-color="#E75338"/>
      <stop offset="0.71875" stop-color="#E65238"/>
      <stop offset="0.722656" stop-color="#E65137"/>
      <stop offset="0.726563" stop-color="#E55037"/>
      <stop offset="0.730469" stop-color="#E54F36"/>
      <stop offset="0.734375" stop-color="#E54E35"/>
      <stop offset="0.738281" stop-color="#E44D35"/>
      <stop offset="0.742188" stop-color="#E44C34"/>
      <stop offset="0.746094" stop-color="#E34B34"/>
      <stop offset="0.75" stop-color="#E34A33"/>
      <stop offset="0.753906" stop-color="#E24932"/>
      <stop offset="0.757813" stop-color="#E14831"/>
      <stop offset="0.761719" stop-color="#E14731"/>
      <stop offset="0.765625" stop-color="#E04530"/>
      <stop offset="0.769531" stop-color="#DF442F"/>
      <stop offset="0.773438" stop-color="#DE432E"/>
      <stop offset="0.777344" stop-color="#DE422D"/>
      <stop offset="0.78125" stop-color="#DD412D"/>
      <stop offset="0.785156" stop-color="#DC402C"/>
      <stop offset="0.789063" stop-color="#DB3E2B"/>
      <stop offset="0.792969" stop-color="#DB3D2A"/>
      <stop offset="0.796875" stop-color="#DA3C29"/>
      <stop offset="0.800781" stop-color="#D93B29"/>
      <stop offset="0.804688" stop-color="#D83A28"/>
      <stop offset="0.808594" stop-color="#D83927"/>
      <stop offset="0.8125" stop-color="#D73826"/>
      <stop offset="0.816406" stop-color="#D63625"/>
      <stop offset="0.820313" stop-color="#D53525"/>
      <stop offset="0.824219" stop-color="#D53424"/>
      <stop offset="0.828125" stop-color="#D43323"/>
      <stop offset="0.832031" stop-color="#D33222"/>
      <stop offset="0.835938" stop-color="#D23121"/>
      <stop offset="0.839844" stop-color="#D22F21"/>
      <stop offset="0.84375" stop-color="#D12E20"/>
      <stop offset="0.847656" stop-color="#D02D1F"/>
      <stop offset="0.851563" stop-color="#CF2C1E"/>
      <stop offset="0.855469" stop-color="#CF2B1D"/>
      <stop offset="0.859375" stop-color="#CE2A1D"/>
      <stop offset="0.863281" stop-color="#CD281C"/>
      <stop offset="0.867188" stop-color="#CC271B"/>
      <stop offset="0.871094" stop-color="#CC261A"/>
      <stop offset="0.875" stop-color="#CB251A"/>
      <stop offset="0.878906" stop-color="#CA2419"/>
      <stop offset="0.882813" stop-color="#C92318"/>
      <stop offset="0.886719" stop-color="#C92217"/>
      <stop offset="0.890625" stop-color="#C82016"/>
      <stop offset="0.894531" stop-color="#C71F16"/>
      <stop offset="0.898438" stop-color="#C61E15"/>
      <stop offset="0.902344" stop-color="#C61D14"/>
      <stop offset="0.90625" stop-color="#C51C13"/>
      <stop offset="0.910156" stop-color="#C41B12"/>
      <stop offset="0.914063" stop-color="#C31912"/>
      <stop offset="0.917969" stop-color="#C31811"/>
      <stop offset="0.921875" stop-color="#C21710"/>
      <stop offset="0.925781" stop-color="#C1160F"/>
      <stop offset="0.929688" stop-color="#C0150E"/>
      <stop offset="0.933594" stop-color="#C0140E"/>
      <stop offset="0.9375" stop-color="#BF130D"/>
      <stop offset="0.941406" stop-color="#BE110C"/>
      <stop offset="0.945313" stop-color="#BD100B"/>
      <stop offset="0.949219" stop-color="#BD0F0A"/>
      <stop offset="0.953125" stop-color="#BC0E0A"/>
      <stop offset="0.957031" stop-color="#BB0D09"/>
      <stop offset="0.960938" stop-color="#BA0C08"/>
      <stop offset="0.964844" stop-color="#BA0A07"/>
      <stop offset="0.96875" stop-color="#B90906"/>
      <stop offset="0.972656" stop-color="#B80806"/>
      <stop offset="0.976563" stop-color="#B70705"/>
      <stop offset="0.980469" stop-color="#B70604"/>
      <stop offset="0.984375" stop-color="#B60503"/>
      <stop offset="0.988281" stop-color="#B50302"/>
      <stop offset="1" stop-color="#B30000"/>
    </linearGradient>
  </defs>
</svg>