<svg width="157" height="167" viewBox="0 0 157 167" fill="none" xmlns="http://www.w3.org/2000/svg">
  <path d="M44.468 33.3739V32.3594L48.2777 28.189C48.7248 27.7006 49.093 27.2761 49.3823 26.9154C49.6716 26.5509 49.8857 26.209 50.0248 25.8897C50.1675 25.5666 50.2389 25.2284 50.2389 24.8753C50.2389 24.4695 50.1412 24.1182 49.9459 23.8214C49.7542 23.5246 49.4913 23.2954 49.1569 23.1338C48.8225 22.9723 48.4468 22.8915 48.0297 22.8915C47.5864 22.8915 47.1994 22.9835 46.8688 23.1676C46.5419 23.348 46.2883 23.6016 46.108 23.9285C45.9314 24.2553 45.8431 24.6386 45.8431 25.0781H44.5131C44.5131 24.4019 44.669 23.8082 44.9808 23.2973C45.2927 22.7863 45.7172 22.388 46.2545 22.1025C46.7955 21.817 47.4023 21.6742 48.0748 21.6742C48.7511 21.6742 49.3504 21.817 49.8726 22.1025C50.3948 22.388 50.8044 22.7731 51.1012 23.2578C51.398 23.7425 51.5464 24.2816 51.5464 24.8753C51.5464 25.2998 51.4694 25.715 51.3153 26.1207C51.165 26.5228 50.902 26.9717 50.5263 27.4677C50.1544 27.9599 49.6378 28.561 48.9765 29.2711L46.3841 32.0438V32.134H51.7493V33.3739H44.468Z" fill="black"/>
  <path d="M30.6972 33.3738V24.7174H31.9821V26.07H32.0949C32.2752 25.6079 32.5664 25.2491 32.9684 24.9936C33.3704 24.7344 33.8532 24.6047 34.4167 24.6047C34.9878 24.6047 35.4631 24.7344 35.8426 24.9936C36.2258 25.2491 36.5245 25.6079 36.7386 26.07H36.8288C37.0505 25.6229 37.383 25.2679 37.8263 25.0049C38.2697 24.7381 38.8013 24.6047 39.4212 24.6047C40.1952 24.6047 40.8283 24.8471 41.3204 25.3317C41.8126 25.8126 42.0587 26.5622 42.0587 27.5804V33.3738H40.7287V27.5804C40.7287 26.9417 40.554 26.4852 40.2046 26.2109C39.8552 25.9366 39.4438 25.7995 38.9704 25.7995C38.3617 25.7995 37.8902 25.9836 37.5558 26.3518C37.2214 26.7162 37.0542 27.1784 37.0542 27.7382V33.3738H35.7017V27.4451C35.7017 26.9529 35.542 26.5566 35.2227 26.256C34.9033 25.9517 34.4919 25.7995 33.9884 25.7995C33.6428 25.7995 33.3197 25.8915 33.0191 26.0756C32.7223 26.2597 32.4818 26.5152 32.2977 26.8421C32.1174 27.1652 32.0272 27.539 32.0272 27.9636V33.3738H30.6972Z" fill="black"/>
  <path d="M29.1206 21.291L25.4011 35.1096H24.1838L27.9033 21.291H29.1206Z" fill="black"/>
  <path d="M18.8637 36.8003C18.2212 36.8003 17.6689 36.7177 17.2068 36.5524C16.7447 36.3908 16.3596 36.1767 16.0515 35.9099C15.7472 35.6469 15.5048 35.3651 15.3245 35.0646L16.384 34.3206C16.5042 34.4784 16.6564 34.6588 16.8405 34.8617C17.0246 35.0683 17.2763 35.2468 17.5957 35.3971C17.9188 35.5511 18.3415 35.6281 18.8637 35.6281C19.5625 35.6281 20.1392 35.459 20.5938 35.1209C21.0485 34.7828 21.2758 34.253 21.2758 33.5316V31.7733H21.163C21.0654 31.9311 20.9264 32.1265 20.746 32.3594C20.5694 32.5886 20.3139 32.7934 19.9796 32.9737C19.6489 33.1503 19.2018 33.2386 18.6383 33.2386C17.9394 33.2386 17.312 33.0733 16.756 32.7427C16.2037 32.412 15.766 31.9311 15.4428 31.2999C15.1235 30.6687 14.9638 29.9023 14.9638 29.0006C14.9638 28.1139 15.1197 27.3418 15.4316 26.6843C15.7434 26.023 16.1774 25.5121 16.7334 25.1514C17.2895 24.787 17.9319 24.6047 18.6608 24.6047C19.2244 24.6047 19.6715 24.6987 20.0021 24.8865C20.3365 25.0706 20.592 25.281 20.7686 25.5177C20.9489 25.7507 21.0879 25.9423 21.1856 26.0926H21.3208V24.7174H22.6058V33.6218C22.6058 34.3657 22.4367 34.9706 22.0986 35.4365C21.7642 35.9061 21.3133 36.2499 20.746 36.4678C20.1824 36.6895 19.555 36.8003 18.8637 36.8003ZM18.8186 32.0438C19.3521 32.0438 19.803 31.9217 20.1712 31.6775C20.5394 31.4333 20.8193 31.082 21.0109 30.6236C21.2025 30.1653 21.2983 29.6167 21.2983 28.978C21.2983 28.3543 21.2044 27.8039 21.0165 27.3268C20.8287 26.8496 20.5506 26.4758 20.1824 26.2053C19.8142 25.9348 19.3596 25.7995 18.8186 25.7995C18.255 25.7995 17.7854 25.9423 17.4097 26.2278C17.0377 26.5134 16.7578 26.8966 16.57 27.3775C16.3859 27.8584 16.2938 28.3919 16.2938 28.978C16.2938 29.5792 16.3878 30.1108 16.5756 30.5729C16.7672 31.0313 17.049 31.392 17.421 31.655C17.7967 31.9142 18.2626 32.0438 18.8186 32.0438Z" fill="black"/>
  <path d="M1.57626 33.3738V24.7174H2.8612V26.07H2.97391C3.15425 25.6079 3.44543 25.2491 3.84744 24.9936C4.24945 24.7344 4.73224 24.6047 5.29581 24.6047C5.86689 24.6047 6.34217 24.7344 6.72163 24.9936C7.10486 25.2491 7.40355 25.6079 7.61771 26.07H7.70788C7.92955 25.6229 8.26205 25.2679 8.70539 25.0049C9.14873 24.7381 9.68036 24.6047 10.3003 24.6047C11.0743 24.6047 11.7073 24.8471 12.1995 25.3317C12.6917 25.8126 12.9378 26.5622 12.9378 27.5804V33.3738H11.6078V27.5804C11.6078 26.9417 11.4331 26.4852 11.0836 26.2109C10.7342 25.9366 10.3228 25.7995 9.84943 25.7995C9.24078 25.7995 8.76926 25.9836 8.43488 26.3518C8.1005 26.7162 7.9333 27.1784 7.9333 27.7382V33.3738H6.58074V27.4451C6.58074 26.9529 6.42107 26.5566 6.10171 26.256C5.78236 25.9517 5.37095 25.7995 4.8675 25.7995C4.52184 25.7995 4.19873 25.8915 3.89816 26.0756C3.60135 26.2597 3.36089 26.5152 3.1768 26.8421C2.99645 27.1652 2.90628 27.539 2.90628 27.9636V33.3738H1.57626Z" fill="black"/>
  <path d="M156.357 12.584L156.261 13.2808C156.197 13.7921 156.088 14.3248 155.935 14.8788C155.786 15.437 155.63 15.9548 155.468 16.4321C155.311 16.9093 155.181 17.2886 155.078 17.5698H153.723C153.779 17.3056 153.855 16.9477 153.953 16.496C154.051 16.0485 154.147 15.5478 154.241 14.9938C154.335 14.4399 154.405 13.8752 154.452 13.3L154.516 12.584H156.357Z" fill="black"/>
  <path d="M147.537 14.572C146.57 14.572 145.737 14.3653 145.038 13.9519C144.343 13.5343 143.807 12.9484 143.427 12.1941C143.052 11.4356 142.865 10.5471 142.865 9.52865C142.865 8.52297 143.052 7.6366 143.427 6.86956C143.807 6.10251 144.335 5.50379 145.013 5.07339C145.694 4.64299 146.491 4.4278 147.403 4.4278C147.957 4.4278 148.494 4.51942 149.014 4.70265C149.534 4.88589 150 5.17353 150.414 5.56558C150.827 5.95762 151.153 6.46686 151.392 7.09328C151.63 7.71544 151.75 8.47183 151.75 9.36245V10.04H143.945V8.60819H149.877C149.877 8.10535 149.775 7.66004 149.57 7.27226C149.366 6.88021 149.078 6.57126 148.707 6.34541C148.341 6.11956 147.91 6.00663 147.416 6.00663C146.879 6.00663 146.41 6.13873 146.01 6.40294C145.613 6.66288 145.307 7.00379 145.089 7.42566C144.876 7.84328 144.77 8.29711 144.77 8.78717V9.90578C144.77 10.562 144.885 11.1203 145.115 11.5805C145.349 12.0407 145.675 12.3923 146.093 12.6352C146.51 12.8738 146.998 12.9931 147.557 12.9931C147.919 12.9931 148.249 12.942 148.547 12.8397C148.846 12.7332 149.103 12.5755 149.321 12.3667C149.538 12.1579 149.704 11.9001 149.819 11.5933L151.628 11.9193C151.483 12.4519 151.223 12.9186 150.848 13.3191C150.478 13.7154 150.011 14.0244 149.449 14.246C148.89 14.4633 148.253 14.572 147.537 14.572Z" fill="black"/>
  <path d="M135.714 14.5656C134.921 14.5656 134.214 14.3632 133.592 13.9584C132.974 13.5493 132.488 12.9676 132.134 12.2134C131.785 11.4548 131.61 10.545 131.61 9.48395C131.61 8.42287 131.787 7.5152 132.141 6.76094C132.499 6.00668 132.989 5.42927 133.611 5.0287C134.233 4.62813 134.938 4.42785 135.727 4.42785C136.336 4.42785 136.826 4.53012 137.197 4.73466C137.572 4.93495 137.861 5.16932 138.066 5.43779C138.275 5.70625 138.437 5.94276 138.552 6.14731H138.667V1.28296H140.578V14.3739H138.712V12.8462H138.552C138.437 13.055 138.271 13.2936 138.053 13.5621C137.84 13.8305 137.546 14.0649 137.171 14.2652C136.796 14.4655 136.31 14.5656 135.714 14.5656ZM136.136 12.9357C136.685 12.9357 137.15 12.7908 137.529 12.501C137.913 12.207 138.202 11.8 138.398 11.2801C138.599 10.7602 138.699 10.1551 138.699 9.46478C138.699 8.78296 138.601 8.18637 138.405 7.675C138.209 7.16364 137.921 6.7652 137.542 6.47969C137.163 6.19418 136.694 6.05143 136.136 6.05143C135.56 6.05143 135.081 6.20057 134.697 6.49887C134.314 6.79716 134.024 7.20412 133.828 7.71975C133.636 8.23537 133.54 8.81705 133.54 9.46478C133.54 10.121 133.638 10.7112 133.834 11.2354C134.03 11.7595 134.32 12.175 134.704 12.4818C135.092 12.7844 135.569 12.9357 136.136 12.9357Z" fill="black"/>
  <path d="M127.556 14.3738V4.55566H129.467V14.3738H127.556ZM128.521 3.04075C128.189 3.04075 127.903 2.92995 127.665 2.70836C127.43 2.48251 127.313 2.21404 127.313 1.90296C127.313 1.58762 127.43 1.31916 127.665 1.09757C127.903 0.871715 128.189 0.758789 128.521 0.758789C128.853 0.758789 129.137 0.871715 129.371 1.09757C129.61 1.31916 129.729 1.58762 129.729 1.90296C129.729 2.21404 129.61 2.48251 129.371 2.70836C129.137 2.92995 128.853 3.04075 128.521 3.04075Z" fill="black"/>
  <path d="M119.15 4.55566L121.317 8.37811L123.503 4.55566H125.594L122.532 9.46476L125.619 14.3738H123.529L121.317 10.7048L119.112 14.3738H117.015L120.071 9.46476L117.054 4.55566H119.15Z" fill="black"/>
  <path d="M111.318 14.572C110.398 14.572 109.595 14.361 108.909 13.9392C108.223 13.5173 107.69 12.9271 107.311 12.1686C106.931 11.41 106.742 10.5237 106.742 9.50947C106.742 8.49101 106.931 7.60038 107.311 6.8376C107.69 6.07481 108.223 5.48248 108.909 5.06061C109.595 4.63873 110.398 4.4278 111.318 4.4278C112.239 4.4278 113.042 4.63873 113.728 5.06061C114.414 5.48248 114.947 6.07481 115.326 6.8376C115.706 7.60038 115.895 8.49101 115.895 9.50947C115.895 10.5237 115.706 11.41 115.326 12.1686C114.947 12.9271 114.414 13.5173 113.728 13.9392C113.042 14.361 112.239 14.572 111.318 14.572ZM111.325 12.9676C111.921 12.9676 112.416 12.8099 112.808 12.4946C113.2 12.1792 113.49 11.7595 113.677 11.2353C113.869 10.7112 113.965 10.1338 113.965 9.50308C113.965 8.87666 113.869 8.30138 113.677 7.77723C113.49 7.24882 113.2 6.82481 112.808 6.50521C112.416 6.18561 111.921 6.02581 111.325 6.02581C110.724 6.02581 110.225 6.18561 109.829 6.50521C109.437 6.82481 109.145 7.24882 108.953 7.77723C108.766 8.30138 108.672 8.87666 108.672 9.50308C108.672 10.1338 108.766 10.7112 108.953 11.2353C109.145 11.7595 109.437 12.1792 109.829 12.4946C110.225 12.8099 110.724 12.9676 111.325 12.9676Z" fill="black"/>
  <path d="M98.3362 8.54427V14.3738H96.425V4.55564H98.2595V6.15365H98.381C98.6068 5.63376 98.9605 5.21615 99.4421 4.90081C99.9279 4.58547 100.539 4.4278 101.277 4.4278C101.946 4.4278 102.532 4.56842 103.034 4.84967C103.537 5.12666 103.927 5.54001 104.204 6.08973C104.481 6.63944 104.62 7.31913 104.62 8.12879V14.3738H102.708V8.3589C102.708 7.64726 102.523 7.09115 102.152 6.69058C101.782 6.28575 101.272 6.08333 100.625 6.08333C100.181 6.08333 99.7872 6.17922 99.4421 6.37098C99.1012 6.56274 98.8306 6.84399 98.6303 7.21473C98.4343 7.5812 98.3362 8.02439 98.3362 8.54427Z" fill="black"/>
  <path d="M89.715 14.572C88.7945 14.572 87.9913 14.361 87.3052 13.9392C86.6191 13.5173 86.0864 12.9271 85.7072 12.1686C85.3279 11.41 85.1383 10.5237 85.1383 9.50947C85.1383 8.49101 85.3279 7.60038 85.7072 6.8376C86.0864 6.07481 86.6191 5.48248 87.3052 5.06061C87.9913 4.63873 88.7945 4.4278 89.715 4.4278C90.6354 4.4278 91.4387 4.63873 92.1248 5.06061C92.8109 5.48248 93.3435 6.07481 93.7228 6.8376C94.1021 7.60038 94.2917 8.49101 94.2917 9.50947C94.2917 10.5237 94.1021 11.41 93.7228 12.1686C93.3435 12.9271 92.8109 13.5173 92.1248 13.9392C91.4387 14.361 90.6354 14.572 89.715 14.572ZM89.7214 12.9676C90.318 12.9676 90.8123 12.8099 91.2043 12.4946C91.5964 12.1792 91.8861 11.7595 92.0736 11.2353C92.2654 10.7112 92.3613 10.1338 92.3613 9.50308C92.3613 8.87666 92.2654 8.30138 92.0736 7.77723C91.8861 7.24882 91.5964 6.82481 91.2043 6.50521C90.8123 6.18561 90.318 6.02581 89.7214 6.02581C89.1205 6.02581 88.6219 6.18561 88.2256 6.50521C87.8336 6.82481 87.5417 7.24882 87.3499 7.77723C87.1624 8.30138 87.0687 8.87666 87.0687 9.50308C87.0687 10.1338 87.1624 10.7112 87.3499 11.2353C87.5417 11.7595 87.8336 12.1792 88.2256 12.4946C88.6219 12.8099 89.1205 12.9676 89.7214 12.9676Z" fill="black"/>
  <path d="M69.6711 14.3738V4.55564H71.5056V6.15365H71.6271C71.8316 5.61245 72.1661 5.19058 72.6306 4.88802C73.0951 4.58121 73.6512 4.4278 74.299 4.4278C74.9552 4.4278 75.5049 4.58121 75.9481 4.88802C76.3955 5.19484 76.7258 5.61672 76.9389 6.15365H77.0411C77.2755 5.6295 77.6484 5.21189 78.1598 4.90081C78.6711 4.58547 79.2805 4.4278 79.9879 4.4278C80.8785 4.4278 81.6051 4.70692 82.1676 5.26515C82.7343 5.82339 83.0177 6.66501 83.0177 7.79001V14.3738H81.1065V7.96899C81.1065 7.30422 80.9254 6.82268 80.5632 6.52439C80.2009 6.22609 79.7684 6.07694 79.2656 6.07694C78.6434 6.07694 78.1598 6.2687 77.8146 6.65223C77.4694 7.03149 77.2968 7.51942 77.2968 8.11601V14.3738H75.392V7.84754C75.392 7.31487 75.2258 6.8866 74.8934 6.56274C74.561 6.23887 74.1285 6.07694 73.5958 6.07694C73.2336 6.07694 72.8991 6.17282 72.5923 6.36458C72.2897 6.55208 72.0447 6.81416 71.8572 7.15081C71.674 7.48746 71.5823 7.87737 71.5823 8.32055V14.3738H69.6711Z" fill="black"/>
  <path d="M56.0608 8.54427V14.3738H54.1496V4.55564H55.9841V6.15365H56.1056C56.3314 5.63376 56.6851 5.21615 57.1667 4.90081C57.6525 4.58547 58.264 4.4278 59.0012 4.4278C59.6702 4.4278 60.2562 4.56842 60.759 4.84967C61.2618 5.12666 61.6518 5.54001 61.9287 6.08973C62.2057 6.63944 62.3442 7.31913 62.3442 8.12879V14.3738H60.433V8.3589C60.433 7.64726 60.2476 7.09115 59.8769 6.69058C59.5062 6.28575 58.9969 6.08333 58.3492 6.08333C57.906 6.08333 57.5118 6.17922 57.1667 6.37098C56.8258 6.56274 56.5552 6.84399 56.3549 7.21473C56.1589 7.5812 56.0608 8.02439 56.0608 8.54427Z" fill="black"/>
  <path d="M47.4396 14.572C46.5191 14.572 45.7159 14.361 45.0298 13.9392C44.3437 13.5173 43.811 12.9271 43.4318 12.1686C43.0525 11.41 42.8629 10.5237 42.8629 9.50947C42.8629 8.49101 43.0525 7.60038 43.4318 6.8376C43.811 6.07481 44.3437 5.48248 45.0298 5.06061C45.7159 4.63873 46.5191 4.4278 47.4396 4.4278C48.36 4.4278 49.1633 4.63873 49.8494 5.06061C50.5355 5.48248 51.0681 6.07481 51.4474 6.8376C51.8267 7.60038 52.0163 8.49101 52.0163 9.50947C52.0163 10.5237 51.8267 11.41 51.4474 12.1686C51.0681 12.9271 50.5355 13.5173 49.8494 13.9392C49.1633 14.361 48.36 14.572 47.4396 14.572ZM47.446 12.9676C48.0426 12.9676 48.5369 12.8099 48.9289 12.4946C49.321 12.1792 49.6108 11.7595 49.7983 11.2353C49.99 10.7112 50.0859 10.1338 50.0859 9.50308C50.0859 8.87666 49.99 8.30138 49.7983 7.77723C49.6108 7.24882 49.321 6.82481 48.9289 6.50521C48.5369 6.18561 48.0426 6.02581 47.446 6.02581C46.8451 6.02581 46.3465 6.18561 45.9502 6.50521C45.5582 6.82481 45.2663 7.24882 45.0745 7.77723C44.887 8.30138 44.7933 8.87666 44.7933 9.50308C44.7933 10.1338 44.887 10.7112 45.0745 11.2353C45.2663 11.7595 45.5582 12.1792 45.9502 12.4946C46.3465 12.8099 46.8451 12.9676 47.446 12.9676Z" fill="black"/>
  <path d="M32.1898 14.3739V1.28296H34.101V6.14731H34.216C34.3268 5.94276 34.4866 5.70625 34.6954 5.43779C34.9042 5.16932 35.194 4.93495 35.5648 4.73466C35.9355 4.53012 36.4256 4.42785 37.0349 4.42785C37.8275 4.42785 38.5349 4.62813 39.1571 5.0287C39.7792 5.42927 40.2672 6.00668 40.6209 6.76094C40.9788 7.5152 41.1578 8.42287 41.1578 9.48395C41.1578 10.545 40.981 11.4548 40.6273 12.2134C40.2736 12.9676 39.7878 13.5493 39.1699 13.9584C38.552 14.3632 37.8467 14.5656 37.0541 14.5656C36.4575 14.5656 35.9696 14.4655 35.5903 14.2652C35.2153 14.0649 34.9213 13.8305 34.7082 13.5621C34.4952 13.2936 34.3311 13.055 34.216 12.8462H34.0562V14.3739H32.1898ZM34.0626 9.46478C34.0626 10.1551 34.1628 10.7602 34.3631 11.2801C34.5633 11.8 34.8531 12.207 35.2324 12.501C35.6116 12.7908 36.0761 12.9357 36.6258 12.9357C37.1969 12.9357 37.6741 12.7844 38.0577 12.4818C38.4412 12.175 38.731 11.7595 38.927 11.2354C39.1273 10.7112 39.2274 10.121 39.2274 9.46478C39.2274 8.81705 39.1294 8.23537 38.9334 7.71975C38.7416 7.20412 38.4518 6.79716 38.064 6.49887C37.6805 6.20057 37.2011 6.05143 36.6258 6.05143C36.0719 6.05143 35.6031 6.19418 35.2196 6.47969C34.8403 6.7652 34.5527 7.16364 34.3567 7.675C34.1606 8.18637 34.0626 8.78296 34.0626 9.46478Z" fill="black"/>
  <path d="M25.1281 14.3738V4.55565H26.9754V6.11531H27.0777C27.2567 5.5869 27.572 5.17141 28.0237 4.86886C28.4797 4.56204 28.9953 4.40863 29.5706 4.40863C29.6899 4.40863 29.8306 4.41289 29.9925 4.42142C30.1587 4.42994 30.2887 4.44059 30.3824 4.45337V6.2815C30.3057 6.26019 30.1693 6.23676 29.9733 6.21119C29.7773 6.18136 29.5813 6.16644 29.3852 6.16644C28.9335 6.16644 28.5308 6.26232 28.1771 6.45409C27.8277 6.64159 27.5507 6.90366 27.3462 7.24031C27.1416 7.57269 27.0394 7.95195 27.0394 8.37809V14.3738H25.1281Z" fill="black"/>
  <path d="M17.7373 14.5911C17.1152 14.5911 16.5527 14.4761 16.0498 14.246C15.547 14.0116 15.1486 13.6728 14.8545 13.2296C14.5647 12.7865 14.4199 12.2431 14.4199 11.5997C14.4199 11.0457 14.5264 10.5897 14.7395 10.2318C14.9525 9.87382 15.2402 9.59044 15.6024 9.38163C15.9646 9.17282 16.3694 9.01515 16.8169 8.90862C17.2643 8.80209 17.7203 8.72112 18.1848 8.66572C18.7728 8.59754 19.2501 8.54214 19.6166 8.49953C19.9831 8.45265 20.2494 8.37808 20.4156 8.27581C20.5818 8.17353 20.6649 8.00734 20.6649 7.77723V7.73248C20.6649 7.17424 20.5072 6.74172 20.1919 6.4349C19.8808 6.12808 19.4163 5.97467 18.7984 5.97467C18.1549 5.97467 17.6478 6.11743 17.2771 6.40294C16.9106 6.68419 16.6571 6.9974 16.5165 7.34257L14.7203 6.93348C14.9334 6.33689 15.2444 5.85535 15.6535 5.48888C16.0669 5.11814 16.542 4.84967 17.079 4.68348C17.6159 4.51302 18.1805 4.4278 18.7728 4.4278C19.1649 4.4278 19.5804 4.47467 20.0193 4.56842C20.4625 4.65791 20.8758 4.8241 21.2593 5.067C21.6471 5.3099 21.9646 5.6572 22.2118 6.1089C22.4589 6.55635 22.5825 7.13802 22.5825 7.85393V14.3738H20.716V13.0315H20.6393C20.5157 13.2786 20.3304 13.5215 20.0832 13.7602C19.8361 13.9988 19.5186 14.197 19.1308 14.3546C18.743 14.5123 18.2785 14.5911 17.7373 14.5911ZM18.1528 13.0571C18.6812 13.0571 19.1329 12.9527 19.5079 12.7438C19.8872 12.535 20.1748 12.2623 20.3709 11.9257C20.5711 11.5848 20.6713 11.2204 20.6713 10.8326V9.567C20.6031 9.63518 20.471 9.6991 20.275 9.75876C20.0832 9.81416 19.8638 9.86317 19.6166 9.90578C19.3694 9.94413 19.1287 9.98035 18.8943 10.0144C18.6599 10.0443 18.4639 10.0698 18.3062 10.0911C17.9355 10.138 17.5967 10.2169 17.2899 10.3277C16.9873 10.4384 16.7444 10.5982 16.5612 10.8071C16.3822 11.0116 16.2927 11.2843 16.2927 11.6252C16.2927 12.0982 16.4674 12.4562 16.8169 12.6991C17.1663 12.9377 17.6116 13.0571 18.1528 13.0571Z" fill="black"/>
  <path d="M12.67 5.54002H10.6757C10.599 5.11389 10.4563 4.73889 10.2475 4.41502C10.0387 4.09116 9.78298 3.8163 9.48042 3.59045C9.17786 3.3646 8.83908 3.19414 8.46408 3.07909C8.09335 2.96403 7.69917 2.9065 7.28156 2.9065C6.52729 2.9065 5.85187 3.09613 5.25528 3.47539C4.66295 3.85465 4.1942 4.41076 3.84903 5.14372C3.50812 5.87667 3.33766 6.77156 3.33766 7.82837C3.33766 8.89372 3.50812 9.79286 3.84903 10.5258C4.1942 11.2588 4.66508 11.8127 5.26167 12.1877C5.85826 12.5627 6.52943 12.7503 7.27516 12.7503C7.68852 12.7503 8.08056 12.6949 8.4513 12.5841C8.8263 12.469 9.16508 12.3007 9.46763 12.0791C9.77019 11.8575 10.0259 11.5869 10.2347 11.2673C10.4477 10.9434 10.5948 10.5727 10.6757 10.1551L12.67 10.1615C12.5635 10.8049 12.3568 11.3973 12.05 11.9385C11.7475 12.4754 11.3575 12.9399 10.8803 13.3319C10.4073 13.7197 9.86607 14.0201 9.2567 14.2332C8.64732 14.4463 7.98255 14.5528 7.26238 14.5528C6.12886 14.5528 5.11891 14.2843 4.23255 13.7474C3.34619 13.2062 2.64732 12.4328 2.13596 11.4271C1.62886 10.4214 1.37531 9.22184 1.37531 7.82837C1.37531 6.43065 1.63099 5.23107 2.14235 4.22965C2.65371 3.22397 3.35258 2.45266 4.23894 1.91573C5.12531 1.37454 6.13312 1.10394 7.26238 1.10394C7.95698 1.10394 8.60471 1.20409 9.20556 1.40437C9.81067 1.60039 10.354 1.89016 10.8355 2.27369C11.3171 2.65295 11.7155 3.11744 12.0308 3.66715C12.3462 4.21261 12.5593 4.8369 12.67 5.54002Z" fill="black"/>
  <g opacity="0.8">
    <path d="M26.3934 45.647H0.159973V166.257H26.3934V45.647Z" fill="url(#paint0_linear_0_1)"/>
    <path fill-rule="evenodd" clip-rule="evenodd" d="M0 45.487H26.5533V166.417H0V45.487ZM0.31992 45.8069V166.097H26.2334V45.8069H0.31992Z" fill="black"/>
  </g>
  <path d="M57.2572 162.159C56.5907 162.159 55.9905 162.027 55.4565 161.761C54.9226 161.496 54.4946 161.133 54.1727 160.671C53.8509 160.209 53.6748 159.682 53.6445 159.092H55.0078C55.0608 159.618 55.2994 160.054 55.7235 160.398C56.1514 160.739 56.6627 160.909 57.2572 160.909C57.7344 160.909 58.1585 160.798 58.5296 160.574C58.9045 160.351 59.198 160.044 59.4101 159.654C59.6259 159.26 59.7339 158.815 59.7339 158.319C59.7339 157.812 59.6221 157.359 59.3987 156.962C59.1791 156.56 58.8761 156.244 58.4898 156.013C58.1036 155.782 57.6624 155.664 57.1663 155.661C56.8103 155.657 56.4449 155.712 56.07 155.825C55.6951 155.935 55.3865 156.077 55.1441 156.251L53.8262 156.092L54.5306 150.367H60.5746V151.616H55.7121L55.3031 155.047H55.3713C55.6099 154.858 55.9091 154.701 56.2688 154.576C56.6286 154.451 57.0035 154.388 57.3935 154.388C58.1055 154.388 58.7398 154.559 59.2965 154.9C59.8569 155.237 60.2962 155.699 60.6143 156.286C60.9362 156.873 61.0971 157.543 61.0971 158.296C61.0971 159.039 60.9305 159.701 60.5973 160.285C60.2678 160.864 59.8134 161.322 59.234 161.659C58.6546 161.992 57.9957 162.159 57.2572 162.159Z" fill="black"/>
  <path d="M50.276 150.367V162H48.8673V151.843H48.7991L45.9589 153.729V152.298L48.8673 150.367H50.276Z" fill="black"/>
  <path d="M39.9079 150.208C40.385 150.211 40.8622 150.302 41.3393 150.48C41.8165 150.658 42.252 150.954 42.6458 151.366C43.0396 151.775 43.3559 152.334 43.5944 153.042C43.833 153.75 43.9523 154.638 43.9523 155.706C43.9523 156.74 43.8538 157.658 43.6569 158.461C43.4638 159.26 43.1835 159.934 42.8162 160.483C42.4527 161.032 42.0096 161.449 41.487 161.733C40.9682 162.017 40.3812 162.159 39.7261 162.159C39.0747 162.159 38.4934 162.03 37.9822 161.773C37.4747 161.511 37.0582 161.15 36.7325 160.688C36.4106 160.222 36.2042 159.682 36.1133 159.069H37.4994C37.6243 159.603 37.8724 160.044 38.2435 160.392C38.6184 160.737 39.1126 160.909 39.7261 160.909C40.6236 160.909 41.3317 160.517 41.8505 159.734C42.3731 158.95 42.6344 157.842 42.6344 156.41H42.5436C42.3315 156.729 42.0797 157.003 41.7881 157.234C41.4965 157.465 41.1727 157.643 40.8167 157.768C40.4607 157.893 40.082 157.956 39.6806 157.956C39.0141 157.956 38.4025 157.791 37.8459 157.461C37.293 157.128 36.8499 156.672 36.5167 156.092C36.1872 155.509 36.0225 154.843 36.0225 154.093C36.0225 153.381 36.1815 152.73 36.4996 152.139C36.8215 151.544 37.2721 151.071 37.8515 150.719C38.4347 150.367 39.1202 150.196 39.9079 150.208ZM39.9079 151.457C39.4307 151.457 39.0009 151.576 38.6184 151.815C38.2397 152.05 37.9386 152.368 37.7152 152.769C37.4956 153.167 37.3858 153.608 37.3858 154.093C37.3858 154.578 37.4918 155.019 37.7039 155.416C37.9197 155.81 38.2132 156.125 38.5843 156.359C38.9592 156.59 39.3853 156.706 39.8624 156.706C40.2222 156.706 40.5573 156.636 40.8678 156.496C41.1784 156.352 41.4491 156.157 41.6801 155.911C41.9149 155.661 42.0986 155.379 42.2311 155.064C42.3637 154.746 42.4299 154.415 42.4299 154.07C42.4299 153.616 42.3201 153.19 42.1005 152.792C41.8846 152.394 41.5855 152.073 41.203 151.826C40.8243 151.58 40.3926 151.457 39.9079 151.457Z" fill="black"/>
  <path d="M59.5535 60.1591C58.887 60.1591 58.2868 60.0265 57.7528 59.7614C57.2189 59.4964 56.7909 59.1328 56.469 58.6708C56.1472 58.2088 55.9711 57.6824 55.9408 57.0917H57.3041C57.3571 57.618 57.5957 58.0535 58.0198 58.3982C58.4477 58.739 58.9589 58.9094 59.5535 58.9094C60.0306 58.9094 60.4548 58.7977 60.8259 58.5742C61.2008 58.3508 61.4943 58.0441 61.7064 57.654C61.9222 57.2602 62.0301 56.8152 62.0301 56.3191C62.0301 55.8117 61.9184 55.3591 61.695 54.9615C61.4754 54.5601 61.1724 54.2439 60.7861 54.0129C60.3999 53.7819 59.9587 53.6645 59.4626 53.6607C59.1066 53.6569 58.7412 53.7118 58.3663 53.8254C57.9914 53.9353 57.6828 54.0773 57.4404 54.2515L56.1225 54.0924L56.8269 48.3666H62.8708V49.6163H58.0084L57.5994 53.0472H57.6676C57.9062 52.8579 58.2053 52.7007 58.5651 52.5757C58.9249 52.4508 59.2998 52.3883 59.6898 52.3883C60.4018 52.3883 61.0361 52.5587 61.5928 52.8995C62.1532 53.2366 62.5925 53.6986 62.9106 54.2855C63.2325 54.8725 63.3934 55.5428 63.3934 56.2964C63.3934 57.0386 63.2268 57.7014 62.8936 58.2845C62.5641 58.8639 62.1097 59.3222 61.5303 59.6592C60.9509 59.9925 60.2919 60.1591 59.5535 60.1591Z" fill="black"/>
  <path d="M49.8216 60.1591C49.1551 60.1591 48.5548 60.0265 48.0209 59.7614C47.4869 59.4964 47.059 59.1328 46.7371 58.6708C46.4152 58.2088 46.2391 57.6824 46.2088 57.0917H47.5721C47.6251 57.618 47.8637 58.0535 48.2879 58.3982C48.7158 58.739 49.227 58.9094 49.8216 58.9094C50.2987 58.9094 50.7229 58.7977 51.094 58.5742C51.4689 58.3508 51.7624 58.0441 51.9744 57.654C52.1903 57.2602 52.2982 56.8152 52.2982 56.3191C52.2982 55.8117 52.1865 55.3591 51.9631 54.9615C51.7434 54.5601 51.4405 54.2439 51.0542 54.0129C50.6679 53.7819 50.2268 53.6645 49.7307 53.6607C49.3747 53.6569 49.0093 53.7118 48.6344 53.8254C48.2595 53.9353 47.9508 54.0773 47.7085 54.2515L46.3906 54.0924L47.095 48.3666H53.1389V49.6163H48.2765L47.8675 53.0472H47.9357C48.1742 52.8579 48.4734 52.7007 48.8332 52.5757C49.1929 52.4508 49.5678 52.3883 49.9579 52.3883C50.6698 52.3883 51.3041 52.5587 51.8608 52.8995C52.4213 53.2366 52.8606 53.6986 53.1787 54.2855C53.5006 54.8725 53.6615 55.5428 53.6615 56.2964C53.6615 57.0386 53.4949 57.7014 53.1616 58.2845C52.8322 58.8639 52.3777 59.3222 51.7983 59.6592C51.2189 59.9925 50.56 60.1591 49.8216 60.1591Z" fill="black"/>
  <path d="M39.9079 48.2075C40.385 48.2113 40.8622 48.3022 41.3393 48.4802C41.8165 48.6581 42.252 48.9535 42.6458 49.3663C43.0396 49.7753 43.3559 50.3339 43.5944 51.042C43.833 51.7502 43.9523 52.6382 43.9523 53.7061C43.9523 54.74 43.8538 55.6583 43.6569 56.4611C43.4638 57.2602 43.1835 57.9342 42.8162 58.4833C42.4527 59.0324 42.0096 59.449 41.487 59.733C40.9682 60.017 40.3812 60.1591 39.7261 60.1591C39.0747 60.1591 38.4934 60.0303 37.9822 59.7728C37.4747 59.5115 37.0582 59.1498 36.7325 58.6878C36.4106 58.222 36.2042 57.6824 36.1133 57.0689H37.4994C37.6243 57.6029 37.8724 58.0441 38.2435 58.3924C38.6184 58.7371 39.1126 58.9094 39.7261 58.9094C40.6236 58.9094 41.3317 58.5174 41.8505 57.7335C42.3731 56.9496 42.6344 55.842 42.6344 54.4105H42.5436C42.3315 54.7286 42.0797 55.0031 41.7881 55.2342C41.4965 55.4652 41.1727 55.6431 40.8167 55.7681C40.4607 55.8931 40.082 55.9556 39.6806 55.9556C39.0141 55.9556 38.4025 55.7908 37.8459 55.4614C37.293 55.1281 36.8499 54.6718 36.5167 54.0924C36.1872 53.5092 36.0225 52.8427 36.0225 52.0929C36.0225 51.3809 36.1815 50.7296 36.4996 50.1388C36.8215 49.5443 37.2721 49.0709 37.8515 48.7187C38.4347 48.3666 39.1202 48.1961 39.9079 48.2075ZM39.9079 49.4572C39.4307 49.4572 39.0009 49.5765 38.6184 49.8151C38.2397 50.0498 37.9386 50.3679 37.7152 50.7694C37.4956 51.167 37.3858 51.6082 37.3858 52.0929C37.3858 52.5776 37.4918 53.0188 37.7039 53.4164C37.9197 53.8103 38.2132 54.1246 38.5843 54.3594C38.9592 54.5904 39.3853 54.7059 39.8624 54.7059C40.2222 54.7059 40.5573 54.6358 40.8678 54.4957C41.1784 54.3518 41.4491 54.1568 41.6801 53.9106C41.9149 53.6607 42.0986 53.3786 42.2311 53.0642C42.3637 52.7461 42.4299 52.4148 42.4299 52.0702C42.4299 51.6157 42.3201 51.1897 42.1005 50.7921C41.8846 50.3945 41.5855 50.0726 41.203 49.8264C40.8243 49.5803 40.3926 49.4572 39.9079 49.4572Z" fill="black"/>
  <defs>
    <linearGradient id="paint0_linear_0_1" x1="-7.19818" y1="166.605" x2="-7.19818" y2="45.6886" gradientUnits="userSpaceOnUse">
      <stop stop-color="#F6EFF7"/>
      <stop offset="4.05525e-10" stop-color="#F6EFF7"/>
      <stop offset="0.25" stop-color="#BDC9E1"/>
      <stop offset="0.5" stop-color="#67A9CF"/>
      <stop offset="0.75" stop-color="#1C9099"/>
      <stop offset="1" stop-color="#016C59"/>
    </linearGradient>
  </defs>
</svg>