<svg width="118" height="197" viewBox="0 0 118 197" fill="none" xmlns="http://www.w3.org/2000/svg">
  <path d="M117.544 33.8253L117.448 34.522C117.385 35.0334 117.276 35.5661 117.122 36.1201C116.973 36.6783 116.818 37.1961 116.656 37.6733C116.498 38.1506 116.368 38.5299 116.266 38.8111H114.911C114.966 38.5469 115.043 38.189 115.141 37.7372C115.239 37.2898 115.335 36.7891 115.429 36.2351C115.522 35.6811 115.593 35.1165 115.64 34.5412L115.703 33.8253H117.544Z" fill="black"/>
  <path d="M99.5092 35.615V25.7968H100.967V27.3309H101.094C101.299 26.8068 101.629 26.3998 102.085 26.1101C102.541 25.816 103.089 25.669 103.728 25.669C104.376 25.669 104.915 25.816 105.345 26.1101C105.78 26.3998 106.119 26.8068 106.361 27.3309H106.464C106.715 26.8238 107.092 26.4211 107.595 26.1228C108.098 25.8203 108.701 25.669 109.404 25.669C110.282 25.669 111 25.9439 111.558 26.4936C112.116 27.039 112.396 27.8892 112.396 29.044V35.615H110.887V29.044C110.887 28.3196 110.689 27.8018 110.293 27.4907C109.896 27.1797 109.43 27.0241 108.893 27.0241C108.202 27.0241 107.668 27.2329 107.288 27.6505C106.909 28.0639 106.719 28.588 106.719 29.223V35.615H105.185V28.8906C105.185 28.3324 105.004 27.8828 104.642 27.5419C104.28 27.1967 103.813 27.0241 103.242 27.0241C102.85 27.0241 102.484 27.1285 102.143 27.3373C101.806 27.5461 101.533 27.8359 101.325 28.2066C101.12 28.5731 101.018 28.9971 101.018 29.4787V35.615H99.5092Z" fill="black"/>
  <path d="M88.312 39.2969V25.7969H89.8205V31.6009C89.8205 32.1335 89.9313 32.6023 90.1529 33.0071C90.3787 33.4077 90.694 33.7209 91.0989 33.9467C91.508 34.1726 91.9852 34.2855 92.5307 34.2855C93.0762 34.2855 93.5513 34.1726 93.9561 33.9467C94.3652 33.7166 94.6806 33.4013 94.9021 33.0007C95.128 32.5959 95.2409 32.1293 95.2409 31.6009V25.7969H96.7495V35.6151H95.2409V34.1577H95.1642C94.9 34.6733 94.5314 35.0675 94.0584 35.3402C93.5854 35.6087 93.0762 35.7429 92.5307 35.7429C91.9852 35.7429 91.476 35.6087 91.003 35.3402C90.5342 35.0675 90.1656 34.6733 89.8972 34.1577H89.8205V39.2969H88.312Z" fill="black"/>
  <path d="M76.3652 35.8324C75.3553 35.8281 74.4924 35.5618 73.7765 35.0334C73.0606 34.505 72.513 33.7358 72.1337 32.7258C71.7545 31.7159 71.5648 30.4993 71.5648 29.076C71.5648 27.6569 71.7545 26.4446 72.1337 25.4389C72.5172 24.4332 73.067 23.6662 73.7829 23.1378C74.503 22.6094 75.3638 22.3452 76.3652 22.3452C77.3667 22.3452 78.2253 22.6115 78.9412 23.1442C79.6571 23.6726 80.2047 24.4396 80.584 25.4453C80.9675 26.4467 81.1593 27.6569 81.1593 29.076C81.1593 30.5035 80.9696 31.7223 80.5904 32.7322C80.2111 33.7379 79.6635 34.5071 78.9476 35.0398C78.2317 35.5682 77.3709 35.8324 76.3652 35.8324ZM76.3652 34.1257C77.2516 34.1257 77.9441 33.6932 78.4427 32.8281C78.9455 31.9631 79.1969 30.7123 79.1969 29.076C79.1969 27.9893 79.0819 27.071 78.8518 26.321C78.6259 25.5667 78.2999 24.9957 77.8738 24.6079C77.4519 24.2159 76.9491 24.0199 76.3652 24.0199C75.4831 24.0199 74.7907 24.4545 74.2878 25.3238C73.785 26.1932 73.5314 27.4439 73.5272 29.076C73.5272 30.1669 73.6401 31.0895 73.866 31.8437C74.0961 32.5937 74.4221 33.1626 74.8439 33.5504C75.2658 33.9339 75.7729 34.1257 76.3652 34.1257Z" fill="black"/>
  <path d="M68.2665 22.5242V35.6151H66.285V24.5057H66.2083L63.0762 26.5512V24.6591L66.3425 22.5242H68.2665Z" fill="black"/>
  <path d="M51.6536 35.615V25.7969H53.5009V27.3565H53.6031C53.7821 26.8281 54.0975 26.4126 54.5492 26.1101C55.0051 25.8032 55.5208 25.6498 56.096 25.6498C56.2154 25.6498 56.356 25.6541 56.5179 25.6626C56.6841 25.6711 56.8141 25.6818 56.9078 25.6946V27.5227C56.8311 27.5014 56.6948 27.478 56.4987 27.4524C56.3027 27.4226 56.1067 27.4077 55.9107 27.4077C55.459 27.4077 55.0563 27.5035 54.7026 27.6953C54.3531 27.8828 54.0762 28.1449 53.8716 28.4815C53.6671 28.8139 53.5648 29.1932 53.5648 29.6193V35.615H51.6536Z" fill="black"/>
  <path d="M45.3207 35.8132C44.3533 35.8132 43.5202 35.6065 42.8214 35.1932C42.1268 34.7755 41.5898 34.1896 41.2106 33.4353C40.8356 32.6768 40.6481 31.7883 40.6481 30.7699C40.6481 29.7642 40.8356 28.8778 41.2106 28.1108C41.5898 27.3437 42.1182 26.745 42.7958 26.3146C43.4776 25.8842 44.2745 25.669 45.1864 25.669C45.7404 25.669 46.2773 25.7606 46.7972 25.9439C47.3171 26.1271 47.7837 26.4147 48.1971 26.8068C48.6104 27.1988 48.9364 27.7081 49.1751 28.3345C49.4137 28.9566 49.533 29.713 49.533 30.6037V31.2812H41.7283V29.8494H47.6601C47.6601 29.3466 47.5579 28.9012 47.3533 28.5135C47.1488 28.1214 46.8611 27.8125 46.4904 27.5866C46.1239 27.3608 45.6935 27.2478 45.1992 27.2478C44.6623 27.2478 44.1935 27.3799 43.793 27.6441C43.3967 27.9041 43.0898 28.245 42.8725 28.6669C42.6594 29.0845 42.5529 29.5383 42.5529 30.0284V31.147C42.5529 31.8032 42.668 32.3615 42.8981 32.8217C43.1324 33.2819 43.4584 33.6335 43.8761 33.8764C44.2937 34.115 44.7816 34.2343 45.3398 34.2343C45.702 34.2343 46.0323 34.1832 46.3306 34.0809C46.6289 33.9744 46.8867 33.8167 47.104 33.6079C47.3214 33.3991 47.4876 33.1413 47.6026 32.8345L49.4116 33.1605C49.2667 33.6932 49.0067 34.1598 48.6317 34.5603C48.261 34.9566 47.7944 35.2656 47.2319 35.4872C46.6736 35.7045 46.0366 35.8132 45.3207 35.8132Z" fill="black"/>
  <path d="M39.0804 25.7969V27.3309H33.7175V25.7969H39.0804ZM35.1557 23.4446H37.0669V32.7322C37.0669 33.103 37.1223 33.3821 37.2331 33.5696C37.3439 33.7528 37.4866 33.8785 37.6614 33.9467C37.8403 34.0106 38.0342 34.0426 38.243 34.0426C38.3964 34.0426 38.5307 34.0319 38.6457 34.0106C38.7608 33.9893 38.8503 33.9723 38.9142 33.9595L39.2594 35.5383C39.1486 35.5809 38.9909 35.6236 38.7864 35.6662C38.5818 35.713 38.3261 35.7386 38.0193 35.7429C37.5165 35.7514 37.0477 35.6619 36.6131 35.4744C36.1784 35.2869 35.8268 34.9971 35.5584 34.6051C35.2899 34.213 35.1557 33.7209 35.1557 33.1285V23.4446Z" fill="black"/>
  <path d="M32.3831 25.7969V27.3309H27.0202V25.7969H32.3831ZM28.4584 23.4446H30.3696V32.7322C30.3696 33.103 30.425 33.3821 30.5358 33.5696C30.6466 33.7528 30.7894 33.8785 30.9641 33.9467C31.1431 34.0106 31.337 34.0426 31.5458 34.0426C31.6992 34.0426 31.8334 34.0319 31.9485 34.0106C32.0635 33.9893 32.153 33.9723 32.2169 33.9595L32.5621 35.5383C32.4513 35.5809 32.2936 35.6236 32.0891 35.6662C31.8845 35.713 31.6289 35.7386 31.322 35.7429C30.8192 35.7514 30.3505 35.6619 29.9158 35.4744C29.4811 35.2869 29.1296 34.9971 28.8611 34.6051C28.5926 34.213 28.4584 33.7209 28.4584 33.1285V23.4446Z" fill="black"/>
  <path d="M20.4093 35.8324C19.7871 35.8324 19.2246 35.7173 18.7218 35.4872C18.2189 35.2528 17.8205 34.914 17.5265 34.4709C17.2367 34.0277 17.0918 33.4843 17.0918 32.8409C17.0918 32.2869 17.1983 31.8309 17.4114 31.473C17.6245 31.115 17.9121 30.8316 18.2743 30.6228C18.6365 30.414 19.0414 30.2564 19.4888 30.1498C19.9363 30.0433 20.3922 29.9623 20.8567 29.9069C21.4448 29.8388 21.9221 29.7834 22.2885 29.7407C22.655 29.6939 22.9213 29.6193 23.0875 29.517C23.2537 29.4147 23.3368 29.2485 23.3368 29.0184V28.9737C23.3368 28.4155 23.1792 27.9829 22.8638 27.6761C22.5527 27.3693 22.0882 27.2159 21.4703 27.2159C20.8269 27.2159 20.3198 27.3586 19.949 27.6441C19.5826 27.9254 19.329 28.2386 19.1884 28.5838L17.3922 28.1747C17.6053 27.5781 17.9164 27.0966 18.3255 26.7301C18.7388 26.3593 19.214 26.0909 19.7509 25.9247C20.2878 25.7542 20.8525 25.669 21.4448 25.669C21.8368 25.669 22.2523 25.7159 22.6912 25.8096C23.1344 25.8991 23.5478 26.0653 23.9313 26.3082C24.3191 26.5511 24.6365 26.8984 24.8837 27.3501C25.1309 27.7976 25.2544 28.3792 25.2544 29.0951V35.615H23.388V34.2727H23.3113C23.1877 34.5199 23.0023 34.7628 22.7551 35.0014C22.508 35.24 22.1905 35.4382 21.8027 35.5959C21.415 35.7535 20.9505 35.8324 20.4093 35.8324ZM20.8248 34.2983C21.3532 34.2983 21.8049 34.1939 22.1799 33.9851C22.5591 33.7763 22.8468 33.5035 23.0428 33.1669C23.2431 32.826 23.3432 32.4616 23.3432 32.0738V30.8082C23.275 30.8764 23.1429 30.9403 22.9469 31C22.7551 31.0554 22.5357 31.1044 22.2885 31.147C22.0414 31.1853 21.8006 31.2216 21.5662 31.2557C21.3319 31.2855 21.1358 31.3111 20.9782 31.3324C20.6074 31.3792 20.2686 31.4581 19.9618 31.5689C19.6593 31.6797 19.4164 31.8395 19.2331 32.0483C19.0542 32.2528 18.9647 32.5255 18.9647 32.8664C18.9647 33.3395 19.1394 33.6974 19.4888 33.9403C19.8382 34.1789 20.2836 34.2983 20.8248 34.2983Z" fill="black"/>
  <path d="M1.6438 35.615V25.7968H3.47832V27.3949H3.59976C3.80431 26.8537 4.13883 26.4318 4.60332 26.1292C5.0678 25.8224 5.62391 25.669 6.27164 25.669C6.92789 25.669 7.47761 25.8224 7.92079 26.1292C8.36823 26.436 8.69849 26.8579 8.91155 27.3949H9.01383C9.2482 26.8707 9.62107 26.4531 10.1324 26.142C10.6438 25.8267 11.2532 25.669 11.9606 25.669C12.8512 25.669 13.5777 25.9481 14.1402 26.5064C14.707 27.0646 14.9904 27.9062 14.9904 29.0312V35.615H13.0792V29.2102C13.0792 28.5454 12.8981 28.0639 12.5358 27.7656C12.1736 27.4673 11.7411 27.3182 11.2383 27.3182C10.6161 27.3182 10.1324 27.5099 9.78726 27.8934C9.44209 28.2727 9.26951 28.7606 9.26951 29.3572V35.615H7.36468V29.0887C7.36468 28.5561 7.19849 28.1278 6.8661 27.8039C6.53371 27.4801 6.10119 27.3182 5.56852 27.3182C5.2063 27.3182 4.87178 27.414 4.56496 27.6058C4.26241 27.7933 4.01738 28.0554 3.82988 28.392C3.64664 28.7287 3.55502 29.1186 3.55502 29.5618V35.615H1.6438Z" fill="black"/>
  <path d="M88.4574 13.8132C87.49 13.8132 86.6569 13.6065 85.9581 13.1932C85.2635 12.7755 84.7266 12.1896 84.3473 11.4353C83.9723 10.6768 83.7848 9.78832 83.7848 8.76986C83.7848 7.76418 83.9723 6.87781 84.3473 6.11077C84.7266 5.34372 85.255 4.745 85.9325 4.3146C86.6143 3.88421 87.4112 3.66901 88.3231 3.66901C88.8771 3.66901 89.4141 3.76063 89.9339 3.94386C90.4538 4.1271 90.9204 4.41474 91.3338 4.80679C91.7471 5.19884 92.0731 5.70807 92.3118 6.33449C92.5504 6.95665 92.6697 7.71304 92.6697 8.60367V9.28122H84.865V7.8494H90.7969C90.7969 7.34656 90.6946 6.90125 90.49 6.51347C90.2855 6.12142 89.9979 5.81247 89.6271 5.58662C89.2606 5.36077 88.8302 5.24784 88.3359 5.24784C87.799 5.24784 87.3302 5.37994 86.9297 5.64415C86.5334 5.90409 86.2266 6.245 86.0092 6.66688C85.7962 7.08449 85.6896 7.53832 85.6896 8.02838V9.14699C85.6896 9.80324 85.8047 10.3615 86.0348 10.8217C86.2692 11.2819 86.5952 11.6335 87.0128 11.8764C87.4304 12.115 87.9183 12.2343 88.4766 12.2343C88.8388 12.2343 89.169 12.1832 89.4673 12.0809C89.7656 11.9744 90.0234 11.8167 90.2408 11.6079C90.4581 11.3991 90.6243 11.1413 90.7393 10.8345L92.5483 11.1605C92.4034 11.6932 92.1435 12.1598 91.7685 12.5603C91.3977 12.9566 90.9311 13.2656 90.3686 13.4872C89.8104 13.7045 89.1733 13.8132 88.4574 13.8132Z" fill="black"/>
  <path d="M82.2171 3.79685V5.33094H76.8542V3.79685H82.2171ZM78.2924 1.44458H80.2036V10.7322C80.2036 11.103 80.259 11.3821 80.3698 11.5696C80.4806 11.7528 80.6234 11.8785 80.7981 11.9467C80.9771 12.0106 81.1709 12.0426 81.3798 12.0426C81.5332 12.0426 81.6674 12.0319 81.7824 12.0106C81.8975 11.9893 81.987 11.9723 82.0509 11.9595L82.3961 13.5383C82.2853 13.5809 82.1276 13.6236 81.9231 13.6662C81.7185 13.713 81.4628 13.7386 81.156 13.7429C80.6532 13.7514 80.1844 13.6619 79.7498 13.4744C79.3151 13.2869 78.9636 12.9971 78.6951 12.6051C78.4266 12.213 78.2924 11.7209 78.2924 11.1285V1.44458Z" fill="black"/>
  <path d="M70.2432 13.8324C69.6211 13.8324 69.0586 13.7173 68.5557 13.4872C68.0529 13.2528 67.6545 12.914 67.3604 12.4709C67.0707 12.0277 66.9258 11.4843 66.9258 10.8409C66.9258 10.2869 67.0323 9.83094 67.2454 9.47298C67.4584 9.11503 67.7461 8.83165 68.1083 8.62284C68.4705 8.41403 68.8753 8.25636 69.3228 8.14983C69.7702 8.0433 70.2262 7.96233 70.6907 7.90693C71.2788 7.83875 71.756 7.78335 72.1225 7.74074C72.489 7.69386 72.7553 7.61929 72.9215 7.51702C73.0877 7.41475 73.1708 7.24855 73.1708 7.01844V6.97369C73.1708 6.41546 73.0131 5.98293 72.6978 5.67611C72.3867 5.36929 71.9222 5.21588 71.3043 5.21588C70.6609 5.21588 70.1538 5.35864 69.783 5.64415C69.4165 5.9254 69.163 6.23861 69.0224 6.58378L67.2262 6.17469C67.4393 5.5781 67.7503 5.09656 68.1594 4.73009C68.5728 4.35935 69.0479 4.09088 69.5849 3.92469C70.1218 3.75423 70.6864 3.66901 71.2788 3.66901C71.6708 3.66901 72.0863 3.71588 72.5252 3.80963C72.9684 3.89912 73.3817 4.06531 73.7653 4.30821C74.1531 4.55111 74.4705 4.89841 74.7177 5.35011C74.9648 5.79756 75.0884 6.37923 75.0884 7.09514V13.615H73.2219V12.2727H73.1452C73.0217 12.5199 72.8363 12.7628 72.5891 13.0014C72.342 13.24 72.0245 13.4382 71.6367 13.5959C71.2489 13.7535 70.7844 13.8324 70.2432 13.8324ZM70.6587 12.2983C71.1871 12.2983 71.6388 12.1939 72.0138 11.9851C72.3931 11.7762 72.6807 11.5035 72.8768 11.1669C73.0771 10.826 73.1772 10.4616 73.1772 10.0738V8.80821C73.109 8.87639 72.9769 8.94031 72.7809 8.99997C72.5891 9.05537 72.3697 9.10438 72.1225 9.14699C71.8754 9.18534 71.6346 9.22156 71.4002 9.25565C71.1658 9.28548 70.9698 9.31105 70.8121 9.33236C70.4414 9.37923 70.1026 9.45807 69.7958 9.56886C69.4933 9.67966 69.2504 9.83946 69.0671 10.0483C68.8881 10.2528 68.7986 10.5255 68.7986 10.8664C68.7986 11.3395 68.9734 11.6974 69.3228 11.9403C69.6722 12.179 70.1175 12.2983 70.6587 12.2983Z" fill="black"/>
  <path d="M64.8148 0.52417V13.6151H62.9036V0.52417H64.8148Z" fill="black"/>
  <path d="M58.4179 9.54332V3.79688H60.3356V13.6151H58.4563V11.9148H58.354C58.1282 12.4389 57.766 12.8757 57.2674 13.2251C56.7731 13.5703 56.1573 13.7429 55.4201 13.7429C54.7894 13.7429 54.2312 13.6044 53.7454 13.3274C53.2638 13.0462 52.8846 12.6307 52.6076 12.081C52.3349 11.5313 52.1985 10.8516 52.1985 10.0419V3.79688H54.1097V9.81179C54.1097 10.4808 54.2951 11.0135 54.6658 11.4098C55.0366 11.8061 55.5181 12.0043 56.1104 12.0043C56.4684 12.0043 56.8242 11.9148 57.1779 11.7358C57.5358 11.5568 57.832 11.2862 58.0664 10.924C58.305 10.5618 58.4222 10.1016 58.4179 9.54332Z" fill="black"/>
  <path d="M46.1213 13.8132C45.171 13.8132 44.3528 13.598 43.6667 13.1676C42.9849 12.7329 42.4607 12.1342 42.0943 11.3714C41.7278 10.6086 41.5446 9.73506 41.5446 8.75068C41.5446 7.75352 41.7321 6.87355 42.1071 6.11077C42.4821 5.34372 43.0105 4.745 43.6923 4.3146C44.3741 3.88421 45.1774 3.66901 46.1021 3.66901C46.8478 3.66901 47.5126 3.8075 48.0964 4.08449C48.6802 4.35722 49.1511 4.74074 49.509 5.23506C49.8713 5.72938 50.0865 6.30679 50.1546 6.9673H48.2946C48.1923 6.50707 47.9579 6.11077 47.5914 5.77838C47.2292 5.446 46.7434 5.2798 46.134 5.2798C45.6014 5.2798 45.1348 5.42043 44.7342 5.70168C44.3379 5.97867 44.0289 6.37497 43.8073 6.8906C43.5857 7.40196 43.475 8.00707 43.475 8.70594C43.475 9.42185 43.5836 10.0397 43.8009 10.5596C44.0183 11.0795 44.3251 11.4822 44.7214 11.7677C45.122 12.0532 45.5929 12.196 46.134 12.196C46.4963 12.196 46.8244 12.1299 47.1184 11.9978C47.4167 11.8615 47.666 11.6676 47.8663 11.4162C48.0708 11.1647 48.2136 10.8622 48.2946 10.5085H50.1546C50.0865 11.1434 49.8798 11.7102 49.5346 12.2088C49.1894 12.7074 48.7271 13.0994 48.1475 13.3849C47.5723 13.6704 46.8968 13.8132 46.1213 13.8132Z" fill="black"/>
  <path d="M37.5032 13.6151V3.79688H39.4144V13.6151H37.5032ZM38.4683 2.28196C38.136 2.28196 37.8505 2.17116 37.6118 1.94957C37.3774 1.72372 37.2603 1.45526 37.2603 1.14418C37.2603 0.828835 37.3774 0.560369 37.6118 0.338778C37.8505 0.112926 38.136 0 38.4683 0C38.8007 0 39.0841 0.112926 39.3185 0.338778C39.5571 0.560369 39.6764 0.828835 39.6764 1.14418C39.6764 1.45526 39.5571 1.72372 39.3185 1.94957C39.0841 2.17116 38.8007 2.28196 38.4683 2.28196Z" fill="black"/>
  <path d="M35.389 3.79685V5.33094H30.0261V3.79685H35.389ZM31.4643 1.44458H33.3755V10.7322C33.3755 11.103 33.4309 11.3821 33.5417 11.5696C33.6525 11.7528 33.7952 11.8785 33.97 11.9467C34.1489 12.0106 34.3428 12.0426 34.5516 12.0426C34.705 12.0426 34.8393 12.0319 34.9543 12.0106C35.0694 11.9893 35.1589 11.9723 35.2228 11.9595L35.568 13.5383C35.4572 13.5809 35.2995 13.6236 35.095 13.6662C34.8904 13.713 34.6347 13.7386 34.3279 13.7429C33.8251 13.7514 33.3563 13.6619 32.9217 13.4744C32.487 13.2869 32.1354 12.9971 31.867 12.6051C31.5985 12.213 31.4643 11.7209 31.4643 11.1285V1.44458Z" fill="black"/>
  <path d="M23.3176 13.615V3.79686H25.1649V5.35652H25.2672C25.4462 4.82811 25.7615 4.41263 26.2132 4.11007C26.6692 3.80325 27.1848 3.64984 27.7601 3.64984C27.8794 3.64984 28.02 3.6541 28.182 3.66263C28.3482 3.67115 28.4781 3.6818 28.5719 3.69459V5.52271C28.4952 5.5014 28.3588 5.47797 28.1628 5.4524C27.9668 5.42257 27.7708 5.40765 27.5747 5.40765C27.123 5.40765 26.7203 5.50353 26.3666 5.6953C26.0172 5.8828 25.7402 6.14487 25.5357 6.48152C25.3311 6.8139 25.2288 7.19317 25.2288 7.6193V13.615H23.3176Z" fill="black"/>
  <path d="M15.9268 13.8324C15.3047 13.8324 14.7422 13.7173 14.2393 13.4872C13.7365 13.2528 13.3381 12.914 13.044 12.4709C12.7543 12.0277 12.6094 11.4843 12.6094 10.8409C12.6094 10.2869 12.7159 9.83094 12.929 9.47298C13.142 9.11503 13.4297 8.83165 13.7919 8.62284C14.1541 8.41403 14.5589 8.25636 15.0064 8.14983C15.4538 8.0433 15.9098 7.96233 16.3743 7.90693C16.9624 7.83875 17.4396 7.78335 17.8061 7.74074C18.1726 7.69386 18.4389 7.61929 18.6051 7.51702C18.7713 7.41475 18.8544 7.24855 18.8544 7.01844V6.97369C18.8544 6.41546 18.6967 5.98293 18.3814 5.67611C18.0703 5.36929 17.6058 5.21588 16.9879 5.21588C16.3445 5.21588 15.8374 5.35864 15.4666 5.64415C15.1001 5.9254 14.8466 6.23861 14.706 6.58378L12.9098 6.17469C13.1229 5.5781 13.4339 5.09656 13.843 4.73009C14.2564 4.35935 14.7315 4.09088 15.2685 3.92469C15.8054 3.75423 16.37 3.66901 16.9624 3.66901C17.3544 3.66901 17.7699 3.71588 18.2088 3.80963C18.652 3.89912 19.0653 4.06531 19.4489 4.30821C19.8366 4.55111 20.1541 4.89841 20.4013 5.35011C20.6484 5.79756 20.772 6.37923 20.772 7.09514V13.615H18.9055V12.2727H18.8288C18.7053 12.5199 18.5199 12.7628 18.2727 13.0014C18.0256 13.24 17.7081 13.4382 17.3203 13.5959C16.9325 13.7535 16.468 13.8324 15.9268 13.8324ZM16.3423 12.2983C16.8707 12.2983 17.3224 12.1939 17.6974 11.9851C18.0767 11.7762 18.3643 11.5035 18.5604 11.1669C18.7607 10.826 18.8608 10.4616 18.8608 10.0738V8.80821C18.7926 8.87639 18.6605 8.94031 18.4645 8.99997C18.2727 9.05537 18.0533 9.10438 17.8061 9.14699C17.5589 9.18534 17.3182 9.22156 17.0838 9.25565C16.8494 9.28548 16.6534 9.31105 16.4957 9.33236C16.125 9.37923 15.7862 9.45807 15.4794 9.56886C15.1768 9.67966 14.9339 9.83946 14.7507 10.0483C14.5717 10.2528 14.4822 10.5255 14.4822 10.8664C14.4822 11.3395 14.657 11.6974 15.0064 11.9403C15.3558 12.179 15.8011 12.2983 16.3423 12.2983Z" fill="black"/>
  <path d="M1.79718 13.6151V0.52417H6.46337C7.48184 0.52417 8.32559 0.709539 8.99462 1.08028C9.66366 1.45102 10.1644 1.95812 10.4968 2.60158C10.8291 3.24079 10.9953 3.96096 10.9953 4.7621C10.9953 5.56749 10.827 6.29193 10.4904 6.93539C10.158 7.5746 9.65513 8.0817 8.98184 8.4567C8.31281 8.82744 7.47119 9.01281 6.45698 9.01281H3.24817V7.33809H6.278C6.92147 7.33809 7.44349 7.2273 7.84406 7.0057C8.24462 6.77985 8.53866 6.47303 8.72616 6.08525C8.91366 5.69747 9.00741 5.25641 9.00741 4.7621C9.00741 4.26778 8.91366 3.82886 8.72616 3.44533C8.53866 3.06181 8.24249 2.76139 7.83766 2.54406C7.4371 2.32673 6.90869 2.21806 6.25244 2.21806H3.77232V13.6151H1.79718Z" fill="black"/>
  <path d="M1.71613 60.8612V48.9587H3.04614V54.0759C3.04614 54.5455 3.14383 54.9588 3.3392 55.3157C3.53833 55.6689 3.81635 55.945 4.17328 56.1442C4.53396 56.3433 4.95476 56.4429 5.43567 56.4429C5.91658 56.4429 6.3355 56.3433 6.69243 56.1442C7.05311 55.9413 7.33114 55.6633 7.52651 55.3101C7.72563 54.9532 7.8252 54.5418 7.8252 54.0759V48.9587H9.15522V57.6151H7.8252V56.3301H7.75757C7.52463 56.7848 7.19964 57.1323 6.7826 57.3727C6.36556 57.6094 5.91658 57.7278 5.43567 57.7278C4.95476 57.7278 4.50578 57.6094 4.08874 57.3727C3.67546 57.1323 3.35047 56.7848 3.11377 56.3301H3.04614V60.8612H1.71613Z" fill="black"/>
  <path d="M43.783 55.7729C43.0391 55.7729 42.376 55.6451 41.7936 55.3896C41.215 55.1342 40.7548 54.7791 40.4129 54.3245C40.0748 53.8661 39.8907 53.3345 39.8606 52.7296H41.2808C41.3108 53.1016 41.4386 53.4228 41.664 53.6933C41.8894 53.9601 42.1844 54.1667 42.5488 54.3132C42.9133 54.4598 43.3171 54.533 43.7605 54.533C44.2564 54.533 44.696 54.4466 45.0792 54.2738C45.4625 54.1009 45.763 53.8605 45.9809 53.5524C46.1989 53.2443 46.3078 52.8874 46.3078 52.4816C46.3078 52.0571 46.2026 51.6832 45.9922 51.3601C45.7818 51.0333 45.4737 50.7778 45.068 50.5937C44.6622 50.4096 44.1663 50.3175 43.5801 50.3175H42.6559V49.0777H43.5801C44.0385 49.0777 44.4405 48.995 44.7862 48.8297C45.1356 48.6644 45.408 48.4315 45.6033 48.1309C45.8025 47.8303 45.902 47.4772 45.902 47.0714C45.902 46.6806 45.8156 46.3406 45.6428 46.0513C45.47 45.762 45.2258 45.5366 44.9102 45.375C44.5983 45.2135 44.2301 45.1327 43.8056 45.1327C43.4073 45.1327 43.0316 45.206 42.6784 45.3525C42.329 45.4953 42.0435 45.7038 41.8218 45.9781C41.6001 46.2486 41.4799 46.5754 41.4611 46.9587H40.1086C40.1311 46.3538 40.3133 45.824 40.6552 45.3694C40.9971 44.911 41.4442 44.5541 41.9965 44.2986C42.5526 44.0431 43.1631 43.9154 43.8281 43.9154C44.542 43.9154 45.1544 44.0601 45.6653 44.3494C46.1763 44.6349 46.5689 45.0125 46.8432 45.4821C47.1175 45.9518 47.2546 46.459 47.2546 47.0038C47.2546 47.6537 47.0837 48.2079 46.7418 48.6663C46.4036 49.1246 45.9434 49.4421 45.361 49.6187V49.7089C46.0899 49.8291 46.6591 50.1391 47.0686 50.6388C47.4781 51.1347 47.6829 51.749 47.6829 52.4816C47.6829 53.1091 47.512 53.6726 47.1701 54.1723C46.8319 54.6683 46.3698 55.059 45.7837 55.3446C45.1976 55.6301 44.5307 55.7729 43.783 55.7729Z" fill="black"/>
  <path d="M26.1124 55.6151V46.9587H27.3973V48.3112H27.51C27.6904 47.8491 27.9815 47.4903 28.3835 47.2348C28.7856 46.9756 29.2683 46.8459 29.8319 46.8459C30.403 46.8459 30.8783 46.9756 31.2577 47.2348C31.641 47.4903 31.9397 47.8491 32.1538 48.3112H32.244C32.4657 47.8641 32.7982 47.5091 33.2415 47.2461C33.6848 46.9793 34.2165 46.8459 34.8364 46.8459C35.6104 46.8459 36.2434 47.0883 36.7356 47.5729C37.2278 48.0539 37.4739 48.8034 37.4739 49.8216V55.6151H36.1439V49.8216C36.1439 49.1829 35.9692 48.7264 35.6197 48.4521C35.2703 48.1778 34.8589 48.0407 34.3855 48.0407C33.7769 48.0407 33.3054 48.2248 32.971 48.593C32.6366 48.9574 32.4694 49.4196 32.4694 49.9794V55.6151H31.1168V49.6863C31.1168 49.1941 30.9572 48.7978 30.6378 48.4972C30.3185 48.1929 29.9071 48.0407 29.4036 48.0407C29.0579 48.0407 28.7348 48.1328 28.4343 48.3169C28.1375 48.501 27.897 48.7564 27.7129 49.0833C27.5326 49.4064 27.4424 49.7803 27.4424 50.2048V55.6151H26.1124Z" fill="black"/>
  <path d="M24.5358 43.5322L20.8162 57.3508H19.5989L23.3185 43.5322H24.5358Z" fill="black"/>
  <path d="M14.2789 59.0415C13.6364 59.0415 13.0841 58.9589 12.622 58.7936C12.1598 58.632 11.7747 58.4179 11.4667 58.1511C11.1623 57.8881 10.92 57.6063 10.7397 57.3058L11.7992 56.5619C11.9194 56.7196 12.0715 56.9 12.2556 57.1029C12.4397 57.3095 12.6915 57.488 13.0108 57.6383C13.3339 57.7923 13.7566 57.8693 14.2789 57.8693C14.9777 57.8693 15.5544 57.7003 16.009 57.3621C16.4636 57.024 16.6909 56.4942 16.6909 55.7729V54.0145H16.5782C16.4805 54.1723 16.3415 54.3677 16.1612 54.6006C15.9846 54.8298 15.7291 55.0346 15.3947 55.2149C15.0641 55.3915 14.617 55.4798 14.0534 55.4798C13.3546 55.4798 12.7272 55.3145 12.1711 54.9839C11.6188 54.6532 11.1811 54.1723 10.858 53.5411C10.5386 52.9099 10.379 52.1435 10.379 51.2418C10.379 50.3551 10.5349 49.583 10.8467 48.9255C11.1586 48.2643 11.5925 47.7533 12.1486 47.3926C12.7046 47.0282 13.3471 46.8459 14.076 46.8459C14.6395 46.8459 15.0866 46.9399 15.4173 47.1277C15.7516 47.3118 16.0071 47.5222 16.1837 47.7589C16.3641 47.9919 16.5031 48.1835 16.6008 48.3338H16.736V46.9587H18.0209V55.863C18.0209 56.6069 17.8519 57.2118 17.5137 57.6777C17.1793 58.1474 16.7285 58.4911 16.1612 58.709C15.5976 58.9307 14.9702 59.0415 14.2789 59.0415ZM14.2338 54.285C14.7673 54.285 15.2181 54.1629 15.5863 53.9187C15.9545 53.6745 16.2344 53.3232 16.426 52.8648C16.6177 52.4065 16.7135 51.8579 16.7135 51.2192C16.7135 50.5955 16.6195 50.0451 16.4317 49.568C16.2438 49.0908 15.9658 48.717 15.5976 48.4465C15.2294 48.176 14.7748 48.0407 14.2338 48.0407C13.6702 48.0407 13.2006 48.1835 12.8249 48.469C12.4529 48.7546 12.173 49.1378 11.9851 49.6187C11.801 50.0996 11.709 50.6331 11.709 51.2192C11.709 51.8204 11.8029 52.352 11.9908 52.8141C12.1824 53.2725 12.4642 53.6332 12.8361 53.8962C13.2118 54.1554 13.6777 54.285 14.2338 54.285Z" fill="black"/>
  <g opacity="0.8">
    <path d="M26.3934 75.7348H0.159973V196.345H26.3934V75.7348Z" fill="url(#paint0_linear_0_1)"/>
    <path fill-rule="evenodd" clip-rule="evenodd" d="M0 75.5748H26.5533V196.505H0V75.5748ZM0.31992 75.8947V196.185H26.2334V75.8947H0.31992Z" fill="black"/>
  </g>
  <path d="M41.9079 180.208C42.385 180.211 42.8622 180.302 43.3393 180.48C43.8165 180.658 44.252 180.954 44.6458 181.366C45.0396 181.775 45.3559 182.334 45.5944 183.042C45.833 183.75 45.9523 184.638 45.9523 185.706C45.9523 186.74 45.8538 187.658 45.6569 188.461C45.4638 189.26 45.1835 189.934 44.8162 190.483C44.4527 191.032 44.0096 191.449 43.487 191.733C42.9682 192.017 42.3812 192.159 41.7261 192.159C41.0747 192.159 40.4934 192.03 39.9822 191.773C39.4747 191.511 39.0582 191.15 38.7325 190.688C38.4106 190.222 38.2042 189.682 38.1133 189.069H39.4994C39.6243 189.603 39.8724 190.044 40.2435 190.392C40.6184 190.737 41.1126 190.909 41.7261 190.909C42.6236 190.909 43.3317 190.517 43.8505 189.734C44.3731 188.95 44.6344 187.842 44.6344 186.41H44.5436C44.3315 186.729 44.0797 187.003 43.7881 187.234C43.4965 187.465 43.1727 187.643 42.8167 187.768C42.4607 187.893 42.082 187.956 41.6806 187.956C41.0141 187.956 40.4025 187.791 39.8459 187.461C39.293 187.128 38.8499 186.672 38.5167 186.092C38.1872 185.509 38.0225 184.843 38.0225 184.093C38.0225 183.381 38.1815 182.73 38.4996 182.139C38.8215 181.544 39.2721 181.071 39.8515 180.719C40.4347 180.367 41.1202 180.196 41.9079 180.208ZM41.9079 181.457C41.4307 181.457 41.0009 181.576 40.6184 181.815C40.2397 182.05 39.9386 182.368 39.7152 182.769C39.4956 183.167 39.3858 183.608 39.3858 184.093C39.3858 184.578 39.4918 185.019 39.7039 185.416C39.9197 185.81 40.2132 186.125 40.5843 186.359C40.9592 186.59 41.3853 186.706 41.8624 186.706C42.2222 186.706 42.5573 186.636 42.8678 186.496C43.1784 186.352 43.4491 186.157 43.6801 185.911C43.9149 185.661 44.0986 185.379 44.2311 185.064C44.3637 184.746 44.4299 184.415 44.4299 184.07C44.4299 183.616 44.3201 183.19 44.1005 182.792C43.8846 182.394 43.5855 182.073 43.203 181.826C42.8243 181.58 42.3926 181.457 41.9079 181.457Z" fill="black"/>
  <path d="M48.4344 91.1591C47.5785 91.1591 46.8496 90.9262 46.2474 90.4604C45.6453 89.9908 45.1852 89.311 44.8671 88.4211C44.549 87.5274 44.39 86.4481 44.39 85.1833C44.39 83.926 44.549 82.8524 44.8671 81.9625C45.189 81.0688 45.651 80.3871 46.2531 79.9176C46.859 79.4442 47.5861 79.2075 48.4344 79.2075C49.2827 79.2075 50.0079 79.4442 50.61 79.9176C51.2159 80.3871 51.6779 81.0688 51.996 81.9625C52.3179 82.8524 52.4788 83.926 52.4788 85.1833C52.4788 86.4481 52.3198 87.5274 52.0017 88.4211C51.6836 89.311 51.2235 89.9908 50.6213 90.4604C50.0192 90.9262 49.2902 91.1591 48.4344 91.1591ZM48.4344 89.9094C49.2827 89.9094 49.9416 89.5004 50.4112 88.6824C50.8808 87.8644 51.1155 86.6981 51.1155 85.1833C51.1155 84.176 51.0076 83.3182 50.7918 82.6101C50.5797 81.9019 50.2729 81.3623 49.8715 80.9912C49.4739 80.62 48.9949 80.4345 48.4344 80.4345C47.5937 80.4345 46.9367 80.8492 46.4633 81.6785C45.9899 82.504 45.7532 83.6723 45.7532 85.1833C45.7532 86.1906 45.8593 87.0465 46.0714 87.7508C46.2834 88.4552 46.5883 88.9911 46.9859 89.3584C47.3873 89.7257 47.8701 89.9094 48.4344 89.9094Z" fill="black"/>
  <path d="M41.2942 79.3666V91H39.8854V80.8435H39.8172L36.9771 82.7294V81.2979L39.8854 79.3666H41.2942Z" fill="black"/>
  <defs>
    <linearGradient id="paint0_linear_0_1" x1="-7.19818" y1="196.847" x2="-7.19818" y2="75.9312" gradientUnits="userSpaceOnUse">
      <stop stop-color="#00204D" stop-opacity="0"/>
      <stop offset="0.0192308" stop-opacity="0"/>
      <stop offset="0.0384615" stop-opacity="0"/>
      <stop offset="0.0576923" stop-opacity="0"/>
      <stop offset="0.0769231" stop-opacity="0"/>
      <stop offset="0.0961538" stop-opacity="0"/>
      <stop offset="0.115385" stop-opacity="0"/>
      <stop offset="0.134615" stop-opacity="0"/>
      <stop offset="0.153846" stop-opacity="0"/>
      <stop offset="0.173077" stop-opacity="0"/>
      <stop offset="0.192308" stop-opacity="0"/>
      <stop offset="0.211538" stop-opacity="0"/>
      <stop offset="0.230769" stop-opacity="0"/>
      <stop offset="0.25" stop-color="#414D6B" stop-opacity="0"/>
      <stop offset="0.269231" stop-color="#808071" stop-opacity="0.0705882"/>
      <stop offset="0.288462" stop-color="#807979" stop-opacity="0.14902"/>
      <stop offset="0.307692" stop-color="#7B7B77" stop-opacity="0.227451"/>
      <stop offset="0.326923" stop-color="#7E7B77" stop-opacity="0.301961"/>
      <stop offset="0.346154" stop-color="#7C7C76" stop-opacity="0.380392"/>
      <stop offset="0.365385" stop-color="#7C7C78" stop-opacity="0.458824"/>
      <stop offset="0.384615" stop-color="#7C7C78" stop-opacity="0.533333"/>
      <stop offset="0.403846" stop-color="#7C7C77" stop-opacity="0.611765"/>
      <stop offset="0.423077" stop-color="#7D7B77" stop-opacity="0.690196"/>
      <stop offset="0.442308" stop-color="#7C7B77" stop-opacity="0.764706"/>
      <stop offset="0.461538" stop-color="#7D7B78" stop-opacity="0.843137"/>
      <stop offset="0.480769" stop-color="#7D7C77" stop-opacity="0.921569"/>
      <stop offset="0.5" stop-color="#7D7C78"/>
      <stop offset="0.519231" stop-color="#817F77"/>
      <stop offset="0.538462" stop-color="#868376"/>
      <stop offset="0.557692" stop-color="#8B8775"/>
      <stop offset="0.576923" stop-color="#908B75"/>
      <stop offset="0.596154" stop-color="#958F74"/>
      <stop offset="0.615385" stop-color="#9A9373"/>
      <stop offset="0.634615" stop-color="#9F9773"/>
      <stop offset="0.653846" stop-color="#A49B72"/>
      <stop offset="0.673077" stop-color="#A99F71"/>
      <stop offset="0.692308" stop-color="#AEA371"/>
      <stop offset="0.711538" stop-color="#B3A770"/>
      <stop offset="0.730769" stop-color="#B8AB6F"/>
      <stop offset="0.75" stop-color="#BEAF6F"/>
      <stop offset="0.769231" stop-color="#C2B36B"/>
      <stop offset="0.788462" stop-color="#C7B768"/>
      <stop offset="0.807692" stop-color="#CCBC65"/>
      <stop offset="0.826923" stop-color="#D1C062"/>
      <stop offset="0.846154" stop-color="#D6C55F"/>
      <stop offset="0.865385" stop-color="#DBCA5C"/>
      <stop offset="0.884615" stop-color="#E0CE59"/>
      <stop offset="0.903846" stop-color="#E5D355"/>
      <stop offset="0.923077" stop-color="#EAD752"/>
      <stop offset="0.942308" stop-color="#EFDC4F"/>
      <stop offset="0.961538" stop-color="#F4E04C"/>
      <stop offset="0.980769" stop-color="#F9E549"/>
      <stop offset="1" stop-color="#FFEA46"/>
    </linearGradient>
  </defs>
</svg>