<svg width="337" height="154" viewBox="0 0 337 154" fill="none" xmlns="http://www.w3.org/2000/svg">
<rect width="337" height="154" rx="30" fill="white"/>
<path d="M29.64 19.25V41H26.58V19.25H29.64ZM37.1224 24.86V27.29C38.0524 25.76 39.6124 24.59 42.3424 24.59C46.2424 24.59 47.6524 27.11 47.6524 30.8V41H44.9224V31.61C44.9224 29.12 44.5024 26.96 41.3824 26.96C38.7424 26.96 37.1224 28.76 37.1224 32.24V41H34.3924V24.86H37.1224ZM58.4262 24.59C62.3862 24.59 64.7862 27.5 65.1762 30.26H62.4162C62.0262 28.34 60.3762 26.99 58.2462 26.99C55.8462 26.99 53.5962 28.88 53.5962 32.93C53.5962 37.01 55.8462 38.99 58.2462 38.99C60.5562 38.99 62.1462 37.43 62.5362 35.75H65.3562C64.7862 38.78 61.9362 41.39 58.1562 41.39C53.5062 41.39 50.6262 37.88 50.6262 32.96C50.6262 28.16 53.6562 24.59 58.4262 24.59ZM71.1654 19.25V41H68.4354V19.25H71.1654ZM85.4859 41V38.69C84.5559 40.22 83.0859 41.39 80.4159 41.39C76.6959 41.39 75.2559 38.87 75.2559 35.18V24.86H77.9859V34.37C77.9859 36.86 78.3759 39.02 81.3759 39.02C83.9859 39.02 85.4859 37.22 85.4859 33.74V24.86H88.2159V41H85.4859ZM104.637 29.57H101.787C101.337 27.65 99.8967 26.9 97.9767 26.9C96.3867 26.9 94.5867 27.47 94.5867 28.94C94.5867 30.23 95.4867 30.8 97.0467 31.13L99.3267 31.58C102.267 32.12 104.847 33.29 104.847 36.38C104.847 39.59 101.967 41.39 98.2767 41.39C94.0467 41.39 91.6767 38.6 91.3467 35.78H94.2267C94.6767 37.85 95.9367 39.08 98.3367 39.08C100.407 39.08 102.087 38.21 102.087 36.68C102.087 35.03 100.557 34.4 98.8167 34.01L96.4167 33.53C94.2267 33.05 91.8267 32.09 91.8267 29.06C91.8267 26.21 94.7067 24.56 98.2767 24.56C101.787 24.56 104.127 26.48 104.637 29.57ZM108.308 24.86H111.038V41H108.308V24.86ZM108.308 19.25H111.038V22.55H108.308V19.25ZM117.229 32.99C117.229 37.31 119.569 38.99 122.059 38.99C124.549 38.99 126.889 37.13 126.889 32.99C126.889 28.67 124.549 26.99 122.059 26.99C119.569 26.99 117.229 28.58 117.229 32.99ZM122.059 24.59C125.809 24.59 129.799 27.14 129.799 32.99C129.799 38.84 125.809 41.39 122.059 41.39C118.309 41.39 114.319 38.84 114.319 32.99C114.319 27.14 118.309 24.59 122.059 24.59ZM135.794 24.86V27.29C136.724 25.76 138.284 24.59 141.014 24.59C144.914 24.59 146.324 27.11 146.324 30.8V41H143.594V31.61C143.594 29.12 143.174 26.96 140.054 26.96C137.414 26.96 135.794 28.76 135.794 32.24V41H133.064V24.86H135.794Z" fill="black"/>
<path d="M25.548 74V60.95H34.026V62.534H27.384V66.494H33.648V68.078H27.384V74H25.548ZM43.9183 69.698H36.4663C36.5203 71.786 38.0323 72.794 39.4543 72.794C40.8943 72.794 41.6863 72.146 42.1003 71.192H43.7923C43.3603 72.848 41.8123 74.234 39.4543 74.234C36.3943 74.234 34.7023 72.038 34.7023 69.176C34.7023 66.098 36.7543 64.154 39.4003 64.154C42.3703 64.154 44.1163 66.62 43.9183 69.698ZM39.4003 65.558C37.9603 65.558 36.6283 66.35 36.4843 68.294H42.1903C42.1363 66.926 41.1463 65.558 39.4003 65.558ZM47.4653 68.744V74H45.8273V64.316H47.4653V65.774C48.0233 64.856 48.9233 64.154 50.3813 64.154C51.8753 64.154 52.7393 64.784 53.1713 65.864C53.9453 64.658 55.0613 64.154 56.4293 64.154C58.6793 64.154 59.5613 65.666 59.5613 67.88V74H57.9233V68.366C57.9233 66.872 57.6353 65.576 55.8533 65.576C54.4313 65.576 53.5133 66.656 53.5133 68.744V74H51.8753V68.366C51.8753 66.872 51.5873 65.576 49.8053 65.576C48.3833 65.576 47.4653 66.656 47.4653 68.744ZM68.1187 69.95V69.338C65.1487 69.626 63.2587 70.076 63.2587 71.408C63.2587 72.326 63.9607 72.938 65.1307 72.938C66.6607 72.938 68.1187 72.236 68.1187 69.95ZM64.7707 74.234C62.9527 74.234 61.4407 73.226 61.4407 71.444C61.4407 69.158 64.0327 68.474 67.9927 68.042V67.808C67.9927 66.026 67.0207 65.45 65.7967 65.45C64.4287 65.45 63.6547 66.17 63.5827 67.376H61.8907C62.0347 65.288 63.9067 64.118 65.7787 64.118C68.4607 64.118 69.6487 65.378 69.6307 68.114L69.6127 70.346C69.5947 71.984 69.6667 73.082 69.8647 74H68.2087C68.1547 73.64 68.1007 73.244 68.0827 72.668C67.4887 73.676 66.4987 74.234 64.7707 74.234ZM73.7094 60.95V74H72.0714V60.95H73.7094ZM84.8577 69.698H77.4057C77.4597 71.786 78.9717 72.794 80.3937 72.794C81.8337 72.794 82.6257 72.146 83.0397 71.192H84.7317C84.2997 72.848 82.7517 74.234 80.3937 74.234C77.3337 74.234 75.6417 72.038 75.6417 69.176C75.6417 66.098 77.6937 64.154 80.3397 64.154C83.3097 64.154 85.0557 66.62 84.8577 69.698ZM80.3397 65.558C78.8997 65.558 77.5677 66.35 77.4237 68.294H83.1297C83.0757 66.926 82.0857 65.558 80.3397 65.558ZM92.3203 69.842H86.5963V68.294H92.3203V69.842ZM94.8272 64.316V63.614C94.8272 61.598 95.2232 60.95 97.4372 60.95H98.2832V62.318H97.4732C96.6092 62.318 96.4652 62.516 96.4652 63.524V64.316H98.2832V65.63H96.4652V74H94.8272V65.63H93.4772V64.316H94.8272ZM104.88 64.28V66.026C104.538 65.972 104.232 65.954 103.962 65.954C102.45 65.954 101.694 66.782 101.694 68.924V74H100.056V64.316H101.658V66.008C102.144 64.91 103.116 64.316 104.394 64.262C104.556 64.262 104.682 64.262 104.88 64.28ZM106.454 64.316H108.092V74H106.454V64.316ZM106.454 60.95H108.092V62.93H106.454V60.95ZM119.241 69.698H111.789C111.843 71.786 113.355 72.794 114.777 72.794C116.217 72.794 117.009 72.146 117.423 71.192H119.115C118.683 72.848 117.135 74.234 114.777 74.234C111.717 74.234 110.025 72.038 110.025 69.176C110.025 66.098 112.077 64.154 114.723 64.154C117.693 64.154 119.439 66.62 119.241 69.698ZM114.723 65.558C113.283 65.558 111.951 66.35 111.807 68.294H117.513C117.459 66.926 116.469 65.558 114.723 65.558ZM122.788 64.316V65.774C123.346 64.856 124.282 64.154 125.92 64.154C128.26 64.154 129.106 65.666 129.106 67.88V74H127.468V68.366C127.468 66.872 127.216 65.576 125.344 65.576C123.76 65.576 122.788 66.656 122.788 68.744V74H121.15V64.316H122.788ZM138.198 65.846V60.95H139.836V74H138.198V72.542C137.604 73.568 136.596 74.234 135.03 74.234C132.798 74.234 130.89 72.416 130.89 69.194C130.89 66.026 132.798 64.154 135.03 64.154C136.596 64.154 137.604 64.82 138.198 65.846ZM138.27 69.194C138.27 66.638 136.902 65.558 135.444 65.558C133.77 65.558 132.672 66.872 132.672 69.194C132.672 71.516 133.77 72.83 135.444 72.83C136.902 72.83 138.27 71.75 138.27 69.194ZM144.057 60.95V74H142.419V60.95H144.057ZM152.037 64.316H153.747L150.291 74.414C149.571 76.502 149.103 77.15 146.925 77.15H146.079V75.782H146.745C147.825 75.782 148.347 75.71 148.779 74.198L148.851 74L145.359 64.316H147.177L149.643 71.786L152.037 64.316ZM163.326 64.154C165.702 64.154 167.142 65.9 167.376 67.556H165.72C165.486 66.404 164.496 65.594 163.218 65.594C161.778 65.594 160.428 66.728 160.428 69.158C160.428 71.606 161.778 72.794 163.218 72.794C164.604 72.794 165.558 71.858 165.792 70.85H167.484C167.142 72.668 165.432 74.234 163.164 74.234C160.374 74.234 158.646 72.128 158.646 69.176C158.646 66.296 160.464 64.154 163.326 64.154ZM169.331 64.316H170.969V74H169.331V64.316ZM169.331 60.95H170.969V62.93H169.331V60.95ZM174.035 64.316V61.886H175.673V64.316H177.509V65.63H175.673V71.372C175.673 72.38 175.745 72.632 176.681 72.632H177.509V74H176.321C174.467 74 174.035 73.586 174.035 71.57V65.63H172.505V64.316H174.035ZM184.803 64.316H186.513L183.057 74.414C182.337 76.502 181.869 77.15 179.691 77.15H178.845V75.782H179.511C180.591 75.782 181.113 75.71 181.545 74.198L181.617 74L178.125 64.316H179.943L182.409 71.786L184.803 64.316ZM192.077 64.316H193.715V74H192.077V64.316ZM192.077 60.95H193.715V62.93H192.077V60.95ZM197.952 64.316V65.774C198.51 64.856 199.446 64.154 201.084 64.154C203.424 64.154 204.27 65.666 204.27 67.88V74H202.632V68.366C202.632 66.872 202.38 65.576 200.508 65.576C198.924 65.576 197.952 66.656 197.952 68.744V74H196.314V64.316H197.952ZM213.362 65.846V60.95H215V74H213.362V72.542C212.768 73.568 211.76 74.234 210.194 74.234C207.962 74.234 206.054 72.416 206.054 69.194C206.054 66.026 207.962 64.154 210.194 64.154C211.76 64.154 212.768 64.82 213.362 65.846ZM213.434 69.194C213.434 66.638 212.066 65.558 210.608 65.558C208.934 65.558 207.836 66.872 207.836 69.194C207.836 71.516 208.934 72.83 210.608 72.83C212.066 72.83 213.434 71.75 213.434 69.194ZM226.133 69.698H218.681C218.735 71.786 220.247 72.794 221.669 72.794C223.109 72.794 223.901 72.146 224.315 71.192H226.007C225.575 72.848 224.027 74.234 221.669 74.234C218.609 74.234 216.917 72.038 216.917 69.176C216.917 66.098 218.969 64.154 221.615 64.154C224.585 64.154 226.331 66.62 226.133 69.698ZM221.615 65.558C220.175 65.558 218.843 66.35 218.699 68.294H224.405C224.351 66.926 223.361 65.558 221.615 65.558ZM235.427 64.316L232.133 68.942L235.751 74H233.789L231.161 70.31L228.551 74H226.679L230.243 69.014L226.895 64.316H228.857L231.215 67.646L233.591 64.316H235.427Z" fill="black"/>
<rect x="24" y="88" width="82" height="31" rx="15.5" fill="#FF9B3F"/>
<path d="M40.3394 108L43.8364 98.575H45.4744L49.0234 108H47.4114L46.6704 105.933H42.5754L41.8474 108H40.3394ZM44.6034 100.187L43.0174 104.685H46.2154L44.6034 100.187ZM50.1244 101.006L51.8924 106.193L53.6474 101.006H55.0514L52.4644 108H51.2294L48.6294 101.006H50.1244ZM58.7873 107.012C59.7753 107.012 60.3213 106.609 60.6203 105.946H61.9853C61.6733 107.103 60.6073 108.169 58.8393 108.169C56.5903 108.169 55.3553 106.518 55.3553 104.49C55.3553 102.319 56.8113 100.876 58.8003 100.876C60.9583 100.876 62.2193 102.644 62.0763 104.919H56.7463C56.8893 106.219 57.6823 107.012 58.7873 107.012ZM58.7873 101.981C57.7343 101.981 56.9673 102.514 56.7723 103.853H60.6723C60.6333 102.826 59.8923 101.981 58.7873 101.981ZM67.0427 100.993V102.397C66.7957 102.371 66.5617 102.358 66.3407 102.358C65.3007 102.358 64.7547 102.865 64.7547 104.334V108H63.4027V101.006H64.7287V102.241C65.0927 101.448 65.7817 100.993 66.6657 100.98C66.7827 100.98 66.9257 100.98 67.0427 100.993ZM72.2267 105.179V104.672C70.0557 104.88 68.9117 105.192 68.9117 106.089C68.9117 106.726 69.4057 107.129 70.2377 107.129C71.3427 107.129 72.2267 106.57 72.2267 105.179ZM69.9387 108.169C68.5217 108.169 67.4427 107.389 67.4427 106.115C67.4427 104.412 69.4577 103.944 72.1617 103.671V103.528C72.1617 102.293 71.5117 101.877 70.6537 101.877C69.7177 101.877 69.1847 102.345 69.1327 103.216H67.7677C67.8717 101.721 69.1067 100.837 70.7057 100.837C72.5127 100.837 73.5397 101.708 73.5267 103.801C73.5267 103.97 73.5007 105.179 73.5007 105.478C73.5007 106.531 73.5657 107.376 73.6957 108H72.3957C72.3437 107.727 72.3177 107.532 72.2787 107.077C71.8627 107.792 71.0827 108.169 69.9387 108.169ZM79.8506 102.033V101.006H81.2026V107.181C81.2026 108.468 80.9296 109.157 80.4486 109.638C79.9156 110.197 79.0836 110.483 78.0046 110.483C76.4316 110.483 75.3006 109.807 75.0796 108.338H76.4706C76.6136 108.975 77.0036 109.352 78.0306 109.352C78.6676 109.352 79.1356 109.183 79.4346 108.845C79.7076 108.546 79.8506 108.195 79.8506 107.467V106.726C79.4216 107.454 78.7326 107.883 77.6926 107.883C76.0676 107.883 74.7156 106.609 74.7156 104.373C74.7156 102.15 76.0676 100.876 77.6926 100.876C78.7326 100.876 79.4216 101.305 79.8506 102.033ZM79.9026 104.373C79.9026 102.709 79.0446 101.994 78.0046 101.994C76.8736 101.994 76.1586 102.865 76.1586 104.373C76.1586 105.894 76.8736 106.778 78.0046 106.778C79.0446 106.778 79.9026 106.037 79.9026 104.373ZM85.9552 107.012C86.9432 107.012 87.4892 106.609 87.7882 105.946H89.1532C88.8412 107.103 87.7752 108.169 86.0072 108.169C83.7582 108.169 82.5232 106.518 82.5232 104.49C82.5232 102.319 83.9792 100.876 85.9682 100.876C88.1262 100.876 89.3872 102.644 89.2442 104.919H83.9142C84.0572 106.219 84.8502 107.012 85.9552 107.012ZM85.9552 101.981C84.9022 101.981 84.1352 102.514 83.9402 103.853H87.8402C87.8012 102.826 87.0602 101.981 85.9552 101.981Z" fill="white"/>
<path d="M64.8716 138.077C66.0546 138.077 66.8996 137.453 66.8996 136.361C66.8996 135.061 65.8076 134.645 64.3516 134.645H64.0266V133.462H64.2996C65.8726 133.462 66.6526 132.994 66.6526 131.954C66.6526 130.966 65.8596 130.485 64.9106 130.485C63.7146 130.485 63.0646 131.213 62.9216 132.305H61.5696C61.7126 130.576 62.9476 129.406 64.9756 129.406C66.5746 129.406 68.0696 130.069 68.0696 131.837C68.0696 132.786 67.5366 133.592 66.6006 133.995C67.8746 134.411 68.3166 135.373 68.3166 136.335C68.3166 138.246 66.6786 139.169 64.8456 139.169C62.6616 139.169 61.5436 137.765 61.4396 136.153H62.7916C62.9346 137.245 63.5846 138.077 64.8716 138.077Z" fill="#FF9B3F"/>
<rect x="240" y="88" width="73" height="31" rx="15.5" fill="#A0DA8B"/>
<path d="M260.742 103.866L259.585 103.632C258.246 103.359 256.972 102.605 256.972 101.019C256.972 99.238 258.818 98.406 260.417 98.406C262.159 98.406 263.628 99.199 264.005 101.097H262.575C262.263 99.992 261.249 99.641 260.352 99.641C259.663 99.641 258.48 99.966 258.48 100.954C258.48 101.734 259.091 102.137 259.91 102.306L261.028 102.54C262.536 102.852 264.187 103.411 264.187 105.322C264.187 107.194 262.38 108.169 260.56 108.169C258.389 108.169 256.894 106.96 256.686 104.984H258.142C258.415 106.284 259.273 106.934 260.612 106.934C261.847 106.934 262.692 106.362 262.692 105.439C262.692 104.464 261.743 104.074 260.742 103.866ZM265.946 101.006V99.212H267.298V101.006H268.676V102.033H267.298V106.024C267.298 106.739 267.415 106.921 268.091 106.921H268.663V108H267.675C266.258 108 265.946 107.649 265.946 106.206V102.033H264.88V101.006H265.946ZM273.63 100.993V102.397C273.383 102.371 273.149 102.358 272.928 102.358C271.888 102.358 271.342 102.865 271.342 104.334V108H269.99V101.006H271.316V102.241C271.68 101.448 272.369 100.993 273.253 100.98C273.37 100.98 273.513 100.98 273.63 100.993ZM275.535 104.529C275.535 106.245 276.484 107.025 277.498 107.025C278.538 107.025 279.474 106.232 279.474 104.529C279.474 102.8 278.538 102.02 277.498 102.02C276.484 102.02 275.535 102.761 275.535 104.529ZM277.498 100.876C279.162 100.876 280.904 101.994 280.904 104.529C280.904 107.051 279.162 108.169 277.498 108.169C275.847 108.169 274.105 107.051 274.105 104.529C274.105 101.994 275.847 100.876 277.498 100.876ZM283.605 101.006V102.02C284.008 101.331 284.71 100.876 285.802 100.876C287.492 100.876 288.142 101.968 288.142 103.593V108H286.79V103.957C286.79 102.956 286.634 102.007 285.347 102.007C284.164 102.007 283.605 102.839 283.605 104.243V108H282.253V101.006H283.605ZM294.486 102.033V101.006H295.838V107.181C295.838 108.468 295.565 109.157 295.084 109.638C294.551 110.197 293.719 110.483 292.64 110.483C291.067 110.483 289.936 109.807 289.715 108.338H291.106C291.249 108.975 291.639 109.352 292.666 109.352C293.303 109.352 293.771 109.183 294.07 108.845C294.343 108.546 294.486 108.195 294.486 107.467V106.726C294.057 107.454 293.368 107.883 292.328 107.883C290.703 107.883 289.351 106.609 289.351 104.373C289.351 102.15 290.703 100.876 292.328 100.876C293.368 100.876 294.057 101.305 294.486 102.033ZM294.538 104.373C294.538 102.709 293.68 101.994 292.64 101.994C291.509 101.994 290.794 102.865 290.794 104.373C290.794 105.894 291.509 106.778 292.64 106.778C293.68 106.778 294.538 106.037 294.538 104.373Z" fill="white"/>
<path d="M277.293 131.382L274.121 135.503H277.293V131.382ZM280.348 135.503V136.725H278.658V139H277.293V136.725H272.626V135.529L277.293 129.575H278.658V135.503H280.348Z" fill="#A0DA8B"/>
<path d="M227.097 103.453C227.39 103.16 227.39 102.685 227.097 102.392L222.324 97.6191C222.032 97.3262 221.557 97.3262 221.264 97.6191C220.971 97.912 220.971 98.3868 221.264 98.6797L225.506 102.922L221.264 107.165C220.971 107.458 220.971 107.933 221.264 108.226C221.557 108.519 222.032 108.519 222.324 108.226L227.097 103.453ZM106.891 103.672H226.567V102.172H106.891V103.672Z" fill="black"/>
</svg>
