<svg width="337" height="179" viewBox="0 0 337 179" fill="none" xmlns="http://www.w3.org/2000/svg">
<rect width="337" height="179" rx="30" fill="white"/>
<path d="M25.68 24.8C25.68 20.63 30.03 18.86 33.54 18.86C37.47 18.86 40.92 20.63 41.79 24.8H38.82C38.1 22.31 35.58 21.44 33.42 21.44C31.74 21.44 28.8 22.19 28.8 24.62C28.8 26.54 30.3 27.5 32.34 27.95L34.86 28.52C38.19 29.24 42.18 30.5 42.18 34.88C42.18 39.11 38.22 41.39 33.9 41.39C28.77 41.39 25.53 38.57 24.96 34.25H27.96C28.53 37.25 30.6 38.81 33.96 38.81C37.2 38.81 39.03 37.31 39.03 35.15C39.03 32.84 37.05 31.94 34.35 31.31L31.65 30.74C28.65 30.08 25.68 28.4 25.68 24.8ZM58.0988 41H54.8588L48.8588 22.04V41H45.7988V19.25H50.9287L56.4788 37.37L62.0288 19.25H67.1588V41H64.0988V22.04L58.0988 41ZM72.3124 41V19.25H87.0724V21.89H75.3724V28.49H86.3824V31.13H75.3724V38.36H87.0724V41H72.3124Z" fill="black"/>
<path d="M36.042 74H33.36L27.384 62.858V74H25.548V60.95H28.248L34.206 72.056V60.95H36.042V74ZM44.8779 74V72.614C44.3199 73.532 43.4379 74.234 41.8359 74.234C39.6039 74.234 38.7399 72.722 38.7399 70.508V64.316H40.3779V70.022C40.3779 71.516 40.6119 72.812 42.4119 72.812C43.9779 72.812 44.8779 71.732 44.8779 69.644V64.316H46.5159V74H44.8779ZM50.7524 68.744V74H49.1144V64.316H50.7524V65.774C51.3104 64.856 52.2104 64.154 53.6684 64.154C55.1624 64.154 56.0264 64.784 56.4584 65.864C57.2324 64.658 58.3484 64.154 59.7164 64.154C61.9664 64.154 62.8484 65.666 62.8484 67.88V74H61.2104V68.366C61.2104 66.872 60.9224 65.576 59.1404 65.576C57.7184 65.576 56.8004 66.656 56.8004 68.744V74H55.1624V68.366C55.1624 66.872 54.8744 65.576 53.0924 65.576C51.6704 65.576 50.7524 66.656 50.7524 68.744ZM66.8698 69.194C66.8698 71.75 68.2378 72.83 69.6958 72.83C71.3698 72.83 72.4678 71.516 72.4678 69.194C72.4678 66.872 71.3698 65.558 69.6958 65.558C68.2378 65.558 66.8698 66.638 66.8698 69.194ZM65.3038 60.95H66.9418V65.846C67.5358 64.82 68.5438 64.154 70.1098 64.154C72.3418 64.154 74.2498 66.026 74.2498 69.194C74.2498 72.416 72.3418 74.234 70.1098 74.234C68.5438 74.234 67.5358 73.568 66.9418 72.542V74H65.3038V60.95ZM84.805 69.698H77.353C77.407 71.786 78.919 72.794 80.341 72.794C81.781 72.794 82.573 72.146 82.987 71.192H84.679C84.247 72.848 82.699 74.234 80.341 74.234C77.281 74.234 75.589 72.038 75.589 69.176C75.589 66.098 77.641 64.154 80.287 64.154C83.257 64.154 85.003 66.62 84.805 69.698ZM80.287 65.558C78.847 65.558 77.515 66.35 77.371 68.294H83.077C83.023 66.926 82.033 65.558 80.287 65.558ZM91.538 64.28V66.026C91.196 65.972 90.89 65.954 90.62 65.954C89.108 65.954 88.352 66.782 88.352 68.924V74H86.714V64.316H88.316V66.008C88.802 64.91 89.774 64.316 91.052 64.262C91.214 64.262 91.34 64.262 91.538 64.28ZM98.4999 69.194C98.4999 71.786 99.9039 72.794 101.398 72.794C102.892 72.794 104.296 71.678 104.296 69.194C104.296 66.602 102.892 65.594 101.398 65.594C99.9039 65.594 98.4999 66.548 98.4999 69.194ZM101.398 64.154C103.648 64.154 106.042 65.684 106.042 69.194C106.042 72.704 103.648 74.234 101.398 74.234C99.1479 74.234 96.7539 72.704 96.7539 69.194C96.7539 65.684 99.1479 64.154 101.398 64.154ZM108.503 64.316V63.614C108.503 61.598 108.899 60.95 111.113 60.95H111.959V62.318H111.149C110.285 62.318 110.141 62.516 110.141 63.524V64.316H111.959V65.63H110.141V74H108.503V65.63H107.153V64.316H108.503ZM117.715 64.28C117.715 61.778 120.325 60.716 122.431 60.716C124.789 60.716 126.859 61.778 127.381 64.28H125.599C125.167 62.786 123.655 62.264 122.359 62.264C121.351 62.264 119.587 62.714 119.587 64.172C119.587 65.324 120.487 65.9 121.711 66.17L123.223 66.512C125.221 66.944 127.615 67.7 127.615 70.328C127.615 72.866 125.239 74.234 122.647 74.234C119.569 74.234 117.625 72.542 117.283 69.95H119.083C119.425 71.75 120.667 72.686 122.683 72.686C124.627 72.686 125.725 71.786 125.725 70.49C125.725 69.104 124.537 68.564 122.917 68.186L121.297 67.844C119.497 67.448 117.715 66.44 117.715 64.28ZM137.166 74H135.222L131.622 62.624V74H129.786V60.95H132.864L136.194 71.822L139.524 60.95H142.602V74H140.766V62.624L137.166 74ZM145.694 74V60.95H154.55V62.534H147.53V66.494H154.136V68.078H147.53V72.416H154.55V74H145.694ZM163.736 67.142H162.026C161.756 65.99 160.892 65.54 159.74 65.54C158.786 65.54 157.706 65.882 157.706 66.764C157.706 67.538 158.246 67.88 159.182 68.078L160.55 68.348C162.314 68.672 163.862 69.374 163.862 71.228C163.862 73.154 162.134 74.234 159.92 74.234C157.382 74.234 155.96 72.56 155.762 70.868H157.49C157.76 72.11 158.516 72.848 159.956 72.848C161.198 72.848 162.206 72.326 162.206 71.408C162.206 70.418 161.288 70.04 160.244 69.806L158.804 69.518C157.49 69.23 156.05 68.654 156.05 66.836C156.05 65.126 157.778 64.136 159.92 64.136C162.026 64.136 163.43 65.288 163.736 67.142ZM170.21 64.316H171.848V65.846C172.442 64.82 173.45 64.154 175.016 64.154C177.248 64.154 179.156 66.026 179.156 69.194C179.156 72.416 177.248 74.234 175.016 74.234C173.45 74.234 172.442 73.568 171.848 72.542V77.15H170.21V64.316ZM171.776 69.194C171.776 71.75 173.144 72.83 174.602 72.83C176.276 72.83 177.374 71.516 177.374 69.194C177.374 66.872 176.276 65.558 174.602 65.558C173.144 65.558 171.776 66.638 171.776 69.194ZM189.764 69.698H182.312C182.366 71.786 183.878 72.794 185.3 72.794C186.74 72.794 187.532 72.146 187.946 71.192H189.638C189.206 72.848 187.658 74.234 185.3 74.234C182.24 74.234 180.548 72.038 180.548 69.176C180.548 66.098 182.6 64.154 185.246 64.154C188.216 64.154 189.962 66.62 189.764 69.698ZM185.246 65.558C183.806 65.558 182.474 66.35 182.33 68.294H188.036C187.982 66.926 186.992 65.558 185.246 65.558ZM196.497 64.28V66.026C196.155 65.972 195.849 65.954 195.579 65.954C194.067 65.954 193.311 66.782 193.311 68.924V74H191.673V64.316H193.275V66.008C193.761 64.91 194.733 64.316 196.011 64.262C196.173 64.262 196.299 64.262 196.497 64.28ZM205.925 74H204.287V63.794H201.263V62.678C203.117 62.624 204.107 62.354 204.809 60.95H205.925V74ZM216.944 67.466C216.944 63.848 215.648 62.084 213.614 62.084C211.544 62.084 210.284 63.848 210.284 67.466C210.284 71.12 211.544 72.866 213.614 72.866C215.684 72.866 216.944 71.12 216.944 67.466ZM218.69 67.466C218.69 71.588 217.088 74.234 213.614 74.234C210.14 74.234 208.538 71.588 208.538 67.466C208.538 63.344 210.14 60.716 213.614 60.716C217.088 60.716 218.69 63.344 218.69 67.466ZM228.844 67.466C228.844 63.848 227.548 62.084 225.514 62.084C223.444 62.084 222.184 63.848 222.184 67.466C222.184 71.12 223.444 72.866 225.514 72.866C227.584 72.866 228.844 71.12 228.844 67.466ZM230.59 67.466C230.59 71.588 228.988 74.234 225.514 74.234C222.04 74.234 220.438 71.588 220.438 67.466C220.438 63.344 222.04 60.716 225.514 60.716C228.988 60.716 230.59 63.344 230.59 67.466ZM231.748 74V71.93H233.818V74.144L232.72 76.502H231.676L232.63 74H231.748ZM243.364 67.466C243.364 63.848 242.068 62.084 240.034 62.084C237.964 62.084 236.704 63.848 236.704 67.466C236.704 71.12 237.964 72.866 240.034 72.866C242.104 72.866 243.364 71.12 243.364 67.466ZM245.11 67.466C245.11 71.588 243.508 74.234 240.034 74.234C236.56 74.234 234.958 71.588 234.958 67.466C234.958 63.344 236.56 60.716 240.034 60.716C243.508 60.716 245.11 63.344 245.11 67.466ZM255.264 67.466C255.264 63.848 253.968 62.084 251.934 62.084C249.864 62.084 248.604 63.848 248.604 67.466C248.604 71.12 249.864 72.866 251.934 72.866C254.004 72.866 255.264 71.12 255.264 67.466ZM257.01 67.466C257.01 71.588 255.408 74.234 251.934 74.234C248.46 74.234 246.858 71.588 246.858 67.466C246.858 63.344 248.46 60.716 251.934 60.716C255.408 60.716 257.01 63.344 257.01 67.466ZM267.165 67.466C267.165 63.848 265.869 62.084 263.835 62.084C261.765 62.084 260.505 63.848 260.505 67.466C260.505 71.12 261.765 72.866 263.835 72.866C265.905 72.866 267.165 71.12 267.165 67.466ZM268.911 67.466C268.911 71.588 267.309 74.234 263.835 74.234C260.361 74.234 258.759 71.588 258.759 67.466C258.759 63.344 260.361 60.716 263.835 60.716C267.309 60.716 268.911 63.344 268.911 67.466ZM25.296 89.316H26.934V90.846C27.528 89.82 28.536 89.154 30.102 89.154C32.334 89.154 34.242 91.026 34.242 94.194C34.242 97.416 32.334 99.234 30.102 99.234C28.536 99.234 27.528 98.568 26.934 97.542V102.15H25.296V89.316ZM26.862 94.194C26.862 96.75 28.23 97.83 29.688 97.83C31.362 97.83 32.46 96.516 32.46 94.194C32.46 91.872 31.362 90.558 29.688 90.558C28.23 90.558 26.862 91.638 26.862 94.194ZM37.4159 94.194C37.4159 96.786 38.8199 97.794 40.3139 97.794C41.8079 97.794 43.2119 96.678 43.2119 94.194C43.2119 91.602 41.8079 90.594 40.3139 90.594C38.8199 90.594 37.4159 91.548 37.4159 94.194ZM40.3139 89.154C42.5639 89.154 44.9579 90.684 44.9579 94.194C44.9579 97.704 42.5639 99.234 40.3139 99.234C38.0639 99.234 35.6699 97.704 35.6699 94.194C35.6699 90.684 38.0639 89.154 40.3139 89.154ZM46.9171 89.316H48.5551V90.846C49.1491 89.82 50.1571 89.154 51.7231 89.154C53.9551 89.154 55.8631 91.026 55.8631 94.194C55.8631 97.416 53.9551 99.234 51.7231 99.234C50.1571 99.234 49.1491 98.568 48.5551 97.542V102.15H46.9171V89.316ZM48.4831 94.194C48.4831 96.75 49.8511 97.83 51.3091 97.83C52.9831 97.83 54.0811 96.516 54.0811 94.194C54.0811 91.872 52.9831 90.558 51.3091 90.558C49.8511 90.558 48.4831 91.638 48.4831 94.194ZM63.7744 99V97.614C63.2164 98.532 62.3344 99.234 60.7324 99.234C58.5004 99.234 57.6364 97.722 57.6364 95.508V89.316H59.2744V95.022C59.2744 96.516 59.5084 97.812 61.3084 97.812C62.8744 97.812 63.7744 96.732 63.7744 94.644V89.316H65.4124V99H63.7744ZM69.6488 85.95V99H68.0108V85.95H69.6488ZM78.3492 94.95V94.338C75.3792 94.626 73.4892 95.076 73.4892 96.408C73.4892 97.326 74.1912 97.938 75.3612 97.938C76.8912 97.938 78.3492 97.236 78.3492 94.95ZM75.0012 99.234C73.1832 99.234 71.6712 98.226 71.6712 96.444C71.6712 94.158 74.2632 93.474 78.2232 93.042V92.808C78.2232 91.026 77.2512 90.45 76.0272 90.45C74.6592 90.45 73.8852 91.17 73.8132 92.376H72.1212C72.2652 90.288 74.1372 89.118 76.0092 89.118C78.6912 89.118 79.8792 90.378 79.8612 93.114L79.8432 95.346C79.8252 96.984 79.8972 98.082 80.0952 99H78.4392C78.3852 98.64 78.3312 98.244 78.3132 97.668C77.7192 98.676 76.7292 99.234 75.0012 99.234ZM82.7699 89.316V86.886H84.4079V89.316H86.2439V90.63H84.4079V96.372C84.4079 97.38 84.4799 97.632 85.4159 97.632H86.2439V99H85.0559C83.2019 99 82.7699 98.586 82.7699 96.57V90.63H81.2399V89.316H82.7699ZM88.3312 89.316H89.9692V99H88.3312V89.316ZM88.3312 85.95H89.9692V87.93H88.3312V85.95ZM93.6835 94.194C93.6835 96.786 95.0875 97.794 96.5815 97.794C98.0755 97.794 99.4795 96.678 99.4795 94.194C99.4795 91.602 98.0755 90.594 96.5815 90.594C95.0875 90.594 93.6835 91.548 93.6835 94.194ZM96.5815 89.154C98.8315 89.154 101.225 90.684 101.225 94.194C101.225 97.704 98.8315 99.234 96.5815 99.234C94.3315 99.234 91.9375 97.704 91.9375 94.194C91.9375 90.684 94.3315 89.154 96.5815 89.154ZM104.823 89.316V90.774C105.381 89.856 106.317 89.154 107.955 89.154C110.295 89.154 111.141 90.666 111.141 92.88V99H109.503V93.366C109.503 91.872 109.251 90.576 107.379 90.576C105.795 90.576 104.823 91.656 104.823 93.744V99H103.185V89.316H104.823Z" fill="black"/>
<rect x="24" y="113" width="73" height="31" rx="15.5" fill="#A0DA8B"/>
<path d="M44.742 128.866L43.585 128.632C42.246 128.359 40.972 127.605 40.972 126.019C40.972 124.238 42.818 123.406 44.417 123.406C46.159 123.406 47.628 124.199 48.005 126.097H46.575C46.263 124.992 45.249 124.641 44.352 124.641C43.663 124.641 42.48 124.966 42.48 125.954C42.48 126.734 43.091 127.137 43.91 127.306L45.028 127.54C46.536 127.852 48.187 128.411 48.187 130.322C48.187 132.194 46.38 133.169 44.56 133.169C42.389 133.169 40.894 131.96 40.686 129.984H42.142C42.415 131.284 43.273 131.934 44.612 131.934C45.847 131.934 46.692 131.362 46.692 130.439C46.692 129.464 45.743 129.074 44.742 128.866ZM49.9462 126.006V124.212H51.2982V126.006H52.6762V127.033H51.2982V131.024C51.2982 131.739 51.4152 131.921 52.0912 131.921H52.6632V133H51.6752C50.2582 133 49.9462 132.649 49.9462 131.206V127.033H48.8802V126.006H49.9462ZM57.6296 125.993V127.397C57.3826 127.371 57.1486 127.358 56.9276 127.358C55.8876 127.358 55.3416 127.865 55.3416 129.334V133H53.9896V126.006H55.3156V127.241C55.6796 126.448 56.3686 125.993 57.2526 125.98C57.3696 125.98 57.5126 125.98 57.6296 125.993ZM59.5346 129.529C59.5346 131.245 60.4836 132.025 61.4976 132.025C62.5376 132.025 63.4736 131.232 63.4736 129.529C63.4736 127.8 62.5376 127.02 61.4976 127.02C60.4836 127.02 59.5346 127.761 59.5346 129.529ZM61.4976 125.876C63.1616 125.876 64.9036 126.994 64.9036 129.529C64.9036 132.051 63.1616 133.169 61.4976 133.169C59.8466 133.169 58.1046 132.051 58.1046 129.529C58.1046 126.994 59.8466 125.876 61.4976 125.876ZM67.6053 126.006V127.02C68.0083 126.331 68.7103 125.876 69.8023 125.876C71.4923 125.876 72.1423 126.968 72.1423 128.593V133H70.7903V128.957C70.7903 127.956 70.6343 127.007 69.3473 127.007C68.1643 127.007 67.6053 127.839 67.6053 129.243V133H66.2533V126.006H67.6053ZM78.4864 127.033V126.006H79.8384V132.181C79.8384 133.468 79.5654 134.157 79.0844 134.638C78.5514 135.197 77.7194 135.483 76.6404 135.483C75.0674 135.483 73.9364 134.807 73.7154 133.338H75.1064C75.2494 133.975 75.6394 134.352 76.6664 134.352C77.3034 134.352 77.7714 134.183 78.0704 133.845C78.3434 133.546 78.4864 133.195 78.4864 132.467V131.726C78.0574 132.454 77.3684 132.883 76.3284 132.883C74.7034 132.883 73.3514 131.609 73.3514 129.373C73.3514 127.15 74.7034 125.876 76.3284 125.876C77.3684 125.876 78.0574 126.305 78.4864 127.033ZM78.5384 129.373C78.5384 127.709 77.6804 126.994 76.6404 126.994C75.5094 126.994 74.7944 127.865 74.7944 129.373C74.7944 130.894 75.5094 131.778 76.6404 131.778C77.6804 131.778 78.5384 131.037 78.5384 129.373Z" fill="white"/>
<path d="M47.0826 164H45.7176V156.72H43.5726V155.797C44.9116 155.758 45.6396 155.589 46.1076 154.575H47.0826V164ZM52.0465 164H50.6815V156.72H48.5365V155.797C49.8755 155.758 50.6035 155.589 51.0715 154.575H52.0465V164ZM57.0685 163.077C58.1605 163.077 59.0575 162.297 59.0575 160.932C59.0575 159.45 58.0305 158.787 57.0425 158.787C56.1195 158.787 55.4825 159.281 55.2745 159.801L53.9615 159.723L54.5855 154.575H60.0975V155.81H55.6905L55.3785 158.332C55.8595 157.903 56.5485 157.682 57.3675 157.682C59.0055 157.682 60.4745 158.8 60.4745 160.919C60.4745 163.051 58.8625 164.169 57.0555 164.169C54.8845 164.169 53.8055 162.752 53.6625 161.192H55.0145C55.1705 162.336 55.7815 163.077 57.0685 163.077ZM65.3292 163.077C66.7722 163.077 67.6042 161.816 67.6042 159.281C67.6042 156.772 66.7722 155.485 65.3292 155.485C63.9122 155.485 63.0542 156.772 63.0542 159.281C63.0542 161.816 63.9122 163.077 65.3292 163.077ZM65.3292 164.169C62.8202 164.169 61.6242 162.232 61.6242 159.281C61.6242 156.343 62.8202 154.406 65.3292 154.406C67.8512 154.406 69.0342 156.343 69.0342 159.281C69.0342 162.232 67.8512 164.169 65.3292 164.169ZM73.5216 163.077C74.6136 163.077 75.5106 162.297 75.5106 160.932C75.5106 159.45 74.4836 158.787 73.4956 158.787C72.5726 158.787 71.9356 159.281 71.7276 159.801L70.4146 159.723L71.0386 154.575H76.5506V155.81H72.1436L71.8316 158.332C72.3126 157.903 73.0016 157.682 73.8206 157.682C75.4586 157.682 76.9276 158.8 76.9276 160.919C76.9276 163.051 75.3156 164.169 73.5086 164.169C71.3376 164.169 70.2586 162.752 70.1156 161.192H71.4676C71.6236 162.336 72.2346 163.077 73.5216 163.077Z" fill="#A0DA8B"/>
<rect x="240" y="113" width="73" height="31" rx="15.5" fill="#A0DA8B"/>
<path d="M260.742 128.866L259.585 128.632C258.246 128.359 256.972 127.605 256.972 126.019C256.972 124.238 258.818 123.406 260.417 123.406C262.159 123.406 263.628 124.199 264.005 126.097H262.575C262.263 124.992 261.249 124.641 260.352 124.641C259.663 124.641 258.48 124.966 258.48 125.954C258.48 126.734 259.091 127.137 259.91 127.306L261.028 127.54C262.536 127.852 264.187 128.411 264.187 130.322C264.187 132.194 262.38 133.169 260.56 133.169C258.389 133.169 256.894 131.96 256.686 129.984H258.142C258.415 131.284 259.273 131.934 260.612 131.934C261.847 131.934 262.692 131.362 262.692 130.439C262.692 129.464 261.743 129.074 260.742 128.866ZM265.946 126.006V124.212H267.298V126.006H268.676V127.033H267.298V131.024C267.298 131.739 267.415 131.921 268.091 131.921H268.663V133H267.675C266.258 133 265.946 132.649 265.946 131.206V127.033H264.88V126.006H265.946ZM273.63 125.993V127.397C273.383 127.371 273.149 127.358 272.928 127.358C271.888 127.358 271.342 127.865 271.342 129.334V133H269.99V126.006H271.316V127.241C271.68 126.448 272.369 125.993 273.253 125.98C273.37 125.98 273.513 125.98 273.63 125.993ZM275.535 129.529C275.535 131.245 276.484 132.025 277.498 132.025C278.538 132.025 279.474 131.232 279.474 129.529C279.474 127.8 278.538 127.02 277.498 127.02C276.484 127.02 275.535 127.761 275.535 129.529ZM277.498 125.876C279.162 125.876 280.904 126.994 280.904 129.529C280.904 132.051 279.162 133.169 277.498 133.169C275.847 133.169 274.105 132.051 274.105 129.529C274.105 126.994 275.847 125.876 277.498 125.876ZM283.605 126.006V127.02C284.008 126.331 284.71 125.876 285.802 125.876C287.492 125.876 288.142 126.968 288.142 128.593V133H286.79V128.957C286.79 127.956 286.634 127.007 285.347 127.007C284.164 127.007 283.605 127.839 283.605 129.243V133H282.253V126.006H283.605ZM294.486 127.033V126.006H295.838V132.181C295.838 133.468 295.565 134.157 295.084 134.638C294.551 135.197 293.719 135.483 292.64 135.483C291.067 135.483 289.936 134.807 289.715 133.338H291.106C291.249 133.975 291.639 134.352 292.666 134.352C293.303 134.352 293.771 134.183 294.07 133.845C294.343 133.546 294.486 133.195 294.486 132.467V131.726C294.057 132.454 293.368 132.883 292.328 132.883C290.703 132.883 289.351 131.609 289.351 129.373C289.351 127.15 290.703 125.876 292.328 125.876C293.368 125.876 294.057 126.305 294.486 127.033ZM294.538 129.373C294.538 127.709 293.68 126.994 292.64 126.994C291.509 126.994 290.794 127.865 290.794 129.373C290.794 130.894 291.509 131.778 292.64 131.778C293.68 131.778 294.538 131.037 294.538 129.373Z" fill="white"/>
<path d="M261.927 164H260.562V156.72H258.417V155.797C259.756 155.758 260.484 155.589 260.952 154.575H261.927V164ZM266.949 154.406C268.691 154.406 269.978 155.29 269.978 156.889C269.978 158.956 267.898 160.841 265.155 162.778H270.225V164H263.4V162.83C266.637 160.36 268.561 158.67 268.561 157.032C268.561 156.083 267.937 155.485 266.91 155.485C265.948 155.485 265.012 156.031 265.012 157.552H263.634C263.595 155.667 264.934 154.406 266.949 154.406ZM274.905 163.077C276.348 163.077 277.18 161.816 277.18 159.281C277.18 156.772 276.348 155.485 274.905 155.485C273.488 155.485 272.63 156.772 272.63 159.281C272.63 161.816 273.488 163.077 274.905 163.077ZM274.905 164.169C272.396 164.169 271.2 162.232 271.2 159.281C271.2 156.343 272.396 154.406 274.905 154.406C277.427 154.406 278.61 156.343 278.61 159.281C278.61 162.232 277.427 164.169 274.905 164.169ZM283.098 154.406C284.84 154.406 286.127 155.29 286.127 156.889C286.127 158.956 284.047 160.841 281.304 162.778H286.374V164H279.549V162.83C282.786 160.36 284.71 158.67 284.71 157.032C284.71 156.083 284.086 155.485 283.059 155.485C282.097 155.485 281.161 156.031 281.161 157.552H279.783C279.744 155.667 281.083 154.406 283.098 154.406ZM290.677 163.077C291.769 163.077 292.666 162.297 292.666 160.932C292.666 159.45 291.639 158.787 290.651 158.787C289.728 158.787 289.091 159.281 288.883 159.801L287.57 159.723L288.194 154.575H293.706V155.81H289.299L288.987 158.332C289.468 157.903 290.157 157.682 290.976 157.682C292.614 157.682 294.083 158.8 294.083 160.919C294.083 163.051 292.471 164.169 290.664 164.169C288.493 164.169 287.414 162.752 287.271 161.192H288.623C288.779 162.336 289.39 163.077 290.677 163.077Z" fill="#A0DA8B"/>
<path d="M227.097 128.453C227.39 128.16 227.39 127.685 227.097 127.392L222.324 122.619C222.032 122.326 221.557 122.326 221.264 122.619C220.971 122.912 220.971 123.387 221.264 123.68L225.506 127.922L221.264 132.165C220.971 132.458 220.971 132.933 221.264 133.226C221.557 133.519 222.032 133.519 222.324 133.226L227.097 128.453ZM96.9192 128.672L226.567 128.672L226.567 127.172L96.9192 127.172L96.9192 128.672Z" fill="black"/>
</svg>
