<svg width="337" height="179" viewBox="0 0 337 179" fill="none" xmlns="http://www.w3.org/2000/svg">
<rect width="337" height="179" rx="30" fill="white"/>
<path d="M39.66 19.25L43.95 37.52L47.97 19.25H51.18L45.75 41H42.03L37.83 23.12L33.72 41H30L24.48 19.25H27.84L32.04 37.52L36.06 19.25H39.66ZM62.7851 34.25V33.23C57.8351 33.71 54.6851 34.46 54.6851 36.68C54.6851 38.21 55.8551 39.23 57.8051 39.23C60.3551 39.23 62.7851 38.06 62.7851 34.25ZM57.2051 41.39C54.1751 41.39 51.6551 39.71 51.6551 36.74C51.6551 32.93 55.9751 31.79 62.5751 31.07V30.68C62.5751 27.71 60.9551 26.75 58.9151 26.75C56.6351 26.75 55.3451 27.95 55.2251 29.96H52.4051C52.6451 26.48 55.7651 24.53 58.8851 24.53C63.3551 24.53 65.3351 26.63 65.3051 31.19L65.2751 34.91C65.2451 37.64 65.3651 39.47 65.6951 41H62.9351C62.8451 40.4 62.7551 39.74 62.7251 38.78C61.7351 40.46 60.0851 41.39 57.2051 41.39ZM70.1529 24.86V20.81H72.8829V24.86H75.9429V27.05H72.8829V36.62C72.8829 38.3 73.0029 38.72 74.5629 38.72H75.9429V41H73.9629C70.8729 41 70.1529 40.31 70.1529 36.95V27.05H67.6029V24.86H70.1529ZM93.2323 33.83H80.8123C80.9023 37.31 83.4223 38.99 85.7923 38.99C88.1923 38.99 89.5123 37.91 90.2023 36.32H93.0223C92.3023 39.08 89.7223 41.39 85.7923 41.39C80.6923 41.39 77.8723 37.73 77.8723 32.96C77.8723 27.83 81.2923 24.59 85.7023 24.59C90.6523 24.59 93.5623 28.7 93.2323 33.83ZM85.7023 26.93C83.3023 26.93 81.0823 28.25 80.8423 31.49H90.3523C90.2623 29.21 88.6123 26.93 85.7023 26.93ZM104.454 24.8V27.71C103.884 27.62 103.374 27.59 102.924 27.59C100.404 27.59 99.1439 28.97 99.1439 32.54V41H96.4139V24.86H99.0839V27.68C99.8939 25.85 101.514 24.86 103.644 24.77C103.914 24.77 104.124 24.77 104.454 24.8ZM124.367 34.25V33.23C119.417 33.71 116.267 34.46 116.267 36.68C116.267 38.21 117.437 39.23 119.387 39.23C121.937 39.23 124.367 38.06 124.367 34.25ZM118.787 41.39C115.757 41.39 113.237 39.71 113.237 36.74C113.237 32.93 117.557 31.79 124.157 31.07V30.68C124.157 27.71 122.537 26.75 120.497 26.75C118.217 26.75 116.927 27.95 116.807 29.96H113.987C114.227 26.48 117.347 24.53 120.467 24.53C124.937 24.53 126.917 26.63 126.887 31.19L126.857 34.91C126.827 37.64 126.947 39.47 127.277 41H124.517C124.427 40.4 124.337 39.74 124.307 38.78C123.317 40.46 121.667 41.39 118.787 41.39ZM131.678 24.86L136.058 37.22L140.438 24.86H143.258L137.168 41H134.738L128.648 24.86H131.678ZM155.012 34.25V33.23C150.062 33.71 146.912 34.46 146.912 36.68C146.912 38.21 148.082 39.23 150.032 39.23C152.582 39.23 155.012 38.06 155.012 34.25ZM149.432 41.39C146.402 41.39 143.882 39.71 143.882 36.74C143.882 32.93 148.202 31.79 154.802 31.07V30.68C154.802 27.71 153.182 26.75 151.142 26.75C148.862 26.75 147.572 27.95 147.452 29.96H144.632C144.872 26.48 147.992 24.53 151.112 24.53C155.582 24.53 157.562 26.63 157.532 31.19L157.502 34.91C157.472 37.64 157.592 39.47 157.922 41H155.162C155.072 40.4 154.982 39.74 154.952 38.78C153.962 40.46 152.312 41.39 149.432 41.39ZM161.599 24.86H164.329V41H161.599V24.86ZM161.599 19.25H164.329V22.55H161.599V19.25ZM171.39 19.25V41H168.66V19.25H171.39ZM185.891 34.25V33.23C180.941 33.71 177.791 34.46 177.791 36.68C177.791 38.21 178.961 39.23 180.911 39.23C183.461 39.23 185.891 38.06 185.891 34.25ZM180.311 41.39C177.281 41.39 174.761 39.71 174.761 36.74C174.761 32.93 179.081 31.79 185.681 31.07V30.68C185.681 27.71 184.061 26.75 182.021 26.75C179.741 26.75 178.451 27.95 178.331 29.96H175.511C175.751 26.48 178.871 24.53 181.991 24.53C186.461 24.53 188.441 26.63 188.411 31.19L188.381 34.91C188.351 37.64 188.471 39.47 188.801 41H186.041C185.951 40.4 185.861 39.74 185.831 38.78C184.841 40.46 183.191 41.39 180.311 41.39ZM195.088 32.99C195.088 37.25 197.368 39.05 199.798 39.05C202.588 39.05 204.418 36.86 204.418 32.99C204.418 29.12 202.588 26.93 199.798 26.93C197.368 26.93 195.088 28.73 195.088 32.99ZM192.478 19.25H195.208V27.41C196.198 25.7 197.878 24.59 200.488 24.59C204.208 24.59 207.388 27.71 207.388 32.99C207.388 38.36 204.208 41.39 200.488 41.39C197.878 41.39 196.198 40.28 195.208 38.57V41H192.478V19.25ZM210.496 24.86H213.226V41H210.496V24.86ZM210.496 19.25H213.226V22.55H210.496V19.25ZM220.286 19.25V41H217.556V19.25H220.286ZM224.617 24.86H227.347V41H224.617V24.86ZM224.617 19.25H227.347V22.55H224.617V19.25ZM232.458 24.86V20.81H235.188V24.86H238.248V27.05H235.188V36.62C235.188 38.3 235.308 38.72 236.868 38.72H238.248V41H236.268C233.178 41 232.458 40.31 232.458 36.95V27.05H229.908V24.86H232.458ZM250.403 24.86H253.253L247.493 41.69C246.293 45.17 245.513 46.25 241.883 46.25H240.473V43.97H241.583C243.383 43.97 244.253 43.85 244.973 41.33L245.093 41L239.273 24.86H242.303L246.413 37.31L250.403 24.86Z" fill="black"/>
<path d="M25.548 60.95H29.634C32.82 60.95 35.052 61.67 35.052 64.892C35.052 68.132 32.82 68.834 29.634 68.834H27.384V74H25.548V60.95ZM29.778 62.498H27.384V67.232H29.778C31.704 67.232 33.18 67.034 33.18 64.892C33.18 62.768 31.704 62.498 29.778 62.498ZM44.8323 69.698H37.3803C37.4343 71.786 38.9463 72.794 40.3683 72.794C41.8083 72.794 42.6003 72.146 43.0143 71.192H44.7063C44.2743 72.848 42.7263 74.234 40.3683 74.234C37.3083 74.234 35.6163 72.038 35.6163 69.176C35.6163 66.098 37.6683 64.154 40.3143 64.154C43.2843 64.154 45.0303 66.62 44.8323 69.698ZM40.3143 65.558C38.8743 65.558 37.5423 66.35 37.3983 68.294H43.1043C43.0503 66.926 42.0603 65.558 40.3143 65.558ZM51.5653 64.28V66.026C51.2233 65.972 50.9173 65.954 50.6473 65.954C49.1353 65.954 48.3793 66.782 48.3793 68.924V74H46.7413V64.316H48.3433V66.008C48.8293 64.91 49.8013 64.316 51.0793 64.262C51.2413 64.262 51.3673 64.262 51.5653 64.28ZM56.978 64.154C59.354 64.154 60.794 65.9 61.028 67.556H59.372C59.138 66.404 58.148 65.594 56.87 65.594C55.43 65.594 54.08 66.728 54.08 69.158C54.08 71.606 55.43 72.794 56.87 72.794C58.256 72.794 59.21 71.858 59.444 70.85H61.136C60.794 72.668 59.084 74.234 56.816 74.234C54.026 74.234 52.298 72.128 52.298 69.176C52.298 66.296 54.116 64.154 56.978 64.154ZM71.6214 69.698H64.1694C64.2234 71.786 65.7354 72.794 67.1574 72.794C68.5974 72.794 69.3894 72.146 69.8034 71.192H71.4954C71.0634 72.848 69.5154 74.234 67.1574 74.234C64.0974 74.234 62.4054 72.038 62.4054 69.176C62.4054 66.098 64.4574 64.154 67.1034 64.154C70.0734 64.154 71.8194 66.62 71.6214 69.698ZM67.1034 65.558C65.6634 65.558 64.3314 66.35 64.1874 68.294H69.8934C69.8394 66.926 68.8494 65.558 67.1034 65.558ZM75.1684 64.316V65.774C75.7264 64.856 76.6624 64.154 78.3004 64.154C80.6404 64.154 81.4864 65.666 81.4864 67.88V74H79.8484V68.366C79.8484 66.872 79.5964 65.576 77.7244 65.576C76.1404 65.576 75.1684 66.656 75.1684 68.744V74H73.5304V64.316H75.1684ZM84.4046 64.316V61.886H86.0426V64.316H87.8786V65.63H86.0426V71.372C86.0426 72.38 86.1146 72.632 87.0506 72.632H87.8786V74H86.6906C84.8366 74 84.4046 73.586 84.4046 71.57V65.63H82.8746V64.316H84.4046ZM95.8921 69.95V69.338C92.9221 69.626 91.0321 70.076 91.0321 71.408C91.0321 72.326 91.7341 72.938 92.9041 72.938C94.4341 72.938 95.8921 72.236 95.8921 69.95ZM92.5441 74.234C90.7261 74.234 89.2141 73.226 89.2141 71.444C89.2141 69.158 91.8061 68.474 95.7661 68.042V67.808C95.7661 66.026 94.7941 65.45 93.5701 65.45C92.2021 65.45 91.4281 66.17 91.3561 67.376H89.6641C89.8081 65.288 91.6801 64.118 93.5521 64.118C96.2341 64.118 97.4221 65.378 97.4041 68.114L97.3861 70.346C97.3681 71.984 97.4401 73.082 97.6381 74H95.9821C95.9281 73.64 95.8741 73.244 95.8561 72.668C95.2621 73.676 94.2721 74.234 92.5441 74.234ZM106.361 65.846V64.316H107.999V72.704C107.999 74.666 107.639 75.494 107.081 76.106C106.379 76.916 105.173 77.384 103.733 77.384C101.519 77.384 100.061 76.376 99.7548 74.414H101.501C101.699 75.278 102.257 75.944 103.751 75.944C104.633 75.944 105.281 75.71 105.731 75.224C106.073 74.828 106.361 74.414 106.361 73.082V72.164C105.767 73.19 104.849 73.838 103.283 73.838C101.141 73.838 99.1788 72.11 99.1788 68.996C99.1788 65.9 101.141 64.154 103.283 64.154C104.849 64.154 105.767 64.82 106.361 65.846ZM106.433 68.996C106.433 66.548 105.137 65.558 103.697 65.558C102.095 65.558 100.961 66.782 100.961 68.996C100.961 71.228 102.095 72.452 103.697 72.452C105.137 72.452 106.433 71.462 106.433 68.996ZM119.135 69.698H111.683C111.737 71.786 113.249 72.794 114.671 72.794C116.111 72.794 116.903 72.146 117.317 71.192H119.009C118.577 72.848 117.029 74.234 114.671 74.234C111.611 74.234 109.919 72.038 109.919 69.176C109.919 66.098 111.971 64.154 114.617 64.154C117.587 64.154 119.333 66.62 119.135 69.698ZM114.617 65.558C113.177 65.558 111.845 66.35 111.701 68.294H117.407C117.353 66.926 116.363 65.558 114.617 65.558ZM126.432 69.194C126.432 71.786 127.836 72.794 129.33 72.794C130.824 72.794 132.228 71.678 132.228 69.194C132.228 66.602 130.824 65.594 129.33 65.594C127.836 65.594 126.432 66.548 126.432 69.194ZM129.33 64.154C131.58 64.154 133.974 65.684 133.974 69.194C133.974 72.704 131.58 74.234 129.33 74.234C127.08 74.234 124.686 72.704 124.686 69.194C124.686 65.684 127.08 64.154 129.33 64.154ZM136.435 64.316V63.614C136.435 61.598 136.831 60.95 139.045 60.95H139.891V62.318H139.081C138.217 62.318 138.073 62.516 138.073 63.524V64.316H139.891V65.63H138.073V74H136.435V65.63H135.085V64.316H136.435ZM145.935 64.316H147.573V65.846C148.167 64.82 149.175 64.154 150.741 64.154C152.973 64.154 154.881 66.026 154.881 69.194C154.881 72.416 152.973 74.234 150.741 74.234C149.175 74.234 148.167 73.568 147.573 72.542V77.15H145.935V64.316ZM147.501 69.194C147.501 71.75 148.869 72.83 150.327 72.83C152.001 72.83 153.099 71.516 153.099 69.194C153.099 66.872 152.001 65.558 150.327 65.558C148.869 65.558 147.501 66.638 147.501 69.194ZM158.055 69.194C158.055 71.786 159.459 72.794 160.953 72.794C162.447 72.794 163.851 71.678 163.851 69.194C163.851 66.602 162.447 65.594 160.953 65.594C159.459 65.594 158.055 66.548 158.055 69.194ZM160.953 64.154C163.203 64.154 165.597 65.684 165.597 69.194C165.597 72.704 163.203 74.234 160.953 74.234C158.703 74.234 156.309 72.704 156.309 69.194C156.309 65.684 158.703 64.154 160.953 64.154ZM167.556 64.316H169.194V65.846C169.788 64.82 170.796 64.154 172.362 64.154C174.594 64.154 176.502 66.026 176.502 69.194C176.502 72.416 174.594 74.234 172.362 74.234C170.796 74.234 169.788 73.568 169.194 72.542V77.15H167.556V64.316ZM169.122 69.194C169.122 71.75 170.49 72.83 171.948 72.83C173.622 72.83 174.72 71.516 174.72 69.194C174.72 66.872 173.622 65.558 171.948 65.558C170.49 65.558 169.122 66.638 169.122 69.194ZM184.413 74V72.614C183.855 73.532 182.973 74.234 181.371 74.234C179.139 74.234 178.275 72.722 178.275 70.508V64.316H179.913V70.022C179.913 71.516 180.147 72.812 181.947 72.812C183.513 72.812 184.413 71.732 184.413 69.644V64.316H186.051V74H184.413ZM190.288 60.95V74H188.65V60.95H190.288ZM198.988 69.95V69.338C196.018 69.626 194.128 70.076 194.128 71.408C194.128 72.326 194.83 72.938 196 72.938C197.53 72.938 198.988 72.236 198.988 69.95ZM195.64 74.234C193.822 74.234 192.31 73.226 192.31 71.444C192.31 69.158 194.902 68.474 198.862 68.042V67.808C198.862 66.026 197.89 65.45 196.666 65.45C195.298 65.45 194.524 66.17 194.452 67.376H192.76C192.904 65.288 194.776 64.118 196.648 64.118C199.33 64.118 200.518 65.378 200.5 68.114L200.482 70.346C200.464 71.984 200.536 73.082 200.734 74H199.078C199.024 73.64 198.97 73.244 198.952 72.668C198.358 73.676 197.368 74.234 195.64 74.234ZM203.409 64.316V61.886H205.047V64.316H206.883V65.63H205.047V71.372C205.047 72.38 205.119 72.632 206.055 72.632H206.883V74H205.695C203.841 74 203.409 73.586 203.409 71.57V65.63H201.879V64.316H203.409ZM208.97 64.316H210.608V74H208.97V64.316ZM208.97 60.95H210.608V62.93H208.97V60.95ZM214.322 69.194C214.322 71.786 215.726 72.794 217.22 72.794C218.714 72.794 220.118 71.678 220.118 69.194C220.118 66.602 218.714 65.594 217.22 65.594C215.726 65.594 214.322 66.548 214.322 69.194ZM217.22 64.154C219.47 64.154 221.864 65.684 221.864 69.194C221.864 72.704 219.47 74.234 217.22 74.234C214.97 74.234 212.576 72.704 212.576 69.194C212.576 65.684 214.97 64.154 217.22 64.154ZM225.461 64.316V65.774C226.019 64.856 226.955 64.154 228.593 64.154C230.933 64.154 231.779 65.666 231.779 67.88V74H230.141V68.366C230.141 66.872 229.889 65.576 228.017 65.576C226.433 65.576 225.461 66.656 225.461 68.744V74H223.823V64.316H225.461ZM240.913 71.48L242.839 64.316H244.531L246.457 71.48L248.311 64.316H250.075L247.285 74H245.791L243.649 66.206L241.579 74H240.085L237.295 64.316H239.059L240.913 71.48ZM251.456 64.316H253.094V74H251.456V64.316ZM251.456 60.95H253.094V62.93H251.456V60.95ZM256.16 64.316V61.886H257.798V64.316H259.634V65.63H257.798V71.372C257.798 72.38 257.87 72.632 258.806 72.632H259.634V74H258.446C256.592 74 256.16 73.586 256.16 71.57V65.63H254.63V64.316H256.16ZM263.36 60.95V65.774C263.918 64.856 264.854 64.154 266.492 64.154C268.832 64.154 269.678 65.666 269.678 67.88V74H268.04V68.366C268.04 66.872 267.788 65.576 265.916 65.576C264.332 65.576 263.36 66.656 263.36 68.744V74H261.722V60.95H263.36ZM31.398 94.95V94.338C28.428 94.626 26.538 95.076 26.538 96.408C26.538 97.326 27.24 97.938 28.41 97.938C29.94 97.938 31.398 97.236 31.398 94.95ZM28.05 99.234C26.232 99.234 24.72 98.226 24.72 96.444C24.72 94.158 27.312 93.474 31.272 93.042V92.808C31.272 91.026 30.3 90.45 29.076 90.45C27.708 90.45 26.934 91.17 26.862 92.376H25.17C25.314 90.288 27.186 89.118 29.058 89.118C31.74 89.118 32.928 90.378 32.91 93.114L32.892 95.346C32.874 96.984 32.946 98.082 33.144 99H31.488C31.434 98.64 31.38 98.244 31.362 97.668C30.768 98.676 29.778 99.234 28.05 99.234ZM39.3647 89.154C41.7407 89.154 43.1807 90.9 43.4147 92.556H41.7587C41.5247 91.404 40.5347 90.594 39.2567 90.594C37.8167 90.594 36.4667 91.728 36.4667 94.158C36.4667 96.606 37.8167 97.794 39.2567 97.794C40.6427 97.794 41.5967 96.858 41.8307 95.85H43.5227C43.1807 97.668 41.4707 99.234 39.2027 99.234C36.4127 99.234 34.6847 97.128 34.6847 94.176C34.6847 91.296 36.5027 89.154 39.3647 89.154ZM49.4721 89.154C51.8481 89.154 53.2881 90.9 53.5221 92.556H51.8661C51.6321 91.404 50.6421 90.594 49.3641 90.594C47.9241 90.594 46.5741 91.728 46.5741 94.158C46.5741 96.606 47.9241 97.794 49.3641 97.794C50.7501 97.794 51.7041 96.858 51.9381 95.85H53.6301C53.2881 97.668 51.5781 99.234 49.3101 99.234C46.5201 99.234 44.7921 97.128 44.7921 94.176C44.7921 91.296 46.6101 89.154 49.4721 89.154ZM64.1155 94.698H56.6635C56.7175 96.786 58.2295 97.794 59.6515 97.794C61.0915 97.794 61.8835 97.146 62.2975 96.192H63.9895C63.5575 97.848 62.0095 99.234 59.6515 99.234C56.5915 99.234 54.8995 97.038 54.8995 94.176C54.8995 91.098 56.9515 89.154 59.5975 89.154C62.5675 89.154 64.3135 91.62 64.1155 94.698ZM59.5975 90.558C58.1575 90.558 56.8255 91.35 56.6815 93.294H62.3875C62.3335 91.926 61.3435 90.558 59.5975 90.558ZM73.3137 92.142H71.6037C71.3337 90.99 70.4697 90.54 69.3177 90.54C68.3637 90.54 67.2837 90.882 67.2837 91.764C67.2837 92.538 67.8237 92.88 68.7597 93.078L70.1277 93.348C71.8917 93.672 73.4397 94.374 73.4397 96.228C73.4397 98.154 71.7117 99.234 69.4977 99.234C66.9597 99.234 65.5377 97.56 65.3397 95.868H67.0677C67.3377 97.11 68.0937 97.848 69.5337 97.848C70.7757 97.848 71.7837 97.326 71.7837 96.408C71.7837 95.418 70.8657 95.04 69.8217 94.806L68.3817 94.518C67.0677 94.23 65.6277 93.654 65.6277 91.836C65.6277 90.126 67.3557 89.136 69.4977 89.136C71.6037 89.136 73.0077 90.288 73.3137 92.142ZM82.7707 92.142H81.0607C80.7907 90.99 79.9267 90.54 78.7747 90.54C77.8207 90.54 76.7407 90.882 76.7407 91.764C76.7407 92.538 77.2807 92.88 78.2167 93.078L79.5847 93.348C81.3487 93.672 82.8967 94.374 82.8967 96.228C82.8967 98.154 81.1687 99.234 78.9547 99.234C76.4167 99.234 74.9947 97.56 74.7967 95.868H76.5247C76.7947 97.11 77.5507 97.848 78.9907 97.848C80.2327 97.848 81.2407 97.326 81.2407 96.408C81.2407 95.418 80.3227 95.04 79.2787 94.806L77.8387 94.518C76.5247 94.23 75.0847 93.654 75.0847 91.836C75.0847 90.126 76.8127 89.136 78.9547 89.136C81.0607 89.136 82.4647 90.288 82.7707 92.142ZM89.7132 89.316V86.886H91.3512V89.316H93.1872V90.63H91.3512V96.372C91.3512 97.38 91.4232 97.632 92.3592 97.632H93.1872V99H91.9992C90.1452 99 89.7132 98.586 89.7132 96.57V90.63H88.1832V89.316H89.7132ZM96.1268 94.194C96.1268 96.786 97.5308 97.794 99.0248 97.794C100.519 97.794 101.923 96.678 101.923 94.194C101.923 91.602 100.519 90.594 99.0248 90.594C97.5308 90.594 96.1268 91.548 96.1268 94.194ZM99.0248 89.154C101.275 89.154 103.669 90.684 103.669 94.194C103.669 97.704 101.275 99.234 99.0248 99.234C96.7748 99.234 94.3808 97.704 94.3808 94.194C94.3808 90.684 96.7748 89.154 99.0248 89.154ZM116.542 90.846V85.95H118.18V99H116.542V97.542C115.948 98.568 114.94 99.234 113.374 99.234C111.142 99.234 109.234 97.416 109.234 94.194C109.234 91.026 111.142 89.154 113.374 89.154C114.94 89.154 115.948 89.82 116.542 90.846ZM116.614 94.194C116.614 91.638 115.246 90.558 113.788 90.558C112.114 90.558 111.016 91.872 111.016 94.194C111.016 96.516 112.114 97.83 113.788 97.83C115.246 97.83 116.614 96.75 116.614 94.194ZM125.587 89.28V91.026C125.245 90.972 124.939 90.954 124.669 90.954C123.157 90.954 122.401 91.782 122.401 93.924V99H120.763V89.316H122.365V91.008C122.851 89.91 123.823 89.316 125.101 89.262C125.263 89.262 125.389 89.262 125.587 89.28ZM127.161 89.316H128.799V99H127.161V89.316ZM127.161 85.95H128.799V87.93H127.161V85.95ZM133.036 89.316V90.774C133.594 89.856 134.53 89.154 136.168 89.154C138.508 89.154 139.354 90.666 139.354 92.88V99H137.716V93.366C137.716 91.872 137.464 90.576 135.592 90.576C134.008 90.576 133.036 91.656 133.036 93.744V99H131.398V89.316H133.036ZM141.804 85.95H143.442V93.672L147.348 89.316H149.364L145.674 93.33L149.868 99H147.87L144.576 94.536L143.442 95.76V99H141.804V85.95ZM150.892 89.316H152.53V99H150.892V89.316ZM150.892 85.95H152.53V87.93H150.892V85.95ZM156.766 89.316V90.774C157.324 89.856 158.26 89.154 159.898 89.154C162.238 89.154 163.084 90.666 163.084 92.88V99H161.446V93.366C161.446 91.872 161.194 90.576 159.322 90.576C157.738 90.576 156.766 91.656 156.766 93.744V99H155.128V89.316H156.766ZM172.05 90.846V89.316H173.688V97.704C173.688 99.666 173.328 100.494 172.77 101.106C172.068 101.916 170.862 102.384 169.422 102.384C167.208 102.384 165.75 101.376 165.444 99.414H167.19C167.388 100.278 167.946 100.944 169.44 100.944C170.322 100.944 170.97 100.71 171.42 100.224C171.762 99.828 172.05 99.414 172.05 98.082V97.164C171.456 98.19 170.538 98.838 168.972 98.838C166.83 98.838 164.868 97.11 164.868 93.996C164.868 90.9 166.83 89.154 168.972 89.154C170.538 89.154 171.456 89.82 172.05 90.846ZM172.122 93.996C172.122 91.548 170.826 90.558 169.386 90.558C167.784 90.558 166.65 91.782 166.65 93.996C166.65 96.228 167.784 97.452 169.386 97.452C170.826 97.452 172.122 96.462 172.122 93.996ZM182.958 96.48L184.884 89.316H186.576L188.502 96.48L190.356 89.316H192.12L189.33 99H187.836L185.694 91.206L183.624 99H182.13L179.34 89.316H181.104L182.958 96.48ZM199.427 94.95V94.338C196.457 94.626 194.567 95.076 194.567 96.408C194.567 97.326 195.269 97.938 196.439 97.938C197.969 97.938 199.427 97.236 199.427 94.95ZM196.079 99.234C194.261 99.234 192.749 98.226 192.749 96.444C192.749 94.158 195.341 93.474 199.301 93.042V92.808C199.301 91.026 198.329 90.45 197.105 90.45C195.737 90.45 194.963 91.17 194.891 92.376H193.199C193.343 90.288 195.215 89.118 197.087 89.118C199.769 89.118 200.957 90.378 200.939 93.114L200.921 95.346C200.903 96.984 200.975 98.082 201.173 99H199.517C199.463 98.64 199.409 98.244 199.391 97.668C198.797 98.676 197.807 99.234 196.079 99.234ZM203.848 89.316V86.886H205.486V89.316H207.322V90.63H205.486V96.372C205.486 97.38 205.558 97.632 206.494 97.632H207.322V99H206.134C204.28 99 203.848 98.586 203.848 96.57V90.63H202.318V89.316H203.848ZM217.696 94.698H210.244C210.298 96.786 211.81 97.794 213.232 97.794C214.672 97.794 215.464 97.146 215.878 96.192H217.57C217.138 97.848 215.59 99.234 213.232 99.234C210.172 99.234 208.48 97.038 208.48 94.176C208.48 91.098 210.532 89.154 213.178 89.154C216.148 89.154 217.894 91.62 217.696 94.698ZM213.178 90.558C211.738 90.558 210.406 91.35 210.262 93.294H215.968C215.914 91.926 214.924 90.558 213.178 90.558ZM224.429 89.28V91.026C224.087 90.972 223.781 90.954 223.511 90.954C221.999 90.954 221.243 91.782 221.243 93.924V99H219.605V89.316H221.207V91.008C221.693 89.91 222.665 89.316 223.943 89.262C224.105 89.262 224.231 89.262 224.429 89.28ZM229.555 94.05C229.555 90.396 230.941 87.516 232.039 85.95H233.389C232.183 87.876 231.247 90.648 231.247 94.05C231.247 97.452 232.183 100.206 233.389 102.15H232.039C230.941 100.566 229.555 97.704 229.555 94.05ZM234.687 85.95H236.325V93.672L240.231 89.316H242.247L238.557 93.33L242.751 99H240.753L237.459 94.536L236.325 95.76V99H234.687V85.95ZM252.061 94.698H244.609C244.663 96.786 246.175 97.794 247.597 97.794C249.037 97.794 249.829 97.146 250.243 96.192H251.935C251.503 97.848 249.955 99.234 247.597 99.234C244.537 99.234 242.845 97.038 242.845 94.176C242.845 91.098 244.897 89.154 247.543 89.154C250.513 89.154 252.259 91.62 252.061 94.698ZM247.543 90.558C246.103 90.558 244.771 91.35 244.627 93.294H250.333C250.279 91.926 249.289 90.558 247.543 90.558ZM259.264 89.316H260.974L257.518 99.414C256.798 101.502 256.33 102.15 254.152 102.15H253.306V100.782H253.972C255.052 100.782 255.574 100.71 256.006 99.198L256.078 99L252.586 89.316H254.404L256.87 96.786L259.264 89.316ZM264.805 94.05C264.805 97.704 263.419 100.566 262.321 102.15H260.971C262.177 100.206 263.113 97.452 263.113 94.05C263.113 90.666 262.159 87.858 260.971 85.95H262.321C263.419 87.516 264.805 90.396 264.805 94.05Z" fill="black"/>
<rect x="24" y="113" width="86" height="31" rx="15.5" fill="#FF3B29"/>
<path d="M40.2147 123.575H41.8397L44.3487 131.349L46.7927 123.575H48.3527L45.1417 133H43.4647L40.2147 123.575ZM51.7038 132.012C52.6918 132.012 53.2378 131.609 53.5368 130.946H54.9018C54.5898 132.103 53.5238 133.169 51.7558 133.169C49.5068 133.169 48.2718 131.518 48.2718 129.49C48.2718 127.319 49.7278 125.876 51.7168 125.876C53.8748 125.876 55.1358 127.644 54.9928 129.919H49.6628C49.8058 131.219 50.5988 132.012 51.7038 132.012ZM51.7038 126.981C50.6508 126.981 49.8838 127.514 49.6888 128.853H53.5888C53.5498 127.826 52.8088 126.981 51.7038 126.981ZM59.9592 125.993V127.397C59.7122 127.371 59.4782 127.358 59.2572 127.358C58.2172 127.358 57.6712 127.865 57.6712 129.334V133H56.3192V126.006H57.6452V127.241C58.0092 126.448 58.6982 125.993 59.5822 125.98C59.6992 125.98 59.8422 125.98 59.9592 125.993ZM61.3281 135.275H60.6781V134.196H61.2111C61.9391 134.196 62.2511 134.131 62.5891 133.143L62.6411 132.987L60.1191 126.006H61.6141L63.3041 131.219L64.9551 126.006H66.3591L63.8891 133.156C63.3041 134.807 62.9141 135.275 61.3281 135.275ZM71.9341 123.575V131.739H76.7961V133H70.4521V123.575H71.9341ZM78.6728 129.529C78.6728 131.245 79.6218 132.025 80.6358 132.025C81.6758 132.025 82.6118 131.232 82.6118 129.529C82.6118 127.8 81.6758 127.02 80.6358 127.02C79.6218 127.02 78.6728 127.761 78.6728 129.529ZM80.6358 125.876C82.2998 125.876 84.0418 126.994 84.0418 129.529C84.0418 132.051 82.2998 133.169 80.6358 133.169C78.9848 133.169 77.2428 132.051 77.2428 129.529C77.2428 126.994 78.9848 125.876 80.6358 125.876ZM87.135 131.076L88.435 126.006H89.839L91.139 131.076L92.335 126.006H93.804L91.854 133H90.593L89.124 127.592L87.694 133H86.42L84.483 126.006H85.952L87.135 131.076Z" fill="white"/>
<path d="M54.2014 160.984C54.2014 162.271 54.9944 163.077 56.1514 163.077C57.2954 163.077 58.1144 162.245 58.1144 160.984C58.1144 159.71 57.3084 158.852 56.1644 158.852C55.0074 158.852 54.2014 159.71 54.2014 160.984ZM56.2684 155.485C54.9034 155.485 54.1104 156.863 54.0714 158.93C54.5004 158.254 55.2674 157.721 56.4504 157.721C58.1924 157.721 59.5314 159.008 59.5314 160.932C59.5314 162.752 58.1924 164.169 56.1644 164.169C53.7724 164.169 52.6804 162.427 52.6804 159.593C52.6804 156.889 53.6554 154.406 56.3984 154.406C58.2964 154.406 59.1934 155.615 59.3624 156.85H57.9454C57.8024 155.966 57.1654 155.485 56.2684 155.485ZM64.3961 163.077C65.8391 163.077 66.6711 161.816 66.6711 159.281C66.6711 156.772 65.8391 155.485 64.3961 155.485C62.9791 155.485 62.1211 156.772 62.1211 159.281C62.1211 161.816 62.9791 163.077 64.3961 163.077ZM64.3961 164.169C61.8871 164.169 60.6911 162.232 60.6911 159.281C60.6911 156.343 61.8871 154.406 64.3961 154.406C66.9181 154.406 68.1011 156.343 68.1011 159.281C68.1011 162.232 66.9181 164.169 64.3961 164.169ZM71.3015 159.97C69.8845 159.97 69.1435 158.852 69.1435 157.227C69.1435 155.602 69.8845 154.484 71.3015 154.484C72.7575 154.484 73.4855 155.602 73.4855 157.227C73.4855 158.852 72.7575 159.97 71.3015 159.97ZM71.3015 159.203C72.0295 159.203 72.4195 158.527 72.4195 157.227C72.4195 155.927 72.0295 155.251 71.3015 155.251C70.6125 155.251 70.2095 155.927 70.2095 157.227C70.2095 158.527 70.6125 159.203 71.3015 159.203ZM72.7705 164H71.3015L77.8015 154.575H79.2705L72.7705 164ZM79.2965 164.091C77.8535 164.091 77.1255 162.973 77.1255 161.348C77.1255 159.723 77.8535 158.605 79.2965 158.605C80.7395 158.605 81.4675 159.723 81.4675 161.348C81.4675 162.973 80.7395 164.091 79.2965 164.091ZM79.2965 163.324C80.0115 163.324 80.4015 162.648 80.4015 161.348C80.4015 160.048 80.0115 159.372 79.2965 159.372C78.5815 159.372 78.1915 160.048 78.1915 161.348C78.1915 162.648 78.5815 163.324 79.2965 163.324Z" fill="#FF3B29"/>
<rect x="231" y="113" width="82" height="31" rx="15.5" fill="#FF9B3F"/>
<path d="M247.339 133L250.836 123.575H252.474L256.023 133H254.411L253.67 130.933H249.575L248.847 133H247.339ZM251.603 125.187L250.017 129.685H253.215L251.603 125.187ZM257.124 126.006L258.892 131.193L260.647 126.006H262.051L259.464 133H258.229L255.629 126.006H257.124ZM265.787 132.012C266.775 132.012 267.321 131.609 267.62 130.946H268.985C268.673 132.103 267.607 133.169 265.839 133.169C263.59 133.169 262.355 131.518 262.355 129.49C262.355 127.319 263.811 125.876 265.8 125.876C267.958 125.876 269.219 127.644 269.076 129.919H263.746C263.889 131.219 264.682 132.012 265.787 132.012ZM265.787 126.981C264.734 126.981 263.967 127.514 263.772 128.853H267.672C267.633 127.826 266.892 126.981 265.787 126.981ZM274.043 125.993V127.397C273.796 127.371 273.562 127.358 273.341 127.358C272.301 127.358 271.755 127.865 271.755 129.334V133H270.403V126.006H271.729V127.241C272.093 126.448 272.782 125.993 273.666 125.98C273.783 125.98 273.926 125.98 274.043 125.993ZM279.227 130.179V129.672C277.056 129.88 275.912 130.192 275.912 131.089C275.912 131.726 276.406 132.129 277.238 132.129C278.343 132.129 279.227 131.57 279.227 130.179ZM276.939 133.169C275.522 133.169 274.443 132.389 274.443 131.115C274.443 129.412 276.458 128.944 279.162 128.671V128.528C279.162 127.293 278.512 126.877 277.654 126.877C276.718 126.877 276.185 127.345 276.133 128.216H274.768C274.872 126.721 276.107 125.837 277.706 125.837C279.513 125.837 280.54 126.708 280.527 128.801C280.527 128.97 280.501 130.179 280.501 130.478C280.501 131.531 280.566 132.376 280.696 133H279.396C279.344 132.727 279.318 132.532 279.279 132.077C278.863 132.792 278.083 133.169 276.939 133.169ZM286.851 127.033V126.006H288.203V132.181C288.203 133.468 287.93 134.157 287.449 134.638C286.916 135.197 286.084 135.483 285.005 135.483C283.432 135.483 282.301 134.807 282.08 133.338H283.471C283.614 133.975 284.004 134.352 285.031 134.352C285.668 134.352 286.136 134.183 286.435 133.845C286.708 133.546 286.851 133.195 286.851 132.467V131.726C286.422 132.454 285.733 132.883 284.693 132.883C283.068 132.883 281.716 131.609 281.716 129.373C281.716 127.15 283.068 125.876 284.693 125.876C285.733 125.876 286.422 126.305 286.851 127.033ZM286.903 129.373C286.903 127.709 286.045 126.994 285.005 126.994C283.874 126.994 283.159 127.865 283.159 129.373C283.159 130.894 283.874 131.778 285.005 131.778C286.045 131.778 286.903 131.037 286.903 129.373ZM292.955 132.012C293.943 132.012 294.489 131.609 294.788 130.946H296.153C295.841 132.103 294.775 133.169 293.007 133.169C290.758 133.169 289.523 131.518 289.523 129.49C289.523 127.319 290.979 125.876 292.968 125.876C295.126 125.876 296.387 127.644 296.244 129.919H290.914C291.057 131.219 291.85 132.012 292.955 132.012ZM292.955 126.981C291.902 126.981 291.135 127.514 290.94 128.853H294.84C294.801 127.826 294.06 126.981 292.955 126.981Z" fill="white"/>
<path d="M262.957 157.591C262.957 156.304 262.177 155.485 261.02 155.485C259.863 155.485 259.057 156.304 259.057 157.591C259.057 158.865 259.863 159.723 261.007 159.723C262.151 159.723 262.957 158.865 262.957 157.591ZM260.903 163.077C262.281 163.077 263.035 161.712 263.1 159.645C262.671 160.321 261.878 160.854 260.721 160.854C258.979 160.854 257.64 159.554 257.64 157.63C257.64 155.81 258.979 154.406 261.007 154.406C263.399 154.406 264.491 156.148 264.491 158.982C264.491 161.686 263.516 164.169 260.773 164.169C258.888 164.169 257.952 162.96 257.809 161.725H259.226C259.369 162.609 259.98 163.077 260.903 163.077ZM269.358 163.077C270.801 163.077 271.633 161.816 271.633 159.281C271.633 156.772 270.801 155.485 269.358 155.485C267.941 155.485 267.083 156.772 267.083 159.281C267.083 161.816 267.941 163.077 269.358 163.077ZM269.358 164.169C266.849 164.169 265.653 162.232 265.653 159.281C265.653 156.343 266.849 154.406 269.358 154.406C271.88 154.406 273.063 156.343 273.063 159.281C273.063 162.232 271.88 164.169 269.358 164.169ZM276.263 159.97C274.846 159.97 274.105 158.852 274.105 157.227C274.105 155.602 274.846 154.484 276.263 154.484C277.719 154.484 278.447 155.602 278.447 157.227C278.447 158.852 277.719 159.97 276.263 159.97ZM276.263 159.203C276.991 159.203 277.381 158.527 277.381 157.227C277.381 155.927 276.991 155.251 276.263 155.251C275.574 155.251 275.171 155.927 275.171 157.227C275.171 158.527 275.574 159.203 276.263 159.203ZM277.732 164H276.263L282.763 154.575H284.232L277.732 164ZM284.258 164.091C282.815 164.091 282.087 162.973 282.087 161.348C282.087 159.723 282.815 158.605 284.258 158.605C285.701 158.605 286.429 159.723 286.429 161.348C286.429 162.973 285.701 164.091 284.258 164.091ZM284.258 163.324C284.973 163.324 285.363 162.648 285.363 161.348C285.363 160.048 284.973 159.372 284.258 159.372C283.543 159.372 283.153 160.048 283.153 161.348C283.153 162.648 283.543 163.324 284.258 163.324Z" fill="#FF9B3F"/>
<path d="M218.413 128.453C218.706 128.16 218.706 127.685 218.413 127.392L213.64 122.619C213.347 122.326 212.872 122.326 212.58 122.619C212.287 122.912 212.287 123.387 212.58 123.68L216.822 127.922L212.58 132.165C212.287 132.458 212.287 132.933 212.58 133.226C212.872 133.519 213.347 133.519 213.64 133.226L218.413 128.453ZM110 128.672H217.883L217.883 127.172H110L110 128.672Z" fill="black"/>
</svg>
