<svg width="337" height="299" viewBox="0 0 337 299" fill="none" xmlns="http://www.w3.org/2000/svg">
<rect width="337" height="299" rx="30" fill="white"/>
<path d="M39.66 19.25L43.95 37.52L47.97 19.25H51.18L45.75 41H42.03L37.83 23.12L33.72 41H30L24.48 19.25H27.84L32.04 37.52L36.06 19.25H39.66ZM62.7851 34.25V33.23C57.8351 33.71 54.6851 34.46 54.6851 36.68C54.6851 38.21 55.8551 39.23 57.8051 39.23C60.3551 39.23 62.7851 38.06 62.7851 34.25ZM57.2051 41.39C54.1751 41.39 51.6551 39.71 51.6551 36.74C51.6551 32.93 55.9751 31.79 62.5751 31.07V30.68C62.5751 27.71 60.9551 26.75 58.9151 26.75C56.6351 26.75 55.3451 27.95 55.2251 29.96H52.4051C52.6451 26.48 55.7651 24.53 58.8851 24.53C63.3551 24.53 65.3351 26.63 65.3051 31.19L65.2751 34.91C65.2451 37.64 65.3651 39.47 65.6951 41H62.9351C62.8451 40.4 62.7551 39.74 62.7251 38.78C61.7351 40.46 60.0851 41.39 57.2051 41.39ZM70.1529 24.86V20.81H72.8829V24.86H75.9429V27.05H72.8829V36.62C72.8829 38.3 73.0029 38.72 74.5629 38.72H75.9429V41H73.9629C70.8729 41 70.1529 40.31 70.1529 36.95V27.05H67.6029V24.86H70.1529ZM93.2323 33.83H80.8123C80.9023 37.31 83.4223 38.99 85.7923 38.99C88.1923 38.99 89.5123 37.91 90.2023 36.32H93.0223C92.3023 39.08 89.7223 41.39 85.7923 41.39C80.6923 41.39 77.8723 37.73 77.8723 32.96C77.8723 27.83 81.2923 24.59 85.7023 24.59C90.6523 24.59 93.5623 28.7 93.2323 33.83ZM85.7023 26.93C83.3023 26.93 81.0823 28.25 80.8423 31.49H90.3523C90.2623 29.21 88.6123 26.93 85.7023 26.93ZM104.454 24.8V27.71C103.884 27.62 103.374 27.59 102.924 27.59C100.404 27.59 99.1439 28.97 99.1439 32.54V41H96.4139V24.86H99.0839V27.68C99.8939 25.85 101.514 24.86 103.644 24.77C103.914 24.77 104.124 24.77 104.454 24.8ZM114.197 24.86H116.927V27.41C117.917 25.7 119.597 24.59 122.207 24.59C125.927 24.59 129.107 27.71 129.107 32.99C129.107 38.36 125.927 41.39 122.207 41.39C119.597 41.39 117.917 40.28 116.927 38.57V46.25H114.197V24.86ZM116.807 32.99C116.807 37.25 119.087 39.05 121.517 39.05C124.307 39.05 126.137 36.86 126.137 32.99C126.137 29.12 124.307 26.93 121.517 26.93C119.087 26.93 116.807 28.73 116.807 32.99ZM134.397 32.99C134.397 37.31 136.737 38.99 139.227 38.99C141.717 38.99 144.057 37.13 144.057 32.99C144.057 28.67 141.717 26.99 139.227 26.99C136.737 26.99 134.397 28.58 134.397 32.99ZM139.227 24.59C142.977 24.59 146.967 27.14 146.967 32.99C146.967 38.84 142.977 41.39 139.227 41.39C135.477 41.39 131.487 38.84 131.487 32.99C131.487 27.14 135.477 24.59 139.227 24.59ZM152.962 19.25V41H150.232V19.25H152.962ZM160.023 19.25V41H157.293V19.25H160.023ZM174.343 41V38.69C173.413 40.22 171.943 41.39 169.273 41.39C165.553 41.39 164.113 38.87 164.113 35.18V24.86H166.843V34.37C166.843 36.86 167.233 39.02 170.233 39.02C172.843 39.02 174.343 37.22 174.343 33.74V24.86H177.073V41H174.343ZM182.184 24.86V20.81H184.914V24.86H187.974V27.05H184.914V36.62C184.914 38.3 185.034 38.72 186.594 38.72H187.974V41H185.994C182.904 41 182.184 40.31 182.184 36.95V27.05H179.634V24.86H182.184ZM191.453 24.86H194.183V41H191.453V24.86ZM191.453 19.25H194.183V22.55H191.453V19.25ZM200.374 32.99C200.374 37.31 202.714 38.99 205.204 38.99C207.694 38.99 210.034 37.13 210.034 32.99C210.034 28.67 207.694 26.99 205.204 26.99C202.714 26.99 200.374 28.58 200.374 32.99ZM205.204 24.59C208.954 24.59 212.944 27.14 212.944 32.99C212.944 38.84 208.954 41.39 205.204 41.39C201.454 41.39 197.464 38.84 197.464 32.99C197.464 27.14 201.454 24.59 205.204 24.59ZM218.939 24.86V27.29C219.869 25.76 221.429 24.59 224.159 24.59C228.059 24.59 229.469 27.11 229.469 30.8V41H226.739V31.61C226.739 29.12 226.319 26.96 223.199 26.96C220.559 26.96 218.939 28.76 218.939 32.24V41H216.209V24.86H218.939Z" fill="black"/>
<path d="M24 74L28.842 60.95H30.966L35.88 74H33.9L32.874 71.174H26.88L25.872 74H24ZM29.85 62.804L27.438 69.608H32.298L29.85 62.804ZM37.3493 64.316L39.9773 71.732L42.6053 64.316H44.2973L40.6433 74H39.1853L35.5312 64.316H37.3493ZM53.973 69.698H46.521C46.575 71.786 48.087 72.794 49.509 72.794C50.949 72.794 51.741 72.146 52.155 71.192H53.847C53.415 72.848 51.867 74.234 49.509 74.234C46.449 74.234 44.757 72.038 44.757 69.176C44.757 66.098 46.809 64.154 49.455 64.154C52.425 64.154 54.171 66.62 53.973 69.698ZM49.455 65.558C48.015 65.558 46.683 66.35 46.539 68.294H52.245C52.191 66.926 51.201 65.558 49.455 65.558ZM60.7059 64.28V66.026C60.3639 65.972 60.0579 65.954 59.7879 65.954C58.2759 65.954 57.5199 66.782 57.5199 68.924V74H55.8819V64.316H57.4839V66.008C57.9699 64.91 58.9419 64.316 60.2199 64.262C60.3819 64.262 60.5079 64.262 60.7059 64.28ZM68.0308 69.95V69.338C65.0608 69.626 63.1708 70.076 63.1708 71.408C63.1708 72.326 63.8728 72.938 65.0428 72.938C66.5728 72.938 68.0308 72.236 68.0308 69.95ZM64.6828 74.234C62.8648 74.234 61.3528 73.226 61.3528 71.444C61.3528 69.158 63.9448 68.474 67.9048 68.042V67.808C67.9048 66.026 66.9328 65.45 65.7088 65.45C64.3408 65.45 63.5668 66.17 63.4948 67.376H61.8028C61.9468 65.288 63.8188 64.118 65.6908 64.118C68.3728 64.118 69.5608 65.378 69.5428 68.114L69.5248 70.346C69.5068 71.984 69.5788 73.082 69.7768 74H68.1208C68.0668 73.64 68.0128 73.244 67.9948 72.668C67.4008 73.676 66.4108 74.234 64.6828 74.234ZM78.4995 65.846V64.316H80.1375V72.704C80.1375 74.666 79.7775 75.494 79.2195 76.106C78.5175 76.916 77.3115 77.384 75.8715 77.384C73.6575 77.384 72.1995 76.376 71.8935 74.414H73.6395C73.8375 75.278 74.3955 75.944 75.8895 75.944C76.7715 75.944 77.4195 75.71 77.8695 75.224C78.2115 74.828 78.4995 74.414 78.4995 73.082V72.164C77.9055 73.19 76.9875 73.838 75.4215 73.838C73.2795 73.838 71.3175 72.11 71.3175 68.996C71.3175 65.9 73.2795 64.154 75.4215 64.154C76.9875 64.154 77.9055 64.82 78.4995 65.846ZM78.5715 68.996C78.5715 66.548 77.2755 65.558 75.8355 65.558C74.2335 65.558 73.0995 66.782 73.0995 68.996C73.0995 71.228 74.2335 72.452 75.8355 72.452C77.2755 72.452 78.5715 71.462 78.5715 68.996ZM91.2737 69.698H83.8217C83.8757 71.786 85.3877 72.794 86.8097 72.794C88.2497 72.794 89.0417 72.146 89.4557 71.192H91.1477C90.7157 72.848 89.1677 74.234 86.8097 74.234C83.7497 74.234 82.0577 72.038 82.0577 69.176C82.0577 66.098 84.1097 64.154 86.7557 64.154C89.7257 64.154 91.4717 66.62 91.2737 69.698ZM86.7557 65.558C85.3157 65.558 83.9837 66.35 83.8397 68.294H89.5457C89.4917 66.926 88.5017 65.558 86.7557 65.558ZM98.5702 69.194C98.5702 71.786 99.9742 72.794 101.468 72.794C102.962 72.794 104.366 71.678 104.366 69.194C104.366 66.602 102.962 65.594 101.468 65.594C99.9742 65.594 98.5702 66.548 98.5702 69.194ZM101.468 64.154C103.718 64.154 106.112 65.684 106.112 69.194C106.112 72.704 103.718 74.234 101.468 74.234C99.2182 74.234 96.8242 72.704 96.8242 69.194C96.8242 65.684 99.2182 64.154 101.468 64.154ZM108.573 64.316V63.614C108.573 61.598 108.969 60.95 111.183 60.95H112.029V62.318H111.219C110.355 62.318 110.211 62.516 110.211 63.524V64.316H112.029V65.63H110.211V74H108.573V65.63H107.223V64.316H108.573ZM118.073 64.316H119.711V65.846C120.305 64.82 121.313 64.154 122.879 64.154C125.111 64.154 127.019 66.026 127.019 69.194C127.019 72.416 125.111 74.234 122.879 74.234C121.313 74.234 120.305 73.568 119.711 72.542V77.15H118.073V64.316ZM119.639 69.194C119.639 71.75 121.007 72.83 122.465 72.83C124.139 72.83 125.237 71.516 125.237 69.194C125.237 66.872 124.139 65.558 122.465 65.558C121.007 65.558 119.639 66.638 119.639 69.194ZM137.883 60.95H139.719V74H137.883V68.078H131.025V74H129.189V60.95H131.025V66.494H137.883V60.95ZM150.845 64.154C153.221 64.154 154.661 65.9 154.895 67.556H153.239C153.005 66.404 152.015 65.594 150.737 65.594C149.297 65.594 147.947 66.728 147.947 69.158C147.947 71.606 149.297 72.794 150.737 72.794C152.123 72.794 153.077 71.858 153.311 70.85H155.003C154.661 72.668 152.951 74.234 150.683 74.234C147.893 74.234 146.165 72.128 146.165 69.176C146.165 66.296 147.983 64.154 150.845 64.154ZM158.055 69.194C158.055 71.786 159.459 72.794 160.953 72.794C162.447 72.794 163.851 71.678 163.851 69.194C163.851 66.602 162.447 65.594 160.953 65.594C159.459 65.594 158.055 66.548 158.055 69.194ZM160.953 64.154C163.203 64.154 165.597 65.684 165.597 69.194C165.597 72.704 163.203 74.234 160.953 74.234C158.703 74.234 156.309 72.704 156.309 69.194C156.309 65.684 158.703 64.154 160.953 64.154ZM169.194 64.316V65.774C169.752 64.856 170.688 64.154 172.326 64.154C174.666 64.154 175.512 65.666 175.512 67.88V74H173.874V68.366C173.874 66.872 173.622 65.576 171.75 65.576C170.166 65.576 169.194 66.656 169.194 68.744V74H167.556V64.316H169.194ZM181.976 64.154C184.352 64.154 185.792 65.9 186.026 67.556H184.37C184.136 66.404 183.146 65.594 181.868 65.594C180.428 65.594 179.078 66.728 179.078 69.158C179.078 71.606 180.428 72.794 181.868 72.794C183.254 72.794 184.208 71.858 184.442 70.85H186.134C185.792 72.668 184.082 74.234 181.814 74.234C179.024 74.234 177.296 72.128 177.296 69.176C177.296 66.296 179.114 64.154 181.976 64.154ZM196.619 69.698H189.167C189.221 71.786 190.733 72.794 192.155 72.794C193.595 72.794 194.387 72.146 194.801 71.192H196.493C196.061 72.848 194.513 74.234 192.155 74.234C189.095 74.234 187.403 72.038 187.403 69.176C187.403 66.098 189.455 64.154 192.101 64.154C195.071 64.154 196.817 66.62 196.619 69.698ZM192.101 65.558C190.661 65.558 189.329 66.35 189.185 68.294H194.891C194.837 66.926 193.847 65.558 192.101 65.558ZM200.166 64.316V65.774C200.724 64.856 201.66 64.154 203.298 64.154C205.638 64.154 206.484 65.666 206.484 67.88V74H204.846V68.366C204.846 66.872 204.594 65.576 202.722 65.576C201.138 65.576 200.166 66.656 200.166 68.744V74H198.528V64.316H200.166ZM209.403 64.316V61.886H211.041V64.316H212.877V65.63H211.041V71.372C211.041 72.38 211.113 72.632 212.049 72.632H212.877V74H211.689C209.835 74 209.403 73.586 209.403 71.57V65.63H207.873V64.316H209.403ZM219.612 64.28V66.026C219.27 65.972 218.964 65.954 218.694 65.954C217.182 65.954 216.426 66.782 216.426 68.924V74H214.788V64.316H216.39V66.008C216.876 64.91 217.848 64.316 219.126 64.262C219.288 64.262 219.414 64.262 219.612 64.28ZM226.937 69.95V69.338C223.967 69.626 222.077 70.076 222.077 71.408C222.077 72.326 222.779 72.938 223.949 72.938C225.479 72.938 226.937 72.236 226.937 69.95ZM223.589 74.234C221.771 74.234 220.259 73.226 220.259 71.444C220.259 69.158 222.851 68.474 226.811 68.042V67.808C226.811 66.026 225.839 65.45 224.615 65.45C223.247 65.45 222.473 66.17 222.401 67.376H220.709C220.853 65.288 222.725 64.118 224.597 64.118C227.279 64.118 228.467 65.378 228.449 68.114L228.431 70.346C228.413 71.984 228.485 73.082 228.683 74H227.027C226.973 73.64 226.919 73.244 226.901 72.668C226.307 73.676 225.317 74.234 223.589 74.234ZM231.358 64.316V61.886H232.996V64.316H234.832V65.63H232.996V71.372C232.996 72.38 233.068 72.632 234.004 72.632H234.832V74H233.644C231.79 74 231.358 73.586 231.358 71.57V65.63H229.828V64.316H231.358ZM236.919 64.316H238.557V74H236.919V64.316ZM236.919 60.95H238.557V62.93H236.919V60.95ZM242.271 69.194C242.271 71.786 243.675 72.794 245.169 72.794C246.663 72.794 248.067 71.678 248.067 69.194C248.067 66.602 246.663 65.594 245.169 65.594C243.675 65.594 242.271 66.548 242.271 69.194ZM245.169 64.154C247.419 64.154 249.813 65.684 249.813 69.194C249.813 72.704 247.419 74.234 245.169 74.234C242.919 74.234 240.525 72.704 240.525 69.194C240.525 65.684 242.919 64.154 245.169 64.154ZM253.411 64.316V65.774C253.969 64.856 254.905 64.154 256.543 64.154C258.883 64.154 259.729 65.666 259.729 67.88V74H258.091V68.366C258.091 66.872 257.839 65.576 255.967 65.576C254.383 65.576 253.411 66.656 253.411 68.744V74H251.773V64.316H253.411ZM266.45 64.316H268.088V74H266.45V64.316ZM266.45 60.95H268.088V62.93H266.45V60.95ZM272.325 64.316V65.774C272.883 64.856 273.819 64.154 275.457 64.154C277.797 64.154 278.643 65.666 278.643 67.88V74H277.005V68.366C277.005 66.872 276.753 65.576 274.881 65.576C273.297 65.576 272.325 66.656 272.325 68.744V74H270.687V64.316H272.325ZM27.708 96.48L29.634 89.316H31.326L33.252 96.48L35.106 89.316H36.87L34.08 99H32.586L30.444 91.206L28.374 99H26.88L24.09 89.316H25.854L27.708 96.48ZM44.1773 94.95V94.338C41.2073 94.626 39.3173 95.076 39.3173 96.408C39.3173 97.326 40.0193 97.938 41.1893 97.938C42.7193 97.938 44.1773 97.236 44.1773 94.95ZM40.8293 99.234C39.0113 99.234 37.4993 98.226 37.4993 96.444C37.4993 94.158 40.0913 93.474 44.0513 93.042V92.808C44.0513 91.026 43.0793 90.45 41.8553 90.45C40.4873 90.45 39.7133 91.17 39.6413 92.376H37.9493C38.0933 90.288 39.9653 89.118 41.8373 89.118C44.5193 89.118 45.7073 90.378 45.6893 93.114L45.6713 95.346C45.6533 96.984 45.7253 98.082 45.9233 99H44.2673C44.2133 98.64 44.1593 98.244 44.1413 97.668C43.5473 98.676 42.5573 99.234 40.8293 99.234ZM48.598 89.316V86.886H50.236V89.316H52.072V90.63H50.236V96.372C50.236 97.38 50.308 97.632 51.244 97.632H52.072V99H50.884C49.03 99 48.598 98.586 48.598 96.57V90.63H47.068V89.316H48.598ZM62.4456 94.698H54.9936C55.0476 96.786 56.5596 97.794 57.9816 97.794C59.4216 97.794 60.2136 97.146 60.6276 96.192H62.3196C61.8876 97.848 60.3396 99.234 57.9816 99.234C54.9216 99.234 53.2296 97.038 53.2296 94.176C53.2296 91.098 55.2816 89.154 57.9276 89.154C60.8976 89.154 62.6436 91.62 62.4456 94.698ZM57.9276 90.558C56.4876 90.558 55.1556 91.35 55.0116 93.294H60.7176C60.6636 91.926 59.6736 90.558 57.9276 90.558ZM69.1786 89.28V91.026C68.8366 90.972 68.5306 90.954 68.2606 90.954C66.7486 90.954 65.9926 91.782 65.9926 93.924V99H64.3546V89.316H65.9566V91.008C66.4426 89.91 67.4146 89.316 68.6926 89.262C68.8546 89.262 68.9806 89.262 69.1786 89.28Z" fill="black"/>
<rect x="24" y="113" width="86" height="31" rx="15.5" fill="#FF3B29"/>
<path d="M40.2147 123.575H41.8397L44.3487 131.349L46.7927 123.575H48.3527L45.1417 133H43.4647L40.2147 123.575ZM51.7038 132.012C52.6918 132.012 53.2378 131.609 53.5368 130.946H54.9018C54.5898 132.103 53.5238 133.169 51.7558 133.169C49.5068 133.169 48.2718 131.518 48.2718 129.49C48.2718 127.319 49.7278 125.876 51.7168 125.876C53.8748 125.876 55.1358 127.644 54.9928 129.919H49.6628C49.8058 131.219 50.5988 132.012 51.7038 132.012ZM51.7038 126.981C50.6508 126.981 49.8838 127.514 49.6888 128.853H53.5888C53.5498 127.826 52.8088 126.981 51.7038 126.981ZM59.9592 125.993V127.397C59.7122 127.371 59.4782 127.358 59.2572 127.358C58.2172 127.358 57.6712 127.865 57.6712 129.334V133H56.3192V126.006H57.6452V127.241C58.0092 126.448 58.6982 125.993 59.5822 125.98C59.6992 125.98 59.8422 125.98 59.9592 125.993ZM61.3281 135.275H60.6781V134.196H61.2111C61.9391 134.196 62.2511 134.131 62.5891 133.143L62.6411 132.987L60.1191 126.006H61.6141L63.3041 131.219L64.9551 126.006H66.3591L63.8891 133.156C63.3041 134.807 62.9141 135.275 61.3281 135.275ZM71.9341 123.575V131.739H76.7961V133H70.4521V123.575H71.9341ZM78.6728 129.529C78.6728 131.245 79.6218 132.025 80.6358 132.025C81.6758 132.025 82.6118 131.232 82.6118 129.529C82.6118 127.8 81.6758 127.02 80.6358 127.02C79.6218 127.02 78.6728 127.761 78.6728 129.529ZM80.6358 125.876C82.2998 125.876 84.0418 126.994 84.0418 129.529C84.0418 132.051 82.2998 133.169 80.6358 133.169C78.9848 133.169 77.2428 132.051 77.2428 129.529C77.2428 126.994 78.9848 125.876 80.6358 125.876ZM87.135 131.076L88.435 126.006H89.839L91.139 131.076L92.335 126.006H93.804L91.854 133H90.593L89.124 127.592L87.694 133H86.42L84.483 126.006H85.952L87.135 131.076Z" fill="white"/>
<path d="M55.8209 156.382L52.6489 160.503H55.8209V156.382ZM58.8759 160.503V161.725H57.1859V164H55.8209V161.725H51.1539V160.529L55.8209 154.575H57.1859V160.503H58.8759ZM61.3368 164H59.7118V162.375H61.3368V164ZM66.1329 154.406C67.8749 154.406 69.1619 155.29 69.1619 156.889C69.1619 158.956 67.0819 160.841 64.3389 162.778H69.4089V164H62.5839V162.83C65.8209 160.36 67.7449 158.67 67.7449 157.032C67.7449 156.083 67.1209 155.485 66.0939 155.485C65.1319 155.485 64.1959 156.031 64.1959 157.552H62.8179C62.7789 155.667 64.1179 154.406 66.1329 154.406ZM72.425 159.97C71.008 159.97 70.267 158.852 70.267 157.227C70.267 155.602 71.008 154.484 72.425 154.484C73.881 154.484 74.609 155.602 74.609 157.227C74.609 158.852 73.881 159.97 72.425 159.97ZM72.425 159.203C73.153 159.203 73.543 158.527 73.543 157.227C73.543 155.927 73.153 155.251 72.425 155.251C71.736 155.251 71.333 155.927 71.333 157.227C71.333 158.527 71.736 159.203 72.425 159.203ZM73.894 164H72.425L78.925 154.575H80.394L73.894 164ZM80.42 164.091C78.977 164.091 78.249 162.973 78.249 161.348C78.249 159.723 78.977 158.605 80.42 158.605C81.863 158.605 82.591 159.723 82.591 161.348C82.591 162.973 81.863 164.091 80.42 164.091ZM80.42 163.324C81.135 163.324 81.525 162.648 81.525 161.348C81.525 160.048 81.135 159.372 80.42 159.372C79.705 159.372 79.315 160.048 79.315 161.348C79.315 162.648 79.705 163.324 80.42 163.324Z" fill="#FF3B29"/>
<rect x="231" y="113" width="82" height="31" rx="15.5" fill="#FF9B3F"/>
<path d="M247.339 133L250.836 123.575H252.474L256.023 133H254.411L253.67 130.933H249.575L248.847 133H247.339ZM251.603 125.187L250.017 129.685H253.215L251.603 125.187ZM257.124 126.006L258.892 131.193L260.647 126.006H262.051L259.464 133H258.229L255.629 126.006H257.124ZM265.787 132.012C266.775 132.012 267.321 131.609 267.62 130.946H268.985C268.673 132.103 267.607 133.169 265.839 133.169C263.59 133.169 262.355 131.518 262.355 129.49C262.355 127.319 263.811 125.876 265.8 125.876C267.958 125.876 269.219 127.644 269.076 129.919H263.746C263.889 131.219 264.682 132.012 265.787 132.012ZM265.787 126.981C264.734 126.981 263.967 127.514 263.772 128.853H267.672C267.633 127.826 266.892 126.981 265.787 126.981ZM274.043 125.993V127.397C273.796 127.371 273.562 127.358 273.341 127.358C272.301 127.358 271.755 127.865 271.755 129.334V133H270.403V126.006H271.729V127.241C272.093 126.448 272.782 125.993 273.666 125.98C273.783 125.98 273.926 125.98 274.043 125.993ZM279.227 130.179V129.672C277.056 129.88 275.912 130.192 275.912 131.089C275.912 131.726 276.406 132.129 277.238 132.129C278.343 132.129 279.227 131.57 279.227 130.179ZM276.939 133.169C275.522 133.169 274.443 132.389 274.443 131.115C274.443 129.412 276.458 128.944 279.162 128.671V128.528C279.162 127.293 278.512 126.877 277.654 126.877C276.718 126.877 276.185 127.345 276.133 128.216H274.768C274.872 126.721 276.107 125.837 277.706 125.837C279.513 125.837 280.54 126.708 280.527 128.801C280.527 128.97 280.501 130.179 280.501 130.478C280.501 131.531 280.566 132.376 280.696 133H279.396C279.344 132.727 279.318 132.532 279.279 132.077C278.863 132.792 278.083 133.169 276.939 133.169ZM286.851 127.033V126.006H288.203V132.181C288.203 133.468 287.93 134.157 287.449 134.638C286.916 135.197 286.084 135.483 285.005 135.483C283.432 135.483 282.301 134.807 282.08 133.338H283.471C283.614 133.975 284.004 134.352 285.031 134.352C285.668 134.352 286.136 134.183 286.435 133.845C286.708 133.546 286.851 133.195 286.851 132.467V131.726C286.422 132.454 285.733 132.883 284.693 132.883C283.068 132.883 281.716 131.609 281.716 129.373C281.716 127.15 283.068 125.876 284.693 125.876C285.733 125.876 286.422 126.305 286.851 127.033ZM286.903 129.373C286.903 127.709 286.045 126.994 285.005 126.994C283.874 126.994 283.159 127.865 283.159 129.373C283.159 130.894 283.874 131.778 285.005 131.778C286.045 131.778 286.903 131.037 286.903 129.373ZM292.955 132.012C293.943 132.012 294.489 131.609 294.788 130.946H296.153C295.841 132.103 294.775 133.169 293.007 133.169C290.758 133.169 289.523 131.518 289.523 129.49C289.523 127.319 290.979 125.876 292.968 125.876C295.126 125.876 296.387 127.644 296.244 129.919H290.914C291.057 131.219 291.85 132.012 292.955 132.012ZM292.955 126.981C291.902 126.981 291.135 127.514 290.94 128.853H294.84C294.801 127.826 294.06 126.981 292.955 126.981Z" fill="white"/>
<path d="M257.744 155.81V154.575H264.387V155.81C262.034 157.877 260.656 160.503 260.448 164H258.862C259.031 160.659 260.617 157.812 262.892 155.81H257.744ZM264.705 164H263.08V162.375H264.705V164ZM269.121 163.077C270.213 163.077 271.11 162.297 271.11 160.932C271.11 159.45 270.083 158.787 269.095 158.787C268.172 158.787 267.535 159.281 267.327 159.801L266.014 159.723L266.638 154.575H272.15V155.81H267.743L267.431 158.332C267.912 157.903 268.601 157.682 269.42 157.682C271.058 157.682 272.527 158.8 272.527 160.919C272.527 163.051 270.915 164.169 269.108 164.169C266.937 164.169 265.858 162.752 265.715 161.192H267.067C267.223 162.336 267.834 163.077 269.121 163.077ZM275.717 159.97C274.3 159.97 273.559 158.852 273.559 157.227C273.559 155.602 274.3 154.484 275.717 154.484C277.173 154.484 277.901 155.602 277.901 157.227C277.901 158.852 277.173 159.97 275.717 159.97ZM275.717 159.203C276.445 159.203 276.835 158.527 276.835 157.227C276.835 155.927 276.445 155.251 275.717 155.251C275.028 155.251 274.625 155.927 274.625 157.227C274.625 158.527 275.028 159.203 275.717 159.203ZM277.186 164H275.717L282.217 154.575H283.686L277.186 164ZM283.712 164.091C282.269 164.091 281.541 162.973 281.541 161.348C281.541 159.723 282.269 158.605 283.712 158.605C285.155 158.605 285.883 159.723 285.883 161.348C285.883 162.973 285.155 164.091 283.712 164.091ZM283.712 163.324C284.427 163.324 284.817 162.648 284.817 161.348C284.817 160.048 284.427 159.372 283.712 159.372C282.997 159.372 282.607 160.048 282.607 161.348C282.607 162.648 282.997 163.324 283.712 163.324Z" fill="#FF9B3F"/>
<path d="M218.413 128.453C218.706 128.16 218.706 127.685 218.413 127.392L213.64 122.619C213.347 122.326 212.872 122.326 212.58 122.619C212.287 122.912 212.287 123.387 212.58 123.68L216.822 127.922L212.58 132.165C212.287 132.458 212.287 132.933 212.58 133.226C212.872 133.519 213.347 133.519 213.64 133.226L218.413 128.453ZM110 128.672H217.883L217.883 127.172H110L110 128.672Z" fill="black"/>
<path d="M24 194L28.842 180.95H30.966L35.88 194H33.9L32.874 191.174H26.88L25.872 194H24ZM29.85 182.804L27.438 189.608H32.298L29.85 182.804ZM38.8168 184.316V185.774C39.3748 184.856 40.3108 184.154 41.9488 184.154C44.2888 184.154 45.1348 185.666 45.1348 187.88V194H43.4968V188.366C43.4968 186.872 43.2448 185.576 41.3728 185.576C39.7888 185.576 38.8168 186.656 38.8168 188.744V194H37.1788V184.316H38.8168ZM49.2231 184.316V185.774C49.7811 184.856 50.7171 184.154 52.3551 184.154C54.6951 184.154 55.5411 185.666 55.5411 187.88V194H53.9031V188.366C53.9031 186.872 53.6511 185.576 51.7791 185.576C50.1951 185.576 49.2231 186.656 49.2231 188.744V194H47.5851V184.316H49.2231ZM63.9853 194V192.614C63.4273 193.532 62.5453 194.234 60.9433 194.234C58.7113 194.234 57.8473 192.722 57.8473 190.508V184.316H59.4853V190.022C59.4853 191.516 59.7193 192.812 61.5193 192.812C63.0853 192.812 63.9853 191.732 63.9853 189.644V184.316H65.6233V194H63.9853ZM74.3238 189.95V189.338C71.3538 189.626 69.4638 190.076 69.4638 191.408C69.4638 192.326 70.1658 192.938 71.3358 192.938C72.8658 192.938 74.3238 192.236 74.3238 189.95ZM70.9758 194.234C69.1578 194.234 67.6458 193.226 67.6458 191.444C67.6458 189.158 70.2378 188.474 74.1978 188.042V187.808C74.1978 186.026 73.2258 185.45 72.0018 185.45C70.6338 185.45 69.8598 186.17 69.7878 187.376H68.0958C68.2398 185.288 70.1118 184.118 71.9838 184.118C74.6658 184.118 75.8538 185.378 75.8358 188.114L75.8178 190.346C75.7998 191.984 75.8718 193.082 76.0698 194H74.4138C74.3598 193.64 74.3058 193.244 74.2878 192.668C73.6938 193.676 72.7038 194.234 70.9758 194.234ZM79.9145 180.95V194H78.2765V180.95H79.9145ZM92.8863 189.95V189.338C89.9163 189.626 88.0263 190.076 88.0263 191.408C88.0263 192.326 88.7283 192.938 89.8983 192.938C91.4283 192.938 92.8863 192.236 92.8863 189.95ZM89.5383 194.234C87.7203 194.234 86.2083 193.226 86.2083 191.444C86.2083 189.158 88.8003 188.474 92.7603 188.042V187.808C92.7603 186.026 91.7883 185.45 90.5643 185.45C89.1963 185.45 88.4223 186.17 88.3503 187.376H86.6583C86.8023 185.288 88.6743 184.118 90.5463 184.118C93.2283 184.118 94.4163 185.378 94.3983 188.114L94.3803 190.346C94.3623 191.984 94.4343 193.082 94.6323 194H92.9763C92.9223 193.64 92.8683 193.244 92.8503 192.668C92.2563 193.676 91.2663 194.234 89.5383 194.234ZM97.2731 184.316L99.9011 191.732L102.529 184.316H104.221L100.567 194H99.1091L95.4551 184.316H97.2731ZM113.897 189.698H106.445C106.499 191.786 108.011 192.794 109.433 192.794C110.873 192.794 111.665 192.146 112.079 191.192H113.771C113.339 192.848 111.791 194.234 109.433 194.234C106.373 194.234 104.681 192.038 104.681 189.176C104.681 186.098 106.733 184.154 109.379 184.154C112.349 184.154 114.095 186.62 113.897 189.698ZM109.379 185.558C107.939 185.558 106.607 186.35 106.463 188.294H112.169C112.115 186.926 111.125 185.558 109.379 185.558ZM120.63 184.28V186.026C120.288 185.972 119.982 185.954 119.712 185.954C118.2 185.954 117.444 186.782 117.444 188.924V194H115.806V184.316H117.408V186.008C117.894 184.91 118.866 184.316 120.144 184.262C120.306 184.262 120.432 184.262 120.63 184.28ZM127.955 189.95V189.338C124.985 189.626 123.095 190.076 123.095 191.408C123.095 192.326 123.797 192.938 124.967 192.938C126.497 192.938 127.955 192.236 127.955 189.95ZM124.607 194.234C122.789 194.234 121.277 193.226 121.277 191.444C121.277 189.158 123.869 188.474 127.829 188.042V187.808C127.829 186.026 126.857 185.45 125.633 185.45C124.265 185.45 123.491 186.17 123.419 187.376H121.727C121.871 185.288 123.743 184.118 125.615 184.118C128.297 184.118 129.485 185.378 129.467 188.114L129.449 190.346C129.431 191.984 129.503 193.082 129.701 194H128.045C127.991 193.64 127.937 193.244 127.919 192.668C127.325 193.676 126.335 194.234 124.607 194.234ZM138.423 185.846V184.316H140.061V192.704C140.061 194.666 139.701 195.494 139.143 196.106C138.441 196.916 137.235 197.384 135.795 197.384C133.581 197.384 132.123 196.376 131.817 194.414H133.563C133.761 195.278 134.319 195.944 135.813 195.944C136.695 195.944 137.343 195.71 137.793 195.224C138.135 194.828 138.423 194.414 138.423 193.082V192.164C137.829 193.19 136.911 193.838 135.345 193.838C133.203 193.838 131.241 192.11 131.241 188.996C131.241 185.9 133.203 184.154 135.345 184.154C136.911 184.154 137.829 184.82 138.423 185.846ZM138.495 188.996C138.495 186.548 137.199 185.558 135.759 185.558C134.157 185.558 133.023 186.782 133.023 188.996C133.023 191.228 134.157 192.452 135.759 192.452C137.199 192.452 138.495 191.462 138.495 188.996ZM151.198 189.698H143.746C143.8 191.786 145.312 192.794 146.734 192.794C148.174 192.794 148.966 192.146 149.38 191.192H151.072C150.64 192.848 149.092 194.234 146.734 194.234C143.674 194.234 141.982 192.038 141.982 189.176C141.982 186.098 144.034 184.154 146.68 184.154C149.65 184.154 151.396 186.62 151.198 189.698ZM146.68 185.558C145.24 185.558 143.908 186.35 143.764 188.294H149.47C149.416 186.926 148.426 185.558 146.68 185.558ZM158.494 189.194C158.494 191.786 159.898 192.794 161.392 192.794C162.886 192.794 164.29 191.678 164.29 189.194C164.29 186.602 162.886 185.594 161.392 185.594C159.898 185.594 158.494 186.548 158.494 189.194ZM161.392 184.154C163.642 184.154 166.036 185.684 166.036 189.194C166.036 192.704 163.642 194.234 161.392 194.234C159.142 194.234 156.748 192.704 156.748 189.194C156.748 185.684 159.142 184.154 161.392 184.154ZM168.497 184.316V183.614C168.497 181.598 168.893 180.95 171.107 180.95H171.953V182.318H171.143C170.279 182.318 170.135 182.516 170.135 183.524V184.316H171.953V185.63H170.135V194H168.497V185.63H167.147V184.316H168.497ZM184.639 185.846V180.95H186.277V194H184.639V192.542C184.045 193.568 183.037 194.234 181.471 194.234C179.239 194.234 177.331 192.416 177.331 189.194C177.331 186.026 179.239 184.154 181.471 184.154C183.037 184.154 184.045 184.82 184.639 185.846ZM184.711 189.194C184.711 186.638 183.343 185.558 181.885 185.558C180.211 185.558 179.113 186.872 179.113 189.194C179.113 191.516 180.211 192.83 181.885 192.83C183.343 192.83 184.711 191.75 184.711 189.194ZM188.86 184.316H190.498V194H188.86V184.316ZM188.86 180.95H190.498V182.93H188.86V180.95ZM200.351 187.142H198.641C198.371 185.99 197.507 185.54 196.355 185.54C195.401 185.54 194.321 185.882 194.321 186.764C194.321 187.538 194.861 187.88 195.797 188.078L197.165 188.348C198.929 188.672 200.477 189.374 200.477 191.228C200.477 193.154 198.749 194.234 196.535 194.234C193.997 194.234 192.575 192.56 192.377 190.868H194.105C194.375 192.11 195.131 192.848 196.571 192.848C197.813 192.848 198.821 192.326 198.821 191.408C198.821 190.418 197.903 190.04 196.859 189.806L195.419 189.518C194.105 189.23 192.665 188.654 192.665 186.836C192.665 185.126 194.393 184.136 196.535 184.136C198.641 184.136 200.045 185.288 200.351 187.142ZM209.808 187.142H208.098C207.828 185.99 206.964 185.54 205.812 185.54C204.858 185.54 203.778 185.882 203.778 186.764C203.778 187.538 204.318 187.88 205.254 188.078L206.622 188.348C208.386 188.672 209.934 189.374 209.934 191.228C209.934 193.154 208.206 194.234 205.992 194.234C203.454 194.234 202.032 192.56 201.834 190.868H203.562C203.832 192.11 204.588 192.848 206.028 192.848C207.27 192.848 208.278 192.326 208.278 191.408C208.278 190.418 207.36 190.04 206.316 189.806L204.876 189.518C203.562 189.23 202.122 188.654 202.122 186.836C202.122 185.126 203.85 184.136 205.992 184.136C208.098 184.136 209.502 185.288 209.808 187.142ZM213.127 189.194C213.127 191.786 214.531 192.794 216.025 192.794C217.519 192.794 218.923 191.678 218.923 189.194C218.923 186.602 217.519 185.594 216.025 185.594C214.531 185.594 213.127 186.548 213.127 189.194ZM216.025 184.154C218.275 184.154 220.669 185.684 220.669 189.194C220.669 192.704 218.275 194.234 216.025 194.234C213.775 194.234 211.381 192.704 211.381 189.194C211.381 185.684 213.775 184.154 216.025 184.154ZM224.266 180.95V194H222.628V180.95H224.266ZM227.386 184.316L230.014 191.732L232.642 184.316H234.334L230.68 194H229.222L225.568 184.316H227.386ZM244.01 189.698H236.558C236.612 191.786 238.124 192.794 239.546 192.794C240.986 192.794 241.778 192.146 242.192 191.192H243.884C243.452 192.848 241.904 194.234 239.546 194.234C236.486 194.234 234.794 192.038 234.794 189.176C234.794 186.098 236.846 184.154 239.492 184.154C242.462 184.154 244.208 186.62 244.01 189.698ZM239.492 185.558C238.052 185.558 236.72 186.35 236.576 188.294H242.282C242.228 186.926 241.238 185.558 239.492 185.558ZM252.649 185.846V180.95H254.287V194H252.649V192.542C252.055 193.568 251.047 194.234 249.481 194.234C247.249 194.234 245.341 192.416 245.341 189.194C245.341 186.026 247.249 184.154 249.481 184.154C251.047 184.154 252.055 184.82 252.649 185.846ZM252.721 189.194C252.721 186.638 251.353 185.558 249.895 185.558C248.221 185.558 247.123 186.872 247.123 189.194C247.123 191.516 248.221 192.83 249.895 192.83C251.353 192.83 252.721 191.75 252.721 189.194ZM26.412 214.194C26.412 216.786 27.816 217.794 29.31 217.794C30.804 217.794 32.208 216.678 32.208 214.194C32.208 211.602 30.804 210.594 29.31 210.594C27.816 210.594 26.412 211.548 26.412 214.194ZM29.31 209.154C31.56 209.154 33.954 210.684 33.954 214.194C33.954 217.704 31.56 219.234 29.31 219.234C27.06 219.234 24.666 217.704 24.666 214.194C24.666 210.684 27.06 209.154 29.31 209.154ZM43.2455 209.316L39.9515 213.942L43.5695 219H41.6075L38.9795 215.31L36.3695 219H34.4975L38.0615 214.014L34.7135 209.316H36.6755L39.0335 212.646L41.4095 209.316H43.2455ZM50.3831 209.316H52.0931L48.6371 219.414C47.9171 221.502 47.4491 222.15 45.2711 222.15H44.4251V220.782H45.0911C46.1711 220.782 46.6931 220.71 47.1251 219.198L47.1971 219L43.7051 209.316H45.5231L47.9891 216.786L50.3831 209.316ZM59.7261 210.846V209.316H61.3641V217.704C61.3641 219.666 61.0041 220.494 60.4461 221.106C59.7441 221.916 58.5381 222.384 57.0981 222.384C54.8841 222.384 53.4261 221.376 53.1201 219.414H54.8661C55.0641 220.278 55.6221 220.944 57.1161 220.944C57.9981 220.944 58.6461 220.71 59.0961 220.224C59.4381 219.828 59.7261 219.414 59.7261 218.082V217.164C59.1321 218.19 58.2141 218.838 56.6481 218.838C54.5061 218.838 52.5441 217.11 52.5441 213.996C52.5441 210.9 54.5061 209.154 56.6481 209.154C58.2141 209.154 59.1321 209.82 59.7261 210.846ZM59.7981 213.996C59.7981 211.548 58.5021 210.558 57.0621 210.558C55.4601 210.558 54.3261 211.782 54.3261 213.996C54.3261 216.228 55.4601 217.452 57.0621 217.452C58.5021 217.452 59.7981 216.462 59.7981 213.996ZM72.5003 214.698H65.0483C65.1023 216.786 66.6143 217.794 68.0363 217.794C69.4763 217.794 70.2683 217.146 70.6823 216.192H72.3743C71.9423 217.848 70.3943 219.234 68.0363 219.234C64.9763 219.234 63.2843 217.038 63.2843 214.176C63.2843 211.098 65.3363 209.154 67.9823 209.154C70.9523 209.154 72.6983 211.62 72.5003 214.698ZM67.9823 210.558C66.5423 210.558 65.2103 211.35 65.0663 213.294H70.7723C70.7183 211.926 69.7283 210.558 67.9823 210.558ZM76.0473 209.316V210.774C76.6053 209.856 77.5413 209.154 79.1793 209.154C81.5193 209.154 82.3653 210.666 82.3653 212.88V219H80.7273V213.366C80.7273 211.872 80.4753 210.576 78.6033 210.576C77.0193 210.576 76.0473 211.656 76.0473 213.744V219H74.4093V209.316H76.0473ZM88.367 214.05C88.367 210.396 89.753 207.516 90.851 205.95H92.201C90.995 207.876 90.059 210.648 90.059 214.05C90.059 217.452 90.995 220.206 92.201 222.15H90.851C89.753 220.566 88.367 217.704 88.367 214.05ZM102.553 212.466C102.553 208.038 99.9431 207.498 97.2611 207.498H95.5871V217.452H97.2611C99.9431 217.452 102.553 216.912 102.553 212.466ZM93.7511 205.95H97.3151C101.437 205.95 104.425 207.516 104.425 212.466C104.425 217.434 101.437 219 97.3151 219H93.7511V205.95ZM108.317 212.466C108.317 215.832 110.189 217.686 112.565 217.686C114.941 217.686 116.813 215.832 116.813 212.466C116.813 209.1 114.941 207.264 112.565 207.264C110.189 207.264 108.317 209.1 108.317 212.466ZM118.685 212.466C118.685 216.408 116.327 219.234 112.565 219.234C108.803 219.234 106.445 216.408 106.445 212.466C106.445 208.524 108.803 205.716 112.565 205.716C116.327 205.716 118.685 208.524 118.685 212.466ZM123.441 214.05C123.441 217.704 122.055 220.566 120.957 222.15H119.607C120.813 220.206 121.749 217.452 121.749 214.05C121.749 210.666 120.795 207.858 119.607 205.95H120.957C122.055 207.516 123.441 210.396 123.441 214.05ZM133.601 209.154C135.977 209.154 137.417 210.9 137.651 212.556H135.995C135.761 211.404 134.771 210.594 133.493 210.594C132.053 210.594 130.703 211.728 130.703 214.158C130.703 216.606 132.053 217.794 133.493 217.794C134.879 217.794 135.833 216.858 136.067 215.85H137.759C137.417 217.668 135.707 219.234 133.439 219.234C130.649 219.234 128.921 217.128 128.921 214.176C128.921 211.296 130.739 209.154 133.601 209.154ZM140.81 214.194C140.81 216.786 142.214 217.794 143.708 217.794C145.202 217.794 146.606 216.678 146.606 214.194C146.606 211.602 145.202 210.594 143.708 210.594C142.214 210.594 140.81 211.548 140.81 214.194ZM143.708 209.154C145.958 209.154 148.352 210.684 148.352 214.194C148.352 217.704 145.958 219.234 143.708 219.234C141.458 219.234 139.064 217.704 139.064 214.194C139.064 210.684 141.458 209.154 143.708 209.154ZM151.95 209.316V210.774C152.508 209.856 153.444 209.154 155.082 209.154C157.422 209.154 158.268 210.666 158.268 212.88V219H156.63V213.366C156.63 211.872 156.378 210.576 154.506 210.576C152.922 210.576 151.95 211.656 151.95 213.744V219H150.312V209.316H151.95ZM164.732 209.154C167.108 209.154 168.548 210.9 168.782 212.556H167.126C166.892 211.404 165.902 210.594 164.624 210.594C163.184 210.594 161.834 211.728 161.834 214.158C161.834 216.606 163.184 217.794 164.624 217.794C166.01 217.794 166.964 216.858 167.198 215.85H168.89C168.548 217.668 166.838 219.234 164.57 219.234C161.78 219.234 160.052 217.128 160.052 214.176C160.052 211.296 161.87 209.154 164.732 209.154ZM179.375 214.698H171.923C171.977 216.786 173.489 217.794 174.911 217.794C176.351 217.794 177.143 217.146 177.557 216.192H179.249C178.817 217.848 177.269 219.234 174.911 219.234C171.851 219.234 170.159 217.038 170.159 214.176C170.159 211.098 172.211 209.154 174.857 209.154C177.827 209.154 179.573 211.62 179.375 214.698ZM174.857 210.558C173.417 210.558 172.085 211.35 171.941 213.294H177.647C177.593 211.926 176.603 210.558 174.857 210.558ZM182.922 209.316V210.774C183.48 209.856 184.416 209.154 186.054 209.154C188.394 209.154 189.24 210.666 189.24 212.88V219H187.602V213.366C187.602 211.872 187.35 210.576 185.478 210.576C183.894 210.576 182.922 211.656 182.922 213.744V219H181.284V209.316H182.922ZM192.159 209.316V206.886H193.797V209.316H195.633V210.63H193.797V216.372C193.797 217.38 193.869 217.632 194.805 217.632H195.633V219H194.445C192.591 219 192.159 218.586 192.159 216.57V210.63H190.629V209.316H192.159ZM202.368 209.28V211.026C202.026 210.972 201.72 210.954 201.45 210.954C199.938 210.954 199.182 211.782 199.182 213.924V219H197.544V209.316H199.146V211.008C199.632 209.91 200.604 209.316 201.882 209.262C202.044 209.262 202.17 209.262 202.368 209.28ZM209.693 214.95V214.338C206.723 214.626 204.833 215.076 204.833 216.408C204.833 217.326 205.535 217.938 206.705 217.938C208.235 217.938 209.693 217.236 209.693 214.95ZM206.345 219.234C204.527 219.234 203.015 218.226 203.015 216.444C203.015 214.158 205.607 213.474 209.567 213.042V212.808C209.567 211.026 208.595 210.45 207.371 210.45C206.003 210.45 205.229 211.17 205.157 212.376H203.465C203.609 210.288 205.481 209.118 207.353 209.118C210.035 209.118 211.223 210.378 211.205 213.114L211.187 215.346C211.169 216.984 211.241 218.082 211.439 219H209.783C209.729 218.64 209.675 218.244 209.657 217.668C209.063 218.676 208.073 219.234 206.345 219.234ZM214.114 209.316V206.886H215.752V209.316H217.588V210.63H215.752V216.372C215.752 217.38 215.824 217.632 216.76 217.632H217.588V219H216.4C214.546 219 214.114 218.586 214.114 216.57V210.63H212.584V209.316H214.114ZM219.675 209.316H221.313V219H219.675V209.316ZM219.675 205.95H221.313V207.93H219.675V205.95ZM225.027 214.194C225.027 216.786 226.431 217.794 227.925 217.794C229.419 217.794 230.823 216.678 230.823 214.194C230.823 211.602 229.419 210.594 227.925 210.594C226.431 210.594 225.027 211.548 225.027 214.194ZM227.925 209.154C230.175 209.154 232.569 210.684 232.569 214.194C232.569 217.704 230.175 219.234 227.925 219.234C225.675 219.234 223.281 217.704 223.281 214.194C223.281 210.684 225.675 209.154 227.925 209.154ZM236.166 209.316V210.774C236.724 209.856 237.66 209.154 239.298 209.154C241.638 209.154 242.484 210.666 242.484 212.88V219H240.846V213.366C240.846 211.872 240.594 210.576 238.722 210.576C237.138 210.576 236.166 211.656 236.166 213.744V219H234.528V209.316H236.166ZM249.206 209.316H250.844V219H249.206V209.316ZM249.206 205.95H250.844V207.93H249.206V205.95ZM255.08 209.316V210.774C255.638 209.856 256.574 209.154 258.212 209.154C260.552 209.154 261.398 210.666 261.398 212.88V219H259.76V213.366C259.76 211.872 259.508 210.576 257.636 210.576C256.052 210.576 255.08 211.656 255.08 213.744V219H253.442V209.316H255.08ZM270.532 216.48L272.458 209.316H274.15L276.076 216.48L277.93 209.316H279.694L276.904 219H275.41L273.268 211.206L271.198 219H269.704L266.914 209.316H268.678L270.532 216.48ZM287.002 214.95V214.338C284.032 214.626 282.142 215.076 282.142 216.408C282.142 217.326 282.844 217.938 284.014 217.938C285.544 217.938 287.002 217.236 287.002 214.95ZM283.654 219.234C281.836 219.234 280.324 218.226 280.324 216.444C280.324 214.158 282.916 213.474 286.876 213.042V212.808C286.876 211.026 285.904 210.45 284.68 210.45C283.312 210.45 282.538 211.17 282.466 212.376H280.774C280.918 210.288 282.79 209.118 284.662 209.118C287.344 209.118 288.532 210.378 288.514 213.114L288.496 215.346C288.478 216.984 288.55 218.082 288.748 219H287.092C287.038 218.64 286.984 218.244 286.966 217.668C286.372 218.676 285.382 219.234 283.654 219.234ZM291.422 209.316V206.886H293.06V209.316H294.896V210.63H293.06V216.372C293.06 217.38 293.132 217.632 294.068 217.632H294.896V219H293.708C291.854 219 291.422 218.586 291.422 216.57V210.63H289.892V209.316H291.422ZM305.27 214.698H297.818C297.872 216.786 299.384 217.794 300.806 217.794C302.246 217.794 303.038 217.146 303.452 216.192H305.144C304.712 217.848 303.164 219.234 300.806 219.234C297.746 219.234 296.054 217.038 296.054 214.176C296.054 211.098 298.106 209.154 300.752 209.154C303.722 209.154 305.468 211.62 305.27 214.698ZM300.752 210.558C299.312 210.558 297.98 211.35 297.836 213.294H303.542C303.488 211.926 302.498 210.558 300.752 210.558ZM312.003 209.28V211.026C311.661 210.972 311.355 210.954 311.085 210.954C309.573 210.954 308.817 211.782 308.817 213.924V219H307.179V209.316H308.781V211.008C309.267 209.91 310.239 209.316 311.517 209.262C311.679 209.262 311.805 209.262 312.003 209.28Z" fill="black"/>
<rect x="24" y="233" width="86" height="31" rx="15.5" fill="#FF3B29"/>
<path d="M40.2147 243.575H41.8397L44.3487 251.349L46.7927 243.575H48.3527L45.1417 253H43.4647L40.2147 243.575ZM51.7038 252.012C52.6918 252.012 53.2378 251.609 53.5368 250.946H54.9018C54.5898 252.103 53.5238 253.169 51.7558 253.169C49.5068 253.169 48.2718 251.518 48.2718 249.49C48.2718 247.319 49.7278 245.876 51.7168 245.876C53.8748 245.876 55.1358 247.644 54.9928 249.919H49.6628C49.8058 251.219 50.5988 252.012 51.7038 252.012ZM51.7038 246.981C50.6508 246.981 49.8838 247.514 49.6888 248.853H53.5888C53.5498 247.826 52.8088 246.981 51.7038 246.981ZM59.9592 245.993V247.397C59.7122 247.371 59.4782 247.358 59.2572 247.358C58.2172 247.358 57.6712 247.865 57.6712 249.334V253H56.3192V246.006H57.6452V247.241C58.0092 246.448 58.6982 245.993 59.5822 245.98C59.6992 245.98 59.8422 245.98 59.9592 245.993ZM61.3281 255.275H60.6781V254.196H61.2111C61.9391 254.196 62.2511 254.131 62.5891 253.143L62.6411 252.987L60.1191 246.006H61.6141L63.3041 251.219L64.9551 246.006H66.3591L63.8891 253.156C63.3041 254.807 62.9141 255.275 61.3281 255.275ZM71.9341 243.575V251.739H76.7961V253H70.4521V243.575H71.9341ZM78.6728 249.529C78.6728 251.245 79.6218 252.025 80.6358 252.025C81.6758 252.025 82.6118 251.232 82.6118 249.529C82.6118 247.8 81.6758 247.02 80.6358 247.02C79.6218 247.02 78.6728 247.761 78.6728 249.529ZM80.6358 245.876C82.2998 245.876 84.0418 246.994 84.0418 249.529C84.0418 252.051 82.2998 253.169 80.6358 253.169C78.9848 253.169 77.2428 252.051 77.2428 249.529C77.2428 246.994 78.9848 245.876 80.6358 245.876ZM87.135 251.076L88.435 246.006H89.839L91.139 251.076L92.335 246.006H93.804L91.854 253H90.593L89.124 247.592L87.694 253H86.42L84.483 246.006H85.952L87.135 251.076Z" fill="white"/>
<path d="M47.1055 276.382L43.9335 280.503H47.1055V276.382ZM50.1605 280.503V281.725H48.4705V284H47.1055V281.725H42.4385V280.529L47.1055 274.575H48.4705V280.503H50.1605ZM52.6215 284H50.9965V282.375H52.6215V284ZM54.9631 280.984C54.9631 282.271 55.7561 283.077 56.9131 283.077C58.0571 283.077 58.8761 282.245 58.8761 280.984C58.8761 279.71 58.0701 278.852 56.9261 278.852C55.7691 278.852 54.9631 279.71 54.9631 280.984ZM57.0301 275.485C55.6651 275.485 54.8721 276.863 54.8331 278.93C55.2621 278.254 56.0291 277.721 57.2121 277.721C58.9541 277.721 60.2931 279.008 60.2931 280.932C60.2931 282.752 58.9541 284.169 56.9261 284.169C54.5341 284.169 53.4421 282.427 53.4421 279.593C53.4421 276.889 54.4171 274.406 57.1601 274.406C59.0581 274.406 59.9551 275.615 60.1241 276.85H58.7071C58.5641 275.966 57.9271 275.485 57.0301 275.485ZM66.1897 280.243V284H64.8377V277.006H66.1897V278.02C66.5927 277.331 67.2557 276.876 68.2567 276.876C69.3487 276.876 69.9727 277.331 70.2847 278.111C70.8697 277.227 71.6757 276.876 72.5987 276.876C74.2367 276.876 74.8737 277.968 74.8737 279.593V284H73.5217V279.957C73.5217 278.956 73.3527 278.007 72.1437 278.007C71.0647 278.007 70.5317 278.839 70.5317 280.243V284H69.1797V279.957C69.1797 278.956 69.0107 278.007 67.8017 278.007C66.7097 278.007 66.1897 278.839 66.1897 280.243ZM81.2349 278.033V277.006H82.5869V283.181C82.5869 284.468 82.3139 285.157 81.8329 285.638C81.2999 286.197 80.4679 286.483 79.3889 286.483C77.8159 286.483 76.6849 285.807 76.4639 284.338H77.8549C77.9979 284.975 78.3879 285.352 79.4149 285.352C80.0519 285.352 80.5199 285.183 80.8189 284.845C81.0919 284.546 81.2349 284.195 81.2349 283.467V282.726C80.8059 283.454 80.1169 283.883 79.0769 283.883C77.4519 283.883 76.0999 282.609 76.0999 280.373C76.0999 278.15 77.4519 276.876 79.0769 276.876C80.1169 276.876 80.8059 277.305 81.2349 278.033ZM81.2869 280.373C81.2869 278.709 80.4289 277.994 79.3889 277.994C78.2579 277.994 77.5429 278.865 77.5429 280.373C77.5429 281.894 78.2579 282.778 79.3889 282.778C80.4289 282.778 81.2869 282.037 81.2869 280.373ZM84.9055 284H83.5795L87.2585 274.575H88.5975L84.9055 284ZM90.8186 274.575V284H89.4666V274.575H90.8186Z" fill="#FF3B29"/>
<rect x="231" y="233" width="82" height="31" rx="15.5" fill="#FF9B3F"/>
<path d="M247.339 253L250.836 243.575H252.474L256.023 253H254.411L253.67 250.933H249.575L248.847 253H247.339ZM251.603 245.187L250.017 249.685H253.215L251.603 245.187ZM257.124 246.006L258.892 251.193L260.647 246.006H262.051L259.464 253H258.229L255.629 246.006H257.124ZM265.787 252.012C266.775 252.012 267.321 251.609 267.62 250.946H268.985C268.673 252.103 267.607 253.169 265.839 253.169C263.59 253.169 262.355 251.518 262.355 249.49C262.355 247.319 263.811 245.876 265.8 245.876C267.958 245.876 269.219 247.644 269.076 249.919H263.746C263.889 251.219 264.682 252.012 265.787 252.012ZM265.787 246.981C264.734 246.981 263.967 247.514 263.772 248.853H267.672C267.633 247.826 266.892 246.981 265.787 246.981ZM274.043 245.993V247.397C273.796 247.371 273.562 247.358 273.341 247.358C272.301 247.358 271.755 247.865 271.755 249.334V253H270.403V246.006H271.729V247.241C272.093 246.448 272.782 245.993 273.666 245.98C273.783 245.98 273.926 245.98 274.043 245.993ZM279.227 250.179V249.672C277.056 249.88 275.912 250.192 275.912 251.089C275.912 251.726 276.406 252.129 277.238 252.129C278.343 252.129 279.227 251.57 279.227 250.179ZM276.939 253.169C275.522 253.169 274.443 252.389 274.443 251.115C274.443 249.412 276.458 248.944 279.162 248.671V248.528C279.162 247.293 278.512 246.877 277.654 246.877C276.718 246.877 276.185 247.345 276.133 248.216H274.768C274.872 246.721 276.107 245.837 277.706 245.837C279.513 245.837 280.54 246.708 280.527 248.801C280.527 248.97 280.501 250.179 280.501 250.478C280.501 251.531 280.566 252.376 280.696 253H279.396C279.344 252.727 279.318 252.532 279.279 252.077C278.863 252.792 278.083 253.169 276.939 253.169ZM286.851 247.033V246.006H288.203V252.181C288.203 253.468 287.93 254.157 287.449 254.638C286.916 255.197 286.084 255.483 285.005 255.483C283.432 255.483 282.301 254.807 282.08 253.338H283.471C283.614 253.975 284.004 254.352 285.031 254.352C285.668 254.352 286.136 254.183 286.435 253.845C286.708 253.546 286.851 253.195 286.851 252.467V251.726C286.422 252.454 285.733 252.883 284.693 252.883C283.068 252.883 281.716 251.609 281.716 249.373C281.716 247.15 283.068 245.876 284.693 245.876C285.733 245.876 286.422 246.305 286.851 247.033ZM286.903 249.373C286.903 247.709 286.045 246.994 285.005 246.994C283.874 246.994 283.159 247.865 283.159 249.373C283.159 250.894 283.874 251.778 285.005 251.778C286.045 251.778 286.903 251.037 286.903 249.373ZM292.955 252.012C293.943 252.012 294.489 251.609 294.788 250.946H296.153C295.841 252.103 294.775 253.169 293.007 253.169C290.758 253.169 289.523 251.518 289.523 249.49C289.523 247.319 290.979 245.876 292.968 245.876C295.126 245.876 296.387 247.644 296.244 249.919H290.914C291.057 251.219 291.85 252.012 292.955 252.012ZM292.955 246.981C291.902 246.981 291.135 247.514 290.94 248.853H294.84C294.801 247.826 294.06 246.981 292.955 246.981Z" fill="white"/>
<path d="M249.464 280.984C249.464 282.271 250.257 283.077 251.414 283.077C252.558 283.077 253.377 282.245 253.377 280.984C253.377 279.71 252.571 278.852 251.427 278.852C250.27 278.852 249.464 279.71 249.464 280.984ZM251.531 275.485C250.166 275.485 249.373 276.863 249.334 278.93C249.763 278.254 250.53 277.721 251.713 277.721C253.455 277.721 254.794 279.008 254.794 280.932C254.794 282.752 253.455 284.169 251.427 284.169C249.035 284.169 247.943 282.427 247.943 279.593C247.943 276.889 248.918 274.406 251.661 274.406C253.559 274.406 254.456 275.615 254.625 276.85H253.208C253.065 275.966 252.428 275.485 251.531 275.485ZM257.38 284H255.755V282.375H257.38V284ZM261.796 283.077C262.888 283.077 263.785 282.297 263.785 280.932C263.785 279.45 262.758 278.787 261.77 278.787C260.847 278.787 260.21 279.281 260.002 279.801L258.689 279.723L259.313 274.575H264.825V275.81H260.418L260.106 278.332C260.587 277.903 261.276 277.682 262.095 277.682C263.733 277.682 265.202 278.8 265.202 280.919C265.202 283.051 263.59 284.169 261.783 284.169C259.612 284.169 258.533 282.752 258.39 281.192H259.742C259.898 282.336 260.509 283.077 261.796 283.077ZM271.088 280.243V284H269.736V277.006H271.088V278.02C271.491 277.331 272.154 276.876 273.155 276.876C274.247 276.876 274.871 277.331 275.183 278.111C275.768 277.227 276.574 276.876 277.497 276.876C279.135 276.876 279.772 277.968 279.772 279.593V284H278.42V279.957C278.42 278.956 278.251 278.007 277.042 278.007C275.963 278.007 275.43 278.839 275.43 280.243V284H274.078V279.957C274.078 278.956 273.909 278.007 272.7 278.007C271.608 278.007 271.088 278.839 271.088 280.243ZM286.133 278.033V277.006H287.485V283.181C287.485 284.468 287.212 285.157 286.731 285.638C286.198 286.197 285.366 286.483 284.287 286.483C282.714 286.483 281.583 285.807 281.362 284.338H282.753C282.896 284.975 283.286 285.352 284.313 285.352C284.95 285.352 285.418 285.183 285.717 284.845C285.99 284.546 286.133 284.195 286.133 283.467V282.726C285.704 283.454 285.015 283.883 283.975 283.883C282.35 283.883 280.998 282.609 280.998 280.373C280.998 278.15 282.35 276.876 283.975 276.876C285.015 276.876 285.704 277.305 286.133 278.033ZM286.185 280.373C286.185 278.709 285.327 277.994 284.287 277.994C283.156 277.994 282.441 278.865 282.441 280.373C282.441 281.894 283.156 282.778 284.287 282.778C285.327 282.778 286.185 282.037 286.185 280.373ZM289.804 284H288.478L292.157 274.575H293.496L289.804 284ZM295.717 274.575V284H294.365V274.575H295.717Z" fill="#FF9B3F"/>
<path d="M218.413 248.453C218.706 248.16 218.706 247.685 218.413 247.392L213.64 242.619C213.347 242.326 212.872 242.326 212.58 242.619C212.287 242.912 212.287 243.387 212.58 243.68L216.822 247.922L212.58 252.165C212.287 252.458 212.287 252.933 212.58 253.226C212.872 253.519 213.347 253.519 213.64 253.226L218.413 248.453ZM110 248.672H217.883L217.883 247.172H110L110 248.672Z" fill="black"/>
</svg>
