<svg width="1281" height="816" viewBox="0 0 1281 816" fill="none" xmlns="http://www.w3.org/2000/svg">
<g clip-path="url(#clip0_145_445)">
<path opacity="0.2" d="M841.855 564.154C841.855 676.861 748.609 768.254 633.553 768.254C518.496 768.254 425.251 676.861 425.251 564.154C425.251 451.447 518.496 360.054 633.553 360.054C748.609 360.054 841.855 451.447 841.855 564.154Z" stroke="url(#paint0_linear_145_445)" stroke-width="1.5"/>
<path opacity="0.2" d="M986.315 564.153C986.315 763.529 828.362 925.125 633.553 925.125C438.744 925.125 280.791 763.529 280.791 564.153C280.791 364.778 438.744 203.182 633.553 203.182C828.362 203.182 986.315 364.778 986.315 564.153Z" stroke="url(#paint1_linear_145_445)" stroke-width="1.5"/>
<circle opacity="0.2" cx="633.554" cy="564.156" r="474.25" stroke="url(#paint2_linear_145_445)" stroke-width="1.5"/>
<path d="M571.202 615.657L575.492 633.927L579.512 615.657H582.722L577.292 637.407H573.572L569.372 619.527L565.262 637.407H561.542L556.022 615.657H559.382L563.582 633.927L567.602 615.657H571.202ZM593.727 630.657V629.637C588.777 630.117 585.627 630.867 585.627 633.087C585.627 634.617 586.797 635.637 588.747 635.637C591.297 635.637 593.727 634.467 593.727 630.657ZM588.147 637.797C585.117 637.797 582.597 636.117 582.597 633.147C582.597 629.337 586.917 628.197 593.517 627.477V627.087C593.517 624.117 591.897 623.157 589.857 623.157C587.577 623.157 586.287 624.357 586.167 626.367H583.347C583.587 622.887 586.707 620.937 589.827 620.937C594.297 620.937 596.277 623.037 596.247 627.597L596.217 631.317C596.187 634.047 596.307 635.877 596.637 637.407H593.877C593.787 636.807 593.697 636.147 593.667 635.187C592.677 636.867 591.027 637.797 588.147 637.797ZM611.805 625.977H608.955C608.505 624.057 607.065 623.307 605.145 623.307C603.555 623.307 601.755 623.877 601.755 625.347C601.755 626.637 602.655 627.207 604.215 627.537L606.495 627.987C609.435 628.527 612.015 629.697 612.015 632.787C612.015 635.997 609.135 637.797 605.445 637.797C601.215 637.797 598.845 635.007 598.515 632.187H601.395C601.845 634.257 603.105 635.487 605.505 635.487C607.575 635.487 609.255 634.617 609.255 633.087C609.255 631.437 607.725 630.807 605.985 630.417L603.585 629.937C601.395 629.457 598.995 628.497 598.995 625.467C598.995 622.617 601.875 620.967 605.445 620.967C608.955 620.967 611.295 622.887 611.805 625.977ZM615.657 621.267V617.217H618.387V621.267H621.447V623.457H618.387V633.027C618.387 634.707 618.507 635.127 620.067 635.127H621.447V637.407H619.467C616.377 637.407 615.657 636.717 615.657 633.357V623.457H613.107V621.267H615.657ZM638.136 630.237H625.716C625.806 633.717 628.326 635.397 630.696 635.397C633.096 635.397 634.416 634.317 635.106 632.727H637.926C637.206 635.487 634.626 637.797 630.696 637.797C625.596 637.797 622.776 634.137 622.776 629.367C622.776 624.237 626.196 620.997 630.606 620.997C635.556 620.997 638.466 625.107 638.136 630.237ZM630.606 623.337C628.206 623.337 625.986 624.657 625.746 627.897H635.256C635.166 625.617 633.516 623.337 630.606 623.337ZM644.65 633.207L647.86 621.267H650.68L653.89 633.207L656.98 621.267H659.92L655.27 637.407H652.78L649.21 624.417L645.76 637.407H643.27L638.62 621.267H641.56L644.65 633.207ZM671.499 630.657V629.637C666.549 630.117 663.399 630.867 663.399 633.087C663.399 634.617 664.569 635.637 666.519 635.637C669.069 635.637 671.499 634.467 671.499 630.657ZM665.919 637.797C662.889 637.797 660.369 636.117 660.369 633.147C660.369 629.337 664.689 628.197 671.289 627.477V627.087C671.289 624.117 669.669 623.157 667.629 623.157C665.349 623.157 664.059 624.357 663.939 626.367H661.119C661.359 622.887 664.479 620.937 667.599 620.937C672.069 620.937 674.049 623.037 674.019 627.597L673.989 631.317C673.959 634.047 674.079 635.877 674.409 637.407H671.649C671.559 636.807 671.469 636.147 671.439 635.187C670.449 636.867 668.799 637.797 665.919 637.797ZM678.266 621.267V617.217H680.996V621.267H684.056V623.457H680.996V633.027C680.996 634.707 681.116 635.127 682.676 635.127H684.056V637.407H682.076C678.986 637.407 678.266 636.717 678.266 633.357V623.457H675.716V621.267H678.266ZM700.746 630.237H688.326C688.416 633.717 690.936 635.397 693.306 635.397C695.706 635.397 697.026 634.317 697.716 632.727H700.536C699.816 635.487 697.236 637.797 693.306 637.797C688.206 637.797 685.386 634.137 685.386 629.367C685.386 624.237 688.806 620.997 693.216 620.997C698.166 620.997 701.076 625.107 700.746 630.237ZM693.216 623.337C690.816 623.337 688.596 624.657 688.356 627.897H697.866C697.776 625.617 696.126 623.337 693.216 623.337ZM711.367 621.207V624.117C710.797 624.027 710.287 623.997 709.837 623.997C707.317 623.997 706.057 625.377 706.057 628.947V637.407H703.327V621.267H705.997V624.087C706.807 622.257 708.427 621.267 710.557 621.177C710.827 621.177 711.037 621.177 711.367 621.207ZM520.174 659.267V655.217H522.904V659.267H525.964V661.457H522.904V671.027C522.904 672.707 523.024 673.127 524.584 673.127H525.964V675.407H523.984C520.894 675.407 520.174 674.717 520.174 671.357V661.457H517.624V659.267H520.174ZM536.59 659.207V662.117C536.02 662.027 535.51 661.997 535.06 661.997C532.54 661.997 531.28 663.377 531.28 666.947V675.407H528.55V659.267H531.22V662.087C532.03 660.257 533.65 659.267 535.78 659.177C536.05 659.177 536.26 659.177 536.59 659.207ZM552.571 668.237H540.151C540.241 671.717 542.761 673.397 545.131 673.397C547.531 673.397 548.851 672.317 549.541 670.727H552.361C551.641 673.487 549.061 675.797 545.131 675.797C540.031 675.797 537.211 672.137 537.211 667.367C537.211 662.237 540.631 658.997 545.041 658.997C549.991 658.997 552.901 663.107 552.571 668.237ZM545.041 661.337C542.641 661.337 540.421 662.657 540.181 665.897H549.691C549.601 663.617 547.951 661.337 545.041 661.337ZM565.176 668.657V667.637C560.226 668.117 557.076 668.867 557.076 671.087C557.076 672.617 558.246 673.637 560.196 673.637C562.746 673.637 565.176 672.467 565.176 668.657ZM559.596 675.797C556.566 675.797 554.046 674.117 554.046 671.147C554.046 667.337 558.366 666.197 564.966 665.477V665.087C564.966 662.117 563.346 661.157 561.306 661.157C559.026 661.157 557.736 662.357 557.616 664.367H554.796C555.036 660.887 558.156 658.937 561.276 658.937C565.746 658.937 567.726 661.037 567.696 665.597L567.666 669.317C567.636 672.047 567.756 673.877 568.086 675.407H565.326C565.236 674.807 565.146 674.147 565.116 673.187C564.126 674.867 562.476 675.797 559.596 675.797ZM571.944 659.267V655.217H574.674V659.267H577.734V661.457H574.674V671.027C574.674 672.707 574.794 673.127 576.354 673.127H577.734V675.407H575.754C572.664 675.407 571.944 674.717 571.944 671.357V661.457H569.394V659.267H571.944ZM583.05 666.647V675.407H580.32V659.267H583.05V661.697C583.98 660.167 585.48 658.997 587.91 658.997C590.4 658.997 591.84 660.047 592.56 661.847C593.85 659.837 595.71 658.997 597.99 658.997C601.74 658.997 603.21 661.517 603.21 665.207V675.407H600.48V666.017C600.48 663.527 600 661.367 597.03 661.367C594.66 661.367 593.13 663.167 593.13 666.647V675.407H590.4V666.017C590.4 663.527 589.92 661.367 586.95 661.367C584.58 661.367 583.05 663.167 583.05 666.647ZM620.952 668.237H608.532C608.622 671.717 611.142 673.397 613.512 673.397C615.912 673.397 617.232 672.317 617.922 670.727H620.742C620.022 673.487 617.442 675.797 613.512 675.797C608.412 675.797 605.592 672.137 605.592 667.367C605.592 662.237 609.012 658.997 613.422 658.997C618.372 658.997 621.282 663.107 620.952 668.237ZM613.422 661.337C611.022 661.337 608.802 662.657 608.562 665.897H618.072C617.982 663.617 616.332 661.337 613.422 661.337ZM626.264 659.267V661.697C627.194 660.167 628.754 658.997 631.484 658.997C635.384 658.997 636.794 661.517 636.794 665.207V675.407H634.064V666.017C634.064 663.527 633.644 661.367 630.524 661.367C627.884 661.367 626.264 663.167 626.264 666.647V675.407H623.534V659.267H626.264ZM641.058 659.267V655.217H643.788V659.267H646.848V661.457H643.788V671.027C643.788 672.707 643.908 673.127 645.468 673.127H646.848V675.407H644.868C641.778 675.407 641.058 674.717 641.058 671.357V661.457H638.508V659.267H641.058ZM655.953 659.267H658.683V661.817C659.673 660.107 661.353 658.997 663.963 658.997C667.683 658.997 670.863 662.117 670.863 667.397C670.863 672.767 667.683 675.797 663.963 675.797C661.353 675.797 659.673 674.687 658.683 672.977V680.657H655.953V659.267ZM658.563 667.397C658.563 671.657 660.843 673.457 663.273 673.457C666.063 673.457 667.893 671.267 667.893 667.397C667.893 663.527 666.063 661.337 663.273 661.337C660.843 661.337 658.563 663.137 658.563 667.397ZM676.188 653.657V675.407H673.458V653.657H676.188ZM690.089 668.657V667.637C685.139 668.117 681.989 668.867 681.989 671.087C681.989 672.617 683.159 673.637 685.109 673.637C687.659 673.637 690.089 672.467 690.089 668.657ZM684.509 675.797C681.479 675.797 678.959 674.117 678.959 671.147C678.959 667.337 683.279 666.197 689.879 665.477V665.087C689.879 662.117 688.259 661.157 686.219 661.157C683.939 661.157 682.649 662.357 682.529 664.367H679.709C679.949 660.887 683.069 658.937 686.189 658.937C690.659 658.937 692.639 661.037 692.609 665.597L692.579 669.317C692.549 672.047 692.669 673.877 692.999 675.407H690.239C690.149 674.807 690.059 674.147 690.029 673.187C689.039 674.867 687.389 675.797 684.509 675.797ZM698.806 659.267V661.697C699.736 660.167 701.296 658.997 704.026 658.997C707.926 658.997 709.336 661.517 709.336 665.207V675.407H706.606V666.017C706.606 663.527 706.186 661.367 703.066 661.367C700.426 661.367 698.806 663.167 698.806 666.647V675.407H696.076V659.267H698.806ZM713.6 659.267V655.217H716.33V659.267H719.39V661.457H716.33V671.027C716.33 672.707 716.45 673.127 718.01 673.127H719.39V675.407H717.41C714.32 675.407 713.6 674.717 713.6 671.357V661.457H711.05V659.267H713.6ZM728.495 659.267H731.225V675.407H728.495V659.267ZM728.495 653.657H731.225V656.957H728.495V653.657ZM737.686 659.267V661.697C738.616 660.167 740.176 658.997 742.906 658.997C746.806 658.997 748.216 661.517 748.216 665.207V675.407H745.486V666.017C745.486 663.527 745.066 661.367 741.946 661.367C739.306 661.367 737.686 663.167 737.686 666.647V675.407H734.956V659.267H737.686ZM553.646 702.517C553.646 695.137 549.296 694.237 544.826 694.237H542.036V710.827H544.826C549.296 710.827 553.646 709.927 553.646 702.517ZM538.976 691.657H544.916C551.786 691.657 556.766 694.267 556.766 702.517C556.766 710.797 551.786 713.407 544.916 713.407H538.976V691.657ZM569.659 706.657V705.637C564.709 706.117 561.559 706.867 561.559 709.087C561.559 710.617 562.729 711.637 564.679 711.637C567.229 711.637 569.659 710.467 569.659 706.657ZM564.079 713.797C561.049 713.797 558.529 712.117 558.529 709.147C558.529 705.337 562.849 704.197 569.449 703.477V703.087C569.449 700.117 567.829 699.157 565.789 699.157C563.509 699.157 562.219 700.357 562.099 702.367H559.279C559.519 698.887 562.639 696.937 565.759 696.937C570.229 696.937 572.209 699.037 572.179 703.597L572.149 707.317C572.119 710.047 572.239 711.877 572.569 713.407H569.809C569.719 712.807 569.629 712.147 569.599 711.187C568.609 712.867 566.959 713.797 564.079 713.797ZM583.687 697.207V700.117C583.117 700.027 582.607 699.997 582.157 699.997C579.637 699.997 578.377 701.377 578.377 704.947V713.407H575.647V697.267H578.317V700.087C579.127 698.257 580.747 697.267 582.877 697.177C583.147 697.177 583.357 697.177 583.687 697.207ZM592.65 713.407V691.657H607.41V694.297H595.71V700.897H606.72V703.537H595.71V710.767H607.41V713.407H592.65ZM622.119 701.977H619.269C618.819 700.057 617.379 699.307 615.459 699.307C613.869 699.307 612.069 699.877 612.069 701.347C612.069 702.637 612.969 703.207 614.529 703.537L616.809 703.987C619.749 704.527 622.329 705.697 622.329 708.787C622.329 711.997 619.449 713.797 615.759 713.797C611.529 713.797 609.159 711.007 608.829 708.187H611.709C612.159 710.257 613.419 711.487 615.819 711.487C617.889 711.487 619.569 710.617 619.569 709.087C619.569 707.437 618.039 706.807 616.299 706.417L613.899 705.937C611.709 705.457 609.309 704.497 609.309 701.467C609.309 698.617 612.189 696.967 615.759 696.967C619.269 696.967 621.609 698.887 622.119 701.977ZM631.229 697.207C631.229 693.037 635.579 691.267 639.089 691.267C643.019 691.267 646.469 693.037 647.339 697.207H644.369C643.649 694.717 641.129 693.847 638.969 693.847C637.289 693.847 634.349 694.597 634.349 697.027C634.349 698.947 635.849 699.907 637.889 700.357L640.409 700.927C643.739 701.647 647.729 702.907 647.729 707.287C647.729 711.517 643.769 713.797 639.449 713.797C634.319 713.797 631.079 710.977 630.509 706.657H633.509C634.079 709.657 636.149 711.217 639.509 711.217C642.749 711.217 644.579 709.717 644.579 707.557C644.579 705.247 642.599 704.347 639.899 703.717L637.199 703.147C634.199 702.487 631.229 700.807 631.229 697.207ZM660.791 706.657V705.637C655.841 706.117 652.691 706.867 652.691 709.087C652.691 710.617 653.861 711.637 655.811 711.637C658.361 711.637 660.791 710.467 660.791 706.657ZM655.211 713.797C652.181 713.797 649.661 712.117 649.661 709.147C649.661 705.337 653.981 704.197 660.581 703.477V703.087C660.581 700.117 658.961 699.157 656.921 699.157C654.641 699.157 653.351 700.357 653.231 702.367H650.411C650.651 698.887 653.771 696.937 656.891 696.937C661.361 696.937 663.341 699.037 663.311 703.597L663.281 707.317C663.251 710.047 663.371 711.877 663.701 713.407H660.941C660.851 712.807 660.761 712.147 660.731 711.187C659.741 712.867 658.091 713.797 655.211 713.797ZM669.509 691.657V713.407H666.779V691.657H669.509ZM683.409 706.657V705.637C678.459 706.117 675.309 706.867 675.309 709.087C675.309 710.617 676.479 711.637 678.429 711.637C680.979 711.637 683.409 710.467 683.409 706.657ZM677.829 713.797C674.799 713.797 672.279 712.117 672.279 709.147C672.279 705.337 676.599 704.197 683.199 703.477V703.087C683.199 700.117 681.579 699.157 679.539 699.157C677.259 699.157 675.969 700.357 675.849 702.367H673.029C673.269 698.887 676.389 696.937 679.509 696.937C683.979 696.937 685.959 699.037 685.929 703.597L685.899 707.317C685.869 710.047 685.989 711.877 686.319 713.407H683.559C683.469 712.807 683.379 712.147 683.349 711.187C682.359 712.867 680.709 713.797 677.829 713.797ZM699.567 706.657V705.637C694.617 706.117 691.467 706.867 691.467 709.087C691.467 710.617 692.637 711.637 694.587 711.637C697.137 711.637 699.567 710.467 699.567 706.657ZM693.987 713.797C690.957 713.797 688.437 712.117 688.437 709.147C688.437 705.337 692.757 704.197 699.357 703.477V703.087C699.357 700.117 697.737 699.157 695.697 699.157C693.417 699.157 692.127 700.357 692.007 702.367H689.187C689.427 698.887 692.547 696.937 695.667 696.937C700.137 696.937 702.117 699.037 702.087 703.597L702.057 707.317C702.027 710.047 702.147 711.877 702.477 713.407H699.717C699.627 712.807 699.537 712.147 699.507 711.187C698.517 712.867 696.867 713.797 693.987 713.797ZM708.285 704.647V713.407H705.555V697.267H708.285V699.697C709.215 698.167 710.715 696.997 713.145 696.997C715.635 696.997 717.075 698.047 717.795 699.847C719.085 697.837 720.945 696.997 723.225 696.997C726.975 696.997 728.445 699.517 728.445 703.207V713.407H725.715V704.017C725.715 701.527 725.235 699.367 722.265 699.367C719.895 699.367 718.365 701.167 718.365 704.647V713.407H715.635V704.017C715.635 701.527 715.155 699.367 712.185 699.367C709.815 699.367 708.285 701.167 708.285 704.647Z" fill="white"/>
<path d="M576.591 11.842H578.373C577.797 14.722 575.547 16.234 572.721 16.234C568.977 16.234 566.799 13.408 566.799 9.448C566.799 5.416 569.193 2.716 572.865 2.716C575.565 2.716 577.725 4.318 578.301 7.108H576.519C576.141 5.47 574.845 4.264 572.775 4.264C570.471 4.264 568.671 6.064 568.671 9.448C568.671 12.76 570.399 14.686 572.829 14.686C574.917 14.686 576.177 13.516 576.591 11.842ZM580.976 2.95V16H579.338V2.95H580.976ZM591.224 11.698H583.772C583.826 13.786 585.338 14.794 586.76 14.794C588.2 14.794 588.992 14.146 589.406 13.192H591.098C590.666 14.848 589.118 16.234 586.76 16.234C583.7 16.234 582.008 14.038 582.008 11.176C582.008 8.098 584.06 6.154 586.706 6.154C589.676 6.154 591.422 8.62 591.224 11.698ZM586.706 7.558C585.266 7.558 583.934 8.35 583.79 10.294H589.496C589.442 8.926 588.452 7.558 586.706 7.558ZM598.247 11.95V11.338C595.277 11.626 593.387 12.076 593.387 13.408C593.387 14.326 594.089 14.938 595.259 14.938C596.789 14.938 598.247 14.236 598.247 11.95ZM594.899 16.234C593.081 16.234 591.569 15.226 591.569 13.444C591.569 11.158 594.161 10.474 598.121 10.042V9.808C598.121 8.026 597.149 7.45 595.925 7.45C594.557 7.45 593.783 8.17 593.711 9.376H592.019C592.163 7.288 594.035 6.118 595.907 6.118C598.589 6.118 599.777 7.378 599.759 10.114L599.741 12.346C599.723 13.984 599.795 15.082 599.993 16H598.337C598.283 15.64 598.229 15.244 598.211 14.668C597.617 15.676 596.627 16.234 594.899 16.234ZM602.938 6.316V7.774C603.496 6.856 604.432 6.154 606.07 6.154C608.41 6.154 609.256 7.666 609.256 9.88V16H607.618V10.366C607.618 8.872 607.366 7.576 605.494 7.576C603.91 7.576 602.938 8.656 602.938 10.744V16H601.3V6.316H602.938ZM619.356 11.698H611.904C611.958 13.786 613.47 14.794 614.892 14.794C616.332 14.794 617.124 14.146 617.538 13.192H619.23C618.798 14.848 617.25 16.234 614.892 16.234C611.832 16.234 610.14 14.038 610.14 11.176C610.14 8.098 612.192 6.154 614.838 6.154C617.808 6.154 619.554 8.62 619.356 11.698ZM614.838 7.558C613.398 7.558 612.066 8.35 611.922 10.294H617.628C617.574 8.926 616.584 7.558 614.838 7.558ZM625.189 6.28V8.026C624.847 7.972 624.541 7.954 624.271 7.954C622.759 7.954 622.003 8.782 622.003 10.924V16H620.365V6.316H621.967V8.008C622.453 6.91 623.425 6.316 624.703 6.262C624.865 6.262 624.991 6.262 625.189 6.28ZM631.647 13.48L633.573 6.316H635.265L637.191 13.48L639.045 6.316H640.809L638.019 16H636.525L634.383 8.206L632.313 16H630.819L628.029 6.316H629.793L631.647 13.48ZM647.217 11.95V11.338C644.247 11.626 642.357 12.076 642.357 13.408C642.357 14.326 643.059 14.938 644.229 14.938C645.759 14.938 647.217 14.236 647.217 11.95ZM643.869 16.234C642.051 16.234 640.539 15.226 640.539 13.444C640.539 11.158 643.131 10.474 647.091 10.042V9.808C647.091 8.026 646.119 7.45 644.895 7.45C643.527 7.45 642.753 8.17 642.681 9.376H640.989C641.133 7.288 643.005 6.118 644.877 6.118C647.559 6.118 648.747 7.378 648.729 10.114L648.711 12.346C648.693 13.984 648.765 15.082 648.963 16H647.307C647.253 15.64 647.199 15.244 647.181 14.668C646.587 15.676 645.597 16.234 643.869 16.234ZM650.737 6.316V3.886H652.375V6.316H654.211V7.63H652.375V13.372C652.375 14.38 652.447 14.632 653.383 14.632H654.211V16H653.023C651.169 16 650.737 15.586 650.737 13.57V7.63H649.207V6.316H650.737ZM663.685 11.698H656.233C656.287 13.786 657.799 14.794 659.221 14.794C660.661 14.794 661.453 14.146 661.867 13.192H663.559C663.127 14.848 661.579 16.234 659.221 16.234C656.161 16.234 654.469 14.038 654.469 11.176C654.469 8.098 656.521 6.154 659.167 6.154C662.137 6.154 663.883 8.62 663.685 11.698ZM659.167 7.558C657.727 7.558 656.395 8.35 656.251 10.294H661.957C661.903 8.926 660.913 7.558 659.167 7.558ZM669.518 6.28V8.026C669.176 7.972 668.87 7.954 668.6 7.954C667.088 7.954 666.332 8.782 666.332 10.924V16H664.694V6.316H666.296V8.008C666.782 6.91 667.754 6.316 669.032 6.262C669.194 6.262 669.32 6.262 669.518 6.28ZM679.666 11.95V11.338C676.696 11.626 674.806 12.076 674.806 13.408C674.806 14.326 675.508 14.938 676.678 14.938C678.208 14.938 679.666 14.236 679.666 11.95ZM676.318 16.234C674.5 16.234 672.988 15.226 672.988 13.444C672.988 11.158 675.58 10.474 679.54 10.042V9.808C679.54 8.026 678.568 7.45 677.344 7.45C675.976 7.45 675.202 8.17 675.13 9.376H673.438C673.582 7.288 675.454 6.118 677.326 6.118C680.008 6.118 681.196 7.378 681.178 10.114L681.16 12.346C681.142 13.984 681.214 15.082 681.412 16H679.756C679.702 15.64 679.648 15.244 679.63 14.668C679.036 15.676 678.046 16.234 676.318 16.234ZM684.356 6.316V7.774C684.914 6.856 685.85 6.154 687.488 6.154C689.828 6.154 690.674 7.666 690.674 9.88V16H689.036V10.366C689.036 8.872 688.784 7.576 686.912 7.576C685.328 7.576 684.356 8.656 684.356 10.744V16H682.718V6.316H684.356ZM698.867 7.846V2.95H700.505V16H698.867V14.542C698.273 15.568 697.265 16.234 695.699 16.234C693.467 16.234 691.559 14.416 691.559 11.194C691.559 8.026 693.467 6.154 695.699 6.154C697.265 6.154 698.273 6.82 698.867 7.846ZM698.939 11.194C698.939 8.638 697.571 7.558 696.113 7.558C694.439 7.558 693.341 8.872 693.341 11.194C693.341 13.516 694.439 14.83 696.113 14.83C697.571 14.83 698.939 13.75 698.939 11.194ZM605.311 37.142H603.601C603.331 35.99 602.467 35.54 601.315 35.54C600.361 35.54 599.281 35.882 599.281 36.764C599.281 37.538 599.821 37.88 600.757 38.078L602.125 38.348C603.889 38.672 605.437 39.374 605.437 41.228C605.437 43.154 603.709 44.234 601.495 44.234C598.957 44.234 597.535 42.56 597.337 40.868H599.065C599.335 42.11 600.091 42.848 601.531 42.848C602.773 42.848 603.781 42.326 603.781 41.408C603.781 40.418 602.863 40.04 601.819 39.806L600.379 39.518C599.065 39.23 597.625 38.654 597.625 36.836C597.625 35.126 599.353 34.136 601.495 34.136C603.601 34.136 605.005 35.288 605.311 37.142ZM612.716 39.95V39.338C609.746 39.626 607.856 40.076 607.856 41.408C607.856 42.326 608.558 42.938 609.728 42.938C611.258 42.938 612.716 42.236 612.716 39.95ZM609.368 44.234C607.55 44.234 606.038 43.226 606.038 41.444C606.038 39.158 608.63 38.474 612.59 38.042V37.808C612.59 36.026 611.618 35.45 610.394 35.45C609.026 35.45 608.252 36.17 608.18 37.376H606.488C606.632 35.288 608.504 34.118 610.376 34.118C613.058 34.118 614.246 35.378 614.228 38.114L614.21 40.346C614.192 41.984 614.264 43.082 614.462 44H612.806C612.752 43.64 612.698 43.244 612.68 42.668C612.086 43.676 611.096 44.234 609.368 44.234ZM617.407 34.316V35.774C617.965 34.856 618.901 34.154 620.539 34.154C622.879 34.154 623.725 35.666 623.725 37.88V44H622.087V38.366C622.087 36.872 621.835 35.576 619.963 35.576C618.379 35.576 617.407 36.656 617.407 38.744V44H615.769V34.316H617.407ZM625.275 34.316H626.913V44H625.275V34.316ZM625.275 30.95H626.913V32.93H625.275V30.95ZM629.079 34.316V31.886H630.717V34.316H632.553V35.63H630.717V41.372C630.717 42.38 630.789 42.632 631.725 42.632H632.553V44H631.365C629.511 44 629.079 43.586 629.079 41.57V35.63H627.549V34.316H629.079ZM639.667 39.95V39.338C636.697 39.626 634.807 40.076 634.807 41.408C634.807 42.326 635.509 42.938 636.679 42.938C638.209 42.938 639.667 42.236 639.667 39.95ZM636.319 44.234C634.501 44.234 632.989 43.226 632.989 41.444C632.989 39.158 635.581 38.474 639.541 38.042V37.808C639.541 36.026 638.569 35.45 637.345 35.45C635.977 35.45 635.203 36.17 635.131 37.376H633.439C633.583 35.288 635.455 34.118 637.327 34.118C640.009 34.118 641.197 35.378 641.179 38.114L641.161 40.346C641.143 41.984 641.215 43.082 641.413 44H639.757C639.703 43.64 639.649 43.244 639.631 42.668C639.037 43.676 638.047 44.234 636.319 44.234ZM643.187 34.316V31.886H644.825V34.316H646.661V35.63H644.825V41.372C644.825 42.38 644.897 42.632 645.833 42.632H646.661V44H645.473C643.619 44 643.187 43.586 643.187 41.57V35.63H641.657V34.316H643.187ZM647.849 34.316H649.487V44H647.849V34.316ZM647.849 30.95H649.487V32.93H647.849V30.95ZM652.301 39.194C652.301 41.786 653.705 42.794 655.199 42.794C656.693 42.794 658.097 41.678 658.097 39.194C658.097 36.602 656.693 35.594 655.199 35.594C653.705 35.594 652.301 36.548 652.301 39.194ZM655.199 34.154C657.449 34.154 659.843 35.684 659.843 39.194C659.843 42.704 657.449 44.234 655.199 44.234C652.949 44.234 650.555 42.704 650.555 39.194C650.555 35.684 652.949 34.154 655.199 34.154ZM662.54 34.316V35.774C663.098 34.856 664.034 34.154 665.672 34.154C668.012 34.154 668.858 35.666 668.858 37.88V44H667.22V38.366C667.22 36.872 666.968 35.576 665.096 35.576C663.512 35.576 662.54 36.656 662.54 38.744V44H660.902V34.316H662.54Z" fill="white"/>
<path d="M404.147 64.6482V76.1142H411.041V77.6982H402.311V64.6482H404.147ZM411.442 68.0142H413.08V77.6982H411.442V68.0142ZM411.442 64.6482H413.08V66.6282H411.442V64.6482ZM415.192 68.0142V67.3122C415.192 65.2962 415.588 64.6482 417.802 64.6482H418.648V66.0162H417.838C416.974 66.0162 416.83 66.2142 416.83 67.2222V68.0142H418.648V69.3282H416.83V77.6982H415.192V69.3282H413.842V68.0142H415.192ZM427.719 73.3962H420.267C420.321 75.4842 421.833 76.4922 423.255 76.4922C424.695 76.4922 425.487 75.8442 425.901 74.8902H427.593C427.161 76.5462 425.613 77.9322 423.255 77.9322C420.195 77.9322 418.503 75.7362 418.503 72.8742C418.503 69.7962 420.555 67.8522 423.201 67.8522C426.171 67.8522 427.917 70.3182 427.719 73.3962ZM423.201 69.2562C421.761 69.2562 420.429 70.0482 420.285 71.9922H425.991C425.937 70.6242 424.947 69.2562 423.201 69.2562ZM433.666 72.8922C433.666 75.4482 435.034 76.5282 436.492 76.5282C438.166 76.5282 439.264 75.2142 439.264 72.8922C439.264 70.5702 438.166 69.2562 436.492 69.2562C435.034 69.2562 433.666 70.3362 433.666 72.8922ZM432.1 64.6482H433.738V69.5442C434.332 68.5182 435.34 67.8522 436.906 67.8522C439.138 67.8522 441.046 69.7242 441.046 72.8922C441.046 76.1142 439.138 77.9322 436.906 77.9322C435.34 77.9322 434.332 77.2662 433.738 76.2402V77.6982H432.1V64.6482ZM450.701 73.3962H443.249C443.303 75.4842 444.815 76.4922 446.237 76.4922C447.677 76.4922 448.469 75.8442 448.883 74.8902H450.575C450.143 76.5462 448.595 77.9322 446.237 77.9322C443.177 77.9322 441.485 75.7362 441.485 72.8742C441.485 69.7962 443.537 67.8522 446.183 67.8522C449.153 67.8522 450.899 70.3182 450.701 73.3962ZM446.183 69.2562C444.743 69.2562 443.411 70.0482 443.267 71.9922H448.973C448.919 70.6242 447.929 69.2562 446.183 69.2562ZM453.348 64.6482V77.6982H451.71V64.6482H453.348ZM456.162 72.8922C456.162 75.4842 457.566 76.4922 459.06 76.4922C460.554 76.4922 461.958 75.3762 461.958 72.8922C461.958 70.3002 460.554 69.2922 459.06 69.2922C457.566 69.2922 456.162 70.2462 456.162 72.8922ZM459.06 67.8522C461.31 67.8522 463.704 69.3822 463.704 72.8922C463.704 76.4022 461.31 77.9322 459.06 77.9322C456.81 77.9322 454.416 76.4022 454.416 72.8922C454.416 69.3822 456.81 67.8522 459.06 67.8522ZM467.087 75.1782L469.013 68.0142H470.705L472.631 75.1782L474.485 68.0142H476.249L473.459 77.6982H471.965L469.823 69.9042L467.753 77.6982H466.259L463.469 68.0142H465.233L467.087 75.1782ZM482.514 75.1782L484.44 68.0142H486.132L488.058 75.1782L489.912 68.0142H491.676L488.886 77.6982H487.392L485.25 69.9042L483.18 77.6982H481.686L478.896 68.0142H480.66L482.514 75.1782ZM498.083 73.6482V73.0362C495.113 73.3242 493.223 73.7742 493.223 75.1062C493.223 76.0242 493.925 76.6362 495.095 76.6362C496.625 76.6362 498.083 75.9342 498.083 73.6482ZM494.735 77.9322C492.917 77.9322 491.405 76.9242 491.405 75.1422C491.405 72.8562 493.997 72.1722 497.957 71.7402V71.5062C497.957 69.7242 496.985 69.1482 495.761 69.1482C494.393 69.1482 493.619 69.8682 493.547 71.0742H491.855C491.999 68.9862 493.871 67.8162 495.743 67.8162C498.425 67.8162 499.613 69.0762 499.595 71.8122L499.577 74.0442C499.559 75.6822 499.631 76.7802 499.829 77.6982H498.173C498.119 77.3382 498.065 76.9422 498.047 76.3662C497.453 77.3742 496.463 77.9322 494.735 77.9322ZM501.604 68.0142V65.5842H503.242V68.0142H505.078V69.3282H503.242V75.0702C503.242 76.0782 503.314 76.3302 504.25 76.3302H505.078V77.6982H503.89C502.036 77.6982 501.604 77.2842 501.604 75.2682V69.3282H500.074V68.0142H501.604ZM514.552 73.3962H507.1C507.154 75.4842 508.666 76.4922 510.088 76.4922C511.528 76.4922 512.32 75.8442 512.734 74.8902H514.426C513.994 76.5462 512.446 77.9322 510.088 77.9322C507.028 77.9322 505.336 75.7362 505.336 72.8742C505.336 69.7962 507.388 67.8522 510.034 67.8522C513.004 67.8522 514.75 70.3182 514.552 73.3962ZM510.034 69.2562C508.594 69.2562 507.262 70.0482 507.118 71.9922H512.824C512.77 70.6242 511.78 69.2562 510.034 69.2562ZM520.385 67.9782V69.7242C520.043 69.6702 519.737 69.6522 519.467 69.6522C517.955 69.6522 517.199 70.4802 517.199 72.6222V77.6982H515.561V68.0142H517.163V69.7062C517.649 68.6082 518.621 68.0142 519.899 67.9602C520.061 67.9602 520.187 67.9602 520.385 67.9782Z" fill="white"/>
<path d="M268.369 132.565C271.069 132.565 273.229 134.077 273.769 136.597H271.987C271.555 135.139 270.367 134.113 268.279 134.113C265.975 134.113 264.175 135.913 264.175 139.297C264.175 142.609 265.885 144.535 268.279 144.535C270.007 144.535 272.131 143.815 272.131 141.115V140.773H268.675V139.189H273.859V145.849H272.419L272.329 144.211C271.483 145.561 269.953 146.083 268.207 146.083C264.463 146.083 262.303 143.257 262.303 139.297C262.303 135.265 264.697 132.565 268.369 132.565ZM276.749 141.043C276.749 143.635 278.153 144.643 279.647 144.643C281.141 144.643 282.545 143.527 282.545 141.043C282.545 138.451 281.141 137.443 279.647 137.443C278.153 137.443 276.749 138.397 276.749 141.043ZM279.647 136.003C281.897 136.003 284.291 137.533 284.291 141.043C284.291 144.553 281.897 146.083 279.647 146.083C277.397 146.083 275.003 144.553 275.003 141.043C275.003 137.533 277.397 136.003 279.647 136.003ZM286.606 141.043C286.606 143.635 288.01 144.643 289.504 144.643C290.998 144.643 292.402 143.527 292.402 141.043C292.402 138.451 290.998 137.443 289.504 137.443C288.01 137.443 286.606 138.397 286.606 141.043ZM289.504 136.003C291.754 136.003 294.148 137.533 294.148 141.043C294.148 144.553 291.754 146.083 289.504 146.083C287.254 146.083 284.86 144.553 284.86 141.043C284.86 137.533 287.254 136.003 289.504 136.003ZM301.99 137.695V132.799H303.628V145.849H301.99V144.391C301.396 145.417 300.388 146.083 298.822 146.083C296.59 146.083 294.682 144.265 294.682 141.043C294.682 137.875 296.59 136.003 298.822 136.003C300.388 136.003 301.396 136.669 301.99 137.695ZM302.062 141.043C302.062 138.487 300.694 137.407 299.236 137.407C297.562 137.407 296.464 138.721 296.464 141.043C296.464 143.365 297.562 144.679 299.236 144.679C300.694 144.679 302.062 143.599 302.062 141.043ZM310.321 132.799V137.623C310.879 136.705 311.815 136.003 313.453 136.003C315.793 136.003 316.639 137.515 316.639 139.729V145.849H315.001V140.215C315.001 138.721 314.749 137.425 312.877 137.425C311.293 137.425 310.321 138.505 310.321 140.593V145.849H308.683V132.799H310.321ZM326.739 141.547H319.287C319.341 143.635 320.853 144.643 322.275 144.643C323.715 144.643 324.507 143.995 324.921 143.041H326.613C326.181 144.697 324.633 146.083 322.275 146.083C319.215 146.083 317.523 143.887 317.523 141.025C317.523 137.947 319.575 136.003 322.221 136.003C325.191 136.003 326.937 138.469 326.739 141.547ZM322.221 137.407C320.781 137.407 319.449 138.199 319.305 140.143H325.011C324.957 138.775 323.967 137.407 322.221 137.407ZM333.762 141.799V141.187C330.792 141.475 328.902 141.925 328.902 143.257C328.902 144.175 329.604 144.787 330.774 144.787C332.304 144.787 333.762 144.085 333.762 141.799ZM330.414 146.083C328.596 146.083 327.084 145.075 327.084 143.293C327.084 141.007 329.676 140.323 333.636 139.891V139.657C333.636 137.875 332.664 137.299 331.44 137.299C330.072 137.299 329.298 138.019 329.226 139.225H327.534C327.678 137.137 329.55 135.967 331.422 135.967C334.104 135.967 335.292 137.227 335.274 139.963L335.256 142.195C335.238 143.833 335.31 144.931 335.508 145.849H333.852C333.798 145.489 333.744 145.093 333.726 144.517C333.132 145.525 332.142 146.083 330.414 146.083ZM338.453 132.799V145.849H336.815V132.799H338.453ZM340.619 136.165V133.735H342.257V136.165H344.093V137.479H342.257V143.221C342.257 144.229 342.329 144.481 343.265 144.481H344.093V145.849H342.905C341.051 145.849 340.619 145.435 340.619 143.419V137.479H339.089V136.165H340.619ZM346.919 132.799V137.623C347.477 136.705 348.413 136.003 350.051 136.003C352.391 136.003 353.237 137.515 353.237 139.729V145.849H351.599V140.215C351.599 138.721 351.347 137.425 349.475 137.425C347.891 137.425 346.919 138.505 346.919 140.593V145.849H345.281V132.799H346.919ZM259.945 169.799V169.187C256.975 169.475 255.085 169.925 255.085 171.257C255.085 172.175 255.787 172.787 256.957 172.787C258.487 172.787 259.945 172.085 259.945 169.799ZM256.597 174.083C254.779 174.083 253.267 173.075 253.267 171.293C253.267 169.007 255.859 168.323 259.819 167.891V167.657C259.819 165.875 258.847 165.299 257.623 165.299C256.255 165.299 255.481 166.019 255.409 167.225H253.717C253.861 165.137 255.733 163.967 257.605 163.967C260.287 163.967 261.475 165.227 261.457 167.963L261.439 170.195C261.421 171.833 261.493 172.931 261.691 173.849H260.035C259.981 173.489 259.927 173.093 259.909 172.517C259.315 173.525 258.325 174.083 256.597 174.083ZM264.635 164.165V165.623C265.193 164.705 266.129 164.003 267.767 164.003C270.107 164.003 270.953 165.515 270.953 167.729V173.849H269.315V168.215C269.315 166.721 269.063 165.425 267.191 165.425C265.607 165.425 264.635 166.505 264.635 168.593V173.849H262.997V164.165H264.635ZM279.146 165.695V160.799H280.784V173.849H279.146V172.391C278.552 173.417 277.544 174.083 275.978 174.083C273.746 174.083 271.838 172.265 271.838 169.043C271.838 165.875 273.746 164.003 275.978 164.003C277.544 164.003 278.552 164.669 279.146 165.695ZM279.218 169.043C279.218 166.487 277.85 165.407 276.392 165.407C274.718 165.407 273.62 166.721 273.62 169.043C273.62 171.365 274.718 172.679 276.392 172.679C277.85 172.679 279.218 171.599 279.218 169.043ZM288.25 171.329L290.176 164.165H291.868L293.794 171.329L295.648 164.165H297.412L294.622 173.849H293.128L290.986 166.055L288.916 173.849H287.422L284.632 164.165H286.396L288.25 171.329ZM306.356 169.547H298.904C298.958 171.635 300.47 172.643 301.892 172.643C303.332 172.643 304.124 171.995 304.538 171.041H306.23C305.798 172.697 304.25 174.083 301.892 174.083C298.832 174.083 297.14 171.887 297.14 169.025C297.14 165.947 299.192 164.003 301.838 164.003C304.808 164.003 306.554 166.469 306.356 169.547ZM301.838 165.407C300.398 165.407 299.066 166.199 298.922 168.143H304.628C304.574 166.775 303.584 165.407 301.838 165.407ZM309.003 160.799V173.849H307.365V160.799H309.003ZM312.339 160.799V173.849H310.701V160.799H312.339ZM319.239 169.691H313.515V168.143H319.239V169.691ZM321.998 169.043C321.998 171.599 323.366 172.679 324.824 172.679C326.498 172.679 327.596 171.365 327.596 169.043C327.596 166.721 326.498 165.407 324.824 165.407C323.366 165.407 321.998 166.487 321.998 169.043ZM320.432 160.799H322.07V165.695C322.664 164.669 323.672 164.003 325.238 164.003C327.47 164.003 329.378 165.875 329.378 169.043C329.378 172.265 327.47 174.083 325.238 174.083C323.672 174.083 322.664 173.417 322.07 172.391V173.849H320.432V160.799ZM339.033 169.547H331.581C331.635 171.635 333.147 172.643 334.569 172.643C336.009 172.643 336.801 171.995 337.215 171.041H338.907C338.475 172.697 336.927 174.083 334.569 174.083C331.509 174.083 329.817 171.887 329.817 169.025C329.817 165.947 331.869 164.003 334.515 164.003C337.485 164.003 339.231 166.469 339.033 169.547ZM334.515 165.407C333.075 165.407 331.743 166.199 331.599 168.143H337.305C337.251 166.775 336.261 165.407 334.515 165.407ZM340.042 164.165H341.68V173.849H340.042V164.165ZM340.042 160.799H341.68V162.779H340.042V160.799ZM345.017 164.165V165.623C345.575 164.705 346.511 164.003 348.149 164.003C350.489 164.003 351.335 165.515 351.335 167.729V173.849H349.697V168.215C349.697 166.721 349.445 165.425 347.573 165.425C345.989 165.425 345.017 166.505 345.017 168.593V173.849H343.379V164.165H345.017ZM359.401 165.695V164.165H361.039V172.553C361.039 174.515 360.679 175.343 360.121 175.955C359.419 176.765 358.213 177.233 356.773 177.233C354.559 177.233 353.101 176.225 352.795 174.263H354.541C354.739 175.127 355.297 175.793 356.791 175.793C357.673 175.793 358.321 175.559 358.771 175.073C359.113 174.677 359.401 174.263 359.401 172.931V172.013C358.807 173.039 357.889 173.687 356.323 173.687C354.181 173.687 352.219 171.959 352.219 168.845C352.219 165.749 354.181 164.003 356.323 164.003C357.889 164.003 358.807 164.669 359.401 165.695ZM359.473 168.845C359.473 166.397 358.177 165.407 356.737 165.407C355.135 165.407 354.001 166.631 354.001 168.845C354.001 171.077 355.135 172.301 356.737 172.301C358.177 172.301 359.473 171.311 359.473 168.845Z" fill="white"/>
<path d="M895.753 136.129C895.753 133.627 898.363 132.565 900.469 132.565C902.827 132.565 904.897 133.627 905.419 136.129H903.637C903.205 134.635 901.693 134.113 900.397 134.113C899.389 134.113 897.625 134.563 897.625 136.021C897.625 137.173 898.525 137.749 899.749 138.019L901.261 138.361C903.259 138.793 905.653 139.549 905.653 142.177C905.653 144.715 903.277 146.083 900.685 146.083C897.607 146.083 895.663 144.391 895.321 141.799H897.121C897.463 143.599 898.705 144.535 900.721 144.535C902.665 144.535 903.763 143.635 903.763 142.339C903.763 140.953 902.575 140.413 900.955 140.035L899.335 139.693C897.535 139.297 895.753 138.289 895.753 136.129ZM912.754 145.849V144.463C912.196 145.381 911.314 146.083 909.712 146.083C907.48 146.083 906.616 144.571 906.616 142.357V136.165H908.254V141.871C908.254 143.365 908.488 144.661 910.288 144.661C911.854 144.661 912.754 143.581 912.754 141.493V136.165H914.392V145.849H912.754ZM923.345 138.991H921.635C921.365 137.839 920.501 137.389 919.349 137.389C918.395 137.389 917.315 137.731 917.315 138.613C917.315 139.387 917.855 139.729 918.791 139.927L920.159 140.197C921.923 140.521 923.471 141.223 923.471 143.077C923.471 145.003 921.743 146.083 919.529 146.083C916.991 146.083 915.569 144.409 915.371 142.717H917.099C917.369 143.959 918.125 144.697 919.565 144.697C920.807 144.697 921.815 144.175 921.815 143.257C921.815 142.267 920.897 141.889 919.853 141.655L918.413 141.367C917.099 141.079 915.659 140.503 915.659 138.685C915.659 136.975 917.387 135.985 919.529 135.985C921.635 135.985 923.039 137.137 923.345 138.991ZM925.116 136.165V133.735H926.754V136.165H928.59V137.479H926.754V143.221C926.754 144.229 926.826 144.481 927.762 144.481H928.59V145.849H927.402C925.548 145.849 925.116 145.435 925.116 143.419V137.479H923.586V136.165H925.116ZM935.703 141.799V141.187C932.733 141.475 930.843 141.925 930.843 143.257C930.843 144.175 931.545 144.787 932.715 144.787C934.245 144.787 935.703 144.085 935.703 141.799ZM932.355 146.083C930.537 146.083 929.025 145.075 929.025 143.293C929.025 141.007 931.617 140.323 935.577 139.891V139.657C935.577 137.875 934.605 137.299 933.381 137.299C932.013 137.299 931.239 138.019 931.167 139.225H929.475C929.619 137.137 931.491 135.967 933.363 135.967C936.045 135.967 937.233 137.227 937.215 139.963L937.197 142.195C937.179 143.833 937.251 144.931 937.449 145.849H935.793C935.739 145.489 935.685 145.093 935.667 144.517C935.073 145.525 934.083 146.083 932.355 146.083ZM938.756 136.165H940.394V145.849H938.756V136.165ZM938.756 132.799H940.394V134.779H938.756V132.799ZM943.73 136.165V137.623C944.288 136.705 945.224 136.003 946.862 136.003C949.202 136.003 950.048 137.515 950.048 139.729V145.849H948.41V140.215C948.41 138.721 948.158 137.425 946.286 137.425C944.702 137.425 943.73 138.505 943.73 140.593V145.849H942.092V136.165H943.73ZM957.7 141.799V141.187C954.73 141.475 952.84 141.925 952.84 143.257C952.84 144.175 953.542 144.787 954.712 144.787C956.242 144.787 957.7 144.085 957.7 141.799ZM954.352 146.083C952.534 146.083 951.022 145.075 951.022 143.293C951.022 141.007 953.614 140.323 957.574 139.891V139.657C957.574 137.875 956.602 137.299 955.378 137.299C954.01 137.299 953.236 138.019 953.164 139.225H951.472C951.616 137.137 953.488 135.967 955.36 135.967C958.042 135.967 959.23 137.227 959.212 139.963L959.194 142.195C959.176 143.833 959.248 144.931 959.446 145.849H957.79C957.736 145.489 957.682 145.093 957.664 144.517C957.07 145.525 956.08 146.083 954.352 146.083ZM962.319 141.043C962.319 143.599 963.687 144.679 965.145 144.679C966.819 144.679 967.917 143.365 967.917 141.043C967.917 138.721 966.819 137.407 965.145 137.407C963.687 137.407 962.319 138.487 962.319 141.043ZM960.753 132.799H962.391V137.695C962.985 136.669 963.993 136.003 965.559 136.003C967.791 136.003 969.699 137.875 969.699 141.043C969.699 144.265 967.791 146.083 965.559 146.083C963.993 146.083 962.985 145.417 962.391 144.391V145.849H960.753V132.799ZM972.302 132.799V145.849H970.664V132.799H972.302ZM982.55 141.547H975.098C975.152 143.635 976.664 144.643 978.086 144.643C979.526 144.643 980.318 143.995 980.732 143.041H982.424C981.992 144.697 980.444 146.083 978.086 146.083C975.026 146.083 973.334 143.887 973.334 141.025C973.334 137.947 975.386 136.003 978.032 136.003C981.002 136.003 982.748 138.469 982.55 141.547ZM978.032 137.407C976.592 137.407 975.26 138.199 975.116 140.143H980.822C980.768 138.775 979.778 137.407 978.032 137.407ZM990.944 136.003C993.32 136.003 994.76 137.749 994.994 139.405H993.338C993.104 138.253 992.114 137.443 990.836 137.443C989.396 137.443 988.046 138.577 988.046 141.007C988.046 143.455 989.396 144.643 990.836 144.643C992.222 144.643 993.176 143.707 993.41 142.699H995.102C994.76 144.517 993.05 146.083 990.782 146.083C987.992 146.083 986.264 143.977 986.264 141.025C986.264 138.145 988.082 136.003 990.944 136.003ZM996.05 136.165H997.688V145.849H996.05V136.165ZM996.05 132.799H997.688V134.779H996.05V132.799ZM999.854 136.165V133.735H1001.49V136.165H1003.33V137.479H1001.49V143.221C1001.49 144.229 1001.56 144.481 1002.5 144.481H1003.33V145.849H1002.14C1000.29 145.849 999.854 145.435 999.854 143.419V137.479H998.324V136.165H999.854ZM1004.52 136.165H1006.15V145.849H1004.52V136.165ZM1004.52 132.799H1006.15V134.779H1004.52V132.799ZM1016.4 141.547H1008.95C1009 143.635 1010.52 144.643 1011.94 144.643C1013.38 144.643 1014.17 143.995 1014.58 143.041H1016.28C1015.84 144.697 1014.3 146.083 1011.94 146.083C1008.88 146.083 1007.19 143.887 1007.19 141.025C1007.19 137.947 1009.24 136.003 1011.88 136.003C1014.85 136.003 1016.6 138.469 1016.4 141.547ZM1011.88 137.407C1010.44 137.407 1009.11 138.199 1008.97 140.143H1014.67C1014.62 138.775 1013.63 137.407 1011.88 137.407ZM1024.7 138.991H1022.99C1022.72 137.839 1021.86 137.389 1020.7 137.389C1019.75 137.389 1018.67 137.731 1018.67 138.613C1018.67 139.387 1019.21 139.729 1020.15 139.927L1021.51 140.197C1023.28 140.521 1024.83 141.223 1024.83 143.077C1024.83 145.003 1023.1 146.083 1020.88 146.083C1018.35 146.083 1016.92 144.409 1016.73 142.717H1018.45C1018.72 143.959 1019.48 144.697 1020.92 144.697C1022.16 144.697 1023.17 144.175 1023.17 143.257C1023.17 142.267 1022.25 141.889 1021.21 141.655L1019.77 141.367C1018.45 141.079 1017.01 140.503 1017.01 138.685C1017.01 136.975 1018.74 135.985 1020.88 135.985C1022.99 135.985 1024.39 137.137 1024.7 138.991ZM901.53 169.799V169.187C898.56 169.475 896.67 169.925 896.67 171.257C896.67 172.175 897.372 172.787 898.542 172.787C900.072 172.787 901.53 172.085 901.53 169.799ZM898.182 174.083C896.364 174.083 894.852 173.075 894.852 171.293C894.852 169.007 897.444 168.323 901.404 167.891V167.657C901.404 165.875 900.432 165.299 899.208 165.299C897.84 165.299 897.066 166.019 896.994 167.225H895.302C895.446 165.137 897.318 163.967 899.19 163.967C901.872 163.967 903.06 165.227 903.042 167.963L903.024 170.195C903.006 171.833 903.078 172.931 903.276 173.849H901.62C901.566 173.489 901.512 173.093 901.494 172.517C900.9 173.525 899.91 174.083 898.182 174.083ZM906.22 164.165V165.623C906.778 164.705 907.714 164.003 909.352 164.003C911.692 164.003 912.538 165.515 912.538 167.729V173.849H910.9V168.215C910.9 166.721 910.648 165.425 908.776 165.425C907.192 165.425 906.22 166.505 906.22 168.593V173.849H904.582V164.165H906.22ZM920.73 165.695V160.799H922.368V173.849H920.73V172.391C920.136 173.417 919.128 174.083 917.562 174.083C915.33 174.083 913.422 172.265 913.422 169.043C913.422 165.875 915.33 164.003 917.562 164.003C919.128 164.003 920.136 164.669 920.73 165.695ZM920.802 169.043C920.802 166.487 919.434 165.407 917.976 165.407C916.302 165.407 915.204 166.721 915.204 169.043C915.204 171.365 916.302 172.679 917.976 172.679C919.434 172.679 920.802 171.599 920.802 169.043ZM931.437 164.003C933.813 164.003 935.253 165.749 935.487 167.405H933.831C933.597 166.253 932.607 165.443 931.329 165.443C929.889 165.443 928.539 166.577 928.539 169.007C928.539 171.455 929.889 172.643 931.329 172.643C932.715 172.643 933.669 171.707 933.903 170.699H935.595C935.253 172.517 933.543 174.083 931.275 174.083C928.485 174.083 926.757 171.977 926.757 169.025C926.757 166.145 928.575 164.003 931.437 164.003ZM937.747 169.043C937.747 171.635 939.151 172.643 940.645 172.643C942.139 172.643 943.543 171.527 943.543 169.043C943.543 166.451 942.139 165.443 940.645 165.443C939.151 165.443 937.747 166.397 937.747 169.043ZM940.645 164.003C942.895 164.003 945.289 165.533 945.289 169.043C945.289 172.553 942.895 174.083 940.645 174.083C938.395 174.083 936.001 172.553 936.001 169.043C936.001 165.533 938.395 164.003 940.645 164.003ZM947.986 168.593V173.849H946.348V164.165H947.986V165.623C948.544 164.705 949.444 164.003 950.902 164.003C952.396 164.003 953.26 164.633 953.692 165.713C954.466 164.507 955.582 164.003 956.95 164.003C959.2 164.003 960.082 165.515 960.082 167.729V173.849H958.444V168.215C958.444 166.721 958.156 165.425 956.374 165.425C954.952 165.425 954.034 166.505 954.034 168.593V173.849H952.396V168.215C952.396 166.721 952.108 165.425 950.326 165.425C948.904 165.425 947.986 166.505 947.986 168.593ZM963.275 168.593V173.849H961.637V164.165H963.275V165.623C963.833 164.705 964.733 164.003 966.191 164.003C967.685 164.003 968.549 164.633 968.981 165.713C969.755 164.507 970.871 164.003 972.239 164.003C974.489 164.003 975.371 165.515 975.371 167.729V173.849H973.733V168.215C973.733 166.721 973.445 165.425 971.663 165.425C970.241 165.425 969.323 166.505 969.323 168.593V173.849H967.685V168.215C967.685 166.721 967.397 165.425 965.615 165.425C964.193 165.425 963.275 166.505 963.275 168.593ZM982.921 173.849V172.463C982.363 173.381 981.481 174.083 979.879 174.083C977.647 174.083 976.783 172.571 976.783 170.357V164.165H978.421V169.871C978.421 171.365 978.655 172.661 980.455 172.661C982.021 172.661 982.921 171.581 982.921 169.493V164.165H984.559V173.849H982.921ZM987.895 164.165V165.623C988.453 164.705 989.389 164.003 991.027 164.003C993.367 164.003 994.213 165.515 994.213 167.729V173.849H992.575V168.215C992.575 166.721 992.323 165.425 990.451 165.425C988.867 165.425 987.895 166.505 987.895 168.593V173.849H986.257V164.165H987.895ZM995.763 164.165H997.401V173.849H995.763V164.165ZM995.763 160.799H997.401V162.779H995.763V160.799ZM999.568 164.165V161.735H1001.21V164.165H1003.04V165.479H1001.21V171.221C1001.21 172.229 1001.28 172.481 1002.21 172.481H1003.04V173.849H1001.85C1000 173.849 999.568 173.435 999.568 171.419V165.479H998.038V164.165H999.568ZM1004.23 164.165H1005.87V173.849H1004.23V164.165ZM1004.23 160.799H1005.87V162.779H1004.23V160.799ZM1016.12 169.547H1008.66C1008.72 171.635 1010.23 172.643 1011.65 172.643C1013.09 172.643 1013.88 171.995 1014.3 171.041H1015.99C1015.56 172.697 1014.01 174.083 1011.65 174.083C1008.59 174.083 1006.9 171.887 1006.9 169.025C1006.9 165.947 1008.95 164.003 1011.6 164.003C1014.57 164.003 1016.31 166.469 1016.12 169.547ZM1011.6 165.407C1010.16 165.407 1008.83 166.199 1008.68 168.143H1014.39C1014.33 166.775 1013.34 165.407 1011.6 165.407ZM1024.41 166.991H1022.7C1022.43 165.839 1021.57 165.389 1020.42 165.389C1019.46 165.389 1018.38 165.731 1018.38 166.613C1018.38 167.387 1018.92 167.729 1019.86 167.927L1021.23 168.197C1022.99 168.521 1024.54 169.223 1024.54 171.077C1024.54 173.003 1022.81 174.083 1020.6 174.083C1018.06 174.083 1016.64 172.409 1016.44 170.717H1018.17C1018.44 171.959 1019.19 172.697 1020.63 172.697C1021.88 172.697 1022.88 172.175 1022.88 171.257C1022.88 170.267 1021.97 169.889 1020.92 169.655L1019.48 169.367C1018.17 169.079 1016.73 168.503 1016.73 166.685C1016.73 164.975 1018.46 163.985 1020.6 163.985C1022.7 163.985 1024.11 165.137 1024.41 166.991Z" fill="white"/>
<path d="M351.063 619.787C351.063 616.589 349.178 616.199 347.241 616.199H346.032V623.388H347.241C349.178 623.388 351.063 622.998 351.063 619.787ZM344.706 615.081H347.28C350.257 615.081 352.415 616.212 352.415 619.787C352.415 623.375 350.257 624.506 347.28 624.506H344.706V615.081ZM354.021 617.512H355.204V624.506H354.021V617.512ZM354.021 615.081H355.204V616.511H354.021V615.081ZM360.564 617.486V618.747C360.317 618.708 360.096 618.695 359.901 618.695C358.809 618.695 358.263 619.293 358.263 620.84V624.506H357.08V617.512H358.237V618.734C358.588 617.941 359.29 617.512 360.213 617.473C360.33 617.473 360.421 617.473 360.564 617.486ZM367.749 621.399H362.367C362.406 622.907 363.498 623.635 364.525 623.635C365.565 623.635 366.137 623.167 366.436 622.478H367.658C367.346 623.674 366.228 624.675 364.525 624.675C362.315 624.675 361.093 623.089 361.093 621.022C361.093 618.799 362.575 617.395 364.486 617.395C366.631 617.395 367.892 619.176 367.749 621.399ZM364.486 618.409C363.446 618.409 362.484 618.981 362.38 620.385H366.501C366.462 619.397 365.747 618.409 364.486 618.409ZM372.09 617.395C373.806 617.395 374.846 618.656 375.015 619.852H373.819C373.65 619.02 372.935 618.435 372.012 618.435C370.972 618.435 369.997 619.254 369.997 621.009C369.997 622.777 370.972 623.635 372.012 623.635C373.013 623.635 373.702 622.959 373.871 622.231H375.093C374.846 623.544 373.611 624.675 371.973 624.675C369.958 624.675 368.71 623.154 368.71 621.022C368.71 618.942 370.023 617.395 372.09 617.395ZM376.766 617.512V615.757H377.949V617.512H379.275V618.461H377.949V622.608C377.949 623.336 378.001 623.518 378.677 623.518H379.275V624.506H378.417C377.078 624.506 376.766 624.207 376.766 622.751V618.461H375.661V617.512H376.766ZM385.248 615.081V623.362H390.227V624.506H383.922V615.081H385.248ZM391.91 621.035C391.91 622.907 392.924 623.635 394.003 623.635C395.082 623.635 396.096 622.829 396.096 621.035C396.096 619.163 395.082 618.435 394.003 618.435C392.924 618.435 391.91 619.124 391.91 621.035ZM394.003 617.395C395.628 617.395 397.357 618.5 397.357 621.035C397.357 623.57 395.628 624.675 394.003 624.675C392.378 624.675 390.649 623.57 390.649 621.035C390.649 618.5 392.378 617.395 394.003 617.395ZM401.772 617.395C403.488 617.395 404.528 618.656 404.697 619.852H403.501C403.332 619.02 402.617 618.435 401.694 618.435C400.654 618.435 399.679 619.254 399.679 621.009C399.679 622.777 400.654 623.635 401.694 623.635C402.695 623.635 403.384 622.959 403.553 622.231H404.775C404.528 623.544 403.293 624.675 401.655 624.675C399.64 624.675 398.392 623.154 398.392 621.022C398.392 618.942 399.705 617.395 401.772 617.395ZM410.516 621.581V621.139C408.371 621.347 407.006 621.672 407.006 622.634C407.006 623.297 407.513 623.739 408.358 623.739C409.463 623.739 410.516 623.232 410.516 621.581ZM408.098 624.675C406.785 624.675 405.693 623.947 405.693 622.66C405.693 621.009 407.565 620.515 410.425 620.203V620.034C410.425 618.747 409.723 618.331 408.839 618.331C407.851 618.331 407.292 618.851 407.24 619.722H406.018C406.122 618.214 407.474 617.369 408.826 617.369C410.763 617.369 411.621 618.279 411.608 620.255L411.595 621.867C411.582 623.05 411.634 623.843 411.777 624.506H410.581C410.542 624.246 410.503 623.96 410.49 623.544C410.061 624.272 409.346 624.675 408.098 624.675ZM414.554 615.081V624.506H413.371V615.081H414.554ZM376.108 630.081V639.506H374.782V630.081H376.108ZM379.35 635.71V639.506H378.167V632.512H379.35V633.565C379.753 632.902 380.403 632.395 381.456 632.395C382.535 632.395 383.159 632.85 383.471 633.63C384.03 632.759 384.836 632.395 385.824 632.395C387.449 632.395 388.086 633.487 388.086 635.086V639.506H386.903V635.437C386.903 634.358 386.695 633.422 385.408 633.422C384.381 633.422 383.718 634.202 383.718 635.71V639.506H382.535V635.437C382.535 634.358 382.327 633.422 381.04 633.422C380.013 633.422 379.35 634.202 379.35 635.71ZM389.859 632.512H391.042V633.617C391.471 632.876 392.199 632.395 393.33 632.395C394.942 632.395 396.32 633.747 396.32 636.035C396.32 638.362 394.942 639.675 393.33 639.675C392.199 639.675 391.471 639.194 391.042 638.453V641.781H389.859V632.512ZM390.99 636.035C390.99 637.881 391.978 638.661 393.031 638.661C394.24 638.661 395.033 637.712 395.033 636.035C395.033 634.358 394.24 633.409 393.031 633.409C391.978 633.409 390.99 634.189 390.99 636.035ZM402.112 636.581V636.139C399.967 636.347 398.602 636.672 398.602 637.634C398.602 638.297 399.109 638.739 399.954 638.739C401.059 638.739 402.112 638.232 402.112 636.581ZM399.694 639.675C398.381 639.675 397.289 638.947 397.289 637.66C397.289 636.009 399.161 635.515 402.021 635.203V635.034C402.021 633.747 401.319 633.331 400.435 633.331C399.447 633.331 398.888 633.851 398.836 634.722H397.614C397.718 633.214 399.07 632.369 400.422 632.369C402.359 632.369 403.217 633.279 403.204 635.255L403.191 636.867C403.178 638.05 403.23 638.843 403.373 639.506H402.177C402.138 639.246 402.099 638.96 402.086 638.544C401.657 639.272 400.942 639.675 399.694 639.675ZM407.866 632.395C409.582 632.395 410.622 633.656 410.791 634.852H409.595C409.426 634.02 408.711 633.435 407.788 633.435C406.748 633.435 405.773 634.254 405.773 636.009C405.773 637.777 406.748 638.635 407.788 638.635C408.789 638.635 409.478 637.959 409.647 637.231H410.869C410.622 638.544 409.387 639.675 407.749 639.675C405.734 639.675 404.486 638.154 404.486 636.022C404.486 633.942 405.799 632.395 407.866 632.395ZM412.541 632.512V630.757H413.724V632.512H415.05V633.461H413.724V637.608C413.724 638.336 413.776 638.518 414.452 638.518H415.05V639.506H414.192C412.853 639.506 412.541 639.207 412.541 637.751V633.461H411.436V632.512H412.541Z" fill="white"/>
<path d="M220.544 615.081V624.506H219.218V615.081H220.544ZM223.787 617.512V618.565C224.19 617.902 224.866 617.395 226.049 617.395C227.739 617.395 228.35 618.487 228.35 620.086V624.506H227.167V620.437C227.167 619.358 226.985 618.422 225.633 618.422C224.489 618.422 223.787 619.202 223.787 620.71V624.506H222.604V617.512H223.787ZM234.916 618.617V615.081H236.099V624.506H234.916V623.453C234.487 624.194 233.759 624.675 232.628 624.675C231.016 624.675 229.638 623.362 229.638 621.035C229.638 618.747 231.016 617.395 232.628 617.395C233.759 617.395 234.487 617.876 234.916 618.617ZM234.968 621.035C234.968 619.189 233.98 618.409 232.927 618.409C231.718 618.409 230.925 619.358 230.925 621.035C230.925 622.712 231.718 623.661 232.927 623.661C233.98 623.661 234.968 622.881 234.968 621.035ZM237.965 617.512H239.148V624.506H237.965V617.512ZM237.965 615.081H239.148V616.511H237.965V615.081ZM244.508 617.486V618.747C244.261 618.708 244.04 618.695 243.845 618.695C242.753 618.695 242.207 619.293 242.207 620.84V624.506H241.024V617.512H242.181V618.734C242.532 617.941 243.234 617.512 244.157 617.473C244.274 617.473 244.365 617.473 244.508 617.486ZM251.694 621.399H246.312C246.351 622.907 247.443 623.635 248.47 623.635C249.51 623.635 250.082 623.167 250.381 622.478H251.603C251.291 623.674 250.173 624.675 248.47 624.675C246.26 624.675 245.038 623.089 245.038 621.022C245.038 618.799 246.52 617.395 248.431 617.395C250.576 617.395 251.837 619.176 251.694 621.399ZM248.431 618.409C247.391 618.409 246.429 618.981 246.325 620.385H250.446C250.407 619.397 249.692 618.409 248.431 618.409ZM256.035 617.395C257.751 617.395 258.791 618.656 258.96 619.852H257.764C257.595 619.02 256.88 618.435 255.957 618.435C254.917 618.435 253.942 619.254 253.942 621.009C253.942 622.777 254.917 623.635 255.957 623.635C256.958 623.635 257.647 622.959 257.816 622.231H259.038C258.791 623.544 257.556 624.675 255.918 624.675C253.903 624.675 252.655 623.154 252.655 621.022C252.655 618.942 253.968 617.395 256.035 617.395ZM260.71 617.512V615.757H261.893V617.512H263.219V618.461H261.893V622.608C261.893 623.336 261.945 623.518 262.621 623.518H263.219V624.506H262.361C261.022 624.506 260.71 624.207 260.71 622.751V618.461H259.605V617.512H260.71ZM191.586 630.081V638.362H196.565V639.506H190.26V630.081H191.586ZM198.247 636.035C198.247 637.907 199.261 638.635 200.34 638.635C201.419 638.635 202.433 637.829 202.433 636.035C202.433 634.163 201.419 633.435 200.34 633.435C199.261 633.435 198.247 634.124 198.247 636.035ZM200.34 632.395C201.965 632.395 203.694 633.5 203.694 636.035C203.694 638.57 201.965 639.675 200.34 639.675C198.715 639.675 196.986 638.57 196.986 636.035C196.986 633.5 198.715 632.395 200.34 632.395ZM208.11 632.395C209.826 632.395 210.866 633.656 211.035 634.852H209.839C209.67 634.02 208.955 633.435 208.032 633.435C206.992 633.435 206.017 634.254 206.017 636.009C206.017 637.777 206.992 638.635 208.032 638.635C209.033 638.635 209.722 637.959 209.891 637.231H211.113C210.866 638.544 209.631 639.675 207.993 639.675C205.978 639.675 204.73 638.154 204.73 636.022C204.73 633.942 206.043 632.395 208.11 632.395ZM216.854 636.581V636.139C214.709 636.347 213.344 636.672 213.344 637.634C213.344 638.297 213.851 638.739 214.696 638.739C215.801 638.739 216.854 638.232 216.854 636.581ZM214.436 639.675C213.123 639.675 212.031 638.947 212.031 637.66C212.031 636.009 213.903 635.515 216.763 635.203V635.034C216.763 633.747 216.061 633.331 215.177 633.331C214.189 633.331 213.63 633.851 213.578 634.722H212.356C212.46 633.214 213.812 632.369 215.164 632.369C217.101 632.369 217.959 633.279 217.946 635.255L217.933 636.867C217.92 638.05 217.972 638.843 218.115 639.506H216.919C216.88 639.246 216.841 638.96 216.828 638.544C216.399 639.272 215.684 639.675 214.436 639.675ZM220.892 630.081V639.506H219.709V630.081H220.892ZM227.362 630.081V639.506H226.036V630.081H227.362ZM230.604 635.71V639.506H229.421V632.512H230.604V633.565C231.007 632.902 231.657 632.395 232.71 632.395C233.789 632.395 234.413 632.85 234.725 633.63C235.284 632.759 236.09 632.395 237.078 632.395C238.703 632.395 239.34 633.487 239.34 635.086V639.506H238.157V635.437C238.157 634.358 237.949 633.422 236.662 633.422C235.635 633.422 234.972 634.202 234.972 635.71V639.506H233.789V635.437C233.789 634.358 233.581 633.422 232.294 633.422C231.267 633.422 230.604 634.202 230.604 635.71ZM241.113 632.512H242.296V633.617C242.725 632.876 243.453 632.395 244.584 632.395C246.196 632.395 247.574 633.747 247.574 636.035C247.574 638.362 246.196 639.675 244.584 639.675C243.453 639.675 242.725 639.194 242.296 638.453V641.781H241.113V632.512ZM242.244 636.035C242.244 637.881 243.232 638.661 244.285 638.661C245.494 638.661 246.287 637.712 246.287 636.035C246.287 634.358 245.494 633.409 244.285 633.409C243.232 633.409 242.244 634.189 242.244 636.035ZM253.366 636.581V636.139C251.221 636.347 249.856 636.672 249.856 637.634C249.856 638.297 250.363 638.739 251.208 638.739C252.313 638.739 253.366 638.232 253.366 636.581ZM250.948 639.675C249.635 639.675 248.543 638.947 248.543 637.66C248.543 636.009 250.415 635.515 253.275 635.203V635.034C253.275 633.747 252.573 633.331 251.689 633.331C250.701 633.331 250.142 633.851 250.09 634.722H248.868C248.972 633.214 250.324 632.369 251.676 632.369C253.613 632.369 254.471 633.279 254.458 635.255L254.445 636.867C254.432 638.05 254.484 638.843 254.627 639.506H253.431C253.392 639.246 253.353 638.96 253.34 638.544C252.911 639.272 252.196 639.675 250.948 639.675ZM259.12 632.395C260.836 632.395 261.876 633.656 262.045 634.852H260.849C260.68 634.02 259.965 633.435 259.042 633.435C258.002 633.435 257.027 634.254 257.027 636.009C257.027 637.777 258.002 638.635 259.042 638.635C260.043 638.635 260.732 637.959 260.901 637.231H262.123C261.876 638.544 260.641 639.675 259.003 639.675C256.988 639.675 255.74 638.154 255.74 636.022C255.74 633.942 257.053 632.395 259.12 632.395ZM263.795 632.512V630.757H264.978V632.512H266.304V633.461H264.978V637.608C264.978 638.336 265.03 638.518 265.706 638.518H266.304V639.506H265.446C264.107 639.506 263.795 639.207 263.795 637.751V633.461H262.69V632.512H263.795Z" fill="white"/>
<path d="M107.915 614.912C109.865 614.912 111.425 616.004 111.815 617.824H110.528C110.216 616.771 109.358 616.03 107.85 616.03C106.186 616.03 104.886 617.33 104.886 619.774C104.886 622.166 106.121 623.557 107.85 623.557C109.098 623.557 110.632 623.037 110.632 621.087V620.84H108.136V619.696H111.88V624.506H110.84L110.775 623.323C110.164 624.298 109.059 624.675 107.798 624.675C105.094 624.675 103.534 622.634 103.534 619.774C103.534 616.862 105.263 614.912 107.915 614.912ZM114.994 615.081V624.506H113.811V615.081H114.994ZM117.676 621.035C117.676 622.907 118.69 623.635 119.769 623.635C120.848 623.635 121.862 622.829 121.862 621.035C121.862 619.163 120.848 618.435 119.769 618.435C118.69 618.435 117.676 619.124 117.676 621.035ZM119.769 617.395C121.394 617.395 123.123 618.5 123.123 621.035C123.123 623.57 121.394 624.675 119.769 624.675C118.144 624.675 116.415 623.57 116.415 621.035C116.415 618.5 118.144 617.395 119.769 617.395ZM125.669 621.035C125.669 622.881 126.657 623.661 127.71 623.661C128.919 623.661 129.712 622.712 129.712 621.035C129.712 619.358 128.919 618.409 127.71 618.409C126.657 618.409 125.669 619.189 125.669 621.035ZM124.538 615.081H125.721V618.617C126.15 617.876 126.878 617.395 128.009 617.395C129.621 617.395 130.999 618.747 130.999 621.035C130.999 623.362 129.621 624.675 128.009 624.675C126.878 624.675 126.15 624.194 125.721 623.453V624.506H124.538V615.081ZM136.753 621.581V621.139C134.608 621.347 133.243 621.672 133.243 622.634C133.243 623.297 133.75 623.739 134.595 623.739C135.7 623.739 136.753 623.232 136.753 621.581ZM134.335 624.675C133.022 624.675 131.93 623.947 131.93 622.66C131.93 621.009 133.802 620.515 136.662 620.203V620.034C136.662 618.747 135.96 618.331 135.076 618.331C134.088 618.331 133.529 618.851 133.477 619.722H132.255C132.359 618.214 133.711 617.369 135.063 617.369C137 617.369 137.858 618.279 137.845 620.255L137.832 621.867C137.819 623.05 137.871 623.843 138.014 624.506H136.818C136.779 624.246 136.74 623.96 136.727 623.544C136.298 624.272 135.583 624.675 134.335 624.675ZM140.79 615.081V624.506H139.607V615.081H140.79ZM105.429 630.081V639.506H104.103V630.081H105.429ZM108.671 635.71V639.506H107.488V632.512H108.671V633.565C109.074 632.902 109.724 632.395 110.777 632.395C111.856 632.395 112.48 632.85 112.792 633.63C113.351 632.759 114.157 632.395 115.145 632.395C116.77 632.395 117.407 633.487 117.407 635.086V639.506H116.224V635.437C116.224 634.358 116.016 633.422 114.729 633.422C113.702 633.422 113.039 634.202 113.039 635.71V639.506H111.856V635.437C111.856 634.358 111.648 633.422 110.361 633.422C109.334 633.422 108.671 634.202 108.671 635.71ZM119.181 632.512H120.364V633.617C120.793 632.876 121.521 632.395 122.652 632.395C124.264 632.395 125.642 633.747 125.642 636.035C125.642 638.362 124.264 639.675 122.652 639.675C121.521 639.675 120.793 639.194 120.364 638.453V641.781H119.181V632.512ZM120.312 636.035C120.312 637.881 121.3 638.661 122.353 638.661C123.562 638.661 124.355 637.712 124.355 636.035C124.355 634.358 123.562 633.409 122.353 633.409C121.3 633.409 120.312 634.189 120.312 636.035ZM131.433 636.581V636.139C129.288 636.347 127.923 636.672 127.923 637.634C127.923 638.297 128.43 638.739 129.275 638.739C130.38 638.739 131.433 638.232 131.433 636.581ZM129.015 639.675C127.702 639.675 126.61 638.947 126.61 637.66C126.61 636.009 128.482 635.515 131.342 635.203V635.034C131.342 633.747 130.64 633.331 129.756 633.331C128.768 633.331 128.209 633.851 128.157 634.722H126.935C127.039 633.214 128.391 632.369 129.743 632.369C131.68 632.369 132.538 633.279 132.525 635.255L132.512 636.867C132.499 638.05 132.551 638.843 132.694 639.506H131.498C131.459 639.246 131.42 638.96 131.407 638.544C130.978 639.272 130.263 639.675 129.015 639.675ZM137.187 632.395C138.903 632.395 139.943 633.656 140.112 634.852H138.916C138.747 634.02 138.032 633.435 137.109 633.435C136.069 633.435 135.094 634.254 135.094 636.009C135.094 637.777 136.069 638.635 137.109 638.635C138.11 638.635 138.799 637.959 138.968 637.231H140.19C139.943 638.544 138.708 639.675 137.07 639.675C135.055 639.675 133.807 638.154 133.807 636.022C133.807 633.942 135.12 632.395 137.187 632.395ZM141.862 632.512V630.757H143.045V632.512H144.371V633.461H143.045V637.608C143.045 638.336 143.097 638.518 143.773 638.518H144.371V639.506H143.513C142.174 639.506 141.862 639.207 141.862 637.751V633.461H140.757V632.512H141.862Z" fill="white"/>
<rect x="462.486" y="381.808" width="60" height="60" rx="30" fill="white"/>
<rect x="611.387" y="66.1768" width="44" height="44" rx="22" fill="white"/>
<rect x="949.791" y="208.045" width="18" height="18" rx="9" fill="white"/>
<rect x="289.553" y="204.243" width="27" height="27" rx="13.5" fill="white"/>
<rect x="362.775" y="275.335" width="50" height="50" rx="25" fill="white"/>
<rect x="858.965" y="282.887" width="35" height="35" rx="17.5" fill="white"/>
<rect x="449.404" y="111.399" width="18" height="18" rx="9" fill="white"/>
<path d="M381.329 398.436L386.334 419.751L391.024 398.436H394.769L388.434 423.811H384.094L379.194 402.951L374.399 423.811H370.059L363.619 398.436H367.539L372.439 419.751L377.129 398.436H381.329ZM406.558 415.936V414.746C400.783 415.306 397.108 416.181 397.108 418.771C397.108 420.556 398.473 421.746 400.748 421.746C403.723 421.746 406.558 420.381 406.558 415.936ZM400.048 424.266C396.513 424.266 393.573 422.306 393.573 418.841C393.573 414.396 398.613 413.066 406.313 412.226V411.771C406.313 408.306 404.423 407.186 402.043 407.186C399.383 407.186 397.878 408.586 397.738 410.931H394.448C394.728 406.871 398.368 404.596 402.008 404.596C407.223 404.596 409.533 407.046 409.498 412.366L409.463 416.706C409.428 419.891 409.568 422.026 409.953 423.811H406.733C406.628 423.111 406.523 422.341 406.488 421.221C405.333 423.181 403.408 424.266 400.048 424.266ZM413.404 404.981V400.256H416.589V404.981H420.159V407.536H416.589V418.701C416.589 420.661 416.729 421.151 418.549 421.151H420.159V423.811H417.849C414.244 423.811 413.404 423.006 413.404 419.086V407.536H410.429V404.981H413.404ZM438.58 415.446H424.09C424.195 419.506 427.135 421.466 429.9 421.466C432.7 421.466 434.24 420.206 435.045 418.351H438.335C437.495 421.571 434.485 424.266 429.9 424.266C423.95 424.266 420.66 419.996 420.66 414.431C420.66 408.446 424.65 404.666 429.795 404.666C435.57 404.666 438.965 409.461 438.58 415.446ZM429.795 407.396C426.995 407.396 424.405 408.936 424.125 412.716H435.22C435.115 410.056 433.19 407.396 429.795 407.396ZM449.921 404.911V408.306C449.256 408.201 448.661 408.166 448.136 408.166C445.196 408.166 443.726 409.776 443.726 413.941V423.811H440.541V404.981H443.656V408.271C444.601 406.136 446.491 404.981 448.976 404.876C449.291 404.876 449.536 404.876 449.921 404.911ZM327.735 441.981H330.92V444.956C332.075 442.961 334.035 441.666 337.08 441.666C341.42 441.666 345.13 445.306 345.13 451.466C345.13 457.731 341.42 461.266 337.08 461.266C334.035 461.266 332.075 459.971 330.92 457.976V466.936H327.735V441.981ZM330.78 451.466C330.78 456.436 333.44 458.536 336.275 458.536C339.53 458.536 341.665 455.981 341.665 451.466C341.665 446.951 339.53 444.396 336.275 444.396C333.44 444.396 330.78 446.496 330.78 451.466ZM349.551 451.466C349.551 456.506 352.281 458.466 355.186 458.466C358.091 458.466 360.821 456.296 360.821 451.466C360.821 446.426 358.091 444.466 355.186 444.466C352.281 444.466 349.551 446.321 349.551 451.466ZM355.186 441.666C359.561 441.666 364.216 444.641 364.216 451.466C364.216 458.291 359.561 461.266 355.186 461.266C350.811 461.266 346.156 458.291 346.156 451.466C346.156 444.641 350.811 441.666 355.186 441.666ZM369.461 435.436V460.811H366.276V435.436H369.461ZM375.948 435.436V460.811H372.763V435.436H375.948ZM390.905 460.811V458.116C389.82 459.901 388.105 461.266 384.99 461.266C380.65 461.266 378.97 458.326 378.97 454.021V441.981H382.155V453.076C382.155 455.981 382.61 458.501 386.11 458.501C389.155 458.501 390.905 456.401 390.905 452.341V441.981H394.09V460.811H390.905ZM398.303 441.981V437.256H401.488V441.981H405.058V444.536H401.488V455.701C401.488 457.661 401.628 458.151 403.448 458.151H405.058V460.811H402.748C399.143 460.811 398.303 460.006 398.303 456.086V444.536H395.328V441.981H398.303ZM407.367 441.981H410.552V460.811H407.367V441.981ZM407.367 435.436H410.552V439.286H407.367V435.436ZM416.024 451.466C416.024 456.506 418.754 458.466 421.659 458.466C424.564 458.466 427.294 456.296 427.294 451.466C427.294 446.426 424.564 444.466 421.659 444.466C418.754 444.466 416.024 446.321 416.024 451.466ZM421.659 441.666C426.034 441.666 430.689 444.641 430.689 451.466C430.689 458.291 426.034 461.266 421.659 461.266C417.284 461.266 412.629 458.291 412.629 451.466C412.629 444.641 417.284 441.666 421.659 441.666ZM435.934 441.981V444.816C437.019 443.031 438.839 441.666 442.024 441.666C446.574 441.666 448.219 444.606 448.219 448.911V460.811H445.034V449.856C445.034 446.951 444.544 444.431 440.904 444.431C437.824 444.431 435.934 446.531 435.934 450.591V460.811H432.749V441.981H435.934Z" fill="white"/>
<path d="M278.918 293.779H281.978V315.529H278.918V305.659H267.488V315.529H264.428V293.779H267.488V303.019H278.918V293.779ZM299.463 308.359H287.043C287.133 311.839 289.653 313.519 292.023 313.519C294.423 313.519 295.743 312.439 296.433 310.849H299.253C298.533 313.609 295.953 315.919 292.023 315.919C286.923 315.919 284.103 312.259 284.103 307.489C284.103 302.359 287.523 299.119 291.933 299.119C296.883 299.119 299.793 303.229 299.463 308.359ZM291.933 301.459C289.533 301.459 287.313 302.779 287.073 306.019H296.583C296.493 303.739 294.843 301.459 291.933 301.459ZM311.168 308.779V307.759C306.218 308.239 303.068 308.989 303.068 311.209C303.068 312.739 304.238 313.759 306.188 313.759C308.738 313.759 311.168 312.589 311.168 308.779ZM305.588 315.919C302.558 315.919 300.038 314.239 300.038 311.269C300.038 307.459 304.358 306.319 310.958 305.599V305.209C310.958 302.239 309.338 301.279 307.298 301.279C305.018 301.279 303.728 302.479 303.608 304.489H300.788C301.028 301.009 304.148 299.059 307.268 299.059C311.738 299.059 313.718 301.159 313.688 305.719L313.658 309.439C313.628 312.169 313.748 313.999 314.078 315.529H311.318C311.228 314.929 311.138 314.269 311.108 313.309C310.118 314.989 308.468 315.919 305.588 315.919ZM318.986 293.779V315.529H316.256V293.779H318.986ZM322.596 299.389V295.339H325.326V299.389H328.386V301.579H325.326V311.149C325.326 312.829 325.446 313.249 327.006 313.249H328.386V315.529H326.406C323.316 315.529 322.596 314.839 322.596 311.479V301.579H320.046V299.389H322.596ZM333.095 293.779V301.819C334.025 300.289 335.585 299.119 338.315 299.119C342.215 299.119 343.625 301.639 343.625 305.329V315.529H340.895V306.139C340.895 303.649 340.475 301.489 337.355 301.489C334.715 301.489 333.095 303.289 333.095 306.769V315.529H330.365V293.779H333.095Z" fill="white"/>
<path d="M837.928 400.38L842.933 421.695L847.623 400.38H851.368L845.033 425.755H840.693L835.793 404.895L830.998 425.755H826.658L820.218 400.38H824.138L829.038 421.695L833.728 400.38H837.928ZM863.157 417.88V416.69C857.382 417.25 853.707 418.125 853.707 420.715C853.707 422.5 855.072 423.69 857.347 423.69C860.322 423.69 863.157 422.325 863.157 417.88ZM856.647 426.21C853.112 426.21 850.172 424.25 850.172 420.785C850.172 416.34 855.212 415.01 862.912 414.17V413.715C862.912 410.25 861.022 409.13 858.642 409.13C855.982 409.13 854.477 410.53 854.337 412.875H851.047C851.327 408.815 854.967 406.54 858.607 406.54C863.822 406.54 866.132 408.99 866.097 414.31L866.062 418.65C866.027 421.835 866.167 423.97 866.552 425.755H863.332C863.227 425.055 863.122 424.285 863.087 423.165C861.932 425.125 860.007 426.21 856.647 426.21ZM870.003 406.925V402.2H873.188V406.925H876.758V409.48H873.188V420.645C873.188 422.605 873.328 423.095 875.148 423.095H876.758V425.755H874.448C870.843 425.755 870.003 424.95 870.003 421.03V409.48H867.028V406.925H870.003ZM895.179 417.39H880.689C880.794 421.45 883.734 423.41 886.499 423.41C889.299 423.41 890.839 422.15 891.644 420.295H894.934C894.094 423.515 891.084 426.21 886.499 426.21C880.549 426.21 877.259 421.94 877.259 416.375C877.259 410.39 881.249 406.61 886.394 406.61C892.169 406.61 895.564 411.405 895.179 417.39ZM886.394 409.34C883.594 409.34 881.004 410.88 880.724 414.66H891.819C891.714 412 889.789 409.34 886.394 409.34ZM906.521 406.855V410.25C905.856 410.145 905.261 410.11 904.736 410.11C901.796 410.11 900.326 411.72 900.326 415.885V425.755H897.141V406.925H900.256V410.215C901.201 408.08 903.091 406.925 905.576 406.82C905.891 406.82 906.136 406.82 906.521 406.855ZM834.043 454.88V453.69C828.268 454.25 824.593 455.125 824.593 457.715C824.593 459.5 825.958 460.69 828.233 460.69C831.208 460.69 834.043 459.325 834.043 454.88ZM827.533 463.21C823.998 463.21 821.058 461.25 821.058 457.785C821.058 453.34 826.098 452.01 833.798 451.17V450.715C833.798 447.25 831.908 446.13 829.528 446.13C826.868 446.13 825.363 447.53 825.223 449.875H821.933C822.213 445.815 825.853 443.54 829.493 443.54C834.708 443.54 837.018 445.99 836.983 451.31L836.948 455.65C836.913 458.835 837.053 460.97 837.438 462.755H834.218C834.113 462.055 834.008 461.285 833.973 460.165C832.818 462.125 830.893 463.21 827.533 463.21ZM840.823 443.925L845.933 458.345L851.043 443.925H854.333L847.228 462.755H844.393L837.288 443.925H840.823ZM866.295 454.88V453.69C860.52 454.25 856.845 455.125 856.845 457.715C856.845 459.5 858.21 460.69 860.485 460.69C863.46 460.69 866.295 459.325 866.295 454.88ZM859.785 463.21C856.25 463.21 853.31 461.25 853.31 457.785C853.31 453.34 858.35 452.01 866.05 451.17V450.715C866.05 447.25 864.16 446.13 861.78 446.13C859.12 446.13 857.615 447.53 857.475 449.875H854.185C854.465 445.815 858.105 443.54 861.745 443.54C866.96 443.54 869.27 445.99 869.235 451.31L869.2 455.65C869.165 458.835 869.305 460.97 869.69 462.755H866.47C866.365 462.055 866.26 461.285 866.225 460.165C865.07 462.125 863.145 463.21 859.785 463.21ZM872.231 443.925H875.416V462.755H872.231V443.925ZM872.231 437.38H875.416V441.23H872.231V437.38ZM881.903 437.38V462.755H878.718V437.38H881.903ZM897.071 454.88V453.69C891.296 454.25 887.621 455.125 887.621 457.715C887.621 459.5 888.986 460.69 891.261 460.69C894.236 460.69 897.071 459.325 897.071 454.88ZM890.561 463.21C887.026 463.21 884.086 461.25 884.086 457.785C884.086 453.34 889.126 452.01 896.826 451.17V450.715C896.826 447.25 894.936 446.13 892.556 446.13C889.896 446.13 888.391 447.53 888.251 449.875H884.961C885.241 445.815 888.881 443.54 892.521 443.54C897.736 443.54 900.046 445.99 900.011 451.31L899.976 455.65C899.941 458.835 900.081 460.97 900.466 462.755H897.246C897.141 462.055 897.036 461.285 897.001 460.165C895.846 462.125 893.921 463.21 890.561 463.21ZM906.051 453.41C906.051 458.38 908.711 460.48 911.546 460.48C914.801 460.48 916.936 457.925 916.936 453.41C916.936 448.895 914.801 446.34 911.546 446.34C908.711 446.34 906.051 448.44 906.051 453.41ZM903.006 437.38H906.191V446.9C907.346 444.905 909.306 443.61 912.351 443.61C916.691 443.61 920.401 447.25 920.401 453.41C920.401 459.675 916.691 463.21 912.351 463.21C909.306 463.21 907.346 461.915 906.191 459.92V462.755H903.006V437.38ZM922.277 443.925H925.462V462.755H922.277V443.925ZM922.277 437.38H925.462V441.23H922.277V437.38ZM931.949 437.38V462.755H928.764V437.38H931.949ZM935.251 443.925H938.436V462.755H935.251V443.925ZM935.251 437.38H938.436V441.23H935.251V437.38ZM942.649 443.925V439.2H945.834V443.925H949.404V446.48H945.834V457.645C945.834 459.605 945.974 460.095 947.794 460.095H949.404V462.755H947.094C943.489 462.755 942.649 461.95 942.649 458.03V446.48H939.674V443.925H942.649ZM961.836 443.925H965.161L958.441 463.56C957.041 467.62 956.131 468.88 951.896 468.88H950.251V466.22H951.546C953.646 466.22 954.661 466.08 955.501 463.14L955.641 462.755L948.851 443.925H952.386L957.181 458.45L961.836 443.925Z" fill="white"/>
<path d="M928.306 292.648V311.758H939.796V314.398H925.246V292.648H928.306ZM940.465 298.258H943.195V314.398H940.465V298.258ZM940.465 292.648H943.195V295.948H940.465V292.648ZM946.895 298.258L951.275 310.618L955.655 298.258H958.475L952.385 314.398H949.955L943.865 298.258H946.895ZM968.728 307.648V306.628C963.778 307.108 960.628 307.858 960.628 310.078C960.628 311.608 961.798 312.628 963.748 312.628C966.298 312.628 968.728 311.458 968.728 307.648ZM963.148 314.788C960.118 314.788 957.598 313.108 957.598 310.138C957.598 306.328 961.918 305.188 968.518 304.468V304.078C968.518 301.108 966.898 300.148 964.858 300.148C962.578 300.148 961.288 301.348 961.168 303.358H958.348C958.588 299.878 961.708 297.928 964.828 297.928C969.298 297.928 971.278 300.028 971.248 304.588L971.218 308.308C971.188 311.038 971.308 312.868 971.638 314.398H968.878C968.788 313.798 968.698 313.138 968.668 312.178C967.678 313.858 966.028 314.788 963.148 314.788ZM976.426 306.388C976.426 310.648 978.706 312.448 981.136 312.448C983.926 312.448 985.756 310.258 985.756 306.388C985.756 302.518 983.926 300.328 981.136 300.328C978.706 300.328 976.426 302.128 976.426 306.388ZM973.816 292.648H976.546V300.808C977.536 299.098 979.216 297.988 981.826 297.988C985.546 297.988 988.726 301.108 988.726 306.388C988.726 311.758 985.546 314.788 981.826 314.788C979.216 314.788 977.536 313.678 976.546 311.968V314.398H973.816V292.648ZM990.334 298.258H993.064V314.398H990.334V298.258ZM990.334 292.648H993.064V295.948H990.334V292.648ZM998.624 292.648V314.398H995.894V292.648H998.624ZM1001.45 298.258H1004.18V314.398H1001.45V298.258ZM1001.45 292.648H1004.18V295.948H1001.45V292.648ZM1007.8 298.258V294.208H1010.53V298.258H1013.59V300.448H1010.53V310.018C1010.53 311.698 1010.65 312.118 1012.21 312.118H1013.59V314.398H1011.61C1008.52 314.398 1007.8 313.708 1007.8 310.348V300.448H1005.25V298.258H1007.8ZM1024.24 298.258H1027.09L1021.33 315.088C1020.13 318.568 1019.35 319.648 1015.72 319.648H1014.31V317.368H1015.42C1017.22 317.368 1018.09 317.248 1018.81 314.728L1018.93 314.398L1013.11 298.258H1016.14L1020.25 310.708L1024.24 298.258Z" fill="white"/>
<path opacity="0.3" d="M517.427 439.187C517.013 439.174 516.668 439.5 516.655 439.914L516.453 446.661C516.44 447.075 516.766 447.42 517.18 447.433C517.594 447.445 517.94 447.12 517.952 446.706L518.132 440.708L524.129 440.888C524.543 440.901 524.889 440.575 524.901 440.161C524.914 439.747 524.588 439.401 524.174 439.389L517.427 439.187ZM634.099 562.751L517.951 439.422L516.859 440.45L633.007 563.78L634.099 562.751Z" fill="white"/>
<path opacity="0.3" d="M413.325 326.552C412.911 326.535 412.562 326.857 412.545 327.271L412.268 334.015C412.251 334.429 412.572 334.778 412.986 334.795C413.4 334.812 413.75 334.49 413.767 334.077L414.013 328.082L420.008 328.328C420.422 328.345 420.771 328.023 420.788 327.61C420.805 327.196 420.483 326.846 420.07 326.829L413.325 326.552ZM480.246 398.886L413.846 326.793L412.743 327.81L479.143 399.903L480.246 398.886Z" fill="white"/>
<path opacity="0.3" d="M330.087 242.845C329.673 242.837 329.33 243.166 329.322 243.58L329.192 250.329C329.184 250.743 329.513 251.086 329.927 251.094C330.342 251.102 330.684 250.772 330.692 250.358L330.808 244.359L336.807 244.475C337.221 244.483 337.563 244.154 337.571 243.74C337.579 243.326 337.25 242.983 336.835 242.975L330.087 242.845ZM374.376 288.562L330.613 243.075L329.532 244.115L373.296 289.602L374.376 288.562Z" fill="white"/>
<path opacity="0.3" d="M935.434 239.375C935.849 239.367 936.191 239.696 936.199 240.111L936.328 246.859C936.336 247.273 936.007 247.616 935.593 247.624C935.179 247.632 934.837 247.302 934.829 246.888L934.713 240.889L928.715 241.005C928.3 241.013 927.958 240.683 927.95 240.269C927.942 239.855 928.272 239.513 928.686 239.505L935.434 239.375ZM889.173 287.134L934.908 239.605L935.989 240.645L890.254 288.174L889.173 287.134Z" fill="white"/>
<path opacity="0.3" d="M856.834 325.307C856.827 324.893 856.486 324.562 856.072 324.569L849.323 324.674C848.909 324.681 848.578 325.022 848.585 325.436C848.591 325.85 848.932 326.181 849.347 326.174L855.346 326.08L855.44 332.079C855.446 332.494 855.787 332.824 856.202 332.818C856.616 332.811 856.946 332.47 856.94 332.056L856.834 325.307ZM786.226 398.479L856.623 325.84L855.545 324.797L785.149 397.435L786.226 398.479Z" fill="white"/>
<path opacity="0.3" d="M753.465 439.923C753.458 439.509 753.117 439.179 752.702 439.186L745.953 439.302C745.539 439.309 745.209 439.651 745.216 440.065C745.224 440.479 745.565 440.809 745.979 440.802L751.978 440.699L752.081 446.698C752.089 447.112 752.43 447.442 752.844 447.435C753.258 447.428 753.588 447.087 753.581 446.672L753.465 439.923ZM634.092 563.787L753.255 440.457L752.176 439.415L633.013 562.744L634.092 563.787Z" fill="white"/>
<path opacity="0.3" d="M651.168 115.602C650.786 115.444 650.347 115.626 650.189 116.008L647.609 122.246C647.451 122.629 647.633 123.068 648.016 123.226C648.398 123.384 648.837 123.202 648.995 122.819L651.288 117.275L656.833 119.568C657.216 119.726 657.654 119.544 657.813 119.161C657.971 118.778 657.789 118.34 657.406 118.181L651.168 115.602ZM766.204 392.289L651.574 116.008L650.189 116.582L764.819 392.864L766.204 392.289Z" fill="white"/>
<path opacity="0.3" d="M617.276 116.012C617.119 115.629 616.681 115.446 616.298 115.603L610.053 118.165C609.67 118.323 609.487 118.761 609.644 119.144C609.801 119.527 610.239 119.71 610.623 119.553L616.173 117.275L618.451 122.826C618.608 123.209 619.047 123.392 619.43 123.235C619.813 123.078 619.996 122.64 619.839 122.257L617.276 116.012ZM500.349 396.276L617.274 116.586L615.89 116.007L498.965 395.697L500.349 396.276Z" fill="white"/>
<path opacity="0.3" d="M464.574 156.739C464.252 156.479 463.779 156.529 463.519 156.851L459.277 162.102C459.017 162.424 459.067 162.896 459.389 163.157C459.711 163.417 460.183 163.367 460.444 163.045L464.215 158.377L468.882 162.148C469.204 162.409 469.676 162.358 469.936 162.036C470.197 161.714 470.146 161.242 469.824 160.981L464.574 156.739ZM490.07 394.691L464.848 157.244L463.357 157.402L488.578 394.85L490.07 394.691Z" fill="white"/>
<rect x="750.504" y="387.108" width="44" height="44" rx="22" fill="white"/>
<path d="M492.471 404.723C495.189 404.723 496.935 406.127 496.935 408.071C496.935 409.205 496.467 410.339 495.261 411.041C496.791 411.833 497.331 413.075 497.331 414.299C497.331 416.873 495.207 418.241 492.471 418.241C489.735 418.241 487.611 416.873 487.611 414.299C487.611 413.093 488.151 411.815 489.681 411.041C488.529 410.393 488.007 409.205 488.007 408.071C488.007 406.127 489.735 404.723 492.471 404.723ZM492.471 411.869C490.869 411.869 489.843 412.769 489.843 414.227C489.843 415.721 490.869 416.585 492.471 416.585C494.073 416.585 495.099 415.721 495.099 414.227C495.099 412.769 494.073 411.869 492.471 411.869ZM494.811 408.341C494.811 407.099 493.911 406.361 492.471 406.361C491.049 406.361 490.113 407.099 490.113 408.341C490.113 409.583 491.049 410.411 492.471 410.411C493.911 410.411 494.811 409.583 494.811 408.341Z" fill="#1534AF"/>
<path d="M383.16 295.638V293.748H392.538V295.638C389.208 298.824 387.426 301.992 387.138 306.798H384.708C384.942 302.19 387.228 298.428 390.27 295.638H383.16Z" fill="#1534AF"/>
<path d="M876.652 293.514C879.064 293.514 880.9 294.738 880.9 296.97C880.9 299.67 878.308 302.19 874.366 304.926H881.206V306.798H871.702V305.034C876.058 301.65 878.668 299.31 878.668 297.15C878.668 295.872 877.858 295.152 876.562 295.152C875.32 295.152 874.132 295.89 874.132 297.924H871.99C871.936 295.296 873.79 293.514 876.652 293.514Z" fill="#1534AF"/>
<path d="M634.393 84.116L630.289 89.462H634.393V84.116ZM638.839 89.462V91.316H636.535V94.376H634.393V91.316H627.949V89.534L634.411 81.326H636.535V89.462H638.839Z" fill="#1534AF"/>
<path d="M459.677 127.383H457.535V117.447H454.619V115.971C456.509 115.917 457.427 115.755 458.093 114.333H459.677V127.383Z" fill="#1534AF"/>
<path d="M303.24 210.658C305.652 210.658 307.488 211.882 307.488 214.114C307.488 216.814 304.896 219.334 300.954 222.07H307.794V223.942H298.29V222.178C302.646 218.794 305.256 216.454 305.256 214.294C305.256 213.016 304.446 212.296 303.15 212.296C301.908 212.296 300.72 213.034 300.72 215.068H298.578C298.524 212.44 300.378 210.658 303.24 210.658Z" fill="#1534AF"/>
<path d="M960.436 223.942H958.294V214.006H955.378V212.53C957.268 212.476 958.186 212.314 958.852 210.892H960.436V223.942Z" fill="#1534AF"/>
<path d="M773.276 405.048L769.172 410.394H773.276V405.048ZM777.722 410.394V412.248H775.418V415.308H773.276V412.248H766.832V410.466L773.294 402.258H775.418V410.394H777.722Z" fill="#1534AF"/>
<rect x="609.127" y="539.896" width="48.52" height="48.52" rx="24.26" fill="#1534AF" stroke="white" stroke-width="1.5"/>
<path d="M631.058 566.271C631.058 567.999 632.102 569.043 633.596 569.043C635.09 569.043 636.152 567.999 636.152 566.271C636.152 564.543 635.108 563.481 633.614 563.481C632.12 563.481 631.058 564.543 631.058 566.271ZM633.74 558.819C631.958 558.819 630.95 560.619 630.896 563.283C631.472 562.437 632.516 561.789 634.028 561.789C636.422 561.789 638.366 563.517 638.366 566.235C638.366 568.827 636.422 570.699 633.614 570.699C630.23 570.699 628.718 568.143 628.718 564.327C628.718 560.565 630.086 557.181 633.902 557.181C636.656 557.181 637.916 558.963 638.114 560.691H635.936C635.792 559.413 634.91 558.819 633.74 558.819Z" fill="white"/>
</g>
<defs>
<linearGradient id="paint0_linear_145_445" x1="633.553" y1="553.833" x2="633.553" y2="769.004" gradientUnits="userSpaceOnUse">
<stop stop-color="white"/>
<stop offset="0.734375" stop-color="white" stop-opacity="0"/>
</linearGradient>
<linearGradient id="paint1_linear_145_445" x1="633.553" y1="362.761" x2="633.553" y2="925.875" gradientUnits="userSpaceOnUse">
<stop stop-color="white"/>
<stop offset="0.734375" stop-color="white" stop-opacity="0"/>
</linearGradient>
<linearGradient id="paint2_linear_145_445" x1="633.554" y1="287.437" x2="633.554" y2="1039.16" gradientUnits="userSpaceOnUse">
<stop stop-color="white"/>
<stop offset="0.734375" stop-color="white" stop-opacity="0"/>
</linearGradient>
<clipPath id="clip0_145_445">
<rect width="1281" height="816" fill="white"/>
</clipPath>
</defs>
</svg>
