<svg width="10" height="6" viewBox="0 0 10 6" fill="none" xmlns="http://www.w3.org/2000/svg">
  <path d="M4.83789 4.34961L4.30756 4.87994C4.60045 5.17283 5.07533 5.17283 5.36822 4.87994L4.83789 4.34961ZM8.86822 1.37994C9.16111 1.08705 9.16111 0.612173 8.86822 0.319279C8.57533 0.0263861 8.10045 0.0263861 7.80756 0.319279L8.86822 1.37994ZM1.86822 0.319279C1.57533 0.0263861 1.10045 0.0263861 0.807561 0.319279C0.514667 0.612173 0.514667 1.08705 0.807561 1.37994L1.86822 0.319279ZM7.80756 0.319279L4.30756 3.81928L5.36822 4.87994L8.86822 1.37994L7.80756 0.319279ZM5.36822 3.81928L1.86822 0.319279L0.807561 1.37994L4.30756 4.87994L5.36822 3.81928Z" fill="black"/>
</svg>
