<svg width="6" height="10" viewBox="0 0 6 10" fill="none" xmlns="http://www.w3.org/2000/svg">
  <path d="M4.92139 4.84119L5.45172 5.37152C5.74461 5.07862 5.74461 4.60375 5.45172 4.31086L4.92139 4.84119ZM1.95172 0.810856C1.65882 0.517963 1.18395 0.517963 0.891056 0.810856C0.598163 1.10375 0.598163 1.57862 0.891056 1.87152L1.95172 0.810856ZM0.891057 7.81086C0.598163 8.10375 0.598163 8.57862 0.891057 8.87152C1.18395 9.16441 1.65882 9.16441 1.95172 8.87152L0.891057 7.81086ZM0.891056 1.87152L4.39106 5.37152L5.45172 4.31086L1.95172 0.810856L0.891056 1.87152ZM4.39106 4.31086L0.891057 7.81086L1.95172 8.87152L5.45172 5.37152L4.39106 4.31086Z" fill="black"/>
</svg>
