<svg width="46" height="46" viewBox="0 0 46 46" fill="none" xmlns="http://www.w3.org/2000/svg">
<g clip-path="url(#clip0_137_78)">
<path d="M23.3155 45.6006C35.7818 45.6006 45.8878 35.4946 45.8878 23.0283C45.8878 10.562 35.7818 0.455994 23.3155 0.455994C10.8491 0.455994 0.743164 10.562 0.743164 23.0283C0.743164 35.4946 10.8491 45.6006 23.3155 45.6006Z" fill="black"/>
<path d="M15.5566 22.5246C15.2637 22.8175 15.2637 23.2924 15.5566 23.5853L20.3296 28.3582C20.6224 28.6511 21.0973 28.6511 21.3902 28.3582C21.6831 28.0653 21.6831 27.5905 21.3902 27.2976L17.1476 23.0549L21.3902 18.8123C21.6831 18.5194 21.6831 18.0445 21.3902 17.7516C21.0973 17.4587 20.6224 17.4587 20.3296 17.7516L15.5566 22.5246ZM16.0869 23.8049H30.542V22.3049H16.0869V23.8049Z" fill="white"/>
</g>
<defs>
<clipPath id="clip0_137_78">
<rect width="46" height="46" fill="white"/>
</clipPath>
</defs>
</svg>
