<svg width="436" height="169" viewBox="0 0 436 169" fill="none" xmlns="http://www.w3.org/2000/svg">
  <path d="M3.52664 22.8392L5.67064 22.4552V36.1512C5.67064 39.9912 7.97464 42.8712 12.6786 42.8712C17.3826 42.8712 19.6866 39.9912 19.6866 36.1512V22.8392L21.8306 22.4552V36.4392C21.8306 40.8232 18.9826 44.7272 12.6786 44.7272C6.18264 44.7272 3.52664 40.5672 3.52664 36.4392V22.8392ZM35.1524 30.1672C32.0484 30.1672 29.6164 31.8312 28.4004 33.9432V44.4072H26.3204V28.4072H28.2724L28.3684 32.0552C29.5844 29.7832 32.0164 28.0872 34.8964 28.0872L35.1524 30.1672ZM45.7749 28.0872C50.4789 28.0872 53.5509 31.3512 53.5509 36.4072C53.5509 41.4312 50.4789 44.7272 45.7749 44.7272C43.0229 44.7272 40.9749 43.3512 39.8229 41.9112L39.6949 44.4072H37.7429V21.4312L39.8229 21.0472V30.9032C40.9749 29.4632 43.0229 28.0872 45.7749 28.0872ZM45.3909 43.0312C49.2629 43.0312 51.4389 40.2472 51.4389 36.4072C51.4389 32.5672 49.2629 29.7512 45.3909 29.7512C43.4069 29.7512 41.3269 30.7112 39.8229 32.5992V40.2152C41.3269 42.1032 43.4069 43.0312 45.3909 43.0312ZM71.7596 43.0632C72.0476 43.0632 72.7516 43.0312 73.1356 42.8072V44.4072C72.6236 44.5992 71.6956 44.7272 71.2156 44.7272C68.9436 44.7272 68.2716 43.4472 68.1436 41.8792C66.3516 43.9592 64.0156 44.7272 61.8396 44.7272C58.3836 44.7272 56.2716 42.7432 56.2716 40.0872C56.2716 36.3752 59.6316 34.9992 63.6956 34.9992C64.9436 34.9992 66.8316 35.0952 68.1116 35.2872V33.5912C68.1116 31.5112 66.7036 29.7512 63.2796 29.7512C61.2956 29.7512 59.3436 30.1992 57.4556 31.1912L56.9756 29.4632C58.7036 28.5992 61.2316 28.0872 63.4716 28.0872C68.0156 28.0872 70.1916 30.4552 70.1916 33.7192V41.2392C70.1916 42.2952 70.4796 43.0632 71.7596 43.0632ZM62.3196 43.0312C64.5916 43.0312 66.3196 42.1672 68.1116 40.1192V36.9192C66.8636 36.6952 65.0076 36.6312 63.7596 36.6312C59.7276 36.6312 58.3836 38.0392 58.3836 39.8952C58.3836 41.8152 59.8876 43.0312 62.3196 43.0312ZM82.7724 28.0872C86.5484 28.0872 88.6284 30.2632 88.6284 33.9112V44.4072H86.5484V33.9112C86.5484 31.2552 84.9484 29.7512 82.1324 29.7512C79.9244 29.7512 78.2924 30.8712 76.9804 32.5032V44.4072H74.9004V28.4072H76.8524L76.9804 30.9032C78.4204 29.0472 80.3404 28.0872 82.7724 28.0872ZM109.219 31.7672C106.403 31.7672 104.163 32.8872 103.043 34.2952V44.4072H99.3629V28.4072H102.723L103.011 32.0552C104.163 29.6552 106.371 28.0872 108.867 28.0872L109.219 31.7672ZM126.173 36.0232C126.173 36.4712 126.141 37.1112 126.109 37.5272H114.013C114.429 40.3752 116.253 42.0712 119.421 42.0712C121.053 42.0712 122.973 41.7512 124.829 40.8232L125.469 43.3192C123.933 44.1512 121.533 44.7272 119.101 44.7272C113.181 44.7272 110.173 41.4312 110.173 36.4072C110.173 31.3512 113.437 28.0872 118.589 28.0872C124.317 28.0872 126.173 31.9272 126.173 36.0232ZM114.045 34.9032H122.493C122.461 32.5992 121.661 30.7112 118.493 30.7112C116.221 30.7112 114.461 32.0872 114.045 34.9032ZM132.185 32.7272C132.185 36.0552 141.625 33.9752 141.625 39.6712C141.625 42.9672 139.193 44.7272 134.745 44.7272C132.313 44.7272 129.753 44.1832 128.185 43.3512L128.857 40.6952C130.713 41.6232 133.049 42.0072 134.649 42.0072C136.665 42.0072 137.881 41.3032 137.881 39.7992C137.881 36.4072 128.441 38.5512 128.441 32.7272C128.441 29.5272 131.161 28.0872 135.033 28.0872C137.465 28.0872 140.025 28.6312 141.593 29.4312L140.953 32.0872C139.065 31.1592 136.729 30.8072 135.097 30.8072C133.337 30.8072 132.185 31.4152 132.185 32.7272ZM146.331 25.8152L143.643 23.2552L146.331 20.6952L148.923 23.2552L146.331 25.8152ZM148.123 44.4072H144.443V28.4072H148.123V44.4072ZM151.897 44.4072V21.5272L155.577 21.0472V44.4072H151.897ZM161.238 25.8152L158.55 23.2552L161.238 20.6952L163.83 23.2552L161.238 25.8152ZM163.03 44.4072H159.35V28.4072H163.03V44.4072ZM182.004 36.0232C182.004 36.4712 181.972 37.1112 181.94 37.5272H169.844C170.26 40.3752 172.084 42.0712 175.252 42.0712C176.884 42.0712 178.804 41.7512 180.66 40.8232L181.3 43.3192C179.764 44.1512 177.364 44.7272 174.932 44.7272C169.012 44.7272 166.004 41.4312 166.004 36.4072C166.004 31.3512 169.268 28.0872 174.42 28.0872C180.148 28.0872 182.004 31.9272 182.004 36.0232ZM169.876 34.9032H178.324C178.292 32.5992 177.492 30.7112 174.324 30.7112C172.052 30.7112 170.292 32.0872 169.876 34.9032ZM193.937 28.0872C197.617 28.0872 199.633 30.1672 199.633 34.0072V44.4072H195.953V34.0712C195.953 32.0232 194.737 30.8712 192.529 30.8712C190.865 30.8712 189.617 31.6712 188.657 32.7912V44.4072H184.977V28.4072H188.337L188.625 30.7752C189.905 28.9832 191.697 28.0872 193.937 28.0872ZM211.467 41.9112C213.099 41.9112 214.475 41.5912 216.363 40.6632L217.003 43.3192C215.435 44.1512 213.547 44.7272 211.115 44.7272C205.707 44.7272 202.443 41.4312 202.443 36.4072C202.443 31.3512 205.707 28.0872 211.115 28.0872C213.547 28.0872 215.435 28.6632 217.003 29.4632L216.363 32.1512C214.475 31.2232 213.099 30.8712 211.467 30.8712C208.459 30.8712 206.219 32.8232 206.219 36.4072C206.219 39.9912 208.459 41.9112 211.467 41.9112ZM234.615 36.0232C234.615 36.4712 234.583 37.1112 234.551 37.5272H222.455C222.871 40.3752 224.695 42.0712 227.863 42.0712C229.495 42.0712 231.415 41.7512 233.271 40.8232L233.911 43.3192C232.375 44.1512 229.975 44.7272 227.543 44.7272C221.623 44.7272 218.615 41.4312 218.615 36.4072C218.615 31.3512 221.879 28.0872 227.031 28.0872C232.759 28.0872 234.615 31.9272 234.615 36.0232ZM222.487 34.9032H230.935C230.903 32.5992 230.103 30.7112 226.935 30.7112C224.663 30.7112 222.903 32.0872 222.487 34.9032ZM245.761 25.1752L244.001 23.4792L245.761 21.7512L247.489 23.4792L245.761 25.1752ZM246.785 44.4072H244.705V28.4072H246.785V44.4072ZM259.062 28.0872C262.838 28.0872 264.918 30.2632 264.918 33.9112V44.4072H262.838V33.9112C262.838 31.2552 261.238 29.7512 258.422 29.7512C256.214 29.7512 254.582 30.8712 253.27 32.5032V44.4072H251.19V28.4072H253.142L253.27 30.9032C254.71 29.0472 256.63 28.0872 259.062 28.0872ZM276.055 28.0872C278.807 28.0872 280.855 29.4632 282.007 30.9032V21.4312L284.087 21.0472V44.4072H282.135L282.007 41.9112C280.855 43.3512 278.807 44.7272 276.055 44.7272C271.351 44.7272 268.279 41.4312 268.279 36.4072C268.279 31.3512 271.351 28.0872 276.055 28.0872ZM276.439 43.0312C278.423 43.0312 280.503 42.1032 282.007 40.2152V32.5992C280.503 30.7112 278.423 29.7512 276.439 29.7512C272.567 29.7512 270.359 32.5672 270.359 36.4072C270.359 40.2472 272.567 43.0312 276.439 43.0312ZM302.968 35.8632C302.968 36.2152 302.936 36.6632 302.936 37.0152H289.72C289.944 40.7272 292.216 43.0952 296.248 43.0952C298.04 43.0952 299.896 42.7432 301.784 41.7512L302.2 43.2872C300.6 44.1832 298.456 44.7272 296.152 44.7272C290.584 44.7272 287.608 41.4632 287.608 36.4072C287.608 31.3192 290.776 28.0872 295.64 28.0872C301.4 28.0872 302.968 31.9592 302.968 35.8632ZM289.752 35.3832H300.888C300.792 32.4392 299.928 29.7192 295.608 29.7192C292.376 29.7192 290.104 31.7992 289.752 35.3832ZM316.681 44.4072L311.401 37.5912L306.121 44.4072H303.817L310.217 36.1192L304.297 28.4072H306.601L311.465 34.7112L316.233 28.4072H318.537L312.681 36.0872L319.049 44.4072H316.681Z" fill="black"/>
  <rect x="335.807" y="7.40723" width="100" height="52" rx="26" fill="#B7DE86"/>
  <path d="M377.996 44.6172L375.956 39.6372H365.426L363.476 44.4072H360.596L369.116 24.0372L372.296 23.6472L380.786 44.1972L377.996 44.6172ZM366.386 37.2972H374.996L370.676 26.7672L366.386 37.2972ZM382.277 36.7872V34.6272H392.507V36.7872H382.277ZM405.64 33.7872C408.43 34.4772 410.17 36.1272 410.17 38.8272C410.17 42.5472 407.41 44.7072 402.46 44.7072C400.15 44.7072 397.27 44.2572 395.17 42.9972L396.01 40.9872C398.2 42.0072 400.09 42.4872 402.01 42.4872C405.46 42.4872 407.38 41.3172 407.38 38.6172C407.38 36.0972 405.31 34.8372 402.04 34.8372H399.94V32.7672H402.04C405.31 32.6772 406.9 31.3872 406.9 29.2872C406.9 26.7972 405.1 25.8672 402.43 25.8672C400.48 25.8672 398.95 26.3472 396.76 27.3672L395.92 25.3572C398.08 24.1272 400.54 23.6472 402.85 23.6472C406.96 23.6472 409.57 25.5372 409.57 29.0772C409.57 31.3872 408.22 33.0672 405.64 33.7872Z" fill="white"/>
  <path d="M6.59181 115.407V103.167H15.0878V104.589H8.26581V108.441H14.4938L14.7278 109.845H8.26581V113.985H15.2678V115.407H6.59181ZM22.166 106.227C24.272 106.227 25.424 107.433 25.424 109.521V115.407H23.804V109.557C23.804 108.225 23.012 107.487 21.59 107.487C20.492 107.487 19.7 108.009 19.052 108.783V115.407H17.432V106.407H18.926L19.052 107.775C19.808 106.749 20.852 106.227 22.166 106.227ZM31.6397 113.409L34.5917 106.407H36.3737L32.2877 115.569H30.9017L26.8157 106.407H28.5977L31.6397 113.409ZM38.9319 104.769L37.6899 103.563L38.9319 102.375L40.1379 103.563L38.9319 104.769ZM39.7239 115.407H38.1039V106.407H39.7239V115.407ZM47.6665 107.847C46.0105 107.847 44.6965 108.621 44.0305 109.611V115.407H42.4105V106.407H43.9045L44.0125 108.459C44.6785 107.145 45.9925 106.227 47.5045 106.227L47.6665 107.847ZM53.3759 106.227C56.4359 106.227 58.1999 108.351 58.1999 110.907C58.1999 113.463 56.4359 115.587 53.3759 115.587C50.2799 115.587 48.5339 113.463 48.5339 110.907C48.5339 108.351 50.2799 106.227 53.3759 106.227ZM53.3579 114.327C55.4819 114.327 56.5439 112.689 56.5439 110.907C56.5439 109.161 55.4819 107.487 53.3579 107.487C51.2159 107.487 50.1899 109.161 50.1899 110.907C50.1899 112.689 51.2159 114.327 53.3579 114.327ZM65.127 106.227C67.233 106.227 68.385 107.433 68.385 109.521V115.407H66.765V109.557C66.765 108.225 65.973 107.487 64.551 107.487C63.453 107.487 62.661 108.009 62.013 108.783V115.407H60.393V106.407H61.887L62.013 107.775C62.769 106.749 63.813 106.227 65.127 106.227ZM81.937 106.227C84.043 106.227 85.195 107.433 85.195 109.521V115.407H83.575V109.557C83.575 108.225 82.783 107.487 81.361 107.487C80.281 107.487 79.471 108.009 78.841 108.783C78.877 109.017 78.895 109.269 78.895 109.521V115.407H77.275V109.557C77.275 108.225 76.483 107.487 75.061 107.487C73.981 107.487 73.225 108.009 72.595 108.783V115.407H70.975V106.407H72.469L72.595 107.775C73.351 106.749 74.341 106.227 75.637 106.227C77.185 106.227 78.211 106.875 78.643 108.027C79.435 106.821 80.551 106.227 81.937 106.227ZM96.1137 110.637C96.1137 110.871 96.1137 111.177 96.0957 111.393H88.9857C89.1657 113.247 90.3177 114.381 92.3337 114.381C93.3057 114.381 94.3497 114.183 95.4117 113.643L95.7177 114.795C94.8177 115.263 93.5397 115.587 92.2257 115.587C88.9857 115.587 87.2937 113.751 87.2937 110.907C87.2937 108.063 89.1117 106.227 91.9377 106.227C95.1597 106.227 96.1137 108.387 96.1137 110.637ZM89.0037 110.205H94.4937C94.4757 108.711 93.9897 107.415 91.8837 107.415C90.3537 107.415 89.2197 108.387 89.0037 110.205ZM103.061 106.227C105.167 106.227 106.319 107.433 106.319 109.521V115.407H104.699V109.557C104.699 108.225 103.907 107.487 102.485 107.487C101.387 107.487 100.595 108.009 99.9466 108.783V115.407H98.3266V106.407H99.8206L99.9466 107.775C100.703 106.749 101.747 106.227 103.061 106.227ZM111.09 103.167V106.407H114.276V107.667H111.09V112.905C111.09 113.841 111.648 114.327 112.764 114.327C113.358 114.327 113.718 114.237 114.222 114.039L114.456 115.227C113.826 115.461 113.034 115.587 112.332 115.587C110.262 115.587 109.47 114.471 109.47 112.941V107.667H107.994V106.407H109.47V103.473L111.09 103.167ZM124.171 114.345C124.333 114.345 124.657 114.309 124.855 114.219V115.407C124.549 115.515 123.973 115.587 123.685 115.587C122.389 115.587 121.903 114.957 121.777 114.057C120.805 115.227 119.509 115.587 118.375 115.587C116.431 115.587 115.261 114.471 115.261 112.977C115.261 110.889 117.115 110.007 119.491 110.007C120.139 110.007 121.075 110.079 121.741 110.169V109.377C121.741 108.351 121.039 107.487 119.257 107.487C118.105 107.487 117.043 107.739 115.981 108.243L115.675 106.983C116.593 106.533 118.033 106.227 119.437 106.227C122.065 106.227 123.361 107.541 123.361 109.467V113.373C123.361 113.949 123.505 114.345 124.171 114.345ZM118.879 114.327C120.013 114.327 120.877 113.895 121.741 112.923V111.375C121.111 111.267 120.211 111.213 119.599 111.213C117.583 111.213 116.917 111.861 116.917 112.779C116.917 113.733 117.673 114.327 118.879 114.327ZM126.205 115.407V102.501L127.825 102.267V115.407H126.205Z" fill="black"/>
  <rect x="23.8066" y="136.907" width="83" height="31" rx="15.5" stroke="#FF9B3F"/>
  <path d="M47.2463 157.498L46.3623 155.34H41.7993L40.9543 157.407H39.7063L43.3983 148.58L44.7763 148.411L48.4553 157.316L47.2463 157.498ZM42.2153 154.326H45.9463L44.0743 149.763L42.2153 154.326ZM51.9646 155.964L54.0966 150.907H55.3836L52.4326 157.524H51.4316L48.4806 150.907H49.7676L51.9646 155.964ZM62.3983 153.962C62.3983 154.131 62.3983 154.352 62.3853 154.508H57.2503C57.3803 155.847 58.2123 156.666 59.6683 156.666C60.3703 156.666 61.1243 156.523 61.8913 156.133L62.1123 156.965C61.4623 157.303 60.5393 157.537 59.5903 157.537C57.2503 157.537 56.0283 156.211 56.0283 154.157C56.0283 152.103 57.3413 150.777 59.3823 150.777C61.7093 150.777 62.3983 152.337 62.3983 153.962ZM57.2633 153.65H61.2283C61.2153 152.571 60.8643 151.635 59.3433 151.635C58.2383 151.635 57.4193 152.337 57.2633 153.65ZM67.7925 151.947C66.5965 151.947 65.6475 152.506 65.1665 153.221V157.407H63.9965V150.907H65.0755L65.1535 152.389C65.6345 151.44 66.5835 150.777 67.6755 150.777L67.7925 151.947ZM74.9053 156.64C75.0223 156.64 75.2563 156.614 75.3993 156.549V157.407C75.1783 157.485 74.7623 157.537 74.5543 157.537C73.6183 157.537 73.2673 157.082 73.1763 156.432C72.4743 157.277 71.5383 157.537 70.7193 157.537C69.3153 157.537 68.4703 156.731 68.4703 155.652C68.4703 154.144 69.8093 153.507 71.5253 153.507C71.9933 153.507 72.6693 153.559 73.1503 153.624V153.052C73.1503 152.311 72.6433 151.687 71.3563 151.687C70.5243 151.687 69.7573 151.869 68.9903 152.233L68.7693 151.323C69.4323 150.998 70.4723 150.777 71.4863 150.777C73.3843 150.777 74.3203 151.726 74.3203 153.117V155.938C74.3203 156.354 74.4243 156.64 74.9053 156.64ZM71.0833 156.627C71.9023 156.627 72.5263 156.315 73.1503 155.613V154.495C72.6953 154.417 72.0453 154.378 71.6033 154.378C70.1473 154.378 69.6663 154.846 69.6663 155.509C69.6663 156.198 70.2123 156.627 71.0833 156.627ZM82.5754 150.907V157.264C82.5754 159.318 81.3144 160.397 79.0004 160.397C78.0384 160.397 76.9204 160.163 76.2704 159.825L76.4914 158.954C77.2584 159.344 78.2594 159.487 78.9614 159.487C80.4954 159.487 81.4054 158.876 81.4054 157.303V156.146C80.9504 156.731 80.1834 157.277 79.1044 157.277C77.2844 157.277 76.0234 156.029 76.0234 154.027C76.0234 152.012 77.2844 150.777 79.1044 150.777C80.1834 150.777 80.9504 151.31 81.4054 151.908L81.4964 150.907H82.5754ZM81.3924 155.379V152.662C80.8724 152.038 80.1444 151.687 79.4034 151.687C78.0384 151.687 77.2194 152.636 77.2194 154.027C77.2194 155.418 78.0384 156.367 79.4034 156.367C80.1444 156.367 80.8724 156.016 81.3924 155.379ZM90.5311 153.962C90.5311 154.131 90.5311 154.352 90.5181 154.508H85.3831C85.5131 155.847 86.3451 156.666 87.8011 156.666C88.5031 156.666 89.2571 156.523 90.0241 156.133L90.2451 156.965C89.5951 157.303 88.6721 157.537 87.7231 157.537C85.3831 157.537 84.1611 156.211 84.1611 154.157C84.1611 152.103 85.4741 150.777 87.5151 150.777C89.8421 150.777 90.5311 152.337 90.5311 153.962ZM85.3961 153.65H89.3611C89.3481 152.571 88.9971 151.635 87.4761 151.635C86.3711 151.635 85.5521 152.337 85.3961 153.65Z" fill="#FF9B3F"/>
  <path d="M161.153 112.941C162.431 113.787 164.015 114.165 165.329 114.165C166.787 114.165 168.317 113.697 168.317 112.167C168.317 109.125 161.333 110.421 161.333 106.191C161.333 103.869 163.349 102.987 165.491 102.987C167.039 102.987 168.389 103.347 169.739 104.085L169.487 105.579C168.083 104.697 166.805 104.409 165.671 104.409C164.339 104.409 163.043 104.697 163.043 106.119C163.043 108.927 170.027 107.577 170.027 112.041C170.027 114.633 167.777 115.587 165.509 115.587C164.015 115.587 162.539 115.299 161.153 114.489V112.941ZM176.524 106.227C179.584 106.227 181.348 108.351 181.348 110.907C181.348 113.463 179.584 115.587 176.524 115.587C173.428 115.587 171.682 113.463 171.682 110.907C171.682 108.351 173.428 106.227 176.524 106.227ZM176.506 114.327C178.63 114.327 179.692 112.689 179.692 110.907C179.692 109.161 178.63 107.487 176.506 107.487C174.364 107.487 173.338 109.161 173.338 110.907C173.338 112.689 174.364 114.327 176.506 114.327ZM188.005 114.327C188.977 114.327 189.751 114.129 190.831 113.589L191.137 114.795C190.219 115.263 189.211 115.587 187.879 115.587C184.909 115.587 183.055 113.751 183.055 110.907C183.055 108.063 184.909 106.227 187.879 106.227C189.211 106.227 190.219 106.551 191.137 107.019L190.831 108.225C189.751 107.685 188.977 107.487 188.005 107.487C186.079 107.487 184.711 108.747 184.711 110.907C184.711 113.067 186.079 114.327 188.005 114.327ZM193.985 104.769L192.743 103.563L193.985 102.375L195.191 103.563L193.985 104.769ZM194.777 115.407H193.157V106.407H194.777V115.407ZM205.923 114.345C206.085 114.345 206.409 114.309 206.607 114.219V115.407C206.301 115.515 205.725 115.587 205.437 115.587C204.141 115.587 203.655 114.957 203.529 114.057C202.557 115.227 201.261 115.587 200.127 115.587C198.183 115.587 197.013 114.471 197.013 112.977C197.013 110.889 198.867 110.007 201.243 110.007C201.891 110.007 202.827 110.079 203.493 110.169V109.377C203.493 108.351 202.791 107.487 201.009 107.487C199.857 107.487 198.795 107.739 197.733 108.243L197.427 106.983C198.345 106.533 199.785 106.227 201.189 106.227C203.817 106.227 205.113 107.541 205.113 109.467V113.373C205.113 113.949 205.257 114.345 205.923 114.345ZM200.631 114.327C201.765 114.327 202.629 113.895 203.493 112.923V111.375C202.863 111.267 201.963 111.213 201.351 111.213C199.335 111.213 198.669 111.861 198.669 112.779C198.669 113.733 199.425 114.327 200.631 114.327ZM207.957 115.407V102.501L209.577 102.267V115.407H207.957Z" fill="black"/>
  <rect x="155.807" y="136.907" width="60" height="31" rx="15.5" stroke="#A0DA8B"/>
  <path d="M178.937 148.645L180.146 148.476V157.407H178.937V153.39H173.776V157.407H172.567V148.645L173.776 148.476V152.376H178.937V148.645ZM182.86 149.724L181.963 148.853L182.86 147.995L183.731 148.853L182.86 149.724ZM183.432 157.407H182.262V150.907H183.432V157.407ZM191.573 150.907V157.264C191.573 159.318 190.312 160.397 187.998 160.397C187.036 160.397 185.918 160.163 185.268 159.825L185.489 158.954C186.256 159.344 187.257 159.487 187.959 159.487C189.493 159.487 190.403 158.876 190.403 157.303V156.146C189.948 156.731 189.181 157.277 188.102 157.277C186.282 157.277 185.021 156.029 185.021 154.027C185.021 152.012 186.282 150.777 188.102 150.777C189.181 150.777 189.948 151.31 190.403 151.908L190.494 150.907H191.573ZM190.39 155.379V152.662C189.87 152.038 189.142 151.687 188.401 151.687C187.036 151.687 186.217 152.636 186.217 154.027C186.217 155.418 187.036 156.367 188.401 156.367C189.142 156.367 189.87 156.016 190.39 155.379ZM196.929 150.777C198.45 150.777 199.282 151.648 199.282 153.156V157.407H198.112V153.182C198.112 152.22 197.54 151.687 196.513 151.687C195.72 151.687 195.148 152.064 194.68 152.623V157.407H193.51V148.086L194.68 147.917V151.895C195.226 151.154 195.98 150.777 196.929 150.777Z" fill="#A0DA8B"/>
  <path d="M251.527 109.449L253.147 109.215V114.705C252.031 115.263 250.645 115.587 248.899 115.587C245.245 115.587 242.707 113.193 242.707 109.287C242.707 105.381 245.245 102.987 248.899 102.987C250.645 102.987 251.905 103.401 253.021 104.085L252.787 105.561C251.491 104.679 250.285 104.409 248.971 104.409C246.253 104.409 244.417 106.245 244.417 109.287C244.417 112.329 246.253 114.165 248.971 114.165C249.889 114.165 250.735 114.057 251.527 113.715V109.449ZM259.94 106.227C263 106.227 264.764 108.351 264.764 110.907C264.764 113.463 263 115.587 259.94 115.587C256.844 115.587 255.098 113.463 255.098 110.907C255.098 108.351 256.844 106.227 259.94 106.227ZM259.922 114.327C262.046 114.327 263.108 112.689 263.108 110.907C263.108 109.161 262.046 107.487 259.922 107.487C257.78 107.487 256.754 109.161 256.754 110.907C256.754 112.689 257.78 114.327 259.922 114.327ZM270.46 113.409L273.412 106.407H275.194L271.108 115.569H269.722L265.636 106.407H267.418L270.46 113.409ZM284.907 110.637C284.907 110.871 284.907 111.177 284.889 111.393H277.779C277.959 113.247 279.111 114.381 281.127 114.381C282.099 114.381 283.143 114.183 284.205 113.643L284.511 114.795C283.611 115.263 282.333 115.587 281.019 115.587C277.779 115.587 276.087 113.751 276.087 110.907C276.087 108.063 277.905 106.227 280.731 106.227C283.953 106.227 284.907 108.387 284.907 110.637ZM277.797 110.205H283.287C283.269 108.711 282.783 107.415 280.677 107.415C279.147 107.415 278.013 108.387 277.797 110.205ZM292.376 107.847C290.72 107.847 289.406 108.621 288.74 109.611V115.407H287.12V106.407H288.614L288.722 108.459C289.388 107.145 290.702 106.227 292.214 106.227L292.376 107.847ZM298.832 106.227C300.938 106.227 302.09 107.433 302.09 109.521V115.407H300.47V109.557C300.47 108.225 299.678 107.487 298.256 107.487C297.158 107.487 296.366 108.009 295.718 108.783V115.407H294.098V106.407H295.592L295.718 107.775C296.474 106.749 297.518 106.227 298.832 106.227ZM315.642 106.227C317.748 106.227 318.9 107.433 318.9 109.521V115.407H317.28V109.557C317.28 108.225 316.488 107.487 315.066 107.487C313.986 107.487 313.176 108.009 312.546 108.783C312.582 109.017 312.6 109.269 312.6 109.521V115.407H310.98V109.557C310.98 108.225 310.188 107.487 308.766 107.487C307.686 107.487 306.93 108.009 306.3 108.783V115.407H304.68V106.407H306.174L306.3 107.775C307.056 106.749 308.046 106.227 309.342 106.227C310.89 106.227 311.916 106.875 312.348 108.027C313.14 106.821 314.256 106.227 315.642 106.227ZM329.819 110.637C329.819 110.871 329.819 111.177 329.801 111.393H322.691C322.871 113.247 324.023 114.381 326.039 114.381C327.011 114.381 328.055 114.183 329.117 113.643L329.423 114.795C328.523 115.263 327.245 115.587 325.931 115.587C322.691 115.587 320.999 113.751 320.999 110.907C320.999 108.063 322.817 106.227 325.643 106.227C328.865 106.227 329.819 108.387 329.819 110.637ZM322.709 110.205H328.199C328.181 108.711 327.695 107.415 325.589 107.415C324.059 107.415 322.925 108.387 322.709 110.205ZM336.766 106.227C338.872 106.227 340.024 107.433 340.024 109.521V115.407H338.404V109.557C338.404 108.225 337.612 107.487 336.19 107.487C335.092 107.487 334.3 108.009 333.652 108.783V115.407H332.032V106.407H333.526L333.652 107.775C334.408 106.749 335.452 106.227 336.766 106.227ZM344.795 103.167V106.407H347.981V107.667H344.795V112.905C344.795 113.841 345.353 114.327 346.469 114.327C347.063 114.327 347.423 114.237 347.927 114.039L348.161 115.227C347.531 115.461 346.739 115.587 346.037 115.587C343.967 115.587 343.175 114.471 343.175 112.941V107.667H341.699V106.407H343.175V103.473L344.795 103.167ZM357.876 114.345C358.038 114.345 358.362 114.309 358.56 114.219V115.407C358.254 115.515 357.678 115.587 357.39 115.587C356.094 115.587 355.608 114.957 355.482 114.057C354.51 115.227 353.214 115.587 352.08 115.587C350.136 115.587 348.966 114.471 348.966 112.977C348.966 110.889 350.82 110.007 353.196 110.007C353.844 110.007 354.78 110.079 355.446 110.169V109.377C355.446 108.351 354.744 107.487 352.962 107.487C351.81 107.487 350.748 107.739 349.686 108.243L349.38 106.983C350.298 106.533 351.738 106.227 353.142 106.227C355.77 106.227 357.066 107.541 357.066 109.467V113.373C357.066 113.949 357.21 114.345 357.876 114.345ZM352.584 114.327C353.718 114.327 354.582 113.895 355.446 112.923V111.375C354.816 111.267 353.916 111.213 353.304 111.213C351.288 111.213 350.622 111.861 350.622 112.779C350.622 113.733 351.378 114.327 352.584 114.327ZM359.911 115.407V102.501L361.531 102.267V115.407H359.911Z" fill="black"/>
  <rect x="272.807" y="136.907" width="60" height="31" rx="15.5" stroke="#A0DA8B"/>
  <path d="M295.937 148.645L297.146 148.476V157.407H295.937V153.39H290.776V157.407H289.567V148.645L290.776 148.476V152.376H295.937V148.645ZM299.86 149.724L298.963 148.853L299.86 147.995L300.731 148.853L299.86 149.724ZM300.432 157.407H299.262V150.907H300.432V157.407ZM308.573 150.907V157.264C308.573 159.318 307.312 160.397 304.998 160.397C304.036 160.397 302.918 160.163 302.268 159.825L302.489 158.954C303.256 159.344 304.257 159.487 304.959 159.487C306.493 159.487 307.403 158.876 307.403 157.303V156.146C306.948 156.731 306.181 157.277 305.102 157.277C303.282 157.277 302.021 156.029 302.021 154.027C302.021 152.012 303.282 150.777 305.102 150.777C306.181 150.777 306.948 151.31 307.403 151.908L307.494 150.907H308.573ZM307.39 155.379V152.662C306.87 152.038 306.142 151.687 305.401 151.687C304.036 151.687 303.217 152.636 303.217 154.027C303.217 155.418 304.036 156.367 305.401 156.367C306.142 156.367 306.87 156.016 307.39 155.379ZM313.929 150.777C315.45 150.777 316.282 151.648 316.282 153.156V157.407H315.112V153.182C315.112 152.22 314.54 151.687 313.513 151.687C312.72 151.687 312.148 152.064 311.68 152.623V157.407H310.51V148.086L311.68 147.917V151.895C312.226 151.154 312.98 150.777 313.929 150.777Z" fill="#A0DA8B"/>
</svg>
