<svg width="16" height="16" viewBox="0 0 16 16" fill="none" xmlns="http://www.w3.org/2000/svg">
  <path d="M7.98102 16V15H14.386C14.5394 15 14.6804 14.936 14.809 14.808C14.937 14.6793 15.001 14.5383 15.001 14.385V1.615C15.001 1.46167 14.937 1.32067 14.809 1.192C14.6804 1.064 14.5394 1 14.386 1H7.98102V0H14.385C14.845 0 15.229 0.154333 15.537 0.463C15.8457 0.771 16 1.155 16 1.615V14.385C16 14.845 15.846 15.229 15.538 15.537C15.2294 15.8457 14.845 16 14.385 16H7.98102ZM7.27102 11.538L6.56802 10.819L8.88802 8.5H0.0200195V7.5H8.88802L6.56802 5.18L7.27002 4.462L10.809 8L7.27002 11.538H7.27102Z" fill="white"/>
</svg>
