<svg width="122" height="49" viewBox="0 0 122 49" fill="none" xmlns="http://www.w3.org/2000/svg">
    <path d="M2.77847 22.5047C1.6739 22.5047 0.778466 23.4001 0.778466 24.5047C0.778466 25.6093 1.6739 26.5047 2.77847 26.5047L2.77847 22.5047ZM119.206 24.5047L120.62 25.9189C121.401 25.1379 121.401 23.8715 120.62 23.0905L119.206 24.5047ZM98.5656 1.03635C97.7846 0.255302 96.5182 0.255302 95.7372 1.03635C94.9562 1.8174 94.9562 3.08373 95.7372 3.86478L98.5656 1.03635ZM95.7372 45.1446C94.9562 45.9257 94.9562 47.192 95.7372 47.973C96.5182 48.7541 97.7846 48.7541 98.5656 47.973L95.7372 45.1446ZM2.77847 26.5047L119.206 26.5047L119.206 22.5047L2.77847 22.5047L2.77847 26.5047ZM95.7372 3.86478L117.791 25.9189L120.62 23.0905L98.5656 1.03635L95.7372 3.86478ZM117.791 23.0905L95.7372 45.1446L98.5656 47.973L120.62 25.9189L117.791 23.0905Z" fill="#2D67FF"/>
</svg>
