<svg width="17" height="17" viewBox="0 0 17 17" fill="none" xmlns="http://www.w3.org/2000/svg">
  <path d="M8.56104 8.8073H7.81104C7.81104 9.22152 8.14682 9.5573 8.56104 9.5573V8.8073ZM15.9613 9.5573C16.3755 9.5573 16.7113 9.22152 16.7113 8.8073C16.7113 8.39309 16.3755 8.0573 15.9613 8.0573L15.9613 9.5573ZM9.31104 1.40704C9.31104 0.99283 8.97525 0.657043 8.56104 0.657044C8.14682 0.657043 7.81104 0.99283 7.81104 1.40704H9.31104ZM15.9613 8.0573L8.56104 8.0573V9.5573L15.9613 9.5573L15.9613 8.0573ZM9.31104 8.8073L9.31104 1.40704H7.81104L7.81104 8.8073H9.31104Z" fill="white"/>
  <path d="M8.56104 8.80731L9.31104 8.80731C9.31104 8.39309 8.97525 8.05731 8.56104 8.05731L8.56104 8.80731ZM1.16078 8.05731C0.746564 8.05731 0.410777 8.39309 0.410777 8.80731C0.410777 9.22152 0.746564 9.55731 1.16078 9.55731L1.16078 8.05731ZM7.81104 16.2076C7.81104 16.6218 8.14682 16.9576 8.56104 16.9576C8.97525 16.9576 9.31104 16.6218 9.31104 16.2076L7.81104 16.2076ZM1.16078 9.55731L8.56104 9.55731L8.56104 8.05731L1.16078 8.05731L1.16078 9.55731ZM7.81104 8.80731L7.81104 16.2076L9.31104 16.2076L9.31104 8.80731L7.81104 8.80731Z" fill="white"/>
</svg>
