<svg width="19" height="18" viewBox="0 0 19 18" fill="none" xmlns="http://www.w3.org/2000/svg">
<path d="M2.19971 13.0196C2.19971 12.6054 1.86392 12.2696 1.44971 12.2696C1.03549 12.2696 0.699707 12.6054 0.699707 13.0196H2.19971ZM18.1997 13.0154C18.1997 12.6012 17.8639 12.2654 17.4497 12.2654C17.0355 12.2654 16.6997 12.6012 16.6997 13.0154H18.1997ZM10.1997 1.51544C10.1997 1.10123 9.86392 0.765442 9.44971 0.765442C9.03549 0.765442 8.69971 1.10123 8.69971 1.51544H10.1997ZM9.44971 12.5154L8.91938 13.0458C9.21227 13.3387 9.68714 13.3387 9.98004 13.0458L9.44971 12.5154ZM13.48 9.54577C13.7729 9.25288 13.7729 8.77801 13.48 8.48511C13.1871 8.19222 12.7123 8.19222 12.4194 8.48511L13.48 9.54577ZM6.48004 8.48511C6.18714 8.19222 5.71227 8.19222 5.41938 8.48511C5.12648 8.77801 5.12648 9.25288 5.41938 9.54577L6.48004 8.48511ZM0.699707 13.0196V14.0154H2.19971V13.0196H0.699707ZM4.44971 17.7654H14.4497V16.2654H4.44971V17.7654ZM18.1997 14.0154V13.0154H16.6997V14.0154H18.1997ZM14.4497 17.7654C16.5208 17.7654 18.1997 16.0865 18.1997 14.0154H16.6997C16.6997 15.2581 15.6923 16.2654 14.4497 16.2654V17.7654ZM0.699707 14.0154C0.699707 16.0865 2.37864 17.7654 4.44971 17.7654V16.2654C3.20707 16.2654 2.19971 15.2581 2.19971 14.0154H0.699707ZM8.69971 1.51544V12.5154H10.1997V1.51544H8.69971ZM12.4194 8.48511L8.91938 11.9851L9.98004 13.0458L13.48 9.54577L12.4194 8.48511ZM9.98004 11.9851L6.48004 8.48511L5.41938 9.54577L8.91938 13.0458L9.98004 11.9851Z" fill="white"/>
</svg>
