<svg width="21" height="21" viewBox="0 0 21 21" fill="none" xmlns="http://www.w3.org/2000/svg">
<path d="M3.16451 17.1076C2.87161 17.4005 2.87161 17.8754 3.16451 18.1683C3.4574 18.4612 3.93227 18.4612 4.22517 18.1683L3.16451 17.1076ZM13.6881 7.64468L14.4381 7.64468C14.4381 7.23047 14.1023 6.89468 13.6881 6.89468L13.6881 7.64468ZM7.32875 6.89468C6.91454 6.89468 6.57875 7.23047 6.57875 7.64468C6.57875 8.0589 6.91454 8.39468 7.32875 8.39468L7.32875 6.89468ZM12.9381 14.004C12.9381 14.4182 13.2739 14.754 13.6881 14.754C14.1023 14.754 14.4381 14.4182 14.4381 14.004L12.9381 14.004ZM4.22517 18.1683L14.2184 8.17501L13.1578 7.11435L3.16451 17.1076L4.22517 18.1683ZM7.32875 8.39468L13.6881 8.39468L13.6881 6.89468L7.32875 6.89468L7.32875 8.39468ZM12.9381 7.64468L12.9381 14.004L14.4381 14.004L14.4381 7.64468L12.9381 7.64468Z" fill="black"/>
<path d="M4.31396 1.14062H14.634C17.3954 1.14062 19.634 3.3808 19.634 6.14222C19.634 9.71808 19.634 11.7099 19.634 17.2074" stroke="black" stroke-width="1.5" stroke-linecap="round" stroke-linejoin="round"/>
</svg>
