<svg width="328" height="42" viewBox="0 0 328 42" fill="none" xmlns="http://www.w3.org/2000/svg">
  <rect y="0.365234" width="34.6667" height="16" fill="#35CB00"/>
  <path d="M11.3334 31.6343L14.3416 23.5266H15.6612L18.7142 31.6343H17.4841L16.8466 29.8785H13.1227L12.4964 31.6343H11.3334ZM14.9679 24.6784L13.4693 28.9056H16.4888L14.9679 24.6784ZM21.7466 31.6343H20.7289V25.2935H18.8501V24.6001C20.002 24.5666 20.6171 24.3988 21.0532 23.5266H21.7466V31.6343Z" fill="#35CB00"/>
  <rect x="36.6666" y="0.365234" width="34.6667" height="16" fill="#75D652"/>
  <path d="M47 31.6343L50.0082 23.5266H51.3278L54.3808 31.6343H53.1507L52.5133 29.8785H48.7893L48.163 31.6343H47ZM50.6345 24.6784L49.136 28.9056H52.1554L50.6345 24.6784ZM57.7599 23.3812C59.2584 23.3812 60.332 24.1304 60.332 25.506C60.332 27.3847 58.3749 29.0398 56.1048 30.6837H60.5556V31.6343H54.7181V30.7173C57.5809 28.6037 59.2584 27.0828 59.2584 25.6402C59.2584 24.7902 58.7104 24.2311 57.7375 24.2311C56.8652 24.2311 56.0265 24.712 55.9929 26.0539H54.9417C54.9082 24.4436 56.0265 23.3812 57.7599 23.3812Z" fill="#75D652"/>
  <rect x="73.3334" y="0.365234" width="34.6667" height="16" fill="#B7DE86"/>
  <path d="M83.6667 31.6343L86.675 23.5266H87.9946L91.0476 31.6343H89.8174L89.18 29.8785H85.456L84.8298 31.6343H83.6667ZM87.3012 24.6784L85.8027 28.9056H88.8221L87.3012 24.6784ZM94.2029 30.9297C95.2765 30.9297 96.037 30.3818 96.037 29.3641C96.037 28.2011 94.9969 27.8208 93.6997 27.8208H93.532V26.8927H93.6662C95.0864 26.8927 95.8245 26.5012 95.8245 25.5507C95.8245 24.6896 95.1088 24.2311 94.2477 24.2311C93.1629 24.2311 92.5702 24.8797 92.4808 25.8079H91.4295C91.5526 24.3765 92.5702 23.3812 94.27 23.3812C95.6679 23.3812 96.8981 23.9515 96.8981 25.4389C96.8981 26.2776 96.4284 26.9709 95.5785 27.3176C96.7862 27.709 97.1217 28.4918 97.1217 29.3529C97.1217 30.9857 95.7462 31.7797 94.1918 31.7797C92.2683 31.7797 91.4295 30.5943 91.3065 29.2411H92.3577C92.4808 30.2364 93.0511 30.9297 94.2029 30.9297Z" fill="#B7DE86"/>
  <rect x="110" y="0.365234" width="34.6667" height="16" fill="#ECE38E"/>
  <path d="M122.295 31.6343V23.5266H125.214C126.724 23.5266 128.066 23.918 128.066 25.5283C128.066 26.3 127.741 26.9933 127.171 27.3176C127.943 27.6419 128.401 28.2458 128.401 29.2411C128.401 30.9633 127.115 31.6343 125.493 31.6343H122.295ZM123.436 27.8991V30.6725H125.505C126.668 30.6725 127.227 30.1805 127.227 29.2523C127.227 28.3017 126.657 27.8991 125.438 27.8991H123.436ZM123.436 24.4883V26.9933H125.393C126.332 26.9933 126.914 26.6354 126.914 25.6849C126.914 24.8462 126.299 24.4883 125.393 24.4883H123.436ZM131.878 31.6343H130.86V25.2935H128.981V24.6001C130.133 24.5666 130.748 24.3988 131.184 23.5266H131.878V31.6343Z" fill="#ECE38E"/>
  <rect x="146.667" y="0.365234" width="34.6667" height="16" fill="#FFD748"/>
  <path d="M157.462 31.6343V23.5266H160.381C161.89 23.5266 163.232 23.918 163.232 25.5283C163.232 26.3 162.908 26.9933 162.338 27.3176C163.109 27.6419 163.568 28.2458 163.568 29.2411C163.568 30.9633 162.282 31.6343 160.66 31.6343H157.462ZM158.602 27.8991V30.6725H160.671C161.834 30.6725 162.393 30.1805 162.393 29.2523C162.393 28.3017 161.823 27.8991 160.604 27.8991H158.602ZM158.602 24.4883V26.9933H160.559C161.499 26.9933 162.08 26.6354 162.08 25.6849C162.08 24.8462 161.465 24.4883 160.559 24.4883H158.602ZM167.391 23.3812C168.889 23.3812 169.963 24.1304 169.963 25.506C169.963 27.3847 168.006 29.0398 165.736 30.6837H170.187V31.6343H164.349V30.7173C167.212 28.6037 168.889 27.0828 168.889 25.6402C168.889 24.7902 168.341 24.2311 167.369 24.2311C166.496 24.2311 165.658 24.712 165.624 26.0539H164.573C164.539 24.4436 165.658 23.3812 167.391 23.3812Z" fill="#FFD748"/>
  <rect x="183.333" y="0.365234" width="34.6667" height="16" fill="#FFC700"/>
  <path d="M194.128 31.6343V23.5266H197.047C198.557 23.5266 199.899 23.918 199.899 25.5283C199.899 26.3 199.575 26.9933 199.004 27.3176C199.776 27.6419 200.234 28.2458 200.234 29.2411C200.234 30.9633 198.948 31.6343 197.327 31.6343H194.128ZM195.269 27.8991V30.6725H197.338C198.501 30.6725 199.06 30.1805 199.06 29.2523C199.06 28.3017 198.49 27.8991 197.271 27.8991H195.269ZM195.269 24.4883V26.9933H197.226C198.166 26.9933 198.747 26.6354 198.747 25.6849C198.747 24.8462 198.132 24.4883 197.226 24.4883H195.269ZM203.834 30.9297C204.908 30.9297 205.668 30.3818 205.668 29.3641C205.668 28.2011 204.628 27.8208 203.331 27.8208H203.163V26.8927H203.297C204.717 26.8927 205.456 26.5012 205.456 25.5507C205.456 24.6896 204.74 24.2311 203.879 24.2311C202.794 24.2311 202.201 24.8797 202.112 25.8079H201.061C201.184 24.3765 202.201 23.3812 203.901 23.3812C205.299 23.3812 206.529 23.9515 206.529 25.4389C206.529 26.2776 206.059 26.9709 205.21 27.3176C206.417 27.709 206.753 28.4918 206.753 29.3529C206.753 30.9857 205.377 31.7797 203.823 31.7797C201.899 31.7797 201.061 30.5943 200.938 29.2411H201.989C202.112 30.2364 202.682 30.9297 203.834 30.9297Z" fill="#FFC700"/>
  <rect x="220" y="0.365234" width="34.6667" height="16" fill="#FF9B3F"/>
  <path d="M237.487 29.051H238.594C238.237 30.8403 236.839 31.7797 235.083 31.7797C232.757 31.7797 231.404 30.0239 231.404 27.5636C231.404 25.0586 232.891 23.3812 235.172 23.3812C236.85 23.3812 238.192 24.3765 238.55 26.1098H237.443C237.208 25.0922 236.403 24.3429 235.116 24.3429C233.685 24.3429 232.567 25.4612 232.567 27.5636C232.567 29.6213 233.64 30.8179 235.15 30.8179C236.447 30.8179 237.23 30.091 237.487 29.051ZM241.978 31.6343H240.961V25.2935H239.082V24.6001C240.234 24.5666 240.849 24.3988 241.285 23.5266H241.978V31.6343Z" fill="#FF9B3F"/>
  <rect x="256.667" y="0.365234" width="34.6667" height="16" fill="#FF632F"/>
  <path d="M273.154 29.051H274.261C273.903 30.8403 272.505 31.7797 270.75 31.7797C268.423 31.7797 267.07 30.0239 267.07 27.5636C267.07 25.0586 268.558 23.3812 270.839 23.3812C272.516 23.3812 273.858 24.3765 274.216 26.1098H273.109C272.874 25.0922 272.069 24.3429 270.783 24.3429C269.352 24.3429 268.233 25.4612 268.233 27.5636C268.233 29.6213 269.307 30.8179 270.817 30.8179C272.114 30.8179 272.897 30.091 273.154 29.051ZM277.992 23.3812C279.49 23.3812 280.564 24.1304 280.564 25.506C280.564 27.3847 278.607 29.0398 276.336 30.6837H280.787V31.6343H274.95V30.7173C277.813 28.6037 279.49 27.0828 279.49 25.6402C279.49 24.7902 278.942 24.2311 277.969 24.2311C277.097 24.2311 276.258 24.712 276.225 26.0539H275.173C275.14 24.4436 276.258 23.3812 277.992 23.3812Z" fill="#FF632F"/>
  <rect x="293.333" y="0.365234" width="34.6667" height="16" fill="#F74B3C"/>
  <path d="M309.821 29.051H310.928C310.57 30.8403 309.172 31.7797 307.416 31.7797C305.09 31.7797 303.737 30.0239 303.737 27.5636C303.737 25.0586 305.224 23.3812 307.506 23.3812C309.183 23.3812 310.525 24.3765 310.883 26.1098H309.776C309.541 25.0922 308.736 24.3429 307.45 24.3429C306.018 24.3429 304.9 25.4612 304.9 27.5636C304.9 29.6213 305.974 30.8179 307.483 30.8179C308.781 30.8179 309.563 30.091 309.821 29.051ZM314.435 30.9297C315.508 30.9297 316.269 30.3818 316.269 29.3641C316.269 28.2011 315.229 27.8208 313.931 27.8208H313.764V26.8927H313.898C315.318 26.8927 316.056 26.5012 316.056 25.5507C316.056 24.6896 315.34 24.2311 314.479 24.2311C313.395 24.2311 312.802 24.8797 312.712 25.8079H311.661C311.784 24.3765 312.802 23.3812 314.502 23.3812C315.9 23.3812 317.13 23.9515 317.13 25.4389C317.13 26.2776 316.66 26.9709 315.81 27.3176C317.018 27.709 317.353 28.4918 317.353 29.3529C317.353 30.9857 315.978 31.7797 314.423 31.7797C312.5 31.7797 311.661 30.5943 311.538 29.2411H312.589C312.712 30.2364 313.283 30.9297 314.435 30.9297Z" fill="#FF3B29"/>
</svg>
