<svg width="10" height="10" viewBox="0 0 10 10" fill="none" xmlns="http://www.w3.org/2000/svg">
<path d="M6.13739 8.67917L7.32489 7.5L6.13739 6.32083L6.72906 5.73333L7.91656 6.90417L9.08323 5.73333L9.67489 6.32083L8.50406 7.5L9.67489 8.67917L9.08323 9.26667L7.91656 8.08333L6.72906 9.26667L6.13739 8.67917ZM5.41656 8.28333C5.43323 8.40833 5.39156 8.54167 5.29573 8.62917C5.25718 8.66779 5.21139 8.69844 5.16099 8.71935C5.11058 8.74026 5.05655 8.75102 5.00198 8.75102C4.94741 8.75102 4.89337 8.74026 4.84297 8.71935C4.79256 8.69844 4.74677 8.66779 4.70823 8.62917L3.03739 6.95833C2.99195 6.91391 2.95739 6.85958 2.93643 6.79958C2.91547 6.73959 2.90867 6.67556 2.91656 6.6125V4.47917L0.920725 1.925C0.853062 1.83814 0.822531 1.72802 0.835803 1.61872C0.849076 1.50942 0.905073 1.40981 0.991559 1.34167C1.07073 1.28333 1.15823 1.25 1.24989 1.25H7.08323C7.17489 1.25 7.26239 1.28333 7.34156 1.34167C7.42804 1.40981 7.48404 1.50942 7.49731 1.61872C7.51059 1.72802 7.48006 1.83814 7.41239 1.925L5.41656 4.47917V8.28333ZM2.09989 2.08333L3.74989 4.19167V6.49167L4.58323 7.325V4.1875L6.23323 2.08333H2.09989Z" fill="#2D67FF"/>
</svg>
