<svg width="1026" height="47" viewBox="0 0 1026 47" fill="none" xmlns="http://www.w3.org/2000/svg">
  <line x1="0.650391" y1="43.0781" x2="166.901" y2="43.0782" stroke="#FF3B29" stroke-width="6"/>
  <line x1="166.904" y1="43.0781" x2="333.155" y2="43.0781" stroke="#FF632F" stroke-width="6"/>
  <line x1="333.146" y1="43.0781" x2="499.397" y2="43.0781" stroke="#FF9B3F" stroke-width="6"/>
  <line x1="499.404" y1="43.0781" x2="665.655" y2="43.0781" stroke="#A0DA8B" stroke-width="6"/>
  <line x1="665.648" y1="43.0781" x2="831.899" y2="43.0781" stroke="#35CB00" stroke-width="6"/>
  <path d="M59.7632 13.0217H61.6672L65.0842 23.5617L68.4332 13.0217H70.2522L66.0702 25.3467H63.9962L59.7632 13.0217ZM78.9523 21.2837H71.9143C71.9653 23.2557 73.3933 24.2077 74.7363 24.2077C76.0963 24.2077 76.8443 23.5957 77.2353 22.6947H78.8333C78.4253 24.2587 76.9633 25.5677 74.7363 25.5677C71.8463 25.5677 70.2483 23.4937 70.2483 20.7907C70.2483 17.8837 72.1863 16.0477 74.6853 16.0477C77.4903 16.0477 79.1393 18.3767 78.9523 21.2837ZM74.6853 17.3737C73.3253 17.3737 72.0673 18.1217 71.9313 19.9577H77.3203C77.2693 18.6657 76.3343 17.3737 74.6853 17.3737ZM85.3113 16.1667V17.8157C84.9883 17.7647 84.6993 17.7477 84.4443 17.7477C83.0163 17.7477 82.3023 18.5297 82.3023 20.5527V25.3467H80.7553V16.2007H82.2683V17.7987C82.7273 16.7617 83.6453 16.2007 84.8523 16.1497C85.0053 16.1497 85.1243 16.1497 85.3113 16.1667ZM91.8812 16.2007H93.4962L90.2322 25.7377C89.5522 27.7097 89.1102 28.3217 87.0532 28.3217H86.2542V27.0297H86.8832C87.9032 27.0297 88.3962 26.9617 88.8042 25.5337L88.8722 25.3467L85.5742 16.2007H87.2912L89.6202 23.2557L91.8812 16.2007ZM100.298 13.0217V25.3467H98.7513V13.0217H100.298ZM103.806 20.8077C103.806 23.2557 105.132 24.2077 106.543 24.2077C107.954 24.2077 109.28 23.1537 109.28 20.8077C109.28 18.3597 107.954 17.4077 106.543 17.4077C105.132 17.4077 103.806 18.3087 103.806 20.8077ZM106.543 16.0477C108.668 16.0477 110.929 17.4927 110.929 20.8077C110.929 24.1227 108.668 25.5677 106.543 25.5677C104.418 25.5677 102.157 24.1227 102.157 20.8077C102.157 17.4927 104.418 16.0477 106.543 16.0477ZM114.975 22.9667L116.794 16.2007H118.392L120.211 22.9667L121.962 16.2007H123.628L120.993 25.3467H119.582L117.559 17.9857L115.604 25.3467H114.193L111.558 16.2007H113.224L114.975 22.9667Z" fill="#FF3B29"/>
  <path d="M241.214 13.0217V23.8507H247.725V25.3467H239.48V13.0217H241.214ZM249.924 20.8077C249.924 23.2557 251.25 24.2077 252.661 24.2077C254.072 24.2077 255.398 23.1537 255.398 20.8077C255.398 18.3597 254.072 17.4077 252.661 17.4077C251.25 17.4077 249.924 18.3087 249.924 20.8077ZM252.661 16.0477C254.786 16.0477 257.047 17.4927 257.047 20.8077C257.047 24.1227 254.786 25.5677 252.661 25.5677C250.536 25.5677 248.275 24.1227 248.275 20.8077C248.275 17.4927 250.536 16.0477 252.661 16.0477ZM261.093 22.9667L262.912 16.2007H264.51L266.329 22.9667L268.08 16.2007H269.746L267.111 25.3467H265.7L263.677 17.9857L261.722 25.3467H260.311L257.676 16.2007H259.342L261.093 22.9667Z" fill="#FF632F"/>
  <path d="M385.252 25.3467L389.825 13.0217H391.831L396.472 25.3467H394.602L393.633 22.6777H387.972L387.02 25.3467H385.252ZM390.777 14.7727L388.499 21.1987H393.089L390.777 14.7727ZM397.86 16.2007L400.342 23.2047L402.824 16.2007H404.422L400.971 25.3467H399.594L396.143 16.2007H397.86ZM413.56 21.2837H406.522C406.573 23.2557 408.001 24.2077 409.344 24.2077C410.704 24.2077 411.452 23.5957 411.843 22.6947H413.441C413.033 24.2587 411.571 25.5677 409.344 25.5677C406.454 25.5677 404.856 23.4937 404.856 20.7907C404.856 17.8837 406.794 16.0477 409.293 16.0477C412.098 16.0477 413.747 18.3767 413.56 21.2837ZM409.293 17.3737C407.933 17.3737 406.675 18.1217 406.539 19.9577H411.928C411.877 18.6657 410.942 17.3737 409.293 17.3737ZM419.919 16.1667V17.8157C419.596 17.7647 419.307 17.7477 419.052 17.7477C417.624 17.7477 416.91 18.5297 416.91 20.5527V25.3467H415.363V16.2007H416.876V17.7987C417.335 16.7617 418.253 16.2007 419.46 16.1497C419.613 16.1497 419.732 16.1497 419.919 16.1667ZM426.837 21.5217V20.9437C424.032 21.2157 422.247 21.6407 422.247 22.8987C422.247 23.7657 422.91 24.3437 424.015 24.3437C425.46 24.3437 426.837 23.6807 426.837 21.5217ZM423.675 25.5677C421.958 25.5677 420.53 24.6157 420.53 22.9327C420.53 20.7737 422.978 20.1277 426.718 19.7197V19.4987C426.718 17.8157 425.8 17.2717 424.644 17.2717C423.352 17.2717 422.621 17.9517 422.553 19.0907H420.955C421.091 17.1187 422.859 16.0137 424.627 16.0137C427.16 16.0137 428.282 17.2037 428.265 19.7877L428.248 21.8957C428.231 23.4427 428.299 24.4797 428.486 25.3467H426.922C426.871 25.0067 426.82 24.6327 426.803 24.0887C426.242 25.0407 425.307 25.5677 423.675 25.5677ZM436.724 17.6457V16.2007H438.271V24.1227C438.271 25.9757 437.931 26.7577 437.404 27.3357C436.741 28.1007 435.602 28.5427 434.242 28.5427C432.151 28.5427 430.774 27.5907 430.485 25.7377H432.134C432.321 26.5537 432.848 27.1827 434.259 27.1827C435.092 27.1827 435.704 26.9617 436.129 26.5027C436.452 26.1287 436.724 25.7377 436.724 24.4797V23.6127C436.163 24.5817 435.296 25.1937 433.817 25.1937C431.794 25.1937 429.941 23.5617 429.941 20.6207C429.941 17.6967 431.794 16.0477 433.817 16.0477C435.296 16.0477 436.163 16.6767 436.724 17.6457ZM436.792 20.6207C436.792 18.3087 435.568 17.3737 434.208 17.3737C432.695 17.3737 431.624 18.5297 431.624 20.6207C431.624 22.7287 432.695 23.8847 434.208 23.8847C435.568 23.8847 436.792 22.9497 436.792 20.6207ZM448.788 21.2837H441.75C441.801 23.2557 443.229 24.2077 444.572 24.2077C445.932 24.2077 446.68 23.5957 447.071 22.6947H448.669C448.261 24.2587 446.799 25.5677 444.572 25.5677C441.682 25.5677 440.084 23.4937 440.084 20.7907C440.084 17.8837 442.022 16.0477 444.521 16.0477C447.326 16.0477 448.975 18.3767 448.788 21.2837ZM444.521 17.3737C443.161 17.3737 441.903 18.1217 441.767 19.9577H447.156C447.105 18.6657 446.17 17.3737 444.521 17.3737Z" fill="#FF9B3F"/>
  <path d="M558.934 16.1667C558.934 13.8037 561.399 12.8007 563.388 12.8007C565.615 12.8007 567.57 13.8037 568.063 16.1667H566.38C565.972 14.7557 564.544 14.2627 563.32 14.2627C562.368 14.2627 560.702 14.6877 560.702 16.0647C560.702 17.1527 561.552 17.6967 562.708 17.9517L564.136 18.2747C566.023 18.6827 568.284 19.3967 568.284 21.8787C568.284 24.2757 566.04 25.5677 563.592 25.5677C560.685 25.5677 558.849 23.9697 558.526 21.5217H560.226C560.549 23.2217 561.722 24.1057 563.626 24.1057C565.462 24.1057 566.499 23.2557 566.499 22.0317C566.499 20.7227 565.377 20.2127 563.847 19.8557L562.317 19.5327C560.617 19.1587 558.934 18.2067 558.934 16.1667ZM570.705 16.2007V13.9057H572.252V16.2007H573.986V17.4417H572.252V22.8647C572.252 23.8167 572.32 24.0547 573.204 24.0547H573.986V25.3467H572.864C571.113 25.3467 570.705 24.9557 570.705 23.0517V17.4417H569.26V16.2007H570.705ZM580.347 16.1667V17.8157C580.024 17.7647 579.735 17.7477 579.48 17.7477C578.052 17.7477 577.338 18.5297 577.338 20.5527V25.3467H575.791V16.2007H577.304V17.7987C577.763 16.7617 578.681 16.2007 579.888 16.1497C580.041 16.1497 580.16 16.1497 580.347 16.1667ZM582.722 20.8077C582.722 23.2557 584.048 24.2077 585.459 24.2077C586.87 24.2077 588.196 23.1537 588.196 20.8077C588.196 18.3597 586.87 17.4077 585.459 17.4077C584.048 17.4077 582.722 18.3087 582.722 20.8077ZM585.459 16.0477C587.584 16.0477 589.845 17.4927 589.845 20.8077C589.845 24.1227 587.584 25.5677 585.459 25.5677C583.334 25.5677 581.073 24.1227 581.073 20.8077C581.073 17.4927 583.334 16.0477 585.459 16.0477ZM593.243 16.2007V17.5777C593.77 16.7107 594.654 16.0477 596.201 16.0477C598.411 16.0477 599.21 17.4757 599.21 19.5667V25.3467H597.663V20.0257C597.663 18.6147 597.425 17.3907 595.657 17.3907C594.161 17.3907 593.243 18.4107 593.243 20.3827V25.3467H591.696V16.2007H593.243ZM607.678 17.6457V16.2007H609.225V24.1227C609.225 25.9757 608.885 26.7577 608.358 27.3357C607.695 28.1007 606.556 28.5427 605.196 28.5427C603.105 28.5427 601.728 27.5907 601.439 25.7377H603.088C603.275 26.5537 603.802 27.1827 605.213 27.1827C606.046 27.1827 606.658 26.9617 607.083 26.5027C607.406 26.1287 607.678 25.7377 607.678 24.4797V23.6127C607.117 24.5817 606.25 25.1937 604.771 25.1937C602.748 25.1937 600.895 23.5617 600.895 20.6207C600.895 17.6967 602.748 16.0477 604.771 16.0477C606.25 16.0477 607.117 16.6767 607.678 17.6457ZM607.746 20.6207C607.746 18.3087 606.522 17.3737 605.162 17.3737C603.649 17.3737 602.578 18.5297 602.578 20.6207C602.578 22.7287 603.649 23.8847 605.162 23.8847C606.522 23.8847 607.746 22.9497 607.746 20.6207Z" fill="#A0DA8B"/>
  <path d="M708.017 13.0217H709.921L713.338 23.5617L716.687 13.0217H718.506L714.324 25.3467H712.25L708.017 13.0217ZM727.206 21.2837H720.168C720.219 23.2557 721.647 24.2077 722.99 24.2077C724.35 24.2077 725.098 23.5957 725.489 22.6947H727.087C726.679 24.2587 725.217 25.5677 722.99 25.5677C720.1 25.5677 718.502 23.4937 718.502 20.7907C718.502 17.8837 720.44 16.0477 722.939 16.0477C725.744 16.0477 727.393 18.3767 727.206 21.2837ZM722.939 17.3737C721.579 17.3737 720.321 18.1217 720.185 19.9577H725.574C725.523 18.6657 724.588 17.3737 722.939 17.3737ZM733.565 16.1667V17.8157C733.242 17.7647 732.953 17.7477 732.698 17.7477C731.27 17.7477 730.556 18.5297 730.556 20.5527V25.3467H729.009V16.2007H730.522V17.7987C730.981 16.7617 731.899 16.2007 733.106 16.1497C733.259 16.1497 733.378 16.1497 733.565 16.1667ZM740.135 16.2007H741.75L738.486 25.7377C737.806 27.7097 737.364 28.3217 735.307 28.3217H734.508V27.0297H735.137C736.157 27.0297 736.65 26.9617 737.058 25.5337L737.126 25.3467L733.828 16.2007H735.545L737.874 23.2557L740.135 16.2007ZM753.856 18.8697H752.241C751.986 17.7817 751.17 17.3567 750.082 17.3567C749.181 17.3567 748.161 17.6797 748.161 18.5127C748.161 19.2437 748.671 19.5667 749.555 19.7537L750.847 20.0087C752.513 20.3147 753.975 20.9777 753.975 22.7287C753.975 24.5477 752.343 25.5677 750.252 25.5677C747.855 25.5677 746.512 23.9867 746.325 22.3887H747.957C748.212 23.5617 748.926 24.2587 750.286 24.2587C751.459 24.2587 752.411 23.7657 752.411 22.8987C752.411 21.9637 751.544 21.6067 750.558 21.3857L749.198 21.1137C747.957 20.8417 746.597 20.2977 746.597 18.5807C746.597 16.9657 748.229 16.0307 750.252 16.0307C752.241 16.0307 753.567 17.1187 753.856 18.8697ZM756.379 16.2007V13.9057H757.926V16.2007H759.66V17.4417H757.926V22.8647C757.926 23.8167 757.994 24.0547 758.878 24.0547H759.66V25.3467H758.538C756.787 25.3467 756.379 24.9557 756.379 23.0517V17.4417H754.934V16.2007H756.379ZM766.021 16.1667V17.8157C765.698 17.7647 765.409 17.7477 765.154 17.7477C763.726 17.7477 763.012 18.5297 763.012 20.5527V25.3467H761.465V16.2007H762.978V17.7987C763.437 16.7617 764.355 16.2007 765.562 16.1497C765.715 16.1497 765.834 16.1497 766.021 16.1667ZM768.396 20.8077C768.396 23.2557 769.722 24.2077 771.133 24.2077C772.544 24.2077 773.87 23.1537 773.87 20.8077C773.87 18.3597 772.544 17.4077 771.133 17.4077C769.722 17.4077 768.396 18.3087 768.396 20.8077ZM771.133 16.0477C773.258 16.0477 775.519 17.4927 775.519 20.8077C775.519 24.1227 773.258 25.5677 771.133 25.5677C769.008 25.5677 766.747 24.1227 766.747 20.8077C766.747 17.4927 769.008 16.0477 771.133 16.0477ZM778.917 16.2007V17.5777C779.444 16.7107 780.328 16.0477 781.875 16.0477C784.085 16.0477 784.884 17.4757 784.884 19.5667V25.3467H783.337V20.0257C783.337 18.6147 783.099 17.3907 781.331 17.3907C779.835 17.3907 778.917 18.4107 778.917 20.3827V25.3467H777.37V16.2007H778.917ZM793.352 17.6457V16.2007H794.899V24.1227C794.899 25.9757 794.559 26.7577 794.032 27.3357C793.369 28.1007 792.23 28.5427 790.87 28.5427C788.779 28.5427 787.402 27.5907 787.113 25.7377H788.762C788.949 26.5537 789.476 27.1827 790.887 27.1827C791.72 27.1827 792.332 26.9617 792.757 26.5027C793.08 26.1287 793.352 25.7377 793.352 24.4797V23.6127C792.791 24.5817 791.924 25.1937 790.445 25.1937C788.422 25.1937 786.569 23.5617 786.569 20.6207C786.569 17.6967 788.422 16.0477 790.445 16.0477C791.924 16.0477 792.791 16.6767 793.352 17.6457ZM793.42 20.6207C793.42 18.3087 792.196 17.3737 790.836 17.3737C789.323 17.3737 788.252 18.5297 788.252 20.6207C788.252 22.7287 789.323 23.8847 790.836 23.8847C792.196 23.8847 793.42 22.9497 793.42 20.6207Z" fill="#35CB00"/>
  <path d="M871.432 19.1757C871.432 22.3547 873.2 24.1057 875.444 24.1057C877.688 24.1057 879.456 22.3547 879.456 19.1757C879.456 15.9967 877.688 14.2627 875.444 14.2627C873.2 14.2627 871.432 15.9967 871.432 19.1757ZM881.224 19.1757C881.224 22.8987 878.997 25.5677 875.444 25.5677C871.891 25.5677 869.664 22.8987 869.664 19.1757C869.664 15.4527 871.891 12.8007 875.444 12.8007C878.997 12.8007 881.224 15.4527 881.224 19.1757ZM888.814 25.3467V24.0377C888.287 24.9047 887.454 25.5677 885.941 25.5677C883.833 25.5677 883.017 24.1397 883.017 22.0487V16.2007H884.564V21.5897C884.564 23.0007 884.785 24.2247 886.485 24.2247C887.964 24.2247 888.814 23.2047 888.814 21.2327V16.2007H890.361V25.3467H888.814ZM893.257 16.2007V13.9057H894.804V16.2007H896.538V17.4417H894.804V22.8647C894.804 23.8167 894.872 24.0547 895.756 24.0547H896.538V25.3467H895.416C893.665 25.3467 893.257 24.9557 893.257 23.0517V17.4417H891.812V16.2007H893.257ZM900.056 13.0217V25.3467H898.509V13.0217H900.056ZM902.51 16.2007H904.057V25.3467H902.51V16.2007ZM902.51 13.0217H904.057V14.8917H902.51V13.0217ZM914.586 21.2837H907.548C907.599 23.2557 909.027 24.2077 910.37 24.2077C911.73 24.2077 912.478 23.5957 912.869 22.6947H914.467C914.059 24.2587 912.597 25.5677 910.37 25.5677C907.48 25.5677 905.882 23.4937 905.882 20.7907C905.882 17.8837 907.82 16.0477 910.319 16.0477C913.124 16.0477 914.773 18.3767 914.586 21.2837ZM910.319 17.3737C908.959 17.3737 907.701 18.1217 907.565 19.9577H912.954C912.903 18.6657 911.968 17.3737 910.319 17.3737ZM920.945 16.1667V17.8157C920.622 17.7647 920.333 17.7477 920.078 17.7477C918.65 17.7477 917.936 18.5297 917.936 20.5527V25.3467H916.389V16.2007H917.902V17.7987C918.361 16.7617 919.279 16.2007 920.486 16.1497C920.639 16.1497 920.758 16.1497 920.945 16.1667ZM929.2 18.8697H927.585C927.33 17.7817 926.514 17.3567 925.426 17.3567C924.525 17.3567 923.505 17.6797 923.505 18.5127C923.505 19.2437 924.015 19.5667 924.899 19.7537L926.191 20.0087C927.857 20.3147 929.319 20.9777 929.319 22.7287C929.319 24.5477 927.687 25.5677 925.596 25.5677C923.199 25.5677 921.856 23.9867 921.669 22.3887H923.301C923.556 23.5617 924.27 24.2587 925.63 24.2587C926.803 24.2587 927.755 23.7657 927.755 22.8987C927.755 21.9637 926.888 21.6067 925.902 21.3857L924.542 21.1137C923.301 20.8417 921.941 20.2977 921.941 18.5807C921.941 16.9657 923.573 16.0307 925.596 16.0307C927.585 16.0307 928.911 17.1187 929.2 18.8697Z" fill="white"/>
</svg>
