<svg width="79" height="167" viewBox="0 0 79 167" fill="none" xmlns="http://www.w3.org/2000/svg">
  <path d="M13.8151 7.45455C13.8151 8.85227 13.5594 10.054 13.048 11.0597C12.5367 12.0611 11.8357 12.8324 10.945 13.3736C10.0587 13.9105 9.05086 14.179 7.9216 14.179C6.78807 14.179 5.776 13.9105 4.88537 13.3736C3.99901 12.8324 3.30015 12.0589 2.78878 11.0533C2.27742 10.0476 2.02174 8.84801 2.02174 7.45455C2.02174 6.05682 2.27742 4.85724 2.78878 3.85582C3.30015 2.85014 3.99901 2.07883 4.88537 1.5419C5.776 1.00071 6.78807 0.730113 7.9216 0.730113C9.05086 0.730113 10.0587 1.00071 10.945 1.5419C11.8357 2.07883 12.5367 2.85014 13.048 3.85582C13.5594 4.85724 13.8151 6.05682 13.8151 7.45455ZM11.8591 7.45455C11.8591 6.3892 11.6865 5.49219 11.3413 4.76349C11.0004 4.03054 10.5317 3.47656 9.93509 3.10156C9.34276 2.7223 8.6716 2.53267 7.9216 2.53267C7.16733 2.53267 6.49404 2.7223 5.90171 3.10156C5.30938 3.47656 4.84063 4.03054 4.49546 4.76349C4.15455 5.49219 3.98409 6.3892 3.98409 7.45455C3.98409 8.51989 4.15455 9.41903 4.49546 10.152C4.84063 10.8807 5.30938 11.4347 5.90171 11.8139C6.49404 12.1889 7.16733 12.3764 7.9216 12.3764C8.6716 12.3764 9.34276 12.1889 9.93509 11.8139C10.5317 11.4347 11.0004 10.8807 11.3413 10.152C11.6865 9.41903 11.8591 8.51989 11.8591 7.45455ZM15.9196 14V12.6896L21.2378 5.93324V5.84375H16.0922V4.18182H23.6221V5.57528L18.5084 12.2486V12.3381H23.801V14H15.9196ZM29.9102 14.1982C28.9898 14.1982 28.1865 13.9872 27.5004 13.5653C26.8144 13.1435 26.2817 12.5533 25.9024 11.7947C25.5232 11.0362 25.3335 10.1499 25.3335 9.13565C25.3335 8.11719 25.5232 7.22656 25.9024 6.46378C26.2817 5.70099 26.8144 5.10866 27.5004 4.68679C28.1865 4.26491 28.9898 4.05398 29.9102 4.05398C30.8307 4.05398 31.634 4.26491 32.32 4.68679C33.0061 5.10866 33.5388 5.70099 33.918 6.46378C34.2973 7.22656 34.4869 8.11719 34.4869 9.13565C34.4869 10.1499 34.2973 11.0362 33.918 11.7947C33.5388 12.5533 33.0061 13.1435 32.32 13.5653C31.634 13.9872 30.8307 14.1982 29.9102 14.1982ZM29.9166 12.5938C30.5132 12.5938 31.0075 12.4361 31.3996 12.1207C31.7916 11.8054 32.0814 11.3857 32.2689 10.8615C32.4607 10.3374 32.5565 9.75994 32.5565 9.12926C32.5565 8.50284 32.4607 7.92756 32.2689 7.40341C32.0814 6.875 31.7916 6.45099 31.3996 6.13139C31.0075 5.81179 30.5132 5.65199 29.9166 5.65199C29.3158 5.65199 28.8172 5.81179 28.4209 6.13139C28.0288 6.45099 27.7369 6.875 27.5452 7.40341C27.3577 7.92756 27.2639 8.50284 27.2639 9.12926C27.2639 9.75994 27.3577 10.3374 27.5452 10.8615C27.7369 11.3857 28.0288 11.8054 28.4209 12.1207C28.8172 12.4361 29.3158 12.5938 29.9166 12.5938ZM38.5315 8.17045V14H36.6203V4.18182H38.4548V5.77983H38.5762C38.8021 5.25994 39.1558 4.84233 39.6373 4.52699C40.1231 4.21165 40.7346 4.05398 41.4718 4.05398C42.1409 4.05398 42.7268 4.1946 43.2297 4.47585C43.7325 4.75284 44.1224 5.16619 44.3994 5.71591C44.6764 6.26562 44.8149 6.94531 44.8149 7.75497V14H42.9037V7.98509C42.9037 7.27344 42.7183 6.71733 42.3476 6.31676C41.9768 5.91193 41.4676 5.70952 40.8199 5.70952C40.3767 5.70952 39.9825 5.8054 39.6373 5.99716C39.2964 6.18892 39.0258 6.47017 38.8255 6.84091C38.6295 7.20739 38.5315 7.65057 38.5315 8.17045ZM51.6096 14.1982C50.6423 14.1982 49.8092 13.9915 49.1103 13.5781C48.4157 13.1605 47.8788 12.5746 47.4995 11.8203C47.1245 11.0618 46.937 10.1733 46.937 9.15483C46.937 8.14915 47.1245 7.26278 47.4995 6.49574C47.8788 5.72869 48.4072 5.12997 49.0848 4.69957C49.7666 4.26918 50.5635 4.05398 51.4754 4.05398C52.0294 4.05398 52.5663 4.1456 53.0862 4.32884C53.6061 4.51207 54.0727 4.79972 54.486 5.19176C54.8994 5.58381 55.2254 6.09304 55.464 6.71946C55.7027 7.34162 55.822 8.09801 55.822 8.98864V9.66619H48.0173V8.23438H53.9491C53.9491 7.73153 53.8468 7.28622 53.6423 6.89844C53.4378 6.50639 53.1501 6.19744 52.7794 5.97159C52.4129 5.74574 51.9825 5.63281 51.4882 5.63281C50.9512 5.63281 50.4825 5.76491 50.0819 6.02912C49.6856 6.28906 49.3788 6.62997 49.1615 7.05185C48.9484 7.46946 48.8419 7.9233 48.8419 8.41335V9.53196C48.8419 10.1882 48.9569 10.7464 49.187 11.2067C49.4214 11.6669 49.7474 12.0185 50.165 12.2614C50.5826 12.5 51.0706 12.6193 51.6288 12.6193C51.991 12.6193 52.3213 12.5682 52.6196 12.4659C52.9179 12.3594 53.1757 12.2017 53.393 11.9929C53.6103 11.7841 53.7765 11.5263 53.8916 11.2195L55.7005 11.5455C55.5557 12.0781 55.2957 12.5447 54.9207 12.9453C54.55 13.3416 54.0833 13.6506 53.5208 13.8722C52.9626 14.0895 52.3255 14.1982 51.6096 14.1982ZM60.4291 12.2102L60.3332 12.907C60.2693 13.4183 60.1606 13.951 60.0072 14.505C59.858 15.0632 59.7025 15.581 59.5406 16.0582C59.3829 16.5355 59.2529 16.9148 59.1506 17.196H57.7955C57.8509 16.9318 57.9276 16.5739 58.0256 16.1222C58.1237 15.6747 58.2195 15.174 58.3133 14.62C58.407 14.0661 58.4773 13.5014 58.5242 12.9261L58.5881 12.2102H60.4291ZM2.22271 33V24.3436H3.50764V25.6962H3.62035C3.8007 25.234 4.09187 24.8752 4.49388 24.6198C4.8959 24.3605 5.37869 24.2309 5.94225 24.2309C6.51333 24.2309 6.98861 24.3605 7.36808 24.6198C7.7513 24.8752 8.05 25.234 8.26415 25.6962H8.35432C8.57599 25.2491 8.9085 24.894 9.35184 24.631C9.79518 24.3643 10.3268 24.2309 10.9467 24.2309C11.7207 24.2309 12.3538 24.4732 12.846 24.9579C13.3381 25.4388 13.5842 26.1883 13.5842 27.2065V33H12.2542V27.2065C12.2542 26.5678 12.0795 26.1113 11.7301 25.8371C11.3807 25.5628 10.9693 25.4257 10.4959 25.4257C9.88723 25.4257 9.41571 25.6098 9.08132 25.9779C8.74694 26.3424 8.57975 26.8045 8.57975 27.3643V33H7.22719V27.0713C7.22719 26.5791 7.06751 26.1827 6.74815 25.8821C6.4288 25.5778 6.0174 25.4257 5.51394 25.4257C5.16829 25.4257 4.84517 25.5177 4.54461 25.7018C4.24779 25.8859 4.00734 26.1414 3.82324 26.4683C3.6429 26.7914 3.55273 27.1652 3.55273 27.5898V33H2.22271ZM19.5101 36.4265C18.8677 36.4265 18.3154 36.3438 17.8533 36.1785C17.3911 36.017 17.006 35.8028 16.6979 35.5361C16.3936 35.2731 16.1513 34.9913 15.9709 34.6907L17.0304 33.9468C17.1507 34.1046 17.3028 34.2849 17.4869 34.4878C17.671 34.6945 17.9228 34.8729 18.2421 35.0232C18.5652 35.1772 18.9879 35.2543 19.5101 35.2543C20.209 35.2543 20.7857 35.0852 21.2403 34.7471C21.6949 34.4089 21.9222 33.8792 21.9222 33.1578V31.3995H21.8095C21.7118 31.5573 21.5728 31.7526 21.3925 31.9856C21.2159 32.2148 20.9604 32.4195 20.626 32.5999C20.2954 32.7765 19.8483 32.8647 19.2847 32.8647C18.5859 32.8647 17.9585 32.6994 17.4024 32.3688C16.8501 32.0382 16.4124 31.5573 16.0893 30.9261C15.7699 30.2949 15.6103 29.5284 15.6103 28.6267C15.6103 27.74 15.7662 26.9679 16.078 26.3105C16.3899 25.6492 16.8238 25.1382 17.3799 24.7776C17.9359 24.4131 18.5784 24.2309 19.3073 24.2309C19.8708 24.2309 20.3179 24.3248 20.6485 24.5127C20.9829 24.6968 21.2384 24.9072 21.415 25.1439C21.5953 25.3768 21.7344 25.5684 21.832 25.7187H21.9673V24.3436H23.2522V33.248C23.2522 33.9919 23.0832 34.5968 22.745 35.0627C22.4106 35.5323 21.9598 35.8761 21.3925 36.094C20.8289 36.3157 20.2014 36.4265 19.5101 36.4265ZM19.4651 31.67C19.9986 31.67 20.4494 31.5479 20.8176 31.3037C21.1858 31.0594 21.4657 30.7082 21.6573 30.2498C21.8489 29.7914 21.9448 29.2429 21.9448 28.6042C21.9448 27.9805 21.8508 27.4301 21.663 26.9529C21.4751 26.4758 21.1971 26.1019 20.8289 25.8314C20.4607 25.5609 20.0061 25.4257 19.4651 25.4257C18.9015 25.4257 18.4318 25.5684 18.0561 25.854C17.6842 26.1395 17.4043 26.5227 17.2164 27.0036C17.0323 27.4846 16.9403 28.0181 16.9403 28.6042C16.9403 29.2053 17.0342 29.7369 17.2221 30.1991C17.4137 30.6574 17.6955 31.0181 18.0674 31.2811C18.4431 31.5404 18.909 31.67 19.4651 31.67ZM29.7671 20.9171L26.0475 34.7358H24.8302L28.5498 20.9171H29.7671ZM31.3436 33V24.3436H32.6286V25.6962H32.7413C32.9216 25.234 33.2128 24.8752 33.6148 24.6198C34.0168 24.3605 34.4996 24.2309 35.0632 24.2309C35.6343 24.2309 36.1095 24.3605 36.489 24.6198C36.8722 24.8752 37.1709 25.234 37.3851 25.6962H37.4753C37.6969 25.2491 38.0294 24.894 38.4728 24.631C38.9161 24.3643 39.4477 24.2309 40.0677 24.2309C40.8416 24.2309 41.4747 24.4732 41.9669 24.9579C42.4591 25.4388 42.7052 26.1883 42.7052 27.2065V33H41.3751V27.2065C41.3751 26.5678 41.2004 26.1113 40.851 25.8371C40.5016 25.5628 40.0902 25.4257 39.6168 25.4257C39.0082 25.4257 38.5366 25.6098 38.2023 25.9779C37.8679 26.3424 37.7007 26.8045 37.7007 27.3643V33H36.3481V27.0713C36.3481 26.5791 36.1884 26.1827 35.8691 25.8821C35.5497 25.5778 35.1383 25.4257 34.6349 25.4257C34.2892 25.4257 33.9661 25.5177 33.6655 25.7018C33.3687 25.8859 33.1283 26.1414 32.9442 26.4683C32.7638 26.7914 32.6737 27.1652 32.6737 27.5898V33H31.3436ZM45.1144 33V31.9856L48.9241 27.8152C49.3712 27.3268 49.7394 26.9022 50.0287 26.5415C50.318 26.1771 50.5322 25.8352 50.6712 25.5158C50.814 25.1927 50.8853 24.8546 50.8853 24.5014C50.8853 24.0956 50.7877 23.7443 50.5923 23.4475C50.4007 23.1507 50.1377 22.9215 49.8033 22.76C49.4689 22.5984 49.0932 22.5176 48.6762 22.5176C48.2328 22.5176 47.8458 22.6097 47.5152 22.7938C47.1883 22.9741 46.9347 23.2277 46.7544 23.5546C46.5778 23.8815 46.4895 24.2647 46.4895 24.7043H45.1595C45.1595 24.028 45.3154 23.4344 45.6273 22.9234C45.9391 22.4124 46.3637 22.0142 46.9009 21.7286C47.442 21.4431 48.0487 21.3003 48.7212 21.3003C49.3975 21.3003 49.9968 21.4431 50.519 21.7286C51.0413 22.0142 51.4508 22.3993 51.7476 22.884C52.0444 23.3686 52.1928 23.9078 52.1928 24.5014C52.1928 24.926 52.1158 25.3411 51.9618 25.7469C51.8115 26.1489 51.5485 26.5979 51.1728 27.0938C50.8008 27.586 50.2842 28.1871 49.623 28.8972L47.0305 31.67V31.7602H52.3957V33H45.1144Z" fill="black"/>
  <path d="M27.2334 45.2863H1V165.896H27.2334V45.2863Z" fill="url(#paint0_linear_0_1)" stroke="black" stroke-width="0.31992" stroke-miterlimit="2" stroke-linecap="square"/>
  <path d="M39.8519 59.3558C39.1854 59.3558 38.5852 59.2233 38.0512 58.9582C37.5173 58.6931 37.0894 58.3296 36.7675 57.8676C36.4456 57.4056 36.2695 56.8792 36.2392 56.2884H37.6025C37.6555 56.8148 37.8941 57.2503 38.3182 57.5949C38.7462 57.9357 39.2574 58.1061 39.8519 58.1061C40.3291 58.1061 40.7532 57.9944 41.1243 57.771C41.4992 57.5476 41.7927 57.2408 42.0048 56.8508C42.2207 56.4569 42.3286 56.012 42.3286 55.5159C42.3286 55.0084 42.2169 54.5559 41.9934 54.1583C41.7738 53.7569 41.4708 53.4406 41.0846 53.2096C40.6983 52.9786 40.2571 52.8612 39.761 52.8575C39.4051 52.8537 39.0396 52.9086 38.6647 53.0222C38.2898 53.132 37.9812 53.274 37.7388 53.4482L36.421 53.2892L37.1253 47.5633H43.1693V48.813H38.3069L37.8979 52.244H37.966C38.2046 52.0546 38.5038 51.8975 38.8635 51.7725C39.2233 51.6475 39.5982 51.585 39.9883 51.585C40.7002 51.585 41.3345 51.7555 41.8912 52.0963C42.4517 52.4333 42.8909 52.8953 43.209 53.4823C43.5309 54.0693 43.6919 54.7396 43.6919 55.4932C43.6919 56.2354 43.5253 56.8981 43.192 57.4813C42.8625 58.0607 42.4081 58.5189 41.8287 58.856C41.2493 59.1892 40.5904 59.3558 39.8519 59.3558ZM50.8108 59.1968L56.0141 48.9039V48.813H50.0156V47.5633H57.4683V48.8812L52.2877 59.1968H50.8108ZM63.6755 47.5633V59.1968H62.2668V49.0402H62.1986L59.3584 50.9261V49.4947L62.2668 47.5633H63.6755ZM70.7249 47.4043C71.202 47.4081 71.6792 47.499 72.1563 47.6769C72.6335 47.8549 73.069 48.1503 73.4628 48.5631C73.8567 48.9721 74.1729 49.5306 74.4115 50.2388C74.65 50.947 74.7693 51.835 74.7693 52.9029C74.7693 53.9367 74.6709 54.8551 74.4739 55.6579C74.2808 56.4569 74.0006 57.131 73.6332 57.6801C73.2697 58.2292 72.8266 58.6458 72.304 58.9298C71.7852 59.2138 71.1982 59.3558 70.5431 59.3558C69.8918 59.3558 69.3105 59.2271 68.7992 58.9696C68.2918 58.7083 67.8752 58.3466 67.5495 57.8846C67.2276 57.4188 67.0213 56.8792 66.9304 56.2657H68.3164C68.4414 56.7997 68.6894 57.2408 69.0605 57.5892C69.4354 57.9338 69.9296 58.1061 70.5431 58.1061C71.4406 58.1061 72.1488 57.7142 72.6676 56.9303C73.1902 56.1464 73.4515 55.0387 73.4515 53.6073H73.3606C73.1485 53.9254 72.8967 54.1999 72.6051 54.4309C72.3135 54.6619 71.9897 54.8399 71.6337 54.9649C71.2778 55.0899 70.8991 55.1523 70.4977 55.1523C69.8312 55.1523 69.2196 54.9876 68.6629 54.6581C68.11 54.3249 67.6669 53.8686 67.3337 53.2892C67.0042 52.706 66.8395 52.0395 66.8395 51.2897C66.8395 50.5777 66.9985 49.9264 67.3166 49.3356C67.6385 48.7411 68.0892 48.2677 68.6686 47.9155C69.2518 47.5633 69.9372 47.3929 70.7249 47.4043ZM70.7249 48.654C70.2477 48.654 69.8179 48.7733 69.4354 49.0118C69.0567 49.2466 68.7557 49.5647 68.5322 49.9661C68.3126 50.3638 68.2028 50.8049 68.2028 51.2897C68.2028 51.7744 68.3088 52.2156 68.5209 52.6132C68.7367 53.007 69.0302 53.3214 69.4013 53.5561C69.7763 53.7871 70.2023 53.9027 70.6794 53.9027C71.0392 53.9027 71.3743 53.8326 71.6849 53.6925C71.9954 53.5486 72.2662 53.3535 72.4972 53.1074C72.7319 52.8575 72.9156 52.5753 73.0482 52.261C73.1807 51.9429 73.247 51.6116 73.247 51.2669C73.247 50.8125 73.1372 50.3865 72.9175 49.9889C72.7017 49.5912 72.4025 49.2693 72.02 49.0232C71.6413 48.777 71.2096 48.654 70.7249 48.654Z" fill="black"/>
  <path d="M39.8519 161.075C39.1854 161.075 38.5852 160.943 38.0512 160.678C37.5173 160.413 37.0894 160.049 36.7675 159.587C36.4456 159.125 36.2695 158.599 36.2392 158.008H37.6025C37.6555 158.534 37.8941 158.97 38.3182 159.314C38.7462 159.655 39.2574 159.826 39.8519 159.826C40.3291 159.826 40.7532 159.714 41.1243 159.49C41.4992 159.267 41.7927 158.96 42.0048 158.57C42.2207 158.176 42.3286 157.731 42.3286 157.235C42.3286 156.728 42.2169 156.275 41.9934 155.878C41.7738 155.476 41.4708 155.16 41.0846 154.929C40.6983 154.698 40.2571 154.581 39.761 154.577C39.4051 154.573 39.0396 154.628 38.6647 154.742C38.2898 154.851 37.9812 154.994 37.7388 155.168L36.421 155.009L37.1253 149.283H43.1693V150.532H38.3069L37.8979 153.963H37.966C38.2046 153.774 38.5038 153.617 38.8635 153.492C39.2233 153.367 39.5982 153.305 39.9883 153.305C40.7002 153.305 41.3345 153.475 41.8912 153.816C42.4517 154.153 42.8909 154.615 43.209 155.202C43.5309 155.789 43.6919 156.459 43.6919 157.213C43.6919 157.955 43.5253 158.618 43.192 159.201C42.8625 159.78 42.4081 160.238 41.8287 160.575C41.2493 160.909 40.5904 161.075 39.8519 161.075ZM54.31 161.075C53.8328 161.068 53.3557 160.977 52.8785 160.803C52.4013 160.628 51.9658 160.335 51.572 159.922C51.1782 159.506 50.862 158.943 50.6234 158.235C50.3848 157.523 50.2655 156.629 50.2655 155.554C50.2655 154.524 50.3621 153.611 50.5552 152.816C50.7484 152.017 51.0286 151.345 51.3959 150.799C51.7632 150.25 52.2063 149.834 52.7251 149.55C53.2477 149.266 53.8366 149.124 54.4917 149.124C55.1431 149.124 55.7225 149.254 56.2299 149.516C56.7412 149.773 57.1577 150.133 57.4796 150.595C57.8015 151.057 58.0098 151.589 58.1045 152.191H56.7184C56.5897 151.669 56.3398 151.235 55.9686 150.89C55.5975 150.546 55.1052 150.373 54.4917 150.373C53.5904 150.373 52.8804 150.765 52.3616 151.549C51.8466 152.333 51.5872 153.433 51.5834 154.85H51.6743C51.8863 154.528 52.1382 154.253 52.4297 154.026C52.7251 153.795 53.0508 153.617 53.4068 153.492C53.7627 153.367 54.1395 153.305 54.5372 153.305C55.2037 153.305 55.8134 153.471 56.3663 153.804C56.9192 154.134 57.3622 154.59 57.6955 155.173C58.0287 155.753 58.1953 156.417 58.1953 157.167C58.1953 157.887 58.0344 158.546 57.7125 159.144C57.3906 159.739 56.9381 160.212 56.3549 160.564C55.7755 160.912 55.0939 161.083 54.31 161.075ZM54.31 159.826C54.7871 159.826 55.215 159.706 55.5937 159.468C55.9762 159.229 56.2773 158.909 56.4969 158.508C56.7203 158.106 56.8321 157.66 56.8321 157.167C56.8321 156.686 56.7241 156.249 56.5083 155.855C56.2962 155.457 56.0027 155.141 55.6278 154.906C55.2567 154.672 54.8326 154.554 54.3554 154.554C53.9956 154.554 53.6605 154.626 53.35 154.77C53.0394 154.91 52.7668 155.103 52.532 155.349C52.301 155.596 52.1192 155.878 51.9867 156.196C51.8541 156.51 51.7879 156.842 51.7879 157.19C51.7879 157.652 51.8958 158.084 52.1116 158.485C52.3313 158.886 52.6305 159.21 53.0091 159.456C53.3916 159.703 53.8252 159.826 54.31 159.826ZM64.2918 161.075C63.8147 161.068 63.3375 160.977 62.8604 160.803C62.3832 160.628 61.9477 160.335 61.5539 159.922C61.16 159.506 60.8438 158.943 60.6053 158.235C60.3667 157.523 60.2474 156.629 60.2474 155.554C60.2474 154.524 60.344 153.611 60.5371 152.816C60.7302 152.017 61.0105 151.345 61.3778 150.799C61.7451 150.25 62.1882 149.834 62.707 149.55C63.2296 149.266 63.8185 149.124 64.4736 149.124C65.125 149.124 65.7044 149.254 66.2118 149.516C66.723 149.773 67.1396 150.133 67.4615 150.595C67.7834 151.057 67.9917 151.589 68.0863 152.191H66.7003C66.5716 151.669 66.3216 151.235 65.9505 150.89C65.5794 150.546 65.0871 150.373 64.4736 150.373C63.5723 150.373 62.8623 150.765 62.3435 151.549C61.8284 152.333 61.569 153.433 61.5652 154.85H61.6561C61.8682 154.528 62.12 154.253 62.4116 154.026C62.707 153.795 63.0327 153.617 63.3886 153.492C63.7446 153.367 64.1214 153.305 64.519 153.305C65.1855 153.305 65.7952 153.471 66.3481 153.804C66.901 154.134 67.3441 154.59 67.6773 155.173C68.0106 155.753 68.1772 156.417 68.1772 157.167C68.1772 157.887 68.0163 158.546 67.6944 159.144C67.3725 159.739 66.92 160.212 66.3368 160.564C65.7574 160.912 65.0757 161.083 64.2918 161.075ZM64.2918 159.826C64.769 159.826 65.1969 159.706 65.5756 159.468C65.9581 159.229 66.2591 158.909 66.4788 158.508C66.7022 158.106 66.8139 157.66 66.8139 157.167C66.8139 156.686 66.706 156.249 66.4901 155.855C66.2781 155.457 65.9846 155.141 65.6097 154.906C65.2386 154.672 64.8144 154.554 64.3373 154.554C63.9775 154.554 63.6424 154.626 63.3318 154.77C63.0213 154.91 62.7487 155.103 62.5139 155.349C62.2829 155.596 62.1011 155.878 61.9685 156.196C61.836 156.51 61.7697 156.842 61.7697 157.19C61.7697 157.652 61.8777 158.084 62.0935 158.485C62.3132 158.886 62.6123 159.21 62.991 159.456C63.3735 159.703 63.8071 159.826 64.2918 159.826ZM74.3419 161.075C73.5921 161.075 72.9237 160.947 72.3367 160.689C71.7535 160.432 71.2896 160.074 70.945 159.615C70.6042 159.153 70.4186 158.618 70.3883 158.008H71.8198C71.8501 158.383 71.9788 158.707 72.206 158.979C72.4333 159.248 72.7305 159.456 73.0979 159.604C73.4652 159.752 73.8723 159.826 74.3191 159.826C74.819 159.826 75.2621 159.739 75.6484 159.564C76.0346 159.39 76.3376 159.148 76.5572 158.837C76.7769 158.527 76.8867 158.167 76.8867 157.758C76.8867 157.33 76.7806 156.953 76.5686 156.628C76.3565 156.298 76.046 156.041 75.637 155.855C75.228 155.669 74.7281 155.577 74.1374 155.577H73.2058V154.327H74.1374C74.5994 154.327 75.0046 154.244 75.353 154.077C75.7052 153.91 75.9797 153.676 76.1766 153.373C76.3773 153.07 76.4777 152.714 76.4777 152.305C76.4777 151.911 76.3906 151.568 76.2164 151.277C76.0422 150.985 75.796 150.758 75.4779 150.595C75.1636 150.432 74.7925 150.351 74.3646 150.351C73.9632 150.351 73.5845 150.425 73.2285 150.572C72.8763 150.716 72.5885 150.926 72.3651 151.203C72.1417 151.475 72.0205 151.805 72.0015 152.191H70.6383C70.661 151.581 70.8446 151.048 71.1892 150.589C71.5339 150.127 71.9845 149.768 72.5412 149.51C73.1016 149.253 73.717 149.124 74.3873 149.124C75.1068 149.124 75.7241 149.27 76.2391 149.561C76.7541 149.849 77.1499 150.23 77.4263 150.703C77.7028 151.176 77.841 151.688 77.841 152.237C77.841 152.892 77.6687 153.45 77.3241 153.912C76.9833 154.374 76.5194 154.694 75.9324 154.872V154.963C76.667 155.084 77.2408 155.397 77.6535 155.9C78.0663 156.4 78.2727 157.02 78.2727 157.758C78.2727 158.39 78.1004 158.958 77.7558 159.462C77.415 159.962 76.9492 160.356 76.3584 160.644C75.7676 160.931 75.0955 161.075 74.3419 161.075Z" fill="black"/>
  <defs>
    <linearGradient id="paint0_linear_0_1" x1="-230.622" y1="166.231" x2="-230.622" y2="45.3163" gradientUnits="userSpaceOnUse">
      <stop stop-color="#EDF8FB"/>
      <stop offset="0.25" stop-color="#B2E2E2"/>
      <stop offset="0.5" stop-color="#66C2A4"/>
      <stop offset="0.75" stop-color="#2CA25F"/>
      <stop offset="1" stop-color="#006D2C"/>
    </linearGradient>
  </defs>
</svg>


