<svg width="123" height="169" viewBox="0 0 123 169" fill="none" xmlns="http://www.w3.org/2000/svg">
  <path d="M36.5678 62L41.771 51.7071V51.6162H35.7725V50.3666H43.2252V51.6844L38.0447 62H36.5678Z" fill="black"/>
  <path d="M39.9987 163.879C39.1429 163.879 38.4139 163.646 37.8118 163.18C37.2097 162.71 36.7496 162.031 36.4315 161.141C36.1134 160.247 35.9543 159.168 35.9543 157.903C35.9543 156.645 36.1134 155.572 36.4315 154.682C36.7533 153.788 37.2154 153.107 37.8175 152.637C38.4234 152.164 39.1505 151.927 39.9987 151.927C40.847 151.927 41.5722 152.164 42.1743 152.637C42.7802 153.107 43.2423 153.788 43.5604 154.682C43.8822 155.572 44.0432 156.645 44.0432 157.903C44.0432 159.168 43.8841 160.247 43.566 161.141C43.2479 162.031 42.7878 162.71 42.1857 163.18C41.5836 163.646 40.8546 163.879 39.9987 163.879ZM39.9987 162.629C40.847 162.629 41.5059 162.22 41.9755 161.402C42.4451 160.584 42.6799 159.418 42.6799 157.903C42.6799 156.895 42.572 156.038 42.3561 155.33C42.144 154.621 41.8373 154.082 41.4359 153.711C41.0383 153.34 40.5592 153.154 39.9987 153.154C39.158 153.154 38.501 153.569 38.0277 154.398C37.5543 155.224 37.3176 156.392 37.3176 157.903C37.3176 158.91 37.4236 159.766 37.6357 160.47C37.8478 161.175 38.1526 161.711 38.5502 162.078C38.9517 162.445 39.4345 162.629 39.9987 162.629Z" fill="black"/>
  <path d="M44.2744 33.5528V32.5384L48.0841 28.368C48.5312 27.8796 48.8994 27.455 49.1887 27.0943C49.478 26.7299 49.6921 26.388 49.8311 26.0686C49.9739 25.7455 50.0453 25.4074 50.0453 25.0542C50.0453 24.6484 49.9476 24.2972 49.7522 24.0003C49.5606 23.7035 49.2976 23.4743 48.9632 23.3128C48.6289 23.1512 48.2531 23.0705 47.8361 23.0705C47.3928 23.0705 47.0058 23.1625 46.6752 23.3466C46.3483 23.5269 46.0947 23.7806 45.9143 24.1074C45.7377 24.4343 45.6495 24.8175 45.6495 25.2571H44.3194C44.3194 24.5808 44.4754 23.9872 44.7872 23.4762C45.099 22.9653 45.5236 22.567 46.0609 22.2815C46.6019 21.9959 47.2087 21.8531 47.8812 21.8531C48.5575 21.8531 49.1567 21.9959 49.679 22.2815C50.2012 22.567 50.6107 22.9521 50.9075 23.4368C51.2044 23.9214 51.3528 24.4606 51.3528 25.0542C51.3528 25.4788 51.2757 25.8939 51.1217 26.2997C50.9714 26.7017 50.7084 27.1507 50.3327 27.6466C49.9607 28.1388 49.4441 28.7399 48.7829 29.45L46.1905 32.2228V32.313H51.5556V33.5528H44.2744Z" fill="black"/>
  <path d="M30.5036 33.5528V24.8964H31.7885V26.249H31.9012C32.0816 25.7868 32.3728 25.428 32.7748 25.1726C33.1768 24.9133 33.6596 24.7837 34.2231 24.7837C34.7942 24.7837 35.2695 24.9133 35.649 25.1726C36.0322 25.428 36.3309 25.7868 36.545 26.249H36.6352C36.8569 25.8019 37.1894 25.4468 37.6327 25.1838C38.0761 24.9171 38.6077 24.7837 39.2276 24.7837C40.0016 24.7837 40.6347 25.026 41.1268 25.5107C41.619 25.9916 41.8651 26.7411 41.8651 27.7593V33.5528H40.5351V27.7593C40.5351 27.1206 40.3604 26.6641 40.011 26.3899C39.6616 26.1156 39.2502 25.9785 38.7768 25.9785C38.1681 25.9785 37.6966 26.1626 37.3622 26.5308C37.0278 26.8952 36.8606 27.3573 36.8606 27.9171V33.5528H35.5081V27.6241C35.5081 27.1319 35.3484 26.7355 35.029 26.4349C34.7097 26.1306 34.2983 25.9785 33.7948 25.9785C33.4492 25.9785 33.1261 26.0705 32.8255 26.2546C32.5287 26.4387 32.2882 26.6942 32.1041 27.0211C31.9238 27.3442 31.8336 27.718 31.8336 28.1426V33.5528H30.5036Z" fill="black"/>
  <path d="M28.927 21.4699L25.2075 35.2886H23.9902L27.7097 21.4699H28.927Z" fill="black"/>
  <path d="M18.6701 36.9793C18.0276 36.9793 17.4753 36.8966 17.0132 36.7313C16.5511 36.5698 16.166 36.3556 15.8579 36.0889C15.5536 35.8259 15.3112 35.5441 15.1309 35.2435L16.1904 34.4996C16.3106 34.6574 16.4628 34.8377 16.6469 35.0406C16.831 35.2473 17.0827 35.4257 17.4021 35.576C17.7252 35.7301 18.1479 35.8071 18.6701 35.8071C19.3689 35.8071 19.9456 35.638 20.4002 35.2999C20.8549 34.9617 21.0822 34.432 21.0822 33.7106V31.9523H20.9694C20.8718 32.1101 20.7327 32.3054 20.5524 32.5384C20.3758 32.7676 20.1203 32.9723 19.786 33.1527C19.4553 33.3293 19.0082 33.4175 18.4447 33.4175C17.7458 33.4175 17.1184 33.2522 16.5623 32.9216C16.0101 32.591 15.5723 32.1101 15.2492 31.4789C14.9299 30.8477 14.7702 30.0812 14.7702 29.1795C14.7702 28.2928 14.9261 27.5208 15.238 26.8633C15.5498 26.202 15.9838 25.691 16.5398 25.3304C17.0959 24.9659 17.7383 24.7837 18.4672 24.7837C19.0308 24.7837 19.4779 24.8776 19.8085 25.0655C20.1429 25.2496 20.3984 25.46 20.5749 25.6967C20.7553 25.9296 20.8943 26.1212 20.992 26.2715H21.1272V24.8964H22.4122V33.8008C22.4122 34.5447 22.2431 35.1496 21.905 35.6155C21.5706 36.0851 21.1197 36.4289 20.5524 36.6468C19.9888 36.8685 19.3614 36.9793 18.6701 36.9793ZM18.625 32.2228C19.1585 32.2228 19.6094 32.1007 19.9776 31.8565C20.3458 31.6122 20.6257 31.261 20.8173 30.8026C21.0089 30.3442 21.1047 29.7957 21.1047 29.157C21.1047 28.5333 21.0108 27.9829 20.8229 27.5057C20.6351 27.0286 20.357 26.6547 19.9888 26.3842C19.6206 26.1137 19.166 25.9785 18.625 25.9785C18.0614 25.9785 17.5918 26.1212 17.2161 26.4068C16.8441 26.6923 16.5642 27.0755 16.3764 27.5564C16.1923 28.0374 16.1002 28.5709 16.1002 29.157C16.1002 29.7581 16.1941 30.2897 16.382 30.7519C16.5736 31.2102 16.8554 31.5709 17.2274 31.8339C17.6031 32.0932 18.069 32.2228 18.625 32.2228Z" fill="black"/>
  <path d="M1.38269 33.5528V24.8964H2.66762V26.249H2.78034C2.96068 25.7868 3.25186 25.428 3.65387 25.1726C4.05588 24.9133 4.53867 24.7837 5.10224 24.7837C5.67332 24.7837 6.14859 24.9133 6.52806 25.1726C6.91129 25.428 7.20998 25.7868 7.42413 26.249H7.5143C7.73597 25.8019 8.06848 25.4468 8.51182 25.1838C8.95516 24.9171 9.48679 24.7837 10.1067 24.7837C10.8807 24.7837 11.5138 25.026 12.0059 25.5107C12.4981 25.9916 12.7442 26.7411 12.7442 27.7593V33.5528H11.4142V27.7593C11.4142 27.1206 11.2395 26.6641 10.8901 26.3899C10.5407 26.1156 10.1293 25.9785 9.65586 25.9785C9.04721 25.9785 8.57569 26.1626 8.24131 26.5308C7.90692 26.8952 7.73973 27.3573 7.73973 27.9171V33.5528H6.38717V27.6241C6.38717 27.1319 6.22749 26.7355 5.90814 26.4349C5.58878 26.1306 5.17738 25.9785 4.67392 25.9785C4.32827 25.9785 4.00516 26.0705 3.70459 26.2546C3.40778 26.4387 3.16732 26.6942 2.98322 27.0211C2.80288 27.3442 2.71271 27.718 2.71271 28.1426V33.5528H1.38269Z" fill="black"/>
  <path d="M122.167 12.763L122.071 13.4598C122.007 13.9711 121.899 14.5038 121.745 15.0578C121.596 15.616 121.441 16.1338 121.279 16.611C121.121 17.0883 120.991 17.4676 120.889 17.7488H119.534C119.589 17.4846 119.666 17.1267 119.764 16.675C119.862 16.2275 119.958 15.7268 120.051 15.1728C120.145 14.6189 120.215 14.0542 120.262 13.4789L120.326 12.763H122.167Z" fill="black"/>
  <path d="M113.348 14.751C112.38 14.751 111.547 14.5443 110.848 14.1309C110.154 13.7133 109.617 13.1274 109.238 12.3731C108.863 11.6146 108.675 10.7261 108.675 9.70763C108.675 8.70195 108.863 7.81559 109.238 7.04854C109.617 6.2815 110.145 5.68278 110.823 5.25238C111.505 4.82198 112.302 4.60678 113.213 4.60678C113.767 4.60678 114.304 4.6984 114.824 4.88164C115.344 5.06488 115.811 5.35252 116.224 5.74457C116.637 6.13661 116.963 6.64584 117.202 7.27226C117.441 7.89442 117.56 8.65082 117.56 9.54144V10.219H109.755V8.78718H115.687C115.687 8.28434 115.585 7.83903 115.38 7.45124C115.176 7.0592 114.888 6.75025 114.517 6.52439C114.151 6.29854 113.721 6.18562 113.226 6.18562C112.689 6.18562 112.221 6.31772 111.82 6.58192C111.424 6.84187 111.117 7.18278 110.9 7.60465C110.686 8.02226 110.58 8.4761 110.58 8.96616V10.0848C110.58 10.741 110.695 11.2993 110.925 11.7595C111.159 12.2197 111.485 12.5713 111.903 12.8142C112.321 13.0528 112.809 13.1721 113.367 13.1721C113.729 13.1721 114.059 13.121 114.358 13.0187C114.656 12.9122 114.914 12.7545 115.131 12.5457C115.348 12.3369 115.515 12.0791 115.63 11.7723L117.439 12.0983C117.294 12.6309 117.034 13.0975 116.659 13.4981C116.288 13.8944 115.821 14.2034 115.259 14.425C114.701 14.6423 114.064 14.751 113.348 14.751Z" fill="black"/>
  <path d="M101.524 14.7446C100.731 14.7446 100.024 14.5422 99.4019 14.1373C98.784 13.7282 98.2982 13.1466 97.9445 12.3923C97.5951 11.6338 97.4203 10.724 97.4203 9.66291C97.4203 8.60183 97.5972 7.69416 97.9509 6.9399C98.3088 6.18564 98.7989 5.60822 99.4211 5.20765C100.043 4.80709 100.748 4.6068 101.537 4.6068C102.146 4.6068 102.636 4.70907 103.007 4.91362C103.382 5.1139 103.672 5.34828 103.876 5.61674C104.085 5.88521 104.247 6.12172 104.362 6.32626H104.477V1.46191H106.388V14.5528H104.522V13.0251H104.362C104.247 13.2339 104.081 13.4726 103.864 13.741C103.65 14.0095 103.356 14.2439 102.981 14.4442C102.606 14.6444 102.121 14.7446 101.524 14.7446ZM101.946 13.1146C102.496 13.1146 102.96 12.9697 103.339 12.68C103.723 12.3859 104.013 11.979 104.209 11.4591C104.409 10.9392 104.509 10.3341 104.509 9.64373C104.509 8.96191 104.411 8.36532 104.215 7.85396C104.019 7.3426 103.731 6.94416 103.352 6.65865C102.973 6.37314 102.504 6.23038 101.946 6.23038C101.371 6.23038 100.891 6.37953 100.508 6.67782C100.124 6.97612 99.8344 7.38308 99.6384 7.8987C99.4466 8.41433 99.3507 8.996 99.3507 9.64373C99.3507 10.3 99.4488 10.8902 99.6448 11.4143C99.8408 11.9385 100.131 12.354 100.514 12.6608C100.902 12.9633 101.379 13.1146 101.946 13.1146Z" fill="black"/>
  <path d="M93.3662 14.5528V4.73462H95.2774V14.5528H93.3662ZM94.3314 3.2197C93.999 3.2197 93.7135 3.10891 93.4749 2.88732C93.2405 2.66147 93.1233 2.393 93.1233 2.08192C93.1233 1.76658 93.2405 1.49811 93.4749 1.27652C93.7135 1.05067 93.999 0.937744 94.3314 0.937744C94.6638 0.937744 94.9472 1.05067 95.1815 1.27652C95.4202 1.49811 95.5395 1.76658 95.5395 2.08192C95.5395 2.393 95.4202 2.66147 95.1815 2.88732C94.9472 3.10891 94.6638 3.2197 94.3314 3.2197Z" fill="black"/>
  <path d="M84.9606 4.73462L87.1275 8.55706L89.3136 4.73462H91.4038L88.342 9.64371L91.4294 14.5528H89.3392L87.1275 10.8838L84.9223 14.5528H82.8257L85.8811 9.64371L82.864 4.73462H84.9606Z" fill="black"/>
  <path d="M77.1288 14.751C76.2083 14.751 75.405 14.54 74.719 14.1181C74.0329 13.6963 73.5002 13.1061 73.121 12.3475C72.7417 11.589 72.5521 10.7027 72.5521 9.68846C72.5521 8.66999 72.7417 7.77937 73.121 7.01658C73.5002 6.2538 74.0329 5.66147 74.719 5.23959C75.405 4.81772 76.2083 4.60678 77.1288 4.60678C78.0492 4.60678 78.8525 4.81772 79.5386 5.23959C80.2246 5.66147 80.7573 6.2538 81.1366 7.01658C81.5158 7.77937 81.7055 8.66999 81.7055 9.68846C81.7055 10.7027 81.5158 11.589 81.1366 12.3475C80.7573 13.1061 80.2246 13.6963 79.5386 14.1181C78.8525 14.54 78.0492 14.751 77.1288 14.751ZM77.1352 13.1466C77.7318 13.1466 78.2261 12.9889 78.6181 12.6735C79.0102 12.3582 79.2999 11.9385 79.4874 11.4143C79.6792 10.8902 79.7751 10.3127 79.7751 9.68207C79.7751 9.05564 79.6792 8.48036 79.4874 7.95621C79.2999 7.4278 79.0102 7.0038 78.6181 6.6842C78.2261 6.36459 77.7318 6.20479 77.1352 6.20479C76.5343 6.20479 76.0357 6.36459 75.6394 6.6842C75.2474 7.0038 74.9555 7.4278 74.7637 7.95621C74.5762 8.48036 74.4825 9.05564 74.4825 9.68207C74.4825 10.3127 74.5762 10.8902 74.7637 11.4143C74.9555 11.9385 75.2474 12.3582 75.6394 12.6735C76.0357 12.9889 76.5343 13.1466 77.1352 13.1466Z" fill="black"/>
  <path d="M68.5107 14.5528V4.73462H70.4219V14.5528H68.5107ZM69.4759 3.2197C69.1435 3.2197 68.858 3.10891 68.6194 2.88732C68.385 2.66147 68.2678 2.393 68.2678 2.08192C68.2678 1.76658 68.385 1.49811 68.6194 1.27652C68.858 1.05067 69.1435 0.937744 69.4759 0.937744C69.8083 0.937744 70.0917 1.05067 70.3261 1.27652C70.5647 1.49811 70.684 1.76658 70.684 2.08192C70.684 2.393 70.5647 2.66147 70.3261 2.88732C70.0917 3.10891 69.8083 3.2197 69.4759 3.2197Z" fill="black"/>
  <path d="M60.9186 14.7446C60.126 14.7446 59.4186 14.5422 58.7964 14.1373C58.1785 13.7282 57.6927 13.1466 57.339 12.3923C56.9896 11.6338 56.8149 10.724 56.8149 9.66291C56.8149 8.60183 56.9917 7.69416 57.3454 6.9399C57.7034 6.18564 58.1934 5.60822 58.8156 5.20765C59.4377 4.80709 60.143 4.6068 60.9314 4.6068C61.5407 4.6068 62.0308 4.70907 62.4015 4.91362C62.7765 5.1139 63.0663 5.34828 63.2708 5.61674C63.4797 5.88521 63.6416 6.12172 63.7566 6.32626H63.8717V1.46191H65.7829V14.5528H63.9164V13.0251H63.7566C63.6416 13.2339 63.4754 13.4726 63.2581 13.741C63.045 14.0095 62.751 14.2439 62.376 14.4442C62.001 14.6444 61.5152 14.7446 60.9186 14.7446ZM61.3405 13.1146C61.8902 13.1146 62.3547 12.9697 62.7339 12.68C63.1174 12.3859 63.4072 11.979 63.6032 11.4591C63.8035 10.9392 63.9037 10.3341 63.9037 9.64373C63.9037 8.96191 63.8056 8.36532 63.6096 7.85396C63.4136 7.3426 63.126 6.94416 62.7467 6.65865C62.3674 6.37314 61.8987 6.23038 61.3405 6.23038C60.7652 6.23038 60.2858 6.37953 59.9022 6.67782C59.5187 6.97612 59.2289 7.38308 59.0329 7.8987C58.8412 8.41433 58.7453 8.996 58.7453 9.64373C58.7453 10.3 58.8433 10.8902 59.0393 11.4143C59.2353 11.9385 59.5251 12.354 59.9086 12.6608C60.2964 12.9633 60.7737 13.1146 61.3405 13.1146Z" fill="black"/>
  <path d="M45.5712 14.5528V4.73463H47.4185V6.29429H47.5208C47.6998 5.76588 48.0151 5.3504 48.4668 5.04784C48.9228 4.74102 49.4384 4.58762 50.0137 4.58762C50.133 4.58762 50.2736 4.59188 50.4356 4.6004C50.6018 4.60892 50.7317 4.61958 50.8255 4.63236V6.46049C50.7488 6.43918 50.6124 6.41574 50.4164 6.39017C50.2204 6.36034 50.0244 6.34543 49.8283 6.34543C49.3766 6.34543 48.9739 6.44131 48.6202 6.63307C48.2708 6.82057 47.9938 7.08264 47.7893 7.41929C47.5847 7.75168 47.4824 8.13094 47.4824 8.55708V14.5528H45.5712Z" fill="black"/>
  <path d="M41.0856 10.4811V4.73462H43.0032V14.5528H41.124V12.8525H41.0217C40.7958 13.3767 40.4336 13.8135 39.935 14.1629C39.4407 14.5081 38.825 14.6806 38.0877 14.6806C37.4571 14.6806 36.8988 14.5421 36.413 14.2652C35.9315 13.9839 35.5522 13.5684 35.2752 13.0187C35.0025 12.469 34.8661 11.7893 34.8661 10.9796V4.73462H36.7774V10.7495C36.7774 11.4186 36.9627 11.9512 37.3335 12.3475C37.7042 12.7439 38.1858 12.942 38.7781 12.942C39.136 12.942 39.4919 12.8525 39.8456 12.6735C40.2035 12.4946 40.4997 12.224 40.734 11.8617C40.9727 11.4995 41.0899 11.0393 41.0856 10.4811Z" fill="black"/>
  <path d="M32.8942 4.73463V6.26872H27.3459V4.73463H32.8942ZM28.8673 14.5528V3.59685C28.8673 2.98321 29.0015 2.47398 29.27 2.06915C29.5384 1.66006 29.8942 1.35537 30.3374 1.15509C30.7806 0.95054 31.2621 0.848267 31.782 0.848267C32.1656 0.848267 32.4937 0.880227 32.7664 0.944148C33.0391 1.00381 33.2415 1.0592 33.3736 1.11034L32.9262 2.65722C32.8367 2.63165 32.7217 2.60182 32.581 2.56773C32.4404 2.52938 32.27 2.5102 32.0697 2.5102C31.6052 2.5102 31.2728 2.62526 31.0725 2.85537C30.8765 3.08548 30.7785 3.41787 30.7785 3.85253V14.5528H28.8673Z" fill="black"/>
  <path d="M25.6504 1.46191V14.5528H23.7392V1.46191H25.6504Z" fill="black"/>
  <path d="M19.2536 10.4811V4.73462H21.1712V14.5528H19.2919V12.8525H19.1897C18.9638 13.3767 18.6016 13.8135 18.103 14.1629C17.6087 14.5081 16.9929 14.6806 16.2557 14.6806C15.625 14.6806 15.0668 14.5421 14.581 14.2652C14.0995 13.9839 13.7202 13.5684 13.4432 13.0187C13.1705 12.469 13.0341 11.7893 13.0341 10.9796V4.73462H14.9453V10.7495C14.9453 11.4186 15.1307 11.9512 15.5014 12.3475C15.8722 12.7439 16.3537 12.942 16.9461 12.942C17.304 12.942 17.6598 12.8525 18.0135 12.6735C18.3715 12.4946 18.6676 12.224 18.902 11.8617C19.1407 11.4995 19.2578 11.0393 19.2536 10.4811Z" fill="black"/>
  <path d="M8.74349 4.90083C8.6753 4.29571 8.39405 3.82696 7.89974 3.49458C7.40542 3.15793 6.78326 2.98961 6.03326 2.98961C5.49633 2.98961 5.03184 3.07483 4.63979 3.24529C4.24775 3.41148 3.94306 3.64159 3.72573 3.93563C3.51266 4.2254 3.40613 4.55566 3.40613 4.9264C3.40613 5.23747 3.47857 5.50594 3.62346 5.73179C3.77261 5.95764 3.9665 6.14728 4.20513 6.30068C4.44803 6.44983 4.70797 6.57554 4.98496 6.67782C5.26195 6.77583 5.52829 6.85679 5.78397 6.92071L7.06238 7.2531C7.47999 7.35537 7.90826 7.49387 8.34718 7.66858C8.7861 7.8433 9.19306 8.07341 9.56806 8.35892C9.94306 8.64443 10.2456 8.99813 10.4757 9.42C10.7101 9.84188 10.8273 10.3468 10.8273 10.9349C10.8273 11.6764 10.6355 12.3348 10.252 12.9101C9.87275 13.4853 9.3209 13.9392 8.59647 14.2716C7.8763 14.604 7.00485 14.7701 5.98212 14.7701C5.00201 14.7701 4.154 14.6146 3.43809 14.3035C2.72218 13.9924 2.16181 13.5514 1.75698 12.9804C1.35215 12.4051 1.12843 11.7233 1.08582 10.9349H3.06735C3.1057 11.4079 3.25911 11.8021 3.52758 12.1174C3.8003 12.4285 4.14761 12.6608 4.56948 12.8142C4.99562 12.9633 5.46224 13.0379 5.96934 13.0379C6.52758 13.0379 7.02403 12.9505 7.45868 12.7758C7.89761 12.5968 8.24278 12.3497 8.4942 12.0343C8.74562 11.7147 8.87133 11.3419 8.87133 10.9157C8.87133 10.528 8.76053 10.2105 8.53894 9.96333C8.32161 9.71617 8.02545 9.51162 7.65045 9.34969C7.27971 9.18776 6.85996 9.045 6.39121 8.92142L4.84434 8.49955C3.79604 8.21404 2.96508 7.79429 2.35144 7.24032C1.74207 6.68634 1.43738 5.95338 1.43738 5.04145C1.43738 4.28719 1.64192 3.62881 2.05101 3.06631C2.46011 2.50381 3.01408 2.06702 3.71295 1.75594C4.41181 1.4406 5.20016 1.28293 6.078 1.28293C6.96437 1.28293 7.74633 1.43847 8.42388 1.74955C9.1057 2.06063 9.64263 2.48889 10.0347 3.03435C10.4267 3.57554 10.6313 4.1977 10.6483 4.90083H8.74349Z" fill="black"/>
  <path d="M26.3934 47.826H0.159973V168.436H26.3934V47.826Z" fill="url(#paint0_linear_0_1)"/>
  <path fill-rule="evenodd" clip-rule="evenodd" d="M0 47.666H26.5533V168.596H0V47.666ZM0.31992 47.9859V168.276H26.2334V47.9859H0.31992Z" fill="black"/>
  <defs>
    <linearGradient id="paint0_linear_0_1" x1="-231.462" y1="168.784" x2="-231.462" y2="47.8676" gradientUnits="userSpaceOnUse">
      <stop stop-color="white"/>
      <stop offset="0.25" stop-color="#570F6E"/>
      <stop offset="0.5" stop-color="#BB3755"/>
      <stop offset="0.75" stop-color="#F98D0A"/>
      <stop offset="1" stop-color="#FCFFA4"/>
    </linearGradient>
  </defs>
</svg>
