<svg width="241" height="64" viewBox="0 0 241 64" fill="none" xmlns="http://www.w3.org/2000/svg">
  <path d="M67.121 6.36617L65.3887 6.67298C65.3163 6.45139 65.2012 6.24046 65.0436 6.04017C64.8901 5.83989 64.6813 5.67582 64.4171 5.54798C64.1529 5.42014 63.8227 5.35622 63.4264 5.35622C62.8852 5.35622 62.4335 5.47767 62.0713 5.72057C61.709 5.95921 61.5279 6.26816 61.5279 6.64742C61.5279 6.97554 61.6494 7.23975 61.8923 7.44003C62.1352 7.64031 62.5272 7.80438 63.0684 7.93222L64.6281 8.29017C65.5315 8.49898 66.2048 8.82071 66.648 9.25537C67.0911 9.69003 67.3127 10.2547 67.3127 10.9493C67.3127 11.5373 67.1423 12.0615 66.8014 12.5217C66.4647 12.9777 65.9938 13.3356 65.3887 13.5956C64.7879 13.8555 64.0911 13.9855 63.2985 13.9855C62.1991 13.9855 61.3021 13.7511 60.6075 13.2824C59.9129 12.8093 59.4867 12.1382 59.3291 11.2689L61.1764 10.9876C61.2914 11.4691 61.5279 11.8335 61.8859 12.0807C62.2438 12.3236 62.7105 12.445 63.2857 12.445C63.9122 12.445 64.4129 12.315 64.7879 12.0551C65.1629 11.7909 65.3504 11.4691 65.3504 11.0899C65.3504 10.7831 65.2353 10.5253 65.0052 10.3165C64.7794 10.1076 64.4321 9.94997 63.9633 9.84344L62.3014 9.47909C61.3852 9.27029 60.7076 8.9379 60.2687 8.48193C59.834 8.02597 59.6167 7.44855 59.6167 6.74969C59.6167 6.17014 59.7786 5.66304 60.1025 5.22838C60.4264 4.79372 60.8738 4.45494 61.4448 4.21205C62.0159 3.96489 62.67 3.84131 63.4072 3.84131C64.4683 3.84131 65.3035 4.07142 65.9129 4.53165C66.5223 4.98762 66.9249 5.59912 67.121 6.36617Z" fill="black"/>
  <path d="M52.8555 13.7873V3.96916H54.7028V5.52882H54.8051C54.9841 5.00041 55.2994 4.58493 55.7511 4.28237C56.2071 3.97555 56.7227 3.82214 57.298 3.82214C57.4173 3.82214 57.5579 3.82641 57.7199 3.83493C57.8861 3.84345 58.016 3.8541 58.1098 3.86689V5.69501C58.0331 5.67371 57.8967 5.65027 57.7007 5.6247C57.5047 5.59487 57.3087 5.57996 57.1126 5.57996C56.6609 5.57996 56.2582 5.67584 55.9045 5.8676C55.5551 6.0551 55.2781 6.31717 55.0736 6.65382C54.869 6.98621 54.7668 7.36547 54.7668 7.7916V13.7873H52.8555Z" fill="black"/>
  <path d="M46.5226 13.9855C45.5553 13.9855 44.7222 13.7788 44.0233 13.3655C43.3287 12.9478 42.7918 12.3619 42.4125 11.6076C42.0375 10.8491 41.85 9.96063 41.85 8.94216C41.85 7.93648 42.0375 7.05012 42.4125 6.28307C42.7918 5.51602 43.3202 4.9173 43.9978 4.48691C44.6796 4.05651 45.4765 3.84131 46.3884 3.84131C46.9424 3.84131 47.4793 3.93293 47.9992 4.11617C48.5191 4.29941 48.9857 4.58705 49.399 4.97909C49.8124 5.37114 50.1384 5.88037 50.377 6.50679C50.6157 7.12895 50.735 7.88534 50.735 8.77597V9.45352H42.9303V8.02171H48.8621C48.8621 7.51887 48.7598 7.07355 48.5553 6.68577C48.3507 6.29372 48.0631 5.98477 47.6924 5.75892C47.3259 5.53307 46.8955 5.42014 46.4012 5.42014C45.8642 5.42014 45.3955 5.55225 44.9949 5.81645C44.5986 6.07639 44.2918 6.4173 44.0745 6.83918C43.8614 7.25679 43.7549 7.71063 43.7549 8.20068V9.31929C43.7549 9.97554 43.8699 10.5338 44.1 10.994C44.3344 11.4542 44.6604 11.8058 45.078 12.0487C45.4956 12.2873 45.9836 12.4066 46.5418 12.4066C46.904 12.4066 47.2343 12.3555 47.5326 12.2532C47.8309 12.1467 48.0887 11.989 48.306 11.7802C48.5233 11.5714 48.6895 11.3136 48.8046 11.0068L50.6135 11.3328C50.4686 11.8655 50.2087 12.3321 49.8337 12.7326C49.463 13.129 48.9963 13.4379 48.4338 13.6595C47.8756 13.8768 47.2385 13.9855 46.5226 13.9855Z" fill="black"/>
  <path d="M34.6989 13.9791C33.9063 13.9791 33.1989 13.7767 32.5768 13.3718C31.9589 12.9627 31.4731 12.3811 31.1194 11.6268C30.77 10.8683 30.5952 9.95849 30.5952 8.89741C30.5952 7.83633 30.7721 6.92866 31.1258 6.17439C31.4837 5.42013 31.9738 4.84272 32.596 4.44215C33.2181 4.04158 33.9234 3.8413 34.7117 3.8413C35.3211 3.8413 35.8112 3.94357 36.1819 4.14812C36.5569 4.3484 36.8467 4.58277 37.0512 4.85124C37.26 5.11971 37.4219 5.35621 37.537 5.56076H37.6521V0.696411H39.5633V13.7873H37.6968V12.2596H37.537C37.4219 12.4684 37.2558 12.7071 37.0384 12.9755C36.8254 13.244 36.5313 13.4784 36.1563 13.6787C35.7813 13.8789 35.2955 13.9791 34.6989 13.9791ZM35.1208 12.3491C35.6705 12.3491 36.135 12.2042 36.5143 11.9145C36.8978 11.6204 37.1876 11.2135 37.3836 10.6936C37.5839 10.1737 37.684 9.56857 37.684 8.87823C37.684 8.19641 37.586 7.59982 37.39 7.08846C37.194 6.57709 36.9063 6.17866 36.5271 5.89314C36.1478 5.60763 35.6791 5.46488 35.1208 5.46488C34.5455 5.46488 34.0661 5.61402 33.6826 5.91232C33.2991 6.21062 33.0093 6.61758 32.8133 7.1332C32.6215 7.64883 32.5256 8.2305 32.5256 8.87823C32.5256 9.53448 32.6237 10.1247 32.8197 10.6488C33.0157 11.173 33.3055 11.5885 33.689 11.8953C34.0768 12.1978 34.5541 12.3491 35.1208 12.3491Z" fill="black"/>
  <path d="M24.4669 13.7873V3.96916H26.3142V5.52882H26.4164C26.5954 5.00041 26.9107 4.58493 27.3625 4.28237C27.8184 3.97555 28.334 3.82214 28.9093 3.82214C29.0286 3.82214 29.1693 3.82641 29.3312 3.83493C29.4974 3.84345 29.6274 3.8541 29.7211 3.86689V5.69501C29.6444 5.67371 29.5081 5.65027 29.312 5.6247C29.116 5.59487 28.92 5.57996 28.724 5.57996C28.2723 5.57996 27.8696 5.67584 27.5159 5.8676C27.1664 6.0551 26.8894 6.31717 26.6849 6.65382C26.4804 6.98621 26.3781 7.36547 26.3781 7.7916V13.7873H24.4669Z" fill="black"/>
  <path d="M17.7568 13.9855C16.8364 13.9855 16.0331 13.7745 15.347 13.3527C14.6609 12.9308 14.1283 12.3406 13.749 11.5821C13.3697 10.8236 13.1801 9.93719 13.1801 8.92298C13.1801 7.90452 13.3697 7.01389 13.749 6.25111C14.1283 5.48832 14.6609 4.896 15.347 4.47412C16.0331 4.05225 16.8364 3.84131 17.7568 3.84131C18.6773 3.84131 19.4805 4.05225 20.1666 4.47412C20.8527 4.896 21.3854 5.48832 21.7646 6.25111C22.1439 7.01389 22.3335 7.90452 22.3335 8.92298C22.3335 9.93719 22.1439 10.8236 21.7646 11.5821C21.3854 12.3406 20.8527 12.9308 20.1666 13.3527C19.4805 13.7745 18.6773 13.9855 17.7568 13.9855ZM17.7632 12.3811C18.3598 12.3811 18.8541 12.2234 19.2462 11.9081C19.6382 11.5927 19.928 11.173 20.1155 10.6488C20.3072 10.1247 20.4031 9.54727 20.4031 8.91659C20.4031 8.29017 20.3072 7.71489 20.1155 7.19074C19.928 6.66233 19.6382 6.23833 19.2462 5.91872C18.8541 5.59912 18.3598 5.43932 17.7632 5.43932C17.1624 5.43932 16.6638 5.59912 16.2675 5.91872C15.8754 6.23833 15.5835 6.66233 15.3918 7.19074C15.2043 7.71489 15.1105 8.29017 15.1105 8.91659C15.1105 9.54727 15.2043 10.1247 15.3918 10.6488C15.5835 11.173 15.8754 11.5927 16.2675 11.9081C16.6638 12.2234 17.1624 12.3811 17.7632 12.3811Z" fill="black"/>
  <path d="M1.99722 13.7873V0.696411H6.79126C7.72023 0.696411 8.48941 0.84982 9.09879 1.15664C9.70816 1.4592 10.1641 1.87042 10.4667 2.3903C10.7692 2.90593 10.9205 3.4876 10.9205 4.13533C10.9205 4.68079 10.8204 5.14101 10.6201 5.51601C10.4198 5.88675 10.1513 6.18505 9.81469 6.4109C9.48231 6.63249 9.11583 6.79442 8.71526 6.8967V7.02454C9.14992 7.04584 9.57393 7.18647 9.98728 7.44641C10.4049 7.70209 10.7501 8.06644 11.0228 8.53945C11.2955 9.01246 11.4319 9.58775 11.4319 10.2653C11.4319 10.9343 11.2742 11.5352 10.9589 12.0679C10.6478 12.5963 10.1663 13.016 9.51427 13.3271C8.86228 13.6339 8.02918 13.7873 7.01498 13.7873H1.99722ZM3.97237 12.0934H6.82322C7.76924 12.0934 8.4468 11.9102 8.85589 11.5437C9.26498 11.1772 9.46952 10.7191 9.46952 10.1694C9.46952 9.75607 9.36512 9.37681 9.15631 9.03164C8.94751 8.68647 8.64921 8.41161 8.26143 8.20707C7.87791 8.00252 7.42194 7.90025 6.89353 7.90025H3.97237V12.0934ZM3.97237 6.35976H6.61867C7.06185 6.35976 7.46029 6.27454 7.81398 6.10408C8.17194 5.93363 8.45532 5.69499 8.66413 5.38817C8.87719 5.07709 8.98373 4.71062 8.98373 4.28874C8.98373 3.74755 8.7941 3.29371 8.41484 2.92724C8.03558 2.56076 7.4539 2.37752 6.66981 2.37752H3.97237V6.35976Z" fill="black"/>
  <path fill-rule="evenodd" clip-rule="evenodd" d="M0.067688 23.7559L0.559027 23.2645H3.01778V24.2472H1.05037V25.9183H0.067688V23.7559ZM4.0025 23.2645H5.96888V24.2472H4.0025V23.2645ZM6.95361 23.2645H11.8711V24.2472H6.95361V23.2645ZM12.8558 23.2645H14.8222V24.2472H12.8558V23.2645ZM15.8069 23.2645H20.7244V24.2472H15.8069V23.2645ZM21.7092 23.2645H23.6756V24.2472H21.7092V23.2645ZM24.6603 23.2645H27.119L27.6104 23.7559V25.9183H26.6277V24.2472H24.6603V23.2645ZM27.6104 26.6067V28.425H26.6277V26.6067H27.6104ZM1.05037 26.6067V28.425H0.067688V26.6067H1.05037ZM27.6104 29.1134V33.4383H26.6277V29.1134H27.6104ZM1.05037 29.1134V33.4383H0.067688V29.1134H1.05037ZM27.6104 34.1267V35.945H26.6277V34.1267H27.6104ZM1.05037 34.1267V35.945H0.067688V34.1267H1.05037ZM27.6104 36.6334V38.7959L27.119 39.2872H24.6603V38.3045H26.6277V36.6334H27.6104ZM1.05037 36.6334V38.3045H3.01778V39.2872H0.559027L0.067688 38.7959V36.6334H1.05037ZM4.0025 38.3045H5.96888V39.2872H4.0025V38.3045ZM6.95361 38.3045H11.8711V39.2872H6.95361V38.3045ZM12.8558 38.3045H14.8222V39.2872H12.8558V38.3045ZM15.8069 38.3045H20.7244V39.2872H15.8069V38.3045ZM21.7092 38.3045H23.6756V39.2872H21.7092V38.3045Z" fill="#FF2323"/>
  <path d="M236.155 36.677V28.0185H237.44V29.3263H237.53C237.688 28.8979 237.974 28.5502 238.387 28.2834C238.801 28.0166 239.267 27.8832 239.785 27.8832C239.883 27.8832 240.005 27.8851 240.152 27.8888C240.298 27.8926 240.409 27.8982 240.484 27.9057V29.2586C240.439 29.2473 240.336 29.2304 240.174 29.2079C240.016 29.1816 239.849 29.1684 239.672 29.1684C239.251 29.1684 238.876 29.2567 238.545 29.4334C238.218 29.6062 237.959 29.8468 237.767 30.1549C237.579 30.4593 237.485 30.8069 237.485 31.1978V36.677H236.155Z" fill="black"/>
  <path d="M230.546 36.8573C229.712 36.8573 228.992 36.6732 228.387 36.3049C227.786 35.9328 227.322 35.4142 226.995 34.749C226.671 34.0801 226.51 33.3022 226.51 32.4153C226.51 31.5284 226.671 30.7467 226.995 30.0703C227.322 29.3901 227.776 28.8602 228.359 28.4806C228.945 28.0973 229.629 27.9056 230.411 27.9056C230.862 27.9056 231.307 27.9808 231.747 28.1311C232.186 28.2814 232.587 28.5257 232.947 28.8639C233.308 29.1984 233.596 29.6419 233.81 30.1943C234.024 30.7467 234.131 31.4269 234.131 32.2349V32.7986H227.457V31.6487H232.778C232.778 31.1601 232.681 30.7242 232.485 30.3409C232.293 29.9575 232.019 29.655 231.662 29.4333C231.309 29.2116 230.892 29.1007 230.411 29.1007C229.881 29.1007 229.422 29.2322 229.035 29.4953C228.652 29.7546 228.357 30.0928 228.15 30.51C227.944 30.9271 227.84 31.3743 227.84 31.8516V32.6182C227.84 33.2721 227.953 33.8264 228.178 34.2812C228.408 34.7321 228.725 35.076 229.131 35.3127C229.537 35.5457 230.009 35.6622 230.546 35.6622C230.895 35.6622 231.211 35.6134 231.493 35.5157C231.779 35.4142 232.025 35.2639 232.231 35.0647C232.438 34.8618 232.598 34.61 232.711 34.3093L233.996 34.6701C233.861 35.1061 233.633 35.4894 233.314 35.8201C232.994 36.147 232.6 36.4026 232.13 36.5867C231.66 36.7671 231.132 36.8573 230.546 36.8573Z" fill="black"/>
  <path d="M220.326 36.8573C219.604 36.8573 218.967 36.675 218.415 36.3105C217.863 35.9422 217.43 35.4236 217.118 34.7547C216.807 34.082 216.651 33.2872 216.651 32.3702C216.651 31.4608 216.807 30.6716 217.118 30.0026C217.43 29.3337 217.864 28.817 218.421 28.4524C218.977 28.0879 219.619 27.9056 220.349 27.9056C220.912 27.9056 221.358 27.9996 221.685 28.1875C222.015 28.3716 222.267 28.5821 222.44 28.8188C222.617 29.0518 222.754 29.2435 222.851 29.3938H222.964V25.1322H224.294V36.6769H223.009V35.3466H222.851C222.754 35.5044 222.615 35.7036 222.434 35.9441C222.254 36.1809 221.996 36.3932 221.662 36.5811C221.327 36.7652 220.882 36.8573 220.326 36.8573ZM220.506 35.6622C221.04 35.6622 221.491 35.5232 221.859 35.2451C222.228 34.9632 222.508 34.5743 222.699 34.0782C222.891 33.5784 222.987 33.0015 222.987 32.3476C222.987 31.7013 222.893 31.1357 222.705 30.6509C222.517 30.1623 222.239 29.7828 221.871 29.5122C221.502 29.2379 221.048 29.1007 220.506 29.1007C219.943 29.1007 219.473 29.2454 219.097 29.5348C218.725 29.8204 218.445 30.2093 218.257 30.7016C218.073 31.1902 217.981 31.7388 217.981 32.3476C217.981 32.964 218.075 33.5239 218.263 34.0275C218.454 34.5273 218.736 34.9257 219.108 35.2226C219.484 35.5157 219.95 35.6622 220.506 35.6622Z" fill="black"/>
  <path d="M211.414 36.677V28.0185H212.699V29.3263H212.789C212.947 28.8979 213.233 28.5502 213.646 28.2834C214.059 28.0166 214.525 27.8832 215.044 27.8832C215.142 27.8832 215.264 27.8851 215.41 27.8888C215.557 27.8926 215.668 27.8982 215.743 27.9057V29.2586C215.698 29.2473 215.595 29.2304 215.433 29.2079C215.275 29.1816 215.108 29.1684 214.931 29.1684C214.51 29.1684 214.135 29.2567 213.804 29.4334C213.477 29.6062 213.218 29.8468 213.026 30.1549C212.838 30.4593 212.744 30.8069 212.744 31.1978V36.677H211.414Z" fill="black"/>
  <path d="M205.46 36.8573C204.678 36.8573 203.992 36.6713 203.402 36.2992C202.816 35.9272 202.357 35.4067 202.027 34.7378C201.7 34.0688 201.536 33.2872 201.536 32.3927C201.536 31.4908 201.7 30.7035 202.027 30.0308C202.357 29.3581 202.816 28.8358 203.402 28.4637C203.992 28.0917 204.678 27.9056 205.46 27.9056C206.241 27.9056 206.925 28.0917 207.512 28.4637C208.102 28.8358 208.56 29.3581 208.887 30.0308C209.218 30.7035 209.383 31.4908 209.383 32.3927C209.383 33.2872 209.218 34.0688 208.887 34.7378C208.56 35.4067 208.102 35.9272 207.512 36.2992C206.925 36.6713 206.241 36.8573 205.46 36.8573ZM205.46 35.6622C206.053 35.6622 206.542 35.51 206.925 35.2056C207.309 34.9012 207.592 34.501 207.776 34.0049C207.961 33.5089 208.053 32.9715 208.053 32.3927C208.053 31.814 207.961 31.2747 207.776 30.7749C207.592 30.2751 207.309 29.8711 206.925 29.5629C206.542 29.2548 206.053 29.1007 205.46 29.1007C204.866 29.1007 204.377 29.2548 203.994 29.5629C203.611 29.8711 203.327 30.2751 203.143 30.7749C202.959 31.2747 202.867 31.814 202.867 32.3927C202.867 32.9715 202.959 33.5089 203.143 34.0049C203.327 34.501 203.611 34.9012 203.994 35.2056C204.377 35.51 204.866 35.6622 205.46 35.6622Z" fill="black"/>
  <path d="M192.263 36.6769V25.1322H193.594V29.3938H193.706C193.804 29.2435 193.939 29.0518 194.112 28.8188C194.289 28.5821 194.541 28.3716 194.868 28.1875C195.198 27.9996 195.645 27.9056 196.209 27.9056C196.938 27.9056 197.581 28.0879 198.137 28.4524C198.693 28.817 199.127 29.3337 199.439 30.0026C199.751 30.6716 199.907 31.4608 199.907 32.3702C199.907 33.2872 199.751 34.082 199.439 34.7547C199.127 35.4236 198.695 35.9422 198.143 36.3105C197.59 36.675 196.953 36.8573 196.232 36.8573C195.676 36.8573 195.23 36.7652 194.896 36.5811C194.561 36.3932 194.304 36.1809 194.123 35.9441C193.943 35.7036 193.804 35.5044 193.706 35.3466H193.548V36.6769H192.263ZM193.571 32.3476C193.571 33.0015 193.667 33.5784 193.859 34.0782C194.05 34.5743 194.33 34.9632 194.698 35.2451C195.067 35.5232 195.518 35.6622 196.051 35.6622C196.608 35.6622 197.072 35.5157 197.444 35.2226C197.82 34.9257 198.101 34.5273 198.289 34.0275C198.481 33.5239 198.577 32.964 198.577 32.3476C198.577 31.7388 198.483 31.1902 198.295 30.7016C198.111 30.2093 197.831 29.8204 197.455 29.5348C197.083 29.2454 196.615 29.1007 196.051 29.1007C195.51 29.1007 195.055 29.2379 194.687 29.5122C194.319 29.7828 194.041 30.1623 193.853 30.6509C193.665 31.1357 193.571 31.7013 193.571 32.3476Z" fill="black"/>
  <path d="M182.009 36.8573C181.175 36.8573 180.455 36.6732 179.85 36.3049C179.249 35.9328 178.785 35.4142 178.458 34.749C178.135 34.0801 177.973 33.3022 177.973 32.4153C177.973 31.5284 178.135 30.7467 178.458 30.0703C178.785 29.3901 179.24 28.8602 179.822 28.4806C180.408 28.0973 181.092 27.9056 181.874 27.9056C182.325 27.9056 182.77 27.9808 183.21 28.1311C183.65 28.2814 184.05 28.5257 184.411 28.8639C184.772 29.1984 185.059 29.6419 185.273 30.1943C185.487 30.7467 185.595 31.4269 185.595 32.2349V32.7986H178.92V31.6487H184.242C184.242 31.1601 184.144 30.7242 183.949 30.3409C183.757 29.9575 183.483 29.655 183.126 29.4333C182.772 29.2116 182.355 29.1007 181.874 29.1007C181.344 29.1007 180.886 29.2322 180.499 29.4953C180.115 29.7546 179.82 30.0928 179.614 30.51C179.407 30.9271 179.304 31.3743 179.304 31.8516V32.6182C179.304 33.2721 179.416 33.8264 179.642 34.2812C179.871 34.7321 180.189 35.076 180.594 35.3127C181 35.5457 181.472 35.6622 182.009 35.6622C182.359 35.6622 182.675 35.6134 182.956 35.5157C183.242 35.4142 183.488 35.2639 183.695 35.0647C183.902 34.8618 184.061 34.61 184.174 34.3093L185.459 34.6701C185.324 35.1061 185.097 35.4894 184.777 35.8201C184.458 36.147 184.063 36.4026 183.593 36.5867C183.124 36.7671 182.596 36.8573 182.009 36.8573Z" fill="black"/>
  <path d="M176.933 28.0184L173.731 36.677H172.378L169.177 28.0184H170.62L173.01 34.9182H173.1L175.49 28.0184H176.933Z" fill="black"/>
  <path d="M166.086 36.677V28.0184H167.416V36.677H166.086ZM166.763 26.5753C166.503 26.5753 166.28 26.487 166.092 26.3104C165.908 26.1338 165.816 25.9214 165.816 25.6734C165.816 25.4254 165.908 25.2131 166.092 25.0364C166.28 24.8598 166.503 24.7715 166.763 24.7715C167.022 24.7715 167.244 24.8598 167.428 25.0364C167.616 25.2131 167.71 25.4254 167.71 25.6734C167.71 25.9214 167.616 26.1338 167.428 26.3104C167.244 26.487 167.022 26.5753 166.763 26.5753Z" fill="black"/>
  <path d="M164.085 28.0184V29.1458H159.598V28.0184H164.085ZM160.906 25.944H162.236V34.1966C162.236 34.5724 162.29 34.8543 162.399 35.0422C162.512 35.2263 162.655 35.3504 162.828 35.4142C163.005 35.4744 163.191 35.5044 163.386 35.5044C163.533 35.5044 163.653 35.4969 163.747 35.4819C163.841 35.4631 163.916 35.4481 163.972 35.4368L164.243 36.6319C164.153 36.6657 164.027 36.6995 163.865 36.7333C163.704 36.7709 163.499 36.7897 163.251 36.7897C162.875 36.7897 162.507 36.7089 162.146 36.5473C161.789 36.3857 161.492 36.1395 161.255 35.8088C161.022 35.4781 160.906 35.061 160.906 34.5574V25.944Z" fill="black"/>
  <path d="M153.923 36.8799C153.374 36.8799 152.876 36.7765 152.429 36.5698C151.982 36.3594 151.627 36.0568 151.363 35.6622C151.1 35.2639 150.969 34.7829 150.969 34.2192C150.969 33.7231 151.067 33.321 151.262 33.0128C151.457 32.7009 151.719 32.4566 152.046 32.28C152.373 32.1034 152.733 31.9718 153.128 31.8854C153.526 31.7952 153.926 31.7238 154.329 31.6712C154.855 31.6036 155.281 31.5528 155.608 31.519C155.939 31.4814 156.179 31.4194 156.33 31.333C156.484 31.2465 156.561 31.0962 156.561 30.882V30.8369C156.561 30.2807 156.409 29.8485 156.104 29.5404C155.804 29.2322 155.347 29.0781 154.734 29.0781C154.099 29.0781 153.601 29.2172 153.241 29.4953C152.88 29.7734 152.626 30.0703 152.48 30.3859L151.217 29.935C151.442 29.4089 151.743 28.9992 152.119 28.7061C152.498 28.4092 152.912 28.2025 153.359 28.086C153.81 27.9658 154.253 27.9056 154.689 27.9056C154.967 27.9056 155.287 27.9395 155.648 28.0071C156.012 28.071 156.364 28.2044 156.702 28.4073C157.044 28.6103 157.328 28.9166 157.553 29.3262C157.778 29.7358 157.891 30.2845 157.891 30.9722V36.6769H156.561V35.5044H156.493C156.403 35.6923 156.253 35.8934 156.042 36.1076C155.832 36.3218 155.552 36.504 155.202 36.6544C154.853 36.8047 154.426 36.8799 153.923 36.8799ZM154.126 35.6848C154.652 35.6848 155.095 35.5814 155.456 35.3748C155.821 35.1681 156.095 34.9012 156.279 34.5743C156.467 34.2473 156.561 33.9035 156.561 33.5427V32.3251C156.504 32.3927 156.38 32.4548 156.189 32.5111C156.001 32.5637 155.783 32.6107 155.535 32.6521C155.291 32.6896 155.052 32.7235 154.819 32.7535C154.59 32.7798 154.404 32.8024 154.261 32.8212C153.915 32.8663 153.592 32.9395 153.291 33.041C152.994 33.1387 152.754 33.2872 152.57 33.4863C152.389 33.6818 152.299 33.9486 152.299 34.2868C152.299 34.749 152.47 35.0985 152.812 35.3353C153.158 35.5683 153.596 35.6848 154.126 35.6848Z" fill="black"/>
  <path d="M145.469 36.677V28.0185H146.754V29.3263H146.844C147.002 28.8979 147.287 28.5502 147.701 28.2834C148.114 28.0166 148.58 27.8832 149.099 27.8832C149.196 27.8832 149.319 27.8851 149.465 27.8888C149.612 27.8926 149.723 27.8982 149.798 27.9057V29.2586C149.753 29.2473 149.649 29.2304 149.488 29.2079C149.33 29.1816 149.163 29.1684 148.986 29.1684C148.565 29.1684 148.189 29.2567 147.859 29.4334C147.532 29.6062 147.272 29.8468 147.081 30.1549C146.893 30.4593 146.799 30.8069 146.799 31.1978V36.677H145.469Z" fill="black"/>
  <path d="M143.467 28.0184V29.1458H138.98V28.0184H143.467ZM140.288 25.944H141.618V34.1966C141.618 34.5724 141.673 34.8543 141.782 35.0422C141.895 35.2263 142.037 35.3504 142.21 35.4142C142.387 35.4744 142.573 35.5044 142.768 35.5044C142.915 35.5044 143.035 35.4969 143.129 35.4819C143.223 35.4631 143.298 35.4481 143.355 35.4368L143.625 36.6319C143.535 36.6657 143.409 36.6995 143.248 36.7333C143.086 36.7709 142.881 36.7897 142.633 36.7897C142.257 36.7897 141.889 36.7089 141.528 36.5473C141.171 36.3857 140.874 36.1395 140.638 35.8088C140.405 35.4781 140.288 35.061 140.288 34.5574V25.944Z" fill="black"/>
  <path d="M137.541 29.9575L136.346 30.2958C136.271 30.0966 136.16 29.903 136.014 29.7151C135.871 29.5235 135.676 29.3656 135.427 29.2416C135.179 29.1176 134.862 29.0556 134.475 29.0556C133.945 29.0556 133.503 29.1777 133.15 29.422C132.801 29.6625 132.626 29.9688 132.626 30.3409C132.626 30.6716 132.746 30.9327 132.987 31.1244C133.227 31.3161 133.603 31.4758 134.114 31.6036L135.399 31.9192C136.173 32.1071 136.75 32.3946 137.13 32.7817C137.509 33.165 137.699 33.6592 137.699 34.2643C137.699 34.7603 137.556 35.2038 137.271 35.5946C136.989 35.9854 136.594 36.2936 136.087 36.5191C135.58 36.7446 134.99 36.8573 134.317 36.8573C133.434 36.8573 132.703 36.6656 132.124 36.2823C131.545 35.899 131.179 35.3391 131.025 34.6025L132.288 34.2868C132.408 34.7528 132.635 35.1023 132.97 35.3353C133.308 35.5683 133.75 35.6848 134.294 35.6848C134.915 35.6848 135.407 35.5533 135.771 35.2902C136.14 35.0234 136.324 34.7039 136.324 34.3319C136.324 34.0313 136.219 33.7795 136.008 33.5765C135.798 33.3698 135.474 33.2158 135.039 33.1143L133.595 32.7761C132.802 32.5882 132.22 32.2969 131.848 31.9023C131.48 31.504 131.296 31.006 131.296 30.4085C131.296 29.92 131.433 29.4878 131.707 29.112C131.985 28.7362 132.363 28.4412 132.84 28.227C133.321 28.0127 133.866 27.9056 134.475 27.9056C135.332 27.9056 136.004 28.0935 136.493 28.4693C136.985 28.8452 137.335 29.3412 137.541 29.9575Z" fill="black"/>
  <path d="M127.641 36.677V28.0184H128.972V36.677H127.641ZM128.318 26.5753C128.058 26.5753 127.835 26.487 127.647 26.3104C127.463 26.1338 127.371 25.9214 127.371 25.6734C127.371 25.4254 127.463 25.2131 127.647 25.0364C127.835 24.8598 128.058 24.7715 128.318 24.7715C128.577 24.7715 128.799 24.8598 128.983 25.0364C129.171 25.2131 129.265 25.4254 129.265 25.6734C129.265 25.9214 129.171 26.1338 128.983 26.3104C128.799 26.487 128.577 26.5753 128.318 26.5753Z" fill="black"/>
  <path d="M119.686 31.4683V36.6769H118.356V28.0184H119.641V29.3713H119.754C119.957 28.9316 120.265 28.5783 120.678 28.3115C121.091 28.0409 121.625 27.9056 122.279 27.9056C122.865 27.9056 123.378 28.0259 123.818 28.2664C124.258 28.5032 124.6 28.8639 124.844 29.3487C125.088 29.8298 125.21 30.4386 125.21 31.1751V36.6769H123.88V31.2653C123.88 30.5851 123.703 30.0552 123.35 29.6757C122.997 29.2924 122.512 29.1007 121.896 29.1007C121.471 29.1007 121.091 29.1928 120.757 29.3769C120.426 29.5611 120.165 29.8298 119.973 30.183C119.782 30.5363 119.686 30.9647 119.686 31.4683Z" fill="black"/>
  <path d="M114.589 36.677V28.0184H115.919V36.677H114.589ZM115.265 26.5753C115.006 26.5753 114.782 26.487 114.594 26.3104C114.41 26.1338 114.318 25.9214 114.318 25.6734C114.318 25.4254 114.41 25.2131 114.594 25.0364C114.782 24.8598 115.006 24.7715 115.265 24.7715C115.524 24.7715 115.746 24.8598 115.93 25.0364C116.118 25.2131 116.212 25.4254 116.212 25.6734C116.212 25.9214 116.118 26.1338 115.93 26.3104C115.746 26.487 115.524 26.5753 115.265 26.5753Z" fill="black"/>
  <path d="M100.792 36.6769V28.0184H102.077V29.3713H102.19C102.37 28.909 102.662 28.5501 103.064 28.2946C103.466 28.0353 103.949 27.9056 104.512 27.9056C105.084 27.9056 105.559 28.0353 105.939 28.2946C106.322 28.5501 106.621 28.909 106.835 29.3713H106.925C107.147 28.9241 107.479 28.5689 107.923 28.3059C108.366 28.0391 108.898 27.9056 109.518 27.9056C110.292 27.9056 110.926 28.148 111.418 28.6328C111.91 29.1139 112.156 29.8636 112.156 30.882V36.6769H110.826V30.882C110.826 30.2431 110.651 29.7865 110.302 29.5122C109.952 29.2379 109.541 29.1007 109.067 29.1007C108.458 29.1007 107.987 29.2848 107.652 29.6531C107.318 30.0177 107.151 30.4799 107.151 31.0398V36.6769H105.798V30.7467C105.798 30.2544 105.638 29.8579 105.318 29.5573C104.999 29.2529 104.588 29.1007 104.084 29.1007C103.738 29.1007 103.415 29.1928 103.114 29.3769C102.818 29.5611 102.577 29.8166 102.393 30.1436C102.212 30.4667 102.122 30.8407 102.122 31.2653V36.6769H100.792Z" fill="black"/>
  <path d="M94.2022 36.8573C93.4806 36.8573 92.8437 36.675 92.2912 36.3105C91.7388 35.9422 91.3066 35.4236 90.9947 34.7547C90.6828 34.082 90.5268 33.2872 90.5268 32.3702C90.5268 31.4608 90.6828 30.6716 90.9947 30.0026C91.3066 29.3337 91.7407 28.817 92.2969 28.4524C92.8531 28.0879 93.4957 27.9056 94.2247 27.9056C94.7884 27.9056 95.2338 27.9996 95.5607 28.1875C95.8914 28.3716 96.1432 28.5821 96.3161 28.8188C96.4927 29.0518 96.6299 29.2435 96.7276 29.3938H96.8403V25.1322H98.1707V36.6769H96.8854V35.3466H96.7276C96.6299 35.5044 96.4908 35.7036 96.3105 35.9441C96.1301 36.1809 95.8726 36.3932 95.5382 36.5811C95.2037 36.7652 94.7584 36.8573 94.2022 36.8573ZM94.3826 35.6622C94.9162 35.6622 95.3672 35.5232 95.7355 35.2451C96.1038 34.9632 96.3837 34.5743 96.5754 34.0782C96.7671 33.5784 96.8629 33.0015 96.8629 32.3476C96.8629 31.7013 96.7689 31.1357 96.581 30.6509C96.3931 30.1623 96.115 29.7828 95.7467 29.5122C95.3785 29.2379 94.9237 29.1007 94.3826 29.1007C93.8189 29.1007 93.3491 29.2454 92.9733 29.5348C92.6013 29.8204 92.3213 30.2093 92.1334 30.7016C91.9492 31.1902 91.8572 31.7388 91.8572 32.3476C91.8572 32.964 91.9511 33.5239 92.139 34.0275C92.3307 34.5273 92.6125 34.9257 92.9846 35.2226C93.3604 35.5157 93.8264 35.6622 94.3826 35.6622Z" fill="black"/>
  <path d="M84.536 36.8799C83.9874 36.8799 83.4894 36.7765 83.0422 36.5698C82.595 36.3594 82.2399 36.0568 81.9768 35.6622C81.7137 35.2639 81.5822 34.7829 81.5822 34.2192C81.5822 33.7231 81.6799 33.321 81.8753 33.0128C82.0708 32.7009 82.3319 32.4566 82.6589 32.28C82.9858 32.1034 83.3466 31.9718 83.7412 31.8854C84.1396 31.7952 84.5398 31.7238 84.9419 31.6712C85.468 31.6036 85.8946 31.5528 86.2215 31.519C86.5522 31.4814 86.7927 31.4194 86.9431 31.333C87.0971 31.2465 87.1742 31.0962 87.1742 30.882V30.8369C87.1742 30.2807 87.022 29.8485 86.7176 29.5404C86.4169 29.2322 85.9603 29.0781 85.3478 29.0781C84.7127 29.0781 84.2147 29.2172 83.854 29.4953C83.4932 29.7734 83.2395 30.0703 83.0929 30.3859L81.8302 29.935C82.0557 29.4089 82.3564 28.9992 82.7322 28.7061C83.1117 28.4092 83.5251 28.2025 83.9723 28.086C84.4233 27.9658 84.8667 27.9056 85.3027 27.9056C85.5808 27.9056 85.9002 27.9395 86.261 28.0071C86.6255 28.071 86.9769 28.2044 87.3151 28.4073C87.6571 28.6103 87.9408 28.9166 88.1663 29.3262C88.3918 29.7358 88.5045 30.2845 88.5045 30.9722V36.6769H87.1742V35.5044H87.1065C87.0163 35.6923 86.866 35.8934 86.6556 36.1076C86.4451 36.3218 86.1652 36.504 85.8157 36.6544C85.4662 36.8047 85.0396 36.8799 84.536 36.8799ZM84.739 35.6848C85.2651 35.6848 85.7085 35.5814 86.0693 35.3748C86.4339 35.1681 86.7082 34.9012 86.8923 34.5743C87.0802 34.2473 87.1742 33.9035 87.1742 33.5427V32.3251C87.1178 32.3927 86.9938 32.4548 86.8021 32.5111C86.6142 32.5637 86.3963 32.6107 86.1482 32.6521C85.904 32.6896 85.6653 32.7235 85.4323 32.7535C85.2031 32.7798 85.0171 32.8024 84.8743 32.8212C84.5285 32.8663 84.2053 32.9395 83.9047 33.041C83.6078 33.1387 83.3673 33.2872 83.1831 33.4863C83.0028 33.6818 82.9126 33.9486 82.9126 34.2868C82.9126 34.749 83.0836 35.0985 83.4255 35.3353C83.7713 35.5683 84.2091 35.6848 84.739 35.6848Z" fill="black"/>
  <path d="M75.3631 29.9575L74.1681 30.2958C74.0929 30.0966 73.9821 29.903 73.8355 29.7151C73.6927 29.5235 73.4973 29.3656 73.2492 29.2416C73.0012 29.1176 72.6836 29.0556 72.2966 29.0556C71.7667 29.0556 71.3251 29.1777 70.9719 29.422C70.6224 29.6625 70.4476 29.9688 70.4476 30.3409C70.4476 30.6716 70.5679 30.9327 70.8084 31.1244C71.0489 31.3161 71.4247 31.4758 71.9358 31.6036L73.221 31.9192C73.9952 32.1071 74.5721 32.3946 74.9516 32.7817C75.3312 33.165 75.521 33.6592 75.521 34.2643C75.521 34.7603 75.3782 35.2038 75.0926 35.5946C74.8107 35.9854 74.4161 36.2936 73.9088 36.5191C73.4014 36.7446 72.8114 36.8573 72.1387 36.8573C71.2556 36.8573 70.5246 36.6656 69.9459 36.2823C69.3672 35.899 69.0008 35.3391 68.8467 34.6025L70.1094 34.2868C70.2296 34.7528 70.457 35.1023 70.7915 35.3353C71.1297 35.5683 71.5713 35.6848 72.1162 35.6848C72.7363 35.6848 73.2286 35.5533 73.5931 35.2902C73.9614 35.0234 74.1455 34.7039 74.1455 34.3319C74.1455 34.0313 74.0403 33.7795 73.8298 33.5765C73.6194 33.3698 73.2962 33.2158 72.8603 33.1143L71.4172 32.7761C70.6242 32.5882 70.0417 32.2969 69.6697 31.9023C69.3014 31.504 69.1173 31.006 69.1173 30.4085C69.1173 29.92 69.2544 29.4878 69.5288 29.112C69.8069 28.7362 70.1845 28.4412 70.6618 28.227C71.1428 28.0127 71.6878 27.9056 72.2966 27.9056C73.1534 27.9056 73.8261 28.0935 74.3146 28.4693C74.8069 28.8452 75.1564 29.3412 75.3631 29.9575Z" fill="black"/>
  <path d="M66.861 25.1322V29.1007H65.6208V25.1322H66.861Z" fill="black"/>
  <path d="M57.7318 39.9239C57.5063 39.9239 57.3052 39.9051 57.1286 39.8675C56.952 39.8337 56.8298 39.7999 56.7622 39.7661L57.1004 38.5936C57.4236 38.6762 57.7092 38.7063 57.9573 38.6838C58.2053 38.6612 58.4251 38.5504 58.6168 38.3512C58.8122 38.1558 58.9907 37.8382 59.1523 37.3985L59.4003 36.7221L56.1985 28.0184H57.6416L60.0317 34.9182H60.1219L62.512 28.0184H63.9551L60.2797 37.9397C60.1144 38.3869 59.9096 38.757 59.6653 39.0502C59.421 39.3471 59.1373 39.5669 58.8141 39.7097C58.4947 39.8525 58.1339 39.9239 57.7318 39.9239Z" fill="black"/>
  <path d="M54.8738 28.0184V29.1458H50.3867V28.0184H54.8738ZM51.6945 25.944H53.0248V34.1966C53.0248 34.5724 53.0793 34.8543 53.1883 35.0422C53.3011 35.2263 53.4439 35.3504 53.6167 35.4142C53.7934 35.4744 53.9794 35.5044 54.1748 35.5044C54.3214 35.5044 54.4416 35.4969 54.5356 35.4819C54.6295 35.4631 54.7047 35.4481 54.7611 35.4368L55.0316 36.6319C54.9414 36.6657 54.8155 36.6995 54.6539 36.7333C54.4924 36.7709 54.2875 36.7897 54.0395 36.7897C53.6637 36.7897 53.2954 36.7089 52.9346 36.5473C52.5776 36.3857 52.2807 36.1395 52.044 35.8088C51.811 35.4781 51.6945 35.061 51.6945 34.5574V25.944Z" fill="black"/>
  <path d="M47.3413 36.677V28.0184H48.6716V36.677H47.3413ZM48.0177 26.5753C47.7584 26.5753 47.5348 26.487 47.3469 26.3104C47.1628 26.1338 47.0707 25.9214 47.0707 25.6734C47.0707 25.4254 47.1628 25.2131 47.3469 25.0364C47.5348 24.8598 47.7584 24.7715 48.0177 24.7715C48.277 24.7715 48.4987 24.8598 48.6829 25.0364C48.8708 25.2131 48.9647 25.4254 48.9647 25.6734C48.9647 25.9214 48.8708 26.1338 48.6829 26.3104C48.4987 26.487 48.277 26.5753 48.0177 26.5753Z" fill="black"/>
  <path d="M45.2626 28.7399H43.8646C43.7819 28.3378 43.6372 27.9846 43.4305 27.6802C43.2276 27.3758 42.9796 27.1202 42.6864 26.9135C42.3971 26.7031 42.0758 26.5452 41.7225 26.44C41.3692 26.3348 41.001 26.2822 40.6176 26.2822C39.9186 26.2822 39.2854 26.4588 38.7179 26.812C38.1542 27.1653 37.7052 27.6858 37.3707 28.3735C37.04 29.0612 36.8746 29.9049 36.8746 30.9046C36.8746 31.9042 37.04 32.7479 37.3707 33.4356C37.7052 34.1233 38.1542 34.6438 38.7179 34.9971C39.2854 35.3503 39.9186 35.527 40.6176 35.527C41.001 35.527 41.3692 35.4743 41.7225 35.3691C42.0758 35.2639 42.3971 35.1079 42.6864 34.9012C42.9796 34.6908 43.2276 34.4334 43.4305 34.129C43.6372 33.8208 43.7819 33.4675 43.8646 33.0692H45.2626C45.1574 33.6592 44.9657 34.1872 44.6876 34.6532C44.4095 35.1192 44.0638 35.5157 43.6504 35.8426C43.237 36.1658 42.7729 36.412 42.258 36.5811C41.7469 36.7502 41.2001 36.8348 40.6176 36.8348C39.633 36.8348 38.7574 36.5942 37.9908 36.1132C37.2241 35.6322 36.621 34.9482 36.1813 34.0613C35.7416 33.1744 35.5217 32.1222 35.5217 30.9046C35.5217 29.687 35.7416 28.6347 36.1813 27.7478C36.621 26.8609 37.2241 26.1769 37.9908 25.6959C38.7574 25.2149 39.633 24.9744 40.6176 24.9744C41.2001 24.9744 41.7469 25.0589 42.258 25.228C42.7729 25.3971 43.237 25.6452 43.6504 25.9721C44.0638 26.2953 44.4095 26.6899 44.6876 27.1559C44.9657 27.6182 45.1574 28.1462 45.2626 28.7399Z" fill="black"/>
  <path fill-rule="evenodd" clip-rule="evenodd" d="M0.067688 48.3229L0.559027 47.8315H1.54222V48.8142H1.05088L1.05037 49.3156H0.067688V48.3229ZM2.52695 47.8315H4.49333V48.8142H2.52695V47.8315ZM5.47806 47.8315H7.44444V48.8142H5.47806V47.8315ZM8.42917 47.8315H10.3956V48.8142H8.42917V47.8315ZM11.3803 47.8315H13.3467V48.8142H11.3803V47.8315ZM14.3314 47.8315H16.2978V48.8142H14.3314V47.8315ZM17.2825 47.8315H19.2489V48.8142H17.2825V47.8315ZM20.2336 47.8315H22.2V48.8142H20.2336V47.8315ZM23.1847 47.8315H25.1511V48.8142H23.1847V47.8315ZM26.1358 47.8315H27.119L27.6104 48.3229V49.3156H26.6277V48.8142H26.1358V47.8315ZM27.6104 50.3382V52.3236H26.6277V50.3382H27.6104ZM1.05037 50.3382V52.3236H0.067688V50.3382H1.05037ZM27.6104 53.3462V55.3316H26.6277V53.3462H27.6104ZM1.05037 53.3462V55.3316H0.067688V53.3462H1.05037ZM27.6104 56.3542V58.3396H26.6277V56.3542H27.6104ZM1.05037 56.3542V58.3396H0.067688V56.3542H1.05037ZM1.05037 59.3622V61.3476H0.067688V59.3622H1.05037ZM27.6104 59.3622V61.3476H26.6277V59.3622H27.6104ZM1.05037 62.3702V62.8715H1.54222V63.8542H0.559027L0.067688 63.3629V62.3702H1.05037ZM27.6104 62.3702V63.3629L27.119 63.8542H26.1358V62.8715H26.6272L26.6277 62.3702H27.6104ZM2.52695 62.8715H4.49333V63.8542H2.52695V62.8715ZM5.47806 62.8715H7.44444V63.8542H5.47806V62.8715ZM8.42917 62.8715H10.3956V63.8542H8.42917V62.8715ZM11.3803 62.8715H13.3467V63.8542H11.3803V62.8715ZM14.3314 62.8715H16.2978V63.8542H14.3314V62.8715ZM17.2825 62.8715H19.2489V63.8542H17.2825V62.8715ZM20.2336 62.8715H22.2V63.8542H20.2336V62.8715ZM23.1847 62.8715H25.1511V63.8542H23.1847V62.8715Z" fill="#232323"/>
  <path d="M131.083 61.2439V52.5854H132.368V53.8932H132.458C132.616 53.4647 132.902 53.1171 133.315 52.8503C133.728 52.5835 134.194 52.4501 134.713 52.4501C134.811 52.4501 134.933 52.452 135.079 52.4557C135.226 52.4595 135.337 52.4651 135.412 52.4726V53.8255C135.367 53.8142 135.264 53.7973 135.102 53.7748C134.944 53.7485 134.777 53.7353 134.6 53.7353C134.179 53.7353 133.804 53.8236 133.473 54.0003C133.146 54.1731 132.887 54.4137 132.695 54.7218C132.507 55.0262 132.413 55.3738 132.413 55.7647V61.2439H131.083Z" fill="black"/>
  <path d="M125.474 61.4243C124.64 61.4243 123.92 61.2402 123.315 60.8719C122.714 60.4998 122.249 59.9812 121.922 59.3161C121.599 58.6471 121.438 57.8692 121.438 56.9823C121.438 56.0954 121.599 55.3137 121.922 54.6373C122.249 53.9571 122.704 53.4272 123.287 53.0476C123.873 52.6643 124.557 52.4727 125.339 52.4727C125.789 52.4727 126.235 52.5478 126.675 52.6981C127.114 52.8485 127.514 53.0927 127.875 53.431C128.236 53.7654 128.523 54.2089 128.738 54.7613C128.952 55.3137 129.059 55.9939 129.059 56.8019V57.3656H122.385V56.2157H127.706C127.706 55.7271 127.608 55.2912 127.413 54.9079C127.221 54.5245 126.947 54.222 126.59 54.0003C126.237 53.7786 125.82 53.6677 125.339 53.6677C124.809 53.6677 124.35 53.7992 123.963 54.0623C123.58 54.3216 123.285 54.6598 123.078 55.077C122.871 55.4941 122.768 55.9413 122.768 56.4186V57.1852C122.768 57.8391 122.881 58.3935 123.106 58.8482C123.335 59.2991 123.653 59.643 124.059 59.8798C124.465 60.1128 124.936 60.2293 125.474 60.2293C125.823 60.2293 126.139 60.1804 126.421 60.0827C126.706 59.9812 126.953 59.8309 127.159 59.6317C127.366 59.4288 127.526 59.177 127.638 58.8764L128.924 59.2371C128.788 59.6731 128.561 60.0564 128.242 60.3871C127.922 60.7141 127.528 60.9696 127.058 61.1537C126.588 61.3341 126.06 61.4243 125.474 61.4243Z" fill="black"/>
  <path d="M119.935 52.5854V53.7128H115.448V52.5854H119.935ZM116.756 50.511H118.086V58.7637C118.086 59.1395 118.141 59.4213 118.25 59.6092C118.363 59.7934 118.505 59.9174 118.678 59.9813C118.855 60.0414 119.041 60.0715 119.236 60.0715C119.383 60.0715 119.503 60.0639 119.597 60.0489C119.691 60.0301 119.766 60.0151 119.823 60.0038L120.093 61.1989C120.003 61.2327 119.877 61.2665 119.716 61.3003C119.554 61.3379 119.349 61.3567 119.101 61.3567C118.725 61.3567 118.357 61.2759 117.996 61.1143C117.639 60.9527 117.342 60.7066 117.106 60.3759C116.873 60.0451 116.756 59.628 116.756 59.1244V50.511Z" fill="black"/>
  <path d="M114.009 54.5245L112.814 54.8628C112.739 54.6636 112.628 54.4701 112.482 54.2822C112.339 54.0905 112.144 53.9327 111.896 53.8086C111.648 53.6846 111.33 53.6226 110.943 53.6226C110.413 53.6226 109.971 53.7448 109.618 53.989C109.269 54.2295 109.094 54.5358 109.094 54.9079C109.094 55.2386 109.214 55.4998 109.455 55.6914C109.695 55.8831 110.071 56.0428 110.582 56.1706L111.867 56.4862C112.642 56.6742 113.218 56.9616 113.598 57.3487C113.978 57.732 114.167 58.2262 114.167 58.8313C114.167 59.3273 114.024 59.7708 113.739 60.1616C113.457 60.5525 113.062 60.8606 112.555 61.0861C112.048 61.3116 111.458 61.4243 110.785 61.4243C109.902 61.4243 109.171 61.2327 108.592 60.8493C108.013 60.466 107.647 59.9061 107.493 59.1695L108.756 58.8538C108.876 59.3198 109.103 59.6693 109.438 59.9023C109.776 60.1353 110.218 60.2518 110.762 60.2518C111.383 60.2518 111.875 60.1203 112.239 59.8572C112.608 59.5904 112.792 59.271 112.792 58.8989C112.792 58.5983 112.687 58.3465 112.476 58.1435C112.266 57.9369 111.943 57.7828 111.507 57.6813L110.063 57.3431C109.271 57.1552 108.688 56.8639 108.316 56.4693C107.948 56.071 107.764 55.573 107.764 54.9755C107.764 54.487 107.901 54.0548 108.175 53.679C108.453 53.3032 108.831 53.0082 109.308 52.794C109.789 52.5798 110.334 52.4727 110.943 52.4727C111.8 52.4727 112.472 52.6606 112.961 53.0364C113.453 53.4122 113.803 53.9082 114.009 54.5245Z" fill="black"/>
  <path d="M104.109 57.7039V52.5854H105.44V61.244H104.109V59.7783H104.019C103.816 60.218 103.501 60.592 103.072 60.9001C102.644 61.2045 102.103 61.3567 101.449 61.3567C100.907 61.3567 100.426 61.2383 100.006 61.0016C99.5847 60.7611 99.254 60.4003 99.0134 59.9193C98.7729 59.4345 98.6527 58.8238 98.6527 58.0872V52.5854H99.983V57.997C99.983 58.6284 100.16 59.132 100.513 59.5078C100.87 59.8836 101.325 60.0715 101.877 60.0715C102.208 60.0715 102.544 59.9869 102.886 59.8178C103.232 59.6487 103.521 59.3894 103.754 59.0399C103.991 58.6904 104.109 58.2451 104.109 57.7039Z" fill="black"/>
  <path d="M96.216 49.6992V61.2439H94.8857V49.6992H96.216Z" fill="black"/>
  <path d="M89.5361 61.4243C88.7244 61.4243 88.0254 61.2327 87.4391 60.8493C86.8529 60.466 86.4019 59.938 86.0862 59.2653C85.7706 58.5926 85.6127 57.8241 85.6127 56.9598C85.6127 56.0804 85.7743 55.3043 86.0975 54.6317C86.4245 53.9552 86.8792 53.4272 87.4617 53.0476C88.0479 52.6643 88.7319 52.4727 89.5136 52.4727C90.1224 52.4727 90.671 52.5854 91.1596 52.8109C91.6481 53.0364 92.0484 53.352 92.3603 53.7579C92.6722 54.1638 92.8657 54.6373 92.9409 55.1784H91.6106C91.5091 54.7839 91.2836 54.4344 90.9341 54.13C90.5884 53.8218 90.1224 53.6677 89.5361 53.6677C89.0175 53.6677 88.5628 53.803 88.1719 54.0736C87.7849 54.3404 87.4823 54.7181 87.2644 55.2066C87.0502 55.6914 86.9431 56.2608 86.9431 56.9147C86.9431 57.5836 87.0483 58.1661 87.2587 58.6622C87.473 59.1582 87.7736 59.5434 88.1607 59.8178C88.5515 60.0921 89.01 60.2293 89.5361 60.2293C89.8819 60.2293 90.1957 60.1691 90.4775 60.0489C90.7594 59.9286 90.998 59.7557 91.1934 59.5303C91.3888 59.3048 91.5279 59.0342 91.6106 58.7185H92.9409C92.8657 59.2296 92.6797 59.69 92.3828 60.0996C92.0897 60.5055 91.7008 60.8287 91.216 61.0692C90.7349 61.3059 90.175 61.4243 89.5361 61.4243Z" fill="black"/>
  <path d="M73.5987 56.0353V61.2439H72.2684V52.5854H73.5536V53.9383H73.6664C73.8693 53.4986 74.1775 53.1453 74.5908 52.8785C75.0042 52.6079 75.5379 52.4727 76.1918 52.4727C76.778 52.4727 77.291 52.5929 77.7307 52.8334C78.1704 53.0702 78.5124 53.431 78.7566 53.9157C79.0009 54.3968 79.123 55.0056 79.123 55.7422V61.2439H77.7927V55.8323C77.7927 55.1521 77.6161 54.6223 77.2628 54.2427C76.9096 53.8594 76.4248 53.6677 75.8085 53.6677C75.3838 53.6677 75.0042 53.7598 74.6698 53.9439C74.3391 54.1281 74.0779 54.3968 73.8862 54.75C73.6946 55.1033 73.5987 55.5317 73.5987 56.0353Z" fill="black"/>
  <path d="M65.8717 61.4469C65.323 61.4469 64.8251 61.3435 64.3779 61.1368C63.9307 60.9264 63.5755 60.6239 63.3125 60.2293C63.0494 59.8309 62.9179 59.3499 62.9179 58.7862C62.9179 58.2901 63.0156 57.888 63.211 57.5798C63.4064 57.2679 63.6676 57.0236 63.9946 56.847C64.3215 56.6704 64.6823 56.5389 65.0769 56.4524C65.4752 56.3622 65.8755 56.2908 66.2776 56.2382C66.8037 56.1706 67.2302 56.1198 67.5572 56.086C67.8879 56.0484 68.1284 55.9864 68.2787 55.9C68.4328 55.8136 68.5099 55.6632 68.5099 55.449V55.4039C68.5099 54.8477 68.3576 54.4156 68.0532 54.1074C67.7526 53.7992 67.296 53.6452 66.6834 53.6452C66.0483 53.6452 65.5504 53.7842 65.1896 54.0623C64.8288 54.3404 64.5752 54.6373 64.4286 54.953L63.1659 54.502C63.3914 53.9759 63.692 53.5662 64.0678 53.2731C64.4474 52.9762 64.8608 52.7695 65.308 52.653C65.759 52.5328 66.2024 52.4727 66.6383 52.4727C66.9164 52.4727 67.2359 52.5065 67.5966 52.5741C67.9612 52.638 68.3126 52.7714 68.6508 52.9744C68.9928 53.1773 69.2765 53.4836 69.502 53.8932C69.7275 54.3028 69.8402 54.8515 69.8402 55.5392V61.2439H68.5099V60.0714H68.4422C68.352 60.2593 68.2017 60.4604 67.9912 60.6746C67.7808 60.8888 67.5008 61.0711 67.1513 61.2214C66.8018 61.3717 66.3753 61.4469 65.8717 61.4469ZM66.0746 60.2518C66.6008 60.2518 67.0442 60.1485 67.405 59.9418C67.7695 59.7351 68.0439 59.4683 68.228 59.1413C68.4159 58.8144 68.5099 58.4705 68.5099 58.1097V56.8921C68.4535 56.9598 68.3295 57.0218 68.1378 57.0781C67.9499 57.1308 67.7319 57.1777 67.4839 57.2191C67.2396 57.2566 67.001 57.2905 66.768 57.3205C66.5388 57.3468 66.3527 57.3694 66.2099 57.3882C65.8642 57.4333 65.541 57.5066 65.2404 57.608C64.9435 57.7057 64.7029 57.8542 64.5188 58.0534C64.3384 58.2488 64.2482 58.5156 64.2482 58.8538C64.2482 59.3161 64.4192 59.6656 64.7612 59.9023C65.1069 60.1353 65.5448 60.2518 66.0746 60.2518Z" fill="black"/>
  <path d="M53.6449 61.2439V49.6992H54.9752V53.9608H55.088C55.1857 53.8105 55.321 53.6189 55.4939 53.3859C55.6705 53.1491 55.9223 52.9387 56.2492 52.7545C56.5799 52.5666 57.0271 52.4727 57.5908 52.4727C58.3199 52.4727 58.9625 52.6549 59.5187 53.0195C60.0749 53.384 60.509 53.9007 60.8209 54.5696C61.1328 55.2386 61.2888 56.0278 61.2888 56.9372C61.2888 57.8542 61.1328 58.649 60.8209 59.3217C60.509 59.9906 60.0768 60.5092 59.5244 60.8775C58.9719 61.2421 58.3349 61.4243 57.6134 61.4243C57.0572 61.4243 56.6119 61.3322 56.2774 61.1481C55.9429 60.9602 55.6855 60.7479 55.5051 60.5111C55.3247 60.2706 55.1857 60.0714 55.088 59.9136H54.9301V61.2439H53.6449ZM54.9527 56.9147C54.9527 57.5686 55.0485 58.1454 55.2402 58.6452C55.4318 59.1413 55.7118 59.5303 56.0801 59.8121C56.4484 60.0902 56.8994 60.2293 57.433 60.2293C57.9892 60.2293 58.4533 60.0827 58.8254 59.7896C59.2012 59.4927 59.483 59.0943 59.6709 58.5945C59.8626 58.0909 59.9584 57.531 59.9584 56.9147C59.9584 56.3059 59.8645 55.7572 59.6766 55.2686C59.4924 54.7763 59.2124 54.3874 58.8366 54.1018C58.4646 53.8124 57.9967 53.6677 57.433 53.6677C56.8918 53.6677 56.4371 53.8049 56.0688 54.0792C55.7005 54.3498 55.4225 54.7294 55.2346 55.2179C55.0466 55.7027 54.9527 56.2683 54.9527 56.9147Z" fill="black"/>
  <path d="M47.5583 61.2439V52.5854H48.8435V53.8932H48.9337C49.0915 53.4647 49.3772 53.1171 49.7905 52.8503C50.2039 52.5835 50.6699 52.4501 51.1885 52.4501C51.2862 52.4501 51.4084 52.452 51.5549 52.4557C51.7015 52.4595 51.8124 52.4651 51.8875 52.4726V53.8255C51.8424 53.8142 51.7391 53.7973 51.5775 53.7748C51.4196 53.7485 51.2524 53.7353 51.0758 53.7353C50.6549 53.7353 50.2791 53.8236 49.9484 54.0003C49.6214 54.1731 49.3621 54.4137 49.1705 54.7218C48.9826 55.0262 48.8886 55.3738 48.8886 55.7647V61.2439H47.5583Z" fill="black"/>
  <path d="M43.5489 49.6992H44.9469V57.3431C44.9469 58.1323 44.7609 58.8369 44.3888 59.457C44.0205 60.0733 43.5001 60.56 42.8274 60.917C42.1547 61.2702 41.3655 61.4469 40.4598 61.4469C39.5541 61.4469 38.7649 61.2702 38.0922 60.917C37.4195 60.56 36.8972 60.0733 36.5251 59.457C36.1568 58.8369 35.9727 58.1323 35.9727 57.3431V49.6992H37.3707V57.2303C37.3707 57.794 37.4947 58.2957 37.7427 58.7354C37.9908 59.1714 38.344 59.5152 38.8025 59.767C39.2647 60.0151 39.8172 60.1391 40.4598 60.1391C41.1024 60.1391 41.6549 60.0151 42.1171 59.767C42.5793 59.5152 42.9326 59.1714 43.1769 58.7354C43.4249 58.2957 43.5489 57.794 43.5489 57.2303V49.6992Z" fill="black"/>
</svg>