<svg width="301" height="59" viewBox="0 0 301 59" fill="none" xmlns="http://www.w3.org/2000/svg">
<line x1="0.508827" y1="8.59814" x2="48.5088" y2="8.59814" stroke="#858385" stroke-width="4" stroke-dasharray="7 7"/>
<path d="M66.0278 4.04814H67.8638V11.9861C67.8638 14.5601 68.7818 15.7481 71.2298 15.7481C73.7318 15.7481 74.6498 14.3621 74.6498 11.7881V4.04814H76.4858V11.6441C76.4858 15.4601 75.0278 17.3321 71.2298 17.3321C67.6118 17.3321 66.0278 15.8561 66.0278 11.7881V4.04814ZM83.9111 7.37814V9.12414C83.5691 9.07014 83.2631 9.05214 82.9931 9.05214C81.4811 9.05214 80.7251 9.88014 80.7251 12.0221V17.0981H79.0871V7.41414H80.6891V9.10614C81.1751 8.00814 82.1471 7.41414 83.4251 7.36014C83.5871 7.36014 83.7131 7.36014 83.9111 7.37814ZM87.0515 12.2921C87.0515 14.8481 88.4195 15.9281 89.8775 15.9281C91.5515 15.9281 92.6495 14.6141 92.6495 12.2921C92.6495 9.97014 91.5515 8.65614 89.8775 8.65614C88.4195 8.65614 87.0515 9.73614 87.0515 12.2921ZM85.4855 4.04814H87.1235V8.94414C87.7175 7.91814 88.7255 7.25214 90.2915 7.25214C92.5235 7.25214 94.4315 9.12414 94.4315 12.2921C94.4315 15.5141 92.5235 17.3321 90.2915 17.3321C88.7255 17.3321 87.7175 16.6661 87.1235 15.6401V17.0981H85.4855V4.04814ZM102.398 13.0481V12.4361C99.428 12.7241 97.538 13.1741 97.538 14.5061C97.538 15.4241 98.24 16.0361 99.41 16.0361C100.94 16.0361 102.398 15.3341 102.398 13.0481ZM99.05 17.3321C97.232 17.3321 95.72 16.3241 95.72 14.5421C95.72 12.2561 98.312 11.5721 102.272 11.1401V10.9061C102.272 9.12414 101.3 8.54814 100.076 8.54814C98.708 8.54814 97.934 9.26814 97.862 10.4741H96.17C96.314 8.38614 98.186 7.21614 100.058 7.21614C102.74 7.21614 103.928 8.47614 103.91 11.2121L103.892 13.4441C103.874 15.0821 103.946 16.1801 104.144 17.0981H102.488C102.434 16.7381 102.38 16.3421 102.362 15.7661C101.768 16.7741 100.778 17.3321 99.05 17.3321ZM107.989 7.41414V8.87214C108.547 7.95414 109.483 7.25214 111.121 7.25214C113.461 7.25214 114.307 8.76414 114.307 10.9781V17.0981H112.669V11.4641C112.669 9.97014 112.417 8.67414 110.545 8.67414C108.961 8.67414 107.989 9.75414 107.989 11.8421V17.0981H106.351V7.41414H107.989ZM130.442 12.9401H132.224C131.648 15.8201 129.398 17.3321 126.572 17.3321C122.828 17.3321 120.65 14.5061 120.65 10.5461C120.65 6.51414 123.044 3.81414 126.716 3.81414C129.416 3.81414 131.576 5.41614 132.152 8.20614H130.37C129.992 6.56814 128.696 5.36214 126.626 5.36214C124.322 5.36214 122.522 7.16214 122.522 10.5461C122.522 13.8581 124.25 15.7841 126.68 15.7841C128.768 15.7841 130.028 14.6141 130.442 12.9401ZM135.727 4.04814V17.0981H134.089V4.04814H135.727ZM144.319 17.0981V15.7121C143.761 16.6301 142.879 17.3321 141.277 17.3321C139.045 17.3321 138.181 15.8201 138.181 13.6061V7.41414H139.819V13.1201C139.819 14.6141 140.053 15.9101 141.853 15.9101C143.419 15.9101 144.319 14.8301 144.319 12.7421V7.41414H145.957V17.0981H144.319ZM155.81 10.2401H154.1C153.83 9.08814 152.966 8.63814 151.814 8.63814C150.86 8.63814 149.78 8.98014 149.78 9.86214C149.78 10.6361 150.32 10.9781 151.256 11.1761L152.624 11.4461C154.388 11.7701 155.936 12.4721 155.936 14.3261C155.936 16.2521 154.208 17.3321 151.994 17.3321C149.456 17.3321 148.034 15.6581 147.836 13.9661H149.564C149.834 15.2081 150.59 15.9461 152.03 15.9461C153.272 15.9461 154.28 15.4241 154.28 14.5061C154.28 13.5161 153.362 13.1381 152.318 12.9041L150.878 12.6161C149.564 12.3281 148.124 11.7521 148.124 9.93414C148.124 8.22414 149.852 7.23414 151.994 7.23414C154.1 7.23414 155.504 8.38614 155.81 10.2401ZM158.481 7.41414V4.98414H160.119V7.41414H161.955V8.72814H160.119V14.4701C160.119 15.4781 160.191 15.7301 161.127 15.7301H161.955V17.0981H160.767C158.913 17.0981 158.481 16.6841 158.481 14.6681V8.72814H156.951V7.41414H158.481ZM172.328 12.7961H164.876C164.93 14.8841 166.442 15.8921 167.864 15.8921C169.304 15.8921 170.096 15.2441 170.51 14.2901H172.202C171.77 15.9461 170.222 17.3321 167.864 17.3321C164.804 17.3321 163.112 15.1361 163.112 12.2741C163.112 9.19614 165.164 7.25214 167.81 7.25214C170.78 7.25214 172.526 9.71814 172.328 12.7961ZM167.81 8.65614C166.37 8.65614 165.038 9.44814 164.894 11.3921H170.6C170.546 10.0241 169.556 8.65614 167.81 8.65614ZM179.061 7.37814V9.12414C178.719 9.07014 178.413 9.05214 178.143 9.05214C176.631 9.05214 175.875 9.88014 175.875 12.0221V17.0981H174.237V7.41414H175.839V9.10614C176.325 8.00814 177.297 7.41414 178.575 7.36014C178.737 7.36014 178.863 7.36014 179.061 7.37814Z" fill="black"/>
<circle cx="2.50883" cy="47.5981" r="2" fill="#F51313"/>
<rect x="14.5088" y="45.5981" width="20" height="4" fill="#F51313"/>
<circle cx="46.5088" cy="47.5981" r="2" fill="#F51313"/>
<path d="M75.7179 49.9401H77.4999C76.9239 52.8201 74.6739 54.3321 71.8479 54.3321C68.1039 54.3321 65.9259 51.5061 65.9259 47.5461C65.9259 43.5141 68.3199 40.8141 71.9919 40.8141C74.6919 40.8141 76.8519 42.4161 77.4279 45.2061H75.6459C75.2679 43.5681 73.9719 42.3621 71.9019 42.3621C69.5979 42.3621 67.7979 44.1621 67.7979 47.5461C67.7979 50.8581 69.5259 52.7841 71.9559 52.7841C74.0439 52.7841 75.3039 51.6141 75.7179 49.9401ZM79.3644 44.4141H81.0024V54.0981H79.3644V44.4141ZM79.3644 41.0481H81.0024V43.0281H79.3644V41.0481ZM84.0687 44.4141V41.9841H85.7067V44.4141H87.5427V45.7281H85.7067V51.4701C85.7067 52.4781 85.7787 52.7301 86.7147 52.7301H87.5427V54.0981H86.3547C84.5007 54.0981 84.0687 53.6841 84.0687 51.6681V45.7281H82.5387V44.4141H84.0687ZM94.8362 44.4141H96.5462L93.0902 54.5121C92.3702 56.6001 91.9022 57.2481 89.7242 57.2481H88.8782V55.8801H89.5442C90.6242 55.8801 91.1462 55.8081 91.5782 54.2961L91.6502 54.0981L88.1582 44.4141H89.9762L92.4422 51.8841L94.8362 44.4141ZM98.0646 43.1181V41.0481H100.135V43.2621L99.0366 45.6201H97.9926L98.9466 43.1181H98.0646ZM108.96 47.2401H107.25C106.98 46.0881 106.116 45.6381 104.964 45.6381C104.01 45.6381 102.93 45.9801 102.93 46.8621C102.93 47.6361 103.47 47.9781 104.406 48.1761L105.774 48.4461C107.538 48.7701 109.086 49.4721 109.086 51.3261C109.086 53.2521 107.358 54.3321 105.144 54.3321C102.606 54.3321 101.184 52.6581 100.986 50.9661H102.714C102.984 52.2081 103.74 52.9461 105.18 52.9461C106.422 52.9461 107.43 52.4241 107.43 51.5061C107.43 50.5161 106.512 50.1381 105.468 49.9041L104.028 49.6161C102.714 49.3281 101.274 48.7521 101.274 46.9341C101.274 45.2241 103.002 44.2341 105.144 44.2341C107.25 44.2341 108.654 45.3861 108.96 47.2401ZM121.537 50.0481V49.4361C118.567 49.7241 116.677 50.1741 116.677 51.5061C116.677 52.4241 117.379 53.0361 118.549 53.0361C120.079 53.0361 121.537 52.3341 121.537 50.0481ZM118.189 54.3321C116.371 54.3321 114.859 53.3241 114.859 51.5421C114.859 49.2561 117.451 48.5721 121.411 48.1401V47.9061C121.411 46.1241 120.439 45.5481 119.215 45.5481C117.847 45.5481 117.073 46.2681 117.001 47.4741H115.309C115.453 45.3861 117.325 44.2161 119.197 44.2161C121.879 44.2161 123.067 45.4761 123.049 48.2121L123.031 50.4441C123.013 52.0821 123.085 53.1801 123.283 54.0981H121.627C121.573 53.7381 121.519 53.3421 121.501 52.7661C120.907 53.7741 119.917 54.3321 118.189 54.3321ZM132.131 45.9441V41.0481H133.769V54.0981H132.131V52.6401C131.537 53.6661 130.529 54.3321 128.963 54.3321C126.731 54.3321 124.823 52.5141 124.823 49.2921C124.823 46.1241 126.731 44.2521 128.963 44.2521C130.529 44.2521 131.537 44.9181 132.131 45.9441ZM132.203 49.2921C132.203 46.7361 130.835 45.6561 129.377 45.6561C127.703 45.6561 126.605 46.9701 126.605 49.2921C126.605 51.6141 127.703 52.9281 129.377 52.9281C130.835 52.9281 132.203 51.8481 132.203 49.2921ZM137.991 48.8421V54.0981H136.353V44.4141H137.991V45.8721C138.549 44.9541 139.449 44.2521 140.907 44.2521C142.401 44.2521 143.265 44.8821 143.697 45.9621C144.471 44.7561 145.587 44.2521 146.955 44.2521C149.205 44.2521 150.087 45.7641 150.087 47.9781V54.0981H148.449V48.4641C148.449 46.9701 148.161 45.6741 146.379 45.6741C144.957 45.6741 144.039 46.7541 144.039 48.8421V54.0981H142.401V48.4641C142.401 46.9701 142.113 45.6741 140.331 45.6741C138.909 45.6741 137.991 46.7541 137.991 48.8421ZM152.542 44.4141H154.18V54.0981H152.542V44.4141ZM152.542 41.0481H154.18V43.0281H152.542V41.0481ZM158.416 44.4141V45.8721C158.974 44.9541 159.91 44.2521 161.548 44.2521C163.888 44.2521 164.734 45.7641 164.734 47.9781V54.0981H163.096V48.4641C163.096 46.9701 162.844 45.6741 160.972 45.6741C159.388 45.6741 158.416 46.7541 158.416 48.8421V54.0981H156.778V44.4141H158.416ZM167.185 44.4141H168.823V54.0981H167.185V44.4141ZM167.185 41.0481H168.823V43.0281H167.185V41.0481ZM178.675 47.2401H176.965C176.695 46.0881 175.831 45.6381 174.679 45.6381C173.725 45.6381 172.645 45.9801 172.645 46.8621C172.645 47.6361 173.185 47.9781 174.121 48.1761L175.489 48.4461C177.253 48.7701 178.801 49.4721 178.801 51.3261C178.801 53.2521 177.073 54.3321 174.859 54.3321C172.321 54.3321 170.899 52.6581 170.701 50.9661H172.429C172.699 52.2081 173.455 52.9461 174.895 52.9461C176.137 52.9461 177.145 52.4241 177.145 51.5061C177.145 50.5161 176.227 50.1381 175.183 49.9041L173.743 49.6161C172.429 49.3281 170.989 48.7521 170.989 46.9341C170.989 45.2241 172.717 44.2341 174.859 44.2341C176.965 44.2341 178.369 45.3861 178.675 47.2401ZM181.346 44.4141V41.9841H182.984V44.4141H184.82V45.7281H182.984V51.4701C182.984 52.4781 183.056 52.7301 183.992 52.7301H184.82V54.0981H183.632C181.778 54.0981 181.346 53.6841 181.346 51.6681V45.7281H179.816V44.4141H181.346ZM191.556 44.3781V46.1241C191.214 46.0701 190.908 46.0521 190.638 46.0521C189.126 46.0521 188.37 46.8801 188.37 49.0221V54.0981H186.732V44.4141H188.334V46.1061C188.82 45.0081 189.792 44.4141 191.07 44.3601C191.232 44.3601 191.358 44.3601 191.556 44.3781ZM198.88 50.0481V49.4361C195.91 49.7241 194.02 50.1741 194.02 51.5061C194.02 52.4241 194.722 53.0361 195.892 53.0361C197.422 53.0361 198.88 52.3341 198.88 50.0481ZM195.532 54.3321C193.714 54.3321 192.202 53.3241 192.202 51.5421C192.202 49.2561 194.794 48.5721 198.754 48.1401V47.9061C198.754 46.1241 197.782 45.5481 196.558 45.5481C195.19 45.5481 194.416 46.2681 194.344 47.4741H192.652C192.796 45.3861 194.668 44.2161 196.54 44.2161C199.222 44.2161 200.41 45.4761 200.392 48.2121L200.374 50.4441C200.356 52.0821 200.428 53.1801 200.626 54.0981H198.97C198.916 53.7381 198.862 53.3421 198.844 52.7661C198.25 53.7741 197.26 54.3321 195.532 54.3321ZM203.301 44.4141V41.9841H204.939V44.4141H206.775V45.7281H204.939V51.4701C204.939 52.4781 205.011 52.7301 205.947 52.7301H206.775V54.0981H205.587C203.733 54.0981 203.301 53.6841 203.301 51.6681V45.7281H201.771V44.4141H203.301ZM208.862 44.4141H210.5V54.0981H208.862V44.4141ZM208.862 41.0481H210.5V43.0281H208.862V41.0481ZM213.621 44.4141L216.249 51.8301L218.877 44.4141H220.569L216.915 54.0981H215.457L211.803 44.4141H213.621ZM230.244 49.7961H222.792C222.846 51.8841 224.358 52.8921 225.78 52.8921C227.22 52.8921 228.012 52.2441 228.426 51.2901H230.118C229.686 52.9461 228.138 54.3321 225.78 54.3321C222.72 54.3321 221.028 52.1361 221.028 49.2741C221.028 46.1961 223.08 44.2521 225.726 44.2521C228.696 44.2521 230.442 46.7181 230.244 49.7961ZM225.726 45.6561C224.286 45.6561 222.954 46.4481 222.81 48.3921H228.516C228.462 47.0241 227.472 45.6561 225.726 45.6561ZM237.991 49.2921C237.991 51.8481 239.359 52.9281 240.817 52.9281C242.491 52.9281 243.589 51.6141 243.589 49.2921C243.589 46.9701 242.491 45.6561 240.817 45.6561C239.359 45.6561 237.991 46.7361 237.991 49.2921ZM236.425 41.0481H238.063V45.9441C238.657 44.9181 239.665 44.2521 241.231 44.2521C243.463 44.2521 245.371 46.1241 245.371 49.2921C245.371 52.5141 243.463 54.3321 241.231 54.3321C239.665 54.3321 238.657 53.6661 238.063 52.6401V54.0981H236.425V41.0481ZM248.492 49.2921C248.492 51.8841 249.896 52.8921 251.39 52.8921C252.884 52.8921 254.288 51.7761 254.288 49.2921C254.288 46.7001 252.884 45.6921 251.39 45.6921C249.896 45.6921 248.492 46.6461 248.492 49.2921ZM251.39 44.2521C253.64 44.2521 256.034 45.7821 256.034 49.2921C256.034 52.8021 253.64 54.3321 251.39 54.3321C249.14 54.3321 246.746 52.8021 246.746 49.2921C246.746 45.7821 249.14 44.2521 251.39 44.2521ZM262.817 44.3781V46.1241C262.475 46.0701 262.169 46.0521 261.899 46.0521C260.387 46.0521 259.631 46.8801 259.631 49.0221V54.0981H257.993V44.4141H259.595V46.1061C260.081 45.0081 261.053 44.4141 262.331 44.3601C262.493 44.3601 262.619 44.3601 262.817 44.3781ZM270.858 45.9441V41.0481H272.496V54.0981H270.858V52.6401C270.264 53.6661 269.256 54.3321 267.69 54.3321C265.458 54.3321 263.55 52.5141 263.55 49.2921C263.55 46.1241 265.458 44.2521 267.69 44.2521C269.256 44.2521 270.264 44.9181 270.858 45.9441ZM270.93 49.2921C270.93 46.7361 269.562 45.6561 268.104 45.6561C266.43 45.6561 265.332 46.9701 265.332 49.2921C265.332 51.6141 266.43 52.9281 268.104 52.9281C269.562 52.9281 270.93 51.8481 270.93 49.2921ZM283.629 49.7961H276.177C276.231 51.8841 277.743 52.8921 279.165 52.8921C280.605 52.8921 281.397 52.2441 281.811 51.2901H283.503C283.071 52.9461 281.523 54.3321 279.165 54.3321C276.105 54.3321 274.413 52.1361 274.413 49.2741C274.413 46.1961 276.465 44.2521 279.111 44.2521C282.081 44.2521 283.827 46.7181 283.629 49.7961ZM279.111 45.6561C277.671 45.6561 276.339 46.4481 276.195 48.3921H281.901C281.847 47.0241 280.857 45.6561 279.111 45.6561ZM290.362 44.3781V46.1241C290.02 46.0701 289.714 46.0521 289.444 46.0521C287.932 46.0521 287.176 46.8801 287.176 49.0221V54.0981H285.538V44.4141H287.14V46.1061C287.626 45.0081 288.598 44.4141 289.876 44.3601C290.038 44.3601 290.164 44.3601 290.362 44.3781ZM299.103 47.2401H297.393C297.123 46.0881 296.259 45.6381 295.107 45.6381C294.153 45.6381 293.073 45.9801 293.073 46.8621C293.073 47.6361 293.613 47.9781 294.549 48.1761L295.917 48.4461C297.681 48.7701 299.229 49.4721 299.229 51.3261C299.229 53.2521 297.501 54.3321 295.287 54.3321C292.749 54.3321 291.327 52.6581 291.129 50.9661H292.857C293.127 52.2081 293.883 52.9461 295.323 52.9461C296.565 52.9461 297.573 52.4241 297.573 51.5061C297.573 50.5161 296.655 50.1381 295.611 49.9041L294.171 49.6161C292.857 49.3281 291.417 48.7521 291.417 46.9341C291.417 45.2241 293.145 44.2341 295.287 44.2341C297.393 44.2341 298.797 45.3861 299.103 47.2401Z" fill="black"/>
</svg>
