<svg width="337" height="59" viewBox="0 0 337 59" fill="none" xmlns="http://www.w3.org/2000/svg">
<line x1="0.508827" y1="8.59814" x2="84.2759" y2="8.59814" stroke="#717172" stroke-width="4" stroke-dasharray="7 7"/>
<path d="M101.795 4.04814H103.631V11.9861C103.631 14.5601 104.549 15.7481 106.997 15.7481C109.499 15.7481 110.417 14.3621 110.417 11.7881V4.04814H112.253V11.6441C112.253 15.4601 110.795 17.3321 106.997 17.3321C103.379 17.3321 101.795 15.8561 101.795 11.7881V4.04814ZM119.678 7.37814V9.12414C119.336 9.07014 119.03 9.05214 118.76 9.05214C117.248 9.05214 116.492 9.88014 116.492 12.0221V17.0981H114.854V7.41414H116.456V9.10614C116.942 8.00814 117.914 7.41414 119.192 7.36014C119.354 7.36014 119.48 7.36014 119.678 7.37814ZM122.819 12.2921C122.819 14.8481 124.187 15.9281 125.645 15.9281C127.319 15.9281 128.417 14.6141 128.417 12.2921C128.417 9.97014 127.319 8.65614 125.645 8.65614C124.187 8.65614 122.819 9.73614 122.819 12.2921ZM121.253 4.04814H122.891V8.94414C123.485 7.91814 124.493 7.25214 126.059 7.25214C128.291 7.25214 130.199 9.12414 130.199 12.2921C130.199 15.5141 128.291 17.3321 126.059 17.3321C124.493 17.3321 123.485 16.6661 122.891 15.6401V17.0981H121.253V4.04814ZM138.165 13.0481V12.4361C135.195 12.7241 133.305 13.1741 133.305 14.5061C133.305 15.4241 134.007 16.0361 135.177 16.0361C136.707 16.0361 138.165 15.3341 138.165 13.0481ZM134.817 17.3321C132.999 17.3321 131.487 16.3241 131.487 14.5421C131.487 12.2561 134.079 11.5721 138.039 11.1401V10.9061C138.039 9.12414 137.067 8.54814 135.843 8.54814C134.475 8.54814 133.701 9.26814 133.629 10.4741H131.937C132.081 8.38614 133.953 7.21614 135.825 7.21614C138.507 7.21614 139.695 8.47614 139.677 11.2121L139.659 13.4441C139.641 15.0821 139.713 16.1801 139.911 17.0981H138.255C138.201 16.7381 138.147 16.3421 138.129 15.7661C137.535 16.7741 136.545 17.3321 134.817 17.3321ZM143.756 7.41414V8.87214C144.314 7.95414 145.25 7.25214 146.888 7.25214C149.228 7.25214 150.074 8.76414 150.074 10.9781V17.0981H148.436V11.4641C148.436 9.97014 148.184 8.67414 146.312 8.67414C144.728 8.67414 143.756 9.75414 143.756 11.8421V17.0981H142.118V7.41414H143.756ZM166.209 12.9401H167.991C167.415 15.8201 165.165 17.3321 162.339 17.3321C158.595 17.3321 156.417 14.5061 156.417 10.5461C156.417 6.51414 158.811 3.81414 162.483 3.81414C165.183 3.81414 167.343 5.41614 167.919 8.20614H166.137C165.759 6.56814 164.463 5.36214 162.393 5.36214C160.089 5.36214 158.289 7.16214 158.289 10.5461C158.289 13.8581 160.017 15.7841 162.447 15.7841C164.535 15.7841 165.795 14.6141 166.209 12.9401ZM171.494 4.04814V17.0981H169.856V4.04814H171.494ZM180.086 17.0981V15.7121C179.528 16.6301 178.646 17.3321 177.044 17.3321C174.812 17.3321 173.948 15.8201 173.948 13.6061V7.41414H175.586V13.1201C175.586 14.6141 175.82 15.9101 177.62 15.9101C179.186 15.9101 180.086 14.8301 180.086 12.7421V7.41414H181.724V17.0981H180.086ZM191.577 10.2401H189.867C189.597 9.08814 188.733 8.63814 187.581 8.63814C186.627 8.63814 185.547 8.98014 185.547 9.86214C185.547 10.6361 186.087 10.9781 187.023 11.1761L188.391 11.4461C190.155 11.7701 191.703 12.4721 191.703 14.3261C191.703 16.2521 189.975 17.3321 187.761 17.3321C185.223 17.3321 183.801 15.6581 183.603 13.9661H185.331C185.601 15.2081 186.357 15.9461 187.797 15.9461C189.039 15.9461 190.047 15.4241 190.047 14.5061C190.047 13.5161 189.129 13.1381 188.085 12.9041L186.645 12.6161C185.331 12.3281 183.891 11.7521 183.891 9.93414C183.891 8.22414 185.619 7.23414 187.761 7.23414C189.867 7.23414 191.271 8.38614 191.577 10.2401ZM194.248 7.41414V4.98414H195.886V7.41414H197.722V8.72814H195.886V14.4701C195.886 15.4781 195.958 15.7301 196.894 15.7301H197.722V17.0981H196.534C194.68 17.0981 194.248 16.6841 194.248 14.6681V8.72814H192.718V7.41414H194.248ZM208.095 12.7961H200.643C200.697 14.8841 202.209 15.8921 203.631 15.8921C205.071 15.8921 205.863 15.2441 206.277 14.2901H207.969C207.537 15.9461 205.989 17.3321 203.631 17.3321C200.571 17.3321 198.879 15.1361 198.879 12.2741C198.879 9.19614 200.931 7.25214 203.577 7.25214C206.547 7.25214 208.293 9.71814 208.095 12.7961ZM203.577 8.65614C202.137 8.65614 200.805 9.44814 200.661 11.3921H206.367C206.313 10.0241 205.323 8.65614 203.577 8.65614ZM214.828 7.37814V9.12414C214.486 9.07014 214.18 9.05214 213.91 9.05214C212.398 9.05214 211.642 9.88014 211.642 12.0221V17.0981H210.004V7.41414H211.606V9.10614C212.092 8.00814 213.064 7.41414 214.342 7.36014C214.504 7.36014 214.63 7.36014 214.828 7.37814Z" fill="black"/>
<line x1="0.508827" y1="45.5981" x2="84.7327" y2="45.5981" stroke="#F83C3C" stroke-width="4" stroke-dasharray="7 7"/>
<path d="M111.942 49.9401H113.724C113.148 52.8201 110.898 54.3321 108.072 54.3321C104.328 54.3321 102.15 51.5061 102.15 47.5461C102.15 43.5141 104.544 40.8141 108.216 40.8141C110.916 40.8141 113.076 42.4161 113.652 45.2061H111.87C111.492 43.5681 110.196 42.3621 108.126 42.3621C105.822 42.3621 104.022 44.1621 104.022 47.5461C104.022 50.8581 105.75 52.7841 108.18 52.7841C110.268 52.7841 111.528 51.6141 111.942 49.9401ZM115.588 44.4141H117.226V54.0981H115.588V44.4141ZM115.588 41.0481H117.226V43.0281H115.588V41.0481ZM120.293 44.4141V41.9841H121.931V44.4141H123.767V45.7281H121.931V51.4701C121.931 52.4781 122.003 52.7301 122.939 52.7301H123.767V54.0981H122.579C120.725 54.0981 120.293 53.6841 120.293 51.6681V45.7281H118.763V44.4141H120.293ZM131.06 44.4141H132.77L129.314 54.5121C128.594 56.6001 128.126 57.2481 125.948 57.2481H125.102V55.8801H125.768C126.848 55.8801 127.37 55.8081 127.802 54.2961L127.874 54.0981L124.382 44.4141H126.2L128.666 51.8841L131.06 44.4141ZM134.288 43.1181V41.0481H136.358V43.2621L135.26 45.6201H134.216L135.17 43.1181H134.288ZM145.184 47.2401H143.474C143.204 46.0881 142.34 45.6381 141.188 45.6381C140.234 45.6381 139.154 45.9801 139.154 46.8621C139.154 47.6361 139.694 47.9781 140.63 48.1761L141.998 48.4461C143.762 48.7701 145.31 49.4721 145.31 51.3261C145.31 53.2521 143.582 54.3321 141.368 54.3321C138.83 54.3321 137.408 52.6581 137.21 50.9661H138.938C139.208 52.2081 139.964 52.9461 141.404 52.9461C142.646 52.9461 143.654 52.4241 143.654 51.5061C143.654 50.5161 142.736 50.1381 141.692 49.9041L140.252 49.6161C138.938 49.3281 137.498 48.7521 137.498 46.9341C137.498 45.2241 139.226 44.2341 141.368 44.2341C143.474 44.2341 144.878 45.3861 145.184 47.2401ZM157.761 50.0481V49.4361C154.791 49.7241 152.901 50.1741 152.901 51.5061C152.901 52.4241 153.603 53.0361 154.773 53.0361C156.303 53.0361 157.761 52.3341 157.761 50.0481ZM154.413 54.3321C152.595 54.3321 151.083 53.3241 151.083 51.5421C151.083 49.2561 153.675 48.5721 157.635 48.1401V47.9061C157.635 46.1241 156.663 45.5481 155.439 45.5481C154.071 45.5481 153.297 46.2681 153.225 47.4741H151.533C151.677 45.3861 153.549 44.2161 155.421 44.2161C158.103 44.2161 159.291 45.4761 159.273 48.2121L159.255 50.4441C159.237 52.0821 159.309 53.1801 159.507 54.0981H157.851C157.797 53.7381 157.743 53.3421 157.725 52.7661C157.131 53.7741 156.141 54.3321 154.413 54.3321ZM168.355 45.9441V41.0481H169.993V54.0981H168.355V52.6401C167.761 53.6661 166.753 54.3321 165.187 54.3321C162.955 54.3321 161.047 52.5141 161.047 49.2921C161.047 46.1241 162.955 44.2521 165.187 44.2521C166.753 44.2521 167.761 44.9181 168.355 45.9441ZM168.427 49.2921C168.427 46.7361 167.059 45.6561 165.601 45.6561C163.927 45.6561 162.829 46.9701 162.829 49.2921C162.829 51.6141 163.927 52.9281 165.601 52.9281C167.059 52.9281 168.427 51.8481 168.427 49.2921ZM174.215 48.8421V54.0981H172.577V44.4141H174.215V45.8721C174.773 44.9541 175.673 44.2521 177.131 44.2521C178.625 44.2521 179.489 44.8821 179.921 45.9621C180.695 44.7561 181.811 44.2521 183.179 44.2521C185.429 44.2521 186.311 45.7641 186.311 47.9781V54.0981H184.673V48.4641C184.673 46.9701 184.385 45.6741 182.603 45.6741C181.181 45.6741 180.263 46.7541 180.263 48.8421V54.0981H178.625V48.4641C178.625 46.9701 178.337 45.6741 176.555 45.6741C175.133 45.6741 174.215 46.7541 174.215 48.8421ZM188.766 44.4141H190.404V54.0981H188.766V44.4141ZM188.766 41.0481H190.404V43.0281H188.766V41.0481ZM194.64 44.4141V45.8721C195.198 44.9541 196.134 44.2521 197.772 44.2521C200.112 44.2521 200.958 45.7641 200.958 47.9781V54.0981H199.32V48.4641C199.32 46.9701 199.068 45.6741 197.196 45.6741C195.612 45.6741 194.64 46.7541 194.64 48.8421V54.0981H193.002V44.4141H194.64ZM203.409 44.4141H205.047V54.0981H203.409V44.4141ZM203.409 41.0481H205.047V43.0281H203.409V41.0481ZM214.899 47.2401H213.189C212.919 46.0881 212.055 45.6381 210.903 45.6381C209.949 45.6381 208.869 45.9801 208.869 46.8621C208.869 47.6361 209.409 47.9781 210.345 48.1761L211.713 48.4461C213.477 48.7701 215.025 49.4721 215.025 51.3261C215.025 53.2521 213.297 54.3321 211.083 54.3321C208.545 54.3321 207.123 52.6581 206.925 50.9661H208.653C208.923 52.2081 209.679 52.9461 211.119 52.9461C212.361 52.9461 213.369 52.4241 213.369 51.5061C213.369 50.5161 212.451 50.1381 211.407 49.9041L209.967 49.6161C208.653 49.3281 207.213 48.7521 207.213 46.9341C207.213 45.2241 208.941 44.2341 211.083 44.2341C213.189 44.2341 214.593 45.3861 214.899 47.2401ZM217.57 44.4141V41.9841H219.208V44.4141H221.044V45.7281H219.208V51.4701C219.208 52.4781 219.28 52.7301 220.216 52.7301H221.044V54.0981H219.856C218.002 54.0981 217.57 53.6841 217.57 51.6681V45.7281H216.04V44.4141H217.57ZM227.78 44.3781V46.1241C227.438 46.0701 227.132 46.0521 226.862 46.0521C225.35 46.0521 224.594 46.8801 224.594 49.0221V54.0981H222.956V44.4141H224.558V46.1061C225.044 45.0081 226.016 44.4141 227.294 44.3601C227.456 44.3601 227.582 44.3601 227.78 44.3781ZM235.104 50.0481V49.4361C232.134 49.7241 230.244 50.1741 230.244 51.5061C230.244 52.4241 230.946 53.0361 232.116 53.0361C233.646 53.0361 235.104 52.3341 235.104 50.0481ZM231.756 54.3321C229.938 54.3321 228.426 53.3241 228.426 51.5421C228.426 49.2561 231.018 48.5721 234.978 48.1401V47.9061C234.978 46.1241 234.006 45.5481 232.782 45.5481C231.414 45.5481 230.64 46.2681 230.568 47.4741H228.876C229.02 45.3861 230.892 44.2161 232.764 44.2161C235.446 44.2161 236.634 45.4761 236.616 48.2121L236.598 50.4441C236.58 52.0821 236.652 53.1801 236.85 54.0981H235.194C235.14 53.7381 235.086 53.3421 235.068 52.7661C234.474 53.7741 233.484 54.3321 231.756 54.3321ZM239.525 44.4141V41.9841H241.163V44.4141H242.999V45.7281H241.163V51.4701C241.163 52.4781 241.235 52.7301 242.171 52.7301H242.999V54.0981H241.811C239.957 54.0981 239.525 53.6841 239.525 51.6681V45.7281H237.995V44.4141H239.525ZM245.086 44.4141H246.724V54.0981H245.086V44.4141ZM245.086 41.0481H246.724V43.0281H245.086V41.0481ZM249.845 44.4141L252.473 51.8301L255.101 44.4141H256.793L253.139 54.0981H251.681L248.027 44.4141H249.845ZM266.468 49.7961H259.016C259.07 51.8841 260.582 52.8921 262.004 52.8921C263.444 52.8921 264.236 52.2441 264.65 51.2901H266.342C265.91 52.9461 264.362 54.3321 262.004 54.3321C258.944 54.3321 257.252 52.1361 257.252 49.2741C257.252 46.1961 259.304 44.2521 261.95 44.2521C264.92 44.2521 266.666 46.7181 266.468 49.7961ZM261.95 45.6561C260.51 45.6561 259.178 46.4481 259.034 48.3921H264.74C264.686 47.0241 263.696 45.6561 261.95 45.6561ZM274.215 49.2921C274.215 51.8481 275.583 52.9281 277.041 52.9281C278.715 52.9281 279.813 51.6141 279.813 49.2921C279.813 46.9701 278.715 45.6561 277.041 45.6561C275.583 45.6561 274.215 46.7361 274.215 49.2921ZM272.649 41.0481H274.287V45.9441C274.881 44.9181 275.889 44.2521 277.455 44.2521C279.687 44.2521 281.595 46.1241 281.595 49.2921C281.595 52.5141 279.687 54.3321 277.455 54.3321C275.889 54.3321 274.881 53.6661 274.287 52.6401V54.0981H272.649V41.0481ZM284.716 49.2921C284.716 51.8841 286.12 52.8921 287.614 52.8921C289.108 52.8921 290.512 51.7761 290.512 49.2921C290.512 46.7001 289.108 45.6921 287.614 45.6921C286.12 45.6921 284.716 46.6461 284.716 49.2921ZM287.614 44.2521C289.864 44.2521 292.258 45.7821 292.258 49.2921C292.258 52.8021 289.864 54.3321 287.614 54.3321C285.364 54.3321 282.97 52.8021 282.97 49.2921C282.97 45.7821 285.364 44.2521 287.614 44.2521ZM299.041 44.3781V46.1241C298.699 46.0701 298.393 46.0521 298.123 46.0521C296.611 46.0521 295.855 46.8801 295.855 49.0221V54.0981H294.217V44.4141H295.819V46.1061C296.305 45.0081 297.277 44.4141 298.555 44.3601C298.717 44.3601 298.843 44.3601 299.041 44.3781ZM307.082 45.9441V41.0481H308.72V54.0981H307.082V52.6401C306.488 53.6661 305.48 54.3321 303.914 54.3321C301.682 54.3321 299.774 52.5141 299.774 49.2921C299.774 46.1241 301.682 44.2521 303.914 44.2521C305.48 44.2521 306.488 44.9181 307.082 45.9441ZM307.154 49.2921C307.154 46.7361 305.786 45.6561 304.328 45.6561C302.654 45.6561 301.556 46.9701 301.556 49.2921C301.556 51.6141 302.654 52.9281 304.328 52.9281C305.786 52.9281 307.154 51.8481 307.154 49.2921ZM319.853 49.7961H312.401C312.455 51.8841 313.967 52.8921 315.389 52.8921C316.829 52.8921 317.621 52.2441 318.035 51.2901H319.727C319.295 52.9461 317.747 54.3321 315.389 54.3321C312.329 54.3321 310.637 52.1361 310.637 49.2741C310.637 46.1961 312.689 44.2521 315.335 44.2521C318.305 44.2521 320.051 46.7181 319.853 49.7961ZM315.335 45.6561C313.895 45.6561 312.563 46.4481 312.419 48.3921H318.125C318.071 47.0241 317.081 45.6561 315.335 45.6561ZM326.586 44.3781V46.1241C326.244 46.0701 325.938 46.0521 325.668 46.0521C324.156 46.0521 323.4 46.8801 323.4 49.0221V54.0981H321.762V44.4141H323.364V46.1061C323.85 45.0081 324.822 44.4141 326.1 44.3601C326.262 44.3601 326.388 44.3601 326.586 44.3781ZM335.327 47.2401H333.617C333.347 46.0881 332.483 45.6381 331.331 45.6381C330.377 45.6381 329.297 45.9801 329.297 46.8621C329.297 47.6361 329.837 47.9781 330.773 48.1761L332.141 48.4461C333.905 48.7701 335.453 49.4721 335.453 51.3261C335.453 53.2521 333.725 54.3321 331.511 54.3321C328.973 54.3321 327.551 52.6581 327.353 50.9661H329.081C329.351 52.2081 330.107 52.9461 331.547 52.9461C332.789 52.9461 333.797 52.4241 333.797 51.5061C333.797 50.5161 332.879 50.1381 331.835 49.9041L330.395 49.6161C329.081 49.3281 327.641 48.7521 327.641 46.9341C327.641 45.2241 329.369 44.2341 331.511 44.2341C333.617 44.2341 335.021 45.3861 335.327 47.2401Z" fill="black"/>
</svg>
