<svg width="156" height="181" viewBox="0 0 156 181" fill="none" xmlns="http://www.w3.org/2000/svg">
  <path d="M45.2758 32.7223V31.7079L49.0855 27.5375C49.5326 27.049 49.9008 26.6245 50.1901 26.2638C50.4794 25.8994 50.6936 25.5575 50.8326 25.2381C50.9753 24.915 51.0467 24.5769 51.0467 24.2237C51.0467 23.8179 50.949 23.4666 50.7537 23.1698C50.5621 22.873 50.2991 22.6438 49.9647 22.4823C49.6303 22.3207 49.2546 22.2399 48.8375 22.2399C48.3942 22.2399 48.0072 22.332 47.6766 22.5161C47.3497 22.6964 47.0961 22.95 46.9158 23.2769C46.7392 23.6038 46.6509 23.987 46.6509 24.4266H45.3209C45.3209 23.7503 45.4768 23.1567 45.7887 22.6457C46.1005 22.1347 46.525 21.7365 47.0623 21.4509C47.6033 21.1654 48.2101 21.0226 48.8826 21.0226C49.5589 21.0226 50.1582 21.1654 50.6804 21.4509C51.2027 21.7365 51.6122 22.1216 51.909 22.6063C52.2058 23.0909 52.3542 23.6301 52.3542 24.2237C52.3542 24.6482 52.2772 25.0634 52.1231 25.4692C51.9729 25.8712 51.7099 26.3202 51.3342 26.8161C50.9622 27.3083 50.4456 27.9094 49.7843 28.6195L47.1919 31.3923V31.4824H52.5571V32.7223H45.2758Z" fill="black"/>
  <path d="M31.505 32.7223V24.0659H32.79V25.4185H32.9027C33.083 24.9563 33.3742 24.5975 33.7762 24.342C34.1782 24.0828 34.661 23.9532 35.2246 23.9532C35.7957 23.9532 36.2709 24.0828 36.6504 24.342C37.0336 24.5975 37.3323 24.9563 37.5465 25.4185H37.6366C37.8583 24.9714 38.1908 24.6163 38.6342 24.3533C39.0775 24.0866 39.6091 23.9532 40.2291 23.9532C41.003 23.9532 41.6361 24.1955 42.1283 24.6802C42.6205 25.1611 42.8665 25.9106 42.8665 26.9288V32.7223H41.5365V26.9288C41.5365 26.2901 41.3618 25.8336 41.0124 25.5594C40.663 25.2851 40.2516 25.1479 39.7782 25.1479C39.1695 25.1479 38.698 25.332 38.3636 25.7002C38.0293 26.0647 37.8621 26.5268 37.8621 27.0866V32.7223H36.5095V26.7936C36.5095 26.3014 36.3498 25.905 36.0305 25.6044C35.7111 25.3001 35.2997 25.1479 34.7963 25.1479C34.4506 25.1479 34.1275 25.24 33.8269 25.4241C33.5301 25.6082 33.2897 25.8637 33.1056 26.1905C32.9252 26.5137 32.835 26.8875 32.835 27.312V32.7223H31.505Z" fill="black"/>
  <path d="M29.9284 20.6394L26.2089 34.4581H24.9916L28.7111 20.6394H29.9284Z" fill="black"/>
  <path d="M19.6715 36.1488C19.029 36.1488 18.4768 36.0661 18.0146 35.9008C17.5525 35.7393 17.1674 35.5251 16.8593 35.2583C16.555 34.9954 16.3127 34.7136 16.1323 34.413L17.1918 33.6691C17.312 33.8269 17.4642 34.0072 17.6483 34.2101C17.8324 34.4168 18.0841 34.5952 18.4035 34.7455C18.7266 34.8995 19.1493 34.9766 19.6715 34.9766C20.3703 34.9766 20.9471 34.8075 21.4017 34.4694C21.8563 34.1312 22.0836 33.6015 22.0836 32.8801V31.1218H21.9709C21.8732 31.2796 21.7342 31.4749 21.5538 31.7079C21.3772 31.9371 21.1218 32.1418 20.7874 32.3222C20.4568 32.4987 20.0097 32.587 19.4461 32.587C18.7473 32.587 18.1198 32.4217 17.5638 32.0911C17.0115 31.7605 16.5738 31.2796 16.2507 30.6484C15.9313 30.0172 15.7716 29.2507 15.7716 28.349C15.7716 27.4623 15.9275 26.6902 16.2394 26.0327C16.5512 25.3715 16.9852 24.8605 17.5412 24.4998C18.0973 24.1354 18.7398 23.9532 19.4686 23.9532C20.0322 23.9532 20.4793 24.0471 20.8099 24.235C21.1443 24.4191 21.3998 24.6295 21.5764 24.8662C21.7567 25.0991 21.8957 25.2907 21.9934 25.441H22.1287V24.0659H23.4136V32.9703C23.4136 33.7142 23.2445 34.3191 22.9064 34.785C22.572 35.2546 22.1212 35.5984 21.5538 35.8163C20.9903 36.038 20.3628 36.1488 19.6715 36.1488ZM19.6264 31.3923C20.1599 31.3923 20.6108 31.2702 20.979 31.026C21.3472 30.7817 21.6271 30.4305 21.8187 29.9721C22.0103 29.5137 22.1061 28.9652 22.1061 28.3265C22.1061 27.7028 22.0122 27.1524 21.8243 26.6752C21.6365 26.1981 21.3585 25.8242 20.9903 25.5537C20.6221 25.2832 20.1675 25.1479 19.6264 25.1479C19.0629 25.1479 18.5932 25.2907 18.2175 25.5763C17.8456 25.8618 17.5657 26.245 17.3778 26.7259C17.1937 27.2068 17.1016 27.7404 17.1016 28.3265C17.1016 28.9276 17.1956 29.4592 17.3834 29.9214C17.575 30.3797 17.8568 30.7404 18.2288 31.0034C18.6045 31.2627 19.0704 31.3923 19.6264 31.3923Z" fill="black"/>
  <path d="M2.38409 32.7223V24.0659H3.66902V25.4185H3.78173C3.96208 24.9563 4.25325 24.5975 4.65526 24.342C5.05727 24.0828 5.54006 23.9532 6.10363 23.9532C6.67471 23.9532 7.14999 24.0828 7.52946 24.342C7.91268 24.5975 8.21137 24.9563 8.42553 25.4185H8.5157C8.73737 24.9714 9.06988 24.6163 9.51322 24.3533C9.95656 24.0866 10.4882 23.9532 11.1081 23.9532C11.8821 23.9532 12.5152 24.1955 13.0073 24.6802C13.4995 25.1611 13.7456 25.9106 13.7456 26.9288V32.7223H12.4156V26.9288C12.4156 26.2901 12.2409 25.8336 11.8915 25.5594C11.5421 25.2851 11.1307 25.1479 10.6573 25.1479C10.0486 25.1479 9.57709 25.332 9.2427 25.7002C8.90832 26.0647 8.74113 26.5268 8.74113 27.0866V32.7223H7.38857V26.7936C7.38857 26.3014 7.22889 25.905 6.90953 25.6044C6.59018 25.3001 6.17877 25.1479 5.67532 25.1479C5.32967 25.1479 5.00655 25.24 4.70598 25.4241C4.40917 25.6082 4.16872 25.8637 3.98462 26.1905C3.80428 26.5137 3.71411 26.8875 3.71411 27.312V32.7223H2.38409Z" fill="black"/>
  <path d="M146.6 11.9325L146.504 12.6293C146.44 13.1406 146.332 13.6733 146.178 14.2273C146.029 14.7855 145.874 15.3033 145.712 15.7805C145.554 16.2578 145.424 16.6371 145.322 16.9183H143.967C144.022 16.6541 144.099 16.2962 144.197 15.8445C144.295 15.397 144.391 14.8963 144.484 14.3423C144.578 13.7883 144.648 13.2237 144.695 12.6484L144.759 11.9325H146.6Z" fill="black"/>
  <path d="M137.781 13.9205C136.813 13.9205 135.98 13.7138 135.281 13.3004C134.587 12.8828 134.05 12.2969 133.671 11.5426C133.296 10.7841 133.108 9.89559 133.108 8.87713C133.108 7.87145 133.296 6.98508 133.671 6.21804C134.05 5.45099 134.578 4.85227 135.256 4.42187C135.938 3.99147 136.735 3.77628 137.647 3.77628C138.201 3.77628 138.737 3.8679 139.257 4.05113C139.777 4.23437 140.244 4.52201 140.657 4.91406C141.071 5.3061 141.397 5.81534 141.635 6.44176C141.874 7.06392 141.993 7.82031 141.993 8.71093V9.38849H134.188V7.95667H140.12C140.12 7.45383 140.018 7.00852 139.813 6.62074C139.609 6.22869 139.321 5.91974 138.951 5.69389C138.584 5.46804 138.154 5.35511 137.659 5.35511C137.122 5.35511 136.654 5.48721 136.253 5.75142C135.857 6.01136 135.55 6.35227 135.333 6.77415C135.12 7.19176 135.013 7.64559 135.013 8.13565V9.25426C135.013 9.91051 135.128 10.4687 135.358 10.929C135.593 11.3892 135.919 11.7408 136.336 11.9837C136.754 12.2223 137.242 12.3416 137.8 12.3416C138.162 12.3416 138.492 12.2905 138.791 12.1882C139.089 12.0817 139.347 11.924 139.564 11.7152C139.781 11.5064 139.948 11.2486 140.063 10.9418L141.872 11.2678C141.727 11.8004 141.467 12.267 141.092 12.6676C140.721 13.0639 140.254 13.3729 139.692 13.5945C139.134 13.8118 138.497 13.9205 137.781 13.9205Z" fill="black"/>
  <path d="M125.957 13.914C125.164 13.914 124.457 13.7116 123.835 13.3068C123.217 12.8977 122.731 12.316 122.378 11.5618C122.028 10.8033 121.853 9.89345 121.853 8.83237C121.853 7.77129 122.03 6.86362 122.384 6.10936C122.742 5.3551 123.232 4.77769 123.854 4.37712C124.476 3.97655 125.182 3.77626 125.97 3.77626C126.579 3.77626 127.069 3.87854 127.44 4.08308C127.815 4.28337 128.105 4.51774 128.309 4.78621C128.518 5.05467 128.68 5.29118 128.795 5.49573H128.91V0.631378H130.821V13.7223H128.955V12.1946H128.795C128.68 12.4034 128.514 12.642 128.297 12.9105C128.084 13.179 127.789 13.4133 127.414 13.6136C127.039 13.8139 126.554 13.914 125.957 13.914ZM126.379 12.2841C126.929 12.2841 127.393 12.1392 127.772 11.8494C128.156 11.5554 128.446 11.1484 128.642 10.6285C128.842 10.1087 128.942 9.50354 128.942 8.8132C128.942 8.13138 128.844 7.53479 128.648 7.02342C128.452 6.51206 128.164 6.11362 127.785 5.82811C127.406 5.5426 126.937 5.39984 126.379 5.39984C125.804 5.39984 125.324 5.54899 124.941 5.84729C124.557 6.14558 124.267 6.55254 124.071 7.06817C123.88 7.58379 123.784 8.16547 123.784 8.8132C123.784 9.46945 123.882 10.0596 124.078 10.5838C124.274 11.1079 124.564 11.5234 124.947 11.8302C125.335 12.1328 125.812 12.2841 126.379 12.2841Z" fill="black"/>
  <path d="M117.799 13.7223V3.90411H119.71V13.7223H117.799ZM118.764 2.3892C118.432 2.3892 118.147 2.2784 117.908 2.05681C117.674 1.83096 117.556 1.56249 117.556 1.25141C117.556 0.936074 117.674 0.667608 117.908 0.446017C118.147 0.220165 118.432 0.107239 118.764 0.107239C119.097 0.107239 119.38 0.220165 119.615 0.446017C119.853 0.667608 119.973 0.936074 119.973 1.25141C119.973 1.56249 119.853 1.83096 119.615 2.05681C119.38 2.2784 119.097 2.3892 118.764 2.3892Z" fill="black"/>
  <path d="M109.394 3.90411L111.561 7.72656L113.747 3.90411H115.837L112.775 8.8132L115.862 13.7223H113.772L111.561 10.0533L109.355 13.7223H107.259L110.314 8.8132L107.297 3.90411H109.394Z" fill="black"/>
  <path d="M101.562 13.9205C100.641 13.9205 99.8381 13.7095 99.152 13.2876C98.466 12.8658 97.9333 12.2756 97.554 11.517C97.1748 10.7585 96.9851 9.87216 96.9851 8.85795C96.9851 7.83949 97.1748 6.94886 97.554 6.18608C97.9333 5.42329 98.466 4.83096 99.152 4.40909C99.8381 3.98721 100.641 3.77628 101.562 3.77628C102.482 3.77628 103.286 3.98721 103.972 4.40909C104.658 4.83096 105.19 5.42329 105.57 6.18608C105.949 6.94886 106.139 7.83949 106.139 8.85795C106.139 9.87216 105.949 10.7585 105.57 11.517C105.19 12.2756 104.658 12.8658 103.972 13.2876C103.286 13.7095 102.482 13.9205 101.562 13.9205ZM101.568 12.316C102.165 12.316 102.659 12.1584 103.051 11.843C103.443 11.5277 103.733 11.108 103.921 10.5838C104.112 10.0597 104.208 9.48224 104.208 8.85156C104.208 8.22514 104.112 7.64986 103.921 7.12571C103.733 6.5973 103.443 6.17329 103.051 5.85369C102.659 5.53409 102.165 5.37429 101.568 5.37429C100.967 5.37429 100.469 5.53409 100.072 5.85369C99.6804 6.17329 99.3885 6.5973 99.1968 7.12571C99.0093 7.64986 98.9155 8.22514 98.9155 8.85156C98.9155 9.48224 99.0093 10.0597 99.1968 10.5838C99.3885 11.108 99.6804 11.5277 100.072 11.843C100.469 12.1584 100.967 12.316 101.568 12.316Z" fill="black"/>
  <path d="M92.9438 13.7223V3.90411H94.855V13.7223H92.9438ZM93.909 2.3892C93.5766 2.3892 93.2911 2.2784 93.0524 2.05681C92.8181 1.83096 92.7009 1.56249 92.7009 1.25141C92.7009 0.936074 92.8181 0.667608 93.0524 0.446017C93.2911 0.220165 93.5766 0.107239 93.909 0.107239C94.2414 0.107239 94.5247 0.220165 94.7591 0.446017C94.9977 0.667608 95.1171 0.936074 95.1171 1.25141C95.1171 1.56249 94.9977 1.83096 94.7591 2.05681C94.5247 2.2784 94.2414 2.3892 93.909 2.3892Z" fill="black"/>
  <path d="M85.3516 13.914C84.559 13.914 83.8516 13.7116 83.2295 13.3068C82.6116 12.8977 82.1258 12.316 81.7721 11.5618C81.4226 10.8033 81.2479 9.89345 81.2479 8.83237C81.2479 7.77129 81.4248 6.86362 81.7785 6.10936C82.1364 5.3551 82.6265 4.77769 83.2486 4.37712C83.8708 3.97655 84.5761 3.77626 85.3644 3.77626C85.9738 3.77626 86.4638 3.87854 86.8346 4.08308C87.2096 4.28337 87.4993 4.51774 87.7039 4.78621C87.9127 5.05467 88.0746 5.29118 88.1897 5.49573H88.3047V0.631378H90.216V13.7223H88.3495V12.1946H88.1897C88.0746 12.4034 87.9084 12.642 87.6911 12.9105C87.478 13.179 87.184 13.4133 86.809 13.6136C86.434 13.8139 85.9482 13.914 85.3516 13.914ZM85.7735 12.2841C86.3232 12.2841 86.7877 12.1392 87.167 11.8494C87.5505 11.5554 87.8403 11.1484 88.0363 10.6285C88.2366 10.1087 88.3367 9.50354 88.3367 8.8132C88.3367 8.13138 88.2387 7.53479 88.0427 7.02342C87.8466 6.51206 87.559 6.11362 87.1797 5.82811C86.8005 5.5426 86.3317 5.39984 85.7735 5.39984C85.1982 5.39984 84.7188 5.54899 84.3353 5.84729C83.9518 6.14558 83.662 6.55254 83.466 7.06817C83.2742 7.58379 83.1783 8.16547 83.1783 8.8132C83.1783 9.46945 83.2763 10.0596 83.4724 10.5838C83.6684 11.1079 83.9582 11.5234 84.3417 11.8302C84.7295 12.1328 85.2067 12.2841 85.7735 12.2841Z" fill="black"/>
  <path d="M68.0659 7.89275V13.7223H66.1547V3.90412H67.9892V5.50213H68.1107C68.3365 4.98224 68.6902 4.56463 69.1718 4.24929C69.6576 3.93395 70.2691 3.77628 71.0063 3.77628C71.6753 3.77628 72.2612 3.9169 72.7641 4.19815C73.2669 4.47514 73.6568 4.88849 73.9338 5.43821C74.2108 5.98792 74.3493 6.66761 74.3493 7.47727V13.7223H72.4381V7.70738C72.4381 6.99574 72.2527 6.43963 71.882 6.03906C71.5113 5.63423 71.002 5.43182 70.3543 5.43182C69.9111 5.43182 69.5169 5.5277 69.1718 5.71946C68.8309 5.91122 68.5603 6.19247 68.36 6.56321C68.1639 6.92968 68.0659 7.37287 68.0659 7.89275Z" fill="black"/>
  <path d="M59.8218 13.9205C58.8545 13.9205 58.0214 13.7138 57.3225 13.3004C56.6279 12.8828 56.091 12.2969 55.7117 11.5426C55.3367 10.7841 55.1492 9.89559 55.1492 8.87713C55.1492 7.87145 55.3367 6.98508 55.7117 6.21804C56.091 5.45099 56.6194 4.85227 57.2969 4.42187C57.9787 3.99147 58.7756 3.77628 59.6876 3.77628C60.2415 3.77628 60.7785 3.8679 61.2983 4.05113C61.8182 4.23437 62.2849 4.52201 62.6982 4.91406C63.1116 5.3061 63.4376 5.81534 63.6762 6.44176C63.9148 7.06392 64.0341 7.82031 64.0341 8.71093V9.38849H56.2295V7.95667H62.1613C62.1613 7.45383 62.059 7.00852 61.8545 6.62074C61.6499 6.22869 61.3623 5.91974 60.9915 5.69389C60.6251 5.46804 60.1947 5.35511 59.7003 5.35511C59.1634 5.35511 58.6947 5.48721 58.2941 5.75142C57.8978 6.01136 57.591 6.35227 57.3736 6.77415C57.1606 7.19176 57.054 7.64559 57.054 8.13565V9.25426C57.054 9.91051 57.1691 10.4687 57.3992 10.929C57.6336 11.3892 57.9596 11.7408 58.3772 11.9837C58.7948 12.2223 59.2827 12.3416 59.841 12.3416C60.2032 12.3416 60.5334 12.2905 60.8317 12.1882C61.13 12.0817 61.3878 11.924 61.6052 11.7152C61.8225 11.5064 61.9887 11.2486 62.1037 10.9418L63.9127 11.2678C63.7678 11.8004 63.5079 12.267 63.1329 12.6676C62.7621 13.0639 62.2955 13.3729 61.733 13.5945C61.1748 13.8118 60.5377 13.9205 59.8218 13.9205Z" fill="black"/>
  <path d="M48.5974 17.6087C47.8175 17.6087 47.1464 17.5064 46.5839 17.3018C46.0256 17.0973 45.5697 16.8267 45.216 16.4901C44.8623 16.1534 44.5981 15.7848 44.4234 15.3842L46.0661 14.7067C46.1812 14.8942 46.3346 15.0923 46.5263 15.3011C46.7224 15.5142 46.9866 15.6953 47.3189 15.8445C47.6556 15.9936 48.0881 16.0682 48.6165 16.0682C49.341 16.0682 49.9397 15.8913 50.4127 15.5376C50.8857 15.1882 51.1222 14.63 51.1222 13.8629V11.9325H51.0008C50.8857 12.1413 50.7195 12.3736 50.5022 12.6293C50.2891 12.8849 49.9951 13.1065 49.6201 13.294C49.2451 13.4815 48.7572 13.5753 48.1563 13.5753C47.3807 13.5753 46.6819 13.3942 46.0597 13.032C45.4418 12.6655 44.9518 12.1264 44.5895 11.4148C44.2316 10.6989 44.0526 9.81889 44.0526 8.77486C44.0526 7.73082 44.2295 6.83594 44.5832 6.0902C44.9411 5.34446 45.4312 4.77343 46.0533 4.37713C46.6755 3.97656 47.3807 3.77628 48.1691 3.77628C48.7785 3.77628 49.2707 3.87855 49.6457 4.08309C50.0207 4.28338 50.3126 4.51775 50.5214 4.78622C50.7344 5.05468 50.8985 5.29119 51.0135 5.49574H51.1542V3.90412H53.027V13.9396C53.027 14.7834 52.831 15.4758 52.439 16.017C52.0469 16.5582 51.5164 16.9588 50.8474 17.2187C50.1826 17.4787 49.4326 17.6087 48.5974 17.6087ZM48.5782 11.9901C49.1279 11.9901 49.5924 11.8622 49.9716 11.6065C50.3552 11.3466 50.6449 10.9758 50.841 10.4943C51.0412 10.0085 51.1414 9.42684 51.1414 8.74929C51.1414 8.08878 51.0434 7.5071 50.8474 7.00426C50.6513 6.50142 50.3637 6.10937 49.9844 5.82812C49.6052 5.54261 49.1364 5.39986 48.5782 5.39986C48.0029 5.39986 47.5235 5.549 47.14 5.8473C46.7564 6.14133 46.4667 6.5419 46.2707 7.049C46.0789 7.55611 45.983 8.12287 45.983 8.74929C45.983 9.39275 46.081 9.95738 46.277 10.4432C46.4731 10.929 46.7628 11.3082 47.1464 11.581C47.5341 11.8537 48.0114 11.9901 48.5782 11.9901Z" fill="black"/>
  <path d="M37.7708 13.9205C36.8504 13.9205 36.0471 13.7095 35.361 13.2876C34.6749 12.8658 34.1423 12.2756 33.763 11.517C33.3838 10.7585 33.1941 9.87216 33.1941 8.85795C33.1941 7.83949 33.3838 6.94886 33.763 6.18608C34.1423 5.42329 34.6749 4.83096 35.361 4.40909C36.0471 3.98721 36.8504 3.77628 37.7708 3.77628C38.6913 3.77628 39.4945 3.98721 40.1806 4.40909C40.8667 4.83096 41.3994 5.42329 41.7786 6.18608C42.1579 6.94886 42.3475 7.83949 42.3475 8.85795C42.3475 9.87216 42.1579 10.7585 41.7786 11.517C41.3994 12.2756 40.8667 12.8658 40.1806 13.2876C39.4945 13.7095 38.6913 13.9205 37.7708 13.9205ZM37.7772 12.316C38.3738 12.316 38.8681 12.1584 39.2602 11.843C39.6522 11.5277 39.942 11.108 40.1295 10.5838C40.3213 10.0597 40.4171 9.48224 40.4171 8.85156C40.4171 8.22514 40.3213 7.64986 40.1295 7.12571C39.942 6.5973 39.6522 6.17329 39.2602 5.85369C38.8681 5.53409 38.3738 5.37429 37.7772 5.37429C37.1764 5.37429 36.6778 5.53409 36.2815 5.85369C35.8894 6.17329 35.5975 6.5973 35.4058 7.12571C35.2183 7.64986 35.1245 8.22514 35.1245 8.85156C35.1245 9.48224 35.2183 10.0597 35.4058 10.5838C35.5975 11.108 35.8894 11.5277 36.2815 11.843C36.6778 12.1584 37.1764 12.316 37.7772 12.316Z" fill="black"/>
  <path d="M27.0785 13.7223V3.90413H28.9258V5.46379H29.0281C29.2071 4.93538 29.5224 4.51989 29.9741 4.21734C30.4301 3.91052 30.9457 3.75711 31.521 3.75711C31.6403 3.75711 31.781 3.76137 31.9429 3.7699C32.1091 3.77842 32.239 3.78907 32.3328 3.80186V5.62998C32.2561 5.60867 32.1197 5.58524 31.9237 5.55967C31.7277 5.52984 31.5317 5.51492 31.3356 5.51492C30.8839 5.51492 30.4812 5.6108 30.1275 5.80257C29.7781 5.99007 29.5011 6.25214 29.2966 6.58879C29.092 6.92117 28.9898 7.30043 28.9898 7.72657V13.7223H27.0785Z" fill="black"/>
  <path d="M24.9644 3.90412V5.43821H19.6014V3.90412H24.9644ZM21.0396 1.55185H22.9509V10.8395C22.9509 11.2102 23.0063 11.4893 23.1171 11.6768C23.2279 11.8601 23.3706 11.9858 23.5453 12.054C23.7243 12.1179 23.9182 12.1499 24.127 12.1499C24.2804 12.1499 24.4147 12.1392 24.5297 12.1179C24.6448 12.0966 24.7343 12.0795 24.7982 12.0668L25.1433 13.6456C25.0325 13.6882 24.8749 13.7308 24.6703 13.7734C24.4658 13.8203 24.2101 13.8459 23.9033 13.8501C23.4004 13.8587 22.9317 13.7692 22.497 13.5817C22.0624 13.3942 21.7108 13.1044 21.4423 12.7124C21.1739 12.3203 21.0396 11.8281 21.0396 11.2358V1.55185Z" fill="black"/>
  <path d="M15.8989 13.7223V3.90411H17.8101V13.7223H15.8989ZM16.864 2.3892C16.5317 2.3892 16.2462 2.2784 16.0075 2.05681C15.7731 1.83096 15.656 1.56249 15.656 1.25141C15.656 0.936074 15.7731 0.667608 16.0075 0.446017C16.2462 0.220165 16.5317 0.107239 16.864 0.107239C17.1964 0.107239 17.4798 0.220165 17.7142 0.446017C17.9528 0.667608 18.0721 0.936074 18.0721 1.25141C18.0721 1.56249 17.9528 1.83096 17.7142 2.05681C17.4798 2.2784 17.1964 2.3892 16.864 2.3892Z" fill="black"/>
  <path d="M13.171 0.631378V13.7223H11.3557L4.70158 4.12144H4.58013V13.7223H2.60499V0.631378H4.43311L11.0936 10.245H11.2151V0.631378H13.171Z" fill="black"/>
  <path d="M27.2812 48.842H1.04776V169.452H27.2812V48.842Z" fill="url(#paint0_linear_0_1)"/>
  <path fill-rule="evenodd" clip-rule="evenodd" d="M0.887802 48.682H27.4411V169.612H0.887802V48.682ZM1.20772 49.002V169.292H27.1212V49.002H1.20772Z" fill="black"/>
  <path d="M53.9117 63.0778C53.1315 63.0778 52.4423 62.9396 51.844 62.6631C51.2494 62.3829 50.7855 61.9985 50.4523 61.51C50.119 61.0177 49.9543 60.4572 49.9581 59.8286C49.9543 59.3363 50.0509 58.8819 50.2478 58.4653C50.4447 58.045 50.7136 57.6947 51.0544 57.4144C51.399 57.1304 51.7834 56.9505 52.2075 56.8748V56.8066C51.6509 56.6627 51.2078 56.3503 50.8783 55.8694C50.5489 55.3846 50.386 54.8336 50.3898 54.2164C50.386 53.6256 50.5356 53.0973 50.8386 52.6315C51.1415 52.1657 51.5581 51.7984 52.0882 51.5295C52.6222 51.2607 53.23 51.1262 53.9117 51.1262C54.5857 51.1262 55.1878 51.2607 55.718 51.5295C56.2482 51.7984 56.6648 52.1657 56.9677 52.6315C57.2744 53.0973 57.4297 53.6256 57.4335 54.2164C57.4297 54.8336 57.2612 55.3846 56.9279 55.8694C56.5985 56.3503 56.1611 56.6627 55.6158 56.8066V56.8748C56.0361 56.9505 56.4148 57.1304 56.7519 57.4144C57.0889 57.6947 57.3578 58.045 57.5585 58.4653C57.7592 58.8819 57.8614 59.3363 57.8652 59.8286C57.8614 60.4572 57.691 61.0177 57.354 61.51C57.0207 61.9985 56.5568 62.3829 55.9623 62.6631C55.3715 62.9396 54.688 63.0778 53.9117 63.0778ZM53.9117 61.8281C54.438 61.8281 54.8925 61.7429 55.2749 61.5725C55.6574 61.4021 55.9528 61.1616 56.1611 60.8511C56.3694 60.5405 56.4754 60.177 56.4792 59.7604C56.4754 59.3212 56.3618 58.933 56.1384 58.596C55.9149 58.2589 55.6101 57.9938 55.2238 57.8007C54.8413 57.6076 54.404 57.511 53.9117 57.511C53.4156 57.511 52.9725 57.6076 52.5824 57.8007C52.1962 57.9938 51.8913 58.2589 51.6679 58.596C51.4483 58.933 51.3403 59.3212 51.3441 59.7604C51.3403 60.177 51.4407 60.5405 51.6452 60.8511C51.8535 61.1616 52.1507 61.4021 52.537 61.5725C52.9233 61.7429 53.3815 61.8281 53.9117 61.8281ZM53.9117 56.3068C54.3282 56.3068 54.6974 56.2234 55.0193 56.0568C55.345 55.8902 55.6006 55.6573 55.7862 55.3581C55.9717 55.059 56.0664 54.7087 56.0702 54.3073C56.0664 53.9134 55.9736 53.5707 55.7919 53.2791C55.6101 52.9837 55.3583 52.7565 55.0364 52.5975C54.7145 52.4346 54.3396 52.3532 53.9117 52.3532C53.4762 52.3532 53.0956 52.4346 52.7699 52.5975C52.4442 52.7565 52.1924 52.9837 52.0144 53.2791C51.8364 53.5707 51.7493 53.9134 51.7531 54.3073C51.7493 54.7087 51.8383 55.059 52.0201 55.3581C52.2056 55.6573 52.4613 55.8902 52.7869 56.0568C53.1126 56.2234 53.4875 56.3068 53.9117 56.3068Z" fill="black"/>
  <path d="M48.0836 61.3282L47.9927 61.9417C47.9283 62.3734 47.8298 62.8354 47.6973 63.3277C47.5685 63.82 47.4341 64.2839 47.294 64.7194C47.1539 65.1549 47.0384 65.5014 46.9475 65.7589H45.925C45.9742 65.5166 46.0386 65.1966 46.1182 64.7989C46.1977 64.4013 46.2772 63.9563 46.3567 63.464C46.44 62.9755 46.5082 62.4757 46.5612 61.9644L46.6294 61.3282H48.0836Z" fill="black"/>
  <path d="M36.3763 62.9187V61.8963L40.2162 57.6928C40.6669 57.2005 41.038 56.7725 41.3296 56.409C41.6212 56.0417 41.837 55.6971 41.9771 55.3752C42.121 55.0495 42.193 54.7087 42.193 54.3527C42.193 53.9437 42.0945 53.5896 41.8976 53.2905C41.7045 52.9913 41.4394 52.7603 41.1024 52.5975C40.7653 52.4346 40.3866 52.3532 39.9663 52.3532C39.5194 52.3532 39.1294 52.446 38.7961 52.6315C38.4667 52.8133 38.211 53.0689 38.0293 53.3984C37.8513 53.7279 37.7623 54.1141 37.7623 54.5572H36.4217C36.4217 53.8755 36.5789 53.2772 36.8932 52.7622C37.2075 52.2472 37.6354 51.8458 38.177 51.5579C38.7223 51.2701 39.3339 51.1262 40.0117 51.1262C40.6934 51.1262 41.2974 51.2701 41.8238 51.5579C42.3502 51.8458 42.7629 52.2339 43.0621 52.7224C43.3613 53.2109 43.5108 53.7544 43.5108 54.3527C43.5108 54.7806 43.4332 55.1991 43.278 55.6081C43.1265 56.0133 42.8614 56.4658 42.4827 56.9657C42.1078 57.4618 41.5871 58.0677 40.9206 58.7834L38.3076 61.5782V61.669H43.7153V62.9187H36.3763Z" fill="black"/>
  <path d="M36.3763 164.639V163.617L40.2162 159.414C40.6669 158.921 41.038 158.493 41.3296 158.13C41.6212 157.762 41.837 157.418 41.9771 157.096C42.121 156.77 42.193 156.429 42.193 156.073C42.193 155.664 42.0945 155.31 41.8976 155.011C41.7045 154.712 41.4394 154.481 41.1024 154.318C40.7653 154.155 40.3866 154.074 39.9663 154.074C39.5194 154.074 39.1294 154.167 38.7961 154.352C38.4667 154.534 38.211 154.79 38.0293 155.119C37.8513 155.449 37.7623 155.835 37.7623 156.278H36.4217C36.4217 155.596 36.5789 154.998 36.8932 154.483C37.2075 153.968 37.6354 153.567 38.177 153.279C38.7223 152.991 39.3339 152.847 40.0117 152.847C40.6934 152.847 41.2974 152.991 41.8238 153.279C42.3502 153.567 42.7629 153.955 43.0621 154.443C43.3613 154.932 43.5108 155.475 43.5108 156.073C43.5108 156.501 43.4332 156.92 43.278 157.329C43.1265 157.734 42.8614 158.187 42.4827 158.686C42.1078 159.183 41.5871 159.788 40.9206 160.504L38.3076 163.299V163.39H43.7153V164.639H36.3763Z" fill="black"/>
  <defs>
    <linearGradient id="paint0_linear_0_1" x1="-427.325" y1="169.954" x2="-427.325" y2="49.0384" gradientUnits="userSpaceOnUse">
      <stop stop-color="#440154" stop-opacity="0"/>
      <stop offset="0.0192308" stop-opacity="0"/>
      <stop offset="0.0384615" stop-opacity="0"/>
      <stop offset="0.0576923" stop-opacity="0"/>
      <stop offset="0.0769231" stop-opacity="0"/>
      <stop offset="0.0961538" stop-opacity="0"/>
      <stop offset="0.115385" stop-opacity="0"/>
      <stop offset="0.134615" stop-opacity="0"/>
      <stop offset="0.153846" stop-opacity="0"/>
      <stop offset="0.173077" stop-opacity="0"/>
      <stop offset="0.192308" stop-opacity="0"/>
      <stop offset="0.211538" stop-opacity="0"/>
      <stop offset="0.230769" stop-opacity="0"/>
      <stop offset="0.25" stop-color="#3B528B" stop-opacity="0"/>
      <stop offset="0.269231" stop-color="#1C8E8E" stop-opacity="0.0705882"/>
      <stop offset="0.288462" stop-color="#228D8D" stop-opacity="0.14902"/>
      <stop offset="0.307692" stop-color="#1F918D" stop-opacity="0.227451"/>
      <stop offset="0.326923" stop-color="#218E8B" stop-opacity="0.301961"/>
      <stop offset="0.346154" stop-color="#20918B" stop-opacity="0.380392"/>
      <stop offset="0.365385" stop-color="#21908B" stop-opacity="0.458824"/>
      <stop offset="0.384615" stop-color="#20908D" stop-opacity="0.533333"/>
      <stop offset="0.403846" stop-color="#21908D" stop-opacity="0.611765"/>
      <stop offset="0.423077" stop-color="#208F8D" stop-opacity="0.690196"/>
      <stop offset="0.442308" stop-color="#21908C" stop-opacity="0.764706"/>
      <stop offset="0.461538" stop-color="#20908C" stop-opacity="0.843137"/>
      <stop offset="0.480769" stop-color="#218F8C" stop-opacity="0.921569"/>
      <stop offset="0.5" stop-color="#21908D"/>
      <stop offset="0.519231" stop-color="#259489"/>
      <stop offset="0.538462" stop-color="#2A9886"/>
      <stop offset="0.557692" stop-color="#2E9D83"/>
      <stop offset="0.576923" stop-color="#33A17F"/>
      <stop offset="0.596154" stop-color="#37A57C"/>
      <stop offset="0.615385" stop-color="#3CAA79"/>
      <stop offset="0.634615" stop-color="#41AE75"/>
      <stop offset="0.653846" stop-color="#45B272"/>
      <stop offset="0.673077" stop-color="#4AB76F"/>
      <stop offset="0.692308" stop-color="#4EBB6C"/>
      <stop offset="0.711538" stop-color="#53C068"/>
      <stop offset="0.730769" stop-color="#58C465"/>
      <stop offset="0.75" stop-color="#5DC962"/>
      <stop offset="0.769231" stop-color="#68CB5D"/>
      <stop offset="0.788462" stop-color="#75CD58"/>
      <stop offset="0.807692" stop-color="#81CF53"/>
      <stop offset="0.826923" stop-color="#8DD24F"/>
      <stop offset="0.846154" stop-color="#9AD44A"/>
      <stop offset="0.865385" stop-color="#A6D645"/>
      <stop offset="0.884615" stop-color="#B2D941"/>
      <stop offset="0.903846" stop-color="#BFDB3C"/>
      <stop offset="0.923077" stop-color="#CBDD37"/>
      <stop offset="0.942308" stop-color="#D7DF33"/>
      <stop offset="0.961538" stop-color="#E4E22E"/>
      <stop offset="0.980769" stop-color="#F0E429"/>
      <stop offset="1" stop-color="#FDE725"/>
    </linearGradient>
  </defs>
</svg>