<svg width="77" height="167" viewBox="0 0 77 167" fill="none" xmlns="http://www.w3.org/2000/svg">
  <path d="M45.1144 33V31.9856L48.9241 27.8152C49.3712 27.3268 49.7394 26.9022 50.0287 26.5415C50.318 26.1771 50.5322 25.8352 50.6712 25.5158C50.814 25.1927 50.8853 24.8546 50.8853 24.5014C50.8853 24.0956 50.7877 23.7444 50.5923 23.4475C50.4007 23.1507 50.1377 22.9216 49.8033 22.76C49.4689 22.5984 49.0932 22.5177 48.6762 22.5177C48.2328 22.5177 47.8458 22.6097 47.5152 22.7938C47.1883 22.9741 46.9347 23.2278 46.7544 23.5546C46.5778 23.8815 46.4895 24.2647 46.4895 24.7043H45.1595C45.1595 24.028 45.3154 23.4344 45.6273 22.9234C45.9391 22.4125 46.3637 22.0142 46.9009 21.7287C47.4419 21.4431 48.0487 21.3004 48.7212 21.3004C49.3975 21.3004 49.9968 21.4431 50.519 21.7287C51.0413 22.0142 51.4508 22.3993 51.7476 22.884C52.0444 23.3686 52.1928 23.9078 52.1928 24.5014C52.1928 24.926 52.1158 25.3411 51.9618 25.7469C51.8115 26.1489 51.5485 26.5979 51.1728 27.0938C50.8008 27.586 50.2842 28.1871 49.623 28.8972L47.0305 31.67V31.7602H52.3957V33H45.1144Z" fill="black"/>
  <path d="M31.3436 33V24.3436H32.6286V25.6962H32.7413C32.9216 25.234 33.2128 24.8752 33.6148 24.6198C34.0168 24.3605 34.4996 24.2309 35.0632 24.2309C35.6343 24.2309 36.1095 24.3605 36.489 24.6198C36.8722 24.8752 37.1709 25.234 37.3851 25.6962H37.4753C37.6969 25.2491 38.0294 24.894 38.4728 24.631C38.9161 24.3643 39.4477 24.2309 40.0677 24.2309C40.8416 24.2309 41.4747 24.4732 41.9669 24.9579C42.4591 25.4388 42.7052 26.1884 42.7052 27.2065V33H41.3751V27.2065C41.3751 26.5678 41.2004 26.1113 40.851 25.8371C40.5016 25.5628 40.0902 25.4257 39.6168 25.4257C39.0082 25.4257 38.5366 25.6098 38.2023 25.978C37.8679 26.3424 37.7007 26.8045 37.7007 27.3643V33H36.3481V27.0713C36.3481 26.5791 36.1884 26.1827 35.8691 25.8821C35.5497 25.5778 35.1383 25.4257 34.6349 25.4257C34.2892 25.4257 33.9661 25.5177 33.6655 25.7018C33.3687 25.8859 33.1283 26.1414 32.9442 26.4683C32.7638 26.7914 32.6737 27.1652 32.6737 27.5898V33H31.3436Z" fill="black"/>
  <path d="M29.7671 20.9171L26.0475 34.7358H24.8302L28.5498 20.9171H29.7671Z" fill="black"/>
  <path d="M19.5101 36.4265C18.8677 36.4265 18.3154 36.3438 17.8533 36.1785C17.3911 36.017 17.006 35.8028 16.6979 35.5361C16.3936 35.2731 16.1513 34.9913 15.9709 34.6907L17.0305 33.9468C17.1507 34.1046 17.3028 34.2849 17.4869 34.4878C17.671 34.6945 17.9228 34.8729 18.2421 35.0232C18.5652 35.1773 18.9879 35.2543 19.5101 35.2543C20.209 35.2543 20.7857 35.0852 21.2403 34.7471C21.6949 34.4089 21.9222 33.8792 21.9222 33.1578V31.3995H21.8095C21.7118 31.5573 21.5728 31.7526 21.3925 31.9856C21.2159 32.2148 20.9604 32.4195 20.626 32.5999C20.2954 32.7765 19.8483 32.8647 19.2847 32.8647C18.5859 32.8647 17.9585 32.6994 17.4024 32.3688C16.8501 32.0382 16.4124 31.5573 16.0893 30.9261C15.7699 30.2949 15.6103 29.5284 15.6103 28.6267C15.6103 27.74 15.7662 26.968 16.078 26.3105C16.3899 25.6492 16.8238 25.1382 17.3799 24.7776C17.9359 24.4131 18.5784 24.2309 19.3073 24.2309C19.8708 24.2309 20.3179 24.3248 20.6486 24.5127C20.9829 24.6968 21.2384 24.9072 21.415 25.1439C21.5953 25.3768 21.7344 25.5684 21.832 25.7187H21.9673V24.3436H23.2522V33.248C23.2522 33.9919 23.0832 34.5968 22.745 35.0627C22.4106 35.5323 21.9598 35.8761 21.3925 36.094C20.8289 36.3157 20.2015 36.4265 19.5101 36.4265ZM19.4651 31.67C19.9986 31.67 20.4494 31.5479 20.8176 31.3037C21.1858 31.0595 21.4657 30.7082 21.6573 30.2498C21.849 29.7914 21.9448 29.2429 21.9448 28.6042C21.9448 27.9805 21.8508 27.4301 21.663 26.9529C21.4751 26.4758 21.1971 26.1019 20.8289 25.8314C20.4607 25.5609 20.0061 25.4257 19.4651 25.4257C18.9015 25.4257 18.4319 25.5684 18.0561 25.854C17.6842 26.1395 17.4043 26.5227 17.2164 27.0036C17.0323 27.4846 16.9403 28.0181 16.9403 28.6042C16.9403 29.2053 17.0342 29.737 17.2221 30.1991C17.4137 30.6574 17.6955 31.0181 18.0674 31.2811C18.4431 31.5404 18.909 31.67 19.4651 31.67Z" fill="black"/>
  <path d="M2.2227 33V24.3436H3.50764V25.6962H3.62035C3.80069 25.234 4.09187 24.8752 4.49388 24.6198C4.89589 24.3605 5.37868 24.2309 5.94225 24.2309C6.51333 24.2309 6.9886 24.3605 7.36807 24.6198C7.7513 24.8752 8.04999 25.234 8.26415 25.6962H8.35432C8.57599 25.2491 8.90849 24.894 9.35183 24.631C9.79517 24.3643 10.3268 24.2309 10.9467 24.2309C11.7207 24.2309 12.3538 24.4732 12.8459 24.9579C13.3381 25.4388 13.5842 26.1884 13.5842 27.2065V33H12.2542V27.2065C12.2542 26.5678 12.0795 26.1113 11.7301 25.8371C11.3807 25.5628 10.9693 25.4257 10.4959 25.4257C9.88722 25.4257 9.4157 25.6098 9.08132 25.978C8.74693 26.3424 8.57974 26.8045 8.57974 27.3643V33H7.22718V27.0713C7.22718 26.5791 7.0675 26.1827 6.74815 25.8821C6.42879 25.5778 6.01739 25.4257 5.51394 25.4257C5.16828 25.4257 4.84517 25.5177 4.5446 25.7018C4.24779 25.8859 4.00733 26.1414 3.82323 26.4683C3.64289 26.7914 3.55272 27.1652 3.55272 27.5898V33H2.2227Z" fill="black"/>
  <path d="M60.4291 12.2102L60.3332 12.9069C60.2693 13.4183 60.1606 13.951 60.0072 14.5049C59.858 15.0632 59.7025 15.5809 59.5406 16.0582C59.3829 16.5355 59.2529 16.9147 59.1506 17.196H57.7955C57.8509 16.9318 57.9276 16.5738 58.0256 16.1221C58.1237 15.6747 58.2195 15.174 58.3133 14.62C58.407 14.066 58.4774 13.5014 58.5242 12.9261L58.5881 12.2102H60.4291Z" fill="black"/>
  <path d="M51.6096 14.1981C50.6423 14.1981 49.8092 13.9915 49.1103 13.5781C48.4157 13.1605 47.8788 12.5746 47.4995 11.8203C47.1245 11.0618 46.937 10.1733 46.937 9.15481C46.937 8.14913 47.1245 7.26276 47.4995 6.49572C47.8788 5.72867 48.4072 5.12995 49.0848 4.69955C49.7666 4.26915 50.5635 4.05396 51.4754 4.05396C52.0294 4.05396 52.5663 4.14558 53.0862 4.32881C53.6061 4.51205 54.0727 4.79969 54.486 5.19174C54.8994 5.58378 55.2254 6.09302 55.464 6.71944C55.7027 7.3416 55.822 8.09799 55.822 8.98861V9.66617H48.0173V8.23435H53.9491C53.9491 7.73151 53.8468 7.2862 53.6423 6.89842C53.4378 6.50637 53.1501 6.19742 52.7794 5.97157C52.4129 5.74572 51.9825 5.63279 51.4882 5.63279C50.9512 5.63279 50.4825 5.76489 50.0819 6.0291C49.6856 6.28904 49.3788 6.62995 49.1615 7.05182C48.9484 7.46944 48.8419 7.92327 48.8419 8.41333V9.53194C48.8419 10.1882 48.9569 10.7464 49.187 11.2067C49.4214 11.6669 49.7474 12.0184 50.165 12.2613C50.5826 12.5 51.0706 12.6193 51.6288 12.6193C51.991 12.6193 52.3213 12.5682 52.6196 12.4659C52.9179 12.3594 53.1757 12.2017 53.393 11.9929C53.6103 11.7841 53.7765 11.5263 53.8916 11.2194L55.7005 11.5454C55.5557 12.0781 55.2957 12.5447 54.9207 12.9453C54.55 13.3416 54.0834 13.6505 53.5209 13.8721C52.9626 14.0895 52.3255 14.1981 51.6096 14.1981Z" fill="black"/>
  <path d="M38.5315 8.17043V14H36.6203V4.1818H38.4548V5.77981H38.5763C38.8021 5.25992 39.1558 4.84231 39.6373 4.52697C40.1231 4.21163 40.7346 4.05396 41.4718 4.05396C42.1409 4.05396 42.7268 4.19458 43.2297 4.47583C43.7325 4.75282 44.1224 5.16617 44.3994 5.71589C44.6764 6.2656 44.8149 6.94529 44.8149 7.75495V14H42.9037V7.98506C42.9037 7.27342 42.7183 6.71731 42.3476 6.31674C41.9768 5.91191 41.4676 5.70949 40.8199 5.70949C40.3767 5.70949 39.9825 5.80538 39.6373 5.99714C39.2964 6.1889 39.0258 6.47015 38.8255 6.84089C38.6295 7.20736 38.5315 7.65055 38.5315 8.17043Z" fill="black"/>
  <path d="M29.9102 14.1981C28.9898 14.1981 28.1865 13.9872 27.5004 13.5653C26.8144 13.1434 26.2817 12.5532 25.9024 11.7947C25.5232 11.0362 25.3335 10.1498 25.3335 9.13563C25.3335 8.11716 25.5232 7.22654 25.9024 6.46376C26.2817 5.70097 26.8144 5.10864 27.5004 4.68677C28.1865 4.26489 28.9898 4.05396 29.9102 4.05396C30.8307 4.05396 31.634 4.26489 32.32 4.68677C33.0061 5.10864 33.5388 5.70097 33.918 6.46376C34.2973 7.22654 34.4869 8.11716 34.4869 9.13563C34.4869 10.1498 34.2973 11.0362 33.918 11.7947C33.5388 12.5532 33.0061 13.1434 32.32 13.5653C31.634 13.9872 30.8307 14.1981 29.9102 14.1981ZM29.9166 12.5937C30.5132 12.5937 31.0075 12.4361 31.3996 12.1207C31.7916 11.8054 32.0814 11.3856 32.2689 10.8615C32.4607 10.3373 32.5565 9.75992 32.5565 9.12924C32.5565 8.50282 32.4607 7.92753 32.2689 7.40339C32.0814 6.87498 31.7916 6.45097 31.3996 6.13137C31.0075 5.81177 30.5132 5.65197 29.9166 5.65197C29.3158 5.65197 28.8172 5.81177 28.4209 6.13137C28.0288 6.45097 27.7369 6.87498 27.5452 7.40339C27.3577 7.92753 27.2639 8.50282 27.2639 9.12924C27.2639 9.75992 27.3577 10.3373 27.5452 10.8615C27.7369 11.3856 28.0288 11.8054 28.4209 12.1207C28.8172 12.4361 29.3158 12.5937 29.9166 12.5937Z" fill="black"/>
  <path d="M15.9196 14V12.6896L21.2378 5.93324V5.84376H16.0922V4.18182H23.6221V5.57529L18.5084 12.2486V12.3381H23.801V14H15.9196Z" fill="black"/>
  <path d="M13.8151 7.45453C13.8151 8.85226 13.5594 10.054 13.048 11.0596C12.5367 12.0611 11.8357 12.8324 10.945 13.3736C10.0587 13.9105 9.05086 14.179 7.9216 14.179C6.78808 14.179 5.77601 13.9105 4.88538 13.3736C3.99902 12.8324 3.30015 12.0589 2.78879 11.0533C2.27743 10.0476 2.02174 8.848 2.02174 7.45453C2.02174 6.05681 2.27743 4.85723 2.78879 3.85581C3.30015 2.85013 3.99902 2.07882 4.88538 1.54189C5.77601 1.0007 6.78808 0.730103 7.9216 0.730103C9.05086 0.730103 10.0587 1.0007 10.945 1.54189C11.8357 2.07882 12.5367 2.85013 13.048 3.85581C13.5594 4.85723 13.8151 6.05681 13.8151 7.45453ZM11.8591 7.45453C11.8591 6.38919 11.6865 5.49218 11.3413 4.76348C11.0004 4.03053 10.5317 3.47655 9.9351 3.10155C9.34277 2.72229 8.6716 2.53266 7.9216 2.53266C7.16734 2.53266 6.49404 2.72229 5.90172 3.10155C5.30939 3.47655 4.84064 4.03053 4.49547 4.76348C4.15456 5.49218 3.9841 6.38919 3.9841 7.45453C3.9841 8.51988 4.15456 9.41902 4.49547 10.152C4.84064 10.8807 5.30939 11.4346 5.90172 11.8139C6.49404 12.1889 7.16734 12.3764 7.9216 12.3764C8.6716 12.3764 9.34277 12.1889 9.9351 11.8139C10.5317 11.4346 11.0004 10.8807 11.3413 10.152C11.6865 9.41902 11.8591 8.51988 11.8591 7.45453Z" fill="black"/>
  <path opacity="0.8" d="M27.2334 45.2863H1V165.896H27.2334V45.2863Z" fill="url(#paint0_linear_0_1)"/>
  <path opacity="0.8" fill-rule="evenodd" clip-rule="evenodd" d="M0.840042 45.1263H27.3934V166.056H0.840042V45.1263ZM1.15996 45.4462V165.736H27.0735V45.4462H1.15996Z" fill="black"/>
  <path d="M72.506 158.159C71.6501 158.159 70.9211 157.926 70.319 157.46C69.7169 156.991 69.2568 156.311 68.9387 155.421C68.6206 154.527 68.4615 153.448 68.4615 152.183C68.4615 150.926 68.6206 149.852 68.9387 148.963C69.2606 148.069 69.7226 147.387 70.3247 146.918C70.9306 146.444 71.6577 146.208 72.506 146.208C73.3542 146.208 74.0794 146.444 74.6816 146.918C75.2875 147.387 75.7495 148.069 76.0676 148.963C76.3895 149.852 76.5504 150.926 76.5504 152.183C76.5504 153.448 76.3914 154.527 76.0733 155.421C75.7552 156.311 75.295 156.991 74.6929 157.46C74.0908 157.926 73.3618 158.159 72.506 158.159ZM72.506 156.909C73.3542 156.909 74.0132 156.5 74.4827 155.682C74.9523 154.864 75.1871 153.698 75.1871 152.183C75.1871 151.176 75.0792 150.318 74.8633 149.61C74.6513 148.902 74.3445 148.362 73.9431 147.991C73.5455 147.62 73.0664 147.434 72.506 147.434C71.6653 147.434 71.0082 147.849 70.5349 148.678C70.0615 149.504 69.8248 150.672 69.8248 152.183C69.8248 153.191 69.9309 154.046 70.1429 154.751C70.355 155.455 70.6598 155.991 71.0575 156.358C71.4589 156.726 71.9417 156.909 72.506 156.909Z" fill="black"/>
  <path d="M62.4574 158.159C61.7075 158.159 61.0391 158.03 60.4522 157.773C59.869 157.515 59.4051 157.157 59.0605 156.699C58.7197 156.237 58.5341 155.701 58.5038 155.092H59.9353C59.9656 155.467 60.0943 155.79 60.3215 156.063C60.5487 156.332 60.846 156.54 61.2133 156.688C61.5807 156.836 61.9878 156.909 62.4346 156.909C62.9345 156.909 63.3776 156.822 63.7638 156.648C64.1501 156.474 64.4531 156.232 64.6727 155.921C64.8923 155.61 65.0022 155.251 65.0022 154.842C65.0022 154.414 64.8961 154.037 64.6841 153.711C64.472 153.382 64.1615 153.124 63.7525 152.939C63.3435 152.753 62.8436 152.66 62.2529 152.66H61.3213V151.411H62.2529C62.7149 151.411 63.1201 151.327 63.4685 151.161C63.8206 150.994 64.0952 150.759 64.2921 150.456C64.4928 150.154 64.5932 149.798 64.5932 149.389C64.5932 148.995 64.5061 148.652 64.3319 148.36C64.1577 148.069 63.9115 147.842 63.5934 147.679C63.2791 147.516 62.908 147.434 62.4801 147.434C62.0787 147.434 61.7 147.508 61.344 147.656C60.9918 147.8 60.704 148.01 60.4806 148.287C60.2571 148.559 60.136 148.889 60.117 149.275H58.7537C58.7765 148.665 58.9601 148.131 59.3047 147.673C59.6493 147.211 60.1 146.851 60.6567 146.594C61.2171 146.336 61.8325 146.208 62.5028 146.208C63.2223 146.208 63.8396 146.353 64.3546 146.645C64.8696 146.933 65.2654 147.313 65.5418 147.787C65.8183 148.26 65.9565 148.771 65.9565 149.32C65.9565 149.976 65.7842 150.534 65.4396 150.996C65.0987 151.458 64.6348 151.778 64.0479 151.956V152.047C64.7825 152.168 65.3562 152.481 65.769 152.984C66.1818 153.484 66.3882 154.103 66.3882 154.842C66.3882 155.474 66.2159 156.042 65.8713 156.546C65.5304 157.046 65.0647 157.44 64.4739 157.727C63.8831 158.015 63.211 158.159 62.4574 158.159Z" fill="black"/>
  <path d="M48.8414 158V156.978L52.6814 152.774C53.132 152.282 53.5032 151.854 53.7947 151.49C54.0863 151.123 54.3022 150.778 54.4423 150.456C54.5862 150.131 54.6582 149.79 54.6582 149.434C54.6582 149.025 54.5597 148.671 54.3628 148.372C54.1697 148.073 53.9046 147.842 53.5675 147.679C53.2305 147.516 52.8518 147.434 52.4315 147.434C51.9846 147.434 51.5945 147.527 51.2613 147.713C50.9318 147.895 50.6762 148.15 50.4944 148.48C50.3165 148.809 50.2275 149.195 50.2275 149.638H48.8869C48.8869 148.957 49.044 148.358 49.3584 147.843C49.6727 147.328 50.1006 146.927 50.6421 146.639C51.1874 146.351 51.799 146.208 52.4769 146.208C53.1585 146.208 53.7626 146.351 54.2889 146.639C54.8153 146.927 55.2281 147.315 55.5273 147.804C55.8264 148.292 55.976 148.836 55.976 149.434C55.976 149.862 55.8984 150.28 55.7431 150.689C55.5916 151.095 55.3266 151.547 54.9479 152.047C54.573 152.543 54.0523 153.149 53.3858 153.865L50.7728 156.659V156.75H56.1805V158H48.8414Z" fill="black"/>
  <path d="M35.5678 158L40.771 147.707V147.616H34.7725V146.367H42.2252V147.684L37.0447 158H35.5678Z" fill="black"/>
  <path d="M71.3029 60.1591C70.447 60.1591 69.7181 59.9262 69.1159 59.4604C68.5138 58.9908 68.0537 58.311 67.7356 57.4211C67.4175 56.5274 67.2585 55.4481 67.2585 54.1833C67.2585 52.926 67.4175 51.8524 67.7356 50.9625C68.0575 50.0688 68.5195 49.3871 69.1216 48.9176C69.7275 48.4442 70.4546 48.2075 71.3029 48.2075C72.1512 48.2075 72.8764 48.4442 73.4785 48.9176C74.0844 49.3871 74.5464 50.0688 74.8645 50.9625C75.1864 51.8524 75.3473 52.926 75.3473 54.1833C75.3473 55.4481 75.1883 56.5274 74.8702 57.4211C74.5521 58.311 74.092 58.9908 73.4898 59.4604C72.8877 59.9262 72.1587 60.1591 71.3029 60.1591ZM71.3029 58.9094C72.1512 58.9094 72.8101 58.5004 73.2797 57.6824C73.7492 56.8644 73.984 55.6981 73.984 54.1833C73.984 53.176 73.8761 52.3182 73.6603 51.6101C73.4482 50.9019 73.1414 50.3623 72.74 49.9912C72.3424 49.62 71.8634 49.4345 71.3029 49.4345C70.4622 49.4345 69.8052 49.8492 69.3318 50.6785C68.8584 51.504 68.6217 52.6723 68.6217 54.1833C68.6217 55.1906 68.7278 56.0465 68.9398 56.7508C69.1519 57.4552 69.4568 57.9911 69.8544 58.3584C70.2558 58.7257 70.7386 58.9094 71.3029 58.9094Z" fill="black"/>
  <path d="M61.3892 60.1591C60.912 60.1515 60.4349 60.0606 59.9577 59.8864C59.4806 59.7122 59.0451 59.4187 58.6512 59.0059C58.2574 58.5894 57.9412 58.027 57.7026 57.3189C57.464 56.6069 57.3448 55.7132 57.3448 54.6377C57.3448 53.6077 57.4413 52.695 57.6345 51.8998C57.8276 51.1007 58.1078 50.4286 58.4752 49.8832C58.8425 49.3341 59.2856 48.9176 59.8044 48.6335C60.327 48.3495 60.9158 48.2075 61.571 48.2075C62.2223 48.2075 62.8017 48.3382 63.3092 48.5995C63.8204 48.857 64.237 49.2167 64.5589 49.6787C64.8807 50.1407 65.089 50.6728 65.1837 51.2749H63.7977C63.6689 50.7523 63.419 50.3187 63.0479 49.9741C62.6768 49.6295 62.1845 49.4572 61.571 49.4572C60.6697 49.4572 59.9596 49.8492 59.4408 50.633C58.9258 51.4169 58.6664 52.517 58.6626 53.9334H58.7535C58.9656 53.6115 59.2174 53.3369 59.509 53.1097C59.8044 52.8787 60.13 52.7007 60.486 52.5757C60.842 52.4508 61.2188 52.3883 61.6164 52.3883C62.2829 52.3883 62.8926 52.5549 63.4455 52.8882C63.9984 53.2176 64.4415 53.674 64.7747 54.2571C65.108 54.8365 65.2746 55.5011 65.2746 56.251C65.2746 56.9705 65.1136 57.6294 64.7918 58.2277C64.4699 58.8223 64.0173 59.2956 63.4341 59.6478C62.8547 59.9962 62.1731 60.1666 61.3892 60.1591ZM61.3892 58.9094C61.8664 58.9094 62.2943 58.7901 62.673 58.5515C63.0554 58.3129 63.3565 57.9929 63.5762 57.5915C63.7996 57.1901 63.9113 56.7433 63.9113 56.251C63.9113 55.77 63.8034 55.3326 63.5875 54.9388C63.3754 54.5412 63.082 54.225 62.7071 53.9902C62.3359 53.7554 61.9118 53.638 61.4346 53.638C61.0749 53.638 60.7397 53.7099 60.4292 53.8538C60.1187 53.9939 59.846 54.1871 59.6112 54.4332C59.3802 54.6794 59.1985 54.9615 59.0659 55.2796C58.9334 55.5939 58.8671 55.9253 58.8671 56.2737C58.8671 56.7357 58.975 57.1674 59.1909 57.5688C59.4105 57.9702 59.7097 58.294 60.0884 58.5402C60.4709 58.7863 60.9045 58.9094 61.3892 58.9094Z" fill="black"/>
  <path d="M47.8414 60V58.9775L51.6814 54.7741C52.132 54.2818 52.5032 53.8538 52.7947 53.4903C53.0863 53.123 53.3022 52.7783 53.4423 52.4565C53.5862 52.1308 53.6582 51.79 53.6582 51.434C53.6582 51.025 53.5597 50.6709 53.3628 50.3717C53.1697 50.0726 52.9046 49.8416 52.5675 49.6787C52.2305 49.5159 51.8518 49.4345 51.4315 49.4345C50.9846 49.4345 50.5945 49.5273 50.2613 49.7128C49.9318 49.8946 49.6762 50.1502 49.4944 50.4797C49.3165 50.8091 49.2275 51.1954 49.2275 51.6385H47.8869C47.8869 50.9568 48.044 50.3585 48.3584 49.8435C48.6727 49.3285 49.1006 48.927 49.6421 48.6392C50.1874 48.3514 50.799 48.2075 51.4769 48.2075C52.1585 48.2075 52.7626 48.3514 53.2889 48.6392C53.8153 48.927 54.2281 49.3152 54.5273 49.8037C54.8264 50.2922 54.976 50.8356 54.976 51.434C54.976 51.8619 54.8984 52.2804 54.7431 52.6894C54.5916 53.0946 54.3266 53.5471 53.9479 54.047C53.573 54.5431 53.0523 55.149 52.3858 55.8647L49.7728 58.6594V58.7503H55.1805V60H47.8414Z" fill="black"/>
  <path d="M34.5678 60L39.771 49.7072V49.6163H33.7725V48.3666H41.2252V49.6844L36.0447 60H34.5678Z" fill="black"/>
  <defs>
    <linearGradient id="paint0_linear_0_1" x1="-230.622" y1="166.231" x2="-230.622" y2="45.3163" gradientUnits="userSpaceOnUse">
      <stop stop-color="#EDF8FB"/>
      <stop offset="0.25" stop-color="#B2E2E2"/>
      <stop offset="0.5" stop-color="#66C2A4"/>
      <stop offset="0.75" stop-color="#2CA25F"/>
      <stop offset="1" stop-color="#006D2C"/>
    </linearGradient>
  </defs>
</svg>