<svg width="78" height="164" viewBox="0 0 78 164" fill="none" xmlns="http://www.w3.org/2000/svg">
  <path d="M45.1144 33V31.9856L48.9241 27.8152C49.3712 27.3268 49.7394 26.9022 50.0287 26.5415C50.318 26.1771 50.5322 25.8352 50.6712 25.5158C50.814 25.1927 50.8853 24.8546 50.8853 24.5014C50.8853 24.0956 50.7877 23.7443 50.5923 23.4475C50.4007 23.1507 50.1377 22.9215 49.8033 22.76C49.4689 22.5984 49.0932 22.5176 48.6762 22.5176C48.2328 22.5176 47.8458 22.6097 47.5152 22.7938C47.1883 22.9741 46.9347 23.2277 46.7544 23.5546C46.5778 23.8815 46.4895 24.2647 46.4895 24.7043H45.1595C45.1595 24.028 45.3154 23.4344 45.6273 22.9234C45.9391 22.4124 46.3637 22.0142 46.9009 21.7286C47.442 21.4431 48.0487 21.3003 48.7212 21.3003C49.3975 21.3003 49.9968 21.4431 50.519 21.7286C51.0413 22.0142 51.4508 22.3993 51.7476 22.884C52.0444 23.3686 52.1928 23.9078 52.1928 24.5014C52.1928 24.926 52.1158 25.3411 51.9618 25.7469C51.8115 26.1489 51.5485 26.5979 51.1728 27.0938C50.8008 27.586 50.2842 28.1871 49.623 28.8972L47.0305 31.67V31.7602H52.3957V33H45.1144Z" fill="black"/>
  <path d="M31.3436 33V24.3436H32.6286V25.6962H32.7413C32.9216 25.234 33.2128 24.8752 33.6148 24.6198C34.0168 24.3605 34.4996 24.2309 35.0632 24.2309C35.6343 24.2309 36.1095 24.3605 36.489 24.6198C36.8722 24.8752 37.1709 25.234 37.3851 25.6962H37.4753C37.6969 25.2491 38.0294 24.894 38.4728 24.631C38.9161 24.3643 39.4477 24.2309 40.0677 24.2309C40.8416 24.2309 41.4747 24.4732 41.9669 24.9579C42.4591 25.4388 42.7052 26.1884 42.7052 27.2065V33H41.3751V27.2065C41.3751 26.5678 41.2004 26.1113 40.851 25.8371C40.5016 25.5628 40.0902 25.4257 39.6168 25.4257C39.0082 25.4257 38.5366 25.6098 38.2023 25.978C37.8679 26.3424 37.7007 26.8045 37.7007 27.3643V33H36.3481V27.0713C36.3481 26.5791 36.1884 26.1827 35.8691 25.8821C35.5497 25.5778 35.1383 25.4257 34.6349 25.4257C34.2892 25.4257 33.9661 25.5177 33.6655 25.7018C33.3687 25.8859 33.1283 26.1414 32.9442 26.4683C32.7638 26.7914 32.6737 27.1652 32.6737 27.5898V33H31.3436Z" fill="black"/>
  <path d="M29.7671 20.9171L26.0475 34.7358H24.8302L28.5498 20.9171H29.7671Z" fill="black"/>
  <path d="M19.5101 36.4265C18.8677 36.4265 18.3154 36.3438 17.8533 36.1785C17.3911 36.017 17.006 35.8028 16.6979 35.5361C16.3936 35.2731 16.1513 34.9913 15.9709 34.6907L17.0304 33.9468C17.1507 34.1046 17.3028 34.2849 17.4869 34.4878C17.671 34.6945 17.9228 34.8729 18.2421 35.0232C18.5652 35.1773 18.9879 35.2543 19.5101 35.2543C20.209 35.2543 20.7857 35.0852 21.2403 34.7471C21.6949 34.4089 21.9222 33.8792 21.9222 33.1578V31.3995H21.8095C21.7118 31.5573 21.5728 31.7526 21.3925 31.9856C21.2159 32.2148 20.9604 32.4195 20.626 32.5999C20.2954 32.7765 19.8483 32.8647 19.2847 32.8647C18.5859 32.8647 17.9585 32.6994 17.4024 32.3688C16.8501 32.0382 16.4124 31.5573 16.0893 30.9261C15.7699 30.2949 15.6103 29.5284 15.6103 28.6267C15.6103 27.74 15.7662 26.968 16.078 26.3105C16.3899 25.6492 16.8238 25.1382 17.3799 24.7776C17.9359 24.4131 18.5784 24.2309 19.3073 24.2309C19.8708 24.2309 20.3179 24.3248 20.6485 24.5127C20.9829 24.6968 21.2384 24.9072 21.415 25.1439C21.5953 25.3768 21.7344 25.5684 21.832 25.7187H21.9673V24.3436H23.2522V33.248C23.2522 33.9919 23.0832 34.5968 22.745 35.0627C22.4106 35.5323 21.9598 35.8761 21.3925 36.094C20.8289 36.3157 20.2014 36.4265 19.5101 36.4265ZM19.4651 31.67C19.9986 31.67 20.4494 31.5479 20.8176 31.3037C21.1858 31.0595 21.4657 30.7082 21.6573 30.2498C21.8489 29.7914 21.9448 29.2429 21.9448 28.6042C21.9448 27.9805 21.8508 27.4301 21.663 26.9529C21.4751 26.4758 21.1971 26.1019 20.8289 25.8314C20.4607 25.5609 20.0061 25.4257 19.4651 25.4257C18.9015 25.4257 18.4318 25.5684 18.0561 25.854C17.6842 26.1395 17.4043 26.5227 17.2164 27.0036C17.0323 27.4846 16.9403 28.0181 16.9403 28.6042C16.9403 29.2053 17.0342 29.737 17.2221 30.1991C17.4137 30.6574 17.6955 31.0181 18.0674 31.2811C18.4431 31.5404 18.909 31.67 19.4651 31.67Z" fill="black"/>
  <path d="M2.22271 33V24.3436H3.50764V25.6962H3.62036C3.8007 25.234 4.09188 24.8752 4.49389 24.6198C4.8959 24.3605 5.37869 24.2309 5.94226 24.2309C6.51334 24.2309 6.98861 24.3605 7.36808 24.6198C7.75131 24.8752 8.05 25.234 8.26415 25.6962H8.35432C8.57599 25.2491 8.9085 24.894 9.35184 24.631C9.79518 24.3643 10.3268 24.2309 10.9467 24.2309C11.7207 24.2309 12.3538 24.4732 12.846 24.9579C13.3381 25.4388 13.5842 26.1884 13.5842 27.2065V33H12.2542V27.2065C12.2542 26.5678 12.0795 26.1113 11.7301 25.8371C11.3807 25.5628 10.9693 25.4257 10.4959 25.4257C9.88723 25.4257 9.41571 25.6098 9.08133 25.978C8.74694 26.3424 8.57975 26.8045 8.57975 27.3643V33H7.22719V27.0713C7.22719 26.5791 7.06751 26.1827 6.74816 25.8821C6.4288 25.5778 6.0174 25.4257 5.51394 25.4257C5.16829 25.4257 4.84518 25.5177 4.54461 25.7018C4.2478 25.8859 4.00734 26.1414 3.82324 26.4683C3.6429 26.7914 3.55273 27.1652 3.55273 27.5898V33H2.22271Z" fill="black"/>
  <path d="M60.4291 12.2102L60.3332 12.907C60.2693 13.4183 60.1606 13.951 60.0072 14.505C59.858 15.0632 59.7025 15.581 59.5406 16.0582C59.3829 16.5355 59.2529 16.9148 59.1506 17.196H57.7955C57.8509 16.9318 57.9276 16.5739 58.0256 16.1222C58.1237 15.6747 58.2195 15.174 58.3133 14.62C58.407 14.0661 58.4773 13.5014 58.5242 12.9261L58.5881 12.2102H60.4291Z" fill="black"/>
  <path d="M51.6096 14.1982C50.6423 14.1982 49.8092 13.9915 49.1103 13.5781C48.4157 13.1605 47.8788 12.5746 47.4995 11.8203C47.1245 11.0618 46.937 10.1733 46.937 9.15484C46.937 8.14916 47.1245 7.26279 47.4995 6.49575C47.8788 5.7287 48.4072 5.12998 49.0848 4.69958C49.7666 4.26918 50.5635 4.05399 51.4754 4.05399C52.0294 4.05399 52.5663 4.14561 53.0862 4.32884C53.6061 4.51208 54.0727 4.79972 54.486 5.19177C54.8994 5.58381 55.2254 6.09305 55.464 6.71947C55.7027 7.34163 55.822 8.09802 55.822 8.98864V9.6662H48.0173V8.23438H53.9491C53.9491 7.73154 53.8468 7.28623 53.6423 6.89845C53.4378 6.5064 53.1501 6.19745 52.7794 5.9716C52.4129 5.74575 51.9825 5.63282 51.4882 5.63282C50.9512 5.63282 50.4825 5.76492 50.0819 6.02913C49.6856 6.28907 49.3788 6.62998 49.1615 7.05186C48.9484 7.46947 48.8419 7.9233 48.8419 8.41336V9.53197C48.8419 10.1882 48.9569 10.7465 49.187 11.2067C49.4214 11.6669 49.7474 12.0185 50.165 12.2614C50.5826 12.5 51.0706 12.6193 51.6288 12.6193C51.991 12.6193 52.3213 12.5682 52.6196 12.4659C52.9179 12.3594 53.1757 12.2017 53.393 11.9929C53.6103 11.7841 53.7765 11.5263 53.8916 11.2195L55.7005 11.5455C55.5557 12.0781 55.2957 12.5448 54.9207 12.9453C54.55 13.3416 54.0834 13.6506 53.5209 13.8722C52.9626 14.0895 52.3255 14.1982 51.6096 14.1982Z" fill="black"/>
  <path d="M38.5315 8.17046V14H36.6203V4.18183H38.4548V5.77984H38.5762C38.8021 5.25995 39.1558 4.84234 39.6373 4.527C40.1231 4.21166 40.7346 4.05399 41.4718 4.05399C42.1409 4.05399 42.7268 4.19461 43.2297 4.47586C43.7325 4.75285 44.1224 5.1662 44.3994 5.71592C44.6764 6.26563 44.8149 6.94532 44.8149 7.75498V14H42.9037V7.98509C42.9037 7.27345 42.7183 6.71734 42.3476 6.31677C41.9768 5.91194 41.4676 5.70953 40.8199 5.70953C40.3767 5.70953 39.9825 5.80541 39.6373 5.99717C39.2964 6.18893 39.0258 6.47018 38.8255 6.84092C38.6295 7.20739 38.5315 7.65058 38.5315 8.17046Z" fill="black"/>
  <path d="M29.9102 14.1982C28.9898 14.1982 28.1865 13.9872 27.5004 13.5653C26.8144 13.1435 26.2817 12.5533 25.9024 11.7948C25.5232 11.0362 25.3335 10.1499 25.3335 9.13566C25.3335 8.1172 25.5232 7.22657 25.9024 6.46379C26.2817 5.701 26.8144 5.10867 27.5004 4.6868C28.1865 4.26492 28.9898 4.05399 29.9102 4.05399C30.8307 4.05399 31.634 4.26492 32.32 4.6868C33.0061 5.10867 33.5388 5.701 33.918 6.46379C34.2973 7.22657 34.4869 8.1172 34.4869 9.13566C34.4869 10.1499 34.2973 11.0362 33.918 11.7948C33.5388 12.5533 33.0061 13.1435 32.32 13.5653C31.634 13.9872 30.8307 14.1982 29.9102 14.1982ZM29.9166 12.5938C30.5132 12.5938 31.0075 12.4361 31.3996 12.1207C31.7916 11.8054 32.0814 11.3857 32.2689 10.8615C32.4607 10.3374 32.5565 9.75995 32.5565 9.12927C32.5565 8.50285 32.4607 7.92757 32.2689 7.40342C32.0814 6.87501 31.7916 6.451 31.3996 6.1314C31.0075 5.8118 30.5132 5.652 29.9166 5.652C29.3158 5.652 28.8172 5.8118 28.4209 6.1314C28.0288 6.451 27.7369 6.87501 27.5452 7.40342C27.3577 7.92757 27.2639 8.50285 27.2639 9.12927C27.2639 9.75995 27.3577 10.3374 27.5452 10.8615C27.7369 11.3857 28.0288 11.8054 28.4209 12.1207C28.8172 12.4361 29.3158 12.5938 29.9166 12.5938Z" fill="black"/>
  <path d="M15.9196 14V12.6896L21.2378 5.93324V5.84376H16.0922V4.18182H23.6221V5.57529L18.5084 12.2486V12.3381H23.801V14H15.9196Z" fill="black"/>
  <path d="M13.8151 7.45455C13.8151 8.85228 13.5594 10.054 13.048 11.0597C12.5367 12.0611 11.8357 12.8324 10.945 13.3736C10.0587 13.9105 9.05086 14.179 7.92159 14.179C6.78807 14.179 5.776 13.9105 4.88537 13.3736C3.99901 12.8324 3.30015 12.059 2.78878 11.0533C2.27742 10.0476 2.02174 8.84802 2.02174 7.45455C2.02174 6.05682 2.27742 4.85725 2.78878 3.85583C3.30015 2.85015 3.99901 2.07884 4.88537 1.54191C5.776 1.00071 6.78807 0.730118 7.92159 0.730118C9.05086 0.730118 10.0587 1.00071 10.945 1.54191C11.8357 2.07884 12.5367 2.85015 13.048 3.85583C13.5594 4.85725 13.8151 6.05682 13.8151 7.45455ZM11.8591 7.45455C11.8591 6.38921 11.6865 5.49219 11.3413 4.7635C11.0004 4.03054 10.5317 3.47657 9.93509 3.10157C9.34276 2.72231 8.67159 2.53267 7.92159 2.53267C7.16733 2.53267 6.49404 2.72231 5.90171 3.10157C5.30938 3.47657 4.84063 4.03054 4.49546 4.7635C4.15455 5.49219 3.98409 6.38921 3.98409 7.45455C3.98409 8.51989 4.15455 9.41904 4.49546 10.152C4.84063 10.8807 5.30938 11.4347 5.90171 11.8139C6.49404 12.1889 7.16733 12.3764 7.92159 12.3764C8.67159 12.3764 9.34276 12.1889 9.93509 11.8139C10.5317 11.4347 11.0004 10.8807 11.3413 10.152C11.6865 9.41904 11.8591 8.51989 11.8591 7.45455Z" fill="black"/>
  <path d="M27.2334 43.1197H1V163.729H27.2334V43.1197Z" fill="url(#paint0_linear_0_1)"/>
  <path fill-rule="evenodd" clip-rule="evenodd" d="M0.840042 42.9598H27.3934V163.889H0.840042V42.9598ZM1.15996 43.2797V163.57H27.0735V43.2797H1.15996Z" fill="black"/>
  <path d="M69.4624 57.1965L74.6656 46.9036V46.8127H68.6672V45.563H76.1198V46.8809L70.9393 57.1965H69.4624Z" fill="black"/>
  <path d="M63.133 45.404C63.6102 45.4077 64.0873 45.4986 64.5645 45.6766C65.0416 45.8546 65.4771 46.15 65.871 46.5628C66.2648 46.9717 66.581 47.5303 66.8196 48.2385C67.0582 48.9466 67.1775 49.8347 67.1775 50.9026C67.1775 51.9364 67.079 52.8547 66.8821 53.6576C66.689 54.4566 66.4087 55.1307 66.0414 55.6798C65.6779 56.2289 65.2348 56.6455 64.7122 56.9295C64.1934 57.2135 63.6064 57.3555 62.9513 57.3555C62.2999 57.3555 61.7186 57.2268 61.2074 56.9692C60.6999 56.7079 60.2834 56.3463 59.9577 55.8843C59.6358 55.4185 59.4294 54.8789 59.3385 54.2654H60.7245C60.8495 54.7993 61.0976 55.2405 61.4687 55.5889C61.8436 55.9335 62.3378 56.1058 62.9513 56.1058C63.8488 56.1058 64.5569 55.7139 65.0757 54.93C65.5983 54.1461 65.8596 53.0384 65.8596 51.607H65.7687C65.5567 51.9251 65.3048 52.1996 65.0132 52.4306C64.7216 52.6616 64.3979 52.8396 64.0419 52.9646C63.6859 53.0895 63.3072 53.152 62.9058 53.152C62.2393 53.152 61.6277 52.9873 61.071 52.6578C60.5182 52.3246 60.0751 51.8682 59.7418 51.2888C59.4124 50.7057 59.2476 50.0392 59.2476 49.2893C59.2476 48.5774 59.4067 47.9261 59.7248 47.3353C60.0467 46.7407 60.4973 46.2674 61.0767 45.9152C61.6599 45.563 62.3454 45.3926 63.133 45.404ZM63.133 46.6536C62.6559 46.6536 62.2261 46.7729 61.8436 47.0115C61.4649 47.2463 61.1638 47.5644 60.9404 47.9658C60.7208 48.3634 60.6109 48.8046 60.6109 49.2893C60.6109 49.7741 60.717 50.2153 60.929 50.6129C61.1449 51.0067 61.4384 51.321 61.8095 51.5558C62.1844 51.7868 62.6104 51.9023 63.0876 51.9023C63.4473 51.9023 63.7825 51.8323 64.093 51.6922C64.4035 51.5483 64.6743 51.3532 64.9053 51.1071C65.1401 50.8571 65.3238 50.575 65.4563 50.2607C65.5889 49.9426 65.6551 49.6112 65.6551 49.2666C65.6551 48.8122 65.5453 48.3862 65.3257 47.9885C65.1098 47.5909 64.8106 47.269 64.4282 47.0229C64.0495 46.7767 63.6178 46.6536 63.133 46.6536Z" fill="black"/>
  <path d="M50.8108 57.1965L56.0141 46.9036V46.8127H50.0156V45.563H57.4683V46.8809L52.2877 57.1965H50.8108Z" fill="black"/>
  <path d="M39.8519 57.3555C39.1854 57.3555 38.5852 57.223 38.0512 56.9579C37.5173 56.6928 37.0894 56.3292 36.7675 55.8672C36.4456 55.4052 36.2695 54.8789 36.2392 54.2881H37.6025C37.6555 54.8145 37.8941 55.25 38.3182 55.5946C38.7462 55.9354 39.2574 56.1058 39.8519 56.1058C40.3291 56.1058 40.7532 55.9941 41.1243 55.7707C41.4992 55.5472 41.7927 55.2405 42.0048 54.8504C42.2207 54.4566 42.3286 54.0116 42.3286 53.5156C42.3286 53.0081 42.2169 52.5556 41.9934 52.1579C41.7738 51.7565 41.4708 51.4403 41.0846 51.2093C40.6983 50.9783 40.2571 50.8609 39.761 50.8571C39.4051 50.8533 39.0396 50.9083 38.6647 51.0219C38.2898 51.1317 37.9812 51.2737 37.7388 51.4479L36.421 51.2888L37.1253 45.563H43.1693V46.8127H38.3069L37.8979 50.2436H37.966C38.2046 50.0543 38.5038 49.8971 38.8635 49.7722C39.2233 49.6472 39.5982 49.5847 39.9883 49.5847C40.7002 49.5847 41.3345 49.7551 41.8912 50.096C42.4517 50.433 42.8909 50.895 43.209 51.482C43.5309 52.0689 43.6919 52.7392 43.6919 53.4928C43.6919 54.2351 43.5253 54.8978 43.192 55.481C42.8625 56.0604 42.4081 56.5186 41.8287 56.8556C41.2493 57.1889 40.5904 57.3555 39.8519 57.3555Z" fill="black"/>
  <path d="M73.2484 159.076C72.4986 159.076 71.8302 158.948 71.2432 158.69C70.66 158.432 70.1961 158.075 69.8515 157.616C69.5107 157.154 69.3251 156.619 69.2948 156.009H70.7263C70.7566 156.384 70.8853 156.708 71.1126 156.98C71.3398 157.249 71.6371 157.457 72.0044 157.605C72.3717 157.753 72.7788 157.827 73.2257 157.827C73.7255 157.827 74.1686 157.739 74.5549 157.565C74.9411 157.391 75.2441 157.149 75.4637 156.838C75.6834 156.528 75.7932 156.168 75.7932 155.759C75.7932 155.331 75.6872 154.954 75.4751 154.629C75.263 154.299 74.9525 154.042 74.5435 153.856C74.1345 153.67 73.6347 153.578 73.0439 153.578H72.1123V152.328H73.0439C73.5059 152.328 73.9111 152.245 74.2595 152.078C74.6117 151.911 74.8862 151.677 75.0832 151.374C75.2839 151.071 75.3842 150.715 75.3842 150.306C75.3842 149.912 75.2971 149.569 75.1229 149.278C74.9487 148.986 74.7026 148.759 74.3845 148.596C74.0702 148.433 73.699 148.352 73.2711 148.352C72.8697 148.352 72.491 148.426 72.135 148.573C71.7829 148.717 71.495 148.927 71.2716 149.204C71.0482 149.476 70.927 149.806 70.9081 150.192H69.5448C69.5675 149.582 69.7512 149.048 70.0958 148.59C70.4404 148.128 70.891 147.769 71.4477 147.511C72.0082 147.253 72.6235 147.125 73.2938 147.125C74.0134 147.125 74.6306 147.271 75.1456 147.562C75.6607 147.85 76.0564 148.231 76.3328 148.704C76.6093 149.177 76.7475 149.688 76.7475 150.238C76.7475 150.893 76.5752 151.451 76.2306 151.913C75.8898 152.375 75.4259 152.695 74.8389 152.873V152.964C75.5736 153.085 76.1473 153.398 76.5601 153.901C76.9728 154.401 77.1792 155.02 77.1792 155.759C77.1792 156.391 77.0069 156.959 76.6623 157.463C76.3215 157.963 75.8557 158.357 75.2649 158.645C74.6742 158.932 74.002 159.076 73.2484 159.076Z" fill="black"/>
  <path d="M63.1984 159.076C62.7212 159.069 62.2441 158.978 61.7669 158.804C61.2897 158.629 60.8542 158.336 60.4604 157.923C60.0666 157.507 59.7504 156.944 59.5118 156.236C59.2732 155.524 59.1539 154.63 59.1539 153.555C59.1539 152.525 59.2505 151.612 59.4436 150.817C59.6368 150.018 59.917 149.346 60.2843 148.8C60.6516 148.251 61.0947 147.835 61.6135 147.551C62.1361 147.267 62.725 147.125 63.3801 147.125C64.0315 147.125 64.6109 147.255 65.1183 147.517C65.6296 147.774 66.0461 148.134 66.368 148.596C66.6899 149.058 66.8982 149.59 66.9929 150.192H65.6068C65.4781 149.67 65.2281 149.236 64.857 148.891C64.4859 148.547 63.9936 148.374 63.3801 148.374C62.4788 148.374 61.7688 148.766 61.25 149.55C60.735 150.334 60.4756 151.434 60.4718 152.851H60.5627C60.7747 152.529 61.0266 152.254 61.3181 152.027C61.6135 151.796 61.9392 151.618 62.2952 151.493C62.6511 151.368 63.0279 151.305 63.4256 151.305C64.0921 151.305 64.7018 151.472 65.2547 151.805C65.8076 152.135 66.2506 152.591 66.5839 153.174C66.9171 153.754 67.0837 154.418 67.0837 155.168C67.0837 155.888 66.9228 156.547 66.6009 157.145C66.279 157.739 65.8265 158.213 65.2433 158.565C64.6639 158.913 63.9823 159.084 63.1984 159.076ZM63.1984 157.827C63.6755 157.827 64.1034 157.707 64.4821 157.469C64.8646 157.23 65.1657 156.91 65.3853 156.509C65.6087 156.107 65.7205 155.66 65.7205 155.168C65.7205 154.687 65.6125 154.25 65.3967 153.856C65.1846 153.458 64.8911 153.142 64.5162 152.907C64.1451 152.673 63.721 152.555 63.2438 152.555C62.884 152.555 62.5489 152.627 62.2384 152.771C61.9278 152.911 61.6552 153.104 61.4204 153.35C61.1894 153.597 61.0076 153.879 60.8751 154.197C60.7425 154.511 60.6763 154.842 60.6763 155.191C60.6763 155.653 60.7842 156.085 61 156.486C61.2197 156.887 61.5189 157.211 61.8975 157.457C62.28 157.704 62.7136 157.827 63.1984 157.827Z" fill="black"/>
  <path d="M50.8108 158.917L56.0141 148.624V148.533H50.0156V147.284H57.4683V148.602L52.2877 158.917H50.8108Z" fill="black"/>
  <path d="M39.8519 159.076C39.1854 159.076 38.5852 158.944 38.0512 158.679C37.5173 158.414 37.0894 158.05 36.7675 157.588C36.4456 157.126 36.2695 156.6 36.2392 156.009H37.6025C37.6555 156.535 37.8941 156.971 38.3182 157.315C38.7462 157.656 39.2574 157.827 39.8519 157.827C40.3291 157.827 40.7532 157.715 41.1243 157.491C41.4992 157.268 41.7927 156.961 42.0048 156.571C42.2207 156.177 42.3286 155.732 42.3286 155.236C42.3286 154.729 42.2169 154.276 41.9934 153.879C41.7738 153.477 41.4708 153.161 41.0846 152.93C40.6983 152.699 40.2571 152.582 39.761 152.578C39.4051 152.574 39.0396 152.629 38.6647 152.743C38.2898 152.852 37.9812 152.994 37.7388 153.169L36.421 153.01L37.1253 147.284H43.1693V148.533H38.3069L37.8979 151.964H37.966C38.2046 151.775 38.5038 151.618 38.8635 151.493C39.2233 151.368 39.5982 151.305 39.9883 151.305C40.7002 151.305 41.3345 151.476 41.8912 151.817C42.4517 152.154 42.8909 152.616 43.209 153.203C43.5309 153.79 43.6919 154.46 43.6919 155.214C43.6919 155.956 43.5253 156.619 43.192 157.202C42.8625 157.781 42.4081 158.239 41.8287 158.576C41.2493 158.91 40.5904 159.076 39.8519 159.076Z" fill="black"/>
  <defs>
    <linearGradient id="paint0_linear_0_1" x1="-230.622" y1="164.232" x2="-230.622" y2="43.3162" gradientUnits="userSpaceOnUse">
      <stop stop-color="#EDF8FB" stop-opacity="0"/>
      <stop offset="0.0192308" stop-opacity="0"/>
      <stop offset="0.0384615" stop-opacity="0"/>
      <stop offset="0.0576923" stop-opacity="0"/>
      <stop offset="0.0769231" stop-opacity="0"/>
      <stop offset="0.0961538" stop-opacity="0"/>
      <stop offset="0.115385" stop-opacity="0"/>
      <stop offset="0.134615" stop-opacity="0"/>
      <stop offset="0.153846" stop-opacity="0"/>
      <stop offset="0.173077" stop-opacity="0"/>
      <stop offset="0.192308" stop-opacity="0"/>
      <stop offset="0.211538" stop-opacity="0"/>
      <stop offset="0.230769" stop-opacity="0"/>
      <stop offset="0.25" stop-color="#B2E2E2" stop-opacity="0"/>
      <stop offset="0.269231" stop-color="#63C6AA" stop-opacity="0.0705882"/>
      <stop offset="0.288462" stop-color="#65C3A1" stop-opacity="0.14902"/>
      <stop offset="0.307692" stop-color="#65C1A3" stop-opacity="0.227451"/>
      <stop offset="0.326923" stop-color="#67C3A2" stop-opacity="0.301961"/>
      <stop offset="0.346154" stop-color="#67C3A3" stop-opacity="0.380392"/>
      <stop offset="0.365385" stop-color="#66C2A3" stop-opacity="0.458824"/>
      <stop offset="0.384615" stop-color="#65C1A3" stop-opacity="0.533333"/>
      <stop offset="0.403846" stop-color="#65C1A3" stop-opacity="0.611765"/>
      <stop offset="0.423077" stop-color="#65C2A4" stop-opacity="0.690196"/>
      <stop offset="0.442308" stop-color="#66C2A3" stop-opacity="0.764706"/>
      <stop offset="0.461538" stop-color="#66C1A4" stop-opacity="0.843137"/>
      <stop offset="0.480769" stop-color="#66C1A4" stop-opacity="0.921569"/>
      <stop offset="0.5" stop-color="#66C2A4"/>
      <stop offset="0.519231" stop-color="#61BF9E"/>
      <stop offset="0.538462" stop-color="#5DBD99"/>
      <stop offset="0.557692" stop-color="#58BA94"/>
      <stop offset="0.576923" stop-color="#54B88E"/>
      <stop offset="0.596154" stop-color="#4FB589"/>
      <stop offset="0.615385" stop-color="#4BB384"/>
      <stop offset="0.634615" stop-color="#46B07F"/>
      <stop offset="0.653846" stop-color="#42AE79"/>
      <stop offset="0.673077" stop-color="#3DAB74"/>
      <stop offset="0.692308" stop-color="#39A96F"/>
      <stop offset="0.711538" stop-color="#35A769"/>
      <stop offset="0.730769" stop-color="#30A464"/>
      <stop offset="0.75" stop-color="#2CA25F"/>
      <stop offset="0.769231" stop-color="#289E5B"/>
      <stop offset="0.788462" stop-color="#259957"/>
      <stop offset="0.807692" stop-color="#219553"/>
      <stop offset="0.826923" stop-color="#1E914F"/>
      <stop offset="0.846154" stop-color="#1B8D4B"/>
      <stop offset="0.865385" stop-color="#178947"/>
      <stop offset="0.884615" stop-color="#148543"/>
      <stop offset="0.903846" stop-color="#11813F"/>
      <stop offset="0.923077" stop-color="#0D7D3B"/>
      <stop offset="0.942308" stop-color="#0A7937"/>
      <stop offset="0.961538" stop-color="#067533"/>
      <stop offset="0.980769" stop-color="#03712F"/>
      <stop offset="1" stop-color="#006D2C"/>
    </linearGradient>
  </defs>
</svg>