<svg width="156" height="181" viewBox="0 0 156 181" fill="none" xmlns="http://www.w3.org/2000/svg">
  <path d="M44.4115 33.2893V32.2749L48.2212 28.1045C48.6683 27.616 49.0365 27.1915 49.3258 26.8308C49.6151 26.4664 49.8292 26.1245 49.9683 25.8051C50.111 25.482 50.1824 25.1438 50.1824 24.7907C50.1824 24.3849 50.0847 24.0336 49.8894 23.7368C49.6977 23.44 49.4347 23.2108 49.1004 23.0493C48.766 22.8877 48.3903 22.8069 47.9732 22.8069C47.5299 22.8069 47.1429 22.899 46.8123 23.0831C46.4854 23.2634 46.2318 23.517 46.0515 23.8439C45.8749 24.1708 45.7866 24.554 45.7866 24.9936H44.4566C44.4566 24.3173 44.6125 23.7237 44.9243 23.2127C45.2362 22.7017 45.6607 22.3035 46.198 22.0179C46.739 21.7324 47.3458 21.5896 48.0183 21.5896C48.6946 21.5896 49.2939 21.7324 49.8161 22.0179C50.3383 22.3035 50.7479 22.6886 51.0447 23.1732C51.3415 23.6579 51.4899 24.1971 51.4899 24.7907C51.4899 25.2152 51.4129 25.6304 51.2588 26.0362C51.1085 26.4382 50.8455 26.8871 50.4698 27.3831C50.0979 27.8753 49.5813 28.4764 48.92 29.1865L46.3276 31.9593V32.0494H51.6928V33.2893H44.4115Z" fill="black"/>
  <path d="M30.6407 33.2893V24.6329H31.9256V25.9854H32.0384C32.2187 25.5233 32.5099 25.1645 32.9119 24.909C33.3139 24.6498 33.7967 24.5202 34.3603 24.5202C34.9313 24.5202 35.4066 24.6498 35.7861 24.909C36.1693 25.1645 36.468 25.5233 36.6822 25.9854H36.7723C36.994 25.5383 37.3265 25.1833 37.7698 24.9203C38.2132 24.6536 38.7448 24.5202 39.3647 24.5202C40.1387 24.5202 40.7718 24.7625 41.264 25.2472C41.7561 25.7281 42.0022 26.4776 42.0022 27.4958V33.2893H40.6722V27.4958C40.6722 26.8571 40.4975 26.4006 40.1481 26.1263C39.7987 25.8521 39.3873 25.7149 38.9139 25.7149C38.3052 25.7149 37.8337 25.899 37.4993 26.2672C37.1649 26.6317 36.9977 27.0938 36.9977 27.6536V33.2893H35.6452V27.3606C35.6452 26.8684 35.4855 26.472 35.1662 26.1714C34.8468 25.8671 34.4354 25.7149 33.9319 25.7149C33.5863 25.7149 33.2632 25.807 32.9626 25.9911C32.6658 26.1752 32.4253 26.4307 32.2412 26.7575C32.0609 27.0806 31.9707 27.4545 31.9707 27.879V33.2893H30.6407Z" fill="black"/>
  <path d="M29.0641 21.2064L25.3446 35.0251H24.1273L27.8468 21.2064H29.0641Z" fill="black"/>
  <path d="M18.8072 36.7158C18.1647 36.7158 17.6124 36.6331 17.1503 36.4678C16.6882 36.3062 16.3031 36.0921 15.995 35.8253C15.6907 35.5623 15.4483 35.2806 15.268 34.98L16.3275 34.2361C16.4477 34.3939 16.5999 34.5742 16.784 34.7771C16.9681 34.9837 17.2198 35.1622 17.5392 35.3125C17.8623 35.4665 18.285 35.5436 18.8072 35.5436C19.506 35.5436 20.0827 35.3745 20.5373 35.0363C20.992 34.6982 21.2193 34.1684 21.2193 33.4471V31.6887H21.1066C21.0089 31.8465 20.8699 32.0419 20.6895 32.2749C20.5129 32.504 20.2574 32.7088 19.9231 32.8892C19.5924 33.0657 19.1453 33.154 18.5818 33.154C17.8829 33.154 17.2555 32.9887 16.6995 32.6581C16.1472 32.3275 15.7095 31.8465 15.3863 31.2154C15.067 30.5842 14.9073 29.8177 14.9073 28.916C14.9073 28.0293 15.0632 27.2572 15.3751 26.5997C15.6869 25.9385 16.1209 25.4275 16.6769 25.0668C17.233 24.7024 17.8754 24.5202 18.6043 24.5202C19.1679 24.5202 19.615 24.6141 19.9456 24.802C20.28 24.9861 20.5355 25.1965 20.7121 25.4332C20.8924 25.6661 21.0314 25.8577 21.1291 26.008H21.2644V24.6329H22.5493V33.5373C22.5493 34.2812 22.3802 34.8861 22.0421 35.3519C21.7077 35.8216 21.2568 36.1654 20.6895 36.3833C20.1259 36.6049 19.4985 36.7158 18.8072 36.7158ZM18.7621 31.9593C19.2956 31.9593 19.7465 31.8372 20.1147 31.5929C20.4829 31.3487 20.7628 30.9974 20.9544 30.5391C21.146 30.0807 21.2418 29.5322 21.2418 28.8935C21.2418 28.2698 21.1479 27.7194 20.96 27.2422C20.7722 26.765 20.4941 26.3912 20.1259 26.1207C19.7577 25.8502 19.3031 25.7149 18.7621 25.7149C18.1985 25.7149 17.7289 25.8577 17.3532 26.1432C16.9812 26.4288 16.7013 26.812 16.5135 27.2929C16.3294 27.7738 16.2373 28.3073 16.2373 28.8935C16.2373 29.4946 16.3313 30.0262 16.5191 30.4884C16.7107 30.9467 16.9925 31.3074 17.3645 31.5704C17.7402 31.8296 18.2061 31.9593 18.7621 31.9593Z" fill="black"/>
  <path d="M1.51977 33.2893V24.6329H2.8047V25.9854H2.91742C3.09776 25.5233 3.38893 25.1645 3.79094 24.909C4.19296 24.6498 4.67575 24.5202 5.23931 24.5202C5.8104 24.5202 6.28567 24.6498 6.66514 24.909C7.04837 25.1645 7.34706 25.5233 7.56121 25.9854H7.65138C7.87305 25.5383 8.20556 25.1833 8.6489 24.9203C9.09224 24.6536 9.62387 24.5202 10.2438 24.5202C11.0178 24.5202 11.6508 24.7625 12.143 25.2472C12.6352 25.7281 12.8813 26.4776 12.8813 27.4958V33.2893H11.5513V27.4958C11.5513 26.8571 11.3766 26.4006 11.0272 26.1263C10.6777 25.8521 10.2663 25.7149 9.79294 25.7149C9.18429 25.7149 8.71277 25.899 8.37838 26.2672C8.044 26.6317 7.87681 27.0938 7.87681 27.6536V33.2893H6.52425V27.3606C6.52425 26.8684 6.36457 26.472 6.04521 26.1714C5.72586 25.8671 5.31446 25.7149 4.811 25.7149C4.46535 25.7149 4.14224 25.807 3.84167 25.9911C3.54485 26.1752 3.3044 26.4307 3.1203 26.7575C2.93996 27.0806 2.84979 27.4545 2.84979 27.879V33.2893H1.51977Z" fill="black"/>
  <path d="M122.304 12.4995L122.208 13.1962C122.144 13.7076 122.036 14.2403 121.882 14.7943C121.733 15.3525 121.578 15.8703 121.416 16.3475C121.258 16.8248 121.128 17.2041 121.026 17.4853H119.671C119.726 17.2211 119.803 16.8631 119.901 16.4114C119.999 15.964 120.095 15.4633 120.188 14.9093C120.282 14.3553 120.353 13.7907 120.399 13.2154L120.463 12.4995H122.304Z" fill="black"/>
  <path d="M113.485 14.4874C112.517 14.4874 111.684 14.2808 110.986 13.8674C110.291 13.4498 109.754 12.8639 109.375 12.1096C109 11.3511 108.812 10.4626 108.812 9.44411C108.812 8.43843 109 7.55207 109.375 6.78502C109.754 6.01798 110.282 5.41926 110.96 4.98886C111.642 4.55846 112.439 4.34326 113.351 4.34326C113.905 4.34326 114.441 4.43488 114.961 4.61812C115.481 4.80136 115.948 5.089 116.361 5.48105C116.775 5.87309 117.101 6.38232 117.339 7.00875C117.578 7.6309 117.697 8.3873 117.697 9.27792V9.95548H109.892V8.52366H115.824C115.824 8.02082 115.722 7.57551 115.517 7.18772C115.313 6.79568 115.025 6.48673 114.655 6.26087C114.288 6.03502 113.858 5.9221 113.363 5.9221C112.826 5.9221 112.358 6.0542 111.957 6.3184C111.561 6.57835 111.254 6.91926 111.037 7.34113C110.824 7.75874 110.717 8.21258 110.717 8.70264V9.82125C110.717 10.4775 110.832 11.0357 111.062 11.496C111.297 11.9562 111.623 12.3078 112.04 12.5506C112.458 12.7893 112.946 12.9086 113.504 12.9086C113.866 12.9086 114.196 12.8575 114.495 12.7552C114.793 12.6487 115.051 12.491 115.268 12.2822C115.486 12.0734 115.652 11.8156 115.767 11.5087L117.576 11.8347C117.431 12.3674 117.171 12.834 116.796 13.2346C116.425 13.6309 115.959 13.9399 115.396 14.1614C114.838 14.3788 114.201 14.4874 113.485 14.4874Z" fill="black"/>
  <path d="M101.661 14.481C100.869 14.481 100.161 14.2786 99.539 13.8738C98.9211 13.4647 98.4353 12.883 98.0816 12.1288C97.7321 11.3702 97.5574 10.4604 97.5574 9.39937C97.5574 8.33829 97.7343 7.43062 98.088 6.67635C98.4459 5.92209 98.936 5.34468 99.5581 4.94411C100.18 4.54354 100.886 4.34326 101.674 4.34326C102.283 4.34326 102.773 4.44553 103.144 4.65008C103.519 4.85036 103.809 5.08474 104.013 5.3532C104.222 5.62167 104.384 5.85817 104.499 6.06272H104.614V1.19837H106.525V14.2893H104.659V12.7616H104.499C104.384 12.9704 104.218 13.209 104.001 13.4775C103.788 13.746 103.494 13.9803 103.119 14.1806C102.744 14.3809 102.258 14.481 101.661 14.481ZM102.083 12.8511C102.633 12.8511 103.097 12.7062 103.476 12.4164C103.86 12.1224 104.15 11.7154 104.346 11.1955C104.546 10.6756 104.646 10.0705 104.646 9.38019C104.646 8.69837 104.548 8.10178 104.352 7.59042C104.156 7.07905 103.869 6.68062 103.489 6.3951C103.11 6.10959 102.641 5.96684 102.083 5.96684C101.508 5.96684 101.028 6.11599 100.645 6.41428C100.261 6.71258 99.9715 7.11954 99.7755 7.63516C99.5837 8.15079 99.4878 8.73246 99.4878 9.38019C99.4878 10.0364 99.5858 10.6266 99.7819 11.1508C99.9779 11.6749 100.268 12.0904 100.651 12.3972C101.039 12.6998 101.516 12.8511 102.083 12.8511Z" fill="black"/>
  <path d="M93.5033 14.2893V4.4711H95.4145V14.2893H93.5033ZM94.4685 2.95618C94.1361 2.95618 93.8506 2.84539 93.6119 2.6238C93.3776 2.39795 93.2604 2.12948 93.2604 1.8184C93.2604 1.50306 93.3776 1.23459 93.6119 1.013C93.8506 0.787151 94.1361 0.674225 94.4685 0.674225C94.8009 0.674225 95.0842 0.787151 95.3186 1.013C95.5573 1.23459 95.6766 1.50306 95.6766 1.8184C95.6766 2.12948 95.5573 2.39795 95.3186 2.6238C95.0842 2.84539 94.8009 2.95618 94.4685 2.95618Z" fill="black"/>
  <path d="M85.0977 4.4711L87.2646 8.29354L89.4507 4.4711H91.5409L88.4791 9.38019L91.5665 14.2893H89.4763L87.2646 10.6202L85.0594 14.2893H82.9628L86.0182 9.38019L83.0011 4.4711H85.0977Z" fill="black"/>
  <path d="M77.2659 14.4874C76.3454 14.4874 75.5422 14.2765 74.8561 13.8546C74.17 13.4327 73.6373 12.8426 73.2581 12.084C72.8788 11.3255 72.6892 10.4391 72.6892 9.42494C72.6892 8.40647 72.8788 7.51585 73.2581 6.75306C73.6373 5.99028 74.17 5.39795 74.8561 4.97607C75.5422 4.5542 76.3454 4.34326 77.2659 4.34326C78.1863 4.34326 78.9896 4.5542 79.6757 4.97607C80.3618 5.39795 80.8944 5.99028 81.2737 6.75306C81.653 7.51585 81.8426 8.40647 81.8426 9.42494C81.8426 10.4391 81.653 11.3255 81.2737 12.084C80.8944 12.8426 80.3618 13.4327 79.6757 13.8546C78.9896 14.2765 78.1863 14.4874 77.2659 14.4874ZM77.2723 12.883C77.8689 12.883 78.3632 12.7254 78.7552 12.41C79.1473 12.0947 79.437 11.6749 79.6245 11.1508C79.8163 10.6266 79.9122 10.0492 79.9122 9.41855C79.9122 8.79213 79.8163 8.21684 79.6245 7.69269C79.437 7.16428 79.1473 6.74028 78.7552 6.42068C78.3632 6.10107 77.8689 5.94127 77.2723 5.94127C76.6714 5.94127 76.1728 6.10107 75.7765 6.42068C75.3845 6.74028 75.0926 7.16428 74.9008 7.69269C74.7133 8.21684 74.6196 8.79213 74.6196 9.41855C74.6196 10.0492 74.7133 10.6266 74.9008 11.1508C75.0926 11.6749 75.3845 12.0947 75.7765 12.41C76.1728 12.7254 76.6714 12.883 77.2723 12.883Z" fill="black"/>
  <path d="M68.6478 14.2893V4.4711H70.559V14.2893H68.6478ZM69.613 2.95618C69.2806 2.95618 68.9951 2.84539 68.7565 2.6238C68.5221 2.39795 68.4049 2.12948 68.4049 1.8184C68.4049 1.50306 68.5221 1.23459 68.7565 1.013C68.9951 0.787151 69.2806 0.674225 69.613 0.674225C69.9454 0.674225 70.2288 0.787151 70.4632 1.013C70.7018 1.23459 70.8211 1.50306 70.8211 1.8184C70.8211 2.12948 70.7018 2.39795 70.4632 2.6238C70.2288 2.84539 69.9454 2.95618 69.613 2.95618Z" fill="black"/>
  <path d="M61.0557 14.481C60.263 14.481 59.5557 14.2786 58.9335 13.8738C58.3156 13.4647 57.8298 12.883 57.4761 12.1288C57.1267 11.3702 56.952 10.4604 56.952 9.39937C56.952 8.33829 57.1288 7.43062 57.4825 6.67635C57.8405 5.92209 58.3305 5.34468 58.9527 4.94411C59.5748 4.54354 60.2801 4.34326 61.0684 4.34326C61.6778 4.34326 62.1679 4.44553 62.5386 4.65008C62.9136 4.85036 63.2034 5.08474 63.4079 5.3532C63.6167 5.62167 63.7787 5.85817 63.8937 6.06272H64.0088V1.19837H65.92V14.2893H64.0535V12.7616H63.8937C63.7787 12.9704 63.6125 13.209 63.3951 13.4775C63.1821 13.746 62.888 13.9803 62.513 14.1806C62.138 14.3809 61.6522 14.481 61.0557 14.481ZM61.4775 12.8511C62.0272 12.8511 62.4917 12.7062 62.871 12.4164C63.2545 12.1224 63.5443 11.7154 63.7403 11.1955C63.9406 10.6756 64.0407 10.0705 64.0407 9.38019C64.0407 8.69837 63.9427 8.10178 63.7467 7.59042C63.5507 7.07905 63.263 6.68062 62.8838 6.3951C62.5045 6.10959 62.0358 5.96684 61.4775 5.96684C60.9022 5.96684 60.4228 6.11599 60.0393 6.41428C59.6558 6.71258 59.366 7.11954 59.17 7.63516C58.9782 8.15079 58.8824 8.73246 58.8824 9.38019C58.8824 10.0364 58.9804 10.6266 59.1764 11.1508C59.3724 11.6749 59.6622 12.0904 60.0457 12.3972C60.4335 12.6998 60.9108 12.8511 61.4775 12.8511Z" fill="black"/>
  <path d="M45.7084 14.2893V4.4711H47.5557V6.03076H47.6579C47.8369 5.50235 48.1522 5.08687 48.604 4.78431C49.0599 4.47749 49.5755 4.32408 50.1508 4.32408C50.2701 4.32408 50.4108 4.32834 50.5727 4.33687C50.7389 4.34539 50.8689 4.35604 50.9626 4.36883V6.19695C50.8859 6.17564 50.7495 6.15221 50.5535 6.12664C50.3575 6.09681 50.1615 6.08189 49.9655 6.08189C49.5138 6.08189 49.1111 6.17777 48.7574 6.36954C48.4079 6.55704 48.1309 6.81911 47.9264 7.15576C47.7218 7.48814 47.6196 7.86741 47.6196 8.29354V14.2893H45.7084Z" fill="black"/>
  <path d="M41.2227 10.2175V4.4711H43.1404V14.2893H41.2611V12.589H41.1588C40.933 13.1131 40.5707 13.5499 40.0722 13.8994C39.5779 14.2445 38.9621 14.4171 38.2249 14.4171C37.5942 14.4171 37.0359 14.2786 36.5502 14.0016C36.0686 13.7204 35.6894 13.3049 35.4124 12.7552C35.1396 12.2055 35.0033 11.5258 35.0033 10.7161V4.4711H36.9145V10.486C36.9145 11.155 37.0999 11.6877 37.4706 12.084C37.8413 12.4803 38.3229 12.6785 38.9152 12.6785C39.2732 12.6785 39.629 12.589 39.9827 12.41C40.3406 12.231 40.6368 11.9604 40.8712 11.5982C41.1098 11.236 41.227 10.7758 41.2227 10.2175Z" fill="black"/>
  <path d="M33.0313 4.4711V6.00519H27.483V4.4711H33.0313ZM29.0043 14.2893V3.33331C29.0043 2.71968 29.1386 2.21044 29.407 1.80561C29.6755 1.39652 30.0313 1.09183 30.4745 0.891551C30.9177 0.687005 31.3992 0.584732 31.9191 0.584732C32.3026 0.584732 32.6308 0.616693 32.9035 0.680614C33.1762 0.740272 33.3786 0.79567 33.5107 0.846807L33.0633 2.39368C32.9738 2.36811 32.8587 2.33828 32.7181 2.30419C32.5775 2.26584 32.407 2.24666 32.2068 2.24666C31.7423 2.24666 31.4099 2.36172 31.2096 2.59183C31.0136 2.82195 30.9156 3.15434 30.9156 3.58899V14.2893H29.0043Z" fill="black"/>
  <path d="M25.7875 1.19837V14.2893H23.8763V1.19837H25.7875Z" fill="black"/>
  <path d="M19.3907 10.2175V4.4711H21.3083V14.2893H19.4291V12.589H19.3268C19.1009 13.1131 18.7387 13.5499 18.2401 13.8994C17.7458 14.2445 17.1301 14.4171 16.3928 14.4171C15.7622 14.4171 15.2039 14.2786 14.7181 14.0016C14.2366 13.7204 13.8573 13.3049 13.5803 12.7552C13.3076 12.2055 13.1712 11.5258 13.1712 10.7161V4.4711H15.0825V10.486C15.0825 11.155 15.2678 11.6877 15.6386 12.084C16.0093 12.4803 16.4909 12.6785 17.0832 12.6785C17.4411 12.6785 17.797 12.589 18.1507 12.41C18.5086 12.231 18.8048 11.9604 19.0391 11.5982C19.2778 11.236 19.395 10.7758 19.3907 10.2175Z" fill="black"/>
  <path d="M8.88059 4.63729C8.8124 4.03218 8.53115 3.56343 8.03684 3.23104C7.54252 2.89439 6.92036 2.72607 6.17036 2.72607C5.63343 2.72607 5.16894 2.8113 4.77689 2.98175C4.38485 3.14795 4.08016 3.37806 3.86283 3.67209C3.64976 3.96187 3.54323 4.29212 3.54323 4.66286C3.54323 4.97394 3.61567 5.24241 3.76056 5.46826C3.90971 5.69411 4.1036 5.88374 4.34223 6.03715C4.58513 6.1863 4.84507 6.31201 5.12206 6.41428C5.39905 6.51229 5.66539 6.59326 5.92107 6.65718L7.19948 6.98956C7.61709 7.09184 8.04536 7.23033 8.48428 7.40505C8.9232 7.57976 9.33016 7.80988 9.70516 8.09539C10.0802 8.3809 10.3827 8.73459 10.6128 9.15647C10.8472 9.57834 10.9644 10.0833 10.9644 10.6714C10.9644 11.4129 10.7726 12.0712 10.3891 12.6465C10.0098 13.2218 9.458 13.6756 8.73357 14.008C8.0134 14.3404 7.14195 14.5066 6.11922 14.5066C5.13911 14.5066 4.2911 14.3511 3.57519 14.04C2.85928 13.7289 2.29891 13.2879 1.89408 12.7168C1.48925 12.1416 1.26553 11.4597 1.22292 10.6714H3.20445C3.2428 11.1444 3.39621 11.5386 3.66468 11.8539C3.9374 12.165 4.28471 12.3972 4.70658 12.5506C5.13272 12.6998 5.59934 12.7744 6.10644 12.7744C6.66468 12.7744 7.16113 12.687 7.59579 12.5123C8.03471 12.3333 8.37988 12.0862 8.6313 11.7708C8.88272 11.4512 9.00843 11.0783 9.00843 10.6522C9.00843 10.2644 8.89763 9.94695 8.67604 9.69979C8.45871 9.45263 8.16255 9.24809 7.78755 9.08616C7.41681 8.92422 6.99706 8.78147 6.52831 8.65789L4.98144 8.23601C3.93314 7.9505 3.10218 7.53076 2.48854 6.97678C1.87917 6.4228 1.57448 5.68985 1.57448 4.77792C1.57448 4.02366 1.77902 3.36527 2.18811 2.80277C2.59721 2.24027 3.15118 1.80348 3.85005 1.49241C4.54891 1.17706 5.33726 1.01939 6.2151 1.01939C7.10147 1.01939 7.88343 1.17493 8.56098 1.48601C9.2428 1.79709 9.77973 2.22536 10.1718 2.77081C10.5638 3.31201 10.7684 3.93417 10.7854 4.63729H8.88059Z" fill="black"/>
  <path d="M26.5305 47.5624H0.297058V168.172H26.5305V47.5624Z" fill="url(#paint0_linear_0_1)"/>
  <path fill-rule="evenodd" clip-rule="evenodd" d="M0.1371 47.4025H26.6904V168.332H0.1371V47.4025ZM0.45702 47.7224V168.012H26.3705V47.7224H0.45702Z" fill="black"/>
  <path d="M49.0187 59.1V57.9412L54.131 49.8524H54.9717V51.6474H54.4037L50.541 57.7595V57.8504H57.4257V59.1H49.0187ZM54.4946 61.4858V58.7479V58.2082V49.8524H55.8352V61.4858H54.4946Z" fill="black"/>
  <path d="M46.8303 59.8953L46.7394 60.5088C46.675 60.9405 46.5766 61.4025 46.444 61.8948C46.3153 62.3871 46.1808 62.851 46.0407 63.2865C45.9006 63.722 45.7851 64.0685 45.6942 64.326H44.6718C44.721 64.0836 44.7854 63.7636 44.8649 63.366C44.9444 62.9684 45.0239 62.5234 45.1035 62.0311C45.1868 61.5426 45.2549 61.0427 45.308 60.5315L45.3761 59.8953H46.8303Z" fill="black"/>
  <path d="M39.149 61.6449C38.4825 61.6449 37.8823 61.5123 37.3483 61.2472C36.8144 60.9821 36.3864 60.6186 36.0645 60.1566C35.7427 59.6946 35.5666 59.1682 35.5363 58.5774H36.8996C36.9526 59.1038 37.1912 59.5393 37.6153 59.8839C38.0432 60.2248 38.5544 60.3952 39.149 60.3952C39.6261 60.3952 40.0503 60.2835 40.4214 60.06C40.7963 59.8366 41.0898 59.5299 41.3019 59.1398C41.5177 58.746 41.6256 58.301 41.6256 57.8049C41.6256 57.2975 41.5139 56.8449 41.2905 56.4473C41.0709 56.0459 40.7679 55.7297 40.3816 55.4987C39.9954 55.2677 39.5542 55.1503 39.0581 55.1465C38.7021 55.1427 38.3367 55.1976 37.9618 55.3112C37.5869 55.421 37.2783 55.563 37.0359 55.7372L35.718 55.5782L36.4224 49.8524H42.4663V51.102H37.6039L37.1949 54.533H37.2631C37.5017 54.3437 37.8008 54.1865 38.1606 54.0615C38.5204 53.9366 38.8953 53.8741 39.2853 53.8741C39.9973 53.8741 40.6316 54.0445 41.1883 54.3853C41.7487 54.7223 42.188 55.1844 42.5061 55.7713C42.828 56.3583 42.9889 57.0286 42.9889 57.7822C42.9889 58.5244 42.8223 59.1871 42.4891 59.7703C42.1596 60.3497 41.7052 60.8079 41.1258 61.145C40.5464 61.4782 39.8874 61.6449 39.149 61.6449Z" fill="black"/>
  <path d="M39.308 163.363C38.4522 163.363 37.7232 163.13 37.1211 162.664C36.519 162.195 36.0589 161.515 35.7408 160.625C35.4227 159.731 35.2636 158.652 35.2636 157.387C35.2636 156.13 35.4227 155.056 35.7408 154.167C36.0626 153.273 36.5247 152.591 37.1268 152.122C37.7327 151.648 38.4598 151.412 39.308 151.412C40.1563 151.412 40.8815 151.648 41.4836 152.122C42.0895 152.591 42.5515 153.273 42.8697 154.167C43.1915 155.056 43.3525 156.13 43.3525 157.387C43.3525 158.652 43.1934 159.731 42.8753 160.625C42.5572 161.515 42.0971 162.195 41.495 162.664C40.8929 163.13 40.1639 163.363 39.308 163.363ZM39.308 162.113C40.1563 162.113 40.8152 161.704 41.2848 160.886C41.7544 160.068 41.9892 158.902 41.9892 157.387C41.9892 156.38 41.8813 155.522 41.6654 154.814C41.4533 154.106 41.1466 153.566 40.7452 153.195C40.3476 152.824 39.8685 152.638 39.308 152.638C38.4673 152.638 37.8103 153.053 37.3369 153.883C36.8636 154.708 36.6269 155.876 36.6269 157.387C36.6269 158.395 36.7329 159.25 36.945 159.955C37.1571 160.659 37.4619 161.195 37.8595 161.562C38.261 161.93 38.7438 162.113 39.308 162.113Z" fill="black"/>
  <defs>
    <linearGradient id="paint0_linear_0_1" x1="-231.325" y1="168.521" x2="-231.325" y2="47.604" gradientUnits="userSpaceOnUse">
      <stop stop-color="white"/>
      <stop offset="0.25" stop-color="#570F6E"/>
      <stop offset="0.5" stop-color="#BB3755"/>
      <stop offset="0.75" stop-color="#F98D0A"/>
      <stop offset="1" stop-color="#FCFFA4"/>
    </linearGradient>
  </defs>
</svg>