<svg width="78" height="167" viewBox="0 0 78 167" fill="none" xmlns="http://www.w3.org/2000/svg">
  <path d="M13.8151 7.45455C13.8151 8.85227 13.5594 10.054 13.048 11.0597C12.5367 12.0611 11.8357 12.8324 10.945 13.3736C10.0587 13.9105 9.05086 14.179 7.9216 14.179C6.78807 14.179 5.776 13.9105 4.88537 13.3736C3.99901 12.8324 3.30015 12.0589 2.78878 11.0533C2.27742 10.0476 2.02174 8.84801 2.02174 7.45455C2.02174 6.05682 2.27742 4.85724 2.78878 3.85582C3.30015 2.85014 3.99901 2.07883 4.88537 1.5419C5.776 1.00071 6.78807 0.730113 7.9216 0.730113C9.05086 0.730113 10.0587 1.00071 10.945 1.5419C11.8357 2.07883 12.5367 2.85014 13.048 3.85582C13.5594 4.85724 13.8151 6.05682 13.8151 7.45455ZM11.8591 7.45455C11.8591 6.3892 11.6865 5.49219 11.3413 4.76349C11.0004 4.03054 10.5317 3.47656 9.93509 3.10156C9.34276 2.7223 8.6716 2.53267 7.9216 2.53267C7.16733 2.53267 6.49404 2.7223 5.90171 3.10156C5.30938 3.47656 4.84063 4.03054 4.49546 4.76349C4.15455 5.49219 3.98409 6.3892 3.98409 7.45455C3.98409 8.51989 4.15455 9.41903 4.49546 10.152C4.84063 10.8807 5.30938 11.4347 5.90171 11.8139C6.49404 12.1889 7.16733 12.3764 7.9216 12.3764C8.6716 12.3764 9.34276 12.1889 9.93509 11.8139C10.5317 11.4347 11.0004 10.8807 11.3413 10.152C11.6865 9.41903 11.8591 8.51989 11.8591 7.45455ZM15.9196 14V12.6896L21.2378 5.93324V5.84375H16.0922V4.18182H23.6221V5.57528L18.5084 12.2486V12.3381H23.801V14H15.9196ZM29.9102 14.1982C28.9898 14.1982 28.1865 13.9872 27.5004 13.5653C26.8144 13.1435 26.2817 12.5533 25.9024 11.7947C25.5232 11.0362 25.3335 10.1499 25.3335 9.13565C25.3335 8.11719 25.5232 7.22656 25.9024 6.46378C26.2817 5.70099 26.8144 5.10866 27.5004 4.68679C28.1865 4.26491 28.9898 4.05398 29.9102 4.05398C30.8307 4.05398 31.634 4.26491 32.32 4.68679C33.0061 5.10866 33.5388 5.70099 33.918 6.46378C34.2973 7.22656 34.4869 8.11719 34.4869 9.13565C34.4869 10.1499 34.2973 11.0362 33.918 11.7947C33.5388 12.5533 33.0061 13.1435 32.32 13.5653C31.634 13.9872 30.8307 14.1982 29.9102 14.1982ZM29.9166 12.5938C30.5132 12.5938 31.0075 12.4361 31.3996 12.1207C31.7916 11.8054 32.0814 11.3857 32.2689 10.8615C32.4607 10.3374 32.5565 9.75994 32.5565 9.12926C32.5565 8.50284 32.4607 7.92756 32.2689 7.40341C32.0814 6.875 31.7916 6.45099 31.3996 6.13139C31.0075 5.81179 30.5132 5.65199 29.9166 5.65199C29.3158 5.65199 28.8172 5.81179 28.4209 6.13139C28.0288 6.45099 27.7369 6.875 27.5452 7.40341C27.3577 7.92756 27.2639 8.50284 27.2639 9.12926C27.2639 9.75994 27.3577 10.3374 27.5452 10.8615C27.7369 11.3857 28.0288 11.8054 28.4209 12.1207C28.8172 12.4361 29.3158 12.5938 29.9166 12.5938ZM38.5315 8.17045V14H36.6203V4.18182H38.4548V5.77983H38.5762C38.8021 5.25994 39.1558 4.84233 39.6373 4.52699C40.1231 4.21165 40.7346 4.05398 41.4718 4.05398C42.1409 4.05398 42.7268 4.1946 43.2297 4.47585C43.7325 4.75284 44.1224 5.16619 44.3994 5.71591C44.6764 6.26562 44.8149 6.94531 44.8149 7.75497V14H42.9037V7.98509C42.9037 7.27344 42.7183 6.71733 42.3476 6.31676C41.9768 5.91193 41.4676 5.70952 40.8199 5.70952C40.3767 5.70952 39.9825 5.8054 39.6373 5.99716C39.2964 6.18892 39.0258 6.47017 38.8255 6.84091C38.6295 7.20739 38.5315 7.65057 38.5315 8.17045ZM51.6096 14.1982C50.6423 14.1982 49.8092 13.9915 49.1103 13.5781C48.4157 13.1605 47.8788 12.5746 47.4995 11.8203C47.1245 11.0618 46.937 10.1733 46.937 9.15483C46.937 8.14915 47.1245 7.26278 47.4995 6.49574C47.8788 5.72869 48.4072 5.12997 49.0848 4.69957C49.7666 4.26918 50.5635 4.05398 51.4754 4.05398C52.0294 4.05398 52.5663 4.1456 53.0862 4.32884C53.6061 4.51207 54.0727 4.79972 54.486 5.19176C54.8994 5.58381 55.2254 6.09304 55.464 6.71946C55.7027 7.34162 55.822 8.09801 55.822 8.98864V9.66619H48.0173V8.23438H53.9491C53.9491 7.73153 53.8468 7.28622 53.6423 6.89844C53.4378 6.50639 53.1501 6.19744 52.7794 5.97159C52.4129 5.74574 51.9825 5.63281 51.4882 5.63281C50.9512 5.63281 50.4825 5.76491 50.0819 6.02912C49.6856 6.28906 49.3788 6.62997 49.1615 7.05185C48.9484 7.46946 48.8419 7.9233 48.8419 8.41335V9.53196C48.8419 10.1882 48.9569 10.7464 49.187 11.2067C49.4214 11.6669 49.7474 12.0185 50.165 12.2614C50.5826 12.5 51.0706 12.6193 51.6288 12.6193C51.991 12.6193 52.3213 12.5682 52.6196 12.4659C52.9179 12.3594 53.1757 12.2017 53.393 11.9929C53.6103 11.7841 53.7765 11.5263 53.8916 11.2195L55.7005 11.5455C55.5557 12.0781 55.2957 12.5447 54.9207 12.9453C54.55 13.3416 54.0833 13.6506 53.5208 13.8722C52.9626 14.0895 52.3255 14.1982 51.6096 14.1982ZM60.4291 12.2102L60.3332 12.907C60.2693 13.4183 60.1606 13.951 60.0072 14.505C59.858 15.0632 59.7025 15.581 59.5406 16.0582C59.3829 16.5355 59.2529 16.9148 59.1506 17.196H57.7955C57.8509 16.9318 57.9276 16.5739 58.0256 16.1222C58.1237 15.6747 58.2195 15.174 58.3133 14.62C58.407 14.0661 58.4773 13.5014 58.5242 12.9261L58.5881 12.2102H60.4291ZM2.22271 33V24.3436H3.50764V25.6962H3.62035C3.8007 25.234 4.09187 24.8752 4.49388 24.6198C4.8959 24.3605 5.37869 24.2309 5.94225 24.2309C6.51333 24.2309 6.98861 24.3605 7.36808 24.6198C7.7513 24.8752 8.05 25.234 8.26415 25.6962H8.35432C8.57599 25.2491 8.9085 24.894 9.35184 24.631C9.79518 24.3643 10.3268 24.2309 10.9467 24.2309C11.7207 24.2309 12.3538 24.4732 12.846 24.9579C13.3381 25.4388 13.5842 26.1883 13.5842 27.2065V33H12.2542V27.2065C12.2542 26.5678 12.0795 26.1113 11.7301 25.8371C11.3807 25.5628 10.9693 25.4257 10.4959 25.4257C9.88723 25.4257 9.41571 25.6098 9.08132 25.9779C8.74694 26.3424 8.57975 26.8045 8.57975 27.3643V33H7.22719V27.0713C7.22719 26.5791 7.06751 26.1827 6.74815 25.8821C6.4288 25.5778 6.0174 25.4257 5.51394 25.4257C5.16829 25.4257 4.84517 25.5177 4.54461 25.7018C4.24779 25.8859 4.00734 26.1414 3.82324 26.4683C3.6429 26.7914 3.55273 27.1652 3.55273 27.5898V33H2.22271ZM19.5101 36.4265C18.8677 36.4265 18.3154 36.3438 17.8533 36.1785C17.3911 36.017 17.006 35.8028 16.6979 35.5361C16.3936 35.2731 16.1513 34.9913 15.9709 34.6907L17.0304 33.9468C17.1507 34.1046 17.3028 34.2849 17.4869 34.4878C17.671 34.6945 17.9228 34.8729 18.2421 35.0232C18.5652 35.1772 18.9879 35.2543 19.5101 35.2543C20.209 35.2543 20.7857 35.0852 21.2403 34.7471C21.6949 34.4089 21.9222 33.8792 21.9222 33.1578V31.3995H21.8095C21.7118 31.5573 21.5728 31.7526 21.3925 31.9856C21.2159 32.2148 20.9604 32.4195 20.626 32.5999C20.2954 32.7765 19.8483 32.8647 19.2847 32.8647C18.5859 32.8647 17.9585 32.6994 17.4024 32.3688C16.8501 32.0382 16.4124 31.5573 16.0893 30.9261C15.7699 30.2949 15.6103 29.5284 15.6103 28.6267C15.6103 27.74 15.7662 26.9679 16.078 26.3105C16.3899 25.6492 16.8238 25.1382 17.3799 24.7776C17.9359 24.4131 18.5784 24.2309 19.3073 24.2309C19.8708 24.2309 20.3179 24.3248 20.6485 24.5127C20.9829 24.6968 21.2384 24.9072 21.415 25.1439C21.5953 25.3768 21.7344 25.5684 21.832 25.7187H21.9673V24.3436H23.2522V33.248C23.2522 33.9919 23.0832 34.5968 22.745 35.0627C22.4106 35.5323 21.9598 35.8761 21.3925 36.094C20.8289 36.3157 20.2014 36.4265 19.5101 36.4265ZM19.4651 31.67C19.9986 31.67 20.4494 31.5479 20.8176 31.3037C21.1858 31.0594 21.4657 30.7082 21.6573 30.2498C21.8489 29.7914 21.9448 29.2429 21.9448 28.6042C21.9448 27.9805 21.8508 27.4301 21.663 26.9529C21.4751 26.4758 21.1971 26.1019 20.8289 25.8314C20.4607 25.5609 20.0061 25.4257 19.4651 25.4257C18.9015 25.4257 18.4318 25.5684 18.0561 25.854C17.6842 26.1395 17.4043 26.5227 17.2164 27.0036C17.0323 27.4846 16.9403 28.0181 16.9403 28.6042C16.9403 29.2053 17.0342 29.7369 17.2221 30.1991C17.4137 30.6574 17.6955 31.0181 18.0674 31.2811C18.4431 31.5404 18.909 31.67 19.4651 31.67ZM29.7671 20.9171L26.0475 34.7358H24.8302L28.5498 20.9171H29.7671ZM31.3436 33V24.3436H32.6286V25.6962H32.7413C32.9216 25.234 33.2128 24.8752 33.6148 24.6198C34.0168 24.3605 34.4996 24.2309 35.0632 24.2309C35.6343 24.2309 36.1095 24.3605 36.489 24.6198C36.8722 24.8752 37.1709 25.234 37.3851 25.6962H37.4753C37.6969 25.2491 38.0294 24.894 38.4728 24.631C38.9161 24.3643 39.4477 24.2309 40.0677 24.2309C40.8416 24.2309 41.4747 24.4732 41.9669 24.9579C42.4591 25.4388 42.7052 26.1883 42.7052 27.2065V33H41.3751V27.2065C41.3751 26.5678 41.2004 26.1113 40.851 25.8371C40.5016 25.5628 40.0902 25.4257 39.6168 25.4257C39.0082 25.4257 38.5366 25.6098 38.2023 25.9779C37.8679 26.3424 37.7007 26.8045 37.7007 27.3643V33H36.3481V27.0713C36.3481 26.5791 36.1884 26.1827 35.8691 25.8821C35.5497 25.5778 35.1383 25.4257 34.6349 25.4257C34.2892 25.4257 33.9661 25.5177 33.6655 25.7018C33.3687 25.8859 33.1283 26.1414 32.9442 26.4683C32.7638 26.7914 32.6737 27.1652 32.6737 27.5898V33H31.3436ZM45.1144 33V31.9856L48.9241 27.8152C49.3712 27.3268 49.7394 26.9022 50.0287 26.5415C50.318 26.1771 50.5322 25.8352 50.6712 25.5158C50.814 25.1927 50.8853 24.8546 50.8853 24.5014C50.8853 24.0956 50.7877 23.7443 50.5923 23.4475C50.4007 23.1507 50.1377 22.9215 49.8033 22.76C49.4689 22.5984 49.0932 22.5176 48.6762 22.5176C48.2328 22.5176 47.8458 22.6097 47.5152 22.7938C47.1883 22.9741 46.9347 23.2277 46.7544 23.5546C46.5778 23.8815 46.4895 24.2647 46.4895 24.7043H45.1595C45.1595 24.028 45.3154 23.4344 45.6273 22.9234C45.9391 22.4124 46.3637 22.0142 46.9009 21.7286C47.442 21.4431 48.0487 21.3003 48.7212 21.3003C49.3975 21.3003 49.9968 21.4431 50.519 21.7286C51.0413 22.0142 51.4508 22.3993 51.7476 22.884C52.0444 23.3686 52.1928 23.9078 52.1928 24.5014C52.1928 24.926 52.1158 25.3411 51.9618 25.7469C51.8115 26.1489 51.5485 26.5979 51.1728 27.0938C50.8008 27.586 50.2842 28.1871 49.623 28.8972L47.0305 31.67V31.7602H52.3957V33H45.1144Z" fill="black"/>
  <path d="M27.2334 45.2862H1V165.896H27.2334V45.2862Z" fill="url(#paint0_linear_0_1)" stroke="black" stroke-width="0.31992" stroke-miterlimit="2" stroke-linecap="square"/>
  <path d="M39.8519 59.3558C39.1854 59.3558 38.5852 59.2232 38.0512 58.9581C37.5173 58.6931 37.0894 58.3295 36.7675 57.8675C36.4456 57.4055 36.2695 56.8791 36.2392 56.2884H37.6025C37.6555 56.8147 37.8941 57.2502 38.3182 57.5948C38.7462 57.9357 39.2574 58.1061 39.8519 58.1061C40.3291 58.1061 40.7532 57.9944 41.1243 57.7709C41.4992 57.5475 41.7927 57.2408 42.0048 56.8507C42.2207 56.4569 42.3286 56.0119 42.3286 55.5158C42.3286 55.0084 42.2169 54.5558 41.9934 54.1582C41.7738 53.7568 41.4708 53.4406 41.0846 53.2096C40.6983 52.9786 40.2571 52.8612 39.761 52.8574C39.4051 52.8536 39.0396 52.9085 38.6647 53.0221C38.2898 53.1319 37.9812 53.274 37.7388 53.4482L36.421 53.2891L37.1253 47.5633H43.1693V48.813H38.3069L37.8979 52.2439H37.966C38.2046 52.0546 38.5038 51.8974 38.8635 51.7724C39.2233 51.6475 39.5982 51.585 39.9883 51.585C40.7002 51.585 41.3345 51.7554 41.8912 52.0962C42.4517 52.4333 42.8909 52.8953 43.209 53.4822C43.5309 54.0692 43.6919 54.7395 43.6919 55.4931C43.6919 56.2353 43.5253 56.8981 43.192 57.4812C42.8625 58.0606 42.4081 58.5189 41.8287 58.8559C41.2493 59.1891 40.5904 59.3558 39.8519 59.3558ZM50.8108 59.1967L56.0141 48.9038V48.813H50.0156V47.5633H57.4683V48.8811L52.2877 59.1967H50.8108ZM63.133 47.4042C63.6102 47.408 64.0873 47.4989 64.5645 47.6769C65.0416 47.8549 65.4771 48.1502 65.871 48.563C66.2648 48.972 66.581 49.5306 66.8196 50.2387C67.0582 50.9469 67.1775 51.8349 67.1775 52.9028C67.1775 53.9367 67.079 54.855 66.8821 55.6578C66.689 56.4569 66.4087 57.1309 66.0414 57.6801C65.6778 58.2292 65.2348 58.6457 64.7122 58.9297C64.1934 59.2138 63.6064 59.3558 62.9513 59.3558C62.2999 59.3558 61.7186 59.227 61.2074 58.9695C60.6999 58.7082 60.2834 58.3466 59.9577 57.8845C59.6358 57.4188 59.4294 56.8791 59.3385 56.2656H60.7245C60.8495 56.7996 61.0976 57.2408 61.4687 57.5892C61.8436 57.9338 62.3378 58.1061 62.9513 58.1061C63.8488 58.1061 64.5569 57.7141 65.0757 56.9302C65.5983 56.1463 65.8596 55.0387 65.8596 53.6072H65.7687C65.5567 53.9253 65.3048 54.1999 65.0132 54.4309C64.7216 54.6619 64.3979 54.8399 64.0419 54.9648C63.6859 55.0898 63.3072 55.1523 62.9058 55.1523C62.2393 55.1523 61.6277 54.9875 61.071 54.6581C60.5182 54.3248 60.0751 53.8685 59.7418 53.2891C59.4124 52.7059 59.2476 52.0394 59.2476 51.2896C59.2476 50.5777 59.4067 49.9263 59.7248 49.3356C60.0467 48.741 60.4973 48.2676 61.0767 47.9155C61.6599 47.5633 62.3453 47.3929 63.133 47.4042ZM63.133 48.6539C62.6559 48.6539 62.2261 48.7732 61.8436 49.0118C61.4649 49.2466 61.1638 49.5647 60.9404 49.9661C60.7208 50.3637 60.6109 50.8049 60.6109 51.2896C60.6109 51.7743 60.717 52.2155 60.929 52.6131C61.1449 53.007 61.4384 53.3213 61.8095 53.5561C62.1844 53.7871 62.6104 53.9026 63.0876 53.9026C63.4473 53.9026 63.7825 53.8325 64.093 53.6924C64.4035 53.5485 64.6743 53.3535 64.9053 53.1073C65.1401 52.8574 65.3238 52.5753 65.4563 52.261C65.5889 51.9429 65.6551 51.6115 65.6551 51.2669C65.6551 50.8125 65.5453 50.3864 65.3257 49.9888C65.1098 49.5912 64.8106 49.2693 64.4282 49.0231C64.0495 48.777 63.6178 48.6539 63.133 48.6539ZM69.4624 59.1967L74.6656 48.9038V48.813H68.6672V47.5633H76.1198V48.8811L70.9393 59.1967H69.4624Z" fill="black"/>
  <path d="M39.8519 161.075C39.1854 161.075 38.5852 160.943 38.0512 160.678C37.5173 160.413 37.0894 160.049 36.7675 159.587C36.4456 159.125 36.2695 158.599 36.2392 158.008H37.6025C37.6555 158.534 37.8941 158.97 38.3182 159.314C38.7462 159.655 39.2574 159.826 39.8519 159.826C40.3291 159.826 40.7532 159.714 41.1243 159.49C41.4992 159.267 41.7927 158.96 42.0048 158.57C42.2207 158.176 42.3286 157.731 42.3286 157.235C42.3286 156.728 42.2169 156.275 41.9934 155.878C41.7738 155.476 41.4708 155.16 41.0846 154.929C40.6983 154.698 40.2571 154.581 39.761 154.577C39.4051 154.573 39.0396 154.628 38.6647 154.742C38.2898 154.851 37.9812 154.994 37.7388 155.168L36.421 155.009L37.1253 149.283H43.1693V150.532H38.3069L37.8979 153.963H37.966C38.2046 153.774 38.5038 153.617 38.8635 153.492C39.2233 153.367 39.5982 153.305 39.9883 153.305C40.7002 153.305 41.3345 153.475 41.8912 153.816C42.4517 154.153 42.8909 154.615 43.209 155.202C43.5309 155.789 43.6919 156.459 43.6919 157.213C43.6919 157.955 43.5253 158.618 43.192 159.201C42.8625 159.78 42.4081 160.238 41.8287 160.575C41.2493 160.909 40.5904 161.075 39.8519 161.075ZM50.8108 160.916L56.0141 150.623V150.532H50.0156V149.283H57.4683V150.601L52.2877 160.916H50.8108ZM63.1984 161.075C62.7212 161.068 62.244 160.977 61.7669 160.803C61.2897 160.628 60.8542 160.335 60.4604 159.922C60.0666 159.506 59.7504 158.943 59.5118 158.235C59.2732 157.523 59.1539 156.629 59.1539 155.554C59.1539 154.524 59.2505 153.611 59.4436 152.816C59.6367 152.017 59.917 151.345 60.2843 150.799C60.6516 150.25 61.0947 149.834 61.6135 149.55C62.1361 149.266 62.725 149.124 63.3801 149.124C64.0315 149.124 64.6109 149.254 65.1183 149.516C65.6296 149.773 66.0461 150.133 66.368 150.595C66.6899 151.057 66.8982 151.589 66.9929 152.191H65.6068C65.4781 151.669 65.2281 151.235 64.857 150.89C64.4859 150.546 63.9936 150.373 63.3801 150.373C62.4788 150.373 61.7688 150.765 61.25 151.549C60.735 152.333 60.4756 153.433 60.4718 154.85H60.5626C60.7747 154.528 61.0265 154.253 61.3181 154.026C61.6135 153.795 61.9392 153.617 62.2952 153.492C62.6511 153.367 63.0279 153.305 63.4256 153.305C64.0921 153.305 64.7018 153.471 65.2547 153.804C65.8075 154.134 66.2506 154.59 66.5839 155.173C66.9171 155.753 67.0837 156.417 67.0837 157.167C67.0837 157.887 66.9228 158.546 66.6009 159.144C66.279 159.739 65.8265 160.212 65.2433 160.564C64.6639 160.912 63.9822 161.083 63.1984 161.075ZM63.1984 159.826C63.6755 159.826 64.1034 159.706 64.4821 159.468C64.8646 159.229 65.1657 158.909 65.3853 158.508C65.6087 158.106 65.7204 157.66 65.7204 157.167C65.7204 156.686 65.6125 156.249 65.3967 155.855C65.1846 155.457 64.8911 155.141 64.5162 154.906C64.1451 154.672 63.7209 154.554 63.2438 154.554C62.884 154.554 62.5489 154.626 62.2384 154.77C61.9278 154.91 61.6552 155.103 61.4204 155.349C61.1894 155.596 61.0076 155.878 60.8751 156.196C60.7425 156.51 60.6763 156.842 60.6763 157.19C60.6763 157.652 60.7842 158.084 61 158.485C61.2197 158.886 61.5188 159.21 61.8975 159.456C62.28 159.703 62.7136 159.826 63.1984 159.826ZM73.2484 161.075C72.4986 161.075 71.8302 160.947 71.2432 160.689C70.66 160.432 70.1961 160.074 69.8515 159.615C69.5107 159.153 69.3251 158.618 69.2948 158.008H70.7263C70.7566 158.383 70.8853 158.707 71.1126 158.979C71.3398 159.248 71.6371 159.456 72.0044 159.604C72.3717 159.752 72.7788 159.826 73.2257 159.826C73.7255 159.826 74.1686 159.739 74.5549 159.564C74.9411 159.39 75.2441 159.148 75.4637 158.837C75.6834 158.527 75.7932 158.167 75.7932 157.758C75.7932 157.33 75.6872 156.953 75.4751 156.628C75.263 156.298 74.9525 156.041 74.5435 155.855C74.1345 155.669 73.6347 155.577 73.0439 155.577H72.1123V154.327H73.0439C73.5059 154.327 73.9111 154.244 74.2595 154.077C74.6117 153.91 74.8862 153.676 75.0832 153.373C75.2839 153.07 75.3842 152.714 75.3842 152.305C75.3842 151.911 75.2971 151.568 75.1229 151.277C74.9487 150.985 74.7026 150.758 74.3845 150.595C74.0702 150.432 73.699 150.351 73.2711 150.351C72.8697 150.351 72.491 150.425 72.135 150.572C71.7829 150.716 71.495 150.926 71.2716 151.203C71.0482 151.475 70.927 151.805 70.9081 152.191H69.5448C69.5675 151.581 69.7512 151.048 70.0958 150.589C70.4404 150.127 70.891 149.768 71.4477 149.51C72.0082 149.253 72.6235 149.124 73.2938 149.124C74.0134 149.124 74.6306 149.27 75.1456 149.561C75.6607 149.849 76.0564 150.23 76.3328 150.703C76.6093 151.176 76.7475 151.688 76.7475 152.237C76.7475 152.892 76.5752 153.45 76.2306 153.912C75.8898 154.374 75.4259 154.694 74.8389 154.872V154.963C75.5736 155.084 76.1473 155.397 76.5601 155.9C76.9728 156.4 77.1792 157.02 77.1792 157.758C77.1792 158.39 77.0069 158.958 76.6623 159.462C76.3215 159.962 75.8557 160.356 75.2649 160.644C74.6742 160.931 74.002 161.075 73.2484 161.075Z" fill="black"/>
  <defs>
    <linearGradient id="paint0_linear_0_1" x1="-230.622" y1="166.231" x2="-230.622" y2="45.3163" gradientUnits="userSpaceOnUse">
      <stop stop-color="#EDF8FB"/>
      <stop offset="0.25" stop-color="#B2E2E2"/>
      <stop offset="0.5" stop-color="#66C2A4"/>
      <stop offset="0.75" stop-color="#2CA25F"/>
      <stop offset="1" stop-color="#006D2C"/>
    </linearGradient>
  </defs>
</svg>