<svg width="79" height="167" viewBox="0 0 79 167" fill="none" xmlns="http://www.w3.org/2000/svg">
  <path d="M45.1144 33V31.9856L48.9241 27.8152C49.3712 27.3268 49.7394 26.9022 50.0287 26.5415C50.318 26.1771 50.5322 25.8352 50.6712 25.5158C50.814 25.1927 50.8853 24.8546 50.8853 24.5014C50.8853 24.0956 50.7877 23.7444 50.5923 23.4475C50.4007 23.1507 50.1377 22.9216 49.8033 22.76C49.4689 22.5984 49.0932 22.5177 48.6762 22.5177C48.2328 22.5177 47.8458 22.6097 47.5152 22.7938C47.1883 22.9741 46.9347 23.2278 46.7544 23.5546C46.5778 23.8815 46.4895 24.2647 46.4895 24.7043H45.1595C45.1595 24.028 45.3154 23.4344 45.6273 22.9234C45.9391 22.4125 46.3637 22.0142 46.9009 21.7287C47.4419 21.4431 48.0487 21.3004 48.7212 21.3004C49.3975 21.3004 49.9968 21.4431 50.519 21.7287C51.0413 22.0142 51.4508 22.3993 51.7476 22.884C52.0444 23.3686 52.1928 23.9078 52.1928 24.5014C52.1928 24.926 52.1158 25.3411 51.9618 25.7469C51.8115 26.1489 51.5485 26.5979 51.1728 27.0938C50.8008 27.586 50.2842 28.1871 49.623 28.8972L47.0305 31.67V31.7602H52.3957V33H45.1144Z" fill="black"/>
  <path d="M31.3437 33V24.3436H32.6286V25.6962H32.7413C32.9216 25.234 33.2128 24.8752 33.6148 24.6198C34.0168 24.3605 34.4996 24.2309 35.0632 24.2309C35.6343 24.2309 36.1096 24.3605 36.489 24.6198C36.8723 24.8752 37.1709 25.234 37.3851 25.6962H37.4753C37.6969 25.2491 38.0294 24.894 38.4728 24.631C38.9161 24.3643 39.4478 24.2309 40.0677 24.2309C40.8416 24.2309 41.4747 24.4732 41.9669 24.9579C42.4591 25.4388 42.7052 26.1884 42.7052 27.2065V33H41.3752V27.2065C41.3752 26.5678 41.2005 26.1113 40.851 25.8371C40.5016 25.5628 40.0902 25.4257 39.6168 25.4257C39.0082 25.4257 38.5367 25.6098 38.2023 25.978C37.8679 26.3424 37.7007 26.8045 37.7007 27.3643V33H36.3481V27.0713C36.3481 26.5791 36.1885 26.1827 35.8691 25.8821C35.5498 25.5778 35.1383 25.4257 34.6349 25.4257C34.2892 25.4257 33.9661 25.5177 33.6656 25.7018C33.3687 25.8859 33.1283 26.1414 32.9442 26.4683C32.7638 26.7914 32.6737 27.1652 32.6737 27.5898V33H31.3437Z" fill="black"/>
  <path d="M29.7671 20.9171L26.0475 34.7358H24.8302L28.5497 20.9171H29.7671Z" fill="black"/>
  <path d="M19.5101 36.4265C18.8677 36.4265 18.3154 36.3438 17.8533 36.1785C17.3911 36.017 17.006 35.8028 16.6979 35.5361C16.3936 35.2731 16.1513 34.9913 15.9709 34.6907L17.0305 33.9468C17.1507 34.1046 17.3028 34.2849 17.4869 34.4878C17.671 34.6945 17.9228 34.8729 18.2421 35.0232C18.5652 35.1773 18.9879 35.2543 19.5101 35.2543C20.209 35.2543 20.7857 35.0852 21.2403 34.7471C21.6949 34.4089 21.9222 33.8792 21.9222 33.1578V31.3995H21.8095C21.7118 31.5573 21.5728 31.7526 21.3925 31.9856C21.2159 32.2148 20.9604 32.4195 20.626 32.5999C20.2954 32.7765 19.8483 32.8647 19.2847 32.8647C18.5859 32.8647 17.9585 32.6994 17.4024 32.3688C16.8501 32.0382 16.4124 31.5573 16.0893 30.9261C15.7699 30.2949 15.6103 29.5284 15.6103 28.6267C15.6103 27.74 15.7662 26.968 16.078 26.3105C16.3899 25.6492 16.8238 25.1382 17.3799 24.7776C17.9359 24.4131 18.5784 24.2309 19.3073 24.2309C19.8708 24.2309 20.3179 24.3248 20.6486 24.5127C20.9829 24.6968 21.2384 24.9072 21.415 25.1439C21.5953 25.3768 21.7344 25.5684 21.832 25.7187H21.9673V24.3436H23.2522V33.248C23.2522 33.9919 23.0832 34.5968 22.745 35.0627C22.4106 35.5323 21.9598 35.8761 21.3925 36.094C20.8289 36.3157 20.2015 36.4265 19.5101 36.4265ZM19.4651 31.67C19.9986 31.67 20.4494 31.5479 20.8176 31.3037C21.1858 31.0595 21.4657 30.7082 21.6573 30.2498C21.849 29.7914 21.9448 29.2429 21.9448 28.6042C21.9448 27.9805 21.8508 27.4301 21.663 26.9529C21.4751 26.4758 21.1971 26.1019 20.8289 25.8314C20.4607 25.5609 20.0061 25.4257 19.4651 25.4257C18.9015 25.4257 18.4319 25.5684 18.0561 25.854C17.6842 26.1395 17.4043 26.5227 17.2164 27.0036C17.0323 27.4846 16.9403 28.0181 16.9403 28.6042C16.9403 29.2053 17.0342 29.737 17.2221 30.1991C17.4137 30.6574 17.6955 31.0181 18.0674 31.2811C18.4431 31.5404 18.909 31.67 19.4651 31.67Z" fill="black"/>
  <path d="M2.22272 33V24.3436H3.50765V25.6962H3.62036C3.80071 25.234 4.09188 24.8752 4.49389 24.6198C4.89591 24.3605 5.3787 24.2309 5.94226 24.2309C6.51334 24.2309 6.98862 24.3605 7.36809 24.6198C7.75131 24.8752 8.05001 25.234 8.26416 25.6962H8.35433C8.576 25.2491 8.90851 24.894 9.35185 24.631C9.79519 24.3643 10.3268 24.2309 10.9467 24.2309C11.7207 24.2309 12.3538 24.4732 12.846 24.9579C13.3381 25.4388 13.5842 26.1884 13.5842 27.2065V33H12.2542V27.2065C12.2542 26.5678 12.0795 26.1113 11.7301 25.8371C11.3807 25.5628 10.9693 25.4257 10.4959 25.4257C9.88724 25.4257 9.41572 25.6098 9.08133 25.978C8.74695 26.3424 8.57976 26.8045 8.57976 27.3643V33H7.2272V27.0713C7.2272 26.5791 7.06752 26.1827 6.74816 25.8821C6.42881 25.5778 6.01741 25.4257 5.51395 25.4257C5.1683 25.4257 4.84518 25.5177 4.54462 25.7018C4.2478 25.8859 4.00735 26.1414 3.82325 26.4683C3.64291 26.7914 3.55274 27.1652 3.55274 27.5898V33H2.22272Z" fill="black"/>
  <path d="M60.4291 12.2102L60.3332 12.9069C60.2693 13.4183 60.1606 13.951 60.0072 14.5049C59.858 15.0632 59.7025 15.5809 59.5406 16.0582C59.3829 16.5355 59.2529 16.9147 59.1506 17.196H57.7955C57.8509 16.9318 57.9276 16.5738 58.0256 16.1221C58.1237 15.6747 58.2195 15.174 58.3133 14.62C58.407 14.066 58.4774 13.5014 58.5242 12.9261L58.5881 12.2102H60.4291Z" fill="black"/>
  <path d="M51.6096 14.1981C50.6423 14.1981 49.8092 13.9915 49.1103 13.5781C48.4157 13.1605 47.8788 12.5746 47.4995 11.8203C47.1245 11.0618 46.937 10.1733 46.937 9.15481C46.937 8.14913 47.1245 7.26276 47.4995 6.49572C47.8788 5.72867 48.4072 5.12995 49.0848 4.69955C49.7666 4.26915 50.5635 4.05396 51.4754 4.05396C52.0294 4.05396 52.5663 4.14558 53.0862 4.32881C53.6061 4.51205 54.0727 4.79969 54.486 5.19174C54.8994 5.58378 55.2254 6.09302 55.464 6.71944C55.7027 7.3416 55.822 8.09799 55.822 8.98861V9.66617H48.0173V8.23435H53.9491C53.9491 7.73151 53.8468 7.2862 53.6423 6.89842C53.4378 6.50637 53.1501 6.19742 52.7794 5.97157C52.4129 5.74572 51.9825 5.63279 51.4882 5.63279C50.9512 5.63279 50.4825 5.76489 50.0819 6.0291C49.6856 6.28904 49.3788 6.62995 49.1615 7.05182C48.9484 7.46944 48.8419 7.92327 48.8419 8.41333V9.53194C48.8419 10.1882 48.9569 10.7464 49.187 11.2067C49.4214 11.6669 49.7474 12.0184 50.165 12.2613C50.5826 12.5 51.0706 12.6193 51.6288 12.6193C51.991 12.6193 52.3213 12.5682 52.6196 12.4659C52.9179 12.3594 53.1757 12.2017 53.393 11.9929C53.6103 11.7841 53.7765 11.5263 53.8916 11.2194L55.7005 11.5454C55.5557 12.0781 55.2957 12.5447 54.9207 12.9453C54.55 13.3416 54.0834 13.6505 53.5209 13.8721C52.9626 14.0895 52.3255 14.1981 51.6096 14.1981Z" fill="black"/>
  <path d="M38.5315 8.17043V14H36.6203V4.1818H38.4548V5.77981H38.5762C38.8021 5.25992 39.1558 4.84231 39.6373 4.52697C40.1231 4.21163 40.7346 4.05396 41.4718 4.05396C42.1409 4.05396 42.7268 4.19458 43.2296 4.47583C43.7325 4.75282 44.1224 5.16617 44.3994 5.71589C44.6764 6.2656 44.8149 6.94529 44.8149 7.75495V14H42.9037V7.98506C42.9037 7.27342 42.7183 6.71731 42.3475 6.31674C41.9768 5.91191 41.4676 5.70949 40.8198 5.70949C40.3767 5.70949 39.9825 5.80538 39.6373 5.99714C39.2964 6.1889 39.0258 6.47015 38.8255 6.84089C38.6295 7.20736 38.5315 7.65055 38.5315 8.17043Z" fill="black"/>
  <path d="M29.9102 14.1981C28.9898 14.1981 28.1865 13.9872 27.5004 13.5653C26.8144 13.1434 26.2817 12.5532 25.9024 11.7947C25.5232 11.0362 25.3335 10.1498 25.3335 9.13563C25.3335 8.11716 25.5232 7.22654 25.9024 6.46376C26.2817 5.70097 26.8144 5.10864 27.5004 4.68677C28.1865 4.26489 28.9898 4.05396 29.9102 4.05396C30.8307 4.05396 31.634 4.26489 32.32 4.68677C33.0061 5.10864 33.5388 5.70097 33.918 6.46376C34.2973 7.22654 34.4869 8.11716 34.4869 9.13563C34.4869 10.1498 34.2973 11.0362 33.918 11.7947C33.5388 12.5532 33.0061 13.1434 32.32 13.5653C31.634 13.9872 30.8307 14.1981 29.9102 14.1981ZM29.9166 12.5937C30.5132 12.5937 31.0075 12.4361 31.3996 12.1207C31.7916 11.8054 32.0814 11.3856 32.2689 10.8615C32.4607 10.3373 32.5565 9.75992 32.5565 9.12924C32.5565 8.50282 32.4607 7.92753 32.2689 7.40339C32.0814 6.87498 31.7916 6.45097 31.3996 6.13137C31.0075 5.81177 30.5132 5.65197 29.9166 5.65197C29.3158 5.65197 28.8172 5.81177 28.4209 6.13137C28.0288 6.45097 27.7369 6.87498 27.5452 7.40339C27.3577 7.92753 27.2639 8.50282 27.2639 9.12924C27.2639 9.75992 27.3577 10.3373 27.5452 10.8615C27.7369 11.3856 28.0288 11.8054 28.4209 12.1207C28.8172 12.4361 29.3158 12.5937 29.9166 12.5937Z" fill="black"/>
  <path d="M15.9196 14V12.6896L21.2378 5.93324V5.84376H16.0922V4.18182H23.6221V5.57529L18.5084 12.2486V12.3381H23.801V14H15.9196Z" fill="black"/>
  <path d="M13.8151 7.45453C13.8151 8.85226 13.5594 10.054 13.048 11.0596C12.5366 12.0611 11.8356 12.8324 10.945 13.3736C10.0587 13.9105 9.05085 14.179 7.92159 14.179C6.78806 14.179 5.77599 13.9105 4.88537 13.3736C3.999 12.8324 3.30014 12.0589 2.78877 11.0533C2.27741 10.0476 2.02173 8.848 2.02173 7.45453C2.02173 6.05681 2.27741 4.85723 2.78877 3.85581C3.30014 2.85013 3.999 2.07882 4.88537 1.54189C5.77599 1.0007 6.78806 0.730103 7.92159 0.730103C9.05085 0.730103 10.0587 1.0007 10.945 1.54189C11.8356 2.07882 12.5366 2.85013 13.048 3.85581C13.5594 4.85723 13.8151 6.05681 13.8151 7.45453ZM11.8591 7.45453C11.8591 6.38919 11.6865 5.49218 11.3413 4.76348C11.0004 4.03053 10.5317 3.47655 9.93508 3.10155C9.34275 2.72229 8.67159 2.53266 7.92159 2.53266C7.16733 2.53266 6.49403 2.72229 5.9017 3.10155C5.30937 3.47655 4.84062 4.03053 4.49545 4.76348C4.15454 5.49218 3.98409 6.38919 3.98409 7.45453C3.98409 8.51988 4.15454 9.41902 4.49545 10.152C4.84062 10.8807 5.30937 11.4346 5.9017 11.8139C6.49403 12.1889 7.16733 12.3764 7.92159 12.3764C8.67159 12.3764 9.34275 12.1889 9.93508 11.8139C10.5317 11.4346 11.0004 10.8807 11.3413 10.152C11.6865 9.41902 11.8591 8.51988 11.8591 7.45453Z" fill="black"/>
  <path d="M27.2334 45.2863H1V165.896H27.2334V45.2863Z" fill="url(#paint0_linear_0_1)"/>
  <path fill-rule="evenodd" clip-rule="evenodd" d="M0.840027 45.1263H27.3934V166.056H0.840027V45.1263ZM1.15995 45.4462V165.736H27.0735V45.4462H1.15995Z" fill="black"/>
  <path d="M74.506 159.159C73.6501 159.159 72.9212 158.926 72.319 158.46C71.7169 157.991 71.2568 157.311 70.9387 156.421C70.6206 155.527 70.4615 154.448 70.4615 153.183C70.4615 151.926 70.6206 150.852 70.9387 149.963C71.2606 149.069 71.7226 148.387 72.3247 147.918C72.9306 147.444 73.6577 147.208 74.506 147.208C75.3543 147.208 76.0795 147.444 76.6816 147.918C77.2875 148.387 77.7495 149.069 78.0676 149.963C78.3895 150.852 78.5504 151.926 78.5504 153.183C78.5504 154.448 78.3914 155.527 78.0733 156.421C77.7552 157.311 77.2951 157.991 76.6929 158.46C76.0908 158.926 75.3618 159.159 74.506 159.159ZM74.506 157.909C75.3543 157.909 76.0132 157.5 76.4828 156.682C76.9523 155.864 77.1871 154.698 77.1871 153.183C77.1871 152.176 77.0792 151.318 76.8633 150.61C76.6513 149.902 76.3445 149.362 75.9431 148.991C75.5455 148.62 75.0665 148.434 74.506 148.434C73.6653 148.434 73.0083 148.849 72.5349 149.678C72.0615 150.504 71.8248 151.672 71.8248 153.183C71.8248 154.191 71.9309 155.046 72.1429 155.751C72.355 156.455 72.6599 156.991 73.0575 157.358C73.4589 157.726 73.9417 157.909 74.506 157.909Z" fill="black"/>
  <path d="M64.4574 159.159C63.7076 159.159 63.0392 159.03 62.4522 158.773C61.869 158.515 61.4051 158.157 61.0605 157.699C60.7197 157.237 60.5341 156.701 60.5038 156.092H61.9353C61.9656 156.467 62.0943 156.79 62.3215 157.063C62.5488 157.332 62.846 157.54 63.2134 157.688C63.5807 157.836 63.9878 157.909 64.4346 157.909C64.9345 157.909 65.3776 157.822 65.7639 157.648C66.1501 157.474 66.4531 157.232 66.6727 156.921C66.8924 156.61 67.0022 156.251 67.0022 155.842C67.0022 155.414 66.8962 155.037 66.6841 154.711C66.472 154.382 66.1615 154.124 65.7525 153.939C65.3435 153.753 64.8436 153.66 64.2529 153.66H63.3213V152.411H64.2529C64.7149 152.411 65.1201 152.327 65.4685 152.161C65.8207 151.994 66.0952 151.759 66.2921 151.456C66.4928 151.154 66.5932 150.798 66.5932 150.389C66.5932 149.995 66.5061 149.652 66.3319 149.36C66.1577 149.069 65.9115 148.842 65.5934 148.679C65.2791 148.516 64.908 148.434 64.4801 148.434C64.0787 148.434 63.7 148.508 63.344 148.656C62.9918 148.8 62.704 149.01 62.4806 149.287C62.2572 149.559 62.136 149.889 62.117 150.275H60.7538C60.7765 149.665 60.9601 149.131 61.3048 148.673C61.6494 148.211 62.1 147.851 62.6567 147.594C63.2171 147.336 63.8325 147.208 64.5028 147.208C65.2223 147.208 65.8396 147.353 66.3546 147.645C66.8696 147.933 67.2654 148.313 67.5418 148.787C67.8183 149.26 67.9565 149.771 67.9565 150.32C67.9565 150.976 67.7842 151.534 67.4396 151.996C67.0988 152.458 66.6349 152.778 66.0479 152.956V153.047C66.7825 153.168 67.3563 153.481 67.769 153.984C68.1818 154.484 68.3882 155.103 68.3882 155.842C68.3882 156.474 68.2159 157.042 67.8713 157.546C67.5305 158.046 67.0647 158.44 66.4739 158.727C65.8831 159.015 65.211 159.159 64.4574 159.159Z" fill="black"/>
  <path d="M50.8415 159V157.978L54.6814 153.774C55.1321 153.282 55.5032 152.854 55.7948 152.49C56.0864 152.123 56.3022 151.778 56.4423 151.456C56.5862 151.131 56.6582 150.79 56.6582 150.434C56.6582 150.025 56.5597 149.671 56.3628 149.372C56.1697 149.073 55.9046 148.842 55.5675 148.679C55.2305 148.516 54.8518 148.434 54.4315 148.434C53.9846 148.434 53.5946 148.527 53.2613 148.713C52.9318 148.895 52.6762 149.15 52.4945 149.48C52.3165 149.809 52.2275 150.195 52.2275 150.638H50.8869C50.8869 149.957 51.0441 149.358 51.3584 148.843C51.6727 148.328 52.1006 147.927 52.6421 147.639C53.1875 147.351 53.7991 147.208 54.4769 147.208C55.1586 147.208 55.7626 147.351 56.289 147.639C56.8153 147.927 57.2281 148.315 57.5273 148.804C57.8265 149.292 57.976 149.836 57.976 150.434C57.976 150.862 57.8984 151.28 57.7431 151.689C57.5917 152.095 57.3266 152.547 56.9479 153.047C56.573 153.543 56.0523 154.149 55.3858 154.865L52.7728 157.659V157.75H58.1805V159H50.8415Z" fill="black"/>
  <path d="M37.5678 159L42.771 148.707V148.616H36.7725V147.367H44.2252V148.684L39.0447 159H37.5678Z" fill="black"/>
  <path d="M73.3029 61.1591C72.447 61.1591 71.7181 60.9262 71.1159 60.4604C70.5138 59.9908 70.0537 59.311 69.7356 58.4211C69.4175 57.5274 69.2585 56.4481 69.2585 55.1833C69.2585 53.926 69.4175 52.8524 69.7356 51.9625C70.0575 51.0688 70.5195 50.3871 71.1216 49.9176C71.7275 49.4442 72.4546 49.2075 73.3029 49.2075C74.1512 49.2075 74.8764 49.4442 75.4785 49.9176C76.0844 50.3871 76.5464 51.0688 76.8645 51.9625C77.1864 52.8524 77.3473 53.926 77.3473 55.1833C77.3473 56.4481 77.1883 57.5274 76.8702 58.4211C76.5521 59.311 76.092 59.9908 75.4898 60.4604C74.8877 60.9262 74.1587 61.1591 73.3029 61.1591ZM73.3029 59.9094C74.1512 59.9094 74.8101 59.5004 75.2797 58.6824C75.7492 57.8644 75.984 56.6981 75.984 55.1833C75.984 54.176 75.8761 53.3182 75.6603 52.6101C75.4482 51.9019 75.1414 51.3623 74.74 50.9912C74.3424 50.62 73.8634 50.4345 73.3029 50.4345C72.4622 50.4345 71.8052 50.8492 71.3318 51.6785C70.8584 52.504 70.6217 53.6723 70.6217 55.1833C70.6217 56.1906 70.7278 57.0465 70.9398 57.7508C71.1519 58.4552 71.4568 58.9911 71.8544 59.3584C72.2558 59.7257 72.7386 59.9094 73.3029 59.9094Z" fill="black"/>
  <path d="M63.3892 61.1591C62.912 61.1515 62.4349 61.0606 61.9577 60.8864C61.4806 60.7122 61.0451 60.4187 60.6512 60.0059C60.2574 59.5894 59.9412 59.027 59.7026 58.3189C59.464 57.6069 59.3448 56.7132 59.3448 55.6377C59.3448 54.6077 59.4413 53.695 59.6345 52.8998C59.8276 52.1007 60.1078 51.4286 60.4752 50.8832C60.8425 50.3341 61.2856 49.9176 61.8044 49.6335C62.327 49.3495 62.9158 49.2075 63.571 49.2075C64.2223 49.2075 64.8017 49.3382 65.3092 49.5995C65.8204 49.857 66.237 50.2167 66.5589 50.6787C66.8807 51.1407 67.089 51.6728 67.1837 52.2749H65.7977C65.6689 51.7523 65.419 51.3187 65.0479 50.9741C64.6768 50.6295 64.1845 50.4572 63.571 50.4572C62.6697 50.4572 61.9596 50.8492 61.4408 51.633C60.9258 52.4169 60.6664 53.517 60.6626 54.9334H60.7535C60.9656 54.6115 61.2174 54.3369 61.509 54.1097C61.8044 53.8787 62.13 53.7007 62.486 53.5757C62.842 53.4508 63.2188 53.3883 63.6164 53.3883C64.2829 53.3883 64.8926 53.5549 65.4455 53.8882C65.9984 54.2176 66.4415 54.674 66.7747 55.2571C67.108 55.8365 67.2746 56.5011 67.2746 57.251C67.2746 57.9705 67.1136 58.6294 66.7918 59.2277C66.4699 59.8223 66.0173 60.2956 65.4341 60.6478C64.8547 60.9962 64.1731 61.1666 63.3892 61.1591ZM63.3892 59.9094C63.8664 59.9094 64.2943 59.7901 64.673 59.5515C65.0554 59.3129 65.3565 58.9929 65.5762 58.5915C65.7996 58.1901 65.9113 57.7433 65.9113 57.251C65.9113 56.77 65.8034 56.3326 65.5875 55.9388C65.3754 55.5412 65.082 55.225 64.7071 54.9902C64.3359 54.7554 63.9118 54.638 63.4346 54.638C63.0749 54.638 62.7397 54.7099 62.4292 54.8538C62.1187 54.9939 61.846 55.1871 61.6112 55.4332C61.3802 55.6794 61.1985 55.9615 61.0659 56.2796C60.9334 56.5939 60.8671 56.9253 60.8671 57.2737C60.8671 57.7357 60.975 58.1674 61.1909 58.5688C61.4105 58.9702 61.7097 59.294 62.0884 59.5402C62.4709 59.7863 62.9045 59.9094 63.3892 59.9094Z" fill="black"/>
  <path d="M49.8415 61V59.9775L53.6814 55.7741C54.1321 55.2818 54.5032 54.8538 54.7948 54.4903C55.0864 54.123 55.3022 53.7783 55.4423 53.4565C55.5862 53.1308 55.6582 52.79 55.6582 52.434C55.6582 52.025 55.5597 51.6709 55.3628 51.3717C55.1697 51.0726 54.9046 50.8416 54.5675 50.6787C54.2305 50.5159 53.8518 50.4345 53.4315 50.4345C52.9846 50.4345 52.5946 50.5273 52.2613 50.7128C51.9318 50.8946 51.6762 51.1502 51.4945 51.4797C51.3165 51.8091 51.2275 52.1954 51.2275 52.6385H49.8869C49.8869 51.9568 50.0441 51.3585 50.3584 50.8435C50.6727 50.3285 51.1006 49.927 51.6421 49.6392C52.1875 49.3514 52.7991 49.2075 53.4769 49.2075C54.1586 49.2075 54.7626 49.3514 55.289 49.6392C55.8153 49.927 56.2281 50.3152 56.5273 50.8037C56.8265 51.2922 56.976 51.8356 56.976 52.434C56.976 52.8619 56.8984 53.2804 56.7431 53.6894C56.5917 54.0946 56.3266 54.5471 55.9479 55.047C55.573 55.5431 55.0523 56.149 54.3858 56.8647L51.7728 59.6594V59.7503H57.1805V61H49.8415Z" fill="black"/>
  <path d="M36.5678 61L41.771 50.7072V50.6163H35.7725V49.3666H43.2252V50.6844L38.0447 61H36.5678Z" fill="black"/>
  <defs>
    <linearGradient id="paint0_linear_0_1" x1="-230.622" y1="166.231" x2="-230.622" y2="45.3163" gradientUnits="userSpaceOnUse">
      <stop stop-color="#EDF8FB"/>
      <stop offset="0.25" stop-color="#B2E2E2"/>
      <stop offset="0.5" stop-color="#66C2A4"/>
      <stop offset="0.75" stop-color="#2CA25F"/>
      <stop offset="1" stop-color="#006D2C"/>
    </linearGradient>
  </defs>
</svg>