<svg width="133" height="166" viewBox="0 0 133 166" fill="none" xmlns="http://www.w3.org/2000/svg">
  <path d="M129.239 33.0366C128.405 33.0366 127.685 32.8525 127.08 32.4843C126.479 32.1124 126.015 31.5939 125.688 30.9289C125.365 30.2601 125.204 29.4824 125.204 28.5957C125.204 27.709 125.365 26.9276 125.688 26.2513C126.015 25.5712 126.47 25.0415 127.052 24.662C127.638 24.2788 128.322 24.0872 129.104 24.0872C129.554 24.0872 130 24.1623 130.439 24.3126C130.879 24.4629 131.279 24.7071 131.64 25.0453C132 25.3796 132.288 25.823 132.502 26.3753C132.716 26.9276 132.823 27.6076 132.823 28.4154V28.979H126.151V27.8293H131.471C131.471 27.3409 131.373 26.905 131.178 26.5218C130.986 26.1386 130.712 25.8361 130.355 25.6145C130.002 25.3928 129.585 25.282 129.104 25.282C128.574 25.282 128.115 25.4135 127.729 25.6764C127.345 25.9357 127.05 26.2738 126.844 26.6909C126.637 27.1079 126.534 27.555 126.534 28.0322V28.7986C126.534 29.4524 126.646 30.0065 126.872 30.4611C127.101 30.912 127.419 31.2558 127.824 31.4925C128.23 31.7254 128.702 31.8419 129.239 31.8419C129.588 31.8419 129.904 31.793 130.186 31.6953C130.471 31.5939 130.717 31.4436 130.924 31.2445C131.131 31.0416 131.29 30.7899 131.403 30.4893L132.688 30.85C132.553 31.2858 132.325 31.6691 132.006 31.9997C131.687 32.3265 131.292 32.582 130.822 32.7661C130.353 32.9465 129.825 33.0366 129.239 33.0366Z" fill="black"/>
  <path d="M123.173 21.3144V32.8563H121.843V21.3144H123.173Z" fill="black"/>
  <path d="M112.173 36.1024V24.1999H113.458V25.575H113.615C113.713 25.4247 113.848 25.2331 114.021 25.0002C114.198 24.7635 114.449 24.5531 114.776 24.369C115.107 24.1811 115.554 24.0872 116.118 24.0872C116.847 24.0872 117.489 24.2694 118.045 24.6338C118.601 24.9983 119.035 25.5149 119.347 26.1837C119.659 26.8524 119.815 27.6414 119.815 28.5506C119.815 29.4674 119.659 30.262 119.347 30.9345C119.035 31.6033 118.603 32.1218 118.051 32.49C117.498 32.8544 116.862 33.0366 116.14 33.0366C115.584 33.0366 115.139 32.9446 114.805 32.7605C114.47 32.5726 114.213 32.3604 114.032 32.1237C113.852 31.8832 113.713 31.6841 113.615 31.5263H113.503V36.1024H112.173ZM113.48 28.5281C113.48 29.1818 113.576 29.7586 113.768 30.2583C113.959 30.7542 114.239 31.1431 114.607 31.4248C114.975 31.7029 115.426 31.8419 115.96 31.8419C116.516 31.8419 116.98 31.6954 117.352 31.4023C117.728 31.1055 118.009 30.7072 118.197 30.2075C118.389 29.7041 118.485 29.1443 118.485 28.5281C118.485 27.9194 118.391 27.3709 118.203 26.8825C118.019 26.3903 117.739 26.0014 117.363 25.7159C116.991 25.4266 116.523 25.282 115.96 25.282C115.419 25.282 114.964 25.4191 114.596 25.6934C114.228 25.9639 113.95 26.3433 113.762 26.8318C113.574 27.3164 113.48 27.8819 113.48 28.5281Z" fill="black"/>
  <path d="M106.22 33.0366C105.438 33.0366 104.753 32.8507 104.163 32.4787C103.577 32.1068 103.118 31.5864 102.788 30.9176C102.461 30.2489 102.298 29.4674 102.298 28.5732C102.298 27.6715 102.461 26.8844 102.788 26.2118C103.118 25.5393 103.577 25.0171 104.163 24.6451C104.753 24.2732 105.438 24.0872 106.22 24.0872C107.001 24.0872 107.685 24.2732 108.271 24.6451C108.861 25.0171 109.32 25.5393 109.646 26.2118C109.977 26.8844 110.142 27.6715 110.142 28.5732C110.142 29.4674 109.977 30.2489 109.646 30.9176C109.32 31.5864 108.861 32.1068 108.271 32.4787C107.685 32.8507 107.001 33.0366 106.22 33.0366ZM106.22 31.8419C106.814 31.8419 107.302 31.6897 107.685 31.3854C108.068 31.0811 108.352 30.6809 108.536 30.185C108.72 29.689 108.812 29.1518 108.812 28.5732C108.812 27.9946 108.72 27.4554 108.536 26.9557C108.352 26.4561 108.068 26.0522 107.685 25.7441C107.302 25.436 106.814 25.282 106.22 25.282C105.626 25.282 105.138 25.436 104.755 25.7441C104.371 26.0522 104.088 26.4561 103.904 26.9557C103.72 27.4554 103.628 27.9946 103.628 28.5732C103.628 29.1518 103.72 29.689 103.904 30.185C104.088 30.6809 104.371 31.0811 104.755 31.3854C105.138 31.6897 105.626 31.8419 106.22 31.8419Z" fill="black"/>
  <path d="M97.0958 33.0366C96.2617 33.0366 95.5422 32.8525 94.9373 32.4843C94.3362 32.1124 93.8722 31.5939 93.5453 30.9289C93.2222 30.2601 93.0607 29.4824 93.0607 28.5957C93.0607 27.709 93.2222 26.9276 93.5453 26.2513C93.8722 25.5712 94.3268 25.0415 94.9092 24.662C95.4953 24.2788 96.1791 24.0872 96.9606 24.0872C97.4114 24.0872 97.8566 24.1623 98.2962 24.3126C98.7358 24.4629 99.1359 24.7071 99.4966 25.0453C99.8573 25.3796 100.145 25.823 100.359 26.3753C100.573 26.9276 100.68 27.6076 100.68 28.4154V28.979H94.0075V27.8293H99.3275C99.3275 27.3409 99.2299 26.905 99.0345 26.5218C98.8429 26.1386 98.5686 25.8361 98.2117 25.6145C97.8585 25.3928 97.4415 25.282 96.9606 25.282C96.4308 25.282 95.9724 25.4135 95.5854 25.6764C95.2022 25.9357 94.9073 26.2738 94.7006 26.6909C94.494 27.1079 94.3907 27.555 94.3907 28.0322V28.7986C94.3907 29.4524 94.5034 30.0065 94.7288 30.4611C94.958 30.912 95.2755 31.2558 95.6813 31.4925C96.087 31.7254 96.5585 31.8419 97.0958 31.8419C97.4452 31.8419 97.7608 31.793 98.0426 31.6953C98.3281 31.5939 98.5742 31.4436 98.7809 31.2445C98.9875 31.0416 99.1472 30.7899 99.2599 30.4893L100.545 30.85C100.41 31.2858 100.182 31.6691 99.8629 31.9997C99.5436 32.3265 99.1491 32.582 98.6794 32.7661C98.2098 32.9465 97.6819 33.0366 97.0958 33.0366Z" fill="black"/>
  <path d="M83.7956 36.1024V24.1999H85.0806V25.575H85.2384C85.336 25.4247 85.4713 25.2331 85.6441 25.0002C85.8207 24.7635 86.0724 24.5531 86.3993 24.369C86.7299 24.1811 87.177 24.0872 87.7406 24.0872C88.4695 24.0872 89.1119 24.2694 89.668 24.6338C90.224 24.9983 90.658 25.5149 90.9698 26.1837C91.2817 26.8524 91.4376 27.6414 91.4376 28.5506C91.4376 29.4674 91.2817 30.262 90.9698 30.9345C90.658 31.6033 90.2259 32.1218 89.6736 32.49C89.1213 32.8544 88.4845 33.0366 87.7631 33.0366C87.2071 33.0366 86.7619 32.9446 86.4275 32.7605C86.0931 32.5726 85.8357 32.3604 85.6554 32.1237C85.4751 31.8832 85.336 31.6841 85.2384 31.5263H85.1256V36.1024H83.7956ZM85.1031 28.5281C85.1031 29.1818 85.1989 29.7586 85.3905 30.2583C85.5821 30.7542 85.862 31.1431 86.2302 31.4248C86.5984 31.7029 87.0493 31.8419 87.5828 31.8419C88.1388 31.8419 88.6029 31.6954 88.9748 31.4023C89.3505 31.1055 89.6323 30.7072 89.8202 30.2075C90.0118 29.7041 90.1076 29.1443 90.1076 28.5281C90.1076 27.9194 90.0136 27.3709 89.8258 26.8825C89.6417 26.3903 89.3618 26.0014 88.9861 25.7159C88.6141 25.4266 88.1464 25.282 87.5828 25.282C87.0418 25.282 86.5872 25.4191 86.219 25.6934C85.8508 25.9639 85.5727 26.3433 85.3849 26.8318C85.197 27.3164 85.1031 27.8819 85.1031 28.5281Z" fill="black"/>
  <path d="M77.4682 24.1999V25.327H72.8018V24.1999H77.4682ZM74.1995 32.8563V23.0051C74.1995 22.5092 74.3159 22.0959 74.5489 21.7653C74.7818 21.4347 75.0843 21.1867 75.4562 21.0214C75.8282 20.8561 76.2208 20.7734 76.6341 20.7734C76.961 20.7734 77.2277 20.7997 77.4344 20.8523C77.641 20.9049 77.795 20.9537 77.8965 20.9988L77.5133 22.1485C77.4456 22.126 77.3517 22.0978 77.2315 22.064C77.115 22.0302 76.961 22.0133 76.7693 22.0133C76.3298 22.0133 76.0123 22.1241 75.8169 22.3458C75.6253 22.5674 75.5295 22.8924 75.5295 23.3207V32.8563H74.1995Z" fill="black"/>
  <path d="M67.6607 33.0366C66.8792 33.0366 66.1935 32.8507 65.6037 32.4787C65.0176 32.1068 64.5592 31.5864 64.2286 30.9176C63.9017 30.2489 63.7383 29.4674 63.7383 28.5732C63.7383 27.6715 63.9017 26.8844 64.2286 26.2118C64.5592 25.5393 65.0176 25.0171 65.6037 24.6451C66.1935 24.2732 66.8792 24.0872 67.6607 24.0872C68.4422 24.0872 69.126 24.2732 69.7121 24.6451C70.3019 25.0171 70.7603 25.5393 71.0872 26.2118C71.4178 26.8844 71.5831 27.6715 71.5831 28.5732C71.5831 29.4674 71.4178 30.2489 71.0872 30.9176C70.7603 31.5864 70.3019 32.1068 69.7121 32.4787C69.126 32.8507 68.4422 33.0366 67.6607 33.0366ZM67.6607 31.8419C68.2543 31.8419 68.7427 31.6897 69.126 31.3854C69.5092 31.0811 69.7929 30.6809 69.977 30.185C70.1611 29.689 70.2531 29.1518 70.2531 28.5732C70.2531 27.9946 70.1611 27.4554 69.977 26.9557C69.7929 26.4561 69.5092 26.0522 69.126 25.7441C68.7427 25.436 68.2543 25.282 67.6607 25.282C67.0671 25.282 66.5786 25.436 66.1954 25.7441C65.8122 26.0522 65.5285 26.4561 65.3444 26.9557C65.1603 27.4554 65.0683 27.9946 65.0683 28.5732C65.0683 29.1518 65.1603 29.689 65.3444 30.185C65.5285 30.6809 65.8122 31.0811 66.1954 31.3854C66.5786 31.6897 67.0671 31.8419 67.6607 31.8419Z" fill="black"/>
  <path d="M53.7758 32.8563V24.1999H55.0607V25.5074H55.1509C55.3087 25.0791 55.5942 24.7315 56.0075 24.4648C56.4208 24.198 56.8867 24.0647 57.4052 24.0647C57.5028 24.0647 57.625 24.0665 57.7715 24.0703C57.918 24.074 58.0288 24.0797 58.104 24.0872V25.4398C58.0589 25.4285 57.9556 25.4116 57.794 25.389C57.6362 25.3627 57.469 25.3496 57.2924 25.3496C56.8717 25.3496 56.4959 25.4379 56.1653 25.6145C55.8384 25.7873 55.5792 26.0277 55.3876 26.3358C55.1997 26.6402 55.1058 26.9877 55.1058 27.3784V32.8563H53.7758Z" fill="black"/>
  <path d="M48.1683 33.0366C47.3342 33.0366 46.6147 32.8525 46.0098 32.4843C45.4087 32.1124 44.9447 31.5939 44.6178 30.9289C44.2947 30.2601 44.1332 29.4824 44.1332 28.5957C44.1332 27.709 44.2947 26.9276 44.6178 26.2513C44.9447 25.5712 45.3993 25.0415 45.9817 24.662C46.5678 24.2788 47.2516 24.0872 48.0331 24.0872C48.4839 24.0872 48.9291 24.1623 49.3687 24.3126C49.8083 24.4629 50.2084 24.7071 50.5691 25.0453C50.9298 25.3796 51.2172 25.823 51.4314 26.3753C51.6455 26.9276 51.7526 27.6076 51.7526 28.4154V28.979H45.08V27.8293H50.4C50.4 27.3409 50.3023 26.905 50.107 26.5218C49.9154 26.1386 49.6411 25.8361 49.2842 25.6145C48.931 25.3928 48.514 25.282 48.0331 25.282C47.5033 25.282 47.0449 25.4135 46.6579 25.6764C46.2747 25.9357 45.9798 26.2738 45.7731 26.6909C45.5665 27.1079 45.4632 27.555 45.4632 28.0322V28.7986C45.4632 29.4524 45.5759 30.0065 45.8013 30.4611C46.0305 30.912 46.348 31.2558 46.7537 31.4925C47.1595 31.7254 47.631 31.8419 48.1683 31.8419C48.5177 31.8419 48.8333 31.793 49.1151 31.6953C49.4006 31.5939 49.6467 31.4436 49.8534 31.2445C50.06 31.0416 50.2197 30.7899 50.3324 30.4893L51.6173 30.85C51.4821 31.2858 51.2548 31.6691 50.9354 31.9997C50.6161 32.3265 50.2216 32.582 49.7519 32.7661C49.2823 32.9465 48.7544 33.0366 48.1683 33.0366Z" fill="black"/>
  <path d="M34.8625 32.8563V21.3144H36.1925V25.575H36.3052C36.4029 25.4247 36.5381 25.2331 36.711 25.0002C36.8876 24.7635 37.1393 24.5531 37.4662 24.369C37.7968 24.1811 38.2439 24.0872 38.8074 24.0872C39.5363 24.0872 40.1788 24.2694 40.7348 24.6339C41.2909 24.9983 41.7248 25.5149 42.0367 26.1837C42.3485 26.8524 42.5044 27.6414 42.5044 28.5506C42.5044 29.4674 42.3485 30.262 42.0367 30.9345C41.7248 31.6033 41.2928 32.1218 40.7405 32.49C40.1882 32.8544 39.5514 33.0366 38.83 33.0366C38.2739 33.0366 37.8287 32.9446 37.4943 32.7605C37.1599 32.5726 36.9026 32.3604 36.7222 32.1237C36.5419 31.8832 36.4029 31.6841 36.3052 31.5263H36.1474V32.8563H34.8625ZM36.1699 28.5281C36.1699 29.1818 36.2658 29.7586 36.4574 30.2583C36.649 30.7542 36.9289 31.1431 37.2971 31.4248C37.6653 31.7029 38.1161 31.8419 38.6496 31.8419C39.2057 31.8419 39.6697 31.6954 40.0417 31.4023C40.4174 31.1055 40.6992 30.7072 40.887 30.2075C41.0786 29.7041 41.1744 29.1443 41.1744 28.5281C41.1744 27.9195 41.0805 27.3709 40.8926 26.8825C40.7085 26.3903 40.4286 26.0014 40.0529 25.7159C39.681 25.4266 39.2132 25.282 38.6496 25.282C38.1086 25.282 37.654 25.4191 37.2858 25.6934C36.9176 25.9639 36.6396 26.3433 36.4517 26.8318C36.2639 27.3164 36.1699 27.8819 36.1699 28.5281Z" fill="black"/>
  <path d="M20.8888 32.8563V24.1999H22.1738V25.5525H22.2865C22.4668 25.0903 22.758 24.7315 23.16 24.476C23.562 24.2168 24.0448 24.0872 24.6084 24.0872C25.1795 24.0872 25.6547 24.2168 26.0342 24.476C26.4174 24.7315 26.7161 25.0903 26.9303 25.5525H27.0204C27.2421 25.1054 27.5746 24.7503 28.018 24.4873C28.4613 24.2206 28.9929 24.0872 29.6128 24.0872C30.3868 24.0872 31.0199 24.3295 31.5121 24.8142C32.0043 25.2951 32.2503 26.0446 32.2503 27.0628V32.8563H30.9203V27.0628C30.9203 26.4241 30.7456 25.9676 30.3962 25.6934C30.0468 25.4191 29.6354 25.282 29.162 25.282C28.5533 25.282 28.0818 25.466 27.7474 25.8342C27.4131 26.1987 27.2459 26.6608 27.2459 27.2206V32.8563H25.8933V26.9276C25.8933 26.4354 25.7336 26.039 25.4143 25.7384C25.0949 25.4341 24.6835 25.282 24.1801 25.282C23.8344 25.282 23.5113 25.374 23.2107 25.5581C22.9139 25.7422 22.6735 25.9977 22.4894 26.3246C22.309 26.6477 22.2188 27.0215 22.2188 27.4461V32.8563H20.8888Z" fill="black"/>
  <path d="M17.1228 29.3171V24.1999H18.4528V32.8563H17.1228V31.391H17.0326C16.8297 31.8306 16.5141 32.2044 16.0858 32.5125C15.6575 32.8169 15.1165 32.969 14.4627 32.969C13.9217 32.969 13.4408 32.8507 13.02 32.614C12.5992 32.3735 12.2686 32.0128 12.0281 31.5319C11.7877 31.0473 11.6674 30.4367 11.6674 29.7003V24.1999H12.9975V29.6102C12.9975 30.2414 13.1741 30.7448 13.5272 31.1205C13.8841 31.4962 14.3388 31.6841 14.8911 31.6841C15.2217 31.6841 15.5579 31.5995 15.8998 31.4305C16.2455 31.2614 16.5348 31.0022 16.7677 30.6528C17.0044 30.3033 17.1228 29.8581 17.1228 29.3171Z" fill="black"/>
  <path d="M3.7141 27.6489V32.8563H2.38408V24.1999H3.66901V25.5525H3.78173C3.98461 25.1129 4.29269 24.7597 4.70598 24.493C5.11926 24.2224 5.65277 24.0872 6.30651 24.0872C6.89262 24.0872 7.40547 24.2074 7.84505 24.4479C8.28463 24.6846 8.62653 25.0453 8.87074 25.5299C9.11495 26.0108 9.23706 26.6195 9.23706 27.3559V32.8563H7.90704V27.4461C7.90704 26.766 7.73046 26.2363 7.37729 25.8568C7.02412 25.4736 6.53945 25.282 5.92328 25.282C5.49873 25.282 5.11926 25.374 4.78488 25.5581C4.45425 25.7422 4.19313 26.0108 4.00152 26.364C3.8099 26.7172 3.7141 27.1455 3.7141 27.6489Z" fill="black"/>
  <path d="M96.5025 12.0665L96.4067 12.7633C96.3427 13.2746 96.2341 13.8073 96.0807 14.3613C95.9315 14.9195 95.776 15.4373 95.614 15.9145C95.4564 16.3918 95.3264 16.7711 95.2241 17.0523H93.869C93.9244 16.7881 94.0011 16.4302 94.0991 15.9785C94.1971 15.531 94.293 15.0303 94.3868 14.4763C94.4805 13.9224 94.5508 13.3577 94.5977 12.7824L94.6616 12.0665H96.5025Z" fill="black"/>
  <path d="M85.1694 8.02676V13.8563H83.2582V4.03812H85.0927V5.63613H85.2142C85.44 5.11624 85.7937 4.69863 86.2753 4.38329C86.7611 4.06795 87.3726 3.91028 88.1098 3.91028C88.7788 3.91028 89.3647 4.0509 89.8676 4.33215C90.3704 4.60914 90.7603 5.02249 91.0373 5.57221C91.3143 6.12193 91.4528 6.80161 91.4528 7.61127V13.8563H89.5416V7.84139C89.5416 7.12974 89.3562 6.57363 88.9855 6.17306C88.6148 5.76823 88.1055 5.56582 87.4578 5.56582C87.0146 5.56582 86.6204 5.6617 86.2753 5.85346C85.9344 6.04522 85.6638 6.32647 85.4635 6.69721C85.2674 7.06369 85.1694 7.50687 85.1694 8.02676Z" fill="black"/>
  <path d="M76.5482 14.0545C75.6277 14.0545 74.8244 13.8435 74.1384 13.4216C73.4523 12.9998 72.9196 12.4096 72.5404 11.651C72.1611 10.8925 71.9715 10.0062 71.9715 8.99195C71.9715 7.97349 72.1611 7.08286 72.5404 6.32008C72.9196 5.55729 73.4523 4.96497 74.1384 4.54309C74.8244 4.12122 75.6277 3.91028 76.5482 3.91028C77.4686 3.91028 78.2719 4.12122 78.958 4.54309C79.644 4.96497 80.1767 5.55729 80.556 6.32008C80.9352 7.08286 81.1249 7.97349 81.1249 8.99195C81.1249 10.0062 80.9352 10.8925 80.556 11.651C80.1767 12.4096 79.644 12.9998 78.958 13.4216C78.2719 13.8435 77.4686 14.0545 76.5482 14.0545ZM76.5546 12.4501C77.1512 12.4501 77.6455 12.2924 78.0375 11.977C78.4296 11.6617 78.7193 11.242 78.9068 10.7178C79.0986 10.1937 79.1945 9.61624 79.1945 8.98556C79.1945 8.35914 79.0986 7.78386 78.9068 7.25971C78.7193 6.7313 78.4296 6.3073 78.0375 5.98769C77.6455 5.66809 77.1512 5.50829 76.5546 5.50829C75.9537 5.50829 75.4551 5.66809 75.0588 5.98769C74.6668 6.3073 74.3749 6.7313 74.1831 7.25971C73.9956 7.78386 73.9019 8.35914 73.9019 8.98556C73.9019 9.61624 73.9956 10.1937 74.1831 10.7178C74.3749 11.242 74.6668 11.6617 75.0588 11.977C75.4551 12.2924 75.9537 12.4501 76.5546 12.4501Z" fill="black"/>
  <path d="M67.9301 13.8563V4.03812H69.8413V13.8563H67.9301ZM68.8953 2.5232C68.5629 2.5232 68.2774 2.41241 68.0388 2.19081C67.8044 1.96496 67.6872 1.6965 67.6872 1.38542C67.6872 1.07008 67.8044 0.801611 68.0388 0.580019C68.2774 0.354167 68.5629 0.241241 68.8953 0.241241C69.2277 0.241241 69.5111 0.354167 69.7454 0.580019C69.9841 0.801611 70.1034 1.07008 70.1034 1.38542C70.1034 1.6965 69.9841 1.96496 69.7454 2.19081C69.5111 2.41241 69.2277 2.5232 68.8953 2.5232Z" fill="black"/>
  <path d="M65.8159 4.03811V5.5722H60.453V4.03811H65.8159ZM61.8912 1.68584H63.8024V10.9735C63.8024 11.3442 63.8578 11.6233 63.9686 11.8108C64.0794 11.9941 64.2222 12.1198 64.3969 12.188C64.5759 12.2519 64.7698 12.2838 64.9786 12.2838C65.132 12.2838 65.2662 12.2732 65.3813 12.2519C65.4963 12.2306 65.5858 12.2135 65.6497 12.2008L65.9949 13.7796C65.8841 13.8222 65.7264 13.8648 65.5219 13.9074C65.3173 13.9543 65.0617 13.9799 64.7549 13.9841C64.252 13.9927 63.7833 13.9032 63.3486 13.7157C62.9139 13.5282 62.5624 13.2384 62.2939 12.8463C62.0254 12.4543 61.8912 11.9621 61.8912 11.3698V1.68584Z" fill="black"/>
  <path d="M53.842 14.0736C53.2199 14.0736 52.6574 13.9586 52.1545 13.7285C51.6517 13.4941 51.2532 13.1553 50.9592 12.7121C50.6694 12.2689 50.5246 11.7256 50.5246 11.0822C50.5246 10.5282 50.6311 10.0722 50.8442 9.71426C51.0572 9.3563 51.3449 9.07292 51.7071 8.86411C52.0693 8.65531 52.4741 8.49764 52.9216 8.3911C53.369 8.28457 53.825 8.2036 54.2895 8.1482C54.8775 8.08002 55.3548 8.02463 55.7213 7.98201C56.0878 7.93514 56.3541 7.86056 56.5203 7.75829C56.6865 7.65602 56.7696 7.48982 56.7696 7.25971V7.21497C56.7696 6.65673 56.6119 6.2242 56.2966 5.91738C55.9855 5.61056 55.521 5.45715 54.9031 5.45715C54.2596 5.45715 53.7525 5.59991 53.3818 5.88542C53.0153 6.16667 52.7618 6.47988 52.6211 6.82505L50.825 6.41596C51.038 5.81937 51.3491 5.33784 51.7582 4.97136C52.1716 4.60062 52.6467 4.33215 53.1836 4.16596C53.7206 3.99551 54.2852 3.91028 54.8775 3.91028C55.2696 3.91028 55.6851 3.95715 56.124 4.0509C56.5672 4.14039 56.9805 4.30659 57.364 4.54948C57.7518 4.79238 58.0693 5.13968 58.3165 5.59139C58.5636 6.03883 58.6872 6.62051 58.6872 7.33642V13.8563H56.8207V12.514H56.744C56.6204 12.7611 56.4351 13.004 56.1879 13.2427C55.9407 13.4813 55.6233 13.6795 55.2355 13.8371C54.8477 13.9948 54.3832 14.0736 53.842 14.0736ZM54.2575 12.5395C54.7859 12.5395 55.2376 12.4351 55.6126 12.2263C55.9919 12.0175 56.2795 11.7448 56.4755 11.4081C56.6758 11.0672 56.776 10.7029 56.776 10.3151V9.04948C56.7078 9.11767 56.5757 9.18159 56.3797 9.24124C56.1879 9.29664 55.9684 9.34565 55.7213 9.38826C55.4741 9.42661 55.2334 9.46284 54.999 9.49693C54.7646 9.52676 54.5686 9.55232 54.4109 9.57363C54.0402 9.62051 53.7014 9.69934 53.3946 9.81014C53.092 9.92093 52.8491 10.0807 52.6659 10.2895C52.4869 10.4941 52.3974 10.7668 52.3974 11.1077C52.3974 11.5807 52.5721 11.9387 52.9216 12.1816C53.271 12.4202 53.7163 12.5395 54.2575 12.5395Z" fill="black"/>
  <path d="M48.4136 0.765396V13.8563H46.5023V0.765396H48.4136Z" fill="black"/>
  <path d="M42.0167 9.78456V4.03812H43.9343V13.8563H42.0551V12.156H41.9528C41.727 12.6802 41.3647 13.117 40.8662 13.4664C40.3718 13.8116 39.7561 13.9841 39.0189 13.9841C38.3882 13.9841 37.8299 13.8456 37.3441 13.5687C36.8626 13.2874 36.4834 12.8719 36.2064 12.3222C35.9336 11.7725 35.7973 11.0928 35.7973 10.2831V4.03812H37.7085V10.053C37.7085 10.7221 37.8939 11.2547 38.2646 11.651C38.6353 12.0473 39.1169 12.2455 39.7092 12.2455C40.0672 12.2455 40.423 12.156 40.7767 11.977C41.1346 11.7981 41.4308 11.5275 41.6652 11.1652C41.9038 10.803 42.021 10.3428 42.0167 9.78456Z" fill="black"/>
  <path d="M24.6879 17.5381V4.03812H26.5544V5.62974H26.7142C26.825 5.42519 26.9848 5.18869 27.1936 4.92022C27.4024 4.65176 27.6922 4.41738 28.0629 4.2171C28.4336 4.01255 28.9237 3.91028 29.5331 3.91028C30.3257 3.91028 31.0331 4.11056 31.6552 4.51113C32.2774 4.9117 32.7653 5.48911 33.119 6.24337C33.477 6.99764 33.6559 7.90531 33.6559 8.96639C33.6559 10.0275 33.4791 10.9373 33.1254 11.6958C32.7717 12.4501 32.2859 13.0317 31.668 13.4408C31.0501 13.8456 30.3449 14.0481 29.5522 14.0481C28.9557 14.0481 28.4677 13.9479 28.0885 13.7476C27.7135 13.5474 27.4194 13.313 27.2064 13.0445C26.9933 12.776 26.8292 12.5374 26.7142 12.3286H26.5991V17.5381H24.6879ZM26.5608 8.94721C26.5608 9.63755 26.6609 10.2427 26.8612 10.7626C27.0615 11.2824 27.3512 11.6894 27.7305 11.9834C28.1098 12.2732 28.5743 12.4181 29.124 12.4181C29.695 12.4181 30.1723 12.2668 30.5558 11.9643C30.9393 11.6574 31.2291 11.242 31.4251 10.7178C31.6254 10.1937 31.7255 9.60346 31.7255 8.94721C31.7255 8.29948 31.6275 7.71781 31.4315 7.20218C31.2397 6.68656 30.95 6.2796 30.5622 5.9813C30.1787 5.68301 29.6993 5.53386 29.124 5.53386C28.57 5.53386 28.1012 5.67661 27.7177 5.96212C27.3385 6.24764 27.0508 6.64607 26.8548 7.15744C26.6588 7.6688 26.5608 8.26539 26.5608 8.94721Z" fill="black"/>
  <path d="M17.9779 14.0545C17.0574 14.0545 16.2541 13.8435 15.5681 13.4216C14.882 12.9998 14.3493 12.4096 13.97 11.651C13.5908 10.8925 13.4012 10.0062 13.4012 8.99195C13.4012 7.97349 13.5908 7.08286 13.97 6.32008C14.3493 5.55729 14.882 4.96497 15.5681 4.54309C16.2541 4.12122 17.0574 3.91028 17.9779 3.91028C18.8983 3.91028 19.7016 4.12122 20.3877 4.54309C21.0737 4.96497 21.6064 5.55729 21.9857 6.32008C22.3649 7.08286 22.5546 7.97349 22.5546 8.99195C22.5546 10.0062 22.3649 10.8925 21.9857 11.651C21.6064 12.4096 21.0737 12.9998 20.3877 13.4216C19.7016 13.8435 18.8983 14.0545 17.9779 14.0545ZM17.9843 12.4501C18.5808 12.4501 19.0752 12.2924 19.4672 11.977C19.8593 11.6617 20.149 11.242 20.3365 10.7178C20.5283 10.1937 20.6242 9.61624 20.6242 8.98556C20.6242 8.35914 20.5283 7.78386 20.3365 7.25971C20.149 6.7313 19.8593 6.3073 19.4672 5.98769C19.0752 5.66809 18.5808 5.50829 17.9843 5.50829C17.3834 5.50829 16.8848 5.66809 16.4885 5.98769C16.0965 6.3073 15.8046 6.7313 15.6128 7.25971C15.4253 7.78386 15.3316 8.35914 15.3316 8.98556C15.3316 9.61624 15.4253 10.1937 15.6128 10.7178C15.8046 11.242 16.0965 11.6617 16.4885 11.977C16.8848 12.2924 17.3834 12.4501 17.9843 12.4501Z" fill="black"/>
  <path d="M2.60498 13.8563V0.765396H7.27117C8.28964 0.765396 9.13339 0.950766 9.80242 1.3215C10.4715 1.69224 10.9722 2.19934 11.3046 2.84281C11.6369 3.48202 11.8031 4.20219 11.8031 5.00332C11.8031 5.80872 11.6348 6.53315 11.2982 7.17662C10.9658 7.81582 10.4629 8.32293 9.78964 8.69793C9.12061 9.06866 8.27899 9.25403 7.26478 9.25403H4.05597V7.57932H7.0858C7.72927 7.57932 8.25129 7.46852 8.65186 7.24693C9.05242 7.02108 9.34646 6.71426 9.53396 6.32648C9.72146 5.93869 9.81521 5.49764 9.81521 5.00332C9.81521 4.509 9.72146 4.07008 9.53396 3.68656C9.34646 3.30304 9.05029 3.00261 8.64546 2.78528C8.2449 2.56795 7.71649 2.45929 7.06024 2.45929H4.58012V13.8563H2.60498Z" fill="black"/>
  <path d="M27.2812 44.9629H1.04776V165.573H27.2812V44.9629Z" fill="url(#paint0_linear_0_1)"/>
  <path fill-rule="evenodd" clip-rule="evenodd" d="M0.887802 44.803H27.4411V165.733H0.887802V44.803ZM1.20772 45.1229V165.413H27.1212V45.1229H1.20772Z" fill="black"/>
  <path d="M67.1342 59.0536V58.0311L70.9741 53.8276C71.4248 53.3353 71.7959 52.9074 72.0875 52.5438C72.3791 52.1765 72.5949 51.8319 72.7351 51.51C72.879 51.1843 72.9509 50.8435 72.9509 50.4875C72.9509 50.0785 72.8524 49.7245 72.6555 49.4253C72.4624 49.1261 72.1973 48.8951 71.8603 48.7323C71.5232 48.5694 71.1445 48.488 70.7242 48.488C70.2773 48.488 69.8873 48.5808 69.554 48.7664C69.2246 48.9481 68.969 49.2038 68.7872 49.5332C68.6092 49.8627 68.5202 50.249 68.5202 50.692H67.1796C67.1796 50.0104 67.3368 49.412 67.6511 48.897C67.9654 48.382 68.3933 47.9806 68.9349 47.6928C69.4802 47.405 70.0918 47.2611 70.7696 47.2611C71.4513 47.2611 72.0553 47.405 72.5817 47.6928C73.1081 47.9806 73.5208 48.3687 73.82 48.8573C74.1192 49.3458 74.2688 49.8892 74.2688 50.4875C74.2688 50.9154 74.1911 51.3339 74.0359 51.7429C73.8844 52.1481 73.6193 52.6006 73.2406 53.1005C72.8657 53.5966 72.345 54.2025 71.6785 54.9182L69.0655 57.713V57.8039H74.4733V59.0536H67.1342Z" fill="black"/>
  <path d="M58.3594 59.0536L63.5626 48.7607V48.6698H57.5641V47.4201H65.0168V48.738L59.8363 59.0536H58.3594Z" fill="black"/>
  <path d="M52.1053 59.2126C51.2494 59.2126 50.5204 58.9797 49.9183 58.5139C49.3162 58.0443 48.8561 57.3646 48.538 56.4747C48.2199 55.5809 48.0608 54.5017 48.0608 53.2368C48.0608 51.9796 48.2199 50.906 48.538 50.0161C48.8599 49.1223 49.3219 48.4407 49.924 47.9711C50.5299 47.4977 51.257 47.2611 52.1053 47.2611C52.9535 47.2611 53.6787 47.4977 54.2809 47.9711C54.8868 48.4407 55.3488 49.1223 55.6669 50.0161C55.9888 50.906 56.1497 51.9796 56.1497 53.2368C56.1497 54.5017 55.9907 55.5809 55.6726 56.4747C55.3545 57.3646 54.8944 58.0443 54.2922 58.5139C53.6901 58.9797 52.9611 59.2126 52.1053 59.2126ZM52.1053 57.9629C52.9535 57.9629 53.6125 57.5539 54.0821 56.736C54.5516 55.918 54.7864 54.7516 54.7864 53.2368C54.7864 52.2295 54.6785 51.3718 54.4626 50.6636C54.2506 49.9555 53.9438 49.4158 53.5424 49.0447C53.1448 48.6736 52.6657 48.488 52.1053 48.488C51.2646 48.488 50.6075 48.9027 50.1342 49.732C49.6608 50.5576 49.4241 51.7259 49.4241 53.2368C49.4241 54.2442 49.5302 55.1 49.7422 55.8044C49.9543 56.5087 50.2591 57.0446 50.6568 57.4119C51.0582 57.7793 51.541 57.9629 52.1053 57.9629Z" fill="black"/>
  <path d="M40.4661 47.4201V59.0536H39.0574V48.897H38.9892L36.149 50.7829V49.3515L39.0574 47.4201H40.4661Z" fill="black"/>
  <path d="M40.1708 160.931C39.3149 160.931 38.5859 160.698 37.9838 160.232C37.3817 159.763 36.9216 159.083 36.6035 158.193C36.2854 157.299 36.1263 156.22 36.1263 154.955C36.1263 153.698 36.2854 152.624 36.6035 151.734C36.9254 150.841 37.3874 150.159 37.9895 149.689C38.5954 149.216 39.3225 148.979 40.1708 148.979C41.019 148.979 41.7442 149.216 42.3464 149.689C42.9523 150.159 43.4143 150.841 43.7324 151.734C44.0543 152.624 44.2152 153.698 44.2152 154.955C44.2152 156.22 44.0562 157.299 43.7381 158.193C43.42 159.083 42.9598 159.763 42.3577 160.232C41.7556 160.698 41.0266 160.931 40.1708 160.931ZM40.1708 159.681C41.019 159.681 41.678 159.272 42.1475 158.454C42.6171 157.636 42.8519 156.47 42.8519 154.955C42.8519 153.948 42.744 153.09 42.5281 152.382C42.3161 151.674 42.0093 151.134 41.6079 150.763C41.2103 150.392 40.7312 150.206 40.1708 150.206C39.3301 150.206 38.673 150.621 38.1997 151.45C37.7263 152.276 37.4896 153.444 37.4896 154.955C37.4896 155.962 37.5957 156.818 37.8077 157.523C38.0198 158.227 38.3246 158.763 38.7223 159.13C39.1237 159.497 39.6065 159.681 40.1708 159.681Z" fill="black"/>
  <defs>
    <linearGradient id="paint0_linear_0_1" x1="-427.325" y1="166.088" x2="-427.325" y2="45.1709" gradientUnits="userSpaceOnUse">
      <stop stop-color="#F1EEF6" stop-opacity="0"/>
      <stop offset="0.0192308" stop-color="#D5B8E3" stop-opacity="0.0705882"/>
      <stop offset="0.0384615" stop-color="#D7B5D7" stop-opacity="0.14902"/>
      <stop offset="0.0576923" stop-color="#D7B4D7" stop-opacity="0.227451"/>
      <stop offset="0.0769231" stop-color="#D7B6D7" stop-opacity="0.301961"/>
      <stop offset="0.0961538" stop-color="#D8B5D8" stop-opacity="0.380392"/>
      <stop offset="0.115385" stop-color="#D8B5D8" stop-opacity="0.458824"/>
      <stop offset="0.134615" stop-color="#D8B4D8" stop-opacity="0.533333"/>
      <stop offset="0.153846" stop-color="#D6B5D8" stop-opacity="0.611765"/>
      <stop offset="0.173077" stop-color="#D6B5D8" stop-opacity="0.690196"/>
      <stop offset="0.192308" stop-color="#D6B4D8" stop-opacity="0.764706"/>
      <stop offset="0.211538" stop-color="#D7B4D8" stop-opacity="0.843137"/>
      <stop offset="0.230769" stop-color="#D7B4D8" stop-opacity="0.921569"/>
      <stop offset="0.25" stop-color="#D7B5D8"/>
      <stop offset="0.269231" stop-color="#D7AFD5"/>
      <stop offset="0.288462" stop-color="#D8A8D1"/>
      <stop offset="0.307692" stop-color="#D8A2CE"/>
      <stop offset="0.326923" stop-color="#D99CCB"/>
      <stop offset="0.346154" stop-color="#DA96C8"/>
      <stop offset="0.365385" stop-color="#DA90C5"/>
      <stop offset="0.384615" stop-color="#DB8AC2"/>
      <stop offset="0.403846" stop-color="#DB83BF"/>
      <stop offset="0.423077" stop-color="#DC7DBC"/>
      <stop offset="0.442308" stop-color="#DD77B9"/>
      <stop offset="0.461538" stop-color="#DD71B6"/>
      <stop offset="0.480769" stop-color="#DE6BB3"/>
      <stop offset="0.5" stop-color="#DF65B0"/>
      <stop offset="0.519231" stop-color="#DE5FAB"/>
      <stop offset="0.538462" stop-color="#DE59A7"/>
      <stop offset="0.557692" stop-color="#DE54A2"/>
      <stop offset="0.576923" stop-color="#DE4E9E"/>
      <stop offset="0.596154" stop-color="#DE499A"/>
      <stop offset="0.615385" stop-color="#DE4395"/>
      <stop offset="0.634615" stop-color="#DD3D91"/>
      <stop offset="0.653846" stop-color="#DD388D"/>
      <stop offset="0.673077" stop-color="#DD3288"/>
      <stop offset="0.692308" stop-color="#DD2D84"/>
      <stop offset="0.711538" stop-color="#DD277F"/>
      <stop offset="0.730769" stop-color="#DD217B"/>
      <stop offset="0.75" stop-color="#DD1C77"/>
      <stop offset="0.769231" stop-color="#D71973"/>
      <stop offset="0.788462" stop-color="#D2176F"/>
      <stop offset="0.807692" stop-color="#CD156B"/>
      <stop offset="0.826923" stop-color="#C71367"/>
      <stop offset="0.846154" stop-color="#C21163"/>
      <stop offset="0.865385" stop-color="#BD0F5F"/>
      <stop offset="0.884615" stop-color="#B80D5B"/>
      <stop offset="0.903846" stop-color="#B20A57"/>
      <stop offset="0.923077" stop-color="#AD0853"/>
      <stop offset="0.942308" stop-color="#A8064F"/>
      <stop offset="0.961538" stop-color="#A2044B"/>
      <stop offset="0.980769" stop-color="#9D0247"/>
      <stop offset="1" stop-color="#980043"/>
    </linearGradient>
  </defs>
</svg>