<svg width="123" height="168" viewBox="0 0 123 168" fill="none" xmlns="http://www.w3.org/2000/svg">
  <path d="M40.1351 163.159C39.3853 163.159 38.7169 163.03 38.1299 162.773C37.5467 162.515 37.0828 162.157 36.7382 161.699C36.3974 161.237 36.2118 160.701 36.1815 160.092H37.613C37.6433 160.467 37.772 160.79 37.9992 161.063C38.2265 161.332 38.5237 161.54 38.8911 161.688C39.2584 161.836 39.6655 161.909 40.1124 161.909C40.6122 161.909 41.0553 161.822 41.4416 161.648C41.8278 161.474 42.1308 161.232 42.3504 160.921C42.5701 160.61 42.6799 160.251 42.6799 159.842C42.6799 159.414 42.5739 159.037 42.3618 158.711C42.1497 158.382 41.8392 158.124 41.4302 157.939C41.0212 157.753 40.5213 157.66 39.9306 157.66H38.999V156.411H39.9306C40.3926 156.411 40.7978 156.327 41.1462 156.161C41.4984 155.994 41.7729 155.759 41.9698 155.456C42.1705 155.153 42.2709 154.798 42.2709 154.389C42.2709 153.995 42.1838 153.652 42.0096 153.36C41.8354 153.069 41.5893 152.842 41.2712 152.679C40.9568 152.516 40.5857 152.434 40.1578 152.434C39.7564 152.434 39.3777 152.508 39.0217 152.656C38.6695 152.8 38.3817 153.01 38.1583 153.287C37.9349 153.559 37.8137 153.889 37.7948 154.275H36.4315C36.4542 153.665 36.6378 153.131 36.9825 152.673C37.3271 152.211 37.7777 151.851 38.3344 151.594C38.8949 151.336 39.5102 151.208 40.1805 151.208C40.9 151.208 41.5173 151.353 42.0323 151.645C42.5473 151.933 42.9431 152.313 43.2195 152.787C43.496 153.26 43.6342 153.771 43.6342 154.32C43.6342 154.975 43.4619 155.534 43.1173 155.996C42.7765 156.458 42.3126 156.778 41.7256 156.956V157.047C42.4602 157.168 43.034 157.481 43.4467 157.984C43.8595 158.484 44.0659 159.103 44.0659 159.842C44.0659 160.474 43.8936 161.042 43.549 161.546C43.2082 162.046 42.7424 162.44 42.1516 162.727C41.5609 163.015 40.8887 163.159 40.1351 163.159Z" fill="black"/>
  <path d="M46.8893 61V59.9775L50.7293 55.774C51.1799 55.2817 51.5511 54.8538 51.8426 54.4903C52.1342 54.1229 52.3501 53.7783 52.4902 53.4564C52.6341 53.1308 52.7061 52.7899 52.7061 52.434C52.7061 52.025 52.6076 51.6709 52.4107 51.3717C52.2176 51.0726 51.9525 50.8416 51.6154 50.6787C51.2784 50.5159 50.8997 50.4345 50.4794 50.4345C50.0325 50.4345 49.6424 50.5272 49.3092 50.7128C48.9797 50.8946 48.7241 51.1502 48.5423 51.4797C48.3644 51.8091 48.2754 52.1954 48.2754 52.6385H46.9348C46.9348 51.9568 47.0919 51.3585 47.4063 50.8435C47.7206 50.3284 48.1485 49.927 48.69 49.6392C49.2353 49.3514 49.8469 49.2075 50.5248 49.2075C51.2064 49.2075 51.8105 49.3514 52.3368 49.6392C52.8632 49.927 53.276 50.3152 53.5752 50.8037C53.8743 51.2922 54.0239 51.8356 54.0239 52.434C54.0239 52.8619 53.9463 53.2803 53.791 53.6893C53.6395 54.0945 53.3745 54.5471 52.9958 55.0469C52.6209 55.543 52.1002 56.1489 51.4337 56.8647L48.8207 59.6594V59.7503H54.2284V61H46.8893Z" fill="black"/>
  <path d="M37.2042 61V59.9775L41.0442 55.774C41.4948 55.2817 41.8659 54.8538 42.1575 54.4903C42.4491 54.1229 42.665 53.7783 42.8051 53.4564C42.949 53.1308 43.0209 52.7899 43.0209 52.434C43.0209 52.025 42.9225 51.6709 42.7256 51.3717C42.5324 51.0726 42.2673 50.8416 41.9303 50.6787C41.5933 50.5159 41.2146 50.4345 40.7942 50.4345C40.3474 50.4345 39.9573 50.5272 39.6241 50.7128C39.2946 50.8946 39.039 51.1502 38.8572 51.4797C38.6792 51.8091 38.5902 52.1954 38.5902 52.6385H37.2497C37.2497 51.9568 37.4068 51.3585 37.7211 50.8435C38.0355 50.3284 38.4634 49.927 39.0049 49.6392C39.5502 49.3514 40.1618 49.2075 40.8397 49.2075C41.5213 49.2075 42.1253 49.3514 42.6517 49.6392C43.1781 49.927 43.5909 50.3152 43.89 50.8037C44.1892 51.2922 44.3388 51.8356 44.3388 52.434C44.3388 52.8619 44.2612 53.2803 44.1059 53.6893C43.9544 54.0945 43.6893 54.5471 43.3106 55.0469C42.9357 55.543 42.415 56.1489 41.7485 56.8647L39.1356 59.6594V59.7503H44.5433V61H37.2042Z" fill="black"/>
  <path d="M44.4114 32.7045V31.6901L48.2212 27.5197C48.6683 27.0313 49.0364 26.6067 49.3257 26.2461C49.615 25.8816 49.8292 25.5397 49.9682 25.2204C50.111 24.8973 50.1824 24.5591 50.1824 24.2059C50.1824 23.8002 50.0847 23.4489 49.8893 23.1521C49.6977 22.8553 49.4347 22.6261 49.1003 22.4645C48.7659 22.303 48.3902 22.2222 47.9732 22.2222C47.5298 22.2222 47.1429 22.3142 46.8122 22.4983C46.4854 22.6787 46.2318 22.9323 46.0514 23.2592C45.8748 23.586 45.7865 23.9692 45.7865 24.4088H44.4565C44.4565 23.7325 44.6124 23.1389 44.9243 22.628C45.2361 22.117 45.6607 21.7187 46.1979 21.4332C46.739 21.1477 47.3457 21.0049 48.0183 21.0049C48.6945 21.0049 49.2938 21.1477 49.8161 21.4332C50.3383 21.7187 50.7478 22.1038 51.0446 22.5885C51.3414 23.0732 51.4898 23.6123 51.4898 24.2059C51.4898 24.6305 51.4128 25.0457 51.2588 25.4514C51.1085 25.8534 50.8455 26.3024 50.4698 26.7984C50.0978 27.2905 49.5812 27.8917 48.92 28.6018L46.3276 31.3745V31.4647H51.6927V32.7045H44.4114Z" fill="black"/>
  <path d="M30.6407 32.7045V24.0481H31.9256V25.4007H32.0383C32.2187 24.9386 32.5099 24.5798 32.9119 24.3243C33.3139 24.065 33.7967 23.9354 34.3602 23.9354C34.9313 23.9354 35.4066 24.065 35.7861 24.3243C36.1693 24.5798 36.468 24.9386 36.6821 25.4007H36.7723C36.994 24.9536 37.3265 24.5986 37.7698 24.3356C38.2132 24.0688 38.7448 23.9354 39.3647 23.9354C40.1387 23.9354 40.7717 24.1778 41.2639 24.6624C41.7561 25.1433 42.0022 25.8929 42.0022 26.9111V32.7045H40.6722V26.9111C40.6722 26.2724 40.4975 25.8159 40.1481 25.5416C39.7987 25.2673 39.3873 25.1302 38.9139 25.1302C38.3052 25.1302 37.8337 25.3143 37.4993 25.6825C37.1649 26.0469 36.9977 26.509 36.9977 27.0689V32.7045H35.6452V26.7758C35.6452 26.2836 35.4855 25.8872 35.1661 25.5867C34.8468 25.2824 34.4354 25.1302 33.9319 25.1302C33.5863 25.1302 33.2632 25.2222 32.9626 25.4063C32.6658 25.5904 32.4253 25.8459 32.2412 26.1728C32.0609 26.4959 31.9707 26.8697 31.9707 27.2943V32.7045H30.6407Z" fill="black"/>
  <path d="M29.0641 20.6216L25.3446 34.4403H24.1273L27.8468 20.6216H29.0641Z" fill="black"/>
  <path d="M18.8072 36.131C18.1647 36.131 17.6124 36.0484 17.1503 35.8831C16.6882 35.7215 16.3031 35.5073 15.995 35.2406C15.6906 34.9776 15.4483 34.6958 15.268 34.3952L16.3275 33.6513C16.4477 33.8091 16.5999 33.9895 16.784 34.1924C16.9681 34.399 17.2198 34.5775 17.5391 34.7277C17.8623 34.8818 18.2849 34.9588 18.8072 34.9588C19.506 34.9588 20.0827 34.7897 20.5373 34.4516C20.9919 34.1135 21.2192 33.5837 21.2192 32.8623V31.104H21.1065C21.0088 31.2618 20.8698 31.4572 20.6895 31.6901C20.5129 31.9193 20.2574 32.1241 19.923 32.3044C19.5924 32.481 19.1453 32.5693 18.5817 32.5693C17.8829 32.5693 17.2555 32.404 16.6994 32.0733C16.1471 31.7427 15.7094 31.2618 15.3863 30.6306C15.067 29.9994 14.9073 29.233 14.9073 28.3313C14.9073 27.4446 15.0632 26.6725 15.375 26.015C15.6869 25.3537 16.1208 24.8428 16.6769 24.4821C17.2329 24.1176 17.8754 23.9354 18.6043 23.9354C19.1679 23.9354 19.615 24.0294 19.9456 24.2172C20.28 24.4013 20.5354 24.6117 20.712 24.8484C20.8924 25.0813 21.0314 25.273 21.1291 25.4232H21.2643V24.0481H22.5493V32.9525C22.5493 33.6964 22.3802 34.3013 22.0421 34.7672C21.7077 35.2368 21.2568 35.5806 20.6895 35.7985C20.1259 36.0202 19.4985 36.131 18.8072 36.131ZM18.7621 31.3745C19.2956 31.3745 19.7465 31.2524 20.1147 31.0082C20.4828 30.764 20.7628 30.4127 20.9544 29.9543C21.146 29.496 21.2418 28.9474 21.2418 28.3087C21.2418 27.685 21.1479 27.1346 20.96 26.6575C20.7721 26.1803 20.4941 25.8065 20.1259 25.536C19.7577 25.2654 19.3031 25.1302 18.7621 25.1302C18.1985 25.1302 17.7289 25.273 17.3532 25.5585C16.9812 25.844 16.7013 26.2273 16.5135 26.7082C16.3294 27.1891 16.2373 27.7226 16.2373 28.3087C16.2373 28.9098 16.3312 29.4415 16.5191 29.9036C16.7107 30.362 16.9925 30.7227 17.3644 30.9857C17.7402 31.2449 18.206 31.3745 18.7621 31.3745Z" fill="black"/>
  <path d="M1.51978 32.7045V24.0481H2.80471V25.4007H2.91742C3.09776 24.9386 3.38894 24.5798 3.79095 24.3243C4.19296 24.065 4.67575 23.9354 5.23932 23.9354C5.8104 23.9354 6.28568 24.065 6.66515 24.3243C7.04837 24.5798 7.34706 24.9386 7.56122 25.4007H7.65139C7.87306 24.9536 8.20556 24.5986 8.6489 24.3356C9.09224 24.0688 9.62388 23.9354 10.2438 23.9354C11.0178 23.9354 11.6508 24.1778 12.143 24.6624C12.6352 25.1433 12.8813 25.8929 12.8813 26.9111V32.7045H11.5513V26.9111C11.5513 26.2724 11.3766 25.8159 11.0272 25.5416C10.6777 25.2673 10.2663 25.1302 9.79295 25.1302C9.18429 25.1302 8.71278 25.3143 8.37839 25.6825C8.04401 26.0469 7.87682 26.509 7.87682 27.0689V32.7045H6.52425V26.7758C6.52425 26.2836 6.36458 25.8872 6.04522 25.5867C5.72587 25.2824 5.31446 25.1302 4.81101 25.1302C4.46535 25.1302 4.14224 25.2222 3.84167 25.4063C3.54486 25.5904 3.30441 25.8459 3.12031 26.1728C2.93997 26.4959 2.84979 26.8697 2.84979 27.2943V32.7045H1.51978Z" fill="black"/>
  <path d="M122.304 11.9148L122.208 12.6115C122.144 13.1229 122.036 13.6555 121.882 14.2095C121.733 14.7677 121.578 15.2855 121.416 15.7628C121.258 16.24 121.128 16.6193 121.026 16.9006H119.671C119.726 16.6364 119.803 16.2784 119.901 15.8267C119.999 15.3793 120.095 14.8785 120.188 14.3246C120.282 13.7706 120.353 13.206 120.399 12.6307L120.463 11.9148H122.304Z" fill="black"/>
  <path d="M113.485 13.9027C112.517 13.9027 111.684 13.696 110.985 13.2827C110.291 12.865 109.754 12.2791 109.375 11.5248C109 10.7663 108.812 9.87783 108.812 8.85937C108.812 7.85368 109 6.96732 109.375 6.20028C109.754 5.43323 110.282 4.83451 110.96 4.40411C111.642 3.97371 112.439 3.75851 113.351 3.75851C113.905 3.75851 114.441 3.85013 114.961 4.03337C115.481 4.21661 115.948 4.50425 116.361 4.8963C116.775 5.28834 117.101 5.79758 117.339 6.424C117.578 7.04616 117.697 7.80255 117.697 8.69317V9.37073H109.892V7.93891H115.824C115.824 7.43607 115.722 6.99076 115.517 6.60297C115.313 6.21093 115.025 5.90198 114.655 5.67613C114.288 5.45028 113.858 5.33735 113.363 5.33735C112.826 5.33735 112.358 5.46945 111.957 5.73366C111.561 5.9936 111.254 6.33451 111.037 6.75638C110.824 7.174 110.717 7.62783 110.717 8.11789V9.2365C110.717 9.89275 110.832 10.451 111.062 10.9112C111.297 11.3714 111.623 11.723 112.04 11.9659C112.458 12.2045 112.946 12.3239 113.504 12.3239C113.866 12.3239 114.196 12.2727 114.495 12.1704C114.793 12.0639 115.051 11.9062 115.268 11.6974C115.485 11.4886 115.652 11.2308 115.767 10.924L117.576 11.25C117.431 11.7827 117.171 12.2493 116.796 12.6498C116.425 13.0462 115.959 13.3551 115.396 13.5767C114.838 13.794 114.201 13.9027 113.485 13.9027Z" fill="black"/>
  <path d="M101.661 13.8963C100.869 13.8963 100.161 13.6939 99.539 13.2891C98.9211 12.88 98.4353 12.2983 98.0816 11.544C97.7321 10.7855 97.5574 9.87572 97.5574 8.81464C97.5574 7.75356 97.7343 6.84589 98.088 6.09163C98.4459 5.33737 98.936 4.75995 99.5581 4.35939C100.18 3.95882 100.886 3.75853 101.674 3.75853C102.283 3.75853 102.773 3.86081 103.144 4.06535C103.519 4.26564 103.809 4.50001 104.013 4.76848C104.222 5.03694 104.384 5.27345 104.499 5.47799H104.614V0.613647H106.525V13.7046H104.659V12.1769H104.499C104.384 12.3857 104.218 12.6243 104.001 12.8928C103.788 13.1612 103.494 13.3956 103.119 13.5959C102.744 13.7962 102.258 13.8963 101.661 13.8963ZM102.083 12.2663C102.633 12.2663 103.097 12.1215 103.476 11.8317C103.86 11.5377 104.15 11.1307 104.346 10.6108C104.546 10.0909 104.646 9.48581 104.646 8.79547C104.646 8.11365 104.548 7.51706 104.352 7.00569C104.156 6.49433 103.869 6.09589 103.489 5.81038C103.11 5.52487 102.641 5.38211 102.083 5.38211C101.508 5.38211 101.028 5.53126 100.645 5.82956C100.261 6.12785 99.9715 6.53481 99.7755 7.05044C99.5837 7.56606 99.4878 8.14774 99.4878 8.79547C99.4878 9.45172 99.5858 10.0419 99.7819 10.5661C99.9779 11.0902 100.268 11.5057 100.651 11.8125C101.039 12.1151 101.516 12.2663 102.083 12.2663Z" fill="black"/>
  <path d="M93.5033 13.7045V3.88635H95.4145V13.7045H93.5033ZM94.4685 2.37144C94.1361 2.37144 93.8506 2.26064 93.6119 2.03905C93.3776 1.8132 93.2604 1.54473 93.2604 1.23365C93.2604 0.918313 93.3776 0.649847 93.6119 0.428256C93.8506 0.202404 94.1361 0.0894775 94.4685 0.0894775C94.8009 0.0894775 95.0842 0.202404 95.3186 0.428256C95.5573 0.649847 95.6766 0.918313 95.6766 1.23365C95.6766 1.54473 95.5573 1.8132 95.3186 2.03905C95.0842 2.26064 94.8009 2.37144 94.4685 2.37144Z" fill="black"/>
  <path d="M85.0977 3.88635L87.2646 7.7088L89.4507 3.88635H91.5409L88.4791 8.79544L91.5665 13.7045H89.4763L87.2646 10.0355L85.0594 13.7045H82.9628L86.0182 8.79544L83.0011 3.88635H85.0977Z" fill="black"/>
  <path d="M77.2659 13.9027C76.3454 13.9027 75.5421 13.6918 74.856 13.2699C74.17 12.848 73.6373 12.2578 73.258 11.4993C72.8788 10.7408 72.6891 9.85439 72.6891 8.84019C72.6891 7.82172 72.8788 6.9311 73.258 6.16831C73.6373 5.40553 74.17 4.8132 74.856 4.39133C75.5421 3.96945 76.3454 3.75851 77.2659 3.75851C78.1863 3.75851 78.9896 3.96945 79.6757 4.39133C80.3617 4.8132 80.8944 5.40553 81.2737 6.16831C81.6529 6.9311 81.8426 7.82172 81.8426 8.84019C81.8426 9.85439 81.6529 10.7408 81.2737 11.4993C80.8944 12.2578 80.3617 12.848 79.6757 13.2699C78.9896 13.6918 78.1863 13.9027 77.2659 13.9027ZM77.2722 12.2983C77.8688 12.2983 78.3632 12.1406 78.7552 11.8253C79.1472 11.5099 79.437 11.0902 79.6245 10.566C79.8163 10.0419 79.9122 9.46448 79.9122 8.8338C79.9122 8.20738 79.8163 7.63209 79.6245 7.10795C79.437 6.57954 79.1472 6.15553 78.7552 5.83593C78.3632 5.51633 77.8688 5.35653 77.2722 5.35653C76.6714 5.35653 76.1728 5.51633 75.7765 5.83593C75.3845 6.15553 75.0926 6.57954 74.9008 7.10795C74.7133 7.63209 74.6195 8.20738 74.6195 8.8338C74.6195 9.46448 74.7133 10.0419 74.9008 10.566C75.0926 11.0902 75.3845 11.5099 75.7765 11.8253C76.1728 12.1406 76.6714 12.2983 77.2722 12.2983Z" fill="black"/>
  <path d="M68.6478 13.7045V3.88635H70.559V13.7045H68.6478ZM69.613 2.37144C69.2806 2.37144 68.9951 2.26064 68.7565 2.03905C68.5221 1.8132 68.4049 1.54473 68.4049 1.23365C68.4049 0.918313 68.5221 0.649847 68.7565 0.428256C68.9951 0.202404 69.2806 0.0894775 69.613 0.0894775C69.9454 0.0894775 70.2288 0.202404 70.4632 0.428256C70.7018 0.649847 70.8211 0.918313 70.8211 1.23365C70.8211 1.54473 70.7018 1.8132 70.4632 2.03905C70.2288 2.26064 69.9454 2.37144 69.613 2.37144Z" fill="black"/>
  <path d="M61.0557 13.8963C60.263 13.8963 59.5557 13.6939 58.9335 13.2891C58.3156 12.88 57.8298 12.2983 57.4761 11.544C57.1267 10.7855 56.952 9.87572 56.952 8.81464C56.952 7.75356 57.1288 6.84589 57.4825 6.09163C57.8405 5.33737 58.3305 4.75995 58.9527 4.35939C59.5748 3.95882 60.2801 3.75853 61.0684 3.75853C61.6778 3.75853 62.1679 3.86081 62.5386 4.06535C62.9136 4.26564 63.2034 4.50001 63.4079 4.76848C63.6167 5.03694 63.7787 5.27345 63.8937 5.47799H64.0088V0.613647H65.92V13.7046H64.0535V12.1769H63.8937C63.7787 12.3857 63.6125 12.6243 63.3951 12.8928C63.1821 13.1612 62.888 13.3956 62.513 13.5959C62.138 13.7962 61.6523 13.8963 61.0557 13.8963ZM61.4775 12.2663C62.0273 12.2663 62.4917 12.1215 62.871 11.8317C63.2545 11.5377 63.5443 11.1307 63.7403 10.6108C63.9406 10.0909 64.0407 9.48581 64.0407 8.79547C64.0407 8.11365 63.9427 7.51706 63.7467 7.00569C63.5507 6.49433 63.263 6.09589 62.8838 5.81038C62.5045 5.52487 62.0358 5.38211 61.4775 5.38211C60.9023 5.38211 60.4228 5.53126 60.0393 5.82956C59.6558 6.12785 59.366 6.53481 59.17 7.05044C58.9782 7.56606 58.8824 8.14774 58.8824 8.79547C58.8824 9.45172 58.9804 10.0419 59.1764 10.5661C59.3724 11.0902 59.6622 11.5057 60.0457 11.8125C60.4335 12.1151 60.9108 12.2663 61.4775 12.2663Z" fill="black"/>
  <path d="M45.7083 13.7045V3.88637H47.5556V5.44603H47.6579C47.8369 4.91762 48.1522 4.50213 48.6039 4.19958C49.0599 3.89276 49.5755 3.73935 50.1508 3.73935C50.2701 3.73935 50.4107 3.74361 50.5727 3.75213C50.7389 3.76066 50.8688 3.77131 50.9626 3.78409V5.61222C50.8859 5.59091 50.7495 5.56747 50.5535 5.54191C50.3575 5.51208 50.1614 5.49716 49.9654 5.49716C49.5137 5.49716 49.111 5.59304 48.7573 5.7848C48.4079 5.9723 48.1309 6.23438 47.9264 6.57103C47.7218 6.90341 47.6195 7.28267 47.6195 7.70881V13.7045H45.7083Z" fill="black"/>
  <path d="M41.2227 9.6328V3.88635H43.1403V13.7045H41.261V12.0042H41.1588C40.9329 12.5284 40.5707 12.9652 40.0721 13.3146C39.5778 13.6598 38.962 13.8324 38.2248 13.8324C37.5941 13.8324 37.0359 13.6939 36.5501 13.4169C36.0686 13.1356 35.6893 12.7202 35.4123 12.1704C35.1396 11.6207 35.0032 10.941 35.0032 10.1314V3.88635H36.9145V9.90127C36.9145 10.5703 37.0998 11.103 37.4706 11.4993C37.8413 11.8956 38.3228 12.0937 38.9152 12.0937C39.2731 12.0937 39.6289 12.0043 39.9826 11.8253C40.3406 11.6463 40.6368 11.3757 40.8711 11.0135C41.1098 10.6513 41.227 10.191 41.2227 9.6328Z" fill="black"/>
  <path d="M33.0313 3.88636V5.42046H27.483V3.88636H33.0313ZM29.0043 13.7045V2.74858C29.0043 2.13494 29.1386 1.62571 29.407 1.22088C29.6755 0.81179 30.0313 0.507103 30.4745 0.306819C30.9177 0.102273 31.3992 0 31.9191 0C32.3026 0 32.6308 0.0319605 32.9035 0.0958815C33.1762 0.15554 33.3786 0.210938 33.5107 0.262074L33.0633 1.80895C32.9738 1.78338 32.8587 1.75355 32.7181 1.71946C32.5775 1.68111 32.407 1.66193 32.2068 1.66193C31.7423 1.66193 31.4099 1.77699 31.2096 2.0071C31.0136 2.23722 30.9156 2.5696 30.9156 3.00426V13.7045H29.0043Z" fill="black"/>
  <path d="M25.7875 0.613647V13.7046H23.8763V0.613647H25.7875Z" fill="black"/>
  <path d="M19.3907 9.6328V3.88635H21.3083V13.7045H19.429V12.0042H19.3267C19.1009 12.5284 18.7387 12.9652 18.2401 13.3146C17.7458 13.6598 17.13 13.8324 16.3928 13.8324C15.7621 13.8324 15.2039 13.6939 14.7181 13.4169C14.2365 13.1356 13.8573 12.7202 13.5803 12.1704C13.3076 11.6207 13.1712 10.941 13.1712 10.1314V3.88635H15.0824V9.90127C15.0824 10.5703 15.2678 11.103 15.6385 11.4993C16.0093 11.8956 16.4908 12.0937 17.0831 12.0937C17.4411 12.0937 17.7969 12.0043 18.1506 11.8253C18.5086 11.6463 18.8047 11.3757 19.0391 11.0135C19.2777 10.6513 19.3949 10.191 19.3907 9.6328Z" fill="black"/>
  <path d="M8.88057 4.05256C8.81239 3.44745 8.53114 2.9787 8.03682 2.64631C7.5425 2.30966 6.92034 2.14134 6.17034 2.14134C5.63341 2.14134 5.16892 2.22657 4.77688 2.39702C4.38483 2.56321 4.08014 2.79333 3.86281 3.08736C3.64975 3.37713 3.54321 3.70739 3.54321 4.07813C3.54321 4.38921 3.61566 4.65767 3.76054 4.88353C3.90969 5.10938 4.10358 5.29901 4.34222 5.45242C4.58512 5.60157 4.84506 5.72728 5.12205 5.82955C5.39904 5.92756 5.66537 6.00853 5.92105 6.07245L7.19946 6.40483C7.61708 6.50711 8.04534 6.6456 8.48426 6.82032C8.92318 6.99503 9.33014 7.22514 9.70514 7.51066C10.0801 7.79617 10.3827 8.14986 10.6128 8.57174C10.8472 8.99361 10.9644 9.49858 10.9644 10.0867C10.9644 10.8281 10.7726 11.4865 10.3891 12.0618C10.0098 12.6371 9.45799 13.0909 8.73355 13.4233C8.01338 13.7557 7.14193 13.9219 6.11921 13.9219C5.13909 13.9219 4.29108 13.7663 3.57517 13.4553C2.85926 13.1442 2.29889 12.7031 1.89407 12.1321C1.48924 11.5568 1.26551 10.875 1.2229 10.0867H3.20443C3.24279 10.5597 3.3962 10.9538 3.66466 11.2692C3.93739 11.5803 4.28469 11.8125 4.70657 11.9659C5.1327 12.1151 5.59932 12.1896 6.10642 12.1896C6.66466 12.1896 7.16111 12.1023 7.59577 11.9276C8.03469 11.7486 8.37986 11.5014 8.63128 11.1861C8.8827 10.8665 9.00841 10.4936 9.00841 10.0675C9.00841 9.67969 8.89762 9.36222 8.67603 9.11506C8.4587 8.8679 8.16253 8.66336 7.78753 8.50142C7.41679 8.33949 6.99705 8.19674 6.5283 8.07316L4.98142 7.65128C3.93313 7.36577 3.10216 6.94603 2.48853 6.39205C1.87915 5.83807 1.57446 5.10512 1.57446 4.19318C1.57446 3.43892 1.77901 2.78054 2.1881 2.21804C2.59719 1.65554 3.15117 1.21875 3.85003 0.907674C4.5489 0.592333 5.33725 0.434662 6.21509 0.434662C7.10145 0.434662 7.88341 0.590202 8.56097 0.901281C9.24279 1.21236 9.77972 1.64063 10.1718 2.18608C10.5638 2.72728 10.7684 3.34943 10.7854 4.05256H8.88057Z" fill="black"/>
  <path d="M26.5305 46.8112H0.297058V167.421H26.5305V46.8112Z" fill="url(#paint0_linear_0_1)"/>
  <path fill-rule="evenodd" clip-rule="evenodd" d="M0.137085 46.6512H26.6904V167.581H0.137085V46.6512ZM0.457005 46.9711V167.261H26.3705V46.9711H0.457005Z" fill="black"/>
  <defs>
    <linearGradient id="paint0_linear_0_1" x1="-231.325" y1="167.936" x2="-231.325" y2="47.0191" gradientUnits="userSpaceOnUse">
      <stop stop-color="#000004" stop-opacity="0"/>
      <stop offset="0.0192308" stop-color="#550E71" stop-opacity="0.0705882"/>
      <stop offset="0.0384615" stop-color="#570D6B" stop-opacity="0.14902"/>
      <stop offset="0.0576923" stop-color="#580D6E" stop-opacity="0.227451"/>
      <stop offset="0.0769231" stop-color="#560D6D" stop-opacity="0.301961"/>
      <stop offset="0.0961538" stop-color="#570D6E" stop-opacity="0.380392"/>
      <stop offset="0.115385" stop-color="#570D6D" stop-opacity="0.458824"/>
      <stop offset="0.134615" stop-color="#560F6D" stop-opacity="0.533333"/>
      <stop offset="0.153846" stop-color="#570F6E" stop-opacity="0.611765"/>
      <stop offset="0.173077" stop-color="#570E6E" stop-opacity="0.690196"/>
      <stop offset="0.192308" stop-color="#560E6E" stop-opacity="0.764706"/>
      <stop offset="0.211538" stop-color="#570E6D" stop-opacity="0.843137"/>
      <stop offset="0.230769" stop-color="#570E6E" stop-opacity="0.921569"/>
      <stop offset="0.25" stop-color="#570F6E"/>
      <stop offset="0.269231" stop-color="#5E116C"/>
      <stop offset="0.288462" stop-color="#66156A"/>
      <stop offset="0.307692" stop-color="#6E1868"/>
      <stop offset="0.326923" stop-color="#751B66"/>
      <stop offset="0.346154" stop-color="#7D1E64"/>
      <stop offset="0.365385" stop-color="#852162"/>
      <stop offset="0.384615" stop-color="#8C2460"/>
      <stop offset="0.403846" stop-color="#94275E"/>
      <stop offset="0.423077" stop-color="#9C2A5C"/>
      <stop offset="0.442308" stop-color="#A32D5A"/>
      <stop offset="0.461538" stop-color="#AB3058"/>
      <stop offset="0.480769" stop-color="#B33356"/>
      <stop offset="0.5" stop-color="#BB3755"/>
      <stop offset="0.519231" stop-color="#BF3D4F"/>
      <stop offset="0.538462" stop-color="#C44449"/>
      <stop offset="0.557692" stop-color="#C94A43"/>
      <stop offset="0.576923" stop-color="#CD513E"/>
      <stop offset="0.596154" stop-color="#D25738"/>
      <stop offset="0.615385" stop-color="#D75E32"/>
      <stop offset="0.634615" stop-color="#DC652C"/>
      <stop offset="0.653846" stop-color="#E16B27"/>
      <stop offset="0.673077" stop-color="#E57221"/>
      <stop offset="0.692308" stop-color="#EA781B"/>
      <stop offset="0.711538" stop-color="#EF7F15"/>
      <stop offset="0.730769" stop-color="#F4860F"/>
      <stop offset="0.75" stop-color="#F98D0A"/>
      <stop offset="0.769231" stop-color="#F99515"/>
      <stop offset="0.788462" stop-color="#F99E21"/>
      <stop offset="0.807692" stop-color="#F9A72D"/>
      <stop offset="0.826923" stop-color="#F9AF38"/>
      <stop offset="0.846154" stop-color="#FAB844"/>
      <stop offset="0.865385" stop-color="#FAC150"/>
      <stop offset="0.884615" stop-color="#FACA5C"/>
      <stop offset="0.903846" stop-color="#FAD268"/>
      <stop offset="0.923077" stop-color="#FBDB74"/>
      <stop offset="0.942308" stop-color="#FBE47F"/>
      <stop offset="0.961538" stop-color="#FBED8B"/>
      <stop offset="0.980769" stop-color="#FBF697"/>
      <stop offset="1" stop-color="#FCFFA4"/>
    </linearGradient>
  </defs>
</svg>