<svg width="156" height="192" viewBox="0 0 156 192" fill="none" xmlns="http://www.w3.org/2000/svg">
  <path d="M27.2334 70.2862H1V190.896H27.2334V70.2862Z" fill="url(#paint0_linear_0_1)"/>
  <path fill-rule="evenodd" clip-rule="evenodd" d="M0.840027 70.1263H27.3934V191.056H0.840027V70.1263ZM1.15995 70.4462V190.736H27.0735V70.4462H1.15995Z" fill="black"/>
  <path d="M46.4591 84.1967L51.6624 73.9038V73.8129H45.6639V72.5633H53.1166V73.8811L47.936 84.1967H46.4591Z" fill="black"/>
  <path d="M36.4105 84.1967V83.1742L40.2505 78.9707C40.7011 78.4784 41.0722 78.0505 41.3638 77.687C41.6554 77.3196 41.8713 76.975 42.0114 76.6531C42.1553 76.3275 42.2272 75.9866 42.2272 75.6307C42.2272 75.2217 42.1288 74.8676 41.9319 74.5684C41.7387 74.2693 41.4736 74.0383 41.1366 73.8754C40.7996 73.7126 40.4209 73.6312 40.0005 73.6312C39.5537 73.6312 39.1636 73.724 38.8304 73.9095C38.5009 74.0913 38.2453 74.3469 38.0635 74.6764C37.8855 75.0058 37.7965 75.3921 37.7965 75.8352H36.456C36.456 75.1535 36.6131 74.5552 36.9274 74.0402C37.2418 73.5251 37.6697 73.1237 38.2112 72.8359C38.7565 72.5481 39.3681 72.4042 40.046 72.4042C40.7276 72.4042 41.3316 72.5481 41.858 72.8359C42.3844 73.1237 42.7972 73.5119 43.0963 74.0004C43.3955 74.4889 43.5451 75.0323 43.5451 75.6307C43.5451 76.0586 43.4675 76.477 43.3122 76.886C43.1607 77.2912 42.8956 77.7438 42.5169 78.2437C42.142 78.7397 41.6213 79.3456 40.9548 80.0614L38.3419 82.8561V82.947H43.7496V84.1967H36.4105Z" fill="black"/>
  <path d="M47.7088 186.075C47.2317 186.068 46.7545 185.977 46.2773 185.803C45.8002 185.628 45.3647 185.335 44.9709 184.922C44.577 184.506 44.2608 183.943 44.0222 183.235C43.7837 182.523 43.6644 181.629 43.6644 180.554C43.6644 179.524 43.7609 178.611 43.9541 177.816C44.1472 177.017 44.4274 176.345 44.7948 175.799C45.1621 175.25 45.6052 174.834 46.124 174.55C46.6466 174.266 47.2354 174.124 47.8906 174.124C48.5419 174.124 49.1213 174.254 49.6288 174.516C50.14 174.773 50.5566 175.133 50.8785 175.595C51.2004 176.057 51.4086 176.589 51.5033 177.191H50.1173C49.9885 176.669 49.7386 176.235 49.3675 175.89C48.9964 175.546 48.5041 175.373 47.8906 175.373C46.9893 175.373 46.2792 175.765 45.7604 176.549C45.2454 177.333 44.986 178.433 44.9822 179.85H45.0731C45.2852 179.528 45.537 179.253 45.8286 179.026C46.124 178.795 46.4497 178.617 46.8056 178.492C47.1616 178.367 47.5384 178.305 47.936 178.305C48.6025 178.305 49.2122 178.471 49.7651 178.804C50.318 179.134 50.7611 179.59 51.0943 180.173C51.4276 180.753 51.5942 181.417 51.5942 182.167C51.5942 182.887 51.4333 183.546 51.1114 184.144C50.7895 184.739 50.3369 185.212 49.7537 185.564C49.1743 185.912 48.4927 186.083 47.7088 186.075ZM47.7088 184.826C48.186 184.826 48.6139 184.706 48.9926 184.468C49.3751 184.229 49.6761 183.909 49.8958 183.508C50.1192 183.106 50.2309 182.659 50.2309 182.167C50.2309 181.686 50.123 181.249 49.9071 180.855C49.6951 180.457 49.4016 180.141 49.0267 179.906C48.6555 179.672 48.2314 179.554 47.7543 179.554C47.3945 179.554 47.0593 179.626 46.7488 179.77C46.4383 179.91 46.1656 180.103 45.9308 180.349C45.6998 180.596 45.5181 180.878 45.3855 181.196C45.253 181.51 45.1867 181.842 45.1867 182.19C45.1867 182.652 45.2946 183.084 45.5105 183.485C45.7301 183.886 46.0293 184.21 46.408 184.456C46.7905 184.703 47.2241 184.826 47.7088 184.826Z" fill="black"/>
  <path d="M40.5004 174.283V185.916H39.0917V175.76H39.0235L36.1833 177.646V176.214L39.0917 174.283H40.5004Z" fill="black"/>
  <path d="M118.185 34.2102L118.089 34.907C118.026 35.4183 117.917 35.951 117.763 36.505C117.614 37.0632 117.459 37.581 117.297 38.0582C117.139 38.5355 117.009 38.9148 116.907 39.196H115.552C115.607 38.9318 115.684 38.5739 115.782 38.1222C115.88 37.6747 115.976 37.174 116.07 36.62C116.163 36.0661 116.234 35.5014 116.281 34.9261L116.344 34.2102H118.185Z" fill="black"/>
  <path d="M100.15 36V26.1818H101.608V27.7159H101.735C101.94 27.1918 102.27 26.7848 102.726 26.495C103.182 26.201 103.73 26.054 104.369 26.054C105.017 26.054 105.556 26.201 105.986 26.495C106.421 26.7848 106.76 27.1918 107.002 27.7159H107.105C107.356 27.2088 107.733 26.8061 108.236 26.5078C108.739 26.2053 109.342 26.054 110.045 26.054C110.923 26.054 111.641 26.3288 112.199 26.8786C112.757 27.424 113.037 28.2742 113.037 29.429V36H111.528V29.429C111.528 28.7046 111.33 28.1868 110.934 27.8757C110.537 27.5646 110.071 27.4091 109.534 27.4091C108.843 27.4091 108.309 27.6179 107.929 28.0355C107.55 28.4489 107.36 28.973 107.36 29.608V36H105.826V29.2756C105.826 28.7173 105.645 28.2678 105.283 27.9269C104.921 27.5817 104.454 27.4091 103.883 27.4091C103.491 27.4091 103.125 27.5135 102.784 27.7223C102.447 27.9311 102.174 28.2209 101.966 28.5916C101.761 28.9581 101.659 29.3821 101.659 29.8636V36H100.15Z" fill="black"/>
  <path d="M88.9529 39.6818V26.1818H90.4615V31.9858C90.4615 32.5185 90.5723 32.9872 90.7938 33.392C91.0197 33.7926 91.335 34.1058 91.7399 34.3317C92.149 34.5575 92.6262 34.6705 93.1717 34.6705C93.7171 34.6705 94.1923 34.5575 94.5971 34.3317C95.0062 34.1016 95.3215 33.7862 95.5431 33.3857C95.769 32.9808 95.8819 32.5142 95.8819 31.9858V26.1818H97.3904V36H95.8819V34.5426H95.8052C95.541 35.0582 95.1724 35.4524 94.6994 35.7251C94.2264 35.9936 93.7171 36.1278 93.1717 36.1278C92.6262 36.1278 92.117 35.9936 91.644 35.7251C91.1752 35.4524 90.8066 35.0582 90.5382 34.5426H90.4615V39.6818H88.9529Z" fill="black"/>
  <path d="M77.0062 36.2174C75.9963 36.2131 75.1333 35.9468 74.4174 35.4183C73.7015 34.8899 73.1539 34.1208 72.7747 33.1108C72.3954 32.1009 72.2058 30.8843 72.2058 29.461C72.2058 28.0419 72.3954 26.8296 72.7747 25.8239C73.1582 24.8182 73.7079 24.0512 74.4238 23.5227C75.144 22.9943 76.0048 22.7301 77.0062 22.7301C78.0076 22.7301 78.8663 22.9965 79.5822 23.5291C80.2981 24.0575 80.8457 24.8246 81.225 25.8303C81.6085 26.8317 81.8002 28.0419 81.8002 29.461C81.8002 30.8885 81.6106 32.1073 81.2313 33.1172C80.8521 34.1229 80.3045 34.8921 79.5886 35.4247C78.8727 35.9531 78.0119 36.2174 77.0062 36.2174ZM77.0062 34.5107C77.8926 34.5107 78.585 34.0781 79.0836 33.2131C79.5865 32.348 79.8379 31.0973 79.8379 29.461C79.8379 28.3743 79.7228 27.456 79.4927 26.706C79.2669 25.9517 78.9409 25.3807 78.5147 24.9929C78.0929 24.6009 77.59 24.4048 77.0062 24.4048C76.1241 24.4048 75.4316 24.8395 74.9288 25.7088C74.426 26.5781 74.1724 27.8289 74.1681 29.461C74.1681 30.5519 74.2811 31.4745 74.5069 32.2287C74.737 32.9787 75.063 33.5476 75.4849 33.9354C75.9068 34.3189 76.4139 34.5107 77.0062 34.5107Z" fill="black"/>
  <path d="M68.9075 22.9091V36H66.9259V24.8906H66.8492L63.7171 26.9361V25.044L66.9835 22.9091H68.9075Z" fill="black"/>
  <path d="M52.2946 36V26.1818H54.1419V27.7415H54.2441C54.4231 27.2131 54.7384 26.7976 55.1902 26.495C55.6461 26.1882 56.1617 26.0348 56.737 26.0348C56.8563 26.0348 56.997 26.0391 57.1589 26.0476C57.3251 26.0561 57.4551 26.0668 57.5488 26.0796V27.9077C57.4721 27.8864 57.3357 27.8629 57.1397 27.8374C56.9437 27.8075 56.7477 27.7926 56.5517 27.7926C56.1 27.7926 55.6973 27.8885 55.3436 28.0803C54.9941 28.2678 54.7171 28.5298 54.5126 28.8665C54.3081 29.1989 54.2058 29.5781 54.2058 30.0043V36H52.2946Z" fill="black"/>
  <path d="M45.9616 36.1982C44.9943 36.1982 44.1612 35.9915 43.4624 35.5781C42.7678 35.1605 42.2308 34.5746 41.8516 33.8203C41.4766 33.0618 41.2891 32.1733 41.2891 31.1548C41.2891 30.1492 41.4766 29.2628 41.8516 28.4957C42.2308 27.7287 42.7592 27.13 43.4368 26.6996C44.1186 26.2692 44.9155 26.054 45.8274 26.054C46.3814 26.054 46.9183 26.1456 47.4382 26.3288C47.9581 26.5121 48.4247 26.7997 48.8381 27.1918C49.2514 27.5838 49.5774 28.093 49.8161 28.7195C50.0547 29.3416 50.174 30.098 50.174 30.9886V31.6662H42.3693V30.2344H48.3011C48.3011 29.7315 48.1989 29.2862 47.9943 28.8984C47.7898 28.5064 47.5021 28.1975 47.1314 27.9716C46.7649 27.7457 46.3345 27.6328 45.8402 27.6328C45.3033 27.6328 44.8345 27.7649 44.4339 28.0291C44.0376 28.2891 43.7308 28.63 43.5135 29.0519C43.3004 29.4695 43.1939 29.9233 43.1939 30.4134V31.532C43.1939 32.1882 43.3089 32.7465 43.5391 33.2067C43.7734 33.6669 44.0994 34.0185 44.517 34.2614C44.9347 34.5 45.4226 34.6193 45.9808 34.6193C46.343 34.6193 46.6733 34.5682 46.9716 34.4659C47.2699 34.3594 47.5277 34.2017 47.745 33.9929C47.9624 33.7841 48.1285 33.5263 48.2436 33.2195L50.0526 33.5455C49.9077 34.0781 49.6477 34.5448 49.2727 34.9453C48.902 35.3416 48.4354 35.6506 47.8729 35.8722C47.3146 36.0895 46.6776 36.1982 45.9616 36.1982Z" fill="black"/>
  <path d="M39.7214 26.1818V27.7159H34.3585V26.1818H39.7214ZM35.7967 23.8296H37.7079V33.1172C37.7079 33.4879 37.7633 33.7671 37.8741 33.9546C37.9849 34.1378 38.1276 34.2635 38.3024 34.3317C38.4813 34.3956 38.6752 34.4276 38.884 34.4276C39.0374 34.4276 39.1717 34.4169 39.2867 34.3956C39.4018 34.3743 39.4913 34.3573 39.5552 34.3445L39.9004 35.9233C39.7896 35.9659 39.6319 36.0085 39.4274 36.0511C39.2228 36.098 38.9671 36.1236 38.6603 36.1279C38.1575 36.1364 37.6887 36.0469 37.2541 35.8594C36.8194 35.6719 36.4678 35.3821 36.1994 34.9901C35.9309 34.598 35.7967 34.1058 35.7967 33.5135V23.8296Z" fill="black"/>
  <path d="M33.0241 26.1818V27.7159H27.6612V26.1818H33.0241ZM29.0994 23.8296H31.0107V33.1172C31.0107 33.4879 31.0661 33.7671 31.1768 33.9546C31.2876 34.1378 31.4304 34.2635 31.6051 34.3317C31.7841 34.3956 31.978 34.4276 32.1868 34.4276C32.3402 34.4276 32.4744 34.4169 32.5895 34.3956C32.7045 34.3743 32.794 34.3573 32.858 34.3445L33.2031 35.9233C33.0923 35.9659 32.9347 36.0085 32.7301 36.0511C32.5256 36.098 32.2699 36.1236 31.9631 36.1279C31.4602 36.1364 30.9915 36.0469 30.5568 35.8594C30.1222 35.6719 29.7706 35.3821 29.5021 34.9901C29.2337 34.598 29.0994 34.1058 29.0994 33.5135V23.8296Z" fill="black"/>
  <path d="M21.0502 36.2173C20.4281 36.2173 19.8656 36.1023 19.3627 35.8722C18.8599 35.6378 18.4615 35.299 18.1674 34.8558C17.8776 34.4126 17.7328 33.8693 17.7328 33.2259C17.7328 32.6719 17.8393 32.2159 18.0524 31.858C18.2654 31.5 18.5531 31.2166 18.9153 31.0078C19.2775 30.799 19.6823 30.6413 20.1298 30.5348C20.5772 30.4283 21.0332 30.3473 21.4977 30.2919C22.0857 30.2237 22.563 30.1683 22.9295 30.1257C23.296 30.0788 23.5623 30.0043 23.7285 29.902C23.8947 29.7997 23.9778 29.6335 23.9778 29.4034V29.3587C23.9778 28.8004 23.8201 28.3679 23.5048 28.0611C23.1937 27.7543 22.7292 27.6009 22.1113 27.6009C21.4678 27.6009 20.9607 27.7436 20.59 28.0291C20.2235 28.3104 19.97 28.6236 19.8293 28.9688L18.0332 28.5597C18.2463 27.9631 18.5573 27.4815 18.9664 27.1151C19.3798 26.7443 19.8549 26.4759 20.3918 26.3097C20.9288 26.1392 21.4934 26.054 22.0857 26.054C22.4778 26.054 22.8933 26.1009 23.3322 26.1946C23.7754 26.2841 24.1887 26.4503 24.5722 26.6932C24.96 26.9361 25.2775 27.2834 25.5247 27.7351C25.7718 28.1825 25.8954 28.7642 25.8954 29.4801V36H24.0289V34.6577H23.9522C23.8286 34.9048 23.6433 35.1477 23.3961 35.3864C23.149 35.625 22.8315 35.8232 22.4437 35.9808C22.0559 36.1385 21.5914 36.2173 21.0502 36.2173ZM21.4657 34.6832C21.9941 34.6832 22.4458 34.5788 22.8208 34.37C23.2001 34.1612 23.4877 33.8885 23.6838 33.5519C23.884 33.2109 23.9842 32.8466 23.9842 32.4588V31.1932C23.916 31.2614 23.7839 31.3253 23.5879 31.3849C23.3961 31.4403 23.1767 31.4894 22.9295 31.532C22.6823 31.5703 22.4416 31.6065 22.2072 31.6406C21.9728 31.6705 21.7768 31.696 21.6191 31.7173C21.2484 31.7642 20.9096 31.843 20.6028 31.9538C20.3002 32.0646 20.0573 32.2244 19.8741 32.4332C19.6951 32.6378 19.6056 32.9105 19.6056 33.2514C19.6056 33.7244 19.7803 34.0824 20.1298 34.3253C20.4792 34.5639 20.9245 34.6832 21.4657 34.6832Z" fill="black"/>
  <path d="M2.28479 36V26.1818H4.11931V27.7798H4.24076C4.4453 27.2386 4.77982 26.8168 5.24431 26.5142C5.7088 26.2074 6.2649 26.054 6.91263 26.054C7.56888 26.054 8.1186 26.2074 8.56178 26.5142C9.00922 26.821 9.33948 27.2429 9.55255 27.7798H9.65482C9.88919 27.2557 10.2621 26.8381 10.7734 26.527C11.2848 26.2117 11.8942 26.054 12.6016 26.054C13.4922 26.054 14.2187 26.3331 14.7812 26.8913C15.348 27.4496 15.6314 28.2912 15.6314 29.4162V36H13.7202V29.5952C13.7202 28.9304 13.5391 28.4489 13.1768 28.1506C12.8146 27.8523 12.3821 27.7031 11.8793 27.7031C11.2571 27.7031 10.7734 27.8949 10.4283 28.2784C10.0831 28.6577 9.9105 29.1456 9.9105 29.7422V36H8.00567V29.4737C8.00567 28.9411 7.83948 28.5128 7.50709 28.1889C7.17471 27.8651 6.74218 27.7031 6.20951 27.7031C5.84729 27.7031 5.51277 27.799 5.20595 27.9908C4.9034 28.1783 4.65837 28.4403 4.47087 28.777C4.28763 29.1136 4.19601 29.5036 4.19601 29.9467V36H2.28479Z" fill="black"/>
  <path d="M89.0984 14.1982C88.131 14.1982 87.2979 13.9915 86.5991 13.5781C85.9045 13.1605 85.3675 12.5746 84.9883 11.8203C84.6133 11.0618 84.4258 10.1733 84.4258 9.15484C84.4258 8.14916 84.6133 7.26279 84.9883 6.49575C85.3675 5.7287 85.896 5.12998 86.5735 4.69958C87.2553 4.26918 88.0522 4.05399 88.9641 4.05399C89.5181 4.05399 90.055 4.14561 90.5749 4.32884C91.0948 4.51208 91.5614 4.79972 91.9748 5.19177C92.3881 5.58381 92.7141 6.09305 92.9528 6.71947C93.1914 7.34163 93.3107 8.09802 93.3107 8.98864V9.6662H85.506V8.23438H91.4379C91.4379 7.73154 91.3356 7.28623 91.131 6.89845C90.9265 6.5064 90.6389 6.19745 90.2681 5.9716C89.9016 5.74575 89.4712 5.63282 88.9769 5.63282C88.44 5.63282 87.9712 5.76492 87.5707 6.02913C87.1744 6.28907 86.8675 6.62998 86.6502 7.05186C86.4371 7.46947 86.3306 7.9233 86.3306 8.41336V9.53197C86.3306 10.1882 86.4457 10.7465 86.6758 11.2067C86.9102 11.6669 87.2361 12.0185 87.6538 12.2614C88.0714 12.5 88.5593 12.6193 89.1175 12.6193C89.4798 12.6193 89.81 12.5682 90.1083 12.4659C90.4066 12.3594 90.6644 12.2017 90.8817 11.9929C91.0991 11.7841 91.2653 11.5263 91.3803 11.2195L93.1893 11.5455C93.0444 12.0781 92.7844 12.5448 92.4094 12.9453C92.0387 13.3416 91.5721 13.6506 91.0096 13.8722C90.4514 14.0895 89.8143 14.1982 89.0984 14.1982Z" fill="black"/>
  <path d="M82.8581 4.18183V5.71592H77.4952V4.18183H82.8581ZM78.9334 1.82956H80.8446V11.1172C80.8446 11.4879 80.9 11.7671 81.0108 11.9546C81.1216 12.1378 81.2644 12.2635 81.4391 12.3317C81.6181 12.3956 81.812 12.4276 82.0208 12.4276C82.1742 12.4276 82.3084 12.4169 82.4235 12.3956C82.5385 12.3743 82.628 12.3573 82.6919 12.3445L83.0371 13.9233C82.9263 13.9659 82.7686 14.0085 82.5641 14.0512C82.3595 14.098 82.1039 14.1236 81.7971 14.1279C81.2942 14.1364 80.8255 14.0469 80.3908 13.8594C79.9561 13.6719 79.6046 13.3821 79.3361 12.9901C79.0676 12.598 78.9334 12.1058 78.9334 11.5135V1.82956Z" fill="black"/>
  <path d="M70.8842 14.2173C70.2621 14.2173 69.6996 14.1023 69.1967 13.8722C68.6939 13.6378 68.2955 13.299 68.0014 12.8558C67.7117 12.4127 67.5668 11.8693 67.5668 11.2259C67.5668 10.6719 67.6733 10.2159 67.8864 9.85796C68.0994 9.50001 68.3871 9.21663 68.7493 9.00782C69.1115 8.79901 69.5163 8.64134 69.9638 8.53481C70.4112 8.42828 70.8672 8.34731 71.3317 8.29191C71.9197 8.22373 72.397 8.16833 72.7635 8.12572C73.13 8.07884 73.3963 8.00427 73.5625 7.902C73.7287 7.79972 73.8118 7.63353 73.8118 7.40342V7.35867C73.8118 6.80043 73.6541 6.36791 73.3388 6.06109C73.0277 5.75427 72.5632 5.60086 71.9453 5.60086C71.3019 5.60086 70.7947 5.74362 70.424 6.02913C70.0575 6.31038 69.804 6.62359 69.6634 6.96876L67.8672 6.55967C68.0803 5.96308 68.3913 5.48154 68.8004 5.11507C69.2138 4.74433 69.6889 4.47586 70.2259 4.30967C70.7628 4.13921 71.3274 4.05399 71.9198 4.05399C72.3118 4.05399 72.7273 4.10086 73.1662 4.19461C73.6094 4.2841 74.0227 4.45029 74.4063 4.69319C74.794 4.93609 75.1115 5.28339 75.3587 5.73509C75.6058 6.18254 75.7294 6.76421 75.7294 7.48012V14H73.8629V12.6577H73.7862C73.6627 12.9048 73.4773 13.1477 73.2301 13.3864C72.983 13.625 72.6655 13.8232 72.2777 13.9808C71.8899 14.1385 71.4254 14.2173 70.8842 14.2173ZM71.2997 12.6832C71.8281 12.6832 72.2798 12.5788 72.6548 12.37C73.0341 12.1612 73.3217 11.8885 73.5178 11.5519C73.718 11.2109 73.8182 10.8466 73.8182 10.4588V9.19319C73.75 9.26137 73.6179 9.32529 73.4219 9.38495C73.2301 9.44035 73.0107 9.48936 72.7635 9.53197C72.5163 9.57032 72.2756 9.60654 72.0412 9.64063C71.8068 9.67046 71.6108 9.69603 71.4531 9.71734C71.0824 9.76421 70.7436 9.84305 70.4368 9.95384C70.1342 10.0646 69.8913 10.2244 69.7081 10.4332C69.5291 10.6378 69.4396 10.9105 69.4396 11.2514C69.4396 11.7244 69.6144 12.0824 69.9638 12.3253C70.3132 12.5639 70.7585 12.6832 71.2997 12.6832Z" fill="black"/>
  <path d="M65.4558 0.909088V14H63.5446V0.909088H65.4558Z" fill="black"/>
  <path d="M59.0589 9.92827V4.18182H60.9766V14H59.0973V12.2997H58.995C58.7692 12.8239 58.407 13.2607 57.9084 13.6101C57.4141 13.9553 56.7983 14.1278 56.0611 14.1278C55.4304 14.1278 54.8721 13.9894 54.3864 13.7124C53.9048 13.4311 53.5256 13.0156 53.2486 12.4659C52.9758 11.9162 52.8395 11.2365 52.8395 10.4269V4.18182H54.7507V10.1967C54.7507 10.8658 54.9361 11.3984 55.3068 11.7948C55.6775 12.1911 56.1591 12.3892 56.7514 12.3892C57.1094 12.3892 57.4652 12.2997 57.8189 12.1207C58.1768 11.9418 58.473 11.6712 58.7074 11.309C58.946 10.9467 59.0632 10.4865 59.0589 9.92827Z" fill="black"/>
  <path d="M46.7623 14.1982C45.812 14.1982 44.9938 13.983 44.3077 13.5526C43.6259 13.1179 43.1017 12.5192 42.7353 11.7564C42.3688 10.9936 42.1855 10.12 42.1855 9.13566C42.1855 8.1385 42.373 7.25853 42.748 6.49575C43.123 5.7287 43.6515 5.12998 44.3333 4.69958C45.0151 4.26918 45.8184 4.05399 46.7431 4.05399C47.4888 4.05399 48.1536 4.19248 48.7374 4.46947C49.3212 4.7422 49.7921 5.12572 50.15 5.62004C50.5123 6.11435 50.7274 6.69177 50.7956 7.35228H48.9355C48.8333 6.89205 48.5989 6.49575 48.2324 6.16336C47.8702 5.83097 47.3844 5.66478 46.775 5.66478C46.2424 5.66478 45.7757 5.80541 45.3752 6.08666C44.9789 6.36365 44.6699 6.75995 44.4483 7.27558C44.2267 7.78694 44.1159 8.39205 44.1159 9.09092C44.1159 9.80683 44.2246 10.4247 44.4419 10.9446C44.6593 11.4645 44.9661 11.8672 45.3624 12.1527C45.763 12.4382 46.2338 12.581 46.775 12.581C47.1373 12.581 47.4654 12.5149 47.7594 12.3828C48.0577 12.2465 48.307 12.0526 48.5073 11.8011C48.7118 11.5497 48.8546 11.2472 48.9355 10.8935H50.7956C50.7274 11.5284 50.5208 12.0952 50.1756 12.5938C49.8304 13.0923 49.3681 13.4844 48.7885 13.7699C48.2132 14.0554 47.5378 14.1982 46.7623 14.1982Z" fill="black"/>
  <path d="M38.1442 14V4.18182H40.0554V14H38.1442ZM39.1094 2.66691C38.777 2.66691 38.4915 2.55611 38.2528 2.33452C38.0185 2.10867 37.9013 1.8402 37.9013 1.52912C37.9013 1.21378 38.0185 0.945318 38.2528 0.723727C38.4915 0.497875 38.777 0.384949 39.1094 0.384949C39.4418 0.384949 39.7251 0.497875 39.9595 0.723727C40.1982 0.945318 40.3175 1.21378 40.3175 1.52912C40.3175 1.8402 40.1982 2.10867 39.9595 2.33452C39.7251 2.55611 39.4418 2.66691 39.1094 2.66691Z" fill="black"/>
  <path d="M36.03 4.18183V5.71592H30.6671V4.18183H36.03ZM32.1053 1.82956H34.0165V11.1172C34.0165 11.4879 34.0719 11.7671 34.1827 11.9546C34.2935 12.1378 34.4363 12.2635 34.611 12.3317C34.79 12.3956 34.9838 12.4276 35.1927 12.4276C35.3461 12.4276 35.4803 12.4169 35.5954 12.3956C35.7104 12.3743 35.7999 12.3573 35.8638 12.3445L36.209 13.9233C36.0982 13.9659 35.9405 14.0085 35.736 14.0512C35.5314 14.098 35.2757 14.1236 34.9689 14.1279C34.4661 14.1364 33.9973 14.0469 33.5627 13.8594C33.128 13.6719 32.7765 13.3821 32.508 12.9901C32.2395 12.598 32.1053 12.1058 32.1053 11.5135V1.82956Z" fill="black"/>
  <path d="M23.9586 14V4.18184H25.8059V5.7415H25.9082C26.0872 5.21309 26.4025 4.7976 26.8542 4.49505C27.3102 4.18823 27.8258 4.03482 28.4011 4.03482C28.5204 4.03482 28.661 4.03908 28.823 4.04761C28.9892 4.05613 29.1191 4.06678 29.2129 4.07957V5.90769C29.1362 5.88638 28.9998 5.86295 28.8038 5.83738C28.6078 5.80755 28.4117 5.79263 28.2157 5.79263C27.764 5.79263 27.3613 5.88851 27.0076 6.08028C26.6582 6.26778 26.3812 6.52985 26.1767 6.8665C25.9721 7.19888 25.8698 7.57814 25.8698 8.00428V14H23.9586Z" fill="black"/>
  <path d="M16.5678 14.2173C15.9456 14.2173 15.3831 14.1023 14.8803 13.8722C14.3775 13.6378 13.979 13.299 13.685 12.8558C13.3952 12.4127 13.2503 11.8693 13.2503 11.2259C13.2503 10.6719 13.3569 10.2159 13.5699 9.85796C13.783 9.50001 14.0706 9.21663 14.4329 9.00782C14.7951 8.79901 15.1999 8.64134 15.6474 8.53481C16.0948 8.42828 16.5508 8.34731 17.0153 8.29191C17.6033 8.22373 18.0806 8.16833 18.4471 8.12572C18.8135 8.07884 19.0799 8.00427 19.2461 7.902C19.4123 7.79972 19.4954 7.63353 19.4954 7.40342V7.35867C19.4954 6.80043 19.3377 6.36791 19.0224 6.06109C18.7113 5.75427 18.2468 5.60086 17.6289 5.60086C16.9854 5.60086 16.4783 5.74362 16.1076 6.02913C15.7411 6.31038 15.4876 6.62359 15.3469 6.96876L13.5508 6.55967C13.7638 5.96308 14.0749 5.48154 14.484 5.11507C14.8974 4.74433 15.3725 4.47586 15.9094 4.30967C16.4464 4.13921 17.011 4.05399 17.6033 4.05399C17.9954 4.05399 18.4108 4.10086 18.8498 4.19461C19.2929 4.2841 19.7063 4.45029 20.0898 4.69319C20.4776 4.93609 20.7951 5.28339 21.0422 5.73509C21.2894 6.18254 21.413 6.76421 21.413 7.48012V14H19.5465V12.6577H19.4698C19.3462 12.9048 19.1608 13.1477 18.9137 13.3864C18.6665 13.625 18.3491 13.8232 17.9613 13.9808C17.5735 14.1385 17.109 14.2173 16.5678 14.2173ZM16.9833 12.6832C17.5117 12.6832 17.9634 12.5788 18.3384 12.37C18.7177 12.1612 19.0053 11.8885 19.2013 11.5519C19.4016 11.2109 19.5018 10.8466 19.5018 10.4588V9.19319C19.4336 9.26137 19.3015 9.32529 19.1054 9.38495C18.9137 9.44035 18.6942 9.48936 18.4471 9.53197C18.1999 9.57032 17.9591 9.60654 17.7248 9.64063C17.4904 9.67046 17.2944 9.69603 17.1367 9.71734C16.766 9.76421 16.4272 9.84305 16.1204 9.95384C15.8178 10.0646 15.5749 10.2244 15.3917 10.4332C15.2127 10.6378 15.1232 10.9105 15.1232 11.2514C15.1232 11.7244 15.2979 12.0824 15.6474 12.3253C15.9968 12.5639 16.4421 12.6832 16.9833 12.6832Z" fill="black"/>
  <path d="M2.4382 14V0.909088H7.10439C8.12286 0.909088 8.96661 1.09446 9.63564 1.4652C10.3047 1.83593 10.8054 2.34304 11.1378 2.9865C11.4702 3.62571 11.6364 4.34588 11.6364 5.14701C11.6364 5.95241 11.468 6.67684 11.1314 7.32031C10.799 7.95951 10.2962 8.46662 9.62286 8.84162C8.95383 9.21236 8.11221 9.39772 7.098 9.39772H3.8892V7.72301H6.91903C7.56249 7.72301 8.08451 7.61221 8.48508 7.39062C8.88564 7.16477 9.17968 6.85795 9.36718 6.47017C9.55468 6.08238 9.64843 5.64133 9.64843 5.14701C9.64843 4.6527 9.55468 4.21378 9.36718 3.83025C9.17968 3.44673 8.88351 3.1463 8.47869 2.92898C8.07812 2.71165 7.54971 2.60298 6.89346 2.60298H4.41334V14H2.4382Z" fill="black"/>
  <path d="M2.35709 62.2462V50.3436H3.68711V55.4608C3.68711 55.9305 3.78479 56.3437 3.98016 56.7007C4.17929 57.0538 4.45731 57.33 4.81424 57.5291C5.17492 57.7282 5.59572 57.8278 6.07663 57.8278C6.55754 57.8278 6.97646 57.7282 7.33339 57.5291C7.69407 57.3262 7.9721 57.0482 8.16747 56.695C8.36659 56.3381 8.46616 55.9267 8.46616 55.4608V50.3436H9.79618V59H8.46616V57.7151H8.39853C8.16559 58.1697 7.8406 58.5172 7.42356 58.7577C7.00652 58.9944 6.55754 59.1127 6.07663 59.1127C5.59572 59.1127 5.14675 58.9944 4.72971 58.7577C4.31642 58.5172 3.99143 58.1697 3.75473 57.7151H3.68711V62.2462H2.35709Z" fill="black"/>
  <path d="M44.424 57.1578C43.6801 57.1578 43.0169 57.0301 42.4346 56.7746C41.856 56.5191 41.3957 56.1641 41.0539 55.7094C40.7157 55.2511 40.5316 54.7194 40.5016 54.1145H41.9217C41.9518 54.4865 42.0795 54.8077 42.305 55.0782C42.5304 55.345 42.8253 55.5516 43.1898 55.6982C43.5542 55.8447 43.9581 55.918 44.4014 55.918C44.8974 55.918 45.337 55.8316 45.7202 55.6587C46.1034 55.4859 46.404 55.2454 46.6219 54.9374C46.8398 54.6293 46.9488 54.2723 46.9488 53.8666C46.9488 53.442 46.8436 53.0682 46.6332 52.7451C46.4228 52.4182 46.1147 52.1627 45.7089 51.9786C45.3032 51.7945 44.8072 51.7025 44.2211 51.7025H43.2969V50.4626H44.2211C44.6795 50.4626 45.0815 50.38 45.4271 50.2147C45.7765 50.0493 46.0489 49.8164 46.2443 49.5158C46.4434 49.2153 46.543 48.8621 46.543 48.4563C46.543 48.0656 46.4566 47.7256 46.2838 47.4363C46.1109 47.147 45.8667 46.9215 45.5511 46.76C45.2393 46.5984 44.8711 46.5177 44.4465 46.5177C44.0483 46.5177 43.6726 46.5909 43.3194 46.7375C42.97 46.8802 42.6844 47.0887 42.4628 47.363C42.2411 47.6335 42.1209 47.9604 42.1021 48.3436H40.7495C40.7721 47.7387 40.9543 47.209 41.2962 46.7544C41.6381 46.296 42.0852 45.9391 42.6375 45.6836C43.1935 45.4281 43.8041 45.3004 44.4691 45.3004C45.1829 45.3004 45.7953 45.445 46.3063 45.7343C46.8173 46.0198 47.2099 46.3974 47.4842 46.8671C47.7584 47.3367 47.8956 47.8439 47.8956 48.3887C47.8956 49.0387 47.7246 49.5929 47.3827 50.0512C47.0446 50.5096 46.5843 50.8271 46.002 51.0037V51.0938C46.7309 51.2141 47.3001 51.524 47.7096 52.0237C48.1191 52.5197 48.3239 53.1339 48.3239 53.8666C48.3239 54.494 48.1529 55.0576 47.811 55.5573C47.4729 56.0532 47.0108 56.444 46.4247 56.7295C45.8385 57.015 45.1717 57.1578 44.424 57.1578Z" fill="black"/>
  <path d="M26.7533 57V48.3436H28.0383V49.6962H28.151C28.3313 49.234 28.6225 48.8752 29.0245 48.6198C29.4265 48.3605 29.9093 48.2309 30.4729 48.2309C31.044 48.2309 31.5192 48.3605 31.8987 48.6198C32.2819 48.8752 32.5806 49.234 32.7948 49.6962H32.8849C33.1066 49.2491 33.4391 48.894 33.8825 48.631C34.3258 48.3643 34.8574 48.2309 35.4774 48.2309C36.2513 48.2309 36.8844 48.4732 37.3766 48.9579C37.8688 49.4388 38.1148 50.1884 38.1148 51.2065V57H36.7848V51.2065C36.7848 50.5678 36.6101 50.1113 36.2607 49.8371C35.9113 49.5628 35.4999 49.4257 35.0265 49.4257C34.4178 49.4257 33.9463 49.6098 33.6119 49.978C33.2776 50.3424 33.1104 50.8045 33.1104 51.3643V57H31.7578V51.0713C31.7578 50.5791 31.5981 50.1827 31.2788 49.8821C30.9594 49.5778 30.548 49.4257 30.0446 49.4257C29.6989 49.4257 29.3758 49.5177 29.0752 49.7018C28.7784 49.8859 28.538 50.1414 28.3539 50.4683C28.1735 50.7914 28.0833 51.1652 28.0833 51.5898V57H26.7533Z" fill="black"/>
  <path d="M25.1768 44.9171L21.4572 58.7358H20.2399L23.9594 44.9171H25.1768Z" fill="black"/>
  <path d="M14.9198 60.4265C14.2773 60.4265 13.7251 60.3438 13.2629 60.1785C12.8008 60.017 12.4157 59.8028 12.1076 59.5361C11.8033 59.2731 11.561 58.9913 11.3806 58.6907L12.4401 57.9468C12.5603 58.1046 12.7125 58.2849 12.8966 58.4878C13.0807 58.6945 13.3324 58.8729 13.6518 59.0232C13.9749 59.1773 14.3976 59.2543 14.9198 59.2543C15.6186 59.2543 16.1954 59.0852 16.65 58.7471C17.1046 58.4089 17.3319 57.8792 17.3319 57.1578V55.3995H17.2192C17.1215 55.5573 16.9825 55.7526 16.8021 55.9856C16.6255 56.2148 16.3701 56.4195 16.0357 56.5999C15.7051 56.7765 15.258 56.8647 14.6944 56.8647C13.9956 56.8647 13.3681 56.6994 12.8121 56.3688C12.2598 56.0382 11.8221 55.5573 11.499 54.9261C11.1796 54.2949 11.0199 53.5284 11.0199 52.6267C11.0199 51.74 11.1758 50.968 11.4877 50.3105C11.7995 49.6492 12.2335 49.1382 12.7895 48.7776C13.3456 48.4131 13.988 48.2309 14.7169 48.2309C15.2805 48.2309 15.7276 48.3248 16.0582 48.5127C16.3926 48.6968 16.6481 48.9072 16.8247 49.1439C17.005 49.3768 17.144 49.5684 17.2417 49.7187H17.377V48.3436H18.6619V57.248C18.6619 57.9919 18.4928 58.5968 18.1547 59.0627C17.8203 59.5323 17.3695 59.8761 16.8021 60.094C16.2386 60.3157 15.6111 60.4265 14.9198 60.4265ZM14.8747 55.67C15.4082 55.67 15.8591 55.5479 16.2273 55.3037C16.5955 55.0595 16.8754 54.7082 17.067 54.2498C17.2586 53.7914 17.3544 53.2429 17.3544 52.6042C17.3544 51.9805 17.2605 51.4301 17.0726 50.9529C16.8848 50.4758 16.6068 50.1019 16.2386 49.8314C15.8704 49.5609 15.4158 49.4257 14.8747 49.4257C14.3112 49.4257 13.8415 49.5684 13.4658 49.854C13.0939 50.1395 12.814 50.5227 12.6261 51.0036C12.442 51.4846 12.3499 52.0181 12.3499 52.6042C12.3499 53.2053 12.4439 53.737 12.6317 54.1991C12.8233 54.6574 13.1051 55.0181 13.4771 55.2811C13.8528 55.5404 14.3187 55.67 14.8747 55.67Z" fill="black"/>
  <defs>
    <linearGradient id="paint0_linear_0_1" x1="-6.35816" y1="191.231" x2="-6.35816" y2="70.3163" gradientUnits="userSpaceOnUse">
      <stop stop-color="white"/>
      <stop offset="0.25" stop-color="#F0F0F0"/>
      <stop offset="0.5" stop-color="#7D7C78"/>
      <stop offset="0.75" stop-color="#BEAF6F"/>
      <stop offset="1" stop-color="#FFEA46"/>
    </linearGradient>
  </defs>
</svg>